<svg xmlns="http://www.w3.org/2000/svg" width="241.675" height="251.198" viewBox="0 0 241.675 251.198">
  <g id="Group_6176" data-name="Group 6176" transform="translate(-271.299 -619.816)">
    <g id="Group_6172" data-name="Group 6172" transform="translate(446.465 854.459)">
      <path id="Path_7163" data-name="Path 7163" d="M113.729,180.213v3.816c0,1.629-1.075,3.258-3.232,4.5a11.361,11.361,0,0,1-1.44.7,17.926,17.926,0,0,1-12.725,0,11.313,11.313,0,0,1-1.437-.7c-2.153-1.241-3.235-2.87-3.235-4.5v-3.816Z" transform="translate(-91.66 -173.844)" fill="#b2b2b2"/>
      <path id="Path_7164" data-name="Path 7164" d="M110.5,180.16c4.31,2.485,4.31,6.52,0,9.009a17.235,17.235,0,0,1-15.6,0c-4.31-2.489-4.31-6.523,0-9.009A17.236,17.236,0,0,1,110.5,180.16Z" transform="translate(-91.658 -178.293)" fill="#ededed"/>
    </g>
    <g id="Group_6175" data-name="Group 6175" transform="translate(306.465 775.321)">
      <path id="Path_7163-2" data-name="Path 7163" d="M113.729,180.213v3.816c0,1.629-1.075,3.258-3.232,4.5a11.361,11.361,0,0,1-1.44.7,17.926,17.926,0,0,1-12.725,0,11.313,11.313,0,0,1-1.437-.7c-2.153-1.241-3.235-2.87-3.235-4.5v-3.816Z" transform="translate(-91.66 -173.844)" fill="#b2b2b2"/>
      <path id="Path_7164-2" data-name="Path 7164" d="M110.5,180.16c4.31,2.485,4.31,6.52,0,9.009a17.235,17.235,0,0,1-15.6,0c-4.31-2.489-4.31-6.523,0-9.009A17.236,17.236,0,0,1,110.5,180.16Z" transform="translate(-91.658 -178.293)" fill="#ededed"/>
    </g>
    <path id="Path_16970" data-name="Path 16970" d="M0,0H9V103s-.352,2.737-4.592,2.737S0,103,0,103Z" transform="translate(453 757)" fill="#ccc"/>
    <path id="Path_16971" data-name="Path 16971" d="M0,0H9V103s-.352,2.737-4.592,2.737S0,103,0,103Z" transform="translate(313 677.862)" fill="#ccc"/>
    <path id="Path_16962" data-name="Path 16962" d="M0,0H202.665l34.382,59.552H34.382Z" transform="translate(301.075 621.779) rotate(30)" fill="#fadd61"/>
    <path id="Path_16963" data-name="Path 16963" d="M34.2,0h7.895L7.895,59.53H0Z" transform="translate(446.755 740.242) rotate(-30)" fill="#b4b4b4"/>
    <path id="Path_16964" data-name="Path 16964" d="M1421.336,480.182l-6.846,3.926-175.18-101.454,4.17-1.968Z" transform="translate(-938.2 239.131)" fill="#fcfcfc"/>
    <g id="START" transform="translate(125.688 479.465)" style="isolation: isolate">
      <g id="Group_6173" data-name="Group 6173" transform="translate(189.567 174.568)" style="isolation: isolate">
        <path id="Path_16965" data-name="Path 16965" d="M207.67,204.627a5.787,5.787,0,0,0-1.238-3.44,34.644,34.644,0,0,0-4.35-4.533q-3.112-2.841-5.088-4.959-6.427-6.867-6.428-12.388a4.551,4.551,0,0,1,1.6-3.925,5.769,5.769,0,0,1,4.532-.654,20.877,20.877,0,0,1,6.588,2.633,29.4,29.4,0,0,1,6.392,4.963,23.417,23.417,0,0,1,4.4,6.161,14.446,14.446,0,0,1,1.566,6.277l-7.949-4.59a6.757,6.757,0,0,0-1.238-3.849,10.018,10.018,0,0,0-3.35-3.047,5.383,5.383,0,0,0-3.373-1,1.476,1.476,0,0,0-1.238,1.681,5.561,5.561,0,0,0,1.363,3.092,38.2,38.2,0,0,0,4.791,4.9,64.9,64.9,0,0,1,5.633,5.626q5.361,6.184,5.36,11.612,0,4.339-3.27,4.926t-8.971-2.7a33.833,33.833,0,0,1-7.279-5.645,25.36,25.36,0,0,1-4.906-6.785,15.612,15.612,0,0,1-1.648-6.731l8,4.616a8.268,8.268,0,0,0,1.375,4.711,13.143,13.143,0,0,0,4.462,3.837,5.141,5.141,0,0,0,3.124.952C207.288,206.234,207.67,205.658,207.67,204.627Z" transform="translate(-189.567 -174.568)" fill="#522613"/>
        <path id="Path_16966" data-name="Path 16966" d="M244.356,208.036l-9.925-5.731v26.916l-7.974-4.6V197.7l-9.744-5.626v-6.155l27.643,15.96Z" transform="translate(-187.347 -173.639)" fill="#522613"/>
        <path id="Path_16967" data-name="Path 16967" d="M262.648,238.8,251.724,232.5l-1.908,5.076-8.517-4.917,12.129-26.069,7.494,4.327,12.221,40.128-8.563-4.945Zm-9.017-11.361,7.109,4.105-3.566-13.53Z" transform="translate(-185.336 -171.949)" fill="#522613"/>
        <path id="Path_16968" data-name="Path 16968" d="M286.066,247.336l-4.316-2.492v11.7l-7.972-4.6V218.867l13.015,7.514a29.4,29.4,0,0,1,9.2,7.921,15.555,15.555,0,0,1,3.316,9.288q0,3.45-1.4,4.912t-4.373,1.151l6.905,17.339v.342L291.9,262.4Zm-4.316-8.625,5.043,2.911q2.27,1.311,3.418.778t1.146-2.674A7.566,7.566,0,0,0,290.2,235.7a9.415,9.415,0,0,0-3.407-3.186L281.75,229.6Z" transform="translate(-182.68 -170.945)" fill="#522613"/>
        <path id="Path_16969" data-name="Path 16969" d="M327.684,256.146l-9.925-5.731v26.916l-7.973-4.6V245.813l-9.744-5.626v-6.155l27.642,15.959Z" transform="translate(-180.531 -169.705)" fill="#522613"/>
      </g>
    </g>
  </g>
</svg>
