<svg xmlns="http://www.w3.org/2000/svg" width="80" height="60" viewBox="0 0 98.322 85">
  <g  transform="translate(-750.678 -5358)">
    <g transform="translate(764 5358)" fill="#fff">
      <path d="M 42.5 83 C 37.70917129516602 83 33.02422714233398 82.17212677001953 28.57528495788574 80.53939819335938 C 24.26961326599121 78.959228515625 20.2862434387207 76.66555786132812 16.7358283996582 73.72208404541016 C 13.2080135345459 70.79734039306641 10.21578502655029 67.32163238525391 7.842257022857666 63.39147186279297 C 5.419085502624512 59.37908554077148 3.712270975112915 55.00742721557617 2.769242525100708 50.39794158935547 C 2.339714050292969 48.30252838134766 -0.1896860599517822 47.12077331542969 -4.998543262481689 45.04307174682617 C -6.526329040527344 44.38297271728516 -8.106128692626953 43.70041275024414 -9.360385894775391 43.04302978515625 C -10.06411838531494 42.67418670654297 -10.53191661834717 42.38196182250977 -10.84073829650879 42.16271591186523 C -10.56449508666992 42.00207901000977 -10.17446708679199 41.7994499206543 -9.627114295959473 41.55488586425781 C -8.505585670471191 41.05377197265625 -7.079471588134766 40.53324127197266 -5.700328826904297 40.02985763549805 C -0.7474860548973083 38.22208404541016 2.31157112121582 36.99155807495117 2.774156808853149 34.57721328735352 C 4.496185302734375 25.57292938232422 9.388699531555176 17.33352851867676 16.55055618286133 11.37612819671631 C 20.11612892150879 8.410214424133301 24.12141418457031 6.095757007598877 28.45518493652344 4.497085571289062 C 32.94688415527344 2.840142965316772 37.6722412109375 2 42.5 2 C 47.96834182739258 2 53.27205657958984 3.070528507232666 58.26381301879883 5.18187141418457 C 63.08628463745117 7.22160005569458 67.417724609375 10.14208602905273 71.13782501220703 13.8621711730957 C 74.85791015625 17.58227157592773 77.77839660644531 21.9137134552002 79.81813049316406 26.73618507385254 C 81.92947387695312 31.72794342041016 83 37.03165817260742 83 42.5 C 83 47.96834182739258 81.92947387695312 53.27205657958984 79.81813049316406 58.26381301879883 C 77.77839660644531 63.08628463745117 74.85791015625 67.41773223876953 71.13782501220703 71.13782501220703 C 67.417724609375 74.85791778564453 63.08628463745117 77.77839660644531 58.26381301879883 79.81813049316406 C 53.27205657958984 81.92947387695312 47.96834182739258 83 42.5 83 Z" stroke="none"/>
      <path d="M 42.49999237060547 4 C 37.90921020507812 4 33.41672897338867 4.798553466796875 29.14736175537109 6.373481750488281 C 25.02761077880859 7.893218994140625 21.21974563598633 10.09366607666016 17.82954406738281 12.91371917724609 C 11.02289581298828 18.57565307617188 6.373809814453125 26.40241622924805 4.738426208496094 34.95358276367188 C 4.491264343261719 36.24363327026367 3.762092590332031 37.38661575317383 2.571174621582031 38.35079956054688 C 1.939712524414062 38.8620491027832 1.149894714355469 39.3466682434082 0.1565933227539062 39.83233261108398 C -1.366790771484375 40.57718276977539 -3.221206665039062 41.25405120849609 -5.014556884765625 41.90861511230469 C -5.414894104003906 42.05474090576172 -5.808135986328125 42.19827270507812 -6.190483093261719 42.33980941772461 C -5.542198181152344 42.62948608398438 -4.868080139160156 42.92074584960938 -4.205307006835938 43.20709991455078 C -2.469123840332031 43.95723342895508 -0.8292388916015625 44.66574859619141 0.5417098999023438 45.40868377685547 C 1.42742919921875 45.88866806030273 2.129898071289062 46.34783172607422 2.689247131347656 46.81245040893555 C 3.798141479492188 47.73355102539062 4.48419189453125 48.80450057983398 4.728660583496094 49.9970817565918 C 5.625808715820312 54.38238525390625 7.249397277832031 58.54104995727539 9.554279327392578 62.35755157470703 C 11.81169509887695 66.09545135498047 14.65737915039062 69.40101623535156 18.01229476928711 72.18240356445312 C 21.3870964050293 74.98028564453125 25.17282867431641 77.16028594970703 29.26434326171875 78.66184997558594 C 33.49187850952148 80.21333312988281 37.94499588012695 81 42.49999237060547 81 C 47.69922637939453 81 52.74081420898438 79.98262023925781 57.48471069335938 77.97611999511719 C 62.06877899169922 76.03721618652344 66.18654632568359 73.26066589355469 69.72360992431641 69.72361755371094 C 73.26065826416016 66.18655395507812 76.03720855712891 62.06878280639648 77.97611236572266 57.48471832275391 C 79.98261260986328 52.74081802368164 80.99999237060547 47.69923400878906 80.99999237060547 42.5 C 80.99999237060547 37.30076599121094 79.98261260986328 32.25918197631836 77.97611236572266 27.51528167724609 C 76.03720855712891 22.93121719360352 73.26065826416016 18.81345367431641 69.72360992431641 15.27638244628906 C 66.18654632568359 11.73933410644531 62.06877899169922 8.962783813476562 57.48471069335938 7.023880004882812 C 52.74081420898438 5.017379760742188 47.69922637939453 4 42.49999237060547 4 M 42.49999237060547 0 C 65.97209167480469 0 84.99999237060547 19.02790069580078 84.99999237060547 42.5 C 84.99999237060547 65.97209930419922 65.97209167480469 85 42.49999237060547 85 C 21.96191024780273 85 4.826408386230469 70.4317626953125 0.8098297119140625 50.7988166809082 C 0.2973098754882812 48.298583984375 -13.32213592529297 44.99993515014648 -13.32213592529297 42.06591796875 C -13.32213592529297 39.31968307495117 0.2604751586914062 37.06836700439453 0.8098983764648438 34.20086669921875 C 4.513359069824219 14.83585357666016 21.77412796020508 0 42.49999237060547 0 Z" stroke="none" fill="#512515"/>
    </g>
  </g>
</svg>
