<svg xmlns="http://www.w3.org/2000/svg" width="480" height="440" viewBox="0 0 480 440">
  <g id="illust-empty" transform="translate(-358.543 -272.621)">
    <path id="Path_5199" data-name="Path 5199" d="M457.994,476.248,341.052,500.9a13.039,13.039,0,0,1-15.43-10.058l-20.067-95.2a13.038,13.038,0,0,1,10.058-15.43l116.942-24.649a13.038,13.038,0,0,1,15.43,10.058l20.067,95.2A13.038,13.038,0,0,1,457.994,476.248ZM315.929,381.706a11.5,11.5,0,0,0-8.874,13.615l20.067,95.2a11.5,11.5,0,0,0,13.615,8.874l116.942-24.649a11.5,11.5,0,0,0,8.874-13.615l-20.067-95.2a11.5,11.5,0,0,0-13.615-8.874Z" transform="translate(109.936 64.809)" fill="#d8d8d8"/>
    <path id="Path_411" data-name="Path 411" d="M443.135,395.353l-59.019,12.44a2.092,2.092,0,0,1-2.474-1.427,2.015,2.015,0,0,1,1.531-2.493l60.078-12.663c2.346,1.322,1.6,3.781-.117,4.144Z" transform="translate(87.346 54.239)" fill="#ccc"/>
    <path id="Path_412" data-name="Path 412" d="M445.983,408.866l-59.019,12.44a2.092,2.092,0,0,1-2.474-1.427,2.015,2.015,0,0,1,1.531-2.493L446.1,404.723c2.346,1.322,1.6,3.781-.117,4.144Z" transform="translate(86.59 51.68)" fill="#ccc"/>
    <path id="Path_413" data-name="Path 413" d="M365.006,429.715l-18.012,3.8a2.269,2.269,0,0,1-2.686-1.751l-4.48-21.256a2.269,2.269,0,0,1,1.751-2.686l18.012-3.8a2.27,2.27,0,0,1,2.686,1.751l4.48,21.256a2.269,2.269,0,0,1-1.751,2.686Z" transform="translate(98.704 52.158)" fill="#ccc"/>
    <path id="Path_414" data-name="Path 414" d="M442.11,436.582l-90.074,18.986a2.092,2.092,0,0,1-2.474-1.427,2.015,2.015,0,0,1,1.531-2.493l91.133-19.209c2.346,1.322,1.6,3.781-.117,4.144Z" transform="translate(95.576 46.619)" fill="#ccc"/>
    <path id="Path_415" data-name="Path 415" d="M444.959,450.1l-90.074,18.986a2.092,2.092,0,0,1-2.474-1.427,2.015,2.015,0,0,1,1.531-2.493l91.133-19.209c2.346,1.322,1.6,3.781-.117,4.144Z" transform="translate(94.813 44.069)" fill="#ccc"/>
    <path id="Path_416" data-name="Path 416" d="M447.806,463.607l-90.074,18.986a2.092,2.092,0,0,1-2.474-1.427,2.015,2.015,0,0,1,1.531-2.493l91.133-19.209C450.268,460.785,449.527,463.244,447.806,463.607Z" transform="translate(94.05 41.52)" fill="#ccc"/>
    <path id="Path_417" data-name="Path 417" d="M450.655,477.123l-90.074,18.986a2.092,2.092,0,0,1-2.474-1.427,2.015,2.015,0,0,1,1.531-2.493l91.133-19.209C453.117,474.3,452.376,476.76,450.655,477.123Z" transform="translate(93.286 38.97)" fill="#ccc"/>
    <path id="Path_418" data-name="Path 418" d="M453.5,490.632l-90.074,18.986a2.092,2.092,0,0,1-2.474-1.427,2.015,2.015,0,0,1,1.531-2.493l91.133-19.209c2.346,1.322,1.6,3.781-.117,4.144Z" transform="translate(92.524 36.422)" fill="#ccc"/>
    <path id="Path_5200" data-name="Path 5200" d="M483.713,428.774a8.058,8.058,0,0,0-.523,1.157l-36.875,9.151-6.415-6.636-11.281,8.372,10.215,12.852a6.129,6.129,0,0,0,7.116,1.86l40.013-16.35a8.042,8.042,0,1,0-2.25-10.405Z" transform="translate(74.755 48.322)" fill="#ffded0"/>
    <path id="Path_5201" data-name="Path 5201" d="M332.95,510.282a8.23,8.23,0,0,0,4.886-11.635l25.376-70.533-17.623-3.123-19.4,70.313a8.275,8.275,0,0,0,6.763,14.978Z" transform="translate(105.982 50.133)" fill="#ffded0"/>
    <path id="Path_5202" data-name="Path 5202" d="M365.5,434.825l-17.4-6.678a3.69,3.69,0,0,1-1.892-5.258l9.128-16.184a10.248,10.248,0,1,1,19.114,7.4l-4.026,18.078a3.69,3.69,0,0,1-4.924,2.642Z" transform="translate(97.122 53.018)" fill="#fadd61"/>
    <path id="Path_5203" data-name="Path 5203" d="M191.493,520.114h9.392l4.469-36.227H191.491Z" transform="translate(308.324 182.682)" fill="#ffb8b8"/>
    <path id="Path_5204" data-name="Path 5204" d="M419.671,705.173h18.5a11.787,11.787,0,0,1,11.788,11.788v.383H419.671Z" transform="translate(77.651 -5.443)" fill="#646464"/>
    <path id="Path_5205" data-name="Path 5205" d="M122.493,520.114h9.392l4.469-36.227H122.491Z" transform="translate(326.419 182.682)" fill="#ffb8b8"/>
    <path id="Path_5206" data-name="Path 5206" d="M350.671,705.173h18.5a11.787,11.787,0,0,1,11.788,11.788v.383H350.671Z" transform="translate(95.815 -5.443)" fill="#646464"/>
    <path id="Path_5207" data-name="Path 5207" d="M361.969,651.546H350.083a3.448,3.448,0,0,1-3.443-3.611l5.646-121.3.356-.01,57.4-1.5L421.268,646.5a3.448,3.448,0,0,1-3.157,3.762l-13.35,1.068a3.449,3.449,0,0,1-3.652-2.744l-17.077-86.4a1.114,1.114,0,0,0-1.125-.919h0a1.114,1.114,0,0,0-1.123.928l-16.427,86.569A3.455,3.455,0,0,1,361.969,651.546Z" transform="translate(96.522 36.669)" fill="#646464"/>
    <circle id="Ellipse_69" data-name="Ellipse 69" cx="18.816" cy="18.816" r="18.816" transform="translate(461.036 401.705)" fill="#ffded0"/>
    <path id="Path_5208" data-name="Path 5208" d="M378.6,510.109c-8.968,0-18.18-2.357-25.816-9.327a3.487,3.487,0,0,1-1.126-2.949c.817-7.344,4.782-45.262,2.549-70.591a30.659,30.659,0,0,1,9.925-25.515,30.336,30.336,0,0,1,26.018-7.534h0c.234.042.469.086.7.131a30.478,30.478,0,0,1,24.347,32.43c-1.728,22.723-3.277,53.458-.845,70.84a3.442,3.442,0,0,1-1.85,3.552C406.974,503.942,393.107,510.109,378.6,510.109Z" transform="translate(95.288 56.957)" fill="#fadd61"/>
    <path id="Path_5209" data-name="Path 5209" d="M417.573,436.791a3.686,3.686,0,0,1-1.616-2.613L413.664,415.8a10.248,10.248,0,0,1,19.73-5.553l7.551,16.978a3.69,3.69,0,0,1-2.383,5.054l-17.955,5a3.686,3.686,0,0,1-3.035-.484Z" transform="translate(79.36 52.52)" fill="#fadd61"/>
    <path id="Path_5210" data-name="Path 5210" d="M380.929,372.347a13.483,13.483,0,0,1-5.207-.942c-.729-.281-1.485-.512-2.213-.793-6.425-2.482-10.657-9.325-10.809-16.211s3.415-13.57,8.71-17.974,12.154-6.666,19.022-7.189c7.4-.563,15.728,1.313,19.862,7.474a6.489,6.489,0,0,1,1.218,5.61,3.589,3.589,0,0,1-1.011,1.554c-1.846,1.642-3.687.407-5.569.3-2.587-.15-4.91,1.944-5.745,4.4a13.249,13.249,0,0,0,.207,7.655,19.123,19.123,0,0,1,.964,4.655,4.679,4.679,0,0,1-1.939,4.12c-1.616.977-3.739.412-5.357-.564s-3.015-2.332-4.762-3.05-4.094-.559-5.111,1.033a5.654,5.654,0,0,0-.646,1.866c-.912,4.153-.7,3.909-1.614,8.062Z" transform="translate(92.489 66.473)" fill="#522613"/>
    <path id="Path_5211" data-name="Path 5211" d="M686.23,314.342H566.719a13.039,13.039,0,0,1-13.024-13.024V204.024A13.038,13.038,0,0,1,566.719,191H686.23a13.038,13.038,0,0,1,13.024,13.024v97.295a13.038,13.038,0,0,1-13.024,13.024ZM566.719,192.532a11.5,11.5,0,0,0-11.492,11.491v97.295a11.5,11.5,0,0,0,11.492,11.492H686.23a11.5,11.5,0,0,0,11.491-11.492V204.024a11.5,11.5,0,0,0-11.491-11.491Z" transform="translate(39.274 91.58)" fill="#d8d8d8"/>
    <path id="Path_411-2" data-name="Path 411" d="M689.9,227.907H629.582A2.092,2.092,0,0,1,627.456,226a2.015,2.015,0,0,1,2.012-2.124h61.4c2.023,1.777.79,4.03-.969,4.03Z" transform="translate(22.036 83.89)" fill="#ccc"/>
    <path id="Path_412-2" data-name="Path 412" d="M689.9,241.717H629.582a2.092,2.092,0,0,1-2.126-1.907,2.015,2.015,0,0,1,2.012-2.124h61.4c2.023,1.777.79,4.03-.969,4.03Z" transform="translate(22.036 80.66)" fill="#ccc"/>
    <path id="Path_413-2" data-name="Path 413" d="M606.9,242.795H588.492a2.269,2.269,0,0,1-2.267-2.267V218.8a2.269,2.269,0,0,1,2.267-2.267H606.9a2.27,2.27,0,0,1,2.267,2.267v21.723a2.269,2.269,0,0,1-2.267,2.267Z" transform="translate(33.967 85.607)" fill="#646464"/>
    <path id="Path_414-2" data-name="Path 414" d="M679.979,269.993H587.926a2.092,2.092,0,0,1-2.126-1.907,2.015,2.015,0,0,1,2.012-2.124h93.136C682.971,267.74,681.738,269.993,679.979,269.993Z" transform="translate(32.212 74.047)" fill="#ccc"/>
    <path id="Path_415-2" data-name="Path 415" d="M679.979,283.807H587.926A2.092,2.092,0,0,1,585.8,281.9a2.015,2.015,0,0,1,2.012-2.124h93.136C682.971,281.554,681.738,283.807,679.979,283.807Z" transform="translate(32.212 70.815)" fill="#ccc"/>
    <path id="Path_416-2" data-name="Path 416" d="M679.979,297.612H587.926a2.092,2.092,0,0,1-2.126-1.907,2.015,2.015,0,0,1,2.012-2.124h93.136C682.971,295.359,681.738,297.612,679.979,297.612Z" transform="translate(32.212 72.573)" fill="#ccc"/>
    <path id="Path_417-2" data-name="Path 417" d="M679.979,311.425H587.926a2.092,2.092,0,0,1-2.126-1.907,2.015,2.015,0,0,1,2.012-2.124h93.136C682.971,309.172,681.738,311.425,679.979,311.425Z" transform="translate(32.212 69.938)" fill="#ccc"/>
    <path id="Path_418-2" data-name="Path 418" d="M679.979,325.232H587.926a2.092,2.092,0,0,1-2.126-1.907,2.015,2.015,0,0,1,2.012-2.124h93.136C682.971,322.978,681.738,325.232,679.979,325.232Z" transform="translate(32.212 67.304)" fill="#ccc"/>
    <path id="Path_5212" data-name="Path 5212" d="M670.942,178a3.835,3.835,0,0,1,3.831,3.831v12.258a3.835,3.835,0,0,1-3.831,3.831H603.525a3.835,3.835,0,0,1-3.83-3.831V181.83a3.835,3.835,0,0,1,3.83-3.83" transform="translate(29.115 94.621)" fill="#fadd61"/>
    <path id="Path_5213" data-name="Path 5213" d="M911.23,471.342H791.719a13.038,13.038,0,0,1-13.024-13.024V361.024A13.038,13.038,0,0,1,791.719,348H911.23a13.038,13.038,0,0,1,13.024,13.024v97.295A13.038,13.038,0,0,1,911.23,471.342ZM791.719,349.532a11.5,11.5,0,0,0-11.492,11.491v97.295a11.5,11.5,0,0,0,11.492,11.492H911.23a11.5,11.5,0,0,0,11.491-11.491V361.024a11.5,11.5,0,0,0-11.492-11.491Z" transform="translate(-85.711 107.245)" fill="#d8d8d8"/>
    <path id="Path_411-3" data-name="Path 411" d="M914.9,384.907H854.582A2.092,2.092,0,0,1,852.456,383a2.015,2.015,0,0,1,2.012-2.124h61.4c2.023,1.777.79,4.03-.969,4.03Z" transform="translate(-102.963 97.098)" fill="#646464"/>
    <path id="Path_412-3" data-name="Path 412" d="M914.9,398.717H854.582a2.092,2.092,0,0,1-2.126-1.907,2.015,2.015,0,0,1,2.012-2.124h61.4c2.023,1.777.79,4.03-.969,4.03Z" transform="translate(-102.963 94.464)" fill="#646464"/>
    <path id="Path_413-3" data-name="Path 413" d="M831.9,399.795H813.492a2.269,2.269,0,0,1-2.267-2.267V375.8a2.269,2.269,0,0,1,2.267-2.267H831.9a2.27,2.27,0,0,1,2.267,2.267v21.723a2.269,2.269,0,0,1-2.267,2.267Z" transform="translate(-89.635 99.103)" fill="#ccc"/>
    <path id="Path_413-4" data-name="Path 413" d="M926.9,479.6H908.492a2.269,2.269,0,0,1-2.267-2.267V464.8a2.269,2.269,0,0,1,2.267-2.267H926.9a2.27,2.27,0,0,1,2.267,2.267v12.53A2.269,2.269,0,0,1,926.9,479.6Z" transform="translate(-115.54 81.992)" fill="#646464"/>
    <path id="Path_414-3" data-name="Path 414" d="M904.979,426.993H812.926a2.092,2.092,0,0,1-2.126-1.907,2.015,2.015,0,0,1,2.012-2.124h93.136C907.971,424.74,906.738,426.993,904.979,426.993Z" transform="translate(-93.219 89.07)" fill="#ccc"/>
    <path id="Path_415-3" data-name="Path 415" d="M904.979,440.807H812.926A2.092,2.092,0,0,1,810.8,438.9a2.015,2.015,0,0,1,2.012-2.124h93.136C907.971,438.554,906.738,440.807,904.979,440.807Z" transform="translate(-93.219 86.435)" fill="#ccc"/>
    <path id="Path_416-3" data-name="Path 416" d="M904.979,454.612H812.926a2.092,2.092,0,0,1-2.126-1.907,2.015,2.015,0,0,1,2.012-2.124h93.136C907.971,452.359,906.738,454.612,904.979,454.612Z" transform="translate(-93.22 83.801)" fill="#ccc"/>
    <path id="Path_417-3" data-name="Path 417" d="M856.715,468.425H812.926a2.092,2.092,0,0,1-2.126-1.907,2.015,2.015,0,0,1,2.012-2.124h44.872c2.023,1.777.79,4.03-.969,4.03Z" transform="translate(-93.219 81.166)" fill="#ccc"/>
    <path id="Path_418-3" data-name="Path 418" d="M856.715,482.231H812.926a2.092,2.092,0,0,1-2.126-1.907,2.015,2.015,0,0,1,2.012-2.124h44.872C859.706,479.978,858.474,482.231,856.715,482.231Z" transform="translate(-93.22 78.533)" fill="#ccc"/>
    <path id="Path_5214" data-name="Path 5214" d="M895.942,354.919H828.525a3.835,3.835,0,0,1-3.831-3.83V338.831A3.835,3.835,0,0,1,828.525,335h67.417a3.835,3.835,0,0,1,3.831,3.83v12.258a3.835,3.835,0,0,1-3.83,3.831Z" transform="translate(-96.47 106.209)" fill="#fadd61"/>
    <path id="Path_5215" data-name="Path 5215" d="M523.955,721.532H232.071a.766.766,0,0,1,0-1.532H523.955a.766.766,0,1,1,0,1.532Z" transform="translate(127.238 -8.911)" fill="#d8d8d8"/>
    <circle id="Ellipse_70" data-name="Ellipse 70" cx="4.954" cy="4.954" r="4.954" transform="translate(427.719 285.536)" fill="#f2f2f2"/>
    <circle id="Ellipse_71" data-name="Ellipse 71" cx="4.954" cy="4.954" r="4.954" transform="translate(427.719 305.281)" fill="#f2f2f2"/>
    <circle id="Ellipse_72" data-name="Ellipse 72" cx="4.954" cy="4.954" r="4.954" transform="translate(427.719 325.025)" fill="#f2f2f2"/>
    <circle id="Ellipse_73" data-name="Ellipse 73" cx="4.954" cy="4.954" r="4.954" transform="translate(427.719 344.77)" fill="#f2f2f2"/>
    <circle id="Ellipse_74" data-name="Ellipse 74" cx="4.954" cy="4.954" r="4.954" transform="translate(445.106 285.536)" fill="#f2f2f2"/>
    <circle id="Ellipse_75" data-name="Ellipse 75" cx="4.954" cy="4.954" r="4.954" transform="translate(445.106 305.281)" fill="#f2f2f2"/>
    <circle id="Ellipse_76" data-name="Ellipse 76" cx="4.954" cy="4.954" r="4.954" transform="translate(445.106 325.025)" fill="#f2f2f2"/>
    <circle id="Ellipse_77" data-name="Ellipse 77" cx="4.954" cy="4.954" r="4.954" transform="translate(445.106 344.77)" fill="#f2f2f2"/>
    <circle id="Ellipse_78" data-name="Ellipse 78" cx="4.954" cy="4.954" r="4.954" transform="translate(465.031 285.536)" fill="#f2f2f2"/>
    <circle id="Ellipse_79" data-name="Ellipse 79" cx="4.954" cy="4.954" r="4.954" transform="translate(465.031 305.281)" fill="#f2f2f2"/>
    <circle id="Ellipse_80" data-name="Ellipse 80" cx="4.954" cy="4.954" r="4.954" transform="translate(465.031 325.025)" fill="#f2f2f2"/>
    <circle id="Ellipse_81" data-name="Ellipse 81" cx="4.954" cy="4.954" r="4.954" transform="translate(465.031 344.77)" fill="#f2f2f2"/>
    <circle id="Ellipse_82" data-name="Ellipse 82" cx="4.954" cy="4.954" r="4.954" transform="translate(484.956 285.536)" fill="#f2f2f2"/>
    <circle id="Ellipse_83" data-name="Ellipse 83" cx="4.954" cy="4.954" r="4.954" transform="translate(484.956 305.281)" fill="#f2f2f2"/>
    <circle id="Ellipse_84" data-name="Ellipse 84" cx="4.954" cy="4.954" r="4.954" transform="translate(484.956 325.025)" fill="#f2f2f2"/>
    <circle id="Ellipse_85" data-name="Ellipse 85" cx="4.954" cy="4.954" r="4.954" transform="translate(484.956 344.77)" fill="#f2f2f2"/>
    <circle id="Ellipse_86" data-name="Ellipse 86" cx="4.954" cy="4.954" r="4.954" transform="translate(504.881 285.536)" fill="#f2f2f2"/>
    <circle id="Ellipse_87" data-name="Ellipse 87" cx="4.954" cy="4.954" r="4.954" transform="translate(504.881 305.281)" fill="#f2f2f2"/>
    <circle id="Ellipse_88" data-name="Ellipse 88" cx="4.954" cy="4.954" r="4.954" transform="translate(504.881 325.025)" fill="#f2f2f2"/>
    <circle id="Ellipse_89" data-name="Ellipse 89" cx="4.954" cy="4.954" r="4.954" transform="translate(504.881 344.77)" fill="#f2f2f2"/>
    <circle id="Ellipse_90" data-name="Ellipse 90" cx="4.954" cy="4.954" r="4.954" transform="translate(524.807 285.536)" fill="#f2f2f2"/>
    <circle id="Ellipse_91" data-name="Ellipse 91" cx="4.954" cy="4.954" r="4.954" transform="translate(524.807 305.281)" fill="#f2f2f2"/>
    <circle id="Ellipse_92" data-name="Ellipse 92" cx="4.954" cy="4.954" r="4.954" transform="translate(524.807 325.025)" fill="#f2f2f2"/>
    <circle id="Ellipse_93" data-name="Ellipse 93" cx="4.954" cy="4.954" r="4.954" transform="translate(524.807 344.77)" fill="#f2f2f2"/>
    <circle id="Ellipse_94" data-name="Ellipse 94" cx="4.954" cy="4.954" r="4.954" transform="translate(733.318 617.414)" fill="#f2f2f2"/>
    <circle id="Ellipse_95" data-name="Ellipse 95" cx="4.954" cy="4.954" r="4.954" transform="translate(733.318 641.769)" fill="#f2f2f2"/>
    <circle id="Ellipse_96" data-name="Ellipse 96" cx="4.954" cy="4.954" r="4.954" transform="translate(733.318 661.513)" fill="#f2f2f2"/>
    <circle id="Ellipse_97" data-name="Ellipse 97" cx="4.954" cy="4.954" r="4.954" transform="translate(750.37 617.414)" fill="#f2f2f2"/>
    <circle id="Ellipse_98" data-name="Ellipse 98" cx="4.954" cy="4.954" r="4.954" transform="translate(750.37 641.769)" fill="#f2f2f2"/>
    <circle id="Ellipse_99" data-name="Ellipse 99" cx="4.954" cy="4.954" r="4.954" transform="translate(750.37 661.513)" fill="#f2f2f2"/>
    <circle id="Ellipse_100" data-name="Ellipse 100" cx="4.954" cy="4.954" r="4.954" transform="translate(771.055 617.414)" fill="#f2f2f2"/>
    <circle id="Ellipse_101" data-name="Ellipse 101" cx="4.954" cy="4.954" r="4.954" transform="translate(771.055 641.769)" fill="#f2f2f2"/>
    <circle id="Ellipse_102" data-name="Ellipse 102" cx="4.954" cy="4.954" r="4.954" transform="translate(771.055 661.513)" fill="#f2f2f2"/>
    <circle id="Ellipse_103" data-name="Ellipse 103" cx="4.954" cy="4.954" r="4.954" transform="translate(791.74 617.414)" fill="#f2f2f2"/>
    <circle id="Ellipse_104" data-name="Ellipse 104" cx="4.954" cy="4.954" r="4.954" transform="translate(791.74 641.769)" fill="#f2f2f2"/>
    <circle id="Ellipse_105" data-name="Ellipse 105" cx="4.954" cy="4.954" r="4.954" transform="translate(791.74 661.513)" fill="#f2f2f2"/>
  </g>
</svg>
