<svg xmlns="http://www.w3.org/2000/svg" xmlns:xlink="http://www.w3.org/1999/xlink" width="80" height="130" viewBox="0 0 109.617 151.275">
  <defs>
    <linearGradient id="linear-gradient" x1="-269.287" y1="-109.208" x2="-268.224" y2="-109.208" gradientUnits="objectBoundingBox">
      <stop offset="0" stop-color="#231f20"/>
      <stop offset="0.09" stop-color="#231f20"/>
      <stop offset="1" stop-color="#231f20"/>
    </linearGradient>
  </defs>
  <g id="Group_5942" data-name="Group 5942" transform="translate(-163.757 -306.821)">
    <path id="Path_16231" data-name="Path 16231" d="M179.461,360.89l-.759-.42s-.242-4.158-1.5-1.582,2.7-2.182,2.7-2.182Z" transform="translate(14.104 53.298)" fill="#2c3e50"/>
    <path id="Path_16232" data-name="Path 16232" d="M170.3,362.347l-.757-.42s-.244-4.158-1.5-1.582,2.7-2.182,2.7-2.182Z" transform="translate(4.322 54.854)" fill="#2c3e50"/>
    <g id="Group_5930" data-name="Group 5930" transform="translate(218.722 390.585)">
      <path id="Path_16233" data-name="Path 16233" d="M205.969,373.556s2.66,3.785,1.363,7.111c-.3.776-3.169,2.745-3.872,2.712a1.859,1.859,0,0,0-1.713.72c-.674.656-.544.923-1.6,1.764s-6.015,2.976-9.748.376a7.911,7.911,0,0,1,.023-2.137,15.155,15.155,0,0,1,4.031-3.365A21.1,21.1,0,0,0,199.3,375.7c.3-.755,1.541-1.216,1.541-1.216S203.141,371.676,205.969,373.556Z" transform="translate(-190.331 -319.978)" fill="#503b2c"/>
      <path id="Path_16234" data-name="Path 16234" d="M219.562,368.977s4.035,2.263,4.3,5.823a8.521,8.521,0,0,1-2.321,4.12,1.869,1.869,0,0,0-1.237,1.388,11.664,11.664,0,0,1-.676,2.281c-.587,1.218-4.141,5.283-8.629,4.55a7.911,7.911,0,0,1-.9-1.936,15.165,15.165,0,0,1,2.182-4.776,21.137,21.137,0,0,0,2.188-6.638,3.033,3.033,0,0,1,.867-1.766S216.2,368.5,219.562,368.977Z" transform="translate(-169.214 -324.224)" fill="#503b2c"/>
      <path id="Path_16235" data-name="Path 16235" d="M215.268,352.512c-1.7,3.582-2.348,7.481-3.767,11.178-1.69,4.385-2.147,9.922-5.3,13.606-.954,1.109-3.518,2.677-5.994,1.818-1.429-.5-3.961-1.626-3.99-2.689a12.8,12.8,0,0,1,.42-4.027c.538-1.735,3.169-12.243,3.911-15.654.6-2.786,1.1-4.488,1.905-7.537,0,0,0-3.539,6.4-.929S215.514,352,215.268,352.512Z" transform="translate(-184.051 -347.318)" fill="#2c3e50"/>
      <path id="Path_16236" data-name="Path 16236" d="M209.116,367.445c.048-2.544.685-4.46,1.111-7.225.312-2.039-10.8-1.671-11.84,3.212,0,0-1.278,19.5-3.719,25.321l-.362.98a1.533,1.533,0,0,0,.134,1.632,6.716,6.716,0,0,0,2.213,1.628c1.8.772,4.352,1.007,5.912-.18C206.392,389.9,208.957,375.981,209.116,367.445Z" transform="translate(-186.274 -334.782)" fill="#2c3e50"/>
      <path id="Path_16237" data-name="Path 16237" d="M216.408,351.411c-.083,3.965,1.419,7.974,1.636,11.927.259,4.691,2.112,9.93.743,14.584-.414,1.4-2.11,3.882-4.722,4.114-1.506.132-3.98-.074-4.741-.819a3.14,3.14,0,0,1-1.034-1.448c-1.382-4.344-2.476-15.41-3.082-18.277a31.907,31.907,0,0,0-2.4-8s-.67-3.707,6.211-4.375C214.768,348.555,216.42,350.842,216.408,351.411Z" transform="translate(-177.014 -345.491)" fill="#34495e"/>
      <path id="Path_16238" data-name="Path 16238" d="M216.1,361.417c-1.549-2.017-12.59,2.178-10.354,6.644,0,0,11.182,8.193,12.9,14.262l.329.991a1.537,1.537,0,0,0,1.123,1.193,6.719,6.719,0,0,0,2.745-.11c1.893-.521,4.031-1.924,4.507-3.829C228.53,375.9,221.3,368.187,216.1,361.417Z" transform="translate(-174.176 -332.81)" fill="#34495e"/>
    </g>
    <g id="Group_5937" data-name="Group 5937" transform="translate(164.031 306.821)">
      <g id="Group_5934" data-name="Group 5934">
        <path id="Path_16239" data-name="Path 16239" d="M168.336,326.831c-.288,3.384-2.581,10.776-4.118,14.189s2.8,1.555,3.245.461c1.88-4.666,4.335-8.214,5.589-11.8C173.937,327.144,168.627,323.4,168.336,326.831Z" transform="translate(-163.89 -286.915)" fill="#fccb94"/>
        <path id="Path_16240" data-name="Path 16240" d="M173.85,323.189c-.7,3.167-1.5,11.155-3.516,14.812-.941,1.706-4.946.021-4.362-1.185,1.642-3.38.747-9.691,1.779-14.334s4.642-6.95,6.567-6.495S174.878,318.548,173.85,323.189Z" transform="translate(-161.726 -297.089)" fill="#8ad9dd"/>
        <path id="Path_16241" data-name="Path 16241" d="M170.525,338.555s4.6,22.248,5.2,24.083,3.829,2.47,5.572-.058-.165-25.379-2.451-26.234S171.921,333.4,170.525,338.555Z" transform="translate(-156.8 -276.503)" fill="#ffd8a8"/>
        <path id="Path_16242" data-name="Path 16242" d="M167.906,334.207s-1.5,22.672-1.411,24.6,3.03,3.4,5.386,1.427,6.573-22.111,4.6-23.545S170.623,329.613,167.906,334.207Z" transform="translate(-161.11 -279.452)" fill="#fccb94"/>
        <g id="Group_5931" data-name="Group 5931" transform="translate(5.931 50.19)">
          <path id="Path_16243" data-name="Path 16243" d="M178.03,336.83c-4.79-.015-10.611-3.4-10.6-5.738,0-.335-.714,14.818-.672,18.15.043,3.2,5.049,4.983,7.316,6.489,4.639,3.078,8.9,1.278,9.765,1.251,2.608-.079,2.1-.618,2.234-1.251.306-1.489-.829-3.2.772-8.958.513-1.837-2.5-10.747-2.5-12.632C184.34,332.2,182.82,336.842,178.03,336.83Z" transform="translate(-166.757 -331.086)" fill="#a9e4ea"/>
        </g>
        <path id="Path_16244" data-name="Path 16244" d="M174.06,348.216a5.413,5.413,0,0,1,0-3.727l-6.141,2.261c.714.418-.132,7.556.668,11.7.414,2.126.894,6.77,1.076,9.372l0,0a10.42,10.42,0,0,1-1.04,4.431,11.388,11.388,0,0,1-2.65,3.909c-.043.046-.1.1-.168.161a.119.119,0,0,0-.023.029c-.4.507-.542.778-.014,1.311,1.09.776,2.372.132,3.061-.153a11.911,11.911,0,0,0,2.43-2.337c.352-.366,2.8-2.408,2.9-3.425a3.686,3.686,0,0,0-.447-2.54c-.021-.014-.043-.025-.064-.037a7.827,7.827,0,0,1-.3-1.677c-.114-2.126.91-9.6,1.481-12.506C175.007,354.091,174.848,349.867,174.06,348.216Z" transform="translate(-162.248 -266.576)" fill="#fccb94"/>
        <path id="Path_16245" data-name="Path 16245" d="M184.633,327.55c.707-1.63,4.209,1.059,3.622-.774-.616-1.92-6.224-8.408-7.926-9.192a13.82,13.82,0,0,0-5.86-1.651,6.418,6.418,0,0,0-2.172.246c-1.316.484-3.9,6.8-4.768,8.1a5.865,5.865,0,0,0,.914,7.846c1.253,1.258,1.109,5.971-.31,11.8-2.979,12.233,3.094,14.191,5.235,14.909,2.761.927,5.653-3.442,8.437-4.594,4.2-1.733,2.828-5.932,1.634-8.94-2.813-7.091.873-6.462,1.549-9.908C185.864,330.944,183.95,329.113,184.633,327.55Z" transform="translate(-161.178 -297.089)" fill="#a9e4ea"/>
        <path id="Path_16246" data-name="Path 16246" d="M175.241,330.084c.6,3.34,0,10.017-.012,13.751s2.844,1.791,2.985.621c.6-5,2.048-9.06,2.325-12.853C180.733,328.926,174.631,326.7,175.241,330.084Z" transform="translate(-151.807 -283.8)" fill="#ffd8a8"/>
        <path id="Path_16247" data-name="Path 16247" d="M171.6,319.01a14.443,14.443,0,0,0-1.673,4.251,20.3,20.3,0,0,0-.786,4.464,14.333,14.333,0,0,1,5.636-6.085c.73-.486,2.288-1.214,3.041-1.591.616-.308.358-.881.465-1.483.23-1.278-.753-1.622-1.551-1.988-1.249-.569-3.1-.707-3.934.716C172.8,317.293,172.029,318.354,171.6,319.01Z" transform="translate(-158.281 -296.831)" fill="#fccb94"/>
        <path id="Path_16248" data-name="Path 16248" d="M171.894,315.207c-.182.389.079,1.02.1,1.516a10.672,10.672,0,0,1-.592,2.333,2.028,2.028,0,0,0,.3,1.859c.782.9,3.022,1.982,3.791,1.258,1.349-1.272.068-4.284-.3-5.618-.153-.561.1-1.659-.287-2.05-1.121-1.138-3.018,1.047-3.489,1.76Z" transform="translate(-155.956 -298.956)" fill="#fccb94"/>
        <g id="Group_5932" data-name="Group 5932" transform="translate(9.193)">
          <path id="Path_16249" data-name="Path 16249" d="M170.152,308.492c-.931,0-1.721,3.657-1.777,5.376-.043,1.446-.223,3.657.736,5.1,1.731,2.608,4.85,1.435,6.04-.544Z" transform="translate(-168.334 -305.036)" fill="#5e4534"/>
          <path id="Path_16250" data-name="Path 16250" d="M180.048,309.6c-1.253-2.339-4.441-1.305-7.076-1.078-2.674.23-3.554,1.27-3.94,6.174a24.533,24.533,0,0,1,.134,4.126c-.134,1.336.9,2.9,1.332,4.151.254.747.24.956,1.08,1.082a5.191,5.191,0,0,0,2.242-.25c1.328-.416,2.894-.741,3.884-1.742,1.076-1.082,1.268-2.687,1.58-4.073C179.806,315.68,181.227,311.791,180.048,309.6Z" transform="translate(-167.589 -305.46)" fill="#ffd8a8"/>
          <path id="Path_16251" data-name="Path 16251" d="M170.351,310.69c-.184,2.4,7.411,7.8,6.131,12.394-1.222,4.371.718,3.388,3.874.114a11.706,11.706,0,0,0,2.943-7.682c.031-3.208-1.586-7.283-5.024-8.137a8.766,8.766,0,0,0-6.714,1.355c-1.117.887-1.8,1.34-1.249,2.745Z" transform="translate(-166.427 -306.424)" fill="#5e4534"/>
          <path id="Path_16252" data-name="Path 16252" d="M172.544,311.737a7.721,7.721,0,0,0-2.36,1.133,3.782,3.782,0,0,0-1.665,1.771c.186-.877,0-1.853.244-2.763a5.554,5.554,0,0,1,2.37-3.272c2.542-1.555,8.46-2.633,8.594-.887Z" transform="translate(-168.136 -306.821)" fill="#5e4534"/>
        </g>
        <path id="Path_16253" data-name="Path 16253" d="M175.35,363.428l-.008.023a.3.3,0,0,1-.021.066c-.184.438-1.069.637-1.421.738a.624.624,0,0,1-.014-.066v-.035c-.089-.579-.081-1.26-.184-1.649v-.014c-.058-.2-.145-.323-.306-.294a.071.071,0,0,0-.037.008c-.168.043-.41.263-.761.7-.755.96-.614,1.793-1.142,2.563a1.651,1.651,0,0,1-.141.2,2.888,2.888,0,0,1-.629.536c-1.011.666-4.979.966-6.129.5a.166.166,0,0,1-.11-.11v-.014c-.052-.279.441-.9,1.018-1.522.271-.3.565-.6.827-.873l.19-.19a2.012,2.012,0,0,1,.176-.176c.052-.058.1-.116.153-.161a.31.31,0,0,1,.046-.043.119.119,0,0,0-.023.029c-.4.507-.542.778-.014,1.311,1.09.776,2.372.132,3.061-.153a11.911,11.911,0,0,0,2.43-2.337c.352-.366,2.8-2.408,2.9-3.425a3.686,3.686,0,0,0-.447-2.54.751.751,0,0,0-.066-.126C177.627,357.951,174.47,361.2,175.35,363.428Z" transform="translate(-163.298 -253.875)" fill="#34495e"/>
        <g id="Group_5933" data-name="Group 5933" transform="translate(19.448 82.405)">
          <path id="Path_16254" data-name="Path 16254" d="M183.342,363.347l0,0a6.127,6.127,0,0,0-.523-.858c-.757-1.1-1.212-6.824-1.305-8.994a8.979,8.979,0,0,0-2.178-4.308,2.851,2.851,0,0,1-.794-2.523l-5.246,4.563c.757.029,1.5,4.315,3.142,6.834a46.613,46.613,0,0,1,2.451,4.7,6.359,6.359,0,0,1,.292,3.63c-.594,1.764-.366,2.555-1.911,4.166-.542.579-.738.974-.153,1.531,1.1.753,1.675.2,2.35-.1a12.718,12.718,0,0,0,2.482-2.358,12.063,12.063,0,0,0,1.992-3.918A2.962,2.962,0,0,0,183.342,363.347Z" transform="translate(-173.292 -346.661)" fill="#ffd8a8"/>
          <path id="Path_16255" data-name="Path 16255" d="M183.587,361.3a2.664,2.664,0,0,0,.2.879.055.055,0,0,1-.014.035c-.1.478-.8.674-1.164.792-.132-.827-.037-2.24-.631-2.058a.711.711,0,0,0-.161.072,2.713,2.713,0,0,0-.343.294q-.13.143-.285.329c-.769.945-.542,1.81-1,2.615a2.373,2.373,0,0,1-.747.776,4.667,4.667,0,0,1-1.479.565c-.1.021-.182.043-.277.066a7.821,7.821,0,0,1-3.545.081.133.133,0,0,1-.052-.031c-.476-.381,1.692-2.935,2.329-3.682-.461.594-.658.879-.072,1.435,1.1.753,1.675.2,2.35-.1a12.718,12.718,0,0,0,2.482-2.358,12.063,12.063,0,0,0,1.992-3.918,2.962,2.962,0,0,0-.594-2.364l-.006-.014a2.452,2.452,0,0,1,1.171,1.148c.029.06.058.126.081.184l.066.2c.021.058.035.124.052.19,0,.014.006.029.006.043.271,1.384-.381,3.111-.358,4.555C183.581,361.127,183.581,361.216,183.587,361.3Z" transform="translate(-172.519 -338.05)" fill="#34495e"/>
        </g>
        <path id="Path_16256" data-name="Path 16256" d="M180.728,326.284c.18,3.237,1.893,11.527.931,15.6-.449,1.9-5.146.66-5.148.029-.01-3.487-2.06-9.769-2.319-14.52s.772-7.335,2.747-7.413S180.474,321.533,180.728,326.284Z" transform="translate(-152.924 -292.77)" fill="#c7ebef"/>
      </g>
      <path id="Path_16257" data-name="Path 16257" d="M178.87,339.085a10.551,10.551,0,0,0-.656,4.371c.308,1.907-.949,1.566-.989,1.45s-.647-.459-.647-.459a11.3,11.3,0,0,0-1.839-2.482c-.592-.335.54-4.337.7-4.381Z" transform="translate(-152.478 -273.955)" fill="#fccb94"/>
      <path id="Path_16258" data-name="Path 16258" d="M181.294,351.362s.273.947-1.1-2.755-3.148-8.154-3.51-8.778-1.384,1.243-1.384,1.243,1.055,7.938,1.572,9.467c.461,1.371.794,4.6,3.181,4.6Z" transform="translate(-151.696 -271.692)" fill="#fccb94"/>
      <g id="Group_5936" data-name="Group 5936" transform="translate(26.876 52.834)">
        <g id="Group_5935" data-name="Group 5935">
          <path id="Path_16259" data-name="Path 16259" d="M193.41,366.905s1.686,2.112,1.047,4.1a4.968,4.968,0,0,1-2.159,1.719,1.092,1.092,0,0,0-.974.48c-.37.405-.283.556-.869,1.084s-3.4,1.948-5.67.567a4.627,4.627,0,0,1-.064-1.245,8.8,8.8,0,0,1,2.232-2.108,12.342,12.342,0,0,0,2.643-3.109c.149-.451.856-.765.856-.765A2.292,2.292,0,0,1,193.41,366.905Z" transform="translate(-168.541 -295.792)" fill="#503b2c"/>
          <path id="Path_16260" data-name="Path 16260" d="M187.417,366.921s1.686,2.112,1.049,4.1a4.981,4.981,0,0,1-2.164,1.719,1.086,1.086,0,0,0-.972.48c-.368.405-.283.554-.867,1.086s-3.4,1.946-5.672.563a4.554,4.554,0,0,1-.062-1.245,8.932,8.932,0,0,1,2.23-2.108,12.216,12.216,0,0,0,2.643-3.107c.149-.453.856-.765.856-.765A2.291,2.291,0,0,1,187.417,366.921Z" transform="translate(-174.943 -295.775)" fill="#503b2c"/>
          <path id="Path_16261" data-name="Path 16261" d="M186.218,346.7c-5.926,9.846-7.81,8.549-8.371,8.259-1.109-.569-1.6-1.44.416-4.038,2.168-2.788,2.931-4.861,4.613-7.273,2.693-3.86,3.913-4.019,4.985-3.272S189.963,340.479,186.218,346.7Z" transform="translate(-176.883 -324.178)" fill="#fccb94"/>
          <path id="Path_16262" data-name="Path 16262" d="M180.357,343.264a21.207,21.207,0,0,1-1.208,2.029c0,2.323,2.662,3.245,2.662,3.245l3.427-8.247C184.212,339.7,182.885,339.642,180.357,343.264Z" transform="translate(-174.462 -324.217)" fill="#c72f21"/>
          <path id="Path_16263" data-name="Path 16263" d="M191.1,363.4a21.1,21.1,0,0,1-1.27-3.123c-.356-.879-5.775,1.146-5.045,3.326,0,0,4.641,8.863,4.958,11.759l.074.476a.656.656,0,0,0,.463.61,2.64,2.64,0,0,0,1.46.335c1.016-.141,2.039-.953,1.508-1.744C191.353,372.205,193.13,366.8,191.1,363.4Z" transform="translate(-168.508 -302.765)" fill="#ffd8a8"/>
          <path id="Path_16264" data-name="Path 16264" d="M187.34,364.016a21.349,21.349,0,0,1,.019-3.367c.006-.952-5.773-1.144-5.934,1.146,0,0,.91,9.964.1,12.762l-.112.467s-.236.85.141,1.171a3.783,3.783,0,0,0,1.266.623c.991.256,2.259-.288,2.073-1.22C184.21,372.251,187.915,367.932,187.34,364.016Z" transform="translate(-172.125 -302.86)" fill="#ffd8a8"/>
          <path id="Path_16265" data-name="Path 16265" d="M188.8,354.807c-.457,2.035-.257,4.1-.534,6.156-.329,2.445.221,5.314-1.057,7.589a3.633,3.633,0,0,1-3.19,1.7c-.9-.066-2.534-.312-2.693-.848a8.276,8.276,0,0,1-.35-2.1c.056-.949.031-6.623-.043-8.447-.058-1.493-.027-2.418-.008-4.071,0,0-.4-3.076,3.669-2.579S188.863,354.513,188.8,354.807Z" transform="translate(-172.593 -311.225)" fill="#2c3e50"/>
          <path id="Path_16266" data-name="Path 16266" d="M191.459,355.929c-.263,2.064.41,4.226.327,6.3-.1,2.457.712,5.281-.35,7.639a3.547,3.547,0,0,1-3.02,1.922c-.9,0-2.552-.137-2.761-.652a6.733,6.733,0,0,1-.546-2.066c-.031-.949-.587-6.6-.829-8.416a15.027,15.027,0,0,0-.985-4.286s-.474-3.173,3.638-3.2C190.36,353.149,191.5,355.632,191.459,355.929Z" transform="translate(-170.051 -310.138)" fill="#34495e"/>
          <path id="Path_16267" data-name="Path 16267" d="M190.557,340.256a44.228,44.228,0,0,1,5.481,5.121c1.152,1.307.964,4.393.947,4.8-.043,1.32-1.857,9.335-2.137,11.122s.687,7.761.687,8.969c0,1.119-1.152,2.737-4.449,2.737-2.079,0-10.417-1.431-10.743-4.762-.267-2.683.372-15.13,0-16.576s-.509-9.031,1.721-11.006a4.018,4.018,0,0,1,2.414-.8C186.948,339.983,190.141,340.169,190.557,340.256Z" transform="translate(-173.418 -324.355)" fill="#fe5236"/>
          <path id="Path_16268" data-name="Path 16268" d="M188.23,338.137a23.881,23.881,0,0,0-.041,3.744,14.16,14.16,0,0,1,.3,1.948c0,1.26-1.284,1.758-2.273,2.042-.689.194-3.03-.43-2.881-1.322a16.367,16.367,0,0,1,.221-2.478c.275-.784,1.016-1.212,1.016-2.033Z" transform="translate(-169.998 -326.197)" fill="#fccb94"/>
          <path id="Path_16269" data-name="Path 16269" d="M181.286,336.216a9.434,9.434,0,0,1-.089,2.519,4.3,4.3,0,0,0-.037,1.613c.316,1.5.037,1.181.3,2.486.207,1.038.856,3.951,2.728,4.714,1.44.585,3.407-.968,4.691-1.777.9-.565,1.572-3.523,1.684-3.942.745-2.788-.372-6.478-3.452-7.357a7.847,7.847,0,0,0-4.892.219c-.455.228-1.282,1.363-.794,1.831Z" transform="translate(-172.384 -330.417)" fill="#ffd8a8"/>
          <path id="Path_16270" data-name="Path 16270" d="M190.739,333.052c-1.909-1.386-5.359-.507-8.079,1.123A3.9,3.9,0,0,0,181.172,337c-.263.577,1.411,1.578,1.831,1.742a6.323,6.323,0,0,0,2.664.325,12.137,12.137,0,0,0,1.682-.207,8.071,8.071,0,0,1,1.214-.279c.865,0,1,1.131,1.222,1.793a10.593,10.593,0,0,1,.546,1.6c.05.273-.108,3.415.337,3.448.614.043,2.71-3.051,2.7-4.656C193.366,339.706,194.106,335.5,190.739,333.052Z" transform="translate(-172.33 -332.365)" fill="#593511"/>
          <path id="Path_16271" data-name="Path 16271" d="M187.464,338.784c-.29,1.032-.891,1.764-1.344,1.638a1.715,1.715,0,0,1-.73-2.054c.29-1.032,1.326-1.808,1.781-1.68S187.752,337.753,187.464,338.784Z" transform="translate(-167.879 -327.76)" fill="#ffd8a8"/>
        </g>
      </g>
      <path id="Path_16272" data-name="Path 16272" d="M175.783,336.314c-.306.647-.145,1.659-.488,2.447a7.934,7.934,0,0,0-.78,2.259c-.062.459.054.056.294.5.285.527.867,2.1,1.467,1.975,1.684-.362,2.153-1.152,2.153-2.766a21.4,21.4,0,0,1,.534-4.581Z" transform="translate(-152.555 -275.49)" fill="#ffd8a8"/>
      <path id="Path_16273" data-name="Path 16273" d="M174.374,343.07a3.271,3.271,0,0,0,0,.728c.052.215-.279.664.848,1.231.579.29.672-.428.674-.743-.215.987,1.09.461,1-.13-.006.033-.031-.017,0,0-.126.6.906.389.871-.37.014.6.571.259.778-.014a5.584,5.584,0,0,0,.5-1.888c.128-.925.058-3.541.1-5.33.021-1.466-3.3-1.258-2.116.228Z" transform="translate(-152.709 -276.124)" fill="#ffd8a8"/>
      <path id="Path_16274" data-name="Path 16274" d="M191.417,347.377c2.79,8.919,3,13.42,2.737,14.76-.244,1.266-2.523,1.309-3.628-1.121-1.129-2.482-3.22-10.774-3.733-13.1-.829-3.731-.058-4.592,1.26-4.883S189.651,341.74,191.417,347.377Z" transform="translate(-139.787 -268.409)" fill="#fccb94"/>
      <path id="Path_16275" data-name="Path 16275" d="M187.573,342.583s-2.677,1.69-.3,7.757c.492,1.256,2.4.569,3.576-.558s1.171-1.866.891-2.2S189.795,340.622,187.573,342.583Z" transform="translate(-139.955 -269)" fill="#ff7464"/>
      <path id="Path_16276" data-name="Path 16276" d="M176.314,336.619c-1.537,2.064-2.025,1.483-2.176,4.118-.025.468-.5,1.117-.068,1.789.273.424.579,1.4.991,1.024.873-.8-.509-1.979-.275-2.455.285-.581.625-.53,1.1-.937a3.762,3.762,0,0,0,.983-1.462,4.469,4.469,0,0,0,.178-.941,6,6,0,0,0-.414-2.052Z" transform="translate(-153.207 -275.964)" fill="#ffd8a8"/>
      <path id="Path_16277" data-name="Path 16277" d="M174.952,337.331c-.641-.124-.693.807-.343,1.123-.434.137-.765,1-.2,1.1-.149.3-.372.8,0,1.009-.254.68.757,1.092,1.338,1.117.176-.331-.114-.443-.366-.581.23-.014,1,.118,1.1-.159s-.585-.552-.769-.728c.292.039,1.3.24,1.258-.335-.019-.265-.92-.631-1.121-.8a2.743,2.743,0,0,0,1.442-.143c.062-.819-2.515-2.312-2.8-1.417Z" transform="translate(-152.972 -274.328)" fill="#fccb94"/>
    </g>
    <path id="Path_16278" data-name="Path 16278" d="M181.037,336.788s.941-2.95,2.72-3.68c2.12-.869,5.308-1.34,6.331-.827a5.658,5.658,0,0,1,3.278,3.206,7.669,7.669,0,0,1,.358,3.99.362.362,0,0,1-.12.308c-.809.7-3.744,2.85-5.914,2.335a27.062,27.062,0,0,0-3.138-.552Z" transform="translate(18.462 26.974)" fill="#eea805"/>
    <path id="Path_16279" data-name="Path 16279" d="M183.413,334.4s.4-.534,2.962.848c1.634.883,4.573,4.025,3.94,4.689-1.061,1.111-3.843,1.224-5.332.6-1.8-.751-2.6-3.944-5.444-3.582-2.052.263,1.8-2.159,3.723-2.559Z" transform="translate(16.237 29.36)" fill="#eeb228"/>
    <g id="Group_5941" data-name="Group 5941" transform="translate(222.139 319.376)">
      <path id="Path_16280" data-name="Path 16280" d="M206.751,333.4c-1.512,7.663-5.525,21.29-8.226,20.757-1.016-.2-2.265-4.093-1.7-6.536,1.324-5.717.5-12.268,1.444-17.054,1.512-7.661,3.038-8.6,5.74-8.065S208.261,325.738,206.751,333.4Z" transform="translate(-186.957 -302.758)" fill="#039993"/>
      <path id="Path_16281" data-name="Path 16281" d="M207.795,341.9c-2.734,6.555-8.545,9.657-10.474,12.9-.469.792-3.926-1.646-3.39-3.849.84-3.46,7.556-8.873,10.2-15.745,0,0-.41.006,1.837,1S209.731,337.258,207.795,341.9Z" transform="translate(-189.962 -289.049)" fill="#039993"/>
      <g id="Group_5940" data-name="Group 5940" transform="translate(11.315)">
        <g id="Group_5939" data-name="Group 5939" transform="translate(0 14.64)">
          <g id="Group_5938" data-name="Group 5938">
            <path id="Path_16282" data-name="Path 16282" d="M214.733,325.485c.623.13,7.184,3.432,10.1,6.739,2.141,2.428.488,8.162.459,8.919-.085,2.449-3.452,17.337-3.971,20.655s-.12,6.973-.12,9.213c0,2.079.639,8.288.451,9.293-.629,3.336-9.333,2.67-11,2.571-5.384-.318-12.15-4.393-11.591-7.024,1.605-7.56,1.016-29.537.321-32.224s-4.023-16.489.12-20.159a7.464,7.464,0,0,1,4.48-1.483C208.563,322.209,213.965,325.326,214.733,325.485Z" transform="translate(-197.453 -317.819)" fill="#0eaca8"/>
            <path id="Path_16283" data-name="Path 16283" d="M208.208,322.522c-.091.112-4.16-.1-6.625,2.708S199.8,327.6,199.8,327.6l1.733-.565s.623,7.223,1.435,8.241l6.956-4.6.525,3.192s5.357-5.924,4.646-7.453C213.383,322.737,209.127,321.372,208.208,322.522Z" transform="translate(-195.041 -317.665)" fill="#27bfac"/>
            <path id="Path_16284" data-name="Path 16284" d="M204.661,322.751a5.739,5.739,0,0,0-3.434,5.032,21.29,21.29,0,0,0,.269,6.822c.019-.292,4.155-3.891,7.554-6.406.37-.273,4.1-3.045,0-4.948Z" transform="translate(-193.572 -316.997)" fill="#fccb94"/>
            <path id="Path_16285" data-name="Path 16285" d="M209.894,319.969c0,2.161-.362,3.254-.064,5.854a22.109,22.109,0,0,1,.47,3.045c0,1.967-2.139,2.811-3.223,3.369-.993.515-5.068-.854-4.832-2.244.19-1.123-.043-2.763.343-3.874.432-1.227,1.591-1.895,1.591-3.179Z" transform="translate(-192.343 -319.969)" fill="#fccb94"/>
          </g>
        </g>
        <path id="Path_16286" data-name="Path 16286" d="M214.789,358.569c-.025-.432-.023-.873-.033-1.307s.025-.891-.012-1.334a.891.891,0,0,0-.008-.093c.358-1.648-.3-4.151-.376-5.43l-3.624-.085a18.154,18.154,0,0,0-2.116,2.838,4.928,4.928,0,0,0-.74,1.5,4.27,4.27,0,0,0,.014,1.928c.064.6-.225,1.245-.165,1.845.056.556.292,1.371,1.04.918.443-.267.389-1.442.447-1.859a5.641,5.641,0,0,1,.312-1.16c.137.087.279.165.422.242a3.347,3.347,0,0,1,.072.9c.031.312.048.618.077.929.037.374.217.8.046,1.16a11.348,11.348,0,0,0-.993,2.389c-.081.362.215.949.7.681a1.6,1.6,0,0,0,.484-.627c.153-.236.341-.451.5-.68.029-.041.06-.085.089-.13-.083.225-.168.441-.254.643-.149.352-.507.966-.393,1.392.157.587.716.529,1.08.1a2.195,2.195,0,0,0,.254-.391,1.34,1.34,0,0,0,.027.2c.029.143.207.43.424.4.143-.017.35-.325.416-.426.182-.271.348-.556.542-.821a2.43,2.43,0,0,0,.412-.8c.029.244.07.6.327.573.114-.014.259-.25.329-.333a1.1,1.1,0,0,0,.228-.486,10.994,10.994,0,0,0,.488-1.7A4.489,4.489,0,0,0,214.789,358.569Z" transform="translate(-186.485 -272.901)" fill="#ffd8a8"/>
        <path id="Path_16287" data-name="Path 16287" d="M200.472,316.762a13.551,13.551,0,0,1-.271,3.44c-.192.829.128,2.914-.18,5.111a10.508,10.508,0,0,0,.664,4.137c.29,1.053.436,2.294,1.382,2.941,2.352,1.615,5.026-.066,7.432-.873,2.381-.8,2.044-4.236,2.807-6.195,1.378-3.535.455-8.518-3.444-10.115a10.326,10.326,0,0,0-6.424-.426c-.627.232-2.013.738-1.965,1.979Z" transform="translate(-194.755 -311.237)" fill="#ffd8a8"/>
        <path id="Path_16288" data-name="Path 16288" d="M212.9,314.163c-2.23-2.031-6.743-1.4-10.435.285-1.841.842-2.292,3.38-2.292,3.38-.414.7,1.572,2.2,2.083,2.474a8.023,8.023,0,0,0,3.345.792,15.17,15.17,0,0,0,2.17-.027,10.646,10.646,0,0,1,1.584-.184c1.1.118,1.109,1.584,1.3,2.455a13.268,13.268,0,0,1,.465,2.116c.027.358-.614,4.331-.054,4.435.774.143,3.876-3.5,4.093-5.539C215.3,323,216.837,317.754,212.9,314.163Z" transform="translate(-194.612 -312.891)" fill="url(#linear-gradient)"/>
        <path id="Path_16289" data-name="Path 16289" d="M207.743,321.364c-.515,1.272-1.384,2.118-1.942,1.893a2.195,2.195,0,0,1-.635-2.716c.511-1.272,1.942-2.112,2.5-1.886S208.258,320.094,207.743,321.364Z" transform="translate(-189.423 -306.773)" fill="#ffd8a8"/>
      </g>
      <path id="Path_16290" data-name="Path 16290" d="M217.422,336.352c1.069,7.738,2.488,20.446-.24,20.823-1.026.143-5.384.1-5.645-2.393-.61-5.835-2.96-13.267-3.63-18.1-1.069-7.734.643-9.36,3.374-9.738S216.351,328.621,217.422,336.352Z" transform="translate(-175.312 -297.923)" fill="#27bfac"/>
      <path id="Path_16291" data-name="Path 16291" d="M217.3,345.318c-.023,7.1-2.091,20.014-4.544,19.954-.92-.021-3.769.1-4.114-2.139-.544-3.521,1.924-12.154,1.737-19.513-.041-1.611,1.167-5.289,3.622-5.231S217.319,340.291,217.3,345.318Z" transform="translate(-174.268 -285.65)" fill="#27bfac"/>
      <path id="Path_16292" data-name="Path 16292" d="M197.014,343.187c-1.22.188-2.59,1.673-2.929,2.025-.66.689-1.787,1.1-1.746,2.207a2.5,2.5,0,0,1-.248,1.452c-.277.5.012.5.465.331.408-.153.834-.3.949-.749.153-.587.561-1.413,1.369-.978s.294.982.217,1.669c-.12,1.09-.478,1.653-.008,2.677.2.546,1.28.372,1.568-.534.052.122-.108.4.223.451a1.25,1.25,0,0,0,1.289-1.3c.335,1.1,1.572-.046,1.342-.918.633.5,1.287-1.005,1.353-1.471a9.078,9.078,0,0,0-.273-3.181,3.09,3.09,0,0,0-2.1-1.721,5.331,5.331,0,0,0-1.475.039Z" transform="translate(-191.983 -280.599)" fill="#ffd8a8"/>
    </g>
    <path id="Path_16293" data-name="Path 16293" d="M188.43,355.36s-.292.507,2.339-2.439,4.852-5.68,5.417-6.129,2.025,1.189,2.025,1.189-3.719,7.548-4.757,8.783a8.993,8.993,0,0,1-1.922,1.864c-.614.325-1-.006-2.114-.443Z" transform="translate(26.351 42.622)" fill="#fccb94"/>
    <path id="Path_16294" data-name="Path 16294" d="M193.777,351.462s1.709-1.857,2.6-1.839,4.579-4.4,4.071-4.776a8.8,8.8,0,0,0-4.424-.459c-.647.317-3.5,5.08-4.054,5.564Z" transform="translate(30.142 39.992)" fill="#fccb94"/>
    <path id="Path_16295" data-name="Path 16295" d="M193.847,347.564a1.205,1.205,0,0,1,.168-.265c.161-.236.335-.441.426-.552a4.581,4.581,0,0,1,2.176-1.659c.343-.064.784-.356.966.012.017.033.149.126.184.2a3.067,3.067,0,0,0,.24-.856c.1-.443.546-.019.474-.515-.019-.132-.058-.674-.091-.8a11.284,11.284,0,0,0-2.126.246,5.037,5.037,0,0,0-2.406,1.824c-.59.749-1.671,1.278-1.518,2.37.077.558-.1.736-.312,1.233-.23.523.273.732.705.519.391-.194.8-.385.871-.84l.029-.174A1.246,1.246,0,0,1,193.847,347.564Z" transform="translate(30.142 38.794)" fill="#ffd8a8"/>
    <path id="Path_16296" data-name="Path 16296" d="M193.568,350.073c0-.985-.906-4.658.606-4.991,1.233-.271,1.094,2.468.935,3.378-.023-.774-.5-3.576.331-3.866,1.262-.436.85,2.451.848,3.08.265-.8-.265-2.461.536-2.925a.749.749,0,0,1,.856.23,3.923,3.923,0,0,1,.325,1.688c.168-.484-.3-1.919.246-2.143.525-.215.968.836,1.036,1.2a3.969,3.969,0,0,1-.112,1.981c-.157.3-1.2.689-1.169.279Z" transform="translate(31.563 40.251)" fill="#ffd8a8"/>
    <path id="Path_16297" data-name="Path 16297" d="M203.666,335.286c-.507-.118-1.113-.157-1.8-.252-2.432-.337-2.039-.455-2.039-.455-.656,7.33-6.091,14.129-5.953,17.689.089,2.265,3.856,2.879,5,2.757,0,0,1.452.261,5.018-9.856C203.894,341.529,203.8,338.021,203.666,335.286Z" transform="translate(32.179 29.657)" fill="#039993"/>
    <path id="Path_16298" data-name="Path 16298" d="M165.543,334.71c-.008-.019-.056-.023-.006-.05.008.027,0,.05.006.074Z" transform="translate(1.877 29.743)" fill="#fccb94"/>
    <path id="Path_16299" data-name="Path 16299" d="M163.989,337.519c.163.579.718,1.386.786,1.729.108.536,1,1.33,1.229.445.18-.674-.329-1.222-.542-1.791-.176-.472-.155-.558.145-.91a4.821,4.821,0,0,0,.664-.991,2.329,2.329,0,0,0-.025-2.24c-.157-.277-.453-.823-.784-.908-1-.256-1.425.985-1.506,1.713a10.784,10.784,0,0,1-.155,1.235A3.589,3.589,0,0,0,163.989,337.519Z" transform="translate(0 27.776)" fill="#fccb94"/>
    <path id="Path_16300" data-name="Path 16300" d="M167.977,339.988c.079,0,.147.008.192.012.143.015.312.108.465.128.1-.221.352-.312-.143-.689-.213-.163-.883-.24-1.055-.461a1.562,1.562,0,0,1-.254-.678c.01-.037.3-.989.335-1.08.134-.265.279-.517.345-.662a2.935,2.935,0,0,0,.081-1.233c-.017-.292-.182-1.2-.18-1.433,0-.327-.014-1.231.308-1.415-.319-.176-.757.277-1,.463-.482.362-.422.542-.228,1.009.12.285-.709.277-.85.556-.168.333-.077.722-.261,1.047a2.007,2.007,0,0,0-.163,1.249l-.188.114a1.941,1.941,0,0,0,.143-.7l-1.415-1.028c-.122.062-.112.5-.128.645a14.949,14.949,0,0,0-.128,1.824,7.424,7.424,0,0,0,.275,1.93,2.885,2.885,0,0,0,.577,1.208c.246.288.563.474.821.747.2.211.358.451.538.676.228.285.455.194.587-.17.153-.43-.2-.672-.465-.943a2.324,2.324,0,0,1-.161-.209,3.634,3.634,0,0,1,.42.391c.821.927,1.464,1.08,1.584.813.168-.379.116-.656-.492-1.148l-.087-.07c.072.046.145.093.209.128.149.083.73.507.883.387C168.954,341.076,168.741,340.46,167.977,339.988Zm-2.608-.523a4.486,4.486,0,0,1-.207-1.107,4.93,4.93,0,0,1,.014-.552c.087.585.194,1.4.292,1.961C165.433,339.665,165.4,339.562,165.369,339.465Z" transform="translate(0.102 27.369)" fill="#fccb94"/>
  </g>
</svg>
