<svg xmlns="http://www.w3.org/2000/svg" xmlns:xlink="http://www.w3.org/1999/xlink" width="1951.454" height="998.158" viewBox="0 0 1951.454 998.158">
  <defs>
    <linearGradient id="linear-gradient" y1="0.5" x2="1" y2="0.5" gradientUnits="objectBoundingBox">
      <stop offset="0" stop-color="#ebe384"/>
      <stop offset="1" stop-color="#b7c84f"/>
    </linearGradient>
    <linearGradient id="linear-gradient-2" y1="0.5" x2="1" y2="0.5" gradientUnits="objectBoundingBox">
      <stop offset="0" stop-color="#005e19"/>
      <stop offset="1" stop-color="#6aa552"/>
    </linearGradient>
    <linearGradient id="linear-gradient-3" x1="1.075" y1="0.478" x2="0.007" y2="0.675" gradientUnits="objectBoundingBox">
      <stop offset="0" stop-color="#b2bf61"/>
      <stop offset="1" stop-color="#6aa552"/>
    </linearGradient>
  </defs>
  <g id="illust-mountain" transform="translate(-256.385 -213.165)">
    <path id="Path_7171" data-name="Path 7171" d="M1738.747,226.885V331.757q-22.339,4.29-44.678,8.36c-9.671-7.7-24.051-10.927-36.8-7.7-6.59,1.613-12.582,4.84-19.172,6.307-21.825,4.84-55.8,3.007-76.689-2.42-29.443-7.774-49.214,2.42-78.743,1.54-21.654-.587-46.475-12.541-62.652-.293-6.505,4.914-9.5,12.687-16.6,16.941-10.014,5.94-23.537,2.493-35.691,2.86-16.6.513-31.925,9.9-39.371,22.514-35.948-.073-71.9-1.54-107.758-2.86q-365.77-13.75-731.71-17.307c-56.832-11.367-113.664-23.1-170.5-34.4q403.129-3.63,806.344-7.187c57.688-.587,115.547-1.1,172.721-7.7C1446.714,293.182,1590.762,234.805,1738.747,226.885Z" transform="translate(469.091 86.898)" fill="#8fb750"/>
    <path id="Path_7172" data-name="Path 7172" d="M1848.957,221.03v43.929c-147.985,7.92-292.033,66.3-441.3,83.531-57.174,6.6-115.033,7.114-172.72,7.7q-403.258,3.52-806.344,7.187c-41.6-8.287-83.194-16.354-124.79-23.908,89.784-12.687,182.135-8.58,273.46-9.387,227.926-1.907,453.884-34.175,679.842-63.216,108.443-13.861,216.885-26.988,325.5-35.642C1671.187,224.11,1759.943,220,1848.957,221.03Z" transform="translate(358.881 48.825)" fill="url(#linear-gradient)"/>
    <path id="Path_7173" data-name="Path 7173" d="M436.38,289.8c7.446-12.614,22.767-22,39.371-22.514,12.154-.367,25.677,3.08,35.691-2.86,7.1-4.254,10.1-12.027,16.6-16.941,16.176-12.247,41-.293,62.651.293,29.529.88,49.3-9.314,78.743-1.54,20.884,5.427,54.863,7.26,76.689,2.42,6.59-1.467,12.582-4.694,19.172-6.307,12.753-3.227,27.132,0,36.8,7.7C684.762,271.757,566.562,289.064,446.822,289.8Z" transform="translate(1361.054 176.967)" fill="#6ca847"/>
    <path id="Path_7174" data-name="Path 7174" d="M1543.494,249.545c-117.344,21.708-235.544,39.015-355.284,39.749h-10.442c-35.948-.073-71.9-1.54-107.758-2.86Q704.24,272.683,338.3,269.126C428.255,287.167,518.382,304.4,609.107,317.9q61.625-5.28,123.506-6.307c146.616-2.493,292.975,12.247,439.591,14.961,2.824,0,5.563.073,8.3.147,9.243.073,18.4.22,27.645.22,128.985.44,261.135-11.294,380.02-51.922V241.185Q1565.833,245.475,1543.494,249.545Z" transform="translate(619.667 177.47)" fill="#ccda67"/>
    <g id="Group_2380" data-name="Group 2380" transform="translate(1023.101 547.716)">
      <path id="Path_7175" data-name="Path 7175" d="M1356.8,317.3c28.245,6.233,57.859,4.547,86.96,2.86,23.195-1.32,46.3-2.713,69.5-4.107v6.454q-94.235,4.29-188.213,9.754-159.069,9.021-317.8,20.828Q857.043,364.2,707,377.658A2713.849,2713.849,0,0,0,348.21,314.075c21.569-29.188,77.8-47.6,113.064-33.3,9.586,3.813,18.744,9.534,29.358,10.267,15.577,1.1,29.015-8.507,43.309-13.934C568.6,263.985,609,275.646,642.383,290.9c2.91,1.32,5.82,2.64,8.644,4.034,13.609,6.38,27.217,13.2,41.083,18.921a135.05,135.05,0,0,1,32.353-21.488c28.245-13.421,61.967-18.481,93.378-11.514,22.682,4.987,47.161,15.254,68.044,6.307,13.694-5.867,21.825-18.774,35.691-24.275,27.646-10.854,58.372,12.761,88.585,9.9,11.212-1.027,21.74-5.794,32.952-6.087,12.325-.367,23.366,4.4,34.065,10.121,15.064,8.067,29.7,18.114,47.16,18.628l13.437-2.273c45.962-6.6,110.583-12.541,153.891,1.98C1313.409,302.487,1334.122,312.314,1356.8,317.3Z" transform="translate(-328.524 -250.993)" fill="#5baa52"/>
      <path id="Path_7176" data-name="Path 7176" d="M784.727,297.007q42.367-2.42,84.734-4.987v9.9c-23.2,1.394-46.3,2.787-69.5,4.107-29.1,1.687-58.715,3.373-86.96-2.86-22.681-4.987-43.394-14.814-65.134-22.148-43.309-14.521-107.929-8.58-153.891-1.98l-13.437,2.273c-17.461-.513-32.1-10.561-47.16-18.628l.343-.44c9.928,5.28,20.113,9.681,31.582,10.047l13.438-2.273c45.962-6.6,110.582-12.541,153.891,1.98,21.74,7.334,42.453,17.161,65.134,22.148C726.012,300.38,755.626,298.693,784.727,297.007Z" transform="translate(315.276 -236.859)" fill="#9abb57"/>
      <path id="Path_7177" data-name="Path 7177" d="M638.906,261.655c27.645-10.854,58.372,12.761,88.586,9.9,11.212-1.027,21.74-5.794,32.952-6.087,18.316-.513,33.637,10.194,49.642,18.7l-.343.44c-10.7-5.72-21.74-10.487-34.065-10.121-11.212.293-21.74,5.06-32.952,6.087-30.213,2.86-60.94-20.755-88.585-9.9-13.866,5.5-22,18.408-35.691,24.274-20.884,8.947-45.363-1.32-68.044-6.307-31.411-6.967-65.134-1.907-93.378,11.514a135.053,135.053,0,0,0-32.353,21.488c-13.866-5.72-27.475-12.541-41.083-18.921l.856-1.393c8.3,3.96,16.519,7.847,24.992,11.294a135.052,135.052,0,0,1,32.353-21.488c28.245-13.421,61.967-18.481,93.379-11.514,22.681,4.987,47.16,15.254,68.044,6.307C616.909,280.063,625.04,267.156,638.906,261.655Z" transform="translate(-61.087 -258.784)" fill="#9abb57"/>
      <path id="Path_7178" data-name="Path 7178" d="M375.542,279.968c15.577,1.1,29.015-8.507,43.309-13.934,34.664-13.127,75.063-1.467,108.443,13.787,8.217,3.74,16.433,7.774,24.736,11.661l-.856,1.393c-2.824-1.393-5.734-2.714-8.644-4.034-33.38-15.254-73.779-26.915-108.442-13.787-14.294,5.427-27.731,15.034-43.309,13.934-10.614-.733-19.771-6.454-29.358-10.267l1.027-1.98A41.936,41.936,0,0,0,375.542,279.968Z" transform="translate(-228.67 -248.934)" fill="#9abb57"/>
      <path id="Path_7179" data-name="Path 7179" d="M463.425,265.89c5.392,2.127,10.7,4.914,16.262,7.041l-1.027,1.98c-35.263-14.3-91.5,4.107-113.064,33.3-6.59-.733-13.1-1.393-19.686-2.053C363.114,273,425.423,250.489,463.425,265.89Z" transform="translate(-345.91 -245.124)" fill="#9abb57"/>
    </g>
    <path id="Path_7180" data-name="Path 7180" d="M795.359,333.951c19.566-1.833,39.047-3.74,58.613-5.5q26.017-2.42,52.034-4.767,149.692-13.53,299.727-24.568,158.407-11.77,317.242-20.828,93.814-5.39,187.885-9.754V855.944L-240.6,860.626V380.989C-86.118,362.215,640.369,348.839,795.359,333.951Z" transform="translate(496.98 350.697)" fill="url(#linear-gradient-2)"/>
    <path id="Path_7181" data-name="Path 7181" d="M406.1,253.075a622.691,622.691,0,0,1,64.107,9.754,34.431,34.431,0,0,1-22.682,7.26c-10.7-.513-21.055-5.867-31.583-4.034-3.252.587-6.334,1.833-9.586,2.64-12.924,3.154-26.447-1.393-38.687-5.793-6.334,6.82-17.632,10.047-27.474,7.774a88.98,88.98,0,0,1,34.321-19.581C385.049,251.462,395.577,252.048,406.1,253.075Z" transform="translate(634.029 240.237)" fill="#00760e"/>
    <path id="Path_7182" data-name="Path 7182" d="M405.6,271.235a40.685,40.685,0,0,0-11.212,29.7,98.853,98.853,0,0,0,35.006-6.16c10.784,4.694,24.821,3.153,33.808-3.667,2.054,9.607,18.658,8.36,29.186,4.547,1.027,3.227,2.054,6.454,3.081,9.754,26.276-3.374,52.638,3.374,78.572,8.287,65.22,12.174,132.493,12.54,199.254,12.907,18.316.073,36.975.073,54.349-4.987,13.181-3.814,24.992-10.414,37.317-15.914a221.909,221.909,0,0,1,68.9-17.674c2.4-.293,4.879-.513,7.275-.66-2.482,2.714,13.267-7.334,6.591,6.307-31.24,63.876,144.134,11.807,224.76,16.207,25.078,1.393,80.711,1.907,118.2,6.967q-232.89,22.331-465.1,50.456H641.657c1.712-2.86,5.05-5.94,5.906-9.094,1.027-4.034-2.4-8.14-6.762-9.974-4.365-1.76-9.415-1.76-14.208-1.76-26.533.073-52.98.147-79.513.293-11.554,0-23.195.073-34.578-1.833-6.59-1.1-13.01-2.787-19.514-4.18-27.9-5.72-57.089-4.253-85.762-2.787,0-3.08-.085-6.16-.085-9.24a986.074,986.074,0,0,0-150.81,3.813V313.33q42.367-9.57,84.649-19.288Q373.332,282.712,405.6,271.235Z" transform="translate(0.055 367.798)" fill="#005f1a"/>
    <path id="Path_7183" data-name="Path 7183" d="M524.5,270.353c-1.541,3.227-2.4,6.674-4.365,9.681-7.96,11.954-28.245,10.414-42.966,15.914-6.676,2.493-12.325,6.6-18.059,10.487l-9.244-8.067c-46.646-6.967-92.865-15.914-138.57-26.328q65.22-6.93,130.525-13.128c36.2-3.52,72.666-6.894,108.956-7.847C539.141,254.879,529.041,260.672,524.5,270.353Z" transform="translate(415.573 240.047)" fill="#00760e"/>
    <path id="Path_7184" data-name="Path 7184" d="M549.244,309.591q101.039,4.95,202.164,9.974c-19.6,1.76-39.115,3.667-58.715,5.5-37.489-5.06-93.122-5.573-118.2-6.967-80.626-4.4-256,47.669-224.76-16.207,6.676-13.641-9.073-3.594-6.59-6.307-2.4.147-4.879.367-7.275.66l-.428-3.373a1.6,1.6,0,0,0,.428-.147,345.72,345.72,0,0,1,51.611-22.734c.942-.293,1.626.733.856,1.247-9.072,6.527-15.406,15.914-17.289,25.888-.171.66.685,1.1,1.284.807l48.53-24.274a.881.881,0,0,1,.428-.073c.685,0,1.2.66.685,1.173a50.328,50.328,0,0,0-10.955,20.681.937.937,0,0,0,1.284.88,233.384,233.384,0,0,0,37.745-15.694c.685-.293,1.369.147,1.2.807-1.027,4.4,7.96,8.8,14.722,8.8a153.046,153.046,0,0,0,32.182-3.447.829.829,0,0,1,1.027.733l-.086,12.1a.834.834,0,0,0,1.113.66,106.445,106.445,0,0,1,29.015-3.154.739.739,0,0,1,.685.953C528.274,305.045,540.343,309.152,549.244,309.591Z" transform="translate(598.048 359.583)" fill="#8cb141"/>
    <path id="Path_7185" data-name="Path 7185" d="M551.693,270.45a34.431,34.431,0,0,0,22.682-7.26c6.419,1.32,12.839,2.64,19.172,4.18a1824.447,1824.447,0,0,0-263.7,57.276l-3.423-8.434c6.933-1.833,12.667-5.647,18.4-9.607,5.734-3.887,11.383-7.994,18.059-10.487,14.721-5.5,35.006-3.96,42.966-15.914,1.968-3.007,2.824-6.454,4.365-9.681,4.536-9.681,14.636-15.474,26.276-19.288,14.122-.293,28.159-.293,42.2.22a88.982,88.982,0,0,0-34.321,19.581c9.843,2.273,21.141-.953,27.475-7.774,12.239,4.4,25.763,8.947,38.687,5.793,3.252-.807,6.334-2.053,9.586-2.64C530.638,264.584,540.994,269.937,551.693,270.45Z" transform="translate(529.866 239.876)" fill="#006c13"/>
    <path id="Path_7186" data-name="Path 7186" d="M1104.185,393.24a622.689,622.689,0,0,0-64.107-9.754c-10.528-1.027-21.055-1.613-31.583-1.98-14.037-.513-28.073-.513-42.2-.22-36.29.953-72.751,4.327-108.956,7.847Q792,395.4,726.819,402.26c-72.067-16.428-143.021-36.522-213.2-58.23-32.268-9.974-64.45-20.314-97.658-27.721A568.4,568.4,0,0,0,256.33,303.915v-73.41c99.456,3.153,197.97,14.154,295.97,29.335a5.794,5.794,0,0,0,1.113.147q26.319,4.07,52.552,8.507,28.373,4.84,56.661,9.974c41.6,7.554,83.194,15.621,124.79,23.908,56.832,11.294,113.664,23.028,170.5,34.4,89.955,18.041,180.082,35.275,270.807,48.769q-52.895,4.4-105.361,11.881C1117.024,395.88,1110.6,394.56,1104.185,393.24Z" transform="translate(0.055 109.826)" fill="#2f9534"/>
    <path id="Path_7187" data-name="Path 7187" d="M1381.857,297.717c-9.244,0-18.4-.147-27.645-.22-2.739-.073-5.478-.147-8.3-.147-146.616-2.713-292.975-17.454-439.591-14.961q-61.882,1.1-123.506,6.307-52.895,4.4-105.361,11.881a1824.429,1824.429,0,0,0-263.7,57.276q-49.813,14.74-98.429,32.341c6.933-.073,13.951-.147,20.884-.147,80.54-.073,160.995,4.107,240.936,12.027,17.2-33.148,79.513-55.663,117.515-40.262,9.586,3.814,18.744,9.534,29.357,10.267,15.577,1.1,29.015-8.507,43.309-13.934,34.664-13.127,75.062-1.467,108.442,13.787,16.519,7.481,32.867,15.988,49.728,22.954A135.052,135.052,0,0,1,957.845,373.4c28.245-13.421,61.967-18.481,93.379-11.514,22.681,4.987,47.16,15.254,68.044,6.307,13.695-5.867,21.826-18.774,35.692-24.274,27.645-10.854,58.372,12.761,88.585,9.9,11.212-1.027,21.74-5.794,32.952-6.087,29.785-.88,51.44,27.868,81.225,28.748l13.438-2.273c45.962-6.6,110.583-12.541,153.891,1.98,21.74,7.334,42.453,17.161,65.134,22.148,28.245,6.234,57.859,4.547,86.959,2.86q42.367-2.42,84.734-4.987V245.8C1642.993,286.424,1510.842,298.158,1381.857,297.717Z" transform="translate(445.961 206.668)" fill="url(#linear-gradient-3)"/>
    <path id="Path_7188" data-name="Path 7188" d="M513.614,281.633c70.184,21.708,141.138,41.8,213.2,58.23q-65.091,6.71-130.1,14.154c-114.947-12.981-226.043-65.71-340.392-66.957V241.518a568.4,568.4,0,0,1,159.626,12.394C449.164,261.319,481.346,271.659,513.614,281.633Z" transform="translate(0.055 172.224)" fill="#a5bf67"/>
    <path id="Path_7189" data-name="Path 7189" d="M1627.763,250.714q-94.62,12.761-189.154,24.861-68.044,8.91-136.088,17.307Q1142.3,313.013,981.9,331.531c-61.368,7.114-122.907,14.081-184.789,16.794-72.666,3.08-145.5.22-218.169,2.713l-5.649.22c-45.962,1.76-91.667,5.574-137.372,10.487-42.795,4.474-85.5,9.9-128.128,15.254-3.509.44-7.1.88-10.613,1.32q28.374,4.84,56.661,9.974c89.784-12.687,182.136-8.58,273.46-9.387,227.926-1.907,453.884-34.175,679.842-63.216,108.443-13.861,216.885-26.988,325.5-35.642,88.586-7.114,177.343-11.221,266.356-10.194v-56.69Q1763.424,232.526,1627.763,250.714Z" transform="translate(308.84 0)" fill="#ebe384"/>
    <path id="Path_7190" data-name="Path 7190" d="M604.289,297.927c-26.533,7.26-53.922-16.794-80.968-11.074v1.1a95.409,95.409,0,0,0-41.854-7.407c-5.991.367-11.9,1.173-17.888,1.98-23.2,3.007-47.075,4.473-69.927,0-4.707-.88-9.586-2.054-14.379-1.54-6.591.66-12.154,4.474-18.231,6.747-15.149,5.72-32.867,2.053-47.931-3.667-7.96-3.007-15.577-6.6-23.451-9.68,18.4-2.127,36.718-4.253,55.12-6.307q64.963-7.37,130.1-14.154c45.705,10.414,91.924,19.361,138.57,26.328l9.244,8.067C616.956,292.28,611.222,296.094,604.289,297.927Z" transform="translate(251.997 258.161)" fill="#006c13"/>
    <path id="Path_7191" data-name="Path 7191" d="M426.911,270.576c38.173-4.84,76.432-9.387,114.691-13.861,7.874,3.08,15.492,6.674,23.451,9.681,15.064,5.72,32.781,9.387,47.931,3.667,6.077-2.273,11.64-6.087,18.231-6.747,4.793-.513,9.672.66,14.379,1.54,22.853,4.473,46.732,3.007,69.927,0,5.991-.807,11.9-1.613,17.888-1.98a95.409,95.409,0,0,1,41.854,7.407c-.086,3.74-.086,7.48-.171,11.294-12.924-2.053-25.848-3.74-38.943-4.987-3.338-.367-6.933-.66-9.928.66-3.082,1.393-4.879,4.18-7.1,6.453-13.01,13.274-37.4,8.214-57.431,5.72a159.715,159.715,0,0,0-78.828,9.974c-10.613,4.253-20.8,9.754-32.182,12.247-13.01,2.86-26.7,1.613-39.971,2.86-9.244.88-18.231,2.933-27.389,4.107-40.741,5.427-82.252-5.94-123.421-3.154-34.75,2.42-70.013,14.887-103.564,10.047V292.65Q341.578,281.1,426.911,270.576Z" transform="translate(0.055 275.832)" fill="#00760e"/>
    <path id="Path_7192" data-name="Path 7192" d="M641.657,318.828H256.33V284.067c49.985-5.134,127.275-10.379,142.693-8.566s23.988,8.419,23.988,11.5c28.673-1.467,42.074-.439,69.976,5.281,6.5,1.393,12.924,3.08,19.514,4.18,11.383,1.907,23.024,1.833,34.578,1.833,26.533-.146,52.98-.22,79.513-.293,4.793,0,9.843,0,14.208,1.76,4.365,1.833,7.789,5.94,6.762,9.974C646.706,312.888,643.368,315.968,641.657,318.828Z" transform="translate(0.055 416.276)" fill="#3f8f49"/>
    <path id="Path_7193" data-name="Path 7193" d="M541.6,319.988c-38.259,4.474-76.518,9.021-114.691,13.861-6.591-1.32-13.181-2.787-19.686-4.18-26.362-5.72-52.723-11.367-77.972-19.8-13.866-4.62-27.389-10.047-41.682-13.861a185.747,185.747,0,0,0-31.241-5.427V246.725c114.348,1.247,225.444,53.976,340.392,66.957C578.32,315.735,560,317.862,541.6,319.988Z" transform="translate(0.055 212.559)" fill="#439a3e"/>
    <path id="Path_7194" data-name="Path 7194" d="M1023.046,277.493c-79.941-7.921-160.4-12.1-240.936-12.027-6.933,0-13.951.073-20.884.147-32.61.293-65.134,1.1-97.744,1.98L480.4,272.433l-33.894.88c-63.593,1.833-127.187,4.327-190.181,11.294v51.922a1115.334,1115.334,0,0,0,189.924-49.062c1.027-.073,1.455.66.942,1.174l-40.313,39.015c-.685.587.171,1.54,1.027,1.173l58.715-26.621c-5.221,7.334-10.442,14.594-15.663,21.854l26.618-12.027c.6-.22,1.284.073,1.284.66v12.027c0,.513.6.807,1.2.66a181.284,181.284,0,0,1,43.565-9.094.82.82,0,0,1,.942,1.027l-6.419,14.227a.82.82,0,0,0,.941,1.027,321.077,321.077,0,0,0,74.378-11.88c.685-.147,1.284.367,1.113.953l-6.419,18.188a.769.769,0,0,0,.77.953L726.9,344.6c11.3.293,22.681.587,34.065-.367,19.6-1.613,38.516-7.04,57.174-12.394l127.872-36.742c.77-.22,1.455.513.941,1.1a80.844,80.844,0,0,0-14.379,23.981.819.819,0,0,0,.856,1.027,1.6,1.6,0,0,0,.428-.147,345.717,345.717,0,0,1,51.611-22.734c.942-.293,1.626.733.856,1.247-9.072,6.527-15.406,15.914-17.289,25.888-.171.66.685,1.1,1.284.807l48.53-24.274a.88.88,0,0,1,.428-.073c.685,0,1.2.66.685,1.173a50.327,50.327,0,0,0-10.955,20.681.937.937,0,0,0,1.284.88,233.383,233.383,0,0,0,37.745-15.694c.685-.293,1.369.147,1.2.807-1.027,4.4,7.96,8.8,14.721,8.8a153.047,153.047,0,0,0,32.182-3.447.829.829,0,0,1,1.027.733l-.086,12.1a.834.834,0,0,0,1.113.66,106.443,106.443,0,0,1,29.015-3.154.739.739,0,0,1,.685.953c-1.626,6.967,10.442,11.074,19.344,11.514q101.039,4.95,202.164,9.974,26.062-2.42,52.125-4.767A2707.57,2707.57,0,0,0,1023.046,277.493Z" transform="translate(0.055 331.252)" fill="#00870c"/>
    <path id="Path_7195" data-name="Path 7195" d="M407.225,291.794c6.505,1.394,13.1,2.86,19.686,4.18q-85.377,10.45-170.581,22.074V252.705a185.746,185.746,0,0,1,31.241,5.427c14.293,3.813,27.817,9.24,41.682,13.861C354.5,280.426,380.864,286.073,407.225,291.794Z" transform="translate(0.055 250.434)" fill="#7ca862"/>
    <path id="Path_7196" data-name="Path 7196" d="M407.91,309.832l58.715-26.621c-5.221,7.334-10.442,14.594-15.663,21.854l26.618-12.027c.6-.22,1.284.073,1.284.66v12.027c0,.513.6.807,1.2.66a181.279,181.279,0,0,1,43.565-9.094.82.82,0,0,1,.942,1.027l-6.419,14.227a.82.82,0,0,0,.941,1.027,321.079,321.079,0,0,0,74.378-11.88c.685-.147,1.284.367,1.113.953l-6.419,18.188a.769.769,0,0,0,.77.953L726.9,325.6c11.3.293,22.681.587,34.065-.367,19.6-1.613,38.516-7.04,57.174-12.394L946.015,276.1c.77-.22,1.455.514.941,1.1a80.844,80.844,0,0,0-14.379,23.981.819.819,0,0,0,.856,1.027l.428,3.373a221.909,221.909,0,0,0-68.9,17.674c-12.325,5.5-24.136,12.1-37.317,15.914-17.375,5.06-36.033,5.06-54.349,4.987-66.76-.367-134.034-.733-199.254-12.907-25.934-4.913-52.3-11.661-78.572-8.287-1.027-3.3-2.054-6.527-3.081-9.754-10.528,3.813-27.132,5.06-29.186-4.547-8.987,6.82-23.024,8.36-33.808,3.667a98.853,98.853,0,0,1-35.006,6.16,40.685,40.685,0,0,1,11.212-29.7q-32.224,11.441-64.62,22.808-42.367,9.681-84.649,19.288V317.532a1115.328,1115.328,0,0,0,189.924-49.062c1.027-.073,1.455.66.942,1.173l-40.313,39.015C406.2,309.245,407.054,310.2,407.91,309.832Z" transform="translate(0.055 350.249)" fill="#8cb141"/>
    <path id="Path_7197" data-name="Path 7197" d="M359.894,305.458c41.169-2.787,82.68,8.58,123.421,3.154,9.158-1.173,18.145-3.227,27.389-4.107,13.267-1.247,26.961,0,39.971-2.86,11.383-2.493,21.569-7.994,32.182-12.247a159.715,159.715,0,0,1,78.828-9.974c20.028,2.494,44.421,7.554,57.431-5.72,2.225-2.273,4.023-5.06,7.1-6.453,3-1.32,6.59-1.027,9.928-.66,13.1,1.247,26.019,2.934,38.943,4.987.086-3.814.086-7.554.171-11.294v-1.1c27.046-5.72,54.435,18.334,80.968,11.074l3.423,8.434q-49.813,14.741-98.429,32.341c-32.61.293-65.134,1.1-97.744,1.98L480.4,317.852l-33.894.88c-63.593,1.833-127.187,4.327-190.181,11.294V315.505C289.881,320.345,325.144,307.878,359.894,305.458Z" transform="translate(0.055 285.832)" fill="#006c13"/>
  </g>
</svg>
