<svg xmlns="http://www.w3.org/2000/svg" xmlns:xlink="http://www.w3.org/1999/xlink" width="115.663" height="236.252" viewBox="0 0 115.663 236.252">
  <defs>
    <radialGradient id="radial-gradient" cx="0.5" cy="0.5" r="0.388" gradientTransform="translate(-0.611) scale(2.222 1)" gradientUnits="objectBoundingBox">
      <stop offset="0" stop-color="#ffba00"/>
      <stop offset="1" stop-color="#ffa100"/>
    </radialGradient>
    <linearGradient id="linear-gradient" y1="0.5" x2="1" y2="0.5" gradientUnits="objectBoundingBox">
      <stop offset="0" stop-color="#525956"/>
      <stop offset="1" stop-color="#2c2e2e"/>
    </linearGradient>
    <radialGradient id="radial-gradient-2" cx="0.5" cy="0.5" r="0.223" gradientTransform="translate(-0.656 157.261) scale(2.312 4.018)" gradientUnits="objectBoundingBox">
      <stop offset="0" stop-color="#ffe800"/>
      <stop offset="1" stop-color="#ffc552"/>
    </radialGradient>
    <linearGradient id="linear-gradient-2" y1="0.5" x2="1" y2="0.5" gradientUnits="objectBoundingBox">
      <stop offset="0"/>
      <stop offset="1" stop-color="#1b1c1c"/>
    </linearGradient>
    <linearGradient id="linear-gradient-4" y1="0.5" x2="1" y2="0.5" gradientUnits="objectBoundingBox">
      <stop offset="0" stop-color="#363b39"/>
      <stop offset="1" stop-color="#1b1c1c"/>
    </linearGradient>
    <linearGradient id="linear-gradient-7" x1="0" y1="0.5" y2="0.5" xlink:href="#linear-gradient-4"/>
    <linearGradient id="linear-gradient-8" x1="0" y1="0.5" y2="0.5" xlink:href="#linear-gradient-4"/>
    <radialGradient id="radial-gradient-3" cx="0.5" cy="0.5" r="0.604" gradientTransform="translate(0.154 -0.225) scale(0.692 1.096)" gradientUnits="objectBoundingBox">
      <stop offset="0" stop-color="#fff"/>
      <stop offset="1" stop-color="#d2d6d5"/>
    </radialGradient>
    <radialGradient id="radial-gradient-4" cx="0.5" cy="0.5" r="0.604" xlink:href="#radial-gradient-3"/>
    <linearGradient id="linear-gradient-11" x1="0.224" y1="0.289" x2="0.662" y2="0.697" gradientUnits="objectBoundingBox">
      <stop offset="0" stop-color="#363b39"/>
      <stop offset="1"/>
    </linearGradient>
    <linearGradient id="linear-gradient-12" y1="0.5" x2="1" y2="0.5" gradientUnits="objectBoundingBox">
      <stop offset="0" stop-color="#fffa61"/>
      <stop offset="1" stop-color="#ffc552"/>
    </linearGradient>
    <linearGradient id="linear-gradient-13" x1="0.35" y1="-0.943" x2="0.882" y2="3.925" xlink:href="#linear-gradient-12"/>
    <linearGradient id="linear-gradient-14" x1="-0.2" y1="0.123" x2="1.967" y2="1.6" xlink:href="#linear-gradient-4"/>
    <radialGradient id="radial-gradient-5" cx="0.5" r="0.774" gradientTransform="translate(0.243) scale(0.514 1)" xlink:href="#radial-gradient"/>
    <linearGradient id="linear-gradient-15" x1="0" y1="0.5" x2="1.008" y2="0.5" xlink:href="#linear-gradient-4"/>
    <linearGradient id="linear-gradient-16" x1="0.492" y1="0.271" x2="2.269" y2="1.732" xlink:href="#linear-gradient-4"/>
    <radialGradient id="radial-gradient-6" cx="0.5" r="0.759" gradientTransform="translate(0.237) scale(0.527 1)" xlink:href="#radial-gradient"/>
    <linearGradient id="linear-gradient-17" x1="-0.012" y1="0.5" y2="0.5" xlink:href="#linear-gradient-4"/>
    <linearGradient id="linear-gradient-18" x1="0" y1="0.5" y2="0.5" xlink:href="#linear-gradient-4"/>
    <linearGradient id="linear-gradient-19" x1="0.151" y1="-0.636" x2="0.455" y2="0.321" xlink:href="#linear-gradient-11"/>
  </defs>
  <g id="Group_3878" data-name="Group 3878" transform="translate(370.33 259.855) rotate(180)">
    <path id="Path_14100" data-name="Path 14100" d="M360.213,58.567c-1.159-10.492-3.01-15.913-6.3-20.275a4.878,4.878,0,0,1-4.073-.912L337.949,29.8a5.844,5.844,0,0,1-2.19-3.945c-.562-.207-1.141-.4-1.73-.6V35.27H285.265V25.263c-.587.192-1.166.389-1.73.6a5.835,5.835,0,0,1-2.19,3.945l-11.887,7.578a4.88,4.88,0,0,1-4.073.912c-3.292,4.362-5.145,9.783-6.3,20.275-3.071,27.755-.935,71.371-1.061,82.115-.679,57.3,1.928,92.194,5.56,104.273a10.887,10.887,0,0,0,4.787,5.752,4.244,4.244,0,0,1,1.885-.4c4.239,0,6.3,2.893,10.991,2.063,3.1-.548,4.143,2.127,4.5,4.016,2.777.456,5.564.793,8.208,1.043a2.345,2.345,0,0,1,1.934-1.043h27.485a2.35,2.35,0,0,1,1.939,1.049c1.975-.188,4.032-.423,6.1-.72.3-1.885,1.278-4.926,4.558-4.345,4.689.83,6.754-2.063,10.993-2.063a3.8,3.8,0,0,1,2.844,1.092c2.963-1.689,5.114-3.8,5.906-6.439,3.634-12.079,6.243-46.968,5.56-104.273C361.15,129.939,363.284,86.322,360.213,58.567Z" transform="translate(2.87 1.734)" fill="url(#radial-gradient)"/>
    <path id="Path_14101" data-name="Path 14101" d="M319.8,37V27c-13.909-4.525-34.852-4.525-48.763,0V37Z" transform="translate(17.101 0)" fill="url(#linear-gradient)"/>
    <path id="Path_14102" data-name="Path 14102" d="M355.62,60.414C353.739,43,349.936,41.62,340.576,33.451c-12.692-11.079-52.291-11.079-64.981,0C266.236,41.62,262.431,43,260.549,60.414c-2.885,26.716-1.061,68.7-1.18,79.037-.64,55.162,2,88.742,5.411,100.369,3.932,13.4,43.3,12.664,43.306,12.664s39.374.732,43.306-12.664c3.415-11.627,6.051-45.207,5.409-100.369C356.686,129.111,358.506,87.13,355.62,60.414Z" transform="translate(4.432 1.607)" fill="url(#radial-gradient-2)"/>
    <path id="Path_14103" data-name="Path 14103" d="M281.8,71.071A63.547,63.547,0,0,0,265.5,75.639l.638,3.816a55.913,55.913,0,0,1,16.5-5.01c8.691-1.335,28.427-1.335,37.118,0a55.912,55.912,0,0,1,16.5,5.01l.64-3.816a63.515,63.515,0,0,0-16.308-4.568C311.512,69.738,290.886,69.738,281.8,71.071Z" transform="translate(11.318 48.552)" fill="url(#linear-gradient-2)"/>
    <path id="Path_14104" data-name="Path 14104" d="M265.839,62.631A86.828,86.828,0,0,1,283.3,56.785a102.363,102.363,0,0,1,41.564,0,86.747,86.747,0,0,1,17.463,5.846,8.3,8.3,0,0,1,2.74,1.685l.018-.117s.591-2.754.211-3.495c-.329-.642-1.282-1.247-2.969-2.012a86.613,86.613,0,0,0-17.463-5.846,102.363,102.363,0,0,0-41.564,0,86.694,86.694,0,0,0-17.459,5.846c-1.687.765-2.64,1.37-2.969,2.012-.38.74.209,3.495.209,3.495l.022.117A8.211,8.211,0,0,1,265.839,62.631Z" transform="translate(8.437 28.327)" fill="url(#linear-gradient-2)"/>
    <path id="Path_14105" data-name="Path 14105" d="M284.5,89.283c9.081-1.333,29.708-1.333,38.789,0A63.515,63.515,0,0,1,339.6,93.851L344.881,62.3a8.3,8.3,0,0,0-2.74-1.685,86.747,86.747,0,0,0-17.463-5.846,102.363,102.363,0,0,0-41.564,0,86.828,86.828,0,0,0-17.459,5.846,8.211,8.211,0,0,0-2.738,1.685l5.28,31.548A63.547,63.547,0,0,1,284.5,89.283Z" transform="translate(8.62 30.339)" fill="url(#linear-gradient-4)"/>
    <path id="Path_14106" data-name="Path 14106" d="M333.749,117.237c-.268-1.368-.579-2.742-.941-4.106,0,0-.462.252-1.4.646-3.443,1.444-13.336,4.814-30.728,4.814-15.933,0-26.961-3.507-30.712-4.9-.928-.346-1.419-.562-1.419-.562-.348,1.319-.65,2.648-.914,3.971a96.631,96.631,0,0,0-1.335,25.356,78.989,78.989,0,0,0,17,5.208c7.7,1.476,27.057,1.476,34.752,0a78.939,78.939,0,0,0,17-5.208A96.669,96.669,0,0,0,333.749,117.237Zm-1.094,21.925a69.958,69.958,0,0,1-15.817,5.206c-7.157,1.478-25.164,1.478-32.317,0a69.959,69.959,0,0,1-15.817-5.206,105.211,105.211,0,0,1,.634-21.573,119.716,119.716,0,0,0,31.341,3.918c15.625,0,25.88-2.143,31.366-3.742A105.314,105.314,0,0,1,332.655,139.162Z" transform="translate(11.838 93.543)" fill="url(#linear-gradient-2)"/>
    <path id="Path_14107" data-name="Path 14107" d="M268.1,115.311a105.211,105.211,0,0,0-.634,21.573,69.959,69.959,0,0,0,15.817,5.206c7.153,1.478,25.16,1.478,32.317,0a69.958,69.958,0,0,0,15.817-5.206,105.314,105.314,0,0,0-.609-21.4c-5.486,1.6-15.741,3.742-31.366,3.742A119.716,119.716,0,0,1,268.1,115.311Z" transform="translate(13.078 95.821)" fill="url(#linear-gradient-4)"/>
    <g id="Group_3871" data-name="Group 3871" transform="translate(268.371 91.551)">
      <path id="Path_14108" data-name="Path 14108" d="M262.5,125.631l6.944,2.466-1.2-32.617-6.627-38.648s-.573,9.911,0,24.119c.364,8.985,1.395,21.356,1.378,29.329C262.981,117.856,262.717,122.991,262.5,125.631Z" transform="translate(-261.369 -56.832)" fill="url(#linear-gradient-7)"/>
      <path id="Path_14109" data-name="Path 14109" d="M307.544,125.631,300.6,128.1l1.2-32.617,6.629-38.648s.573,9.911,0,24.119c-.366,8.985-1.395,21.356-1.378,29.329C307.062,117.856,307.279,123.061,307.544,125.631Z" transform="translate(-220.382 -56.832)" fill="url(#linear-gradient-8)"/>
    </g>
    <g id="Group_3872" data-name="Group 3872" transform="translate(268.945 163.366)">
      <path id="Path_14110" data-name="Path 14110" d="M262,91.952l7.2,3.151.8,27.274a40.065,40.065,0,0,1-3.315,8.977c-3.063,6.37-4.689,8.153-4.689,8.153S261.211,102.162,262,91.952Z" transform="translate(-261.649 -91.952)" fill="url(#linear-gradient-7)"/>
      <path id="Path_14111" data-name="Path 14111" d="M308.182,91.952l-7.2,3.151-.8,27.274a39.971,39.971,0,0,0,3.313,8.977c3.065,6.37,4.689,8.153,4.689,8.153S308.97,102.162,308.182,91.952Z" transform="translate(-221.39 -91.952)" fill="url(#linear-gradient-8)"/>
    </g>
    <g id="Group_3873" data-name="Group 3873" transform="translate(268.255 27.592)">
      <path id="Path_14112" data-name="Path 14112" d="M265.385,37.077,277.272,29.5a5.835,5.835,0,0,0,2.19-3.945,28.038,28.038,0,0,0-8.449,4.64c-4.182,3.564-7.319,4.636-9.7,7.795A4.88,4.88,0,0,0,265.385,37.077Z" transform="translate(-261.312 -25.554)" fill="url(#radial-gradient-3)"/>
      <path id="Path_14113" data-name="Path 14113" d="M297.917,29.5,309.8,37.077a4.878,4.878,0,0,0,4.073.912c-2.382-3.159-5.519-4.231-9.7-7.795a28.025,28.025,0,0,0-8.451-4.64A5.844,5.844,0,0,0,297.917,29.5Z" transform="translate(-225.354 -25.554)" fill="url(#radial-gradient-4)"/>
    </g>
    <path id="Path_14114" data-name="Path 14114" d="M275.646,137.378c-4.689.83-6.752-2.063-10.991-2.063a4.244,4.244,0,0,0-1.885.4c4.311,2.834,10.8,4.591,17.377,5.674C279.789,139.5,278.742,136.83,275.646,137.378Z" transform="translate(8.466 116.722)" fill="#f15a29"/>
    <path id="Path_14115" data-name="Path 14115" d="M298.16,137.378c-3.28-.581-4.261,2.46-4.558,4.345,6.732-.967,13.619-2.591,18.4-5.317a3.8,3.8,0,0,0-2.844-1.092C304.914,135.315,302.849,138.208,298.16,137.378Z" transform="translate(40.681 116.722)" fill="#f15a29"/>
    <path id="Path_14116" data-name="Path 14116" d="M327.529,60.332a86.747,86.747,0,0,0-17.463-5.846,83.143,83.143,0,0,0-9.756-1.57c-8.77,9.891-19.162,27.824-23.409,35.421,10.206-.616,24.6-.395,31.779.66a63.515,63.515,0,0,1,16.308,4.568l5.282-31.548A8.3,8.3,0,0,0,327.529,60.332Z" transform="translate(23.231 30.626)" fill="url(#linear-gradient-11)" style="mix-blend-mode: screen;isolation: isolate"/>
    <path id="Path_14117" data-name="Path 14117" d="M300.333,73.46c-25.46-.605-34,4.237-34,4.237s.307,64.574,2.253,70.989c1.317,4.351,17.357,6.276,27.544,7.063h8.412c10.187-.787,26.227-2.711,27.542-7.063,1.945-6.415,2.255-70.989,2.255-70.989S325.789,72.854,300.333,73.46Z" transform="translate(12.185 52.038)" fill="url(#linear-gradient-12)"/>
    <path id="Path_14118" data-name="Path 14118" d="M307.888,142.593c24.726-.808,35.668-8.149,35.668-8.149l-4.887-6.167c-15.437,9.044-35.218,7.2-35.218,7.2h0c-.012,0-19.786,1.849-35.218-7.2l-4.887,6.167s10.942,7.341,35.668,8.149c1.29.047,4.437.076,4.437.076h0C305.127,142.669,306.6,142.64,307.888,142.593Z" transform="translate(9.067 109.368)" fill="url(#linear-gradient-13)"/>
    <path id="Path_14119" data-name="Path 14119" d="M278.5,28.493s-15.328,6.572-16.958,24.579c-1.667,18.4-1.421,27.663-1.421,27.663S265.371,38.257,278.5,28.493Z" transform="translate(5.684 5.109)" fill="#474747" style="mix-blend-mode: screen;isolation: isolate"/>
    <path id="Path_14120" data-name="Path 14120" d="M296.856,28.493s15.328,6.572,16.96,24.579c1.667,18.4,1.423,27.663,1.423,27.663S309.984,38.257,296.856,28.493Z" transform="translate(44.081 5.109)" fill="#474747" style="mix-blend-mode: screen;isolation: isolate"/>
    <path id="Path_14121" data-name="Path 14121" d="M304.373,58.009s3.975.824,4.067,4.386-3.977,10.791-4.067,6.216S304.011,59.381,304.373,58.009Z" transform="translate(51.745 35.949)" fill="url(#linear-gradient-14)"/>
    <path id="Path_14122" data-name="Path 14122" d="M316.753,63.851c-.875-1.235-8.879-3.838-8.879-3.838-1.575-.544-2.116.924-2.3,2.168l11.474,3.656A2.379,2.379,0,0,0,316.753,63.851Z" transform="translate(53.19 37.92)" fill="url(#radial-gradient-5)"/>
    <path id="Path_14123" data-name="Path 14123" d="M305.621,61.013a9.116,9.116,0,0,0-.088,1.525L316.8,65.473a3.713,3.713,0,0,0,.294-.8Z" transform="translate(53.143 39.087)" fill="url(#linear-gradient-15)"/>
    <path id="Path_14124" data-name="Path 14124" d="M263.822,57.889s-4.229.822-4.325,4.386,4.229,10.789,4.325,6.216S264.208,59.259,263.822,57.889Z" transform="translate(5.045 35.823)" fill="url(#linear-gradient-16)"/>
    <path id="Path_14125" data-name="Path 14125" d="M263.932,59.893s-8,2.6-8.879,3.836a2.464,2.464,0,0,0-.252,2.149L266.255,62.2C266.094,60.931,265.566,59.328,263.932,59.893Z" transform="translate(0 37.795)" fill="url(#radial-gradient-6)"/>
    <path id="Path_14126" data-name="Path 14126" d="M254.733,64.64a3.63,3.63,0,0,0,.252.642l11.271-2.934a9.193,9.193,0,0,0-.069-1.386Z" transform="translate(0.069 39.033)" fill="url(#linear-gradient-17)"/>
    <path id="Path_14127" data-name="Path 14127" d="M258.309,80.9a1.084,1.084,0,0,0-1.059,1.108v9.169a1.084,1.084,0,0,0,1.059,1.108Z" transform="translate(2.699 59.864)" fill="#595959"/>
    <path id="Path_14128" data-name="Path 14128" d="M258.566,103.34a1.083,1.083,0,0,0-1.057,1.106v9.171a1.085,1.085,0,0,0,1.057,1.108Z" transform="translate(2.969 83.313)" fill="#595959"/>
    <path id="Path_14129" data-name="Path 14129" d="M308.148,80.9a1.083,1.083,0,0,1,1.057,1.108v9.169a1.084,1.084,0,0,1-1.057,1.108Z" transform="translate(55.88 59.864)" fill="#595959"/>
    <path id="Path_14130" data-name="Path 14130" d="M307.891,103.34a1.081,1.081,0,0,1,1.055,1.106v9.171a1.083,1.083,0,0,1-1.055,1.108Z" transform="translate(55.611 83.313)" fill="#595959"/>
    <path id="Path_14131" data-name="Path 14131" d="M304.7,138.288H277.216a2.345,2.345,0,0,0-1.934,1.043,156.321,156.321,0,0,0,15.7.689,155.915,155.915,0,0,0,15.661-.683A2.35,2.35,0,0,0,304.7,138.288Z" transform="translate(21.54 119.828)" fill="url(#linear-gradient-18)"/>
    <path id="Path_14132" data-name="Path 14132" d="M326.938,115.4c-5.486,1.6-15.741,3.742-31.366,3.742-3.194,0-6.2-.117-9.03-.307-8.961,4.221-14.394,17.473-15.657,20.866a74.023,74.023,0,0,0,8.529,2.3c7.153,1.478,25.16,1.478,32.317,0a69.958,69.958,0,0,0,15.817-5.206A105.314,105.314,0,0,0,326.938,115.4Z" transform="translate(16.945 95.91)" fill="url(#linear-gradient-19)" style="mix-blend-mode: screen;isolation: isolate"/>
  </g>
</svg>
