<svg xmlns="http://www.w3.org/2000/svg" xmlns:xlink="http://www.w3.org/1999/xlink" width="280" height="128" viewBox="0 0 280 128">
  <defs>
    <linearGradient id="linear-gradient" x1="227.874" y1="-12.574" x2="229.161" y2="-12.574" gradientUnits="objectBoundingBox">
      <stop offset="0" stop-color="#e7bd9a"/>
      <stop offset="1" stop-color="#e6a081"/>
    </linearGradient>
    <linearGradient id="linear-gradient-2" x1="680.11" y1="-33.735" x2="683.96" y2="-33.735" xlink:href="#linear-gradient"/>
    <linearGradient id="linear-gradient-3" x1="74.874" y1="-8.57" x2="74.687" y2="-9.463" xlink:href="#linear-gradient"/>
    <linearGradient id="linear-gradient-4" x1="0.703" y1="0.992" x2="0.312" y2="0.151" gradientUnits="objectBoundingBox">
      <stop offset="0" stop-color="#007775"/>
      <stop offset="1" stop-color="#008575"/>
    </linearGradient>
    <linearGradient id="linear-gradient-5" x1="0.73" y1="0.986" x2="0.197" y2="0.154" xlink:href="#linear-gradient-4"/>
    <linearGradient id="linear-gradient-6" x1="0.606" y1="0.167" x2="0.402" y2="1.127" gradientUnits="objectBoundingBox">
      <stop offset="0.005" stop-color="#135da4"/>
      <stop offset="1" stop-color="#084d98"/>
    </linearGradient>
    <linearGradient id="linear-gradient-7" x1="0.489" y1="0.355" x2="0.539" y2="0.9" xlink:href="#linear-gradient-6"/>
    <linearGradient id="linear-gradient-8" x1="0.487" y1="0.154" x2="0.572" y2="0.748" xlink:href="#linear-gradient-6"/>
    <linearGradient id="linear-gradient-9" x1="0.493" y1="0.132" x2="0.574" y2="0.728" xlink:href="#linear-gradient-6"/>
    <linearGradient id="linear-gradient-10" y1="0.5" x2="1" y2="0.5" gradientUnits="objectBoundingBox">
      <stop offset="0" stop-color="#eec4a0"/>
      <stop offset="1" stop-color="#eda688"/>
    </linearGradient>
    <linearGradient id="linear-gradient-11" y1="0.5" x2="1" y2="0.5" gradientUnits="objectBoundingBox">
      <stop offset="0.005" stop-color="#034980"/>
      <stop offset="1" stop-color="#084d98"/>
    </linearGradient>
    <linearGradient id="linear-gradient-12" x1="1.431" y1="1.126" x2="0.729" y2="0.729" xlink:href="#linear-gradient-6"/>
    <linearGradient id="linear-gradient-13" x1="8.311" y1="-5.888" x2="7.93" y2="-6.303" gradientUnits="objectBoundingBox">
      <stop offset="0" stop-color="#ecbe96"/>
      <stop offset="1" stop-color="#eb9d7e"/>
    </linearGradient>
    <linearGradient id="linear-gradient-14" x1="2.393" y1="-3.787" x2="2.819" y2="-2.844" gradientUnits="objectBoundingBox">
      <stop offset="0" stop-color="#5e3417"/>
      <stop offset="1" stop-color="#532b12"/>
    </linearGradient>
    <linearGradient id="linear-gradient-15" x1="6.172" y1="-11.251" x2="6.611" y2="-10.48" xlink:href="#linear-gradient-14"/>
    <linearGradient id="linear-gradient-16" x1="4.226" y1="-6.403" x2="4.654" y2="-5.4" xlink:href="#linear-gradient-14"/>
    <linearGradient id="linear-gradient-17" x1="285.28" y1="-38.049" x2="286.877" y2="-44.343" xlink:href="#linear-gradient-13"/>
    <linearGradient id="linear-gradient-18" x1="-1.154" y1="16.025" x2="5.792" y2="-15.344" xlink:href="#linear-gradient-13"/>
    <linearGradient id="linear-gradient-19" x1="64.087" y1="-116.72" x2="91.655" y2="-116.72" xlink:href="#linear-gradient-13"/>
    <linearGradient id="linear-gradient-20" x1="76.474" y1="-96.167" x2="77.826" y2="-129.781" xlink:href="#linear-gradient-14"/>
    <linearGradient id="linear-gradient-21" x1="24.112" y1="-10.87" x2="24.661" y2="-10.58" xlink:href="#linear-gradient-14"/>
    <linearGradient id="linear-gradient-22" y1="0.5" x2="1" y2="0.5" gradientUnits="objectBoundingBox">
      <stop offset="0" stop-color="#ff6531"/>
      <stop offset="1" stop-color="#ff591f"/>
    </linearGradient>
    <linearGradient id="linear-gradient-23" x1="0.333" y1="0.169" x2="0.823" y2="0.9" xlink:href="#linear-gradient-22"/>
    <linearGradient id="linear-gradient-24" x1="0" y1="0.5" x2="1" y2="0.5" xlink:href="#linear-gradient-22"/>
    <linearGradient id="linear-gradient-25" x1="0.322" y1="0.207" x2="0.796" y2="0.971" xlink:href="#linear-gradient-22"/>
    <linearGradient id="linear-gradient-26" x1="0.446" y1="0.004" x2="0.508" y2="0.821" xlink:href="#linear-gradient-22"/>
    <linearGradient id="linear-gradient-27" x1="0.383" y1="0.271" x2="0.82" y2="1.035" xlink:href="#linear-gradient-22"/>
    <linearGradient id="linear-gradient-28" x1="0.529" y1="0.824" x2="0.214" y2="-0.259" gradientUnits="objectBoundingBox">
      <stop offset="0.01" stop-color="#46676c"/>
      <stop offset="1" stop-color="#54797c"/>
    </linearGradient>
    <linearGradient id="linear-gradient-29" x1="0.129" y1="0.784" x2="1.66" y2="0.07" gradientUnits="objectBoundingBox">
      <stop offset="0.005" stop-color="#8da5b0"/>
      <stop offset="0.99" stop-color="#668da2"/>
    </linearGradient>
    <linearGradient id="linear-gradient-30" x1="0.023" y1="0.145" x2="0.745" y2="1.068" xlink:href="#linear-gradient-29"/>
    <linearGradient id="linear-gradient-31" x1="0.488" y1="-0.136" x2="0.511" y2="0.826" xlink:href="#linear-gradient-22"/>
    <linearGradient id="linear-gradient-32" x1="0.374" y1="-0.213" x2="0.57" y2="0.878" gradientUnits="objectBoundingBox">
      <stop offset="0.01" stop-color="#c7afa5"/>
      <stop offset="1" stop-color="#bea693"/>
    </linearGradient>
    <linearGradient id="linear-gradient-33" x1="0.451" y1="-0.221" x2="0.626" y2="0.812" gradientUnits="objectBoundingBox">
      <stop offset="0.005" stop-color="#a52a07"/>
      <stop offset="0.995" stop-color="#9c1f07"/>
    </linearGradient>
    <linearGradient id="linear-gradient-34" x1="0.426" y1="1.154" x2="0.596" y2="0.399" gradientUnits="objectBoundingBox">
      <stop offset="0.01" stop-color="#002440"/>
      <stop offset="1" stop-color="#002d4e"/>
    </linearGradient>
    <linearGradient id="linear-gradient-35" x1="0.088" y1="0.974" x2="1.003" y2="-0.052" xlink:href="#linear-gradient-11"/>
    <linearGradient id="linear-gradient-36" x1="0.446" y1="1.14" x2="0.649" y2="0.371" xlink:href="#linear-gradient-34"/>
    <linearGradient id="linear-gradient-37" x1="0.66" y1="0.996" x2="0.502" y2="0.239" xlink:href="#linear-gradient"/>
  </defs>
  <g id="Group_3977" data-name="Group 3977" transform="translate(-231.347 -190.599)">
    <path id="Path_5502" data-name="Path 5502" d="M232.643,258.191s53.86,5.226,98.634,7.184,128.156-.98,128.156-.98l51.913-6.527-29.2-4.245-202.132-2.942-48.667,4.573Z" transform="translate(0 52.55)" fill="#888" opacity="0.4" style="mix-blend-mode: multiply;isolation: isolate"/>
    <g id="Group_1952" data-name="Group 1952" transform="translate(465.258 237.154)">
      <g id="Group_1950" data-name="Group 1950" transform="translate(13.16 12.928)">
        <path id="Path_5503" data-name="Path 5503" d="M365.431,232.2s.375.176,1.5-.464a11.886,11.886,0,0,0,2.63-1.852l.063.208c-.022-.13-.08-.349-.182-.718a2.217,2.217,0,0,1-.069-.29,43.486,43.486,0,0,1-.547-4.74s-.206.061-.77-.4a4.433,4.433,0,0,1-.961-1.57s.007.484-.006,1.056a1.848,1.848,0,0,0,.189.254,3.29,3.29,0,0,1-.288,1.913,9.98,9.98,0,0,1-1.076,1.589c.017.178.037.514.056.891a18.045,18.045,0,0,1,.017,1.9A17.71,17.71,0,0,1,365.431,232.2Z" transform="translate(-365.431 -222.382)" fill="url(#linear-gradient)"/>
        <path id="Path_5504" data-name="Path 5504" d="M365.749,228.085a2.918,2.918,0,0,1,1.414-.208c.126.067,1.288.776,1.99,1.21a43.486,43.486,0,0,1-.547-4.74s-.206.061-.77-.4a4.433,4.433,0,0,1-.961-1.57s.007.484-.006,1.056a1.845,1.845,0,0,0,.189.254,3.29,3.29,0,0,1-.288,1.913,9.978,9.978,0,0,1-1.076,1.589C365.71,227.373,365.73,227.709,365.749,228.085Z" transform="translate(-365.207 -222.382)" fill="#da8065" opacity="0.3" style="mix-blend-mode: multiply;isolation: isolate"/>
      </g>
      <path id="Path_5505" data-name="Path 5505" d="M366.784,224.545a14.614,14.614,0,0,0,.087-1.594,2.241,2.241,0,0,0,.189.256,3.185,3.185,0,0,1-.288,1.906,9.8,9.8,0,0,1-1.076,1.594c-.006-.095-.007-.148-.007-.148A6.421,6.421,0,0,0,366.784,224.545Z" transform="translate(-352.05 -208.967)" fill="url(#linear-gradient-2)"/>
      <path id="Path_5506" data-name="Path 5506" d="M359.951,227.28s.728,3.448,2.5,4.394a9.169,9.169,0,0,0,4.824,1.079,10.378,10.378,0,0,0,3.565-3.07,9.98,9.98,0,0,0,1.076-1.589,3.29,3.29,0,0,0,.288-1.913,1.85,1.85,0,0,1-.189-.254,3.264,3.264,0,0,1-.56-1.377,4.093,4.093,0,0,0,1.108-1.661c.329-1.01.124-3.315-1.021-3.341s-1.587,1.05-1.273,2.017a10.848,10.848,0,0,1,.4,2.2l-.312.442a6.6,6.6,0,0,0-.956-2.01,18.167,18.167,0,0,1-1.435-2.309s-1.344.813-4.564.4a17.6,17.6,0,0,1-3.719-.817c.011.167.035.375.069.624a9.81,9.81,0,0,0,.4,1.709C360.645,223.245,359.951,227.28,359.951,227.28Z" transform="translate(-357.193 -211.943)" fill="url(#linear-gradient-3)"/>
      <path id="Path_5507" data-name="Path 5507" d="M358.4,220.355a3.019,3.019,0,0,0,.18.549,4.851,4.851,0,0,0,.783,1.2,2.592,2.592,0,0,0,.715.512c.139.074.293.148.471.223.089.035.18.069.277.108a17.484,17.484,0,0,0,3.719.817c3.22.41,4.564-.4,4.564-.4a18.167,18.167,0,0,0,1.435,2.309,6.6,6.6,0,0,1,.956,2.01l.312-.442a10.849,10.849,0,0,0-.4-2.2c-.314-.967.126-2.051,1.273-2.017s1.349,2.331,1.021,3.341a4.093,4.093,0,0,1-1.108,1.661,3.453,3.453,0,0,0,.75,1.631,1.711,1.711,0,0,0,.477.429c.561.284,1.4.618,1.4.484a13.9,13.9,0,0,0,.189-2.936c-.028-.967-.119-2.175-.232-3.385-.017-.191-.032-.382-.052-.579-.041-.436-.084-.869-.128-1.288-.03-.275-.056-.546-.08-.8-.028-.225-.05-.444-.069-.653a7.872,7.872,0,0,0-.143-.85,5.684,5.684,0,0,0-.314-.939v0a4.831,4.831,0,0,0-.416-.767,5.021,5.021,0,0,0-1.982-1.711c-2.238-1.123-3.582-1.537-7.322-1.019a10.424,10.424,0,0,0-3.389,1.045,5.683,5.683,0,0,0-1.791,1.368,2.266,2.266,0,0,0-1.067,1.219,1.845,1.845,0,0,0-.078.854C358.372,220.2,358.385,220.279,358.4,220.355Z" transform="translate(-358.34 -215.416)" fill="#5b3610"/>
      <path id="Path_5510" data-name="Path 5510" d="M366.078,219.931a3.409,3.409,0,0,0,.128,3.2s.6-.206.679-.622-.724-.56-.724-.56Z" transform="translate(-352.017 -211.551)" fill="#da8065" opacity="0.2" style="mix-blend-mode: multiply;isolation: isolate"/>
      <path id="Path_5512" data-name="Path 5512" d="M359.356,219.956a3.8,3.8,0,0,0,1.462.843,17.27,17.27,0,0,0,3.719.813c3.22.414,4.564-.4,4.564-.4a18.168,18.168,0,0,0,1.435,2.309,6.6,6.6,0,0,1,.956,2.01l.312-.442a10.877,10.877,0,0,0-.4-2.2c-.314-.965.126-2.049,1.273-2.016s1.349,2.331,1.021,3.341a4.093,4.093,0,0,1-1.108,1.661,3.453,3.453,0,0,0,.75,1.631,1.672,1.672,0,0,0,.477.427c.561.286,1.4.62,1.4.486a13.906,13.906,0,0,0,.189-2.936c-.056-1.908-.356-4.714-.561-6.707a7.8,7.8,0,0,0-.143-.85c-.8.535-2.368,1.656-3.448,2.35-1.448.93-2.069.711-3.927.5s-4.211-1.346-6.039-.965c-1.7.353-2.246-.748-2.944-1.837A4.018,4.018,0,0,0,359.356,219.956Z" transform="translate(-358.331 -213.268)" fill="#5b3610" opacity="0.3" style="mix-blend-mode: multiply;isolation: isolate"/>
    </g>
    <path id="Path_5521" data-name="Path 5521" d="M393.064,255.443s-.173.063-.486.158c-.239.071-.568.165-.971.265l-.1.028c-.371.089-.8.184-1.281.275-.141.024-.286.05-.44.074-.486.085-1.013.161-1.581.223-.312.033-.635.059-.969.085l-.763.033-.447.019c-.171,0-.345.009-.516.009a23.484,23.484,0,0,1-4.141-.356,20.415,20.415,0,0,1-4.8-1.464s-3.552-9.181-4.532-11.019-1.834-3.43-1.834-3.43l-2.452,2.329a11.866,11.866,0,0,0-.791-1.661A8.4,8.4,0,0,0,365.428,239c-1.468-1.346-3.059-2.693-3.059-2.693a75.029,75.029,0,0,1,4.528-7.958,8.87,8.87,0,0,1,.766-.878,9.1,9.1,0,0,1,1.253-1.065,7.2,7.2,0,0,1,7.778-.507c3.292,1.644,6.381,4.74,9.074,8.626.388.557.77,1.128,1.132,1.72q.849,1.325,1.62,2.75v0c.13.228.258.458.377.7C392.207,245.933,393.064,255.443,393.064,255.443Z" transform="translate(110.367 30.194)" fill="url(#linear-gradient-4)"/>
    <path id="Path_5522" data-name="Path 5522" d="M390.171,255l-1.006.217-.1.028-1.281.275-.429.1-.011-.022c-.078-.165-.562-1.223-1.407-2.83-.382-.737-.843-1.592-1.372-2.53-.275-.492-.57-1.008-.891-1.54-.635-1.08-1.346-2.231-2.127-3.411-.909-1.39-1.917-2.828-3.01-4.243a107.418,107.418,0,0,0-13.316-14.22,9.1,9.1,0,0,1,1.253-1.065c2.9,2.7,10.79,10.213,13.368,14.187.811,1.238,1.977,2.971,3.24,4.82.217.314.427.629.65.956.314.453.629.913.946,1.373.484.707.971,1.412,1.438,2.086,2.034,2.942,3.756,5.406,4.018,5.776Z" transform="translate(112.809 30.845)" fill="#002440"/>
    <path id="Path_5523" data-name="Path 5523" d="M377.629,239.055c-.02,1.717-.1,3.708-.174,5.583-.056,1.294-.119,2.535-.18,3.588-.087,1.641-.161,2.825-.174,3.053v.045l-1.756.241a1.29,1.29,0,0,0,.024-.167,55.141,55.141,0,0,0,.534-5.7c.056-1.023.087-2.079.113-3.144.019-.969.03-1.951.03-2.912,0-3.205-.108-6.275-.25-8.584q.849,1.325,1.62,2.75v0q.109.977.173,2.081C377.638,236.687,377.645,237.791,377.629,239.055Z" transform="translate(121.473 35.421)" fill="#002440"/>
    <path id="Path_5524" data-name="Path 5524" d="M379.251,251.268a20.414,20.414,0,0,1-4.8-1.464s-3.552-9.181-4.532-11.019-1.834-3.43-1.834-3.43l-2.452,2.329a11.866,11.866,0,0,0-.791-1.661,8.508,8.508,0,0,0,1.527-2.259,25.065,25.065,0,0,1,1.344-2.942s4.167,7.474,6.86,12.37C376.237,246.216,378.08,249.323,379.251,251.268Z" transform="translate(112.486 35.217)" opacity="0.5" fill="url(#linear-gradient-5)" style="mix-blend-mode: multiply;isolation: isolate"/>
    <g id="Group_1953" data-name="Group 1953" transform="translate(473.14 295.394)">
      <path id="Path_5525" data-name="Path 5525" d="M388.708,259.482l1.635,2.407a72.018,72.018,0,0,1-8.322,1.223c-4.408.367-16.655,1.96-18.247.737s-1.839-4.651.859-7.717,10.406-8.691,11.384-9.673a18.491,18.491,0,0,0,7.045,1.958.3.3,0,0,0,.058,0c3.673.124,9.061-1.962,9.061-1.962a13.8,13.8,0,0,1-3.432,4.534c-1.98,1.516-9.972,5.26-10.714,5.6,5.362-2.27,9.985,1.862,9.985,1.862Z" transform="translate(-362.587 -246.459)" fill="url(#linear-gradient-6)"/>
      <path id="Path_5526" data-name="Path 5526" d="M389.188,246.459a13.8,13.8,0,0,1-3.432,4.534c-1.98,1.516-9.972,5.26-10.714,5.6,5.362-2.27,9.985,1.862,9.985,1.862l.689,1.023c-3.144-1.071-10-3.229-13.056-2.854a15.523,15.523,0,0,0-6.577,2.3c.713-.531,12.129-8.955,13.313-10.141l.676-.371a.3.3,0,0,0,.058,0C383.8,248.545,389.188,246.459,389.188,246.459Z" transform="translate(-359.594 -246.459)" opacity="0.4" fill="url(#linear-gradient-7)" style="mix-blend-mode: multiply;isolation: isolate"/>
    </g>
    <path id="Path_5527" data-name="Path 5527" d="M395.456,253.339a3.469,3.469,0,0,1-.585,1.327c-1.223,1.474-5.878,5.145-11.143,2.942s-11.509-6.982-11.509-6.982c2.938,5.39,3.064,17.511,3.064,17.511l-1.806.393-2.114.462s-9.43-16.651-11.264-23.14.364-9.794,4.284-8.812,14.693,7.587,14.693,7.587,5.39,1.837,8.938,1.837A26.286,26.286,0,0,0,395.6,245,23.187,23.187,0,0,1,395.456,253.339Z" transform="translate(107.862 40.728)" fill="url(#linear-gradient-8)"/>
    <path id="Path_5528" data-name="Path 5528" d="M392.1,249.874a3.47,3.47,0,0,1-.585,1.327c-1.223,1.474-5.878,5.145-11.143,2.942s-11.509-6.982-11.509-6.982c2.938,5.39,3.064,17.511,3.064,17.511l-1.806.393a52.181,52.181,0,0,0-1.991-13.738,55.166,55.166,0,0,0-4.775-10.408s13.834,8.324,19.712,9.551A18.568,18.568,0,0,0,392.1,249.874Z" transform="translate(111.215 44.193)" opacity="0.4" fill="url(#linear-gradient-9)" style="mix-blend-mode: multiply;isolation: isolate"/>
    <g id="Group_1954" data-name="Group 1954" transform="translate(473.714 308.865)">
      <path id="Path_5529" data-name="Path 5529" d="M374.652,258.125s-1.078.182-2.712.3a27.92,27.92,0,0,1-9.044-.666s4.653-2.819,5.512-3.187l2.222-.483,1.7-.373A24.86,24.86,0,0,1,374.652,258.125Z" transform="translate(-362.896 -253.717)" fill="#46676c"/>
      <path id="Path_5530" data-name="Path 5530" d="M371.085,258.125s-1.078.182-2.712.3c-.379-1.409-.857-3.1-1.31-4.335l1.7-.373A24.86,24.86,0,0,1,371.085,258.125Z" transform="translate(-359.329 -253.717)" fill="#46676c" opacity="0.3" style="mix-blend-mode: multiply;isolation: isolate"/>
    </g>
    <g id="Group_1955" data-name="Group 1955" transform="translate(498.336 303.601)">
      <path id="Path_5531" data-name="Path 5531" d="M386.191,259.086c-2.569.121-7.221-1.1-7.468-.982l-1.819-2.684-.5-.746c-.739-1.347.488-3.794.488-3.794a28.36,28.36,0,0,1,3.875,3.127C383.357,256.339,386.191,259.086,386.191,259.086Z" transform="translate(-376.163 -250.881)" fill="#46676c"/>
      <path id="Path_5532" data-name="Path 5532" d="M380.762,254.008a4.449,4.449,0,0,0-3.858,1.412l-.5-.746c-.739-1.347.488-3.794.488-3.794A28.36,28.36,0,0,1,380.762,254.008Z" transform="translate(-376.163 -250.881)" fill="#46676c" opacity="0.3" style="mix-blend-mode: multiply;isolation: isolate"/>
    </g>
    <g id="Group_1956" data-name="Group 1956" transform="translate(452.264 266.489)">
      <path id="Path_5533" data-name="Path 5533" d="M377.322,237.33s-1.546,1.854-4.163,4.9c-1.756,2.042-4.005,2.732-8.779,1.629a60.961,60.961,0,0,1-11.1-4.324,4.683,4.683,0,0,1-1.8-.084,6.716,6.716,0,0,1-.115-2.457c.069-1.453.2-3.01.2-3.01l1.138.529s-.611-2.45-.119-2.45,1.344,2.942,1.344,2.942a38.6,38.6,0,0,0,5.633,1.1c4.167.614,8.816.9,8.816.9s2.815-4.812,3.43-5.915a12.621,12.621,0,0,1,3.183,2.73,16.184,16.184,0,0,1,1.026,1.3A11.612,11.612,0,0,1,377.322,237.33Z" transform="translate(-351.339 -231.089)" fill="url(#linear-gradient-10)"/>
      <path id="Path_5534" data-name="Path 5534" d="M377.322,235.471s-1.546,1.854-4.163,4.9c-1.756,2.042-4.005,2.732-8.779,1.629a60.961,60.961,0,0,1-11.1-4.324,4.683,4.683,0,0,1-1.8-.084,6.716,6.716,0,0,1-.115-2.457,42.679,42.679,0,0,0,10.4,4.376c5.633,1.346,8.454.859,8.454.859a35,35,0,0,0,5.8-7.112A11.612,11.612,0,0,1,377.322,235.471Z" transform="translate(-351.339 -229.23)" fill="#da8065" opacity="0.3" style="mix-blend-mode: multiply;isolation: isolate"/>
    </g>
    <path id="Path_5535" data-name="Path 5535" d="M382.642,246.773l-1.006.217-.1.028-1.281.275-.429.1-.011-.022c-.078-.165-.562-1.223-1.407-2.83-.087,1.641-.161,2.825-.174,3.053v.045l-1.756.241a1.279,1.279,0,0,0,.024-.167,55.133,55.133,0,0,0,.534-5.7c-.275-.492-.57-1.008-.891-1.54-.635-1.08-1.346-2.231-2.127-3.411.455-.15.974-.327,1.535-.522.217.314.427.629.65.956.314.453.629.913.946,1.373.019-.969.03-1.951.03-2.912.525-.191,1.06-.388,1.583-.585-.02,1.717-.1,3.708-.174,5.583,2.034,2.942,3.756,5.406,4.018,5.776Z" transform="translate(120.339 39.133)" fill="#002440" opacity="0.4" style="mix-blend-mode: multiply;isolation: isolate"/>
    <path id="Path_5536" data-name="Path 5536" d="M369.759,240.448a37.285,37.285,0,0,0,8.814,1.591,15.543,15.543,0,0,0,8.081-1.713l.085,2s-4.738,1.8-8.532,1.552a26.05,26.05,0,0,1-7.96-2.2Z" transform="translate(116.692 43.402)" fill="url(#linear-gradient-11)"/>
    <path id="Path_5537" data-name="Path 5537" d="M374.143,243.421c.122.735.733,4.651.733,4.651l-9.551-4.772a11.275,11.275,0,0,0-.119-5.02s2.448,1.592,5.263,3.062A37.157,37.157,0,0,1,374.143,243.421Z" transform="translate(112.796 41.66)" fill="#002440" opacity="0.8"/>
    <path id="Path_5538" data-name="Path 5538" d="M368.043,236.1l6.976,8.938-3.792-.98A61.053,61.053,0,0,1,368.043,236.1Z" transform="translate(115.224 39.752)" fill="url(#linear-gradient-12)"/>
    <g id="Group_1957" data-name="Group 1957" transform="translate(236.245 301.847)">
      <path id="Path_5539" data-name="Path 5539" d="M247.538,255.324a26.9,26.9,0,0,1-6.206.49,49.308,49.308,0,0,1-7.346-.49c.818-.492,8.816-4.9,9.144-5.388l2.277,1.086,1.312.629Z" transform="translate(-233.986 -249.936)" fill="#002440" opacity="0.8"/>
      <path id="Path_5540" data-name="Path 5540" d="M247.538,254.823a26.9,26.9,0,0,1-6.206.49,49.311,49.311,0,0,1-7.346-.49s1.553,0,4.326-.084a42.568,42.568,0,0,0,6.856-1.065,16.828,16.828,0,0,0,.084-3.1l.156-.054,1.312.629Z" transform="translate(-233.986 -249.435)" fill="#002440" opacity="0.5" style="mix-blend-mode: multiply;isolation: isolate"/>
    </g>
    <g id="Group_1958" data-name="Group 1958" transform="translate(276.678 301.474)">
      <path id="Path_5541" data-name="Path 5541" d="M322.91,251.7c0,1.082-1.292,1.96-2.884,1.96H258.864c-1.594,0-2.888-.878-2.888-1.96a1.673,1.673,0,0,1,.78-1.333c.024-.019.043-.037.065-.052a3.681,3.681,0,0,1,2.043-.579h61.162C321.619,249.735,322.91,250.618,322.91,251.7Z" transform="translate(-255.976 -249.735)" fill="#11473b"/>
      <path id="Path_5542" data-name="Path 5542" d="M322.551,251.7c0,1.082-1.292,1.96-2.884,1.96h-3.994c-2.519-.609-4.733-1.138-4.874-1.1-.329.08-20.488.735-27.182.566-6.279-.148-21.1-1.1-27.221-2.756.024-.019.043-.037.065-.052a3.681,3.681,0,0,1,2.043-.579h61.162C321.259,249.735,322.551,250.618,322.551,251.7Z" transform="translate(-255.617 -249.735)" fill="#11473b" opacity="0.5" style="mix-blend-mode: multiply;isolation: isolate"/>
    </g>
    <g id="Group_1965" data-name="Group 1965" transform="translate(326.606 286.666)">
      <g id="Group_1959" data-name="Group 1959" transform="translate(0 5.627)">
        <path id="Path_5543" data-name="Path 5543" d="M287.268,250.22l-.987-1.156a3.435,3.435,0,0,0-.243-.258,15.032,15.032,0,0,0-3.012-2.082,9.046,9.046,0,0,0,2.591-1.479,4.311,4.311,0,0,0,.531-.457,5.968,5.968,0,0,0,.913,2.99,6.277,6.277,0,0,0,2.292.818,1.408,1.408,0,0,0-.145.805.5.5,0,0,0,.017.108v.015Z" transform="translate(-283.025 -244.788)" fill="url(#linear-gradient-13)"/>
        <path id="Path_5544" data-name="Path 5544" d="M286.073,250.22l-.987-1.156a3.434,3.434,0,0,0-.243-.258l.137-.217s-.212-1.052-.288-1.659a14.98,14.98,0,0,0-.271-1.685,4.313,4.313,0,0,0,.531-.457,5.967,5.967,0,0,0,.913,2.99,6.277,6.277,0,0,0,2.292.818,1.408,1.408,0,0,0-.145.805.5.5,0,0,0,.017.108v.015Z" transform="translate(-281.83 -244.788)" fill="#dd8065" opacity="0.23" style="mix-blend-mode: multiply;isolation: isolate"/>
      </g>
      <path id="Path_5545" data-name="Path 5545" d="M286.049,254.265c-.1-.011-1.386-.087-1.745-.731-.371-.672-.178-.713-.178-.713s.8-.932,1.494-1.585a6.645,6.645,0,0,1,2.687-.908,1.767,1.767,0,0,0,.507,1.037c.9.967,2.268,1.2,2.494.432a1.319,1.319,0,0,0-.4-1.082,3.323,3.323,0,0,0-.605-.638,6.754,6.754,0,0,0-1.056-.6c-.124-.046-.306-.791-.306-.791a14.708,14.708,0,0,0,2.509.247,10.061,10.061,0,0,1,2.83.427,3.012,3.012,0,0,0,1.119-.689l.007,0c.063-.061.143-.124.215-.195.111-.1.225-.226.345-.358.048-.046.1-.091.145-.134.087-.087.184-.176.277-.256a17.67,17.67,0,0,1,2.459-1.429c.616-.269.965-.429.861-.633a2.46,2.46,0,0,0-.809-.529,4.857,4.857,0,0,0-.574-.29c.076-.061.212-.2.382-.345.035-.037.082-.067.117-.1l.009,0a4.685,4.685,0,0,1,.525-.4,1.343,1.343,0,0,1,1.084-.258c.794.241,1.243.8,1.667,2.038a3.653,3.653,0,0,1,.106,1.6,14.118,14.118,0,0,1-.421,1.973l-.006,0c-.022.08-.044.165-.072.249a14.282,14.282,0,0,1-.588,1.566c-.041.08-.078.16-.119.243a8.288,8.288,0,0,1-.611,1.086c-1.472,2.242-3.007,2.16-3.007,2.16a4.14,4.14,0,0,1-3.281,1.412,9.5,9.5,0,0,1-1.6-.121,17.386,17.386,0,0,1-4.187-1.243s-2.676.265-3.322.971C285.008,255.685,285.373,254.562,286.049,254.265Z" transform="translate(-282.125 -240.088)" fill="url(#linear-gradient-14)"/>
      <path id="Path_5546" data-name="Path 5546" d="M290.564,247.848c.087-.087.184-.176.277-.256a17.671,17.671,0,0,1,2.459-1.429c.616-.269.965-.429.861-.633a2.46,2.46,0,0,0-.809-.529,4.859,4.859,0,0,0-.573-.29,7.917,7.917,0,0,1,1.034-.846,1.586,1.586,0,0,1,.928.883s.523.548.453.908-.915.509-.915.509-2.237.93-2.307.989C291.917,247.193,291,247.653,290.564,247.848Z" transform="translate(-276.572 -239.951)" opacity="0.23" fill="url(#linear-gradient-15)" style="mix-blend-mode: multiply;isolation: isolate"/>
      <path id="Path_5547" data-name="Path 5547" d="M286.049,251.973c-.1-.011-1.386-.087-1.745-.731-.371-.672-.178-.713-.178-.713s.8-.932,1.494-1.585a6.645,6.645,0,0,1,2.687-.908,1.767,1.767,0,0,0,.507,1.037c.9.967,2.268,1.2,2.494.432a1.319,1.319,0,0,0-.4-1.082,3.323,3.323,0,0,0-.605-.638,6.753,6.753,0,0,0-1.056-.6c-.124-.046-.306-.791-.306-.791a14.706,14.706,0,0,0,2.509.247,10.06,10.06,0,0,1,2.83.427,3.012,3.012,0,0,0,1.119-.689c-.39.5-.9,1.166-1.119,1.39a16.718,16.718,0,0,0-2.251,2.214.4.4,0,0,0-.035.061c-.234.564.592.08.828.189,0,0-.919.689-1,1.019,0,0,.625-.189.8-.076s-.681,1.266-.627,1.392c.03.085.336.715.52,1.093a17.387,17.387,0,0,1-4.187-1.243s-2.676.265-3.322.971C285.008,253.393,285.373,252.27,286.049,251.973Z" transform="translate(-282.125 -237.796)" opacity="0.23" fill="url(#linear-gradient-16)" style="mix-blend-mode: multiply;isolation: isolate"/>
      <path id="Path_5548" data-name="Path 5548" d="M286.358,247.645c0,.037.015.074.02.106l.128-.911A1.409,1.409,0,0,0,286.358,247.645Z" transform="translate(-280.179 -237.404)" fill="url(#linear-gradient-17)"/>
      <path id="Path_5549" data-name="Path 5549" d="M288.343,253.035a1.826,1.826,0,0,1-.49-.93v0a.432.432,0,0,1-.017-.106,1.408,1.408,0,0,1,.145-.805,6.277,6.277,0,0,1-2.292-.818,5.967,5.967,0,0,1-.913-2.99c-.045-.327-.074-.657-.1-.971-.121-1.513.006-2.65.269-2.828a.116.116,0,0,1,.046-.019c.286-.061.93-.05,2.118-.217.176-.024.351-.046.518-.058.069,0,.137-.009.2-.011a9.028,9.028,0,0,1,1.494.05,2.171,2.171,0,0,1,1.032-1.57l.009,0a5.419,5.419,0,0,0,3.036,3.558c.13.1.3-.11,1.015-.286s.715-.032,1.722.611a18.949,18.949,0,0,0,1.724.878l.573.29a3.669,3.669,0,0,1,.746.453.226.226,0,0,1,.063.076c.1.2-.245.364-.861.633-.351.148-.789.429-1.292.679a5.35,5.35,0,0,0-1.167.75,3.469,3.469,0,0,0-.408.38l-.013.009c-.117.123-.234.241-.345.358a3.443,3.443,0,0,1-1.342.887,10.061,10.061,0,0,0-2.83-.427,14.708,14.708,0,0,1-2.509-.247s.182.744.306.791a6.755,6.755,0,0,1,1.056.6c.217.2,1.314,1.073,1.05,1.707C290.539,254.308,289.24,254,288.343,253.035Z" transform="translate(-281.655 -241.756)" fill="url(#linear-gradient-18)"/>
      <path id="Path_5550" data-name="Path 5550" d="M290.486,246.263c.135-.128.28-.264.421-.39a3.47,3.47,0,0,0-.408.38Z" transform="translate(-276.639 -238.232)" fill="url(#linear-gradient-19)"/>
      <path id="Path_5551" data-name="Path 5551" d="M290.486,246.263c.135-.128.28-.264.421-.39a3.47,3.47,0,0,0-.408.38Z" transform="translate(-276.639 -238.232)" fill="url(#linear-gradient-20)"/>
      <path id="Path_5552" data-name="Path 5552" d="M288.343,252.191a1.826,1.826,0,0,1-.49-.93v0a.432.432,0,0,1-.017-.106,1.408,1.408,0,0,1,.145-.805,6.277,6.277,0,0,1-2.292-.818,5.967,5.967,0,0,1-.913-2.99c-.045-.327-.074-.657-.1-.971-.121-1.513.006-2.65.269-2.828-.351,2.411.9,5.414,1.913,5.843a10.441,10.441,0,0,0,4.438.572c2.249-.03,3.166-.1,3.166-.1s1.809-1.151,2.634-1.683a12.391,12.391,0,0,1,2.088-.96.226.226,0,0,1,.063.076c.1.2-.245.364-.861.633-.351.148-.789.429-1.292.679a5.35,5.35,0,0,0-1.167.75,3.468,3.468,0,0,0-.408.38l-.013.009c-.117.123-.234.241-.345.358a3.443,3.443,0,0,1-1.342.887,10.06,10.06,0,0,0-2.83-.427,14.706,14.706,0,0,1-2.509-.247s.182.744.306.791a6.753,6.753,0,0,1,1.056.6c.217.2,1.314,1.073,1.05,1.707C290.539,253.465,289.24,253.158,288.343,252.191Z" transform="translate(-281.655 -240.913)" fill="#dd8065" opacity="0.23" style="mix-blend-mode: multiply;isolation: isolate"/>
      <path id="Path_5553" data-name="Path 5553" d="M288.665,248.776c-.022-.544-.666-1.336-1.915-1.787,0,0-.315.588.022.857s.625-.353.625-.353Z" transform="translate(-279.951 -237.277)" fill="#dd8065"/>
      <path id="Path_5554" data-name="Path 5554" d="M287.156,243.33a2.171,2.171,0,0,1,1.032-1.57l.009,0S287.563,243.5,287.156,243.33Z" transform="translate(-279.489 -241.756)" fill="#dd8065" opacity="0.23" style="mix-blend-mode: multiply;isolation: isolate"/>
      <path id="Path_5555" data-name="Path 5555" d="M289.8,243.6a1.191,1.191,0,0,1,.731-.126c.364.013.65.785.523,1.754a2.624,2.624,0,0,1-1.091,1.91,7.9,7.9,0,0,0,.306-2.08A1.9,1.9,0,0,0,289.8,243.6Z" transform="translate(-277.223 -240.286)" fill="url(#linear-gradient-21)"/>
      <path id="Path_5556" data-name="Path 5556" d="M289.616,248.336c.067-.308.135-.62.223-.934.354-.254.772-.544,1.065-.713a6.95,6.95,0,0,1,1.533-.7c-.141.312-.23.5-.23.5Z" transform="translate(-277.384 -238.13)" fill="#4b421a" opacity="0.26" style="mix-blend-mode: multiply;isolation: isolate"/>
      <g id="Group_1963" data-name="Group 1963" transform="translate(10.213 4.306)" opacity="0.4">
        <g id="Group_1960" data-name="Group 1960" transform="translate(0.182)" style="mix-blend-mode: screen;isolation: isolate">
          <path id="Path_5557" data-name="Path 5557" d="M288.637,251.915a.049.049,0,0,1-.006-.052l.013-.019a43.78,43.78,0,0,1,5.005-2.771c.885-.451,1.728-.882,2.311-1.2,1-.548,1.561-1.086,1.7-1.648a1.412,1.412,0,0,0-.267-1.158,3.076,3.076,0,0,0-2.57-.88c.035-.037.082-.067.117-.1l.009,0a3.074,3.074,0,0,1,2.535.928,1.572,1.572,0,0,1,.28,1.245c-.15.585-.718,1.145-1.75,1.706-.59.327-1.429.754-2.316,1.2a45.185,45.185,0,0,0-4.991,2.762A.046.046,0,0,1,288.637,251.915Z" transform="translate(-288.626 -244.076)" fill="#5e3319"/>
        </g>
        <g id="Group_1961" data-name="Group 1961" transform="translate(0 4.968)" style="mix-blend-mode: screen;isolation: isolate">
          <path id="Path_5558" data-name="Path 5558" d="M288.539,250.6a.059.059,0,0,1-.009-.048l.019-.03a16.113,16.113,0,0,1,7.487-2.736,2.686,2.686,0,0,0,1.949-1.034c-.022.08-.044.165-.072.249a2.835,2.835,0,0,1-1.869.885,15.894,15.894,0,0,0-7.437,2.723A.057.057,0,0,1,288.539,250.6Z" transform="translate(-288.528 -246.753)" fill="#5e3319"/>
        </g>
        <g id="Group_1962" data-name="Group 1962" transform="translate(3.567 6.783)" style="mix-blend-mode: screen;isolation: isolate">
          <path id="Path_5559" data-name="Path 5559" d="M290.485,249.175c-.02-.007-.046-.033-.028-.058l-.007-.009a.053.053,0,0,1,.065-.03,6.776,6.776,0,0,0,4.8-1.036,3.412,3.412,0,0,0,.36-.312c-.041.08-.078.16-.119.243-.059.052-.113.1-.182.15A6.888,6.888,0,0,1,290.485,249.175Z" transform="translate(-290.45 -247.731)" fill="#5e3319"/>
        </g>
      </g>
      <path id="Path_5560" data-name="Path 5560" d="M289.693,246.559a7.368,7.368,0,0,0-.245-1.347,3.662,3.662,0,0,0-.249-.625,6.327,6.327,0,0,0-.343-.64l0,0,.011,0c.325-.111,1.639.277,1.7.689v.015A2.778,2.778,0,0,1,289.693,246.559Z" transform="translate(-278.037 -239.905)" fill="#fff"/>
      <path id="Path_5561" data-name="Path 5561" d="M289.585,244.749a1.647,1.647,0,0,1-.388-.163,6.32,6.32,0,0,0-.343-.64l.007-.007c.325-.111,1.639.277,1.7.689v.015A1.03,1.03,0,0,1,289.585,244.749Z" transform="translate(-278.036 -239.905)" fill="#422f1c"/>
      <path id="Path_5562" data-name="Path 5562" d="M289.789,244.1c.089.08.358.425.069,1.255a2.868,2.868,0,0,1-.553,1.058s.366.041.715-.616a1.485,1.485,0,0,0,.226-1.37A.477.477,0,0,0,289.789,244.1Z" transform="translate(-277.65 -239.754)" fill="#755a3b"/>
      <path id="Path_5563" data-name="Path 5563" d="M289.789,244.1a.761.761,0,0,1,.306.709,2.567,2.567,0,0,1-.791,1.6,6.152,6.152,0,0,0,.529-1.388A1.489,1.489,0,0,0,289.789,244.1Z" transform="translate(-277.65 -239.754)" fill="#7a7876" opacity="0.3" style="mix-blend-mode: multiply;isolation: isolate"/>
      <path id="Path_5564" data-name="Path 5564" d="M289.434,244.61a.138.138,0,0,1-.084-.178.142.142,0,1,1,.267.1A.142.142,0,0,1,289.434,244.61Z" transform="translate(-277.618 -239.549)" fill="#fff"/>
      <g id="Group_1964" data-name="Group 1964" transform="translate(5.886 1.524)">
        <path id="Path_5565" data-name="Path 5565" d="M286.322,244.713a1.161,1.161,0,0,1-.07-.913,3.022,3.022,0,0,0,.028-1.212c.069,0,.137-.009.2-.011a3.339,3.339,0,0,1-.037,1.268,1.051,1.051,0,0,0,.037.746.237.237,0,0,0,.145.089.1.1,0,0,1,.089.109.092.092,0,0,1-.108.087A.4.4,0,0,1,286.322,244.713Z" transform="translate(-286.196 -242.577)" fill="#99372c"/>
      </g>
    </g>
    <path id="Path_5566" data-name="Path 5566" d="M299.329,255.549s-6.368.818-14.042,1.472-23.669-.984-24.647-.984l.486-1.96s.3-.085.835-.245c1.988-.6,7.223-2.177,12.309-3.916,6.522-2.229,16.895-6.611,17.713-6.442s6.364,1.3,6.364,1.3l.484,5.262Z" transform="translate(24.675 46.376)" fill="#71675f"/>
    <path id="Path_5567" data-name="Path 5567" d="M284.394,247.642a31.883,31.883,0,0,0-6.152-2.532l-.327-.076-.65-1.388a44.286,44.286,0,0,1,6.975,2.279Z" transform="translate(38.751 46.304)" fill="#002440"/>
    <g id="Group_1970" data-name="Group 1970" transform="translate(435.831 292.46)">
      <path id="Path_5568" data-name="Path 5568" d="M358.716,254.924c-.058,4.723-.312,9.482-1.1,10.193a4.146,4.146,0,0,1-1.785.7c-.31.067-.642.132-.995.18-.484.072-1.015.134-1.559.184-.317.024-.638.048-.971.071-.95.054-1.93.074-2.873.058-.336,0-.666-.009-.984-.015-.716-.026-1.386-.07-1.973-.134-.364-.041-.694-.085-.98-.137a4.22,4.22,0,0,1-.943-.249c-1.038-.477-1.641-5.1-1.964-9.361-.236-3.1-.321-6.01-.321-6.969l2.853-.8.972-.273,1.583-.442.969-.267,3.333-.935.976-.273,2.936-.828,1-.275,1.706-.475S358.766,249.882,358.716,254.924Z" transform="translate(-342.269 -244.878)" fill="#1e232b"/>
      <g id="Group_1966" data-name="Group 1966" transform="translate(2.853 3.495)" opacity="0.3" style="mix-blend-mode: multiply;isolation: isolate">
        <path id="Path_5569" data-name="Path 5569" d="M345.161,264.55c-.364-.041-.694-.085-.98-.137-.083-3.8-.277-12.386-.375-17.379l.972-.273C344.881,251.772,345.076,260.784,345.161,264.55Z" transform="translate(-343.806 -246.761)" fill="#111919"/>
      </g>
      <g id="Group_1967" data-name="Group 1967" transform="translate(5.408 2.786)" opacity="0.3" style="mix-blend-mode: multiply;isolation: isolate">
        <path id="Path_5570" data-name="Path 5570" d="M346.939,265.026c-.336,0-.666-.009-.984-.015-.245-5.228-.579-13.331-.772-18.365l.969-.267C346.347,251.407,346.686,259.744,346.939,265.026Z" transform="translate(-345.183 -246.379)" fill="#111919"/>
      </g>
      <g id="Group_1968" data-name="Group 1968" transform="translate(9.71 1.578)" opacity="0.3" style="mix-blend-mode: multiply;isolation: isolate">
        <path id="Path_5571" data-name="Path 5571" d="M348.8,265.455c-.317.024-.638.048-.971.07-.095-5.544-.238-14.109-.327-19.524l.976-.273C348.564,251.108,348.707,259.835,348.8,265.455Z" transform="translate(-347.501 -245.728)" fill="#111919"/>
      </g>
      <g id="Group_1969" data-name="Group 1969" transform="translate(12.567 0.475)" opacity="0.3" style="mix-blend-mode: multiply;isolation: isolate">
        <path id="Path_5572" data-name="Path 5572" d="M351.095,245.134c-.336,6.444-.785,15.022-1.06,20.465-.31.067-.642.132-.995.18.3-5.881.8-15.4,1.056-20.371Z" transform="translate(-349.04 -245.134)" fill="#111919"/>
      </g>
      <path id="Path_5573" data-name="Path 5573" d="M358.716,254.924c-5.191-.677-12.207.431-16.126,1.49-.236-3.1-.321-6.01-.321-6.969l2.853-.8.972-.273,1.583-.442.969-.267,3.333-.935.976-.273,2.936-.828,1-.275,1.706-.475S358.766,249.882,358.716,254.924Z" transform="translate(-342.269 -244.878)" fill="#111919" opacity="0.3" style="mix-blend-mode: multiply;isolation: isolate"/>
    </g>
    <g id="Group_1975" data-name="Group 1975" transform="translate(322.647 292.785)">
      <path id="Path_5574" data-name="Path 5574" d="M297.034,248.973s0,3.71-.176,7.4c-.158,3.189-.442,6.362-.971,7.125a2.748,2.748,0,0,1-1.479.781c-.3.082-.627.158-.987.219s-.757.111-1.165.147c-.314.028-.648.046-.98.056a19.394,19.394,0,0,1-2.121-.039c-.332-.024-.663-.056-.989-.1a14.28,14.28,0,0,1-1.856-.362c-.356-.1-.69-.208-1.01-.33a4.509,4.509,0,0,1-2.144-1.514c-.477-.692-1.075-5.367-1.542-9.681-.425-3.964-.741-7.622-.741-7.622l2.821.687,1.01.245,2.35.566,1,.241,3.164.77.982.232,1.707.418.969.234Z" transform="translate(-280.872 -245.053)" fill="#1e232b"/>
      <g id="Group_1971" data-name="Group 1971" transform="translate(2.821 0.687)" opacity="0.3" style="mix-blend-mode: multiply;isolation: isolate">
        <path id="Path_5575" data-name="Path 5575" d="M285.007,263.884c-.356-.1-.69-.208-1.01-.33-.464-4.955-1.156-12.871-1.605-18.131l1.01.245C283.864,251.082,284.556,259.072,285.007,263.884Z" transform="translate(-282.392 -245.423)" fill="#111919"/>
      </g>
      <g id="Group_1972" data-name="Group 1972" transform="translate(10.336 2.509)" opacity="0.3" style="mix-blend-mode: multiply;isolation: isolate">
        <path id="Path_5576" data-name="Path 5576" d="M287.488,263.491c-.314.028-.648.046-.98.056-.043-5.341-.083-12.446-.059-17.141l.982.232C287.408,250.974,287.438,257.5,287.488,263.491Z" transform="translate(-286.441 -246.405)" fill="#111919"/>
      </g>
      <g id="Group_1973" data-name="Group 1973" transform="translate(6.18 1.498)" opacity="0.3" style="mix-blend-mode: multiply;isolation: isolate">
        <path id="Path_5577" data-name="Path 5577" d="M286.3,263.974c-.332-.024-.663-.056-.989-.1L284.2,245.86l1,.241Z" transform="translate(-284.202 -245.86)" fill="#111919"/>
      </g>
      <g id="Group_1974" data-name="Group 1974" transform="translate(12.548 3.159)" opacity="0.3" style="mix-blend-mode: multiply;isolation: isolate">
        <path id="Path_5578" data-name="Path 5578" d="M289.086,246.989c0,4.161-.271,11.128-.466,15.837-.3.082-.627.158-.987.219.236-5.681.466-12.511.484-16.289Z" transform="translate(-287.633 -246.755)" fill="#111919"/>
      </g>
      <path id="Path_5579" data-name="Path 5579" d="M297.034,248.973s0,3.71-.176,7.4c-4.489-2.179-10.737-3.818-15.245-3.7-.425-3.964-.741-7.622-.741-7.622l2.821.687,1.01.245,2.35.566,1,.241,3.164.77.982.232,1.707.418.969.234Z" transform="translate(-280.872 -245.053)" fill="#111919" opacity="0.3" style="mix-blend-mode: multiply;isolation: isolate"/>
    </g>
    <g id="Group_1976" data-name="Group 1976" transform="translate(442.491 221.984)">
      <path id="Path_5580" data-name="Path 5580" d="M359.593,208.432l-.984,7.1c-2.934,1.958-12.735-.737-12.735-.737s.095-1.275.243-2.763c.217-2.066.559-4.538.984-4.58,3.723-.4,9.484.47,11.637.831C359.278,208.372,359.593,208.432,359.593,208.432Z" transform="translate(-345.874 -207.35)" fill="url(#linear-gradient-22)"/>
      <path id="Path_5581" data-name="Path 5581" d="M359.593,208l-.984,7.1c-2.934,1.958-12.735-.737-12.735-.737s.095-1.275.243-2.763c2.1.41,6.171.689,8.331-.174,1.132-.451,2.786-2.056,4.289-3.575C359.278,207.942,359.593,208,359.593,208Z" transform="translate(-345.874 -206.92)" opacity="0.4" fill="url(#linear-gradient-23)" style="mix-blend-mode: multiply;isolation: isolate"/>
    </g>
    <g id="Group_1977" data-name="Group 1977" transform="translate(314.537 221.487)">
      <path id="Path_5582" data-name="Path 5582" d="M292.389,214.047a25.066,25.066,0,0,1-14.447,1.468l-.7-3.125-.774-3.485c5.631-2.448,14.693-1.717,14.693-1.717l.117.657Z" transform="translate(-276.473 -207.085)" fill="url(#linear-gradient-24)"/>
      <path id="Path_5583" data-name="Path 5583" d="M292.033,213.7a25.066,25.066,0,0,1-14.447,1.468l-.7-3.125c4.543.947,8.047.852,10.245-.548a15.386,15.386,0,0,0,3.792-4Z" transform="translate(-276.116 -206.735)" opacity="0.4" fill="url(#linear-gradient-25)" style="mix-blend-mode: multiply;isolation: isolate"/>
    </g>
    <path id="Path_5584" data-name="Path 5584" d="M411.755,294.164s-34.936,9.89-64.811,9.232a271.95,271.95,0,0,1-35.018-3.475c-17.377-2.746-30.94-6.092-30.94-6.092s-.028-.735-.067-2.023c-.228-7.217-.9-31.789.393-42.66.228-1.9,2.129-5.6,4.105-9.032,2.3-4,4.714-7.624,4.714-7.624,4.077-13.025,14.363-37.1,16.49-38.918,0,0,20.243-2.8,36.077-2.967,14.064-.142,40.73,2.474,43.18,4.784s14.448,34.132,14.448,34.132,2.248,3.665,4.786,8.044c2.977,5.138,6.351,11.242,6.967,13.559C413.225,255.411,411.755,294.164,411.755,294.164Z" transform="translate(41.023 0)" fill="url(#linear-gradient-26)"/>
    <path id="Path_5585" data-name="Path 5585" d="M411.581,271.689s-34.936,9.792-64.811,9.14-65.958-9.473-65.958-9.473-.028-.728-.067-2l18.029,4.211a238.264,238.264,0,0,0,31.1,4.406c16.9,1.225,36.978-1.956,36.978-1.956,5.88-5.391,24.161-38.941,24.161-38.941,4.1-3.948,11.5-14.491,13.931-21.421,2.977,5.087,6.351,11.13,6.967,13.424C413.051,233.322,411.581,271.689,411.581,271.689Z" transform="translate(41.195 22.567)" opacity="0.4" fill="url(#linear-gradient-27)" style="mix-blend-mode: multiply;isolation: isolate"/>
    <path id="Path_5586" data-name="Path 5586" d="M311.926,276.225c-17.377-2.719-30.94-6.032-30.94-6.032s-.028-.728-.067-2c-.228-7.145-.9-31.473.393-42.236.228-1.886,2.129-5.549,4.105-8.942,1.566,3,5.733,7.479,13.285,18.411C307.257,247.8,313.944,265.132,311.926,276.225Z" transform="translate(41.458 23.731)" fill="#fca250" opacity="0.3" style="mix-blend-mode: screen;isolation: isolate"/>
    <path id="Path_5587" data-name="Path 5587" d="M387.884,230.362s-35.265-.49-55.342-.98-44.327.735-44.327.735l2.459-6.184,6.444-16.193,4.133-10.4,1.084-2.728s.6-.071,1.711-.174c7.171-.7,35.56-3.179,58.367-.882a102.5,102.5,0,0,1,13.676,2.2c.429.106.848.213,1.264.321l.809,2.624,1.162,3.792,1.531,4.976,2.047,6.681Z" transform="translate(47.644 1.711)" fill="url(#linear-gradient-28)"/>
    <path id="Path_5588" data-name="Path 5588" d="M387.884,223.5s-35.265-.49-55.342-.98-44.327.735-44.327.735l2.459-6.184c14.8.885,39.526,2.778,57.048-3.367,12.849-4.506,26.033-10.029,33.134-13.1l2.047,6.681Z" transform="translate(47.644 8.57)" fill="#46676c" opacity="0.4" style="mix-blend-mode: multiply;isolation: isolate"/>
    <path id="Path_5589" data-name="Path 5589" d="M282.675,238.544s1.221,10.039,5.386,11.015,6.366-8.814,6.366-8.814Z" transform="translate(43.306 41.901)" fill="#ffd49f"/>
    <path id="Path_5590" data-name="Path 5590" d="M342.577,240.842s2.695,9.551,6.615,8.818,5.631-11.512,5.631-11.512Z" transform="translate(93.843 41.557)" fill="#ffd49f" opacity="0.7"/>
    <path id="Path_5591" data-name="Path 5591" d="M347.239,209.868l-2.381,2.049,1.706,2.776s9.487.234,12.915-1.316a55.418,55.418,0,0,1-7.672-.408A6.809,6.809,0,0,1,347.239,209.868Z" transform="translate(95.755 16.822)" fill="#282f39"/>
    <path id="Path_5592" data-name="Path 5592" d="M277.265,212.907a52.63,52.63,0,0,0,9.139,0,7.166,7.166,0,0,0,4.9-2.775l3.1,3.1-.494,2.288a83.446,83.446,0,0,1-8.485-.165C282.324,215.026,277.265,212.907,277.265,212.907Z" transform="translate(38.73 17.054)" fill="#282f39"/>
    <path id="Path_5593" data-name="Path 5593" d="M387.884,229.515s-35.265-.49-55.342-.98-44.327.735-44.327.735l14.12-35.508s.6-.071,1.711-.174c-3.524,8.849-11.332,29.708-13.136,34.212,0,0,23.754-1.47,44.325-.978s49.709.978,49.709.978l-8.855-32.889c.429.106.848.213,1.264.321l1.971,6.416,3.578,11.657Z" transform="translate(47.644 2.558)" fill="#263a3a"/>
    <g id="Group_1978" data-name="Group 1978" transform="translate(427.834 253.538)">
      <path id="Path_5594" data-name="Path 5594" d="M356.266,241.209c-5.917,3.549-15.855,2.346-17.915,2.049-.253-.039-.382-.063-.382-.063-.527-1.136,9.018-16.759,21.481-19.034a.926.926,0,0,1,.026.089v.007C359.767,225.42,362.576,237.426,356.266,241.209Z" transform="translate(-337.948 -224.16)" fill="url(#linear-gradient-29)"/>
      <path id="Path_5595" data-name="Path 5595" d="M340.334,234.018a5.632,5.632,0,1,1,5.635,5.629A5.633,5.633,0,0,1,340.334,234.018Z" transform="translate(-335.905 -220.545)" fill="#8da5b0" opacity="0.4" style="mix-blend-mode: screen;isolation: isolate"/>
      <path id="Path_5596" data-name="Path 5596" d="M356.08,241.164c-5.917,3.549-15.855,2.346-17.915,2.049,2.854-.341,12.028-1.763,16.271-6.277,4.486-4.783,4.74-9.174,4.853-12.724C359.581,225.376,362.39,237.382,356.08,241.164Z" transform="translate(-337.762 -224.115)" fill="#8da5b0" opacity="0.3" style="mix-blend-mode: multiply;isolation: isolate"/>
    </g>
    <g id="Group_1979" data-name="Group 1979" transform="translate(324.956 253.53)">
      <path id="Path_5597" data-name="Path 5597" d="M305.177,242s-.486.076-1.32.161c-3.305.364-12.067.954-17.524-2.021-6.824-3.729-3.279-15.98-3.279-15.98a.032.032,0,0,1,.026.009C295.9,226.307,305.721,240.938,305.177,242Z" transform="translate(-282.134 -224.16)" fill="url(#linear-gradient-30)"/>
      <path id="Path_5598" data-name="Path 5598" d="M285.841,233.5a5.51,5.51,0,1,1,5.508,5.512A5.507,5.507,0,0,1,285.841,233.5Z" transform="translate(-278.961 -220.883)" fill="#8da5b0" opacity="0.4" style="mix-blend-mode: screen;isolation: isolate"/>
      <path id="Path_5599" data-name="Path 5599" d="M303.858,242.161c-3.305.364-12.067.954-17.524-2.021-6.824-3.729-3.279-15.98-3.279-15.98a.032.032,0,0,1,.026.009C284.131,229.488,289.159,239.653,303.858,242.161Z" transform="translate(-282.134 -224.16)" fill="#8da5b0" opacity="0.3" style="mix-blend-mode: multiply;isolation: isolate"/>
    </g>
    <path id="Path_5600" data-name="Path 5600" d="M398.192,224.335c0,1.308-3.775,6.208-11.431,15.508A196.533,196.533,0,0,1,356.349,243c-1.177.035-2.379.067-3.606.087q-2.675.05-5.488.03c-7.871-.058-15.514-.074-22.418-.271-.961-.03-1.908-.058-2.838-.1-11.941-.436-21.3-1.542-25.187-4.534-6.368-4.9-11.1-13.548-11.1-14.857s3.1-8.328,4.9-10.937l15.213.1,7.292.05,51.257.338,8.151.056,17.347.111S398.192,223.034,398.192,224.335Z" transform="translate(45.47 19.148)" opacity="0.3" fill="url(#linear-gradient-31)" style="mix-blend-mode: multiply;isolation: isolate"/>
    <path id="Path_5601" data-name="Path 5601" d="M315.563,242.8c-.961-.03-1.908-.058-2.838-.1-3.86-8.138-11.117-22.947-16.18-30.231l7.292.05A192.061,192.061,0,0,1,315.563,242.8Z" transform="translate(54.986 19.192)" fill="#fca250" opacity="0.16" style="mix-blend-mode: screen;isolation: isolate"/>
    <path id="Path_5602" data-name="Path 5602" d="M341.6,212.735c-4.679,7.288-12.466,22.622-16.171,30.038-1.177.035-2.379.067-3.606.087,3.153-10.785,8.71-23.689,11.626-30.181Z" transform="translate(76.305 19.375)" fill="#fca250" opacity="0.16" style="mix-blend-mode: screen;isolation: isolate"/>
    <g id="Group_1980" data-name="Group 1980" transform="translate(368.454 287.117)">
      <path id="Path_5603" data-name="Path 5603" d="M343.232,252.876l-37.221-.973s-.247-8.818-.247-9.8l37.221.733Z" transform="translate(-305.764 -242.106)" fill="url(#linear-gradient-32)"/>
      <path id="Path_5604" data-name="Path 5604" d="M333.064,242.607l.247,10.037-15.955-.418c1.355-2.921,2.966-6.884,4.1-9.849Z" transform="translate(-295.843 -241.874)" fill="#c7afa5" opacity="0.5" style="mix-blend-mode: multiply;isolation: isolate"/>
    </g>
    <g id="Group_1981" data-name="Group 1981" transform="translate(346.621 263.691)">
      <path id="Path_5605" data-name="Path 5605" d="M378.177,231.043s-.729,1.37-1.782,3.224c-.525.921-1.128,1.964-1.765,3.008s-1.286,2.1-1.93,3.049a22.9,22.9,0,0,1-2.274,2.975,4.348,4.348,0,0,1-.737.638c-3.356,2.153-21.388,5.456-30.007,6.292a22.727,22.727,0,0,1-4.031.158c-4.165-.49-31.839-6.611-33.308-7.593a2.106,2.106,0,0,1-.384-.366,32.05,32.05,0,0,1-2.405-3.459c-.783-1.251-1.63-2.658-2.418-3.994-.609-1.026-1.186-2.019-1.674-2.864-.857-1.5-1.44-2.543-1.44-2.543l56.318.991Z" transform="translate(-294.022 -229.569)" fill="url(#linear-gradient-33)"/>
      <path id="Path_5606" data-name="Path 5606" d="M375.732,233.094c-.525.921-1.128,1.964-1.765,3.008-9.63.219-30.061.685-35.8.87-6.358.206-33.162-2.344-41.7-3.17-.609-1.026-1.186-2.019-1.674-2.864,8.667.644,28.5,2.043,44.108,2.6C353.5,234.061,368.339,233.474,375.732,233.094Z" transform="translate(-293.358 -228.396)" fill="#a52a07" opacity="0.3" style="mix-blend-mode: screen;isolation: isolate"/>
      <path id="Path_5607" data-name="Path 5607" d="M370.149,235.989a22.9,22.9,0,0,1-2.274,2.975c-9.068.646-32.032,2.29-34.775,2.682-2.819.4-25.642-2.5-33.693-3.552A32.05,32.05,0,0,1,297,234.634c9.9,1.221,31.7,3.825,36.1,3.825C337.537,238.459,361.755,236.635,370.149,235.989Z" transform="translate(-291.47 -225.234)" fill="#a52a07" opacity="0.3" style="mix-blend-mode: screen;isolation: isolate"/>
      <path id="Path_5608" data-name="Path 5608" d="M357.119,230.586s-6.011,11.306-8.487,12.9c-3.356,2.153-21.388,5.456-30.007,6.292.423-.566.8-1.1,1.11-1.555,1.394-2.1,6.329-11.705,9.547-18.114Z" transform="translate(-272.964 -229.112)" fill="#a52a07" opacity="0.5" style="mix-blend-mode: multiply;isolation: isolate"/>
    </g>
    <g id="Group_1982" data-name="Group 1982" transform="translate(335.859 226.956)">
      <path id="Path_5609" data-name="Path 5609" d="M387.723,215.132s-30.734-.72-46.283-.865c-1.808-.02-3.409-.032-4.736-.032-12.735,0-48.488.98-48.488.98a198.359,198.359,0,0,1,49.711-5.143q2.773.075,5.471.2A345.665,345.665,0,0,1,387.723,215.132Z" transform="translate(-288.215 -210.009)" fill="#263a3a"/>
      <path id="Path_5610" data-name="Path 5610" d="M363.451,215.338s-31.109-.676-46.66-.818a35.934,35.934,0,0,0,2.147-4.371A316.669,316.669,0,0,1,363.451,215.338Z" transform="translate(-263.756 -209.889)" fill="#263a3a" opacity="0.4" style="mix-blend-mode: multiply;isolation: isolate"/>
    </g>
    <path id="Path_5611" data-name="Path 5611" d="M358.307,193.554c-9.612,4.567-25.9,11.822-36.241,13.79-13.639,2.6-19.435,2.9-29.055.4l4.133-10.4,1.084-2.728s.6-.071,1.711-.174C307.112,193.734,335.5,191.256,358.307,193.554Z" transform="translate(51.841 1.711)" fill="#46676c" opacity="0.4" style="mix-blend-mode: screen;isolation: isolate"/>
    <g id="Group_1983" data-name="Group 1983" transform="translate(330.589 232.366)" opacity="0.6" style="mix-blend-mode: multiply;isolation: isolate">
      <path id="Path_5612" data-name="Path 5612" d="M345.725,244.25c-1.292,0-2.6-.011-3.922-.035a294.427,294.427,0,0,1-47.365-4.668l-.148-.026-.109-.1c-7.179-6.19-8.7-15.935-8.764-16.347l-.024-.165.072-.152,5.286-9.853.51-.063-4.692,10.228c.23,1.286,1.969,9.905,8.242,15.393a294.808,294.808,0,0,0,47.014,4.612,208.32,208.32,0,0,0,45.951-4.1c1.008-1.266,7.953-10.039,10.039-14.92l-8.136-11.009.9-.072,8.53,10.918-.117.3c-2.129,5.319-10.115,15.235-10.451,15.655l-.126.148-.186.048A205.241,205.241,0,0,1,345.725,244.25Z" transform="translate(-285.392 -212.842)" fill="#9a4730"/>
    </g>
    <path id="Path_5613" data-name="Path 5613" d="M363.591,209.588c-2.661.512-6.5,1.262-11.672,2.251-11.509,2.2-31.345,7.838-31.345,7.838l-9.8-7.593c10.677-6.316,36.868-11.668,49.236-14.153Z" transform="translate(66.841 6.276)" fill="#46676c" opacity="0.4" style="mix-blend-mode: screen;isolation: isolate"/>
    <path id="Path_5614" data-name="Path 5614" d="M372.151,198.705c-6.613-1.377-19.313-3.359-37.54-3.359-21.224,0-34.1,1.273-39.372,1.993l1.084-2.728s.6-.071,1.711-.174c8.717-.856,48.75-4.328,72.044,1.323.429.106.848.213,1.264.321Z" transform="translate(53.658 1.71)" fill="#263a3a"/>
    <path id="Path_5615" data-name="Path 5615" d="M302.332,258.024l-22.082,6.795-.184.058-.265.08-.486,1.96s-.683-.03-1.687-.156c-2.1-.254-5.631-.9-7.292-2.454-2.45-2.287-14.2-19.183-14.2-19.183a16.562,16.562,0,0,1-1.147,7.756c-1.629,3.589-12.49,15.259-12.49,15.259a4.939,4.939,0,0,1-1.592-.258,6.215,6.215,0,0,1-2.082-1.125s8.495-25.142,10.776-29.222,5.555-9.469,10.941-5.224c4.5,3.539,17.314,17.232,21.416,21.638.807.872,1.277,1.377,1.277,1.377l.284-.017,4.128-.282,11.149-.768,1.091-.074A21.983,21.983,0,0,0,302.332,258.024Z" transform="translate(6.398 35.498)" fill="url(#linear-gradient-34)"/>
    <g id="Group_1984" data-name="Group 1984" transform="translate(277.957 305.231)">
      <path id="Path_5616" data-name="Path 5616" d="M260.457,253.763a1.966,1.966,0,0,1-.622,1.442,1.944,1.944,0,0,1-1.373.557,2,2,0,0,1-2-2,2.082,2.082,0,0,1,.08-.557,2,2,0,0,1,3.916.557Z" transform="translate(-256.461 -251.759)" fill="#1e232b"/>
      <path id="Path_5617" data-name="Path 5617" d="M256.813,253.484a1.306,1.306,0,1,1,1.3,1.307A1.307,1.307,0,0,1,256.813,253.484Z" transform="translate(-256.16 -251.401)" fill="#4e555e"/>
      <path id="Path_5618" data-name="Path 5618" d="M260.42,253.763a1.966,1.966,0,0,1-.622,1.442c-.935-.6-2.218-1.41-3.294-2a2,2,0,0,1,3.916.557Z" transform="translate(-256.424 -251.759)" fill="#4e555e" opacity="0.7" style="mix-blend-mode: multiply;isolation: isolate"/>
    </g>
    <g id="Group_1985" data-name="Group 1985" transform="translate(301.017 305.394)">
      <path id="Path_5619" data-name="Path 5619" d="M273.128,253.853a1.981,1.981,0,0,1-.624,1.436,1.945,1.945,0,0,1-1.377.559,2,2,0,0,1-2-2,2.072,2.072,0,0,1,.08-.564,2,2,0,0,1,3.92.564Z" transform="translate(-269.128 -251.847)" fill="#1e232b"/>
      <path id="Path_5620" data-name="Path 5620" d="M269.48,253.57a1.307,1.307,0,1,1,1.3,1.307A1.3,1.3,0,0,1,269.48,253.57Z" transform="translate(-268.827 -251.488)" fill="#4e555e"/>
      <path id="Path_5621" data-name="Path 5621" d="M273.091,253.853a1.981,1.981,0,0,1-.624,1.436c-.937-.6-2.22-1.407-3.3-2a2,2,0,0,1,3.92.564Z" transform="translate(-269.091 -251.847)" fill="#4e555e" opacity="0.7" style="mix-blend-mode: multiply;isolation: isolate"/>
    </g>
    <g id="Group_1986" data-name="Group 1986" transform="translate(321.945 305.147)">
      <path id="Path_5622" data-name="Path 5622" d="M284.471,253.718a2.021,2.021,0,0,1-2,2,1.994,1.994,0,0,1-2-2,2.135,2.135,0,0,1,.076-.559,2,2,0,0,1,3.918.559Z" transform="translate(-280.477 -251.714)" fill="#1e232b"/>
      <path id="Path_5623" data-name="Path 5623" d="M280.826,253.44a1.306,1.306,0,1,1,1.3,1.3A1.308,1.308,0,0,1,280.826,253.44Z" transform="translate(-280.178 -251.354)" fill="#4e555e"/>
      <path id="Path_5624" data-name="Path 5624" d="M284.436,253.718a1.954,1.954,0,0,1-.624,1.438c-.933-.6-2.218-1.4-3.294-2a2,2,0,0,1,3.918.559Z" transform="translate(-280.442 -251.714)" fill="#4e555e" opacity="0.7" style="mix-blend-mode: multiply;isolation: isolate"/>
    </g>
    <path id="Path_5625" data-name="Path 5625" d="M265.618,244.614a22.619,22.619,0,0,0-2.734,6.793c-.247,1.01-.492,1.951-.714,2.775l-.265.08-.486,1.96s-.683-.03-1.687-.156c.5-1.674,1.44-4.764,2.337-7.351.83-2.39,1.566-4.348,1.99-5.46.807.872,1.277,1.377,1.277,1.377Z" transform="translate(23.955 46.192)" fill="url(#linear-gradient-35)"/>
    <path id="Path_5626" data-name="Path 5626" d="M279.29,260.15l-.449.137-.486,1.96s-6.529-.325-8.979-2.609-14.2-19.183-14.2-19.183a16.561,16.561,0,0,1-1.147,7.756c-1.629,3.589-12.49,15.259-12.49,15.259a4.938,4.938,0,0,1-1.592-.258c1.6-1.882,7.112-8.081,8.94-11.659,1.958-3.831,4.979-15.339,4.979-15.339s7.429,9.467,11.021,13.793C268.093,253.873,275.144,258.125,279.29,260.15Z" transform="translate(7.358 40.166)" opacity="0.3" fill="url(#linear-gradient-36)" style="mix-blend-mode: multiply;isolation: isolate"/>
    <path id="Path_5627" data-name="Path 5627" d="M299.329,252.52s-6.368.818-14.042,1.472-23.669-.984-24.647-.984l.486-1.96s.3-.085.835-.245a164.032,164.032,0,0,0,17.451.245,44.515,44.515,0,0,0,8.244-.976s8.081-1.795,9.63-2.45c.354-.147.9-.369,1.544-.614Z" transform="translate(24.675 49.405)" fill="#635a53" opacity="0.3" style="mix-blend-mode: multiply;isolation: isolate"/>
    <g id="Group_1987" data-name="Group 1987" transform="translate(309.838 292.855)">
      <path id="Path_5628" data-name="Path 5628" d="M284.4,253.779a4.721,4.721,0,0,1-1.743.87c-2.37.657-6.856-2.691-8.738-5.546-.033-.056.993.054,2.2-.015a6.766,6.766,0,0,0,2.86-.638,15.4,15.4,0,0,0,3.53-3.359s3.083,3.278,3.406,5.074A3.782,3.782,0,0,1,284.4,253.779Z" transform="translate(-273.92 -245.091)" fill="#635a53"/>
      <path id="Path_5629" data-name="Path 5629" d="M284.4,251.936a4.72,4.72,0,0,1-1.743.87c-2.37.657-6.856-2.691-8.738-5.546-.033-.056.993.054,2.2-.015a12.8,12.8,0,0,0,4.979,3.686A29.89,29.89,0,0,0,284.4,251.936Z" transform="translate(-273.92 -243.248)" fill="#635a53" opacity="0.3" style="mix-blend-mode: multiply;isolation: isolate"/>
    </g>
    <g id="Group_1988" data-name="Group 1988" transform="translate(304.156 277.947)">
      <path id="Path_5630" data-name="Path 5630" d="M281.453,246.9l3.756,5.059a.256.256,0,0,1-.041.056,11.646,11.646,0,0,1-3.55,3.211,6.293,6.293,0,0,1-2.8.861,6.849,6.849,0,0,1-2.264-.208c-.488-.653-5.709-8.326-5.709-10.616,0,0,2.686-1.605,5.8-3.257a48.918,48.918,0,0,1,7.181-3.268c4.243-1.31,5.224-1.555,5.224-1.555v.058l.082,4.35Z" transform="translate(-270.844 -237.179)" fill="url(#linear-gradient-37)"/>
      <path id="Path_5631" data-name="Path 5631" d="M278.817,253.859a6.849,6.849,0,0,1-2.264-.208c-.488-.653-5.709-8.326-5.709-10.616,0,0,2.686-1.605,5.8-3.257a18.667,18.667,0,0,0-2.611,3.671,11.48,11.48,0,0,0,1.468,4C276.789,249.8,277.687,252.228,278.817,253.859Z" transform="translate(-270.844 -234.954)" fill="#da8065" opacity="0.3" style="mix-blend-mode: multiply;isolation: isolate"/>
      <path id="Path_5632" data-name="Path 5632" d="M277.237,246.87l3.756,5.059a.257.257,0,0,1-.041.056c-.174-.032-.29-.056-.29-.056-.4-.735-4.894-5.633-4.894-5.633s2.776-2.856,5.141-5.057c1.2-1.119,2.717-2.717,3.92-4.029l.082,4.35Z" transform="translate(-266.629 -237.152)" fill="#da8065" opacity="0.3" style="mix-blend-mode: multiply;isolation: isolate"/>
    </g>
    <path id="Path_5633" data-name="Path 5633" d="M276.823,244.817l-2.693.329c-2.042.239-9.226.817-9.226.817l.414-1.772,11.149-.768Z" transform="translate(28.312 46.097)" fill="#353331"/>
  </g>
</svg>
