<svg id="illust-member-normal" xmlns="http://www.w3.org/2000/svg" width="56" height="56.001" viewBox="0 0 56 56.001">
  <path id="Path_5330" data-name="Path 5330" d="M724.7,72.534c15.877,0,28.015,12.108,28.015,27.985A27.514,27.514,0,0,1,724.7,128.535c-15.877,0-27.985-12.14-27.985-28.016A27.463,27.463,0,0,1,724.7,72.534Z" transform="translate(-696.715 -72.534)" fill="#7bcfe5" fill-rule="evenodd"/>
  <path id="Path_5331" data-name="Path 5331" d="M723.948,78.032c12.446,0,21.993,9.389,21.993,21.7s-9.547,21.734-21.993,21.734-21.962-9.419-21.962-21.734,9.517-21.7,21.962-21.7Z" transform="translate(-695.963 -71.75)" fill="#89c9e3" fill-rule="evenodd"/>
  <path id="Path_5332" data-name="Path 5332" d="M713.261,113.486c12.794,2.59,24.551-5.441,27.115-18.457a23.991,23.991,0,0,0-.854-12.888,23.184,23.184,0,0,1,6.687,21.76c-2.564,13.049-14.321,21.047-27.115,18.489A22.653,22.653,0,0,1,701.9,107.754a22.976,22.976,0,0,0,11.36,5.732Z" transform="translate(-695.976 -73.87)" fill="#3490b5" fill-rule="evenodd"/>
  <path id="Path_5333" data-name="Path 5333" d="M724.631,73.413a27,27,0,1,1-26.981,26.98,26.493,26.493,0,0,1,26.981-26.98ZM724.6,76.1a24.283,24.283,0,1,1-24.266,24.268A23.833,23.833,0,0,1,724.6,76.1Z" transform="translate(-696.582 -72.409)" fill="#82cce4" fill-rule="evenodd"/>
  <path id="Path_5334" data-name="Path 5334" d="M724.372,75.368c14.127,0,24.907,10.716,24.907,24.747s-10.78,24.778-24.907,24.778-24.908-10.746-24.908-24.778,10.78-24.747,24.908-24.747Zm-.062,4.115a20.633,20.633,0,1,1-20.732,20.632A20.326,20.326,0,0,1,724.31,79.483Z" transform="translate(-696.323 -72.13)" fill="#60c0e6" fill-rule="evenodd"/>
  <path id="Path_5335" data-name="Path 5335" d="M704.543,117.588v.065a27.152,27.152,0,0,1-5.079-16.157c0-14.8,10.739-26.1,24.815-26.1a24.2,24.2,0,0,1,21.6,12.953,29.934,29.934,0,0,0-6.395-1.846,20.072,20.072,0,0,0-15.207-6.767c-11.75,0-20.684,9.423-20.684,21.76a23.258,23.258,0,0,0,1.683,8.872,34.692,34.692,0,0,0-.735,7.22Z" transform="translate(-696.323 -72.126)" fill="#3196b9" fill-rule="evenodd"/>
</svg>
