<svg xmlns="http://www.w3.org/2000/svg" width="359.52" height="150" viewBox="0 0 359.52 150">
  <g id="Group_6258" data-name="Group 6258" transform="translate(-1245.46 -864.801)">
    <ellipse id="Ellipse_141" data-name="Ellipse 141" cx="15.624" cy="9.021" rx="15.624" ry="9.021" transform="translate(1264.805 986.221)" fill="#1d1d1b" opacity="0.5"/>
    <g id="Group_2286" data-name="Group 2286" transform="translate(1245.46 911.919)" opacity="0.5">
      <path id="Path_6815" data-name="Path 6815" d="M79.454,104.795l112.817,64.58a16.417,16.417,0,0,0,14.651,0l45.719-25.422c4.542-2.594,4.542-6.836,0-9.427L139.824,69.942a16.416,16.416,0,0,0-14.651,0L79.454,95.367C74.912,97.959,74.912,102.2,79.454,104.795Z" transform="translate(-76.047 -68.217)" fill="#1d1d1b"/>
    </g>
    <g id="Group_2307" data-name="Group 2307" transform="translate(1245.665 864.802)">
      <path id="Path_6816" data-name="Path 6816" d="M116.653,83.174,80.837,103.852V86.008L116.653,65.33Z" transform="translate(-66.972 -27.03)" fill="#3e312c"/>
      <path id="Path_6817" data-name="Path 6817" d="M143.225,98.513l-35.817,20.678V101.348L143.225,80.67Z" transform="translate(-15.179 2.302)" fill="#3e312c"/>
      <g id="Group_2292" data-name="Group 2292" transform="translate(94.499 105.715)">
        <rect id="Rectangle_272" data-name="Rectangle 272" width="10.973" height="36.478" transform="matrix(0.866, -0.5, 0.5, 0.866, 4.075, 6.125)" fill="#1d1715"/>
        <path id="Path_6818" data-name="Path 6818" d="M111.385,97.7c.009,8.231,5.79,18.234,12.917,22.34s12.9.761,12.89-7.47S131.4,94.343,124.278,90.236,111.379,89.472,111.385,97.7Z" transform="translate(-101.967 -88.48)" fill="#1d1715"/>
        <g id="Group_2291" data-name="Group 2291" transform="translate(0 5.437)">
          <path id="Path_6819" data-name="Path 6819" d="M124.038,105.876a15.273,15.273,0,0,0-6.909-11.968c-3.816-2.2-6.909-.414-6.909,3.989a15.268,15.268,0,0,0,6.909,11.968C120.945,112.068,124.038,110.282,124.038,105.876Z" transform="translate(-104.224 -85.228)" fill="#1d1715"/>
          <path id="Path_6820" data-name="Path 6820" d="M133.986,114.425c-.006-8.231-5.787-18.231-12.911-22.337s-12.9-.764-12.9,7.467,5.79,18.234,12.917,22.34S133.992,122.656,133.986,114.425Zm-4.959-2.858c0,5.07-3.552,7.13-7.934,4.6a17.55,17.55,0,0,1-7.952-13.757c0-5.064,3.549-7.124,7.937-4.594A17.556,17.556,0,0,1,129.027,111.566Z" transform="translate(-108.179 -90.331)" fill="#1d1715"/>
          <g id="Group_2290" data-name="Group 2290" transform="translate(3.766 4.859)">
            <path id="Path_6821" data-name="Path 6821" d="M127.739,109.052c-.006-5.828-4.1-12.914-9.148-15.822s-9.133-.541-9.13,5.288,4.1,12.917,9.148,15.825S127.742,114.88,127.739,109.052Zm-.99-.57c0,5.2-3.643,7.312-8.14,4.721s-8.155-8.913-8.158-14.115,3.64-7.312,8.14-4.715S126.743,103.282,126.749,108.482Z" transform="translate(-109.461 -91.985)" fill="#dadada"/>
            <path id="Path_6822" data-name="Path 6822" d="M121.866,104a12.382,12.382,0,0,0-5.6-9.7c-3.093-1.78-5.6-.329-5.6,3.246a12.383,12.383,0,0,0,5.608,9.7C119.363,109.027,121.872,107.576,121.866,104Zm-2.077-1.2c0,2.247-1.575,3.158-3.519,2.036a7.78,7.78,0,0,1-3.525-6.093c0-2.247,1.575-3.161,3.519-2.042A7.8,7.8,0,0,1,119.789,102.8Z" transform="translate(-107.128 -88.973)" fill="#ededed"/>
            <g id="Group_2289" data-name="Group 2289" transform="translate(5.617 7.253)">
              <g id="Group_2287" data-name="Group 2287">
                <path id="Path_6823" data-name="Path 6823" d="M118.417,101.031a7.8,7.8,0,0,0-3.525-6.1c-1.945-1.119-3.519-.206-3.519,2.042a7.78,7.78,0,0,0,3.525,6.093C116.843,104.189,118.42,103.278,118.417,101.031Zm-2.174.3c.2-.112.514.07.711.411s.2.708,0,.823-.514-.071-.711-.408S116.047,101.448,116.244,101.333Zm-1.639,0c0-.188.129-.264.291-.17a.644.644,0,0,1,.3.505c0,.188-.132.264-.3.17A.637.637,0,0,1,114.6,101.333Zm-1.768-1.962c.2-.112.514.071.714.411s.2.708,0,.823-.514-.07-.714-.411S112.639,99.485,112.836,99.371Zm-.106-1.956a.655.655,0,0,1,.294.511c0,.185-.132.261-.291.167a.656.656,0,0,1-.3-.508C112.436,97.4,112.571,97.323,112.73,97.414Zm.817-.746c-.2.112-.517-.071-.714-.411s-.2-.705,0-.823.517.07.714.414S113.741,96.557,113.547,96.668Zm1.639,0c0,.185-.129.264-.294.17a.651.651,0,0,1-.291-.508c0-.188.129-.264.291-.17A.645.645,0,0,1,115.186,96.671Zm1.046,3.1c0,.855-.6,1.2-1.337.773a2.963,2.963,0,0,1-1.34-2.315c0-.852.6-1.2,1.34-.773A2.948,2.948,0,0,1,116.232,99.773Zm.72-1.143c-.194.115-.514-.071-.708-.408s-.2-.708,0-.823.514.068.711.411S117.148,98.519,116.951,98.631Zm.4,1.786c0,.188-.129.264-.291.17a.645.645,0,0,1-.3-.508c0-.188.132-.264.3-.167A.641.641,0,0,1,117.351,100.417Z" transform="translate(-111.373 -94.454)" fill="#dad1d1"/>
              </g>
              <g id="Group_2288" data-name="Group 2288">
                <path id="Path_6824" data-name="Path 6824" d="M118.417,101.031a7.8,7.8,0,0,0-3.525-6.1c-1.945-1.119-3.519-.206-3.519,2.042a7.78,7.78,0,0,0,3.525,6.093C116.843,104.189,118.42,103.278,118.417,101.031Zm-2.174.3c.2-.112.514.07.711.411s.2.708,0,.823-.514-.071-.711-.408S116.047,101.448,116.244,101.333Zm-1.639,0c0-.188.129-.264.291-.17a.644.644,0,0,1,.3.505c0,.188-.132.264-.3.17A.637.637,0,0,1,114.6,101.333Zm-1.768-1.962c.2-.112.514.071.714.411s.2.708,0,.823-.514-.07-.714-.411S112.639,99.485,112.836,99.371Zm-.106-1.956a.655.655,0,0,1,.294.511c0,.185-.132.261-.291.167a.656.656,0,0,1-.3-.508C112.436,97.4,112.571,97.323,112.73,97.414Zm.817-.746c-.2.112-.517-.071-.714-.411s-.2-.705,0-.823.517.07.714.414S113.741,96.557,113.547,96.668Zm1.639,0c0,.185-.129.264-.294.17a.651.651,0,0,1-.291-.508c0-.188.129-.264.291-.17A.645.645,0,0,1,115.186,96.671Zm1.046,3.1c0,.855-.6,1.2-1.337.773a2.963,2.963,0,0,1-1.34-2.315c0-.852.6-1.2,1.34-.773A2.948,2.948,0,0,1,116.232,99.773Zm.72-1.143c-.194.115-.514-.071-.708-.408s-.2-.708,0-.823.514.068.711.411S117.148,98.519,116.951,98.631Zm.4,1.786c0,.188-.129.264-.291.17a.645.645,0,0,1-.3-.508c0-.188.132-.264.3-.167A.641.641,0,0,1,117.351,100.417Z" transform="translate(-111.373 -94.454)" fill="#c6c6c6"/>
              </g>
            </g>
            <path id="Path_6825" data-name="Path 6825" d="M126.1,107.64c-.006-5.2-3.654-11.515-8.158-14.109s-8.143-.485-8.14,4.715,3.657,11.518,8.158,14.115S126.1,112.839,126.1,107.64Zm-2.967,1.745c.212-.305.734-.115,1.166.423s.605,1.21.394,1.513-.731.115-1.163-.42S122.917,109.687,123.129,109.385Zm-5.176.029a12.383,12.383,0,0,1-5.608-9.7c0-3.575,2.5-5.026,5.6-3.246a12.382,12.382,0,0,1,5.6,9.7C123.552,109.746,121.043,111.2,117.953,109.414Zm2.988,1.237c.37-.032.87.458,1.119,1.1s.153,1.184-.214,1.219-.87-.458-1.119-1.1S120.573,110.683,120.94,110.651Zm-3.757-.2c0-.576.344-.84.77-.593a1.85,1.85,0,0,1,.77,1.483c0,.576-.344.84-.767.593A1.852,1.852,0,0,1,117.183,110.448Zm-3.337-3.431c.247-.355.746-.27,1.113.188a1.331,1.331,0,0,1,.217,1.469c-.247.353-.746.27-1.116-.188A1.335,1.335,0,0,1,113.846,107.017Zm-2.244-4.524a1.324,1.324,0,0,1,1.166.919c.215.549.038,1.025-.391,1.066a1.348,1.348,0,0,1-1.166-.922C111,103,111.173,102.531,111.6,102.493Zm-.538-4.406a1.862,1.862,0,0,1,.9,1.41c0,.491-.4.658-.9.37a1.862,1.862,0,0,1-.9-1.41C110.162,97.966,110.568,97.8,111.064,98.087Zm1.7-1.583c-.212.3-.734.115-1.163-.42s-.611-1.216-.4-1.522.737-.112,1.166.423S112.976,96.2,112.765,96.5Zm2.186-1.269c-.367.035-.867-.458-1.116-1.1s-.153-1.187.214-1.222.867.461,1.116,1.1S115.321,95.2,114.951,95.234Zm3.76.206c0,.573-.344.837-.77.593a1.87,1.87,0,0,1-.773-1.483c0-.576.347-.84.773-.6A1.856,1.856,0,0,1,118.711,95.44Zm3.34,3.431c-.25.355-.749.27-1.119-.188a1.341,1.341,0,0,1-.217-1.472c.247-.355.749-.27,1.116.188A1.338,1.338,0,0,1,122.051,98.871Zm2.238,4.527a1.336,1.336,0,0,1-1.163-.925c-.217-.546-.038-1.022.391-1.063a1.347,1.347,0,0,1,1.169.922C124.9,102.881,124.721,103.357,124.289,103.4Zm1.439,4.033c0,.488-.4.655-.9.367a1.857,1.857,0,0,1-.9-1.407c0-.494.4-.658.9-.373A1.854,1.854,0,0,1,125.729,107.431Z" transform="translate(-108.808 -91.143)" fill="#dad1d1"/>
          </g>
        </g>
      </g>
      <g id="Group_2298" data-name="Group 2298" transform="translate(15.545 60.494)">
        <rect id="Rectangle_273" data-name="Rectangle 273" width="10.973" height="36.479" transform="matrix(0.866, -0.5, 0.5, 0.866, 4.074, 6.125)" fill="#1d1715"/>
        <path id="Path_6826" data-name="Path 6826" d="M84.615,82.174c.009,8.234,5.787,18.234,12.914,22.34s12.9.764,12.893-7.47-5.79-18.231-12.914-22.337S84.609,73.943,84.615,82.174Z" transform="translate(-75.197 -72.951)" fill="#1d1715"/>
        <g id="Group_2297" data-name="Group 2297" transform="translate(0 5.437)">
          <path id="Path_6827" data-name="Path 6827" d="M97.265,90.347a15.269,15.269,0,0,0-6.906-11.968c-3.816-2.2-6.909-.414-6.909,3.989a15.268,15.268,0,0,0,6.909,11.968C94.175,96.539,97.265,94.753,97.265,90.347Z" transform="translate(-77.454 -69.699)" fill="#1d1715"/>
          <path id="Path_6828" data-name="Path 6828" d="M107.216,98.9c-.006-8.228-5.787-18.231-12.914-22.337s-12.9-.764-12.893,7.464,5.79,18.237,12.917,22.343S107.222,107.127,107.216,98.9Zm-4.959-2.858c0,5.07-3.552,7.13-7.934,4.6a17.554,17.554,0,0,1-7.952-13.757c0-5.064,3.549-7.124,7.937-4.594A17.564,17.564,0,0,1,102.257,96.037Z" transform="translate(-81.409 -74.802)" fill="#1d1715"/>
          <g id="Group_2296" data-name="Group 2296" transform="translate(3.766 4.86)">
            <path id="Path_6829" data-name="Path 6829" d="M100.966,93.522c0-5.828-4.1-12.914-9.145-15.822s-9.133-.54-9.13,5.288,4.1,12.917,9.148,15.825S100.972,99.35,100.966,93.522Zm-.99-.57c.006,5.2-3.64,7.312-8.137,4.721s-8.155-8.913-8.161-14.115,3.643-7.312,8.143-4.715S99.973,87.753,99.976,92.952Z" transform="translate(-82.691 -76.457)" fill="#dadada"/>
            <path id="Path_6830" data-name="Path 6830" d="M95.1,88.472a12.382,12.382,0,0,0-5.6-9.7c-3.093-1.78-5.6-.329-5.6,3.246a12.38,12.38,0,0,0,5.6,9.7C92.593,93.5,95.1,92.047,95.1,88.472Zm-2.077-1.2c0,2.247-1.575,3.158-3.519,2.039a7.79,7.79,0,0,1-3.525-6.1c0-2.247,1.575-3.161,3.519-2.042A7.8,7.8,0,0,1,93.019,87.273Z" transform="translate(-80.358 -73.445)" fill="#ededed"/>
            <g id="Group_2295" data-name="Group 2295" transform="translate(5.617 7.252)">
              <g id="Group_2293" data-name="Group 2293">
                <path id="Path_6831" data-name="Path 6831" d="M91.647,85.5a7.8,7.8,0,0,0-3.525-6.1C86.178,78.284,84.6,79.2,84.6,81.445a7.79,7.79,0,0,0,3.525,6.1C90.073,88.66,91.647,87.749,91.647,85.5Zm-2.174.3c.2-.112.514.071.711.411s.2.711,0,.823-.514-.07-.711-.408S89.277,85.919,89.474,85.8Zm-1.639,0c0-.188.129-.264.291-.17a.645.645,0,0,1,.294.505c0,.188-.129.264-.294.17A.637.637,0,0,1,87.834,85.8Zm-1.768-1.959c.2-.115.514.068.711.408s.2.708,0,.823-.514-.068-.711-.411S85.869,83.956,86.066,83.845Zm-.106-1.959a.65.65,0,0,1,.294.511c0,.185-.132.261-.294.167a.653.653,0,0,1-.294-.508C85.666,81.868,85.8,81.794,85.96,81.885Zm.817-.746c-.2.112-.517-.071-.714-.411s-.2-.705,0-.823.514.07.714.414S86.971,81.028,86.777,81.139Zm1.639,0c0,.185-.129.264-.294.17a.65.65,0,0,1-.294-.508c0-.185.132-.264.294-.17A.645.645,0,0,1,88.416,81.142Zm1.046,3.1c0,.855-.6,1.2-1.337.773a2.963,2.963,0,0,1-1.34-2.315c0-.852.6-1.2,1.34-.773A2.948,2.948,0,0,1,89.462,84.244Zm.72-1.143c-.2.115-.514-.068-.711-.408s-.2-.708,0-.823.514.068.711.411S90.378,82.99,90.181,83.1Zm.4,1.786c0,.188-.129.264-.291.173a.655.655,0,0,1-.3-.511c0-.188.132-.261.3-.167A.649.649,0,0,1,90.581,84.888Z" transform="translate(-84.603 -78.925)" fill="#dad1d1"/>
              </g>
              <g id="Group_2294" data-name="Group 2294">
                <path id="Path_6832" data-name="Path 6832" d="M91.647,85.5a7.8,7.8,0,0,0-3.525-6.1C86.178,78.284,84.6,79.2,84.6,81.445a7.79,7.79,0,0,0,3.525,6.1C90.073,88.66,91.647,87.749,91.647,85.5Zm-2.174.3c.2-.112.514.071.711.411s.2.711,0,.823-.514-.07-.711-.408S89.277,85.919,89.474,85.8Zm-1.639,0c0-.188.129-.264.291-.17a.645.645,0,0,1,.294.505c0,.188-.129.264-.294.17A.637.637,0,0,1,87.834,85.8Zm-1.768-1.959c.2-.115.514.068.711.408s.2.708,0,.823-.514-.068-.711-.411S85.869,83.956,86.066,83.845Zm-.106-1.959a.65.65,0,0,1,.294.511c0,.185-.132.261-.294.167a.653.653,0,0,1-.294-.508C85.666,81.868,85.8,81.794,85.96,81.885Zm.817-.746c-.2.112-.517-.071-.714-.411s-.2-.705,0-.823.514.07.714.414S86.971,81.028,86.777,81.139Zm1.639,0c0,.185-.129.264-.294.17a.65.65,0,0,1-.294-.508c0-.185.132-.264.294-.17A.645.645,0,0,1,88.416,81.142Zm1.046,3.1c0,.855-.6,1.2-1.337.773a2.963,2.963,0,0,1-1.34-2.315c0-.852.6-1.2,1.34-.773A2.948,2.948,0,0,1,89.462,84.244Zm.72-1.143c-.2.115-.514-.068-.711-.408s-.2-.708,0-.823.514.068.711.411S90.378,82.99,90.181,83.1Zm.4,1.786c0,.188-.129.264-.291.173a.655.655,0,0,1-.3-.511c0-.188.132-.261.3-.167A.649.649,0,0,1,90.581,84.888Z" transform="translate(-84.603 -78.925)" fill="#c6c6c6"/>
              </g>
            </g>
            <path id="Path_6833" data-name="Path 6833" d="M99.325,92.111c0-5.2-3.651-11.515-8.155-14.109s-8.143-.485-8.143,4.715,3.657,11.518,8.161,14.115S99.331,97.31,99.325,92.111Zm-2.967,1.745c.214-.3.737-.115,1.169.423s.605,1.21.394,1.513-.734.115-1.163-.42S96.146,94.158,96.358,93.856Zm-5.176.029a12.38,12.38,0,0,1-5.6-9.7c0-3.575,2.5-5.026,5.6-3.246a12.382,12.382,0,0,1,5.6,9.7C96.781,94.217,94.275,95.668,91.182,93.885Zm2.99,1.237c.37-.032.87.458,1.119,1.1s.15,1.187-.214,1.222-.87-.458-1.119-1.1S93.805,95.154,94.172,95.122Zm-3.757-.2c0-.579.344-.843.767-.6a1.852,1.852,0,0,1,.773,1.483c0,.576-.344.84-.767.593A1.843,1.843,0,0,1,90.415,94.922Zm-3.34-3.434c.25-.355.749-.27,1.116.188a1.331,1.331,0,0,1,.217,1.469c-.247.352-.746.27-1.116-.188A1.337,1.337,0,0,1,87.075,91.488Zm-2.241-4.524A1.328,1.328,0,0,1,86,87.884c.214.549.038,1.025-.394,1.066a1.345,1.345,0,0,1-1.163-.922C84.228,87.475,84.4,87,84.834,86.964Zm-.541-4.406a1.858,1.858,0,0,1,.9,1.41c0,.491-.405.658-.9.37a1.862,1.862,0,0,1-.9-1.41C83.394,82.437,83.8,82.273,84.293,82.558Zm1.7-1.583c-.212.3-.731.115-1.163-.42s-.608-1.216-.4-1.519.734-.115,1.166.42S86.208,80.672,85.994,80.974Zm2.188-1.266c-.367.032-.87-.461-1.116-1.1s-.153-1.187.214-1.222.867.461,1.116,1.1S88.553,79.673,88.182,79.708Zm3.76.2c0,.573-.344.837-.77.593a1.861,1.861,0,0,1-.773-1.484c0-.576.344-.84.773-.6A1.864,1.864,0,0,1,91.943,79.911Zm3.337,3.431c-.247.355-.746.27-1.116-.188a1.341,1.341,0,0,1-.217-1.472c.247-.355.749-.27,1.116.188A1.342,1.342,0,0,1,95.28,83.342Zm2.241,4.527a1.343,1.343,0,0,1-1.166-.925c-.214-.546-.035-1.022.394-1.063a1.346,1.346,0,0,1,1.169.925C98.126,87.352,97.953,87.828,97.521,87.869ZM98.96,91.9c0,.488-.4.655-.9.367a1.853,1.853,0,0,1-.9-1.407c0-.494.4-.658.9-.373A1.854,1.854,0,0,1,98.96,91.9Z" transform="translate(-82.04 -75.616)" fill="#dad1d1"/>
          </g>
        </g>
      </g>
      <g id="Group_2306" data-name="Group 2306">
        <g id="Group_2299" data-name="Group 2299" transform="translate(140.028 51.864)">
          <path id="Path_6834" data-name="Path 6834" d="M129.261,72.948a.664.664,0,0,1-.273.517l-4.177,4.55-1.157-1.666,1.157-1.028,3.722-3.317.012.012A1.189,1.189,0,0,1,129.261,72.948Z" transform="translate(-123.653 -66.001)" fill="#575756"/>
          <path id="Path_6835" data-name="Path 6835" d="M128.5,70.255v6.084H128.5a.664.664,0,0,1-.273.517l-4.177,4.55V73.971Z" transform="translate(-122.89 -69.391)" fill="#615653"/>
          <path id="Path_6836" data-name="Path 6836" d="M124.807,75.968l4.177-4.544c.5-.4.311-1.022-.438-1.454l-.015-.009-4.879,4.345Z" transform="translate(-123.653 -69.961)" fill="#695d59"/>
        </g>
        <path id="Path_6837" data-name="Path 6837" d="M222.433,155.549a4.3,4.3,0,0,1-.073.57l-.305,1.586-.773,3.939-.079.376-.085.435a2.885,2.885,0,0,1-.094.358,2.442,2.442,0,0,1-.488.94,2.134,2.134,0,0,1-.341.332,1.711,1.711,0,0,1-.173.106,2,2,0,0,1-.705.247,3.045,3.045,0,0,1-1.648-.264l-2.882-1.237-2.576-1.484-.217-.123-.676-.4-.3-3.9-.2-2.509c-.414-5.305-4.1-11.3-8.507-13.842l-8.443-4.876c-4.468-2.582-8.172-.749-8.513,4.192l-.159,2.133-.247,3.584-23.718-13.7-5.238-3.023-22.728-13.122-.308-3.907-.2-2.5c-.414-5.305-4.1-11.307-8.5-13.848l-8.443-4.876c-4.459-2.57-8.175-.749-8.519,4.192l-.144,2.139-.253,3.584-1.977-1.143c-.006-.006-8.322-8.369-9.841-10.849-1.275-2.1-1.275-2.882-1.4-5.267,0,0,.217-4.2.247-4.859a6.039,6.039,0,0,1,.15-1.187l.035-.162.117-.538-.214-.123a2.1,2.1,0,0,1-.958-1.954l.629-2.6,1.231-5.156c.106-.455.5-.582.952-.32l.555.32.118-.532.188-.828c.035-.159,8.381-11.4,8.381-11.4a4.809,4.809,0,0,1,1-.984c.1-.065.156-.1.179-.123,1.78-1.166,4.283-1,6.942.535a497.628,497.628,0,0,1,52.3,30.19c2.926,2.218,4.16,3.258,5.978,6.225l12.764,20.02a14.938,14.938,0,0,0,1.522,1.874l29.585,25.542a13.482,13.482,0,0,1,4.03,6.36l.006.006v.018l2.755,9.729v0l.065.253a6.342,6.342,0,0,1,.159.9A5.516,5.516,0,0,1,222.433,155.549Z" transform="translate(-42.868 -52.178)" fill="#3e312c"/>
        <path id="Path_6838" data-name="Path 6838" d="M121.848,116.053l49.687-28.686a5.1,5.1,0,0,1-.071.573l-.308,1.58-.776,3.945-.073.37-.085.438c-.029.126-.059.247-.1.358a2.543,2.543,0,0,1-.485.94c-.109.126-.9.914-.961.946-8.613,9.609-28.2,18.683-49.381,28.263Z" transform="translate(8.031 15.078)" fill="#3e312c"/>
        <path id="Path_6839" data-name="Path 6839" d="M107.7,101.153c21.773-8.957,39.869-18.337,49.681-28.683l29.582,25.542a13.476,13.476,0,0,1,4.033,6.357l0,.006.006.018,2.752,9.729,0,.006.068.253a7.073,7.073,0,0,1,.159.9,5.261,5.261,0,0,1,.038.952c-10.781,11.263-28.5,20.484-49.687,28.686Z" transform="translate(-14.45 -13.787)" fill="#615653"/>
        <path id="Path_6840" data-name="Path 6840" d="M209.475,111.785c-6.016,8.407-14.236,15.132-24.564,20.231a107.164,107.164,0,0,1-25.117,8.451,13.972,13.972,0,0,1-1.522-1.874L145.5,118.583c-1.813-2.973-3.049-4.01-5.978-6.231a495.5,495.5,0,0,0-52.3-30.19c-2.412-1.4-4.7-1.657-6.422-.828,5.111-2.935,45.871-26.294,48.982-28.269.1-.065.156-.1.179-.123,1.78-1.166,4.283-1,6.942.535a497.629,497.629,0,0,1,52.3,30.19c2.926,2.218,4.16,3.258,5.978,6.225l12.764,20.02A14.938,14.938,0,0,0,209.475,111.785Z" transform="translate(-67.028 -52.178)" fill="#695d59"/>
        <path id="Path_6841" data-name="Path 6841" d="M164.277,87.123a63.744,63.744,0,0,1-23.157,18.633,104.934,104.934,0,0,1-23.774,8.114,12.107,12.107,0,0,1-.729-.969l-1.892-2.967L103.871,92.928c-.291-.476-.57-.914-.846-1.31,17.7-5.117,38.01-15.5,47-26.665.223.32.447.673.687,1.063l10.658,16.712,2.124,3.328C163.739,86.427,164,86.779,164.277,87.123Z" transform="translate(-23.658 -27.803)" fill="#8fd1cf"/>
        <path id="Path_6842" data-name="Path 6842" d="M145.334,85.417l-2.121-3.328-10.52-16.495c-4.976,5.681-12.5,10.937-20.786,15.364a64.837,64.837,0,0,1,29.314,9.964,56.4,56.4,0,0,0,4.439-5.041C145.551,85.731,145.443,85.578,145.334,85.417Z" transform="translate(-6.423 -26.499)" fill="#fff" opacity="0.5"/>
        <g id="Group_2301" data-name="Group 2301" transform="translate(0 27.759)">
          <path id="Path_6843" data-name="Path 6843" d="M205.006,165.311a4.266,4.266,0,0,1-.068.57l-.311,1.586-.773,3.945-.073.37-.085.438a3.207,3.207,0,0,1-.094.358c-.449,1.5-1.754,2.042-3.355,1.36l-2.888-1.24-2.782-1.6-.681-.4-.308-3.9-.2-2.509c-.414-5.305-4.1-11.3-8.5-13.842l-8.443-4.876c-4.468-2.573-8.178-.749-8.519,4.192l-.153,2.136-.247,3.581-51.69-29.843-.308-3.9-.194-2.506c-.414-5.308-4.1-11.3-8.5-13.845L98.388,100.5c-4.465-2.579-8.178-.755-8.519,4.189l-.144,2.139-.253,3.581-1.983-1.149-.056-.056-6.895-7.32c-.247-.247-.488-.505-.717-.773A15.732,15.732,0,0,1,77.913,98.3a14.729,14.729,0,0,1-1.533-4.286l.273-3.64A9.2,9.2,0,0,1,76.5,88.3a6.343,6.343,0,0,1,.144-1.193l.035-.162.123-.538.8-3.587L79,76.575l.117-.532.185-.828c.035-.159,8.387-11.4,8.387-11.4a4.813,4.813,0,0,1,1.175-1.107l.012-.006a.315.315,0,0,1,.062-.038A.211.211,0,0,1,89,62.63a2.116,2.116,0,0,1,.264-.15,1.277,1.277,0,0,1,.126-.068c1.724-.828,4.01-.567,6.422.828a495.5,495.5,0,0,1,52.3,30.19c2.929,2.221,4.165,3.258,5.978,6.231l12.77,20.011a13.964,13.964,0,0,0,1.522,1.874l29.585,25.542a13.542,13.542,0,0,1,4.03,6.36v.006l.006.023,2.753,9.729c.024.088.047.173.068.256a7.025,7.025,0,0,1,.159.9A4.555,4.555,0,0,1,205.006,165.311Z" transform="translate(-75.608 -61.943)" fill="#514845"/>
          <path id="Path_6844" data-name="Path 6844" d="M123.485,94.2l-10.7-16.765-.056-.091a12.438,12.438,0,0,0-2.885-3.475,76.227,76.227,0,0,0-12.737,36.179l26.38,15.231c1.11.64,2.009.12,2.009-1.163V100.432A12.091,12.091,0,0,0,123.485,94.2Z" transform="translate(-35.439 -38.828)" fill="#617877"/>
          <path id="Path_6845" data-name="Path 6845" d="M110.611,79.18c-4.254-2.835-8.854-5.769-13.633-8.7-.737-.452-1.348-.12-1.348.731l0,40.982a4.444,4.444,0,0,0,2.012,3.481l2.35,1.357a76.227,76.227,0,0,1,12.737-36.179C112.168,80.372,111.489,79.847,110.611,79.18Z" transform="translate(-38.317 -45.803)" fill="#526665"/>
          <path id="Path_6846" data-name="Path 6846" d="M116.615,104.647l2.788,1.607,2.888,1.237c1.6.684,2.905.138,3.355-1.357a2.507,2.507,0,0,0,.088-.361l.085-.435.076-.373.773-3.945.311-1.58a5.034,5.034,0,0,0,.07-.57l-3.223-1.862c-2.529-1.457-4.753-.808-5.452,1.6Z" transform="translate(2.351 4.502)" fill="#3e312c"/>
          <path id="Path_6847" data-name="Path 6847" d="M76.338,75.771c.123,2.388.123,3.17,1.4,5.267,1.516,2.488,9.832,10.846,9.832,10.846l-.964-9.668a14.231,14.231,0,0,0-6.148-9.062l-3.878-2.238C76.552,71.564,76.338,75.771,76.338,75.771Z" transform="translate(-75.689 -44.559)" fill="#3e312c"/>
          <path id="Path_6848" data-name="Path 6848" d="M76.483,77.647l.441.256c.635.364,1.184.185,1.334-.441l1.918-8.046a2.3,2.3,0,0,0-.256-1.5,2.867,2.867,0,0,0-1-1.175Z" transform="translate(-75.408 -52.643)" fill="#3e312c"/>
          <path id="Path_6849" data-name="Path 6849" d="M76.766,68.679,79.1,70.571l-.643,2.7c-.094.382-.432.5-.823.27l-.532-.308a2.063,2.063,0,0,1-.955-1.954Z" transform="translate(-76.117 -48.891)" fill="#f2b345"/>
          <path id="Path_6850" data-name="Path 6850" d="M77.572,67.218c.106-.447.5-.576.955-.314l.6.347a1.781,1.781,0,0,1,.82,1.677L78.67,74.271l-2.332-1.892Z" transform="translate(-75.689 -52.592)" fill="#c2481e"/>
          <path id="Path_6851" data-name="Path 6851" d="M94.487,65.892c4.636,2.424,6.991,3.948,11.368,6.474,2.6,1.5,5.185,3.026,7.732,4.556a3.4,3.4,0,0,1,1.5,2.644v41.5c0,.917-.643,1.29-1.439.831l-11.336-6.545A2.944,2.944,0,0,1,101,113.219l-.009-.132c-.517-6.607-5.106-14.077-10.593-17.247l-1.7-.981a8.485,8.485,0,0,1-3.839-6.651V79.437S89.575,63.324,94.487,65.892Z" transform="translate(-59.177 -54.829)" fill="#615653"/>
          <g id="Group_2300" data-name="Group 2300" transform="translate(9.211 2.686)">
            <path id="Path_6852" data-name="Path 6852" d="M90.284,78.86,80.059,72.685c-.629-.379-1.011-1.389-.69-1.83,1.539-2.142,3.281-4.662,4.829-6.527,1.886-2.274,3.478-2.233,11.548,2.429a1.632,1.632,0,0,1,.749,1.783c-1.475,2.838-3.933,7.018-5.437,10.2C90.925,79.016,90.619,79.063,90.284,78.86Z" transform="translate(-79.253 -62.857)" fill="#8fd1cf"/>
            <path id="Path_6853" data-name="Path 6853" d="M89.859,66.956c-3.51-2.03-6.219-3.443-7.858-3.7a34.229,34.229,0,0,1,.682,12.153l2.353,1.425c.922-1.877,2.112-4.033,3.176-5.96.705-1.275,1.369-2.479,1.907-3.51A.778.778,0,0,0,89.859,66.956Z" transform="translate(-73.927 -62.087)" fill="#fff" opacity="0.5"/>
          </g>
          <path id="Path_6854" data-name="Path 6854" d="M86.448,77.538l24.834,14.979c.429.259.781.062.781-.432V78.455a1.424,1.424,0,0,0-.817-1.5c-1.669-.981-2.664-1.6-4.33-2.576q-1.348-.793-2.691-1.566c-1.313-.758-2.447-1.428-3.513-2.056-.94-.555-1.827-1.081-2.744-1.61-1.724-.993-3.281-1.848-5.047-2.776a1.29,1.29,0,0,0-.9-.112c-1.939.414-4.412,4.662-6.281,9.7A1.558,1.558,0,0,0,86.448,77.538Z" transform="translate(-57.548 -53.655)" fill="#8fd1cf"/>
          <path id="Path_6855" data-name="Path 6855" d="M103,75.754a1.231,1.231,0,0,0-.032-.37.811.811,0,0,0-.235-.17c-.776-.455-1.4-.834-2.024-1.207-.714-.426-1.41-.846-2.3-1.366s-1.795-1.049-2.682-1.563c-1.107-.637-2.083-1.213-3-1.754l-.64-.376c-.776-.458-1.522-.9-2.277-1.334A53.487,53.487,0,0,1,96.06,84.123L103,88.3Z" transform="translate(-49.599 -50.955)" fill="#fff" opacity="0.5"/>
          <path id="Path_6856" data-name="Path 6856" d="M77.552,75.278q.348.405.714.776l6.953,7.376L87.2,84.575l.25-3.584Z" transform="translate(-73.337 -36.105)" fill="#3e312c"/>
          <path id="Path_6857" data-name="Path 6857" d="M86.28,72.864,91.095,75.8c.214.129.391.032.391-.214V74.5a.845.845,0,0,0-.37-.652L86.3,70.919c-.214-.132-.391-.035-.391.212v1.081A.845.845,0,0,0,86.28,72.864Z" transform="translate(-57.142 -44.666)" fill="#fff"/>
          <path id="Path_6858" data-name="Path 6858" d="M89.707,82.3l.308,3.9,51.69,29.843.248-3.583Z" transform="translate(-49.784 -22.508)" fill="#3e312c"/>
          <path id="Path_6859" data-name="Path 6859" d="M116.279,97.636l.306,3.9,3.469,2,2.888,1.237c1.6.684,2.905.138,3.355-1.357Z" transform="translate(1.7 7.216)" fill="#3e312c"/>
        </g>
        <g id="Group_2302" data-name="Group 2302" transform="translate(91.082 53.994)" opacity="0.2">
          <path id="Path_6860" data-name="Path 6860" d="M128.256,73.751a3.852,3.852,0,0,0-3.775-3.035,5.853,5.853,0,0,0-2.917.872A12.847,12.847,0,0,0,115.671,81.8c0,.135.006.264.012.391.138,2.7,1.713,4.486,4,4.486a5.9,5.9,0,0,0,2.923-.875A12.857,12.857,0,0,0,128.5,75.592,6.56,6.56,0,0,0,128.256,73.751ZM121.564,84a3.886,3.886,0,0,1-1.88.593c-1.745,0-1.936-1.954-1.936-2.794a6.429,6.429,0,0,1,.056-.846,11.061,11.061,0,0,1,4.8-7.561,3.849,3.849,0,0,1,1.874-.6,1.793,1.793,0,0,1,1.774,1.51,4.874,4.874,0,0,1,.165,1.29A10.91,10.91,0,0,1,121.564,84Z" transform="translate(-90.223 -70.716)" fill="#3c3c3b"/>
          <path id="Path_6861" data-name="Path 6861" d="M156.559,75.4A63.744,63.744,0,0,1,133.4,94.032a104.934,104.934,0,0,1-23.774,8.114,12.1,12.1,0,0,1-.729-.969l-1.892-2.967c8.924-6.3,17.561-11.93,25.46-16.577.717-.423,1.422-.837,2.121-1.237.056-.038.112-.068.167-.1a18.058,18.058,0,0,1,8.284-6.551,11.2,11.2,0,0,1,2-.552,6.964,6.964,0,0,1,3.117.062c1.674-.784,3.969-1.642,5.49-2.25l2.124,3.328C156.022,74.7,156.286,75.055,156.559,75.4Z" transform="translate(-107.008 -70.158)" fill="#575756"/>
        </g>
        <path id="Path_6862" data-name="Path 6862" d="M85.892,60.057a.777.777,0,0,0,0,1.472l57.727,33.33a2.825,2.825,0,0,0,2.55,0h0a.777.777,0,0,0,0-1.472L88.442,60.057a2.825,2.825,0,0,0-2.55,0Z" transform="translate(-58.086 -37.697)" fill="#514845"/>
        <path id="Path_6863" data-name="Path 6863" d="M96.344,54.013a.776.776,0,0,0,0,1.472l57.674,33.421a2.819,2.819,0,0,0,2.547,0h0a.776.776,0,0,0,0-1.472L98.891,54.015a2.819,2.819,0,0,0-2.547,0Z" transform="translate(-37.717 -49.209)" fill="#514845"/>
        <g id="Group_2303" data-name="Group 2303" transform="translate(105.643 66.611)">
          <path id="Path_6864" data-name="Path 6864" d="M170.9,104.524a72.092,72.092,0,0,1-22.981,13.739,11.529,11.529,0,0,1-8.728-.258L112.319,97.668l37.919-22.1L170.63,99.321C172.6,100.814,172.737,102.926,170.9,104.524Z" transform="translate(-111.135 -74.117)" fill="#fff" opacity="0.2"/>
          <path id="Path_6865" data-name="Path 6865" d="M171.191,103.783a71.427,71.427,0,0,1-22.76,13.607,11.43,11.43,0,0,1-8.651-.256L111.916,97.8l38.809-22.728,20.2,23.551C172.877,100.105,173.009,102.2,171.191,103.783Z" transform="translate(-111.916 -75.074)" fill="#615653"/>
        </g>
        <path id="Path_6866" data-name="Path 6866" d="M127.379,96.061,81.973,68.215a2.173,2.173,0,0,0-3.129.984,8.072,8.072,0,0,0-.593,2.62,2.147,2.147,0,0,0,1.877,2.268c9.142,1.193,26.9,11.8,47.251,23.933Z" transform="translate(-71.994 -22.113)" fill="#fff" opacity="0.1"/>
        <path id="Path_6867" data-name="Path 6867" d="M92.176,62.254l15.9-8.648a6.57,6.57,0,0,1,6.007-.132l26.045,12.7C122.325,57.866,105.818,54.546,92.176,62.254Z" transform="translate(-44.829 -50.95)" fill="#fff" opacity="0.1"/>
        <path id="Path_6868" data-name="Path 6868" d="M135.025,99.232a69.387,69.387,0,0,1-11.971,5.258,1.262,1.262,0,0,1-1.915-.855l-1.087-3.54a2.327,2.327,0,0,1,.864-2.562,76.134,76.134,0,0,0,11.968-5.261,1.264,1.264,0,0,1,1.915.855l1.09,3.54A2.336,2.336,0,0,1,135.025,99.232Z" transform="translate(9.203 24.193)" fill="#ffb"/>
        <path id="Path_6869" data-name="Path 6869" d="M142.973,91.868a41.943,41.943,0,0,1-7.226,6.034c-.614.637-1.3.438-1.536-.444l-.875-3.308a3.2,3.2,0,0,1,.693-2.75,46.29,46.29,0,0,0,7.226-6.034c.617-.637,1.307-.438,1.539.444l.875,3.308A3.2,3.2,0,0,1,142.973,91.868Z" transform="translate(35.079 10.707)" fill="#ffb"/>
        <path id="Path_6870" data-name="Path 6870" d="M128.962,73.279a39.853,39.853,0,0,1-6.6,7.362c8.572-2.4,21.709,5.355,28.6,11.254Z" transform="translate(13.965 -11.762)" fill="#fff" opacity="0.1"/>
        <path id="Path_6871" data-name="Path 6871" d="M146.264,95.721a104.5,104.5,0,0,1-17.035,9.577,1.1,1.1,0,0,1-1.416-.464.969.969,0,0,1-.1-.241l-1.724-6.063a1.076,1.076,0,0,1,.617-1.287,99.967,99.967,0,0,0,17.223-9.394,1.4,1.4,0,0,1,.129-.071.742.742,0,0,1,1.008.464l1.8,5.972A1.371,1.371,0,0,1,146.264,95.721Z" transform="translate(20.913 15.754)" fill="#514845"/>
        <path id="Path_6872" data-name="Path 6872" d="M145.232,95.119A105.181,105.181,0,0,1,128.2,104.7a1.1,1.1,0,0,1-.388.094.969.969,0,0,1-.1-.241l-1.724-6.063a1.076,1.076,0,0,1,.617-1.287,99.966,99.966,0,0,0,17.223-9.394,1.4,1.4,0,0,1,.129-.071l1.774,5.878A1.372,1.372,0,0,1,145.232,95.119Z" transform="translate(20.913 15.795)" fill="#3e312c"/>
        <g id="Group_2304" data-name="Group 2304" transform="translate(52.42 71.126)">
          <path id="Path_6873" data-name="Path 6873" d="M129.39,90.363,117.04,79.776l-.065-.062c-1.61-1.478-2.482-1.739-5.772-2.256-4.915-.379-10.226-.658-15.746-.831a1.511,1.511,0,0,0-1.557,1.51v40.982a2.322,2.322,0,0,0,2.321,2.321H129.4a2.322,2.322,0,0,0,2.321-2.321V95.427A6.676,6.676,0,0,0,129.39,90.363Zm-26.958,7.385a.44.44,0,0,1-.449.441l-5.561-.156A.436.436,0,0,1,96,97.6V96.514a.436.436,0,0,1,.449-.438l5.561.153a.436.436,0,0,1,.426.438Zm26.415-3.22-32.34-.72a1.013,1.013,0,0,1-.99-1.013V78.977a.712.712,0,0,1,.731-.708c5.205.173,10.173.441,14.77.8,3.1.488,3.6.682,4.865,1.842l.065.059,12.391,10.625a4.962,4.962,0,0,1,1.31,1.742A.854.854,0,0,1,128.847,94.528Z" transform="translate(-93.901 -76.626)" fill="#615653"/>
          <path id="Path_6874" data-name="Path 6874" d="M100.624,83.4l-5.561-.153a.436.436,0,0,0-.449.438v1.081a.436.436,0,0,0,.426.438l5.561.156a.44.44,0,0,0,.449-.441V83.838A.436.436,0,0,0,100.624,83.4Z" transform="translate(-92.519 -63.797)" fill="#fff"/>
          <path id="Path_6875" data-name="Path 6875" d="M128.583,92.249a4.961,4.961,0,0,0-1.31-1.742L114.882,79.882l-.065-.059c-1.26-1.16-1.768-1.354-4.865-1.842-4.6-.355-9.565-.623-14.77-.8a.712.712,0,0,0-.731.708V91.712a1.013,1.013,0,0,0,.99,1.013l32.34.72A.854.854,0,0,0,128.583,92.249Z" transform="translate(-92.835 -75.542)" fill="#8fd1cf" opacity="0.5"/>
          <path id="Path_6876" data-name="Path 6876" d="M105.749,79.567l-.056-.053c-1.022-.94-1.272-1.084-4.239-1.551-.878-.068-1.777-.132-2.685-.194a21.682,21.682,0,0,1,6.16,13.1l14.059.311a3.829,3.829,0,0,0-.811-.958Z" transform="translate(-84.469 -74.411)" fill="#fff" opacity="0.5"/>
        </g>
        <g id="Group_2305" data-name="Group 2305" transform="translate(86.477 87.307)">
          <path id="Path_6877" data-name="Path 6877" d="M108.789,88.613l-1.88,2.288c-.22.308-1.19.5-1.431.029l0-.006V84.471l3.314-2.312Z" transform="translate(-105.475 -82.012)" fill="#514845"/>
          <path id="Path_6878" data-name="Path 6878" d="M108.789,82.256l-1.88,2.35c-.22.311-1.19.435-1.431-.029l0-.009,1.821-2.459Z" transform="translate(-105.475 -82.109)" fill="#695d59"/>
        </g>
      </g>
    </g>
    <g id="Group_2314" data-name="Group 2314" transform="translate(1270.406 921.684)">
      <path id="Path_6879" data-name="Path 6879" d="M95.537,79.492a1.27,1.27,0,0,1-.329.585A16.143,16.143,0,0,0,93.686,81.6c.159-.256-.288-.129-.232-.423.167-.9,1.774-3.084,2.659-3.311Z" transform="translate(-67.276 -60.222)" fill="#ffd2a1"/>
      <path id="Path_6880" data-name="Path 6880" d="M93.6,80.619a.928.928,0,0,0,.162.94c.276.247.643.787,1.016.79.579.006,1.392-.144,1.968-.2.717-.07,1.058-.523,1.6-1a2.065,2.065,0,0,0,.429-.517c.059-.15.012-.388-.182-.388a1.288,1.288,0,0,0,.42-.344c.123-.17.021-.461-.176-.461.162-.053.4-.353.335-.511-.094-.238-.264-.209-.479-.164a.426.426,0,0,0,.126-.541c-.126-.253-.711.073-.846.15-.264.147-.588.256-.852.4a2.6,2.6,0,0,1-.626.279,6.718,6.718,0,0,1-1.063.056A2.154,2.154,0,0,0,93.6,80.619Z" transform="translate(-67.084 -59.701)" fill="#ffd2a1"/>
      <g id="Group_2310" data-name="Group 2310" transform="translate(0 34.019)">
        <g id="Group_2308" data-name="Group 2308">
          <path id="Path_6881" data-name="Path 6881" d="M85.349,83.454a1.752,1.752,0,0,1,1.66.705,2.07,2.07,0,0,1,.285,1.757,2.412,2.412,0,0,0-.068.99c.091.4.485.864.344,1.248a.448.448,0,0,1-.825.068A3.312,3.312,0,0,1,86.21,87c-.147-.311-.535-.505-.693-.811a2.069,2.069,0,0,1-.135-1.284Z" transform="translate(-82.998 -83.437)" fill="#ffd2a1"/>
          <path id="Path_6882" data-name="Path 6882" d="M84.885,88.229c-.261.558-.153,1.131.267,1.154-.1.376.311.952.761.652.112.391.823.1,1.046-.261.347-.552.388-.579.488-.743a4.824,4.824,0,0,0,.467-1.154,3.4,3.4,0,0,0,.156-1.26c-.085-1.134,0-2.274-.708-3.164a1.853,1.853,0,0,0-1.642.614,2.23,2.23,0,0,0-.579,1.651,2.758,2.758,0,0,1-.405,1.472C84.309,87.979,84.682,88.385,84.885,88.229Z" transform="translate(-84.539 -83.433)" fill="#ffd2a1"/>
        </g>
        <g id="Group_2309" data-name="Group 2309">
          <path id="Path_6883" data-name="Path 6883" d="M85.349,83.454a1.752,1.752,0,0,1,1.66.705,2.07,2.07,0,0,1,.285,1.757,2.412,2.412,0,0,0-.068.99c.091.4.485.864.344,1.248a.448.448,0,0,1-.825.068A3.312,3.312,0,0,1,86.21,87c-.147-.311-.535-.505-.693-.811a2.069,2.069,0,0,1-.135-1.284Z" transform="translate(-82.998 -83.437)" fill="#ffd2a1"/>
          <path id="Path_6884" data-name="Path 6884" d="M84.885,88.229c-.261.558-.153,1.131.267,1.154-.1.376.311.952.761.652.112.391.823.1,1.046-.261.347-.552.388-.579.488-.743a4.824,4.824,0,0,0,.467-1.154,3.4,3.4,0,0,0,.156-1.26c-.085-1.134,0-2.274-.708-3.164a1.853,1.853,0,0,0-1.642.614,2.23,2.23,0,0,0-.579,1.651,2.758,2.758,0,0,1-.405,1.472C84.309,87.979,84.682,88.385,84.885,88.229Z" transform="translate(-84.539 -83.433)" fill="#ffd2a1"/>
        </g>
      </g>
      <path id="Path_6885" data-name="Path 6885" d="M85.081,92.2c.026.529,2.186.755,2.7.449a66.387,66.387,0,0,0,1.3-7.591c.247-1.857.417-3.531.564-4.339.05-.338.085-.526.085-.526a.326.326,0,0,0-.1-.247,1.765,1.765,0,0,0-.731-.417,2.944,2.944,0,0,0-.494-.144c-1.419-.373-3.161-.432-3.29.561C84.884,91.455,85.019,90.662,85.081,92.2Z" transform="translate(-83.678 -57.749)" fill="#f9b233"/>
      <path id="Path_6886" data-name="Path 6886" d="M92.983,75.719c-1.4-.655-3.425.955-4.083,2.353l-3.863,8.669c.306,1.6,3.631,1.625,4.395,1.51,1.275-2.329,4.656-8.942,4.656-8.942A2.565,2.565,0,0,0,92.983,75.719Z" transform="translate(-83.575 -64.665)" fill="#f9b233"/>
      <g id="Group_2312" data-name="Group 2312" transform="translate(1.497 33.731)">
        <g id="Group_2311" data-name="Group 2311" transform="translate(9.993 39.727)">
          <path id="Path_6887" data-name="Path 6887" d="M96.929,97.752a.932.932,0,0,1,0,1.765l-4.788,2.764a3.373,3.373,0,0,1-3.055,0h0a.931.931,0,0,1,0-1.765l4.788-2.764a3.373,3.373,0,0,1,3.055,0Z" transform="translate(-88.451 -95.849)" fill="#1d1715"/>
          <path id="Path_6888" data-name="Path 6888" d="M88.451,96.863l4.556,1.046c2.723-.72,4.556.141,4.556,1.7l-9.112,2.741Z" transform="translate(-88.451 -96.863)" fill="#1d1715"/>
        </g>
        <path id="Path_6889" data-name="Path 6889" d="M85.144,100.232l-.012,0,.414-5.214,4.142.778c2.723-.72,4.556.138,4.556,1.695l-.009,0a1.045,1.045,0,0,1-.626.925l-4.785,2.764a3.4,3.4,0,0,1-3.058,0A1.03,1.03,0,0,1,85.144,100.232Z" transform="translate(-84.888 -60.705)" fill="#1d1715"/>
        <path id="Path_6890" data-name="Path 6890" d="M85.9,83.339l.076,2.151.629,16.754,6.5.085v-.162l.076-5.355.043-3.3.068-4.871.026-2.006.026-1.87Z" transform="translate(-83.399 -83.339)" fill="#23839a"/>
        <path id="Path_6891" data-name="Path 6891" d="M85.069,109.827c.714-6.078,2.814-16.724,3.187-17.323.426-.679.144-2.861.834-3.267a4.464,4.464,0,0,1,3.2-.8c1.322.329,2.309,2.635,2.468,3.986s-3.314,17.825-3.314,17.825C90.871,112.988,84.649,112.712,85.069,109.827Z" transform="translate(-85.049 -73.6)" fill="#23839a"/>
        <path id="Path_6892" data-name="Path 6892" d="M87.164,86.365c2.071,2.606,2.782,6.275,3.5,9.938l.117-8.651A5.729,5.729,0,0,1,87.164,86.365Z" transform="translate(-80.951 -77.477)" fill="#1d1d1b" opacity="0.2"/>
        <path id="Path_6893" data-name="Path 6893" d="M87.832,83.71l.311,4.037,1.3,8.347,1.462,9.4,6.613-.578L95.393,86.591l-.136-1.173L89.6,84.05Z" transform="translate(-79.657 -82.622)" fill="#23839a"/>
        <path id="Path_6894" data-name="Path 6894" d="M89.975,93.119c.367-.711.132-1.478.79-1.933a4.449,4.449,0,0,1,3.126-1.055A3.31,3.31,0,0,1,96.608,92.7c.267,1.337-1.072,16.727-1.419,18.983s-7.153,3.948-6.868.4l.006-.308A120.648,120.648,0,0,1,89.975,93.119Z" transform="translate(-78.727 -70.245)" fill="#23839a"/>
      </g>
      <path id="Path_6895" data-name="Path 6895" d="M102.073,83.092s-.159,1.428-.394,3.487c-.467,4.092-1.216,10.684-1.513,13.469a3.345,3.345,0,0,1-1.181,2.262,9.251,9.251,0,0,1-4.615,2.074c-4.794.652-9.124-2.935-8.686-6.26l1-15.343A14.723,14.723,0,0,1,86.883,81c1.063-6.507,5-6.325,9.233-3.992A13.24,13.24,0,0,1,102.073,83.092Z" transform="translate(-82.381 -64.741)" fill="#c2481e"/>
      <g id="Group_2313" data-name="Group 2313" transform="translate(9.73)">
        <path id="Path_6896" data-name="Path 6896" d="M88.829,77.144a13.864,13.864,0,0,0-.109,2.365,4.619,4.619,0,0,0,.693,2.241A3.5,3.5,0,0,0,91.57,83.2a3.261,3.261,0,0,0,.828.076,1.9,1.9,0,0,0,.808-.185,2.117,2.117,0,0,0,.852-.952l0,0c.044-.088.088-.176.129-.261a19.454,19.454,0,0,0,1.616-6.469,3.875,3.875,0,0,0,.006-.993,2.677,2.677,0,0,0-1.948-2,5.223,5.223,0,0,0-2.9.141,2.508,2.508,0,0,0-.74.317c-.209.147-.376.347-.576.511A14.619,14.619,0,0,0,88.829,77.144Z" transform="translate(-86.201 -71.058)" fill="#ffd2a1"/>
        <path id="Path_6897" data-name="Path 6897" d="M89.866,76.559c-.076.47-.141.943-.2,1.416a.764.764,0,0,0,0,.306.378.378,0,0,0,.076.144,3.261,3.261,0,0,0,.828.076,1.9,1.9,0,0,0,.808-.185,2.117,2.117,0,0,0,.852-.952l0,0c-1.046.729-1.507-.109-1.325-2.626C90.568,75.875,90.054,75.387,89.866,76.559Z" transform="translate(-84.372 -66.28)" fill="#21211f" opacity="0.1"/>
        <rect id="Rectangle_274" data-name="Rectangle 274" width="7.149" height="5.523" transform="translate(0.292 12.54) rotate(-80.964)" fill="#ffd2a1"/>
        <path id="Path_6898" data-name="Path 6898" d="M88.943,75.863a1.193,1.193,0,0,0-.355,2.233,4.324,4.324,0,0,0,3.866.614,1.193,1.193,0,0,0,.355-2.233A4.322,4.322,0,0,0,88.943,75.863Z" transform="translate(-87.655 -64.509)" fill="#ffd2a1"/>
        <path id="Path_6899" data-name="Path 6899" d="M96.216,76.742a2.813,2.813,0,0,0-1.61,2.065c-.232.911-.244,1.868-.473,2.779s-.717,1.146-1.657,1.187c-.658.029-4-.523-4.168-1.366-2.188-10.5,4.16-9.562,4.944-9.506,2.77.2,5.831,2.435,4.2,4.38C97.2,76.581,96.516,76.625,96.216,76.742Z" transform="translate(-87.852 -71.857)" fill="#1d1715"/>
        <path id="Path_6900" data-name="Path 6900" d="M90.7,74.01a.75.75,0,0,1,.523.646,2.937,2.937,0,0,1-.065,1.037,2.706,2.706,0,0,1-.444,1.24.506.506,0,0,1-.291.206.484.484,0,0,1-.482-.247,1.053,1.053,0,0,1-.12-.523,6.928,6.928,0,0,1,.1-1.542,1.34,1.34,0,0,1,.211-.576A.594.594,0,0,1,90.7,74.01Z" transform="translate(-84.056 -67.7)" fill="#ffd2a1"/>
      </g>
      <path id="Path_6901" data-name="Path 6901" d="M87.849,76.617a1.212,1.212,0,0,0,.059,1.193,2.961,2.961,0,0,0,1.342,1.222,4.969,4.969,0,0,0,1.783.435A3.861,3.861,0,0,0,94.3,78.386a10.678,10.678,0,0,1-.308-1.157,6.992,6.992,0,0,1-3.378.253,3.092,3.092,0,0,1-1.466-.5,1.267,1.267,0,0,1-.5-1.375A2.485,2.485,0,0,0,87.849,76.617Z" transform="translate(-78.377 -64.597)" fill="#f9b233"/>
      <path id="Path_6902" data-name="Path 6902" d="M95.93,80.483c-.467,4.092-1.216,10.684-1.513,13.469a3.345,3.345,0,0,1-1.181,2.262,9.251,9.251,0,0,1-4.615,2.074c4.506-4.218,3.754-11.418,2.65-19.553l4.606-.059Z" transform="translate(-76.631 -58.644)" fill="#21211f" opacity="0.1"/>
      <path id="Path_6903" data-name="Path 6903" d="M95.949,88.55l-1.022-8.378-.032-.232a2.706,2.706,0,0,0-5.352.8l1.5,7.967c.329,1.354.761,2.788,2.244,2.6S96.137,90.031,95.949,88.55Z" transform="translate(-74.903 -60.655)" fill="#ffbd49"/>
      <path id="Path_6904" data-name="Path 6904" d="M99.712,78.882,91.2,84.916a2.69,2.69,0,0,0,3.416,4.157l6.7-7.415C101.918,79.954,100.637,78.55,99.712,78.882Z" transform="translate(-73.539 -58.34)" fill="#ffbd49"/>
    </g>
    <ellipse id="Ellipse_141-2" data-name="Ellipse 141" cx="15.624" cy="9.02" rx="15.624" ry="9.02" transform="translate(1444.321 986.221)" fill="#1b1b1a" opacity="0.5" style="isolation: isolate"/>
    <g id="Group_2286-2" data-name="Group 2286" transform="translate(1424.98 911.919)" opacity="0.5">
      <path id="Path_6815-2" data-name="Path 6815" d="M1222.88,534.161l112.814,64.58a16.416,16.416,0,0,0,14.651,0l45.719-25.422c4.544-2.594,4.544-6.835,0-9.427l-112.819-64.583a16.414,16.414,0,0,0-14.651,0l-45.714,25.425C1218.336,527.325,1218.336,531.568,1222.88,534.161Z" transform="translate(-1219.472 -497.584)" fill="#1b1b1a"/>
    </g>
    <g id="Group_2307-2" data-name="Group 2307" transform="translate(1425.201 864.801)">
      <path id="Path_6816-2" data-name="Path 6816" d="M1269.567,506.817,1233.75,527.5V509.652l35.816-20.678Z" transform="translate(-1219.905 -450.674)" fill="#362b27"/>
      <path id="Path_6817-2" data-name="Path 6817" d="M1348.8,552.557l-35.817,20.679V555.392l35.817-20.678Z" transform="translate(-1220.774 -451.743)" fill="#362b27"/>
      <g id="Group_2292-2" data-name="Group 2292" transform="translate(94.479 105.714)">
        <rect id="Rectangle_272-2" data-name="Rectangle 272" width="10.973" height="36.477" transform="translate(4.075 6.125) rotate(-30.001)" fill="#1b1715"/>
        <path id="Path_6818-2" data-name="Path 6818" d="M1324.84,567.227c.009,8.231,5.79,18.234,12.917,22.341s12.9.761,12.89-7.471-5.787-18.231-12.914-22.338S1324.834,559,1324.84,567.227Z" transform="translate(-1315.422 -558.004)" fill="#1b1715"/>
        <g id="Group_2291-2" data-name="Group 2291" transform="translate(0 5.437)">
          <path id="Path_6819-2" data-name="Path 6819" d="M1335.184,584.287a15.27,15.27,0,0,0-6.909-11.968c-3.816-2.2-6.909-.414-6.909,3.989a15.27,15.27,0,0,0,6.909,11.968C1332.092,590.479,1335.184,588.693,1335.184,584.287Z" transform="translate(-1315.37 -563.639)" fill="#1b1715"/>
          <path id="Path_6820-2" data-name="Path 6820" d="M1341.086,587.616c-.006-8.231-5.787-18.231-12.911-22.338s-12.906-.763-12.9,7.468,5.79,18.234,12.917,22.341S1341.092,595.847,1341.086,587.616Zm-4.958-2.857c0,5.071-3.552,7.13-7.935,4.6a17.568,17.568,0,0,1-7.952-13.757c0-5.071,3.547-7.124,7.938-4.595a17.545,17.545,0,0,1,7.949,13.75Z" transform="translate(-1315.28 -563.523)" fill="#1b1715"/>
          <g id="Group_2290-2" data-name="Group 2290" transform="translate(3.767 4.861)">
            <path id="Path_6821-2" data-name="Path 6821" d="M1337.381,585.522c-.006-5.828-4.1-12.914-9.147-15.822s-9.133-.541-9.13,5.287,4.1,12.917,9.147,15.825S1337.384,591.35,1337.381,585.522Zm-.985-.569c0,5.2-3.645,7.312-8.141,4.721s-8.154-8.913-8.157-14.116,3.639-7.312,8.14-4.715,8.143,8.909,8.152,14.109Z" transform="translate(-1319.104 -568.457)" fill="#d4d4d4"/>
            <path id="Path_6822-2" data-name="Path 6822" d="M1333.894,583.552a12.383,12.383,0,0,0-5.6-9.7c-3.094-1.78-5.6-.329-5.6,3.246a12.381,12.381,0,0,0,5.608,9.7C1331.391,588.578,1333.9,587.127,1333.894,583.552Zm-2.077-1.2c0,2.247-1.576,3.158-3.519,2.035a7.78,7.78,0,0,1-3.525-6.092c0-2.247,1.576-3.161,3.519-2.041a7.8,7.8,0,0,1,3.524,6.1Z" transform="translate(-1319.157 -568.526)" fill="#e9e9e9"/>
            <g id="Group_2289-2" data-name="Group 2289" transform="translate(5.615 7.252)">
              <g id="Group_2287-2" data-name="Group 2287">
                <path id="Path_6823-2" data-name="Path 6823" d="M1331.848,582.394a7.8,7.8,0,0,0-3.525-6.1c-1.945-1.119-3.519-.206-3.519,2.041a7.781,7.781,0,0,0,3.525,6.092C1330.274,585.552,1331.851,584.641,1331.848,582.394Zm-2.174.3c.2-.111.514.071.711.411s.2.708,0,.823-.514-.071-.711-.408-.2-.711,0-.826Zm-1.639,0c0-.188.129-.264.3-.17a.646.646,0,0,1,.3.505c0,.188-.132.264-.3.17a.635.635,0,0,1-.295-.505Zm-1.773-1.962c.2-.111.514.071.714.411s.2.708,0,.823-.514-.071-.714-.411-.191-.708.006-.823Zm-.105-1.957a.655.655,0,0,1,.3.511c0,.185-.132.261-.3.167a.655.655,0,0,1-.3-.508c.007-.188.143-.261.3-.17Zm.817-.746c-.2.111-.517-.071-.714-.411s-.2-.705,0-.823.517.071.714.414.2.707,0,.818Zm1.639,0c0,.185-.129.264-.3.17a.648.648,0,0,1-.3-.508c0-.188.129-.264.3-.17a.646.646,0,0,1,.3.506Zm1.046,3.1c0,.855-.6,1.2-1.337.772a2.963,2.963,0,0,1-1.34-2.315c0-.852.6-1.2,1.34-.772a2.949,2.949,0,0,1,1.337,2.317Zm.72-1.143c-.2.114-.514-.071-.708-.408s-.2-.708,0-.823.514.068.711.411.2.71,0,.823Zm.4,1.786c0,.188-.129.264-.3.17a.646.646,0,0,1-.3-.508c0-.188.132-.264.3-.167a.641.641,0,0,1,.3.507Z" transform="translate(-1324.804 -575.818)" fill="#d4caca"/>
              </g>
              <g id="Group_2288-2" data-name="Group 2288">
                <path id="Path_6824-2" data-name="Path 6824" d="M1331.848,582.394a7.8,7.8,0,0,0-3.525-6.1c-1.945-1.119-3.519-.206-3.519,2.041a7.781,7.781,0,0,0,3.525,6.092C1330.274,585.552,1331.851,584.641,1331.848,582.394Zm-2.174.3c.2-.111.514.071.711.411s.2.708,0,.823-.514-.071-.711-.408-.2-.711,0-.826Zm-1.639,0c0-.188.129-.264.3-.17a.646.646,0,0,1,.3.505c0,.188-.132.264-.3.17a.635.635,0,0,1-.295-.505Zm-1.773-1.962c.2-.111.514.071.714.411s.2.708,0,.823-.514-.071-.714-.411-.191-.708.006-.823Zm-.105-1.957a.655.655,0,0,1,.3.511c0,.185-.132.261-.3.167a.655.655,0,0,1-.3-.508c.007-.188.143-.261.3-.17Zm.817-.746c-.2.111-.517-.071-.714-.411s-.2-.705,0-.823.517.071.714.414.2.707,0,.818Zm1.639,0c0,.185-.129.264-.3.17a.648.648,0,0,1-.3-.508c0-.188.129-.264.3-.17a.646.646,0,0,1,.3.506Zm1.046,3.1c0,.855-.6,1.2-1.337.772a2.963,2.963,0,0,1-1.34-2.315c0-.852.6-1.2,1.34-.772a2.949,2.949,0,0,1,1.337,2.317Zm.72-1.143c-.2.114-.514-.071-.708-.408s-.2-.708,0-.823.514.068.711.411.2.71,0,.823Zm.4,1.786c0,.188-.129.264-.3.17a.646.646,0,0,1-.3-.508c0-.188.132-.264.3-.167a.641.641,0,0,1,.3.507Z" transform="translate(-1324.804 -575.818)" fill="#bebebe"/>
              </g>
            </g>
            <path id="Path_6825-2" data-name="Path 6825" d="M1336.406,584.971c-.006-5.2-3.654-11.516-8.158-14.11s-8.143-.485-8.14,4.715,3.657,11.519,8.158,14.116S1336.409,590.171,1336.406,584.971Zm-2.967,1.745c.212-.305.734-.114,1.166.423s.6,1.211.394,1.513-.731.114-1.163-.42S1333.227,587.018,1333.438,586.716Zm-5.176.029a12.381,12.381,0,0,1-5.608-9.7c0-3.575,2.5-5.024,5.6-3.246a12.383,12.383,0,0,1,5.6,9.7C1333.862,587.077,1331.353,588.528,1328.262,586.745Zm2.988,1.236c.37-.032.87.458,1.119,1.1s.153,1.182-.215,1.219-.87-.458-1.119-1.1S1330.883,588.014,1331.25,587.982Zm-3.757-.2c0-.575.344-.84.769-.591a1.85,1.85,0,0,1,.769,1.484c0,.575-.344.84-.766.591a1.85,1.85,0,0,1-.772-1.483Zm-3.337-3.431c.246-.356.746-.27,1.113.188a1.331,1.331,0,0,1,.218,1.469c-.246.353-.746.27-1.116-.188a1.332,1.332,0,0,1-.215-1.468Zm-2.244-4.524a1.324,1.324,0,0,1,1.167.919c.215.55.038,1.026-.394,1.066a1.347,1.347,0,0,1-1.167-.922c-.208-.551-.035-1.024.394-1.062Zm-.538-4.407a1.867,1.867,0,0,1,.9,1.408c0,.493-.4.658-.9.37a1.861,1.861,0,0,1-.9-1.41c0-.488.4-.652.9-.367Zm1.7-1.583c-.212.3-.734.114-1.163-.42s-.611-1.216-.4-1.522.737-.111,1.167.423.609,1.218.4,1.52Zm2.185-1.269c-.367.035-.867-.458-1.116-1.1s-.153-1.182.215-1.222.867.461,1.116,1.1.153,1.187-.214,1.22Zm3.76.206c0,.572-.344.837-.769.591a1.872,1.872,0,0,1-.772-1.484c0-.575.347-.84.772-.6a1.859,1.859,0,0,1,.77,1.489Zm3.34,3.431c-.249.356-.749.27-1.119-.188a1.34,1.34,0,0,1-.218-1.472c.246-.356.749-.27,1.116.188a1.34,1.34,0,0,1,.222,1.472Zm2.238,4.527a1.336,1.336,0,0,1-1.163-.925c-.218-.547-.038-1.023.394-1.063a1.348,1.348,0,0,1,1.169.922c.21.549.033,1.025-.4,1.066Zm1.439,4.033c0,.488-.4.655-.9.367a1.856,1.856,0,0,1-.9-1.407c0-.493.4-.658.9-.373a1.856,1.856,0,0,1,.9,1.413Z" transform="translate(-1319.119 -568.476)" fill="#d4caca"/>
          </g>
        </g>
      </g>
      <g id="Group_2298-2" data-name="Group 2298" transform="translate(15.526 60.493)">
        <rect id="Rectangle_273-2" data-name="Rectangle 273" width="10.973" height="36.478" transform="translate(4.074 6.124) rotate(-30.001)" fill="#1b1715"/>
        <path id="Path_6826-2" data-name="Path 6826" d="M1245.016,520.922c.009,8.234,5.787,18.234,12.914,22.341s12.9.764,12.893-7.47-5.79-18.233-12.916-22.338S1245.01,512.691,1245.016,520.922Z" transform="translate(-1235.598 -511.7)" fill="#1b1715"/>
        <g id="Group_2297-2" data-name="Group 2297" transform="translate(0 5.437)">
          <path id="Path_6827-2" data-name="Path 6827" d="M1255.357,537.982a15.271,15.271,0,0,0-6.906-11.968c-3.816-2.2-6.909-.414-6.909,3.989a15.269,15.269,0,0,0,6.909,11.968C1252.267,544.174,1255.357,542.388,1255.357,537.982Z" transform="translate(-1235.546 -517.335)" fill="#1b1715"/>
          <path id="Path_6828-2" data-name="Path 6828" d="M1261.259,541.311c0-8.228-5.783-18.231-12.906-22.337s-12.906-.764-12.9,7.464,5.79,18.237,12.917,22.344S1261.268,549.542,1261.259,541.311Zm-4.958-2.857c0,5.071-3.552,7.13-7.935,4.6a17.569,17.569,0,0,1-7.952-13.757c0-5.071,3.547-7.124,7.938-4.595a17.549,17.549,0,0,1,7.953,13.75Z" transform="translate(-1235.456 -517.219)" fill="#1b1715"/>
          <g id="Group_2296-2" data-name="Group 2296" transform="translate(3.766 4.859)">
            <path id="Path_6829-2" data-name="Path 6829" d="M1257.554,539.216c0-5.828-4.1-12.914-9.144-15.822s-9.132-.541-9.13,5.287,4.1,12.919,9.147,15.825S1257.56,545.044,1257.554,539.216Zm-.985-.569c.006,5.2-3.639,7.312-8.137,4.721s-8.158-8.914-8.165-14.116,3.645-7.312,8.143-4.715,8.151,8.91,8.154,14.109Z" transform="translate(-1239.279 -522.151)" fill="#d4d4d4"/>
            <path id="Path_6830-2" data-name="Path 6830" d="M1254.07,537.247a12.383,12.383,0,0,0-5.6-9.7c-3.093-1.78-5.6-.329-5.6,3.246a12.38,12.38,0,0,0,5.6,9.7C1251.567,542.273,1254.073,540.822,1254.07,537.247Zm-2.077-1.2c0,2.247-1.576,3.158-3.519,2.038a7.788,7.788,0,0,1-3.525-6.1c0-2.247,1.576-3.16,3.519-2.041a7.8,7.8,0,0,1,3.524,6.1Z" transform="translate(-1239.332 -522.22)" fill="#e9e9e9"/>
            <g id="Group_2295-2" data-name="Group 2295" transform="translate(5.614 7.252)">
              <g id="Group_2293-2" data-name="Group 2293">
                <path id="Path_6831-2" data-name="Path 6831" d="M1252.024,536.088a7.8,7.8,0,0,0-3.525-6.1c-1.946-1.119-3.522-.207-3.522,2.042a7.787,7.787,0,0,0,3.525,6.1C1250.45,539.246,1252.024,538.336,1252.024,536.088Zm-2.174.3c.2-.111.514.071.711.411s.2.711,0,.823-.514-.071-.711-.408-.2-.71,0-.825Zm-1.639,0c0-.188.129-.264.3-.171a.646.646,0,0,1,.3.505c0,.188-.129.264-.3.17a.636.636,0,0,1-.294-.5Zm-1.773-1.96c.2-.114.514.068.711.408s.2.708,0,.823-.514-.068-.711-.411-.191-.707.006-.819Zm-.105-1.96a.65.65,0,0,1,.3.511c0,.185-.132.261-.3.168a.652.652,0,0,1-.3-.508.185.185,0,0,1,.3-.169Zm.817-.746c-.2.111-.517-.071-.714-.411s-.2-.705,0-.823.514.071.714.414.2.708.006.821Zm1.639,0c0,.185-.129.264-.3.17a.648.648,0,0,1-.3-.508c0-.185.132-.264.3-.17a.646.646,0,0,1,.3.512Zm1.046,3.1c0,.855-.6,1.2-1.337.772a2.963,2.963,0,0,1-1.34-2.315c0-.852.6-1.2,1.34-.772a2.948,2.948,0,0,1,1.342,2.318Zm.72-1.143c-.2.114-.514-.068-.711-.408s-.2-.708,0-.823.514.068.711.411.2.711,0,.823Zm.4,1.786c0,.188-.129.264-.3.173a.654.654,0,0,1-.3-.511c0-.188.132-.261.3-.168a.649.649,0,0,1,.3.508Z" transform="translate(-1244.977 -529.512)" fill="#d4caca"/>
              </g>
              <g id="Group_2294-2" data-name="Group 2294">
                <path id="Path_6832-2" data-name="Path 6832" d="M1252.024,536.088a7.8,7.8,0,0,0-3.525-6.1c-1.946-1.119-3.522-.207-3.522,2.042a7.787,7.787,0,0,0,3.525,6.1C1250.45,539.246,1252.024,538.336,1252.024,536.088Zm-2.174.3c.2-.111.514.071.711.411s.2.711,0,.823-.514-.071-.711-.408-.2-.71,0-.825Zm-1.639,0c0-.188.129-.264.3-.171a.646.646,0,0,1,.3.505c0,.188-.129.264-.3.17a.636.636,0,0,1-.294-.5Zm-1.773-1.96c.2-.114.514.068.711.408s.2.708,0,.823-.514-.068-.711-.411-.191-.707.006-.819Zm-.105-1.96a.65.65,0,0,1,.3.511c0,.185-.132.261-.3.168a.652.652,0,0,1-.3-.508.185.185,0,0,1,.3-.169Zm.817-.746c-.2.111-.517-.071-.714-.411s-.2-.705,0-.823.514.071.714.414.2.708.006.821Zm1.639,0c0,.185-.129.264-.3.17a.648.648,0,0,1-.3-.508c0-.185.132-.264.3-.17a.646.646,0,0,1,.3.512Zm1.046,3.1c0,.855-.6,1.2-1.337.772a2.963,2.963,0,0,1-1.34-2.315c0-.852.6-1.2,1.34-.772a2.948,2.948,0,0,1,1.342,2.318Zm.72-1.143c-.2.114-.514-.068-.711-.408s-.2-.708,0-.823.514.068.711.411.2.711,0,.823Zm.4,1.786c0,.188-.129.264-.3.173a.654.654,0,0,1-.3-.511c0-.188.132-.261.3-.168a.649.649,0,0,1,.3.508Z" transform="translate(-1244.977 -529.512)" fill="#bebebe"/>
              </g>
            </g>
            <path id="Path_6833-2" data-name="Path 6833" d="M1256.579,538.666c0-5.2-3.651-11.516-8.154-14.11s-8.143-.485-8.143,4.715,3.657,11.523,8.16,14.116S1256.585,543.866,1256.579,538.666Zm-2.967,1.745c.215-.3.737-.114,1.169.423s.6,1.211.394,1.513-.734.114-1.164-.42S1253.4,540.713,1253.611,540.411Zm-5.176.029a12.376,12.376,0,0,1-5.6-9.7c0-3.575,2.5-5.024,5.6-3.246a12.382,12.382,0,0,1,5.6,9.7c0,3.573-2.5,5.024-5.6,3.241Zm2.991,1.24c.37-.033.87.458,1.119,1.1s.15,1.182-.215,1.222-.87-.458-1.119-1.1S1251.059,541.709,1251.426,541.681Zm-3.757-.2c0-.578.344-.843.766-.6a1.853,1.853,0,0,1,.772,1.484c0,.575-.344.84-.766.591a1.841,1.841,0,0,1-.772-1.485Zm-3.34-3.434c.249-.356.749-.27,1.116.188a1.331,1.331,0,0,1,.218,1.469c-.246.353-.746.27-1.116-.188a1.337,1.337,0,0,1-.218-1.475Zm-2.241-4.524a1.329,1.329,0,0,1,1.166.919c.215.55.039,1.026-.394,1.066a1.344,1.344,0,0,1-1.163-.922c-.214-.558-.038-1.03.391-1.069Zm-.541-4.407a1.858,1.858,0,0,1,.9,1.41c0,.493-.4.658-.9.37a1.86,1.86,0,0,1-.9-1.41c0-.5.4-.661.9-.376Zm1.7-1.583c-.212.3-.731.114-1.163-.42s-.608-1.216-.394-1.519.734-.114,1.166.42.606,1.211.392,1.513Zm2.188-1.266c-.367.032-.87-.461-1.116-1.1s-.153-1.182.215-1.222.867.461,1.116,1.1.157,1.18-.214,1.216Zm3.76.2c0,.572-.344.837-.769.591a1.86,1.86,0,0,1-.772-1.484c0-.575.344-.84.772-.6a1.866,1.866,0,0,1,.771,1.483Zm3.337,3.431c-.246.356-.746.27-1.116-.188a1.34,1.34,0,0,1-.218-1.472c.246-.356.749-.27,1.116.188a1.343,1.343,0,0,1,.219,1.465Zm2.241,4.527a1.342,1.342,0,0,1-1.166-.925c-.215-.547-.036-1.023.394-1.063a1.344,1.344,0,0,1,1.169.925c.21.539.036,1.016-.4,1.056Zm1.44,4.026c0,.488-.4.655-.9.368a1.85,1.85,0,0,1-.9-1.407c0-.493.4-.658.9-.373A1.853,1.853,0,0,1,1256.214,538.457Z" transform="translate(-1239.294 -522.17)" fill="#d4caca"/>
          </g>
        </g>
      </g>
      <g id="Group_2306-2" data-name="Group 2306">
        <g id="Group_2299-2" data-name="Group 2299" transform="translate(140.006 51.864)">
          <path id="Path_6834-2" data-name="Path 6834" d="M1367.028,509.821a.666.666,0,0,1-.273.517l-4.177,4.551-1.157-1.666,1.157-1.029,3.722-3.316.012.012A1.189,1.189,0,0,1,1367.028,509.821Z" transform="translate(-1361.42 -502.873)" fill="#4d4d4c"/>
          <path id="Path_6835-2" data-name="Path 6835" d="M1367.051,503.66v6.083h-.006a.665.665,0,0,1-.273.517l-4.177,4.551v-7.435Z" transform="translate(-1361.437 -502.796)" fill="#564c49"/>
          <path id="Path_6836-2" data-name="Path 6836" d="M1362.575,508.791l4.177-4.545c.5-.4.311-1.023-.437-1.454l-.015-.009-4.88,4.345Z" transform="translate(-1361.42 -502.783)" fill="#5e534f"/>
        </g>
        <path id="Path_6837-2" data-name="Path 6837" d="M1399.51,553.128a4.308,4.308,0,0,1-.074.569l-.305,1.586-.772,3.941-.08.376-.085.434a3.017,3.017,0,0,1-.1.359,2.439,2.439,0,0,1-.488.94,2.172,2.172,0,0,1-.341.332,1.761,1.761,0,0,1-.173.105,1.984,1.984,0,0,1-.705.246,3.05,3.05,0,0,1-1.648-.264l-2.882-1.236-2.575-1.483-.218-.123-.676-.394-.3-3.9-.2-2.508c-.415-5.305-4.1-11.3-8.507-13.842l-8.443-4.877c-4.468-2.582-8.177-.749-8.513,4.192l-.159,2.133-.246,3.584L1338.3,529.6l-5.238-3.023-22.728-13.122-.308-3.907-.2-2.5c-.414-5.305-4.1-11.307-8.5-13.848l-8.443-4.877c-4.459-2.57-8.177-.749-8.519,4.192l-.144,2.139-.252,3.584-1.977-1.143c-.006-.006-8.322-8.374-9.841-10.849-1.275-2.1-1.275-2.882-1.4-5.267,0,0,.218-4.2.246-4.859a6.063,6.063,0,0,1,.15-1.182l.036-.162.117-.538-.215-.123a2.1,2.1,0,0,1-.958-1.954l.629-2.6,1.23-5.155c.105-.455.5-.581.952-.32l.556.32.117-.532.188-.829c.035-.159,8.381-11.4,8.381-11.4a4.819,4.819,0,0,1,1-.985,1.574,1.574,0,0,0,.179-.123c1.78-1.166,4.283-1,6.942.535a497.684,497.684,0,0,1,52.3,30.176c2.926,2.218,4.159,3.258,5.978,6.224l12.764,20.02a14.925,14.925,0,0,0,1.522,1.872l29.585,25.543a13.486,13.486,0,0,1,4.03,6.36l.006.006v.018l2.758,9.73h0l.065.252a6.515,6.515,0,0,1,.159.9A5.567,5.567,0,0,1,1399.51,553.128Z" transform="translate(-1219.967 -449.758)" fill="#362b27"/>
        <path id="Path_6838-2" data-name="Path 6838" d="M1350.984,583.369l49.686-28.685a5.091,5.091,0,0,1-.071.572l-.308,1.576-.775,3.941-.074.37-.085.437a3.493,3.493,0,0,1-.1.359,2.552,2.552,0,0,1-.485.94c-.108.126-.9.913-.961.946-8.613,9.608-28.2,18.683-49.381,28.263Z" transform="translate(-1221.128 -452.24)" fill="#362b27"/>
        <path id="Path_6839-2" data-name="Path 6839" d="M1313.843,538.946c21.772-8.957,39.869-18.336,49.68-28.682l29.578,25.545a13.475,13.475,0,0,1,4.033,6.357v.006l.006.018,2.753,9.73v.006l.068.252a7.109,7.109,0,0,1,.159.9,5.312,5.312,0,0,1,.039.952c-10.781,11.263-28.5,20.484-49.686,28.685Z" transform="translate(-1220.615 -451.581)" fill="#564c49"/>
        <path id="Path_6840-2" data-name="Path 6840" d="M1362.33,509.364c-6.016,8.407-14.236,15.131-24.564,20.231a107.16,107.16,0,0,1-25.117,8.452,13.936,13.936,0,0,1-1.522-1.872l-12.77-20.011c-1.813-2.973-3.054-4.01-5.978-6.23a495.535,495.535,0,0,0-52.294-30.193c-2.412-1.395-4.7-1.657-6.422-.829,5.111-2.935,45.871-26.294,48.982-28.269a1.569,1.569,0,0,0,.179-.123c1.78-1.166,4.283-1,6.942.535a497.6,497.6,0,0,1,52.3,30.189c2.926,2.218,4.159,3.258,5.978,6.224l12.764,20.02A14.945,14.945,0,0,0,1362.33,509.364Z" transform="translate(-1219.903 -449.757)" fill="#5e534f"/>
        <path id="Path_6841-2" data-name="Path 6841" d="M1361.164,510.02a63.747,63.747,0,0,1-23.158,18.634,104.909,104.909,0,0,1-23.774,8.114,12.082,12.082,0,0,1-.728-.969l-1.891-2.967-10.856-17.006c-.3-.476-.569-.913-.846-1.31,17.7-5.117,38.01-15.5,46.993-26.665.224.32.446.673.69,1.063l10.659,16.716,2.124,3.328C1360.625,509.324,1360.889,509.676,1361.164,510.02Z" transform="translate(-1220.566 -450.7)" fill="#83cac7"/>
        <path id="Path_6842-2" data-name="Path 6842" d="M1359.823,509.584l-2.121-3.328-10.52-16.495c-4.976,5.682-12.5,10.935-20.787,15.364a64.84,64.84,0,0,1,29.315,9.961,56.441,56.441,0,0,0,4.439-5.041C1360.041,509.9,1359.931,509.745,1359.823,509.584Z" transform="translate(-1220.933 -450.666)" fill="#fff" opacity="0.5" style="isolation: isolate"/>
        <g id="Group_2301-2" data-name="Group 2301" transform="translate(0 27.763)">
          <path id="Path_6843-2" data-name="Path 6843" d="M1349.087,582.243a4.274,4.274,0,0,1-.068.569l-.311,1.586-.772,3.941-.074.37-.086.437a3.273,3.273,0,0,1-.1.359c-.449,1.5-1.754,2.041-3.354,1.36l-2.888-1.239-2.782-1.6-.682-.4-.308-3.9-.2-2.508c-.414-5.305-4.1-11.3-8.5-13.842l-8.443-4.877c-4.468-2.573-8.177-.749-8.519,4.192l-.153,2.136-.246,3.581-51.69-29.843-.308-3.9-.2-2.505c-.414-5.308-4.1-11.3-8.5-13.845l-8.443-4.877c-4.465-2.579-8.177-.755-8.519,4.189l-.144,2.139-.252,3.581-1.983-1.149-.056-.056-6.9-7.321c-.246-.246-.488-.505-.717-.772a15.692,15.692,0,0,1-1.909-2.812,14.693,14.693,0,0,1-1.524-4.284l.273-3.639a9.115,9.115,0,0,1-.15-2.077,6.291,6.291,0,0,1,.144-1.193l.035-.162.123-.538.8-3.587,1.393-6.242.117-.532.185-.828c.035-.159,8.387-11.4,8.387-11.4a4.813,4.813,0,0,1,1.175-1.107l.012-.006a.332.332,0,0,1,.062-.038.212.212,0,0,1,.062-.035,2.056,2.056,0,0,1,.264-.15,1.419,1.419,0,0,1,.126-.068c1.724-.829,4.01-.566,6.421.829a495.564,495.564,0,0,1,52.295,30.181c2.929,2.221,4.165,3.258,5.978,6.23l12.77,20.011a13.952,13.952,0,0,0,1.522,1.872l29.585,25.542a13.551,13.551,0,0,1,4.03,6.36v.006l.006.024,2.753,9.729c.024.088.047.173.068.255a7.042,7.042,0,0,1,.159.9A4.587,4.587,0,0,1,1349.087,582.243Z" transform="translate(-1219.708 -478.879)" fill="#473f3c"/>
          <path id="Path_6844-2" data-name="Path 6844" d="M1308.651,534.779l-10.7-16.765-.056-.091a12.454,12.454,0,0,0-2.885-3.475,76.225,76.225,0,0,0-12.737,36.181l26.38,15.232c1.11.64,2.01.12,2.01-1.163V541.007A12.1,12.1,0,0,0,1308.651,534.779Z" transform="translate(-1220.624 -479.407)" fill="#566d6c"/>
          <path id="Path_6845-2" data-name="Path 6845" d="M1292.833,512.62c-4.254-2.834-8.854-5.769-13.634-8.7-.737-.452-1.349-.12-1.349.731V545.63a4.446,4.446,0,0,0,2.013,3.481l2.35,1.358a76.218,76.218,0,0,1,12.737-36.179C1294.391,513.812,1293.712,513.287,1292.833,512.62Z" transform="translate(-1220.559 -479.247)" fill="#485b5a"/>
          <path id="Path_6846-2" data-name="Path 6846" d="M1340.434,589.54l2.788,1.607,2.888,1.236c1.6.685,2.905.138,3.354-1.358a2.545,2.545,0,0,0,.088-.362l.085-.434.076-.373.772-3.941.311-1.576a5.009,5.009,0,0,0,.071-.569l-3.223-1.862c-2.529-1.457-4.753-.808-5.452,1.595Z" transform="translate(-1221.487 -480.395)" fill="#362b27"/>
          <path id="Path_6847-2" data-name="Path 6847" d="M1220.336,510.484c.123,2.388.123,3.169,1.4,5.267,1.517,2.489,9.832,10.847,9.832,10.847l-.964-9.668a14.234,14.234,0,0,0-6.148-9.064l-3.878-2.238C1220.551,506.277,1220.336,510.484,1220.336,510.484Z" transform="translate(-1219.706 -479.276)" fill="#362b27"/>
          <path id="Path_6848-2" data-name="Path 6848" d="M1220.768,504.093l.44.255c.634.365,1.182.185,1.334-.44l1.918-8.046a2.3,2.3,0,0,0-.255-1.5,2.877,2.877,0,0,0-1-1.175Z" transform="translate(-1219.712 -479.091)" fill="#362b27"/>
          <path id="Path_6849-2" data-name="Path 6849" d="M1220.327,498.96l2.333,1.892-.643,2.7c-.1.382-.431.493-.823.27l-.532-.308a2.061,2.061,0,0,1-.955-1.954Z" transform="translate(-1219.696 -479.177)" fill="#efa93c"/>
          <path id="Path_6850-2" data-name="Path 6850" d="M1221.569,493.715c.105-.446.5-.575.955-.314l.6.347a1.783,1.783,0,0,1,.818,1.677l-1.281,5.344-2.333-1.892Z" transform="translate(-1219.706 -479.092)" fill="#b93f1c"/>
          <path id="Path_6851-2" data-name="Path 6851" d="M1255.373,490.1c4.635,2.423,6.995,3.949,11.369,6.475,2.6,1.5,5.185,3.025,7.732,4.556a3.4,3.4,0,0,1,1.5,2.644v41.494c0,.916-.643,1.29-1.439.832l-11.336-6.546a2.945,2.945,0,0,1-1.313-2.136l-.009-.132c-.517-6.607-5.105-14.077-10.593-17.246l-1.7-.985a8.483,8.483,0,0,1-3.842-6.651v-8.768S1250.462,487.532,1255.373,490.1Z" transform="translate(-1220.083 -479.041)" fill="#564c49"/>
          <g id="Group_2300-2" data-name="Group 2300" transform="translate(9.191 2.681)">
            <path id="Path_6852-2" data-name="Path 6852" d="M1240.058,497.6l-10.226-6.175c-.628-.379-1.011-1.389-.69-1.83,1.539-2.142,3.281-4.662,4.827-6.528,1.886-2.274,3.478-2.232,11.548,2.429a1.632,1.632,0,0,1,.749,1.783c-1.478,2.837-3.934,7.018-5.437,10.2C1240.7,497.761,1240.393,497.808,1240.058,497.6Z" transform="translate(-1229.026 -481.6)" fill="#83cac7"/>
            <path id="Path_6853-2" data-name="Path 6853" d="M1245.08,486.488c-3.51-2.029-6.219-3.443-7.858-3.7a34.233,34.233,0,0,1,.682,12.153l2.353,1.425c.922-1.877,2.112-4.033,3.175-5.96.705-1.275,1.37-2.48,1.906-3.51A.785.785,0,0,0,1245.08,486.488Z" transform="translate(-1229.148 -481.618)" fill="#fff" opacity="0.5" style="isolation: isolate"/>
          </g>
          <path id="Path_6854-2" data-name="Path 6854" d="M1249,502.947l24.834,14.975c.429.258.781.062.781-.432V503.864a1.424,1.424,0,0,0-.817-1.5c-1.669-.985-2.66-1.6-4.335-2.576q-1.349-.794-2.691-1.565c-1.313-.758-2.447-1.427-3.513-2.056-.94-.556-1.828-1.084-2.744-1.61-1.724-.993-3.282-1.848-5.047-2.776a1.289,1.289,0,0,0-.9-.111c-1.939.414-4.413,4.662-6.281,9.7A1.559,1.559,0,0,0,1249,502.947Z" transform="translate(-1220.12 -479.068)" fill="#83cac7"/>
          <path id="Path_6855-2" data-name="Path 6855" d="M1273.678,503.925a1.233,1.233,0,0,0-.032-.37.819.819,0,0,0-.235-.17c-.775-.455-1.4-.834-2.024-1.208-.714-.426-1.41-.846-2.3-1.366s-1.795-1.048-2.682-1.562c-1.107-.637-2.083-1.213-3-1.754l-.64-.376c-.775-.458-1.522-.9-2.277-1.334a53.511,53.511,0,0,1,6.257,16.509l6.936,4.18Z" transform="translate(-1220.301 -479.13)" fill="#fff" opacity="0.5" style="isolation: isolate"/>
          <path id="Path_6856-2" data-name="Path 6856" d="M1223.956,518.637q.347.4.714.775l6.953,7.376,1.983,1.146.249-3.584Z" transform="translate(-1219.76 -479.469)" fill="#362b27"/>
          <path id="Path_6857-2" data-name="Path 6857" d="M1249.248,507.467l4.814,2.935c.215.129.394.033.394-.215V509.1a.845.845,0,0,0-.37-.652l-4.818-2.929c-.215-.132-.394-.035-.394.212v1.084A.846.846,0,0,0,1249.248,507.467Z" transform="translate(-1220.129 -479.273)" fill="#fff"/>
          <path id="Path_6858-2" data-name="Path 6858" d="M1260.2,539.567l.307,3.9,51.69,29.843.248-3.583Z" transform="translate(-1220.297 -479.779)" fill="#362b27"/>
          <path id="Path_6859-2" data-name="Path 6859" d="M1339.432,585.3l.305,3.9,3.469,2,2.888,1.236c1.6.685,2.905.138,3.354-1.358Z" transform="translate(-1221.472 -480.457)" fill="#362b27"/>
        </g>
        <g id="Group_2302-2" data-name="Group 2302" transform="translate(91.06 53.998)" opacity="0.2">
          <path id="Path_6860-2" data-name="Path 6860" d="M1350.2,508.072a3.852,3.852,0,0,0-3.775-3.034,5.855,5.855,0,0,0-2.917.873,12.847,12.847,0,0,0-5.893,10.211c0,.135.006.264.012.394.138,2.7,1.712,4.485,4,4.485a5.9,5.9,0,0,0,2.923-.876,12.857,12.857,0,0,0,5.893-10.208A6.557,6.557,0,0,0,1350.2,508.072Zm-6.692,10.246a3.884,3.884,0,0,1-1.88.591c-1.745,0-1.936-1.954-1.936-2.794a6.377,6.377,0,0,1,.056-.846,11.059,11.059,0,0,1,4.8-7.561,3.848,3.848,0,0,1,1.872-.6,1.794,1.794,0,0,1,1.773,1.51,4.871,4.871,0,0,1,.165,1.29,10.912,10.912,0,0,1-4.852,8.409Z" transform="translate(-1312.171 -505.038)" fill="#353534"/>
          <path id="Path_6861-2" data-name="Path 6861" d="M1361.339,510.288a63.731,63.731,0,0,1-23.156,18.633,104.9,104.9,0,0,1-23.774,8.114,12.056,12.056,0,0,1-.729-.969l-1.892-2.967c8.925-6.3,17.561-11.929,25.46-16.576.717-.423,1.422-.837,2.121-1.236a1.805,1.805,0,0,1,.167-.1,18.058,18.058,0,0,1,8.284-6.55,11.253,11.253,0,0,1,2-.553,6.968,6.968,0,0,1,3.117.062c1.675-.788,3.968-1.642,5.49-2.25l2.124,3.328C1360.8,509.591,1361.066,509.944,1361.339,510.288Z" transform="translate(-1311.788 -505.051)" fill="#4d4d4c"/>
        </g>
        <path id="Path_6862-2" data-name="Path 6862" d="M1247.781,472.647a.777.777,0,0,0,0,1.472l57.731,33.33a2.827,2.827,0,0,0,2.55,0h0a.777.777,0,0,0,0-1.472l-57.731-33.33A2.828,2.828,0,0,0,1247.781,472.647Z" transform="translate(-1219.995 -450.288)" fill="#473f3c"/>
        <path id="Path_6863-2" data-name="Path 6863" d="M1278.938,454.627a.776.776,0,0,0,0,1.472l57.674,33.421a2.815,2.815,0,0,0,2.547,0h0a.776.776,0,0,0,0-1.472l-57.674-33.418a2.821,2.821,0,0,0-2.547,0Z" transform="translate(-1220.333 -449.825)" fill="#473f3c"/>
        <g id="Group_2303-2" data-name="Group 2303" transform="translate(105.621 66.611)">
          <path id="Path_6864-2" data-name="Path 6864" d="M1386.206,548.458a72.085,72.085,0,0,1-22.981,13.739,11.524,11.524,0,0,1-8.728-.258L1327.625,541.6l37.918-22.1,20.393,23.753C1387.911,544.748,1388.042,546.86,1386.206,548.458Z" transform="translate(-1326.441 -518.051)" fill="#fff" opacity="0.2" style="isolation: isolate"/>
          <path id="Path_6865-2" data-name="Path 6865" d="M1385.7,546.738a71.448,71.448,0,0,1-22.757,13.607,11.43,11.43,0,0,1-8.651-.255l-27.867-19.333,38.809-22.728,20.2,23.551C1387.384,543.06,1387.516,545.152,1385.7,546.738Z" transform="translate(-1326.423 -518.029)" fill="#564c49"/>
        </g>
        <path id="Path_6866-2" data-name="Path 6866" d="M1275.156,524.785,1229.75,496.94a2.172,2.172,0,0,0-3.129.985,8.07,8.07,0,0,0-.591,2.621,2.146,2.146,0,0,0,1.877,2.266c9.141,1.193,26.9,11.8,47.251,23.933Z" transform="translate(-1219.79 -450.838)" fill="#fff" opacity="0.1" style="isolation: isolate"/>
        <path id="Path_6867-2" data-name="Path 6867" d="M1267.562,461.093l15.9-8.648a6.568,6.568,0,0,1,6.01-.132l26.045,12.7C1297.71,456.7,1281.2,453.381,1267.562,461.093Z" transform="translate(-1220.234 -449.785)" fill="#fff" opacity="0.1" style="isolation: isolate"/>
        <path id="Path_6868-2" data-name="Path 6868" d="M1365.463,575.873a69.419,69.419,0,0,1-11.971,5.258,1.262,1.262,0,0,1-1.915-.855l-1.083-3.54a2.325,2.325,0,0,1,.864-2.561,76.112,76.112,0,0,0,11.968-5.261,1.264,1.264,0,0,1,1.915.855l1.089,3.54A2.337,2.337,0,0,1,1365.463,575.873Z" transform="translate(-1221.258 -452.448)" fill="#ffffb2"/>
        <path id="Path_6869-2" data-name="Path 6869" d="M1399.775,554.482a41.95,41.95,0,0,1-7.226,6.034c-.614.637-1.3.437-1.536-.443l-.876-3.308a3.2,3.2,0,0,1,.69-2.75,46.282,46.282,0,0,0,7.226-6.034c.617-.637,1.307-.437,1.539.443l.876,3.308A3.2,3.2,0,0,1,1399.775,554.482Z" transform="translate(-1221.745 -451.908)" fill="#ffffb2"/>
        <path id="Path_6870-2" data-name="Path 6870" d="M1364.168,512.677a39.868,39.868,0,0,1-6.6,7.361c8.571-2.4,21.709,5.355,28.6,11.254Z" transform="translate(-1221.264 -451.16)" fill="#fff" opacity="0.1" style="isolation: isolate"/>
        <path id="Path_6871-2" data-name="Path 6871" d="M1388.576,563.729a104.532,104.532,0,0,1-17.036,9.577,1.1,1.1,0,0,1-1.416-.464.968.968,0,0,1-.1-.241l-1.724-6.063a1.076,1.076,0,0,1,.617-1.287,100.016,100.016,0,0,0,17.225-9.395,1.462,1.462,0,0,1,.129-.071.744.744,0,0,1,.978.383c.011.027.021.053.03.081l1.8,5.972A1.371,1.371,0,0,1,1388.576,563.729Z" transform="translate(-1221.422 -452.256)" fill="#473f3c"/>
        <path id="Path_6872-2" data-name="Path 6872" d="M1387.546,563.17a105.211,105.211,0,0,1-17.033,9.58,1.107,1.107,0,0,1-.388.1.97.97,0,0,1-.1-.241l-1.724-6.063a1.076,1.076,0,0,1,.617-1.287,99.928,99.928,0,0,0,17.225-9.4,1.462,1.462,0,0,1,.129-.071l1.773,5.879A1.373,1.373,0,0,1,1387.546,563.17Z" transform="translate(-1221.422 -452.257)" fill="#362b27"/>
        <g id="Group_2304-2" data-name="Group 2304" transform="translate(57.339 52.039)">
          <path id="Path_6873-2" data-name="Path 6873" d="M1311.258,536.183,1299.583,518.8l-.062-.1c-1.522-2.362-2.347-3.113-5.457-5.484-4.647-3.156-9.669-6.439-14.887-9.737-.789-.5-1.448-.247-1.472.557V544.3a4.748,4.748,0,0,0,2.194,3.593l31.368,18.8c1.212.726,2.194.295,2.2-.963v-23.25A11.914,11.914,0,0,0,1311.258,536.183Zm-25.487-8.023c0,.239-.187.321-.417.183l-.009,0-5.258-3.3a.891.891,0,0,1-.4-.67V523.3c0-.236.182-.319.41-.184l.015.01,5.258,3.3a.9.9,0,0,1,.4.671Zm24.974,11.806-30.576-19.031a2.068,2.068,0,0,1-.932-1.553V505.821c0-.385.3-.515.675-.292l.017.011c4.921,3.119,9.617,6.2,13.965,9.149,2.927,2.233,3.408,2.711,4.6,4.564l.061.095,11.715,17.447a10.61,10.61,0,0,1,1.238,2.452c.18.531,0,.915-.413.857A.913.913,0,0,1,1310.745,539.966Z" transform="translate(-1277.705 -503.222)" fill="#564c49"/>
          <path id="Path_6874-2" data-name="Path 6874" d="M1285.4,526.721l-5.258-3.3c-.228-.144-.418-.073-.425.159v1.08a.891.891,0,0,0,.4.67l5.258,3.3c.231.142.421.067.425-.169v-1.072A.9.9,0,0,0,1285.4,526.721Z" transform="translate(-1277.735 -503.52)" fill="#fff"/>
          <path id="Path_6875-2" data-name="Path 6875" d="M1311.529,539.28a10.646,10.646,0,0,0-1.239-2.452l-11.719-17.449-.061-.095c-1.191-1.853-1.677-2.334-4.6-4.564-4.346-2.955-9.043-6.03-13.965-9.15-.371-.233-.681-.114-.691.265v13.577a2.072,2.072,0,0,0,.932,1.553l30.576,19.031c.446.282.82.143.834-.31A1.162,1.162,0,0,0,1311.529,539.28Z" transform="translate(-1277.728 -503.255)" fill="#83cac7" opacity="0.5" style="isolation: isolate"/>
          <path id="Path_6876-2" data-name="Path 6876" d="M1298.028,519.875l-.053-.085c-.967-1.5-1.2-1.783-4.006-3.921q-1.246-.848-2.538-1.715a39.475,39.475,0,0,1,5.824,16.349l13.293,8.272a8.466,8.466,0,0,0-.767-1.4Z" transform="translate(-1277.908 -503.384)" fill="#fff" opacity="0.5" style="isolation: isolate"/>
        </g>
        <g id="Group_2305-2" data-name="Group 2305" transform="translate(86.46 87.302)">
          <path id="Path_6877-2" data-name="Path 6877" d="M1310.53,545.609l-1.88,2.289c-.221.308-1.19.493-1.43.03v-6.46l3.313-2.312Z" transform="translate(-1307.22 -539.003)" fill="#473f3c"/>
          <path id="Path_6878-2" data-name="Path 6878" d="M1310.53,539.153l-1.88,2.35c-.221.311-1.19.435-1.43-.029v-.009l1.822-2.463Z" transform="translate(-1307.22 -539.001)" fill="#5e534f"/>
        </g>
      </g>
    </g>
    <g id="Group_2314-2" data-name="Group 2314" transform="translate(1449.923 921.682)">
      <path id="Path_6879-2" data-name="Path 6879" d="M1.14,1.336a1.268,1.268,0,0,1,.329.583,16.161,16.161,0,0,0,.514,2.089c-.137-.268-.26.179-.483-.02C.821,3.382-.223.876.042,0Z" transform="translate(18.298 16.532) rotate(-13)" fill="#ffcb96"/>
      <path id="Path_6880-2" data-name="Path 6880" d="M.548,5.713a.928.928,0,0,0,.888.348c.354-.109,1.008-.144,1.2-.463.3-.492.6-1.266.844-1.792a2.831,2.831,0,0,0-.023-1.888,2.051,2.051,0,0,0-.222-.635c-.1-.128-.326-.211-.427-.044A1.279,1.279,0,0,0,2.733.7C2.652.509,2.349.446,2.248.614,2.285.449,2.149.1,1.983.064c-.254-.039-.315.118-.388.325A.426.426,0,0,0,1.2,0C.916-.022.892.648.887.8c-.011.3-.087.637-.1.938a2.6,2.6,0,0,1-.085.68,6.718,6.718,0,0,1-.5.939A2.154,2.154,0,0,0,.548,5.713Z" transform="translate(18.913 14.306) rotate(-13)" fill="#ffcb96"/>
      <g id="Group_2310-2" data-name="Group 2310" transform="translate(0 34.02)">
        <g id="Group_2308-2" data-name="Group 2308">
          <path id="Path_6881-2" data-name="Path 6881" d="M1247.177,542.984a1.751,1.751,0,0,1,1.66.705,2.071,2.071,0,0,1,.285,1.757,2.409,2.409,0,0,0-.068.985c.091.394.485.864.344,1.248a.447.447,0,0,1-.826.068,3.3,3.3,0,0,1-.535-1.225c-.147-.311-.535-.505-.69-.811a2.065,2.065,0,0,1-.135-1.281Z" transform="translate(-1244.826 -542.967)" fill="#ffcb96"/>
          <path id="Path_6882-2" data-name="Path 6882" d="M1245.136,547.762c-.261.559-.153,1.131.267,1.155-.1.376.311.952.761.652.111.394.823.1,1.046-.261.347-.553.388-.578.488-.743a4.818,4.818,0,0,0,.467-1.155,3.413,3.413,0,0,0,.156-1.26c-.085-1.134,0-2.274-.708-3.163a1.853,1.853,0,0,0-1.642.614,2.23,2.23,0,0,0-.578,1.651,2.758,2.758,0,0,1-.4,1.472C1244.56,547.514,1244.933,547.918,1245.136,547.762Z" transform="translate(-1244.791 -542.967)" fill="#ffcb96"/>
        </g>
        <g id="Group_2309-2" data-name="Group 2309">
          <path id="Path_6883-2" data-name="Path 6883" d="M1247.177,542.984a1.751,1.751,0,0,1,1.66.705,2.071,2.071,0,0,1,.285,1.757,2.409,2.409,0,0,0-.068.985c.091.394.485.864.344,1.248a.447.447,0,0,1-.826.068,3.3,3.3,0,0,1-.535-1.225c-.147-.311-.535-.505-.69-.811a2.065,2.065,0,0,1-.135-1.281Z" transform="translate(-1244.826 -542.967)" fill="#ffcb96"/>
          <path id="Path_6884-2" data-name="Path 6884" d="M1245.136,547.762c-.261.559-.153,1.131.267,1.155-.1.376.311.952.761.652.111.394.823.1,1.046-.261.347-.553.388-.578.488-.743a4.818,4.818,0,0,0,.467-1.155,3.413,3.413,0,0,0,.156-1.26c-.085-1.134,0-2.274-.708-3.163a1.853,1.853,0,0,0-1.642.614,2.23,2.23,0,0,0-.578,1.651,2.758,2.758,0,0,1-.4,1.472C1244.56,547.514,1244.933,547.918,1245.136,547.762Z" transform="translate(-1244.791 -542.967)" fill="#ffcb96"/>
        </g>
      </g>
      <path id="Path_6885-2" data-name="Path 6885" d="M1246.213,543.212c.026.529,2.185.755,2.7.449a66.41,66.41,0,0,0,1.3-7.591c.246-1.856.417-3.531.565-4.335.05-.338.085-.526.085-.526a.328.328,0,0,0-.1-.246,1.762,1.762,0,0,0-.731-.417,2.961,2.961,0,0,0-.493-.144c-1.419-.373-3.16-.432-3.291.562C1246.016,542.465,1246.151,541.672,1246.213,543.212Z" transform="translate(-1244.81 -508.757)" fill="#f7a82d"/>
      <path id="Path_6886-2" data-name="Path 6886" d="M1254.217,519.655c-1.4-.655-3.426.955-4.084,2.353l-3.863,8.669c.306,1.6,3.631,1.625,4.395,1.51,1.275-2.33,4.656-8.942,4.656-8.942a2.561,2.561,0,0,0-.935-3.5C1254.332,519.713,1254.274,519.682,1254.217,519.655Z" transform="translate(-1244.813 -508.599)" fill="#f7a82d"/>
      <g id="Group_2312-2" data-name="Group 2312" transform="translate(1.497 33.732)">
        <g id="Group_2311-2" data-name="Group 2311" transform="translate(9.993 39.727)">
          <path id="Path_6887-2" data-name="Path 6887" d="M1264.931,584.927a.932.932,0,0,1,0,1.765l-4.788,2.764a3.371,3.371,0,0,1-3.054,0h0a.931.931,0,0,1,0-1.765l4.788-2.764A3.377,3.377,0,0,1,1264.931,584.927Z" transform="translate(-1256.454 -583.023)" fill="#1b1715"/>
          <path id="Path_6888-2" data-name="Path 6888" d="M1256.454,583l4.556,1.046c2.723-.72,4.557.141,4.557,1.7l-9.113,2.741Z" transform="translate(-1256.454 -583)" fill="#1b1715"/>
        </g>
        <path id="Path_6889-2" data-name="Path 6889" d="M1246.569,582.719h-.012l.414-5.215,4.138.778c2.723-.72,4.556.138,4.556,1.694h-.009a1.046,1.046,0,0,1-.625.925l-4.781,2.771a3.4,3.4,0,0,1-3.054,0A1.029,1.029,0,0,1,1246.569,582.719Z" transform="translate(-1246.314 -543.191)" fill="#1b1715"/>
        <path id="Path_6890-2" data-name="Path 6890" d="M1248.849,542.675l.076,2.151.628,16.754,6.5.085V561.5l.077-5.355.042-3.3.068-4.871.026-2.006.026-1.872Z" transform="translate(-1246.348 -542.675)" fill="#20788e"/>
        <path id="Path_6891-2" data-name="Path 6891" d="M1246.331,579.127c.714-6.078,2.815-16.723,3.187-17.323.426-.679.144-2.857.834-3.267a4.46,4.46,0,0,1,3.2-.8c1.322.329,2.309,2.635,2.463,3.986s-3.313,17.826-3.313,17.826C1252.132,582.287,1245.91,582.011,1246.331,579.127Z" transform="translate(-1246.31 -542.898)" fill="#20788e"/>
        <path id="Path_6892-2" data-name="Path 6892" d="M1252.616,551.7c2.069,2.606,2.782,6.275,3.5,9.938l.117-8.651A5.729,5.729,0,0,1,1252.616,551.7Z" transform="translate(-1246.404 -542.809)" fill="#1b1b1a" opacity="0.2" style="isolation: isolate"/>
        <path id="Path_6893-2" data-name="Path 6893" d="M1254.608,543.78l.31,4.039,1.3,8.347,1.462,9.4,6.613-.578-2.125-18.324-.136-1.173-5.653-1.368Z" transform="translate(-1246.433 -542.691)" fill="#20788e"/>
        <path id="Path_6894-2" data-name="Path 6894" d="M1257.7,565.848c.367-.711.132-1.478.788-1.933a4.448,4.448,0,0,1,3.126-1.054,3.311,3.311,0,0,1,2.717,2.573c.267,1.337-1.072,16.726-1.419,18.982s-7.153,3.949-6.868.4l.006-.308A120.635,120.635,0,0,1,1257.7,565.848Z" transform="translate(-1246.454 -542.974)" fill="#20788e"/>
      </g>
      <path id="Path_6895-2" data-name="Path 6895" d="M1264.532,526.949s-.159,1.428-.394,3.487c-.467,4.092-1.216,10.684-1.513,13.469a3.353,3.353,0,0,1-1.182,2.266,9.258,9.258,0,0,1-4.615,2.074c-4.794.652-9.124-2.935-8.686-6.26l1-15.347a14.77,14.77,0,0,1,.2-1.78c1.063-6.5,5-6.325,9.233-3.992A13.24,13.24,0,0,1,1264.532,526.949Z" transform="translate(-1244.84 -508.598)" fill="#b93f1c"/>
      <g id="Group_2313-2" data-name="Group 2313" transform="translate(9.729)">
        <path id="Path_6896-2" data-name="Path 6896" d="M1257.331,514.542a13.839,13.839,0,0,0-.108,2.364,4.619,4.619,0,0,0,.69,2.241,3.493,3.493,0,0,0,2.156,1.451,3.253,3.253,0,0,0,.829.077,1.909,1.909,0,0,0,.808-.185,2.115,2.115,0,0,0,.852-.952h0c.044-.088.088-.176.129-.261a19.473,19.473,0,0,0,1.616-6.469,3.9,3.9,0,0,0,.006-.993,2.678,2.678,0,0,0-1.948-2,5.227,5.227,0,0,0-2.893.138,2.5,2.5,0,0,0-.74.317c-.209.147-.376.347-.575.511A14.625,14.625,0,0,0,1257.331,514.542Z" transform="translate(-1254.703 -508.454)" fill="#ffcb96"/>
        <path id="Path_6897-2" data-name="Path 6897" d="M1260.24,518.843c-.077.47-.141.943-.2,1.416a.761.761,0,0,0,0,.305.364.364,0,0,0,.077.144,3.25,3.25,0,0,0,.829.077,1.909,1.909,0,0,0,.808-.185,2.119,2.119,0,0,0,.852-.952h0c-1.046.729-1.507-.108-1.325-2.627C1260.942,518.158,1260.428,517.673,1260.24,518.843Z" transform="translate(-1254.745 -508.562)" fill="#1e1e1d" opacity="0.1" style="isolation: isolate"/>
        <rect id="Rectangle_274-2" data-name="Rectangle 274" width="7.149" height="5.524" transform="translate(0.293 12.541) rotate(-80.964)" fill="#ffcb96"/>
        <path id="Path_6898-2" data-name="Path 6898" d="M1255.958,519.958a1.193,1.193,0,0,0-.356,2.232,4.323,4.323,0,0,0,3.866.614,1.193,1.193,0,0,0,.356-2.232A4.324,4.324,0,0,0,1255.958,519.958Z" transform="translate(-1254.67 -508.603)" fill="#ffcb96"/>
        <path id="Path_6899-2" data-name="Path 6899" d="M1263.03,513.321a2.812,2.812,0,0,0-1.61,2.069c-.233.91-.243,1.872-.473,2.779s-.717,1.146-1.657,1.182c-.658.03-3.995-.523-4.168-1.366-2.188-10.492,4.159-9.561,4.943-9.507,2.77.2,5.831,2.435,4.2,4.38C1264.011,513.16,1263.329,513.207,1263.03,513.321Z" transform="translate(-1254.666 -508.435)" fill="#1b1715"/>
        <path id="Path_6900-2" data-name="Path 6900" d="M1261.393,514.841a.751.751,0,0,1,.523.646,2.941,2.941,0,0,1-.065,1.037,2.708,2.708,0,0,1-.443,1.239.505.505,0,0,1-.3.206.484.484,0,0,1-.482-.246,1.049,1.049,0,0,1-.12-.523,6.9,6.9,0,0,1,.1-1.542,1.331,1.331,0,0,1,.212-.575A.591.591,0,0,1,1261.393,514.841Z" transform="translate(-1254.752 -508.53)" fill="#ffcb96"/>
      </g>
      <path id="Path_6901-2" data-name="Path 6901" d="M1254.4,520.623a1.211,1.211,0,0,0,.059,1.193,2.956,2.956,0,0,0,1.343,1.222,4.964,4.964,0,0,0,1.783.434,3.862,3.862,0,0,0,3.267-1.084,10.664,10.664,0,0,1-.308-1.158,7,7,0,0,1-3.378.252,3.089,3.089,0,0,1-1.467-.5,1.267,1.267,0,0,1-.493-1.379A2.477,2.477,0,0,0,1254.4,520.623Z" transform="translate(-1244.931 -508.601)" fill="#f7a82d"/>
      <path id="Path_6902-2" data-name="Path 6902" d="M1264.269,530.576c-.467,4.092-1.216,10.684-1.513,13.469a3.353,3.353,0,0,1-1.182,2.266,9.258,9.258,0,0,1-4.615,2.074c4.506-4.219,3.755-11.418,2.65-19.553l4.606-.059Z" transform="translate(-1244.971 -508.737)" fill="#1e1e1d" opacity="0.1" style="isolation: isolate"/>
      <path id="Path_6903-2" data-name="Path 6903" d="M1266.056,536.587l-1.022-8.374-.032-.232a2.706,2.706,0,0,0-5.352.8l1.5,7.967c.329,1.355.76,2.788,2.244,2.6S1266.244,538.068,1266.056,536.587Z" transform="translate(-1245.01 -508.691)" fill="#ffb440"/>
      <path id="Path_6904-2" data-name="Path 6904" d="M1264.561,528l-3.216,9.927a2.69,2.69,0,0,0,5.223,1.29l.938-9.948C1266.971,527.543,1265.105,527.183,1264.561,528Z" transform="translate(-1244.699 -509.704)" fill="#ffb440"/>
    </g>
  </g>
</svg>
