<svg xmlns="http://www.w3.org/2000/svg" width="52" height="52" viewBox="0 0 52 52">
  <g id="icon-good" transform="translate(-828 -965)">
    <rect id="area" width="52" height="52" transform="translate(828 965)" fill="rgba(0,0,0,0)"/>
    <g id="Icon_ionic-md-thumbs-up" data-name="Icon ionic-md-thumbs-up" transform="translate(434.652 593.648)">
      <path id="Path_5338" data-name="Path 5338" d="M423.327,415.53l-10.087-.208H413.2a5.243,5.243,0,0,1-5.233-5.223V393.608a5.264,5.264,0,0,1,1.516-3.727l10.827-10.937a2,2,0,0,1,1.416-.592h.005a2,2,0,0,1,1.415.586l1.73,1.733a4.467,4.467,0,0,1,1.3,3.156,1.9,1.9,0,0,1-.01.2l-.052.515a1.809,1.809,0,0,1-.037.23l-1,4.548c.811-.012,1.552-.03,2.234-.046,5.352-.129,8.045-.188,10.051,3.287a2.02,2.02,0,0,1,.228.606c1.094,5.456-2.549,13.007-2.7,13.325C433.54,409.592,428.349,415.53,423.327,415.53Zm-10.1-4.209h.041l10.1.209c2.859,0,6.883-4.412,7.875-6.708.9-1.862,2.97-7.1,2.472-10.545-.69-1.044-1.481-1.12-6.319-1-1.354.032-2.942.069-4.822.069a2,2,0,0,1-1.953-2.431l1.546-7.145a.484.484,0,0,0-.135-.28l-.3-.3-9.4,9.5a1.293,1.293,0,0,0-.365.912v16.493a1.238,1.238,0,0,0,1.213,1.229Z" fill="#522613"/>
      <path id="Path_5337" data-name="Path 5337" d="M400.348,394.089h5.495v19.232h-5.495Z" fill="#522613"/>
    </g>
  </g>
</svg>
