<svg xmlns="http://www.w3.org/2000/svg" width="52" height="52" viewBox="0 0 52 52" class="icon">
  <g transform="translate(-292.509 -146.549)">
    <path d="M311.9,193.235a4.813,4.813,0,1,1,0-9.626h0a4.814,4.814,0,0,1,4.81,4.812h0A4.818,4.818,0,0,1,311.9,193.235Zm0-5a.188.188,0,0,0-.188.187.211.211,0,0,0,.188.187.187.187,0,0,0,0-.374Z" fill="#522613"/>
    <path d="M330.9,193.235a4.813,4.813,0,1,1,0-9.626h0a4.814,4.814,0,0,1,4.81,4.812h0A4.818,4.818,0,0,1,330.9,193.235Zm0-5a.188.188,0,0,0-.188.187.211.211,0,0,0,.188.187.187.187,0,0,0,0-.374Z" fill="#522613"/>
    <path d="M312.6,184.876a6.218,6.218,0,0,1-6.07-5.021L303.4,164.242c-.007-.033-.013-.065-.019-.1l-1.456-7.283h-5.421a2.5,2.5,0,0,1,0-5h7.47a2.5,2.5,0,0,1,2.452,2.01L307.9,161.2h29.7a2.5,2.5,0,0,1,2.456,2.968l-2.989,15.669a6.233,6.233,0,0,1-6.117,5.039l-.127,0H312.6ZM308.9,166.2l2.535,12.678a1.2,1.2,0,0,0,1.236,1h18.2a1.253,1.253,0,0,0,1.286-.994l2.419-12.681Z" fill="#522613"/>
  </g>
</svg>
