<svg xmlns="http://www.w3.org/2000/svg" width="52" height="52" viewBox="0 0 52 52" class="icon">
  <g transform="translate(-103.51 -146.549)">
      <path d="M129.51,177.823a14,14,0,1,1,14-14A14.016,14.016,0,0,1,129.51,177.823Zm0-23a9,9,0,1,0,9,9A9.01,9.01,0,0,0,129.51,154.823Z" fill="#522613"/>
      <path d="M129.01,194.823c-6.871,0-18.5-1.58-18.5-7.5s11.629-7.5,18.5-7.5,18.5,1.58,18.5,7.5S135.881,194.823,129.01,194.823Zm-13.187-7.5c1.378.95,5.885,2.5,13.187,2.5s11.809-1.55,13.187-2.5c-1.378-.951-5.884-2.5-13.187-2.5S117.2,186.372,115.823,187.323Z" fill="#522613"/>
  </g>
</svg>
