<svg xmlns="http://www.w3.org/2000/svg" width="52" height="52" viewBox="0 0 52 52" class="icon">
  <g transform="translate(-197.2 -223.548)">
    <path d="M223.2,271.936a23.222,23.222,0,1,1,23.222-23.222A23.248,23.248,0,0,1,223.2,271.936Zm0-41.444a18.222,18.222,0,1,0,18.222,18.222A18.242,18.242,0,0,0,223.2,230.492Z" fill="#522613"/>
    <path d="M233.116,246.609H213a2.5,2.5,0,0,1,0-5h20.113a2.5,2.5,0,0,1,0,5Z" fill="#522613"/>
    <path  d="M233.116,257.135H213a2.5,2.5,0,0,1,0-5h20.113a2.5,2.5,0,0,1,0,5Z" fill="#522613"/>
  </g>
</svg>
