<svg xmlns="http://www.w3.org/2000/svg" width="52" height="52" viewBox="0 0 52 52">
  <g id="icon-menu" transform="translate(-197.2 -223.548)">
    <g id="Ellipse_68" data-name="Ellipse 68">
      <rect id="area" width="52" height="52" transform="translate(197.2 223.548)" fill="rgba(0,0,0,0)"/>
      <circle id="Ellipse_123" data-name="Ellipse 123" cx="22.366" cy="22.366" r="22.366" transform="translate(200.833 226.348)" fill="none"/>
      <path id="Path_5293" data-name="Path 5293" d="M223.2,271.936a23.222,23.222,0,1,1,23.222-23.222A23.248,23.248,0,0,1,223.2,271.936Zm0-41.444a18.222,18.222,0,1,0,18.222,18.222A18.242,18.242,0,0,0,223.2,230.492Z" fill="#522613"/>
    </g>
    <path id="Path_5294" data-name="Path 5294" d="M233.116,246.609H213a2.5,2.5,0,0,1,0-5h20.113a2.5,2.5,0,0,1,0,5Z" fill="#522613"/>
    <path id="Path_5295" data-name="Path 5295" d="M233.116,257.135H213a2.5,2.5,0,0,1,0-5h20.113a2.5,2.5,0,0,1,0,5Z" fill="#522613"/>
  </g>
</svg>
