<svg xmlns="http://www.w3.org/2000/svg" width="52" height="52" viewBox="0 0 52 52">
  <g id="icon-bell" transform="translate(-199.51 -146.549)">
    <rect id="frame-3" width="52" height="52" transform="translate(199.51 146.549)" fill="none"/>
    <path id="Path_5291" data-name="Path 5291" d="M242.242,184.037h-33.36a2.5,2.5,0,0,1-1.386-4.58s4.446-3.393,4.446-14.6a13.62,13.62,0,0,1,27.241,0c0,11.207,4.446,14.6,4.491,14.63a2.468,2.468,0,0,1,.983,2.79A2.513,2.513,0,0,1,242.242,184.037Zm-28.248-5h23.137c-1.533-2.9-2.948-7.419-2.948-14.18a8.62,8.62,0,0,0-17.241,0C216.942,171.618,215.527,176.132,213.994,179.037Z" fill="#522613"/>
    <path id="Path_5292" data-name="Path 5292" d="M225.553,194.327a6.864,6.864,0,0,1-5.914-3.416,2.5,2.5,0,0,1,4.324-2.51,1.864,1.864,0,0,0,.675.674,1.85,1.85,0,0,0,2.528-.674,2.5,2.5,0,0,1,4.325,2.51,6.875,6.875,0,0,1-5.938,3.416Z" fill="#522613"/>
  </g>
</svg>
