<svg xmlns="http://www.w3.org/2000/svg" xmlns:xlink="http://www.w3.org/1999/xlink" width="52" height="52" viewBox="0 0 52 52">
  <defs>
    <clipPath id="clip-path">
      <rect id="Rectangle_245" data-name="Rectangle 245" width="18.665" height="4.666" fill="none"/>
    </clipPath>
  </defs>
  <g id="icon-comment" transform="translate(-396.868 -362.313)">
    <rect id="area" width="52" height="52" transform="translate(396.868 362.313)" fill="rgba(0,0,0,0)"/>
    <g id="Path_5339" data-name="Path 5339" transform="translate(401.868 369.314)">
      <path id="Path_5340" data-name="Path 5340" d="M413.686,369.588c11.48,0,20.786,8.243,20.786,18.411s-9.307,18.41-20.786,18.41a23.444,23.444,0,0,1-8.77-1.716c-1.561-.615-6.13,4.1-7.816,2.863-1.973-1.66,1.568-6.766.7-7.646A17.09,17.09,0,0,1,392.9,388C392.9,377.831,402.206,369.588,413.686,369.588Z" transform="translate(-392.9 -369.588)" fill="none"/>
      <path id="Path_5341" data-name="Path 5341" d="M413.686,374.254c-8.888,0-16.12,6.165-16.12,13.743a12.384,12.384,0,0,0,3.545,8.634l0,0,0,0a5.214,5.214,0,0,1,1.473,3.662,6.52,6.52,0,0,1,2-.328,5.51,5.51,0,0,1,2.032.38h.006a18.861,18.861,0,0,0,7.058,1.389c8.888,0,16.12-6.165,16.12-13.745s-7.232-13.743-16.12-13.743m0-4.666c11.479,0,20.786,8.242,20.786,18.41s-9.307,18.411-20.786,18.411a23.417,23.417,0,0,1-8.774-1.716.893.893,0,0,0-.322-.055c-1.569,0-4.921,3.126-6.8,3.126a1.16,1.16,0,0,1-.7-.209c-1.973-1.66,1.569-6.761.7-7.646A17.091,17.091,0,0,1,392.9,388C392.9,377.83,402.206,369.588,413.686,369.588Z" transform="translate(-392.9 -369.588)" fill="#522613"/>
    </g>
    <g id="Group_1730" data-name="Group 1730" transform="translate(412.868 386.313)">
      <g id="Group_1729" data-name="Group 1729" clip-path="url(#clip-path)">
        <g id="Repeat_Grid_44" data-name="Repeat Grid 44">
          <g id="Group_1726" data-name="Group 1726">
            <circle id="Ellipse_134" data-name="Ellipse 134" cx="2.333" cy="2.333" r="2.333" fill="#522613"/>
          </g>
          <g id="Group_1727" data-name="Group 1727" transform="translate(6.999)">
            <circle id="Ellipse_134-2" data-name="Ellipse 134-2" cx="2.333" cy="2.333" r="2.333" fill="#522613"/>
          </g>
          <g id="Group_1728" data-name="Group 1728" transform="translate(13.999)">
            <circle id="Ellipse_134-3" data-name="Ellipse 134-3" cx="2.333" cy="2.333" r="2.333" fill="#522613"/>
          </g>
        </g>
      </g>
    </g>
  </g>
</svg>
