<svg xmlns="http://www.w3.org/2000/svg" xmlns:xlink="http://www.w3.org/1999/xlink" width="284.55" height="198.244" viewBox="0 0 284.55 198.244">
  <defs>
    <linearGradient id="linear-gradient" x1="-10.985" y1="0.5" x2="-9.985" y2="0.5" gradientUnits="objectBoundingBox">
      <stop offset="0" stop-color="#846918"/>
      <stop offset="0.144" stop-color="#9d7c1b"/>
      <stop offset="0.41" stop-color="#c79d21"/>
      <stop offset="0.65" stop-color="#e5b425"/>
      <stop offset="0.855" stop-color="#f8c228"/>
      <stop offset="1" stop-color="#ffc829"/>
    </linearGradient>
    <linearGradient id="linear-gradient-2" x1="-1.68" y1="0.461" x2="-1.711" y2="0.545" gradientUnits="objectBoundingBox">
      <stop offset="0" stop-color="#ffc829"/>
      <stop offset="0.244" stop-color="#c99a1b"/>
      <stop offset="0.486" stop-color="#9c730f"/>
      <stop offset="0.7" stop-color="#7c5807"/>
      <stop offset="0.879" stop-color="#684701"/>
      <stop offset="1" stop-color="#614100"/>
    </linearGradient>
    <linearGradient id="linear-gradient-3" x1="-0.086" y1="0.341" x2="0.287" y2="0.871" xlink:href="#linear-gradient"/>
    <linearGradient id="linear-gradient-4" x1="0.089" y1="0.5" x2="1.089" y2="0.5" gradientUnits="objectBoundingBox">
      <stop offset="0" stop-color="#cd9305"/>
      <stop offset="0.033" stop-color="#cf9507"/>
      <stop offset="0.426" stop-color="#e9b322"/>
      <stop offset="0.762" stop-color="#f9c633"/>
      <stop offset="1" stop-color="#ffcd39"/>
    </linearGradient>
    <linearGradient id="linear-gradient-5" x1="-14.656" y1="0.5" x2="-13.656" y2="0.5" xlink:href="#linear-gradient"/>
  </defs>
  <g id="illust-car" transform="translate(-215.765 -234.969)">
    <g id="_6" data-name="6" transform="translate(215.765 234.969)">
      <g id="Group_343" data-name="Group 343" transform="translate(66.595 53.663)">
        <path id="Path_1164" data-name="Path 1164" d="M241.329,253.711c-.556-.754-1.371-1.548-2.286-1.334a1.443,1.443,0,0,0-.809.541c-.389.507-.893,4.877-.905,5.544a19.844,19.844,0,0,0,.809,6.7,3.014,3.014,0,0,0,1.739,1.717c1.541.491,3.141-.812,3.771-2.3a7.63,7.63,0,0,0,.494-5.372A21.679,21.679,0,0,0,241.329,253.711Z" transform="translate(-237.325 -252.342)" fill="#eeb211"/>
        <path id="Path_1165" data-name="Path 1165" d="M237.662,252.787a1.378,1.378,0,0,1,.676-.411c.914-.21,1.73.578,2.286,1.334a21.678,21.678,0,0,1,2.814,5.492,7.63,7.63,0,0,1-.494,5.372C242.836,264.827,238.218,258.22,237.662,252.787Z" transform="translate(-236.62 -252.341)" opacity="0.6" fill="url(#linear-gradient)" style="mix-blend-mode: screen;isolation: isolate"/>
      </g>
      <path id="Path_1166" data-name="Path 1166" d="M243.984,289.485l42.993,24.822,9.915-14.963-5.039-10.9-15.014-10.181Z" transform="translate(-156.82 -144.535)" fill="#26231f"/>
      <path id="Path_1167" data-name="Path 1167" d="M319.943,253.374l15.015,10.181.457.985a20.1,20.1,0,0,1-1.248,19.154l-3.731,5.912L287.09,264.6Z" transform="translate(-66.777 -196.522)" fill="#26231f"/>
      <g id="Group_346" data-name="Group 346" transform="translate(85.951 149.038)">
        <g id="Axonometric_Cylinder" data-name="Axonometric Cylinder">
          <path id="Path_1168" data-name="Path 1168" d="M258.674,285.28c4.216-2.434,8.028-2.638,10.765-1l9.443,5.455-21.526,36.832-9.446-5.452c-2.672-1.6-4.318-4.958-4.318-9.708C243.591,301.786,250.343,290.089,258.674,285.28Z" transform="translate(-243.591 -283.219)" fill="#26231f"/>
          <path id="Cylinder_face" data-name="Cylinder face" d="M246.648,313.17c0,9.622,6.752,13.52,15.083,8.71s15.086-16.507,15.086-26.129-6.755-13.517-15.086-8.707S246.648,303.551,246.648,313.17Z" transform="translate(-237.205 -279.532)" fill="#3f3932"/>
        </g>
        <g id="Group_345" data-name="Group 345" transform="translate(14.343 11.777)" style="isolation: isolate">
          <path id="Path_1169" data-name="Path 1169" d="M258.445,312.612c5.739-3.175,10.474-11.185,10.573-17.891s-4.47-9.569-10.209-6.394-10.474,11.188-10.573,17.894S252.706,315.79,258.445,312.612Z" transform="translate(-248.234 -287.031)" fill="#d8d8d8"/>
          <path id="Path_1170" data-name="Path 1170" d="M257.489,309.636c4.933-2.731,9-9.619,9.091-15.382s-3.846-8.229-8.779-5.5-9.007,9.619-9.094,15.386S252.552,312.367,257.489,309.636Z" transform="translate(-247.25 -285.757)" fill="#a8a8a8"/>
          <g id="Group_344" data-name="Group 344" transform="translate(2.527 4.19)">
            <path id="Path_1171" data-name="Path 1171" d="M254.761,301.6a11.131,11.131,0,0,0,5.14-8.7c.046-3.259-2.175-4.649-4.964-3.107a11.128,11.128,0,0,0-5.137,8.7C249.751,301.755,251.972,303.145,254.761,301.6Z" transform="translate(-247.492 -286.749)" fill="#d8d8d8"/>
            <path id="Path_1172" data-name="Path 1172" d="M249.054,300.534c0,.173,0,.343.006.507.167,3.879,2.972,5.467,6.456,3.54a14.5,14.5,0,0,0,6.694-11.327c.062-4.244-2.829-6.054-6.465-4.046a14.508,14.508,0,0,0-6.69,11.327Zm2.307-.4a8.694,8.694,0,0,1,.383-2.363,11.822,11.822,0,0,1,.995-2.341,10.288,10.288,0,0,1,3.759-3.991c2.789-1.541,5.01-.151,4.964,3.107a11.131,11.131,0,0,1-5.14,8.7c-2.675,1.48-4.828.26-4.955-2.718C251.361,300.4,251.358,300.268,251.361,300.135Z" transform="translate(-249.053 -288.388)" fill="#bebebe"/>
          </g>
        </g>
      </g>
      <g id="Group_349" data-name="Group 349" transform="translate(218.179 72.697)">
        <g id="Axonometric_Cylinder-2" data-name="Axonometric Cylinder">
          <path id="Path_1173" data-name="Path 1173" d="M301.482,260.564c4.216-2.434,8.025-2.638,10.765-1l9.443,5.452L300.163,301.85l-9.446-5.452c-2.672-1.6-4.318-4.958-4.318-9.708C286.4,277.071,293.151,265.374,301.482,260.564Z" transform="translate(-286.399 -258.504)" fill="#26231f"/>
          <path id="Cylinder_face-2" data-name="Cylinder face" d="M289.456,288.455c0,9.619,6.752,13.52,15.083,8.71s15.086-16.507,15.086-26.129-6.755-13.517-15.086-8.707S289.456,278.836,289.456,288.455Z" transform="translate(-280.013 -254.817)" fill="#3f3932"/>
        </g>
        <g id="Group_348" data-name="Group 348" transform="translate(14.343 11.776)" style="isolation: isolate">
          <path id="Path_1174" data-name="Path 1174" d="M301.253,287.9c5.739-3.175,10.474-11.185,10.573-17.894s-4.47-9.566-10.209-6.391-10.474,11.188-10.573,17.894S295.514,291.075,301.253,287.9Z" transform="translate(-291.042 -262.316)" fill="#d8d8d8"/>
          <path id="Path_1175" data-name="Path 1175" d="M300.293,284.921c4.936-2.731,9.007-9.619,9.094-15.386s-3.846-8.226-8.782-5.5-9,9.619-9.091,15.386S295.361,287.652,300.293,284.921Z" transform="translate(-290.058 -261.042)" fill="#a8a8a8"/>
          <g id="Group_347" data-name="Group 347" transform="translate(2.527 4.188)">
            <path id="Path_1176" data-name="Path 1176" d="M297.569,276.89a11.12,11.12,0,0,0,5.137-8.7c.049-3.259-2.171-4.652-4.961-3.107a11.128,11.128,0,0,0-5.137,8.7C292.559,277.041,294.78,278.431,297.569,276.89Z" transform="translate(-290.3 -262.033)" fill="#d8d8d8"/>
            <path id="Path_1177" data-name="Path 1177" d="M291.862,275.82c0,.173,0,.343.006.507.167,3.88,2.972,5.467,6.456,3.54a14.5,14.5,0,0,0,6.694-11.327c.062-4.244-2.832-6.057-6.465-4.046a14.508,14.508,0,0,0-6.691,11.327Zm2.307-.4a8.693,8.693,0,0,1,.383-2.363,11.82,11.82,0,0,1,.995-2.341,10.265,10.265,0,0,1,3.759-3.991c2.789-1.544,5.01-.151,4.961,3.107a11.11,11.11,0,0,1-5.137,8.692c-2.675,1.483-4.828.263-4.957-2.715C294.169,275.684,294.166,275.554,294.169,275.421Z" transform="translate(-291.861 -263.672)" fill="#bebebe"/>
          </g>
        </g>
      </g>
      <path id="Path_1178" data-name="Path 1178" d="M224.05,349.752c4.8-7.407,13.807-15.593,21.146-20.491,20.77-13.863,29.446-21.548,48.282-37.6,6.545-5.578,18.4-16.918,25.31-22.045,2.931-2.175,43.235-26.224,60.366-32.977,0,.287,39.7,2.857,39.7,2.857L433,235.22s2.394-1.016,6.107,1.038c8.609,4.763,44.155,25.471,53.144,30.709a11.324,11.324,0,0,1,3.824,3.583,9.29,9.29,0,0,1,1.2,2.4c.695,2.579,1.807,5.384,1.807,7.555v25.866a11.766,11.766,0,0,1-1.529,5.826c-1.677,2.944-14.351,13.041-18.141,15.864-.062-15.244-4.992-24.742-19.685-16.257-13.915,8.034-19.691,23.868-19.691,39.287L345.921,404.74c-.145-15.015-5.109-24.282-19.676-15.871-13.582,7.839-19.392,23.108-19.667,38.169-5.189,2.907-2.592,1.307-4.358,2.205a35.351,35.351,0,0,1-15.67,3.966c-18.718.17-33.415-7.629-47.046-16.519-9.962-6.5-17.674-13.112-21.449-19.061a15.7,15.7,0,0,1-2.286-8.754C215.932,380.705,215.994,362.188,224.05,349.752Z" transform="translate(-215.765 -234.969)" fill="#db9200"/>
      <path id="Path_1179" data-name="Path 1179" d="M411.761,257.943v.439a11.765,11.765,0,0,1-1.529,5.826c-1.677,2.944-14.351,13.041-18.141,15.864a44.962,44.962,0,0,0-1.038-10.172Zm-154.2,89.027a44.158,44.158,0,0,1,1.041,9.779L352.714,303.1a58.327,58.327,0,0,1,1.174-11.744Z" transform="translate(-128.45 -186.978)" opacity="0.2" fill="url(#linear-gradient-2)" style="mix-blend-mode: screen;isolation: isolate"/>
      <path id="Path_1180" data-name="Path 1180" d="M239.267,398.5c-21.344-13.233-23.315-26.246-23.176-27.324.979-7.589,3-15.932,7.29-22.555,4.8-7.407,13.807-15.593,21.146-20.491,20.773-13.863,29.446-21.548,48.282-37.6,6.545-5.578,18.4-16.918,25.31-22.045,2.931-2.175,54.648-31.445,60.366-32.977,6.885,2.165,36.76,17.946,56.038,30.363a1.731,1.731,0,0,1-.312,3.064c-17.1,6.644-54.018,27.942-60.1,35.321-7.487,9.087-32.869,49.209-32.869,49.209-8.751,8.911-28.828,26.373-37.9,34.941-10.156,10.153-9.538,13.965-10.44,21.851a3,3,0,0,1-2.446,2.638C275.793,415.306,259.323,411.677,239.267,398.5Z" transform="translate(-215.096 -233.838)" fill="#eeb211"/>
      <path id="Path_1181" data-name="Path 1181" d="M308.129,235.51c6.885,2.165,36.76,17.946,56.038,30.363a1.745,1.745,0,0,1-.312,3.064c-14.579,6.888-42.209,22.054-55,31.037-1.26.887-20.612-6.762-35.976-15.593-13.591-7.812-23.59-16.881-23.1-17.214C258.655,261.2,300.982,236.273,308.129,235.51Z" transform="translate(-144.74 -233.838)" fill="#ffc712"/>
      <path id="Path_1182" data-name="Path 1182" d="M287.343,341.791c-38.126,2.91-73.234-29.353-69.15-41.993.457-.853.942-1.683,1.464-2.49,4.8-7.407,13.807-15.593,21.146-20.491,9.625-6.425,16.649-11.524,23.3-16.742,26.336,35.228,73.422,42.079,73.422,42.079-6.623,6.743-27.29,25.3-36.961,33.94A22.446,22.446,0,0,1,287.343,341.791Z" transform="translate(-211.372 -182.525)" opacity="0.6" fill="url(#linear-gradient-3)" style="mix-blend-mode: screen;isolation: isolate"/>
      <path id="Path_1183" data-name="Path 1183" d="M290.154,251.407a.338.338,0,0,1,.4.219c2.947,6.131,2.165,28.55,2.854,36.337-.207.3-.6.9-.6.9-.67-7.6-.3-31.352-2.863-37.06A.3.3,0,0,1,290.154,251.407Z" transform="translate(-60.871 -200.659)" fill="#bc972a" opacity="0.2" style="mix-blend-mode: multiply;isolation: isolate"/>
      <path id="Path_1184" data-name="Path 1184" d="M254.482,293.9l15.067-22.8a3.783,3.783,0,0,0,.556.315l-15.04,22.759v16.077c-.21,0-.417-.006-.636.006V294.074A.308.308,0,0,1,254.482,293.9Z" transform="translate(-135.001 -159.504)" fill="#bc972a" opacity="0.2" style="mix-blend-mode: multiply;isolation: isolate"/>
      <path id="Path_1185" data-name="Path 1185" d="M310.018,263.022c.2-.114.4-.225.605-.34,1.208,12.686,2.3,29.39,2.323,48.418l39.392-22.743c-.018.256-.037.513-.056.766l-39.494,22.8L257.9,343.616c-.015-.238-.037-.466-.056-.7l54.469-31.448C312.307,292.449,311.223,275.735,310.018,263.022Z" transform="translate(-127.867 -177.079)" fill="#bc972a" opacity="0.2" style="mix-blend-mode: multiply;isolation: isolate"/>
      <path id="Path_1186" data-name="Path 1186" d="M288.042,326.525c-19.027-5.2-37.477-16.964-53.172-31.834a4.172,4.172,0,0,1,.173-6.175l48.214-41.687c11.049,10.073,29.134,20.09,52.072,30.064-11.444,19.531-24.912,38.123-35.275,47.2C296.125,327.528,292.706,327.8,288.042,326.525Z" transform="translate(-178.535 -210.194)" fill="#282523"/>
      <path id="Path_1187" data-name="Path 1187" d="M291.462,316.443a14.049,14.049,0,0,0,1.572-.09c3.663-.417,6.592-3.086,8.893-5.971,5.884-7.37,18.406-23.38,23.7-32.269a1.821,1.821,0,0,0-.856-2.582c-21.4-9.5-36.856-18.351-47.046-26.966a2.131,2.131,0,0,0-2.777,0l-37.588,32.683a3,3,0,0,0-1.029,2.184,2.848,2.848,0,0,0,.9,2.162c16.738,15.855,32.819,25.5,50.6,30.36a13.773,13.773,0,0,0,3.626.485Z" transform="translate(-172.797 -207.637)" fill="#35312d"/>
      <path id="Path_1188" data-name="Path 1188" d="M284.4,283.977a29.771,29.771,0,0,1,9.9-9.375c15.481-8.989,34.527-20.352,47.17-26.5a6.547,6.547,0,0,1,4.362-.5c8.229,1.9,28.421,11.951,24.334,14.308-12.856,7.423-96.968,55.479-109.837,62.494-.791.429-1.822-.423-1.362-1.2C262.632,317.04,277.319,294.7,284.4,283.977Z" transform="translate(-125.776 -208.932)" fill="#282523"/>
      <g id="Group_350" data-name="Group 350" transform="translate(134.798 39.398)">
        <path id="Path_1189" data-name="Path 1189" d="M288.917,248.53c7.469,3.151,16.772,8.2,16.813,10.033-2.212,1.279-6.116,3.518-11.154,6.4A59.647,59.647,0,0,0,288.917,248.53Z" transform="translate(-197.759 -246.039)" fill="#35312d"/>
        <path id="Path_1190" data-name="Path 1190" d="M326,267.435c-12.1,6.925-30.024,17.162-47.207,26.947a112.07,112.07,0,0,0-5.566-24.59c13.449-7.849,28.5-16.618,38.9-21.625a4.432,4.432,0,0,1,3.077-.293,42.056,42.056,0,0,1,4.383,1.483A59.519,59.519,0,0,1,326,267.435Z" transform="translate(-230.543 -247.724)" fill="#35312d"/>
        <path id="Path_1191" data-name="Path 1191" d="M283.961,268.421a29.053,29.053,0,0,1,9.6-9.094l7.231-4.216a111.284,111.284,0,0,1,5.464,24.631c-21.22,12.081-40.98,23.284-46.67,26.385l-.185.025C263.149,299.872,277.568,278.117,283.961,268.421Z" transform="translate(-259.405 -232.292)" fill="#35312d"/>
      </g>
      <path id="Path_1192" data-name="Path 1192" d="M254.076,302.172c-.908,2.968-3.954,9.968-5.927,9.548-8.828-1.878-26.462-14.752-29.026-19.691-.9-1.727,2.449-12.507,3.49-12.782a74.578,74.578,0,0,0,15.846,13.483C246.4,297.677,254.468,300.88,254.076,302.172Z" transform="translate(-209.068 -142.479)" fill="#cd9305"/>
      <path id="Path_1193" data-name="Path 1193" d="M237.621,292.342c4.5,2.8,9.1,4.927,12.136,6.474,2.323,1.183,3.728,1.931,3.481,2.968-.6,2.5-2.965,7.629-4.831,9.109-8.868-1.977-26.336-14.74-28.884-19.651-.744-1.436,1.433-9.094,2.789-11.812A74.418,74.418,0,0,0,237.621,292.342Z" transform="translate(-208.23 -142.093)" fill="#35312d"/>
      <path id="Path_1194" data-name="Path 1194" d="M279.578,273.5c-10.292,14.715-29.6,25.375-45.6,31.117C249.214,298.888,268.078,285.177,279.578,273.5Z" transform="translate(-177.716 -154.486)" fill="#eeb211"/>
      <g id="Group_351" data-name="Group 351" transform="translate(17.586 90.69)" opacity="0.6" style="mix-blend-mode: screen;isolation: isolate">
        <path id="Path_1195" data-name="Path 1195" d="M257.656,264.329c-11.988,8.158-30.018,23.787-36.2,36.655C223.71,291.483,239.114,274.164,257.656,264.329Z" transform="translate(-221.458 -264.329)" fill="url(#linear-gradient-4)"/>
      </g>
      <path id="Path_1196" data-name="Path 1196" d="M271.5,273.912l8.151-4.707a1.731,1.731,0,0,0,.834-1.316v-1.155c0-.46-.374-.618-.834-.352l-8.151,4.7a1.732,1.732,0,0,0-.837,1.316v1.158C270.662,274.02,271.036,274.177,271.5,273.912Z" transform="translate(-101.092 -169.622)" fill="#eeb211"/>
      <path id="Path_1197" data-name="Path 1197" d="M287.273,264.8l8.151-4.707a1.726,1.726,0,0,0,.834-1.316v-1.155c0-.46-.374-.618-.834-.352l-8.151,4.707a1.731,1.731,0,0,0-.834,1.316v1.155C286.439,264.911,286.813,265.069,287.273,264.8Z" transform="translate(-68.136 -188.649)" fill="#eeb211"/>
      <g id="Group_352" data-name="Group 352" transform="translate(135.996 101.535)">
        <path id="Path_1198" data-name="Path 1198" d="M278.4,271.985c1.313,1.529.068,6.249-2.076,7.234a4.3,4.3,0,0,1-1.325.29c-4.436.485-10.5.553-12.652-1.909a1.767,1.767,0,0,1-.293-2.107c.426-1.334,1.937-6.984,3.1-7.6C266.158,267.358,277.617,271.077,278.4,271.985Z" transform="translate(-255.51 -267.84)" fill="#eeb211"/>
        <path id="Path_1199" data-name="Path 1199" d="M262.312,271.54c.584-1.7,1.263-3.33,1.859-3.648,1.007-.534,12.467,3.185,13.248,4.093a2.416,2.416,0,0,1,.488,1.245C272.042,274.085,265.314,273.029,262.312,271.54Z" transform="translate(-254.531 -267.84)" opacity="0.6" fill="url(#linear-gradient-5)" style="mix-blend-mode: screen;isolation: isolate"/>
        <path id="Path_1200" data-name="Path 1200" d="M261.693,271.125c.392-.046,4.21-.958,4.88-1.05,2.255-.309,5.4,3.71,4.466,4.822-.247.293-9.992.917-10.3.942C259.173,275.953,259.593,271.375,261.693,271.125Z" transform="translate(-259.793 -263.208)" fill="#282523"/>
      </g>
      <path id="Path_1201" data-name="Path 1201" d="M305.2,260.106l2.873-1.659a1.572,1.572,0,0,0,.76-1.2v-.331c0-.42-.34-.562-.76-.321l-2.873,1.659a1.586,1.586,0,0,0-.763,1.2v.327C304.434,260.205,304.777,260.35,305.2,260.106Z" transform="translate(-30.547 -190.034)" fill="#cb5e12"/>
      <path id="Path_1202" data-name="Path 1202" d="M259.53,286.469l2.873-1.659a1.576,1.576,0,0,0,.763-1.2v-.327c0-.42-.343-.565-.763-.321l-2.873,1.656a1.582,1.582,0,0,0-.76,1.2v.327C258.77,286.568,259.11,286.713,259.53,286.469Z" transform="translate(-125.933 -134.962)" fill="#cb5e12"/>
      <path id="Path_1203" data-name="Path 1203" d="M309.193,248.666a21.972,21.972,0,0,1,.454,16.195c-2.187.494-2.984-8.865-3.215-12.575a2.58,2.58,0,0,1,1.146-2.3Z" transform="translate(-26.385 -206.357)" fill="#911"/>
      <g id="Group_353" data-name="Group 353" transform="translate(1.489 121.257)">
        <path id="Path_1204" data-name="Path 1204" d="M236.4,287.433c-3.469-.429-7.549,9.229-3.759,11.376,3.7,2.1,13.341,4.528,26.431,3.067,5.606-1.819,6.888-13.106.967-13.653A110.427,110.427,0,0,1,236.4,287.433Z" transform="translate(-185.185 -246.664)" fill="#f0fdff"/>
        <path id="Path_1205" data-name="Path 1205" d="M241.133,287.689c9.023-.494,5.245,12.961-.967,13.653C242.161,298.84,243.857,290.216,241.133,287.689Z" transform="translate(-166.283 -246.128)" fill="#cb5e12"/>
        <path id="Path_1206" data-name="Path 1206" d="M223.716,285.885c.448,2.564-1.609,10.669-2.582,11.083-1.2.51-4.921-6.44-4.887-9.993.028-3.061,1.628-10.246,3.469-12.751C220.989,279.85,223.447,284.341,223.716,285.885Z" transform="translate(-216.247 -274.225)" fill="#f0fdff"/>
      </g>
      <path id="Path_1207" data-name="Path 1207" d="M228.512,288.547a2.673,2.673,0,0,1-3.812,1.445,3.515,3.515,0,0,1-1.276-4.383,2.673,2.673,0,0,1,3.812-1.445A3.512,3.512,0,0,1,228.512,288.547Z" transform="translate(-200.387 -132.938)" fill="#4c4742"/>
      <path id="Path_1208" data-name="Path 1208" d="M219.852,287.677l19.313,12.95v6.943l-19.313-12.95Z" transform="translate(-207.226 -124.867)" fill="#fff"/>
    </g>
    <g id="Group_354" data-name="Group 354" transform="translate(386.468 238.642)">
      <path id="Path_1209" data-name="Path 1209" d="M305.859,239.732l52.007,30.027c3.234,2.239-4.562.939-13.647-.426-7.824-1.177-16.343-2.737-16.343-2.737-1.68-.3-5.829-2.425-7.293-3.3-18.6-11.141-36.828-21.5-49.555-27.136l29.354,2.113A10.917,10.917,0,0,1,305.859,239.732Z" transform="translate(-271.029 -236.158)" fill="#282523"/>
    </g>
    <path id="Path_1210" data-name="Path 1210" d="M342.11,274.482l-60.6-34.984,14.144-4.278s2.394-1.016,6.107,1.038c8.609,4.763,44.155,25.471,53.144,30.709a11.324,11.324,0,0,1,3.824,3.583c.068.1.121.213.185.318C352.232,273.157,342.11,274.482,342.11,274.482Z" transform="translate(137.339 0)" fill="#ffc712"/>
    <path id="Path_1211" data-name="Path 1211" d="M253.417,304.366a45.347,45.347,0,0,1-19.852-1.94c-1.43-.55-1-2.326-.9-3.9a1.27,1.27,0,0,1,1.331-1.2,48.207,48.207,0,0,0,19.071-2.4,1.444,1.444,0,0,1,1.915,1.362l-.009,6.144A1.89,1.89,0,0,1,253.417,304.366Z" transform="translate(35.01 125.106)" fill="#35312d"/>
    <path id="Path_1212" data-name="Path 1212" d="M216.189,281.28a44.14,44.14,0,0,0,1.3,7.911,11.6,11.6,0,0,1,.315,2.548c.006,1.106,0,3.589,0,4.877,0,.491-.241.451-.352.256a16.336,16.336,0,0,1-1.677-4.4c0-.111-.018-.219-.015-.331C215.819,289.447,215.868,285.626,216.189,281.28Z" transform="translate(0.002 96.738)" fill="#35312d"/>
  </g>
</svg>
