<svg xmlns="http://www.w3.org/2000/svg" width="164.561" height="220.52" viewBox="0 0 164.561 220.52">
  <g id="Group_1710" data-name="Group 1710" transform="translate(-599.9 -470.098)">
    <g id="Group_1709" data-name="Group 1709" transform="translate(642.374 512.112)">
      <path id="Path_4521" data-name="Path 4521" d="M674.824,1333.3a14.275,14.275,0,0,1,11.588,9.919c3.173,9.235,5.578,9.711,9.513,10s9.906.666,11.44,5.336,4.817,7.653,10.577,7.071,10.577,7.014,5.963,14.6-9.325,1.719-15.671,6.721-6.885,10.9-13.741,10.3c-8.841-.771-10.2-5.187-17.117-4.518s-10.465-4.412-8.723-13.748,3.464-11.825-.445-16.44-12.384-15.531-6.847-23.342Z" transform="translate(-625.693 -1326.849)" fill="#1c2a38"/>
      <g id="Group_1092" data-name="Group 1092" transform="translate(32.383 113.72)">
        <g id="Group_1089" data-name="Group 1089" transform="translate(0)">
          <path id="Path_4522" data-name="Path 4522" d="M664,1740.815s1.372.386.742,2.368a52.73,52.73,0,0,1-4.214,7.65c-1.7,1.945-4.857.084-4.677-1.476.244-2.152,1.983-7.934,3.755-8.542Z" transform="translate(-655.844 -1686.882)" fill="#1c2a38"/>
          <g id="Group_1088" data-name="Group 1088" transform="translate(3.762)">
            <path id="Path_4523" data-name="Path 4523" d="M669.749,1659.606a2.233,2.233,0,0,1-2.193,1.077,2.794,2.794,0,0,1-2.2-1.077v-55.133h11.738s-1.92,19.871-2.642,26.476C673.655,1638.126,669.749,1659.606,669.749,1659.606Z" transform="translate(-665.355 -1604.474)" fill="#ffded0"/>
          </g>
        </g>
        <g id="Group_1091" data-name="Group 1091" transform="translate(15.5)">
          <path id="Path_4524" data-name="Path 4524" d="M712.916,1741.679s-.78.79-.78,3.229c0,1.494,7.534,4.367,7.928,4.538,2.706,1.132,3.592-.686,3.413-2.281-.256-2.223-4.326-4.794-6.228-5.487Z" transform="translate(-705.368 -1687.404)" fill="#1c2a38"/>
          <g id="Group_1090" data-name="Group 1090">
            <path id="Path_4525" data-name="Path 4525" d="M702.517,1659.606a2.23,2.23,0,0,0,2.2,1.077,2.783,2.783,0,0,0,2.191-1.077v-55.133H695.027s1.924,22.623,2.706,30.138C698.391,1640.936,702.517,1659.606,702.517,1659.606Z" transform="translate(-695.027 -1604.474)" fill="#ffded0"/>
          </g>
        </g>
      </g>
      <path id="Path_4526" data-name="Path 4526" d="M698.061,1537.712c3.564-1.436-2.775-19.264-13.553-30.66-3.378-3.574-9.012-11.02-9.012-11.02H660s-3.678,4.722-6.158,14c-2.07,7.731-.986,20.66-.959,30,.007,2.915,3.993,7.264,15.373,5.727a65.766,65.766,0,0,0,14.812-4.382C692.853,1536.8,693.4,1539.592,698.061,1537.712Z" transform="translate(-621.483 -1425.21)" fill="#fadd61"/>
      <path id="Path_4527" data-name="Path 4527" d="M688.227,1399.651s-.225,9.77-6.388,8.024c-6.095-1.733-1.648-8.024-1.648-8.024l1.36-10.058h5.629Z" transform="translate(-637.231 -1360.875)" fill="#ffded0"/>
      <path id="Path_4528" data-name="Path 4528" d="M687.6,1395.556a9.648,9.648,0,0,0,3.52-.7l-.556-5.268h-5.618l-.729,5.325A9.536,9.536,0,0,0,687.6,1395.556Z" transform="translate(-640.612 -1360.875)" fill="#ffded0"/>
      <g id="Group_1093" data-name="Group 1093" transform="translate(35.298 19.999)">
        <path id="Path_4529" data-name="Path 4529" d="M716.792,1370.026c-.359,1.075-1.3,1.723-2.093,1.46a1.846,1.846,0,0,1-.784-2.423c.361-1.067,1.3-1.719,2.091-1.453A1.836,1.836,0,0,1,716.792,1370.026Z" transform="translate(-693.774 -1367.551)" fill="#eda6c7"/>
        <path id="Path_4530" data-name="Path 4530" d="M663.352,1370.026c.363,1.075,1.294,1.723,2.086,1.46a1.836,1.836,0,0,0,.787-2.423c-.354-1.067-1.294-1.719-2.082-1.453A1.841,1.841,0,0,0,663.352,1370.026Z" transform="translate(-663.214 -1367.551)" fill="#eda6c7"/>
      </g>
      <path id="Path_4531" data-name="Path 4531" d="M687.618,1353.784a9.7,9.7,0,0,1-9.692,9.7h0a9.7,9.7,0,0,1-9.7-9.7v-5.059a9.7,9.7,0,0,1,9.7-9.7h0a9.7,9.7,0,0,1,9.692,9.7Z" transform="translate(-630.943 -1330.309)" fill="#ffded0"/>
      <g id="Group_1095" data-name="Group 1095" transform="translate(55.077 -0.001)">
        <path id="Path_4532" data-name="Path 4532" d="M744.609,1340.052l-5.941,22.229a3.99,3.99,0,0,1-.834,1.225l-19.219,18.958a23.872,23.872,0,0,1-2.506-3.906c-1.129-2.07.708-4.084.708-4.084l15.35-16.2c.061-.054.138-.1.2-.152l9.571-19.887A1.615,1.615,0,0,1,744.609,1340.052Z" transform="translate(-715.742 -1330.175)" fill="#ffded0"/>
        <g id="Group_1094" data-name="Group 1094" transform="translate(26.196 0)">
          <path id="Path_4533" data-name="Path 4533" d="M784.635,1328.814s4.927-1.341,4.761-8.484c-.053-1.852-1.732-2.344-2.863,1.6-.768,2.673-2,3.909-2.465,2.186-.172-.7.016-1.034-.445-1.32-1.135-.7-1.66,4.205-1.66,4.205Z" transform="translate(-781.964 -1318.937)" fill="#ffded0"/>
        </g>
      </g>
      <g id="Group_1097" data-name="Group 1097" transform="translate(0 0)">
        <path id="Path_4534" data-name="Path 4534" d="M619.124,1367.1,601.6,1352.883c-.038-.04-.1-.066-.135-.111l-13.424-16.312a1.613,1.613,0,0,0-2.689,1.784l11.855,19.843a3.624,3.624,0,0,0,.847,1.316l19.152,18.229s.991-2.021,2.55-4.815C620.91,1370.758,619.124,1367.1,619.124,1367.1Z" transform="translate(-580.671 -1328.325)" fill="#ffded0"/>
        <g id="Group_1096" data-name="Group 1096">
          <path id="Path_4535" data-name="Path 4535" d="M578.659,1326.914s-4.915-1.392-4.668-8.535c.063-1.854,1.755-2.324,2.84,1.635.743,2.682,1.96,3.927,2.437,2.2.193-.693,0-1.027.468-1.308,1.14-.7,1.613,4.223,1.613,4.223Z" transform="translate(-573.981 -1316.995)" fill="#ffded0"/>
        </g>
      </g>
      <path id="Path_4536" data-name="Path 4536" d="M664.52,1351.056a4.562,4.562,0,0,1,2.188-4,3.153,3.153,0,0,0,1.821-3.555c.585.729,1.576,1.132,3.252.536,3.548-1.26,4.626,3.423,9.19,3.423,1.446,0,2.838,2.838,2.838,2.838-.056.263-.124.514-.182.754,0,0,1.541-.674,2.1-8.134.175-2.293-1.064-6.165-5.332-8.507-9.485-5.2-13.9,1.453-13.9,1.453-2.228-.112-5.374,3.22-4.267,9.132A20.188,20.188,0,0,0,664.52,1351.056Z" transform="translate(-627.185 -1326.324)" fill="#1c2a38"/>
      <path id="Path_4537" data-name="Path 4537" d="M678.181,1415.019s6.952,2.113,8.768,3.453a13.067,13.067,0,0,0-.814,10.828s-.533,2.444-2.073,8.119c-1.091,4.044-2.864,9.647-2.864,9.647H665.7s-3.693-6.805-3.693-11.573c0-2.558.479-10.933.479-10.933a17.239,17.239,0,0,0,3.155-9.541h4.506s-1.768,5.666,3.229,6.583C677.327,1422.32,678.181,1415.019,678.181,1415.019Z" transform="translate(-627.185 -1376.243)" fill="#fadd61"/>
      <path id="Path_4538" data-name="Path 4538" d="M671.051,1495.347c2.623.3,5.173.643,7.718.738a27.826,27.826,0,0,0,7.627-.618.171.171,0,0,1,.205.121.168.168,0,0,1-.063.17,10.2,10.2,0,0,1-3.745,1.655,16.114,16.114,0,0,1-4.081.4,19.963,19.963,0,0,1-4.03-.533,15.884,15.884,0,0,1-3.806-1.4.291.291,0,0,1-.115-.389.283.283,0,0,1,.282-.151Z" transform="translate(-632.457 -1424.79)" fill="#1c2a38"/>
      <g id="Group_1098" data-name="Group 1098" transform="translate(35.471 9.46)">
        <path id="Path_4539" data-name="Path 4539" d="M686.261,1351.914a13.256,13.256,0,0,0-.5-1.362,14.669,14.669,0,0,0-1.874-3.236,14.184,14.184,0,0,0-1.657-1.786c-.324-.281-.687-.531-1.037-.806l-1.166-.707-1.286-.566-1.384-.413a14.709,14.709,0,0,0-2.946-.368c-.226-.01-.552-.044-.7-.042l-.79.043a6.821,6.821,0,0,0-1.486.167,7.5,7.5,0,0,0-1.345.333,8.017,8.017,0,0,0-2.391,1.232,6.288,6.288,0,0,0-.965.843,10.348,10.348,0,0,0-1.425,1.932,13.589,13.589,0,0,0-1.319,3.485,14.28,14.28,0,0,0-.266,1.428,7.96,7.96,0,0,1-.068-1.47,11.964,11.964,0,0,1,.753-3.864,9.349,9.349,0,0,1,1.346-2.354,7.9,7.9,0,0,1,2.317-2.033,9.648,9.648,0,0,1,3.109-1.184,8.291,8.291,0,0,1,1.626-.213l.79-.058c.38-.014.584.018.885.026a16.564,16.564,0,0,1,3.293.48c.529.17,1.051.352,1.56.538q.728.371,1.436.734c.436.3.875.584,1.275.9.37.348.749.669,1.08,1.018a11.659,11.659,0,0,1,1.585,2.165,12.809,12.809,0,0,1,1.369,3.681A7.81,7.81,0,0,1,686.261,1351.914Z" transform="translate(-663.652 -1340.911)" fill="#ffcf33"/>
      </g>
    </g>
    <g id="Group_1711" data-name="Group 1711" transform="translate(599.9 470.098)">
      <path id="Path_5314" data-name="Path 5314" d="M160.273,38,6.345,50.665a2.745,2.745,0,0,1-3.093-2.233L.01,15.379a2.643,2.643,0,0,1,2.608-2.7L156.547.011a2.745,2.745,0,0,1,3.093,2.233L162.882,35.3A2.643,2.643,0,0,1,160.273,38Z" transform="matrix(0.999, 0.035, -0.035, 0.999, 1.769, 0)" fill="#e59807"/>
      <path id="Path_5315" data-name="Path 5315" d="M1.58,7.307a1.735,1.735,0,0,0,.31,3.455l81.451-7.3a1.735,1.735,0,0,0-.31-3.455Z" transform="matrix(0.999, 0.035, -0.035, 0.999, 66.133, 15.267)" fill="#fff"/>
      <path id="Path_5316" data-name="Path 5316" d="M1.58,7.307a1.735,1.735,0,1,0,.31,3.455l81.451-7.3a1.735,1.735,0,1,0-.31-3.455Z" transform="matrix(0.999, 0.035, -0.035, 0.999, 66.699, 25.661)" fill="#fff"/>
      <circle id="Ellipse_129" data-name="Ellipse 129" cx="8.845" cy="8.845" r="8.845" transform="matrix(0.999, 0.035, -0.035, 0.999, 12.69, 21.302)" fill="#fff"/>
    </g>
  </g>
</svg>
