<svg xmlns="http://www.w3.org/2000/svg" xmlns:xlink="http://www.w3.org/1999/xlink" width="79.703" height="83.931" viewBox="0 0 79.703 83.931">
  <defs>
    <linearGradient id="linear-gradient" x1="0.371" y1="0.717" x2="0.756" y2="-0.47" gradientUnits="objectBoundingBox">
      <stop offset="0" stop-color="#fff"/>
      <stop offset="0.088" stop-color="#f9f9f9"/>
      <stop offset="0.199" stop-color="#eaeaea"/>
      <stop offset="0.321" stop-color="#d0d0d0"/>
      <stop offset="0.452" stop-color="#acacac"/>
      <stop offset="0.589" stop-color="#7f7f7f"/>
      <stop offset="0.665" stop-color="#636363"/>
    </linearGradient>
    <linearGradient id="linear-gradient-2" x1="3.326" y1="4.478" x2="4.6" y2="3.891" gradientUnits="objectBoundingBox">
      <stop offset="0" stop-color="#fff"/>
      <stop offset="0.068" stop-color="#f3f3f3"/>
      <stop offset="0.189" stop-color="#d4d4d4"/>
      <stop offset="0.35" stop-color="#a1a1a1"/>
      <stop offset="0.522" stop-color="#646464"/>
    </linearGradient>
    <linearGradient id="linear-gradient-3" x1="-0.568" y1="-4.919" x2="0.653" y2="-4.919" gradientUnits="objectBoundingBox">
      <stop offset="0" stop-color="#fff"/>
      <stop offset="0.643" stop-color="#c6c0b9"/>
    </linearGradient>
    <linearGradient id="linear-gradient-4" y1="0.5" x2="1" y2="0.5" gradientUnits="objectBoundingBox">
      <stop offset="0" stop-color="#fff"/>
      <stop offset="0.112" stop-color="#f3f3f3"/>
      <stop offset="0.312" stop-color="#d4d4d4"/>
      <stop offset="0.578" stop-color="#a1a1a1"/>
      <stop offset="0.863" stop-color="#646464"/>
    </linearGradient>
  </defs>
  <g id="Group_5202" data-name="Group 5202" transform="translate(-30.314 -224.525)">
    <g id="Group_5175" data-name="Group 5175" transform="translate(59.711 244.759)">
      <path id="Path_15506" data-name="Path 15506" d="M58.544,247.258c.348-.177,4.09-1.753,4.6-1.834,0,0,1.66.7,1.776.791s.046.843-.311,1.211-.343.473-.61.388.139-.583.239-.749.005-.6.005-.6a3.5,3.5,0,0,1-.621,1.354c-.2.169-1.139.4-.537-.112a2.221,2.221,0,0,0,.683-1.077,6.468,6.468,0,0,1-1.1,1.415c-.433.3-.449.122-.265-.3a10.568,10.568,0,0,1,.581-1.074,2.359,2.359,0,0,1-1.672,1.77c-.289.112-3.13.422-3.13.422Z" transform="translate(-58.178 -243.61)" fill="#ddac9e"/>
      <g id="Group_5174" data-name="Group 5174" transform="translate(1.517)">
        <rect id="Rectangle_563" data-name="Rectangle 563" width="5.9" height="0.522" transform="translate(0 5.061) rotate(-32.994)" fill="#232121"/>
        <g id="Group_5173" data-name="Group 5173" transform="translate(4.561)">
          <path id="Path_15507" data-name="Path 15507" d="M66.531,243.889l.5.772,0,0c.154.307-.255.9-.94,1.342s-1.387.577-1.606.311h0l-.5-.772Z" transform="translate(-63.937 -243.694)"/>
          <g id="Group_5171" data-name="Group 5171" transform="translate(2.628)">
            <rect id="Rectangle_564" data-name="Rectangle 564" width="0.287" height="0.161" transform="translate(0 0.439) rotate(-33.178)"/>
            <g id="Group_5170" data-name="Group 5170" transform="translate(0.136)">
              <path id="Path_15508" data-name="Path 15508" d="M66.56,244.026l.1-.066a.469.469,0,0,1,.117-.1.476.476,0,0,1,.138-.064l.1-.065.089.137h0c.044.066-.024.19-.151.272s-.269.095-.311.028l-.024-.041h0Z" transform="translate(-66.558 -243.703)"/>
              <path id="Path_15509" data-name="Path 15509" d="M66.57,244.043c.039.064.177.047.307-.037s.2-.2.155-.263-.177-.046-.3.036S66.529,243.98,66.57,244.043Z" transform="translate(-66.558 -243.705)" fill="#232121"/>
            </g>
          </g>
          <g id="Group_5172" data-name="Group 5172" transform="translate(0 0.047)">
            <path id="Path_15510" data-name="Path 15510" d="M63.982,245.553c.184.284.906.145,1.611-.314s1.127-1.058.94-1.342-.905-.145-1.611.312S63.8,245.269,63.982,245.553Z" transform="translate(-63.939 -243.749)" fill="#232121"/>
            <path id="Path_15511" data-name="Path 15511" d="M64.392,245.3c.1.157.569.032,1.044-.28s.782-.687.68-.84-.568-.029-1.044.282S64.292,245.144,64.392,245.3Z" transform="translate(-63.915 -243.729)" fill="#fff"/>
          </g>
        </g>
      </g>
      <path id="Path_15512" data-name="Path 15512" d="M60.433,247.013a4.2,4.2,0,0,0,2.309.2,2.165,2.165,0,0,1,1.236-.234c.175.055.592-.344-.006-.439a24.623,24.623,0,0,0-2.734-.388C60.424,246.136,60.433,247.013,60.433,247.013Z" transform="translate(-58.054 -243.57)" fill="#ddac9e"/>
    </g>
    <path id="Path_15513" data-name="Path 15513" d="M46.727,242.5c2.768.243,6.625,5.157,6.942,5.236.9.225,3.392-.4,6.15-.818.881-.135.423,4.4.423,4.4s-5.007,1.675-8.492,1.044c-1.609-.292-4.9-2.746-5.644-3.84C44.26,245.818,42.847,242.153,46.727,242.5Z" transform="translate(0.767 0.987)" fill="#3357bc"/>
    <g id="Group_5180" data-name="Group 5180" transform="translate(45.951 228.755)">
      <g id="Group_5177" data-name="Group 5177" transform="translate(0 0.559)">
        <path id="Path_15514" data-name="Path 15514" d="M48.641,236.122a6.282,6.282,0,0,1-2.192,2.883l-1.312.8,3.63,3.671s1.05-2.026,2.136-2.431S48.641,236.122,48.641,236.122Z" transform="translate(-45.136 -228.676)" fill="#ddac9e"/>
        <path id="Path_15515" data-name="Path 15515" d="M57.679,234.1c-.17-2.826-5.78-6.4-7.946-2.665-3.955,6.793.162,9.559.162,9.559,1.532.572,1.847.895,3.119.9.621.005,1.274-.618,2.013-1.521.519.087,1.069.291,1.155-.072a11.176,11.176,0,0,1,.209-1.834A8.155,8.155,0,0,0,57.679,234.1Z" transform="translate(-44.978 -229.022)" fill="#ddac9e"/>
        <g id="Group_5176" data-name="Group 5176" transform="translate(2.397 4.236)">
          <path id="Path_15516" data-name="Path 15516" d="M51.2,241.366a2.424,2.424,0,0,0,1.82.4,3.751,3.751,0,0,0,2.01-1.524c.521.085,1.072.292,1.154-.071a11.265,11.265,0,0,1,.212-1.834c.866-1.533,1.83-2.593,1.743-3.921-.009-.142-.491-.73-.525-.874l-2.543-.462c-2.936,3.27-4.65,5.959-4.276,7.7l-3.387,1.8,1.169,1.918S50.406,242.157,51.2,241.366Z" transform="translate(-47.408 -233.08)" fill="#e8c8ba"/>
        </g>
        <path id="Path_15517" data-name="Path 15517" d="M51.086,229.6a3.327,3.327,0,0,1,3.667.019c1.769.915,2.814,1.762,3.354,3.567a1.37,1.37,0,0,1-.468,1.469s-.814-1.156-1.3-1.259-.105.9-1.072,1.409c-.813.424-1.921,1.024-1.921,1.024s-2.148-.258-2.487.319-2.824,1.067-2.824,1.067a6.8,6.8,0,0,1-.014-3.951C48.944,229.764,50.891,229.716,51.086,229.6Z" transform="translate(-44.992 -229.064)" fill="#300901"/>
        <path id="Path_15518" data-name="Path 15518" d="M52.284,235.68c-.214-.387-.491-1.375-1-1.135a2.058,2.058,0,0,0-.54,2.487C51.3,237.838,52.284,235.68,52.284,235.68Z" transform="translate(-44.84 -228.765)" fill="#ddac9e"/>
      </g>
      <g id="Group_5178" data-name="Group 5178" transform="translate(2.565)">
        <path id="Path_15519" data-name="Path 15519" d="M60.329,235.11c1.025.484.868,1.292-.1,1.716s-1.259-.022-1.988-.507a15.205,15.205,0,0,1-1.993-1.6Z" transform="translate(-47.09 -228.194)" fill="#a39d9d"/>
        <path id="Path_15520" data-name="Path 15520" d="M47.567,234.559c.762-.012,5.412-.955,5.412-.955s2.316,2.255,3.535,2.39,3.319-1.253,4.8-.174a12.753,12.753,0,0,0-2.624-1.963,5.5,5.5,0,0,0-2.04-3.988,5.849,5.849,0,0,0-3.611-1.317c-.855.133-2.923.13-4.059,1.941A11.342,11.342,0,0,0,47.567,234.559Z" transform="translate(-47.567 -228.535)" fill="#bfb8b8"/>
      </g>
      <g id="Group_5179" data-name="Group 5179" transform="translate(2.554 0.039)">
        <path id="Path_15521" data-name="Path 15521" d="M48.965,230.522a11.32,11.32,0,0,0-1.408,4.065c.64-.008,4.018-.676,5.081-.889-.341-1.652-.247-3.97.608-5.125a1.519,1.519,0,0,0-.223.008C52.171,228.712,50.1,228.708,48.965,230.522Z" transform="translate(-47.557 -228.572)" fill="#a39d9d"/>
      </g>
    </g>
    <path id="Path_15522" data-name="Path 15522" d="M35.248,293.926c.38,1.066.107,2.2-.044,3.637s-.48,2.514.959,2.844a60.845,60.845,0,0,0,6.8.354s2.866-.646-.121-1.937c-2.319-1-4.036-2.26-3.836-4.979C39.04,293.309,35.248,293.926,35.248,293.926Z" transform="translate(0.261 3.801)"/>
    <path id="Path_15523" data-name="Path 15523" d="M42.5,261.315c-.126,5.3-.583,20.04-.676,20.794-.857,7.1-1.7,16.878-1.7,16.878l-4.366-.1s-1.71-12.235-.133-17.317c.476-1.545-1.8-16.685-1.8-16.685Z" transform="translate(0.193 2.023)" fill="#3357bc"/>
    <path id="Path_15524" data-name="Path 15524" d="M31.249,296.554c-.133,1.193-.784,2.8-.4,4.437.132.569,1.17.808,2.017,1.011.35.084,1.567.907,2.19,1.14,2.27.848,3.361.223,3.784-.032s.559-.884-.456-1.846c-.868-.82-2.112-1.273-2.451-2.048a11.092,11.092,0,0,1-.16-3.188Z" transform="translate(0.023 3.933)" fill="#232121"/>
    <g id="Group_5181" data-name="Group 5181" transform="translate(30.314 258.706)">
      <path id="Path_15525" data-name="Path 15525" d="M42.251,260.643c-.127,5.294-1.131,11.3-3.228,22.118-.7,3.588-2.744,19.051-2.744,19.051l-5.652.161s-.706-12.876,0-19.213a90.109,90.109,0,0,0,.459-16.435,18.843,18.843,0,0,1,2.02-9.4Z" transform="translate(-30.314 -256.924)" fill="#4d87db"/>
    </g>
    <path id="Path_15526" data-name="Path 15526" d="M43.283,263.812,31.265,279.046S31.042,268,30.982,265.56s.83-6.593,2.145-8.463S43.283,263.812,43.283,263.812Z" transform="translate(0.037 1.777)" fill="url(#linear-gradient)" style="mix-blend-mode: multiply;isolation: isolate"/>
    <path id="Path_15527" data-name="Path 15527" d="M50.039,242.162l.532.847-.857,2.027-1.029-1.915Z" transform="translate(1.01 0.97)" fill="#4d87db"/>
    <path id="Path_15528" data-name="Path 15528" d="M47.259,238.68c-2.586.726-5.924,2.655-8.638,7.511-2.14,3.829-6.443,10.912-5.932,13.188.347,1.54,7.443,5.91,8.889,6.192s4.449-4.51,5.211-6.553,3.6-12.673,3.053-14.683A35.388,35.388,0,0,0,47.259,238.68Z" transform="translate(0.128 0.779)" fill="#4d87db"/>
    <path id="Path_15529" data-name="Path 15529" d="M46.917,237.978c.381.83,3.068,5.376,3.068,5.376l-1.478,2.677-3.514-7.051Z" transform="translate(0.807 0.74)" fill="#3357bc"/>
    <path id="Path_15530" data-name="Path 15530" d="M45.476,259.279l-9.7,8.576-3.649-7.782a45.069,45.069,0,0,1,4.5-10.442c.9-1.529,6.375-7.843,6.375-7.843Z" transform="translate(0.1 0.949)" fill="url(#linear-gradient-2)" style="mix-blend-mode: multiply;isolation: isolate"/>
    <path id="Path_15531" data-name="Path 15531" d="M77.877,247.433a8.5,8.5,0,0,1-2.625.1c-.208-.012-.364-.258-1.357-.723-.235-.111-1.931-1.343-1.925-1.029s-.44,1.426-.2,1.405.174.94.491.985c.244.035-2.1.283-.238,2.324.154.167,1.055.03,1.143.05.384.089,4.842-.555,4.842-.555Z" transform="translate(2.254 1.166)" fill="#ddac9e"/>
    <path id="Path_15532" data-name="Path 15532" d="M86.159,237.83c-.733,1.3-4.063,7.787-4.063,7.787l-6.883,2.257s.554,3.886,1.1,4.119c.592.253,7.7-1.749,7.7-1.749l7-8.125Z" transform="translate(2.469 0.732)" fill="#bfb8b8"/>
    <path id="Path_15533" data-name="Path 15533" d="M88.57,235.206c.233-.424,6.309-1.625,7.25-.825a2.342,2.342,0,0,1,.424,2.709c-.283.471-7.958.658-7.958.658Z" transform="translate(3.189 0.527)" fill="#bfb8b8"/>
    <g id="Group_5183" data-name="Group 5183" transform="translate(92.746 231.819)">
      <path id="Path_15534" data-name="Path 15534" d="M89.912,232.072l-.421,6.73s3.085,4.406,4.739,4.676,2-4.118,1.271-4.929c-2.18-2.447-1.609-7.11-1.609-7.11Z" transform="translate(-89.491 -231.439)" fill="#ddac9e"/>
      <g id="Group_5182" data-name="Group 5182" transform="translate(2.539 0.085)">
        <path id="Path_15535" data-name="Path 15535" d="M96.468,237.275c-2.623-1.779-2.284-5.755-2.284-5.755L91.9,232.2l.382,11.85C93.915,244.264,97.363,237.881,96.468,237.275Z" transform="translate(-91.898 -231.52)" fill="#e8c8ba"/>
      </g>
    </g>
    <g id="Group_5184" data-name="Group 5184" transform="translate(90.66 231.796)" style="mix-blend-mode: multiply;isolation: isolate">
      <path id="Path_15536" data-name="Path 15536" d="M89.211,231.853c-.513-.857,3.944-.293,5.3.348l-2.594,10.383a23.881,23.881,0,0,1-4.4-1.806C87.8,240.1,90.116,233.353,89.211,231.853Z" transform="translate(-87.514 -231.417)" fill="url(#linear-gradient-3)"/>
    </g>
    <path id="Path_15537" data-name="Path 15537" d="M91.062,239.158a5.287,5.287,0,0,1-.768-3.294s-1.884-.794-4.533,1.855c-.622.62.245,3.873.112,5.079s1.054,1.691,1.322,3.031.239,10.391,1.443,11.975c.81,1.068.611-.371,5.164-.3,0-4.954-.4-13.885-.666-16.565C93.117,240.737,92.121,240.6,91.062,239.158Z" transform="translate(3.037 0.618)" fill="#bfb8b8"/>
    <path id="Path_15538" data-name="Path 15538" d="M89.1,269.809l-5.529-1.869H46.331l6.884,1.869Z" transform="translate(0.881 2.388)" fill="#414e5b"/>
    <path id="Path_15539" data-name="Path 15539" d="M60.306,268.415c-.05.765.031,1.236-.727,1.131l-4.164-.417a1.667,1.667,0,0,1-1.386-1.588L54,261.583a1.254,1.254,0,0,1,1.38-1.278l4.054.335a1.423,1.423,0,0,1,1.294,1.5Z" transform="translate(1.303 1.968)" fill="#232121"/>
    <rect id="Rectangle_565" data-name="Rectangle 565" width="25.18" height="7.786" transform="translate(61.135 263.727)"/>
    <path id="Path_15540" data-name="Path 15540" d="M59.543,259.7l24.487.226s1.58,1.863,1.354,2.879c-.232,1.044-.338,1.013-.338,1.013h-25.5Z" transform="translate(1.608 1.935)" fill="#232121"/>
    <g id="Group_5186" data-name="Group 5186" transform="translate(88.575 224.525)">
      <path id="Path_15541" data-name="Path 15541" d="M94.335,229.5c-.457-2.312-1.271-4.173-4.582-3.56-4.133.765-3.316,3.236-2.85,6.067s2.751,5.567,4.868,5.223c1.61-.268,2.649-2.243,2.849-4.42a1.867,1.867,0,0,0,.536-1.673C95.044,230.211,94.949,229.46,94.335,229.5Z" transform="translate(-85.485 -224.454)" fill="#e8c8ba"/>
      <g id="Group_5185" data-name="Group 5185" transform="translate(0.674 1.808)">
        <path id="Path_15542" data-name="Path 15542" d="M87.416,233.865c.947,1.912,2.783,3.581,4.346,3.324.073-.012-.246-.023-.246-.023A13.513,13.513,0,0,1,88.65,226.24c-2.238.745-2.72,2.3-2.371,4.36A20.56,20.56,0,0,0,87.416,233.865Z" transform="translate(-86.177 -226.239)" fill="#ddac9e"/>
      </g>
      <path id="Path_15543" data-name="Path 15543" d="M89.417,224.96a3.091,3.091,0,0,0-3.589,2.032,6.37,6.37,0,0,0-.219,2.831,5.389,5.389,0,0,0,.768,2.1l.425.35s-.91-1.732.287-2.807a5.9,5.9,0,0,1,3.007-1.027Z" transform="translate(-85.538 -224.506)" fill="#300901"/>
      <path id="Path_15544" data-name="Path 15544" d="M87.339,229.2a3.807,3.807,0,0,0,2.807.239,2.8,2.8,0,0,1,2.483.261,4.757,4.757,0,0,1,.63,1.114l1.046-.865.737,0a8.692,8.692,0,0,0-.88-3.491,3.93,3.93,0,0,0-2.621-1.792c-.62-.121-3.169-.484-4.273.752C86.938,225.793,87.339,229.2,87.339,229.2Z" transform="translate(-85.45 -224.525)" fill="#662619"/>
    </g>
    <path id="Path_15545" data-name="Path 15545" d="M102.652,304.441l2.114-.05s2.459-.589.836-2.854c-1.212-1.689-1.019-2.321-1.672-3.639-.392-.8-3.333-.307-3.333-.307a13.515,13.515,0,0,1,.137,3.407C99.667,304.728,102.652,304.441,102.652,304.441Z" transform="translate(3.86 4.01)" fill="#232121"/>
    <path id="Path_15546" data-name="Path 15546" d="M100.042,254.73c1.031,2.067,1.92,4.737,2.707,11.228.348,2.87.774,8.747,1.406,11.036,2.506,9.077,1.714,24.9,1.714,24.9l-4.818.216c-4.516-22.83-4.716-23.048-4.341-21.554-.36-1.447-2.889-11.744-2.889-11.744L91.578,255.8Z" transform="translate(3.37 1.661)" fill="#4d87db"/>
    <path id="Path_15547" data-name="Path 15547" d="M93.319,297.53a4.819,4.819,0,0,1-2.894,2.983c-1.067.354-2.38,1.057-2.025,2.476s3.149.787,3.149.787a27.9,27.9,0,0,1,4.558-1.133c1.066,0,1.066-2.958.71-4.378S93.319,297.53,93.319,297.53Z" transform="translate(3.192 4.006)"/>
    <g id="Group_5187" data-name="Group 5187" transform="translate(90.207 255.262)">
      <path id="Path_15548" data-name="Path 15548" d="M88.665,278.374c.577,9.039,3.249,23.719,3.249,23.719l5.5-.19s-.184-15.622-.848-19.128c-.62-3.281-2.152-10.093-2.152-10.093s1.628,8.221,1.99,9.666,4.5,19.923,4.5,19.923l3.612-.344c-.275-2.74-2.836-17.745-4.1-23.365-.737-3.284-2.951-16.692-3.177-22.106L87.085,253.66S88.434,274.751,88.665,278.374Z" transform="translate(-87.085 -253.66)" fill="#3357bc"/>
    </g>
    <path id="Path_15549" data-name="Path 15549" d="M95.886,234.768s.909-.044,3.893,1.2a4.5,4.5,0,0,1,2.709,3.5c.133,1.2-1.484,7.562-1.753,8.9s-2.412,5.7-2.238,8.092c.1,1.337-5.788.927-8.309.952,0-4.955,1.129-16.815,1.522-16.871C95.244,240.032,95.886,234.768,95.886,234.768Z" transform="translate(3.293 0.563)" fill="#d8d8d8"/>
    <path id="Path_15550" data-name="Path 15550" d="M88.576,235.958c-.294,1.328-1.262,7.124-.82,7.419,1.112.742,8.556-.413,8.556-.413l1.069,15.344s-9.71.5-9.709,1.236c0,1.1-.96-4.745-.96-5.927s-1.071-8.293-1.071-8.293,1.257-6.094,1.807-8.8Z" transform="translate(3.043 0.629)" fill="#3357bc"/>
    <path id="Path_15551" data-name="Path 15551" d="M97.433,234.969a59.182,59.182,0,0,0-2.877,7.7,15.517,15.517,0,0,0-.2,2.088s.456,8.442,2.6,13.088c.415.9,2.936-.338,2.936-.338s1.809-2.411,1.522-12.3c-.018-.59-5.36-2.063-5.36-2.652s2.4-7.251,2.4-7.251Z" transform="translate(3.522 0.574)" fill="#4d87db"/>
    <g id="Group_5188" data-name="Group 5188" transform="translate(47.326 270.182)">
      <path id="Path_15552" data-name="Path 15552" d="M60.206,304.9H53.182l-6.742-3.611V267.8l6.742,2.015h7.024Z" transform="translate(-46.439 -267.802)" fill="#414e5b"/>
      <rect id="Rectangle_566" data-name="Rectangle 566" width="35.886" height="35.088" transform="translate(6.77 2.015)" fill="#758b9b"/>
    </g>
    <g id="Group_5189" data-name="Group 5189" transform="translate(56.65 253.684)">
      <path id="Path_15553" data-name="Path 15553" d="M80.737,260.514a.676.676,0,0,1-.676.677h-20.3c-.373,0-2.948-1.444-2.948-1.821v-6.53a.677.677,0,0,1,.677-.676h22.57a.676.676,0,0,1,.676.676Z" transform="translate(-55.192 -252.164)"/>
      <path id="Path_15554" data-name="Path 15554" d="M59.776,261.146c0-4.113-.62-9.042-2.43-8.943-1.6.089-2.069,4.491-2.069,8.6Z" transform="translate(-55.277 -252.162)" fill="#232121"/>
    </g>
    <g id="Group_5190" data-name="Group 5190" transform="translate(55.703 264.556)">
      <path id="Path_15555" data-name="Path 15555" d="M58.83,264.938a2.437,2.437,0,0,1-1.473,2.4,6.566,6.566,0,0,1-.967.121c-1.074,0-1.45-1.155-1.45-2.519,0-1.054.229-2.014.962-2.367a3.1,3.1,0,0,1,.983-.1A2.254,2.254,0,0,1,58.83,264.938Z" transform="translate(-54.348 -262.469)" fill="#3357bc"/>
      <path id="Path_15556" data-name="Path 15556" d="M58.268,264.991a2.256,2.256,0,0,1-1.945,2.472,2.542,2.542,0,0,1,0-4.941A2.254,2.254,0,0,1,58.268,264.991Z" transform="translate(-54.379 -262.466)" fill="#4d87db"/>
      <path id="Path_15557" data-name="Path 15557" d="M57.1,264.859a.966.966,0,1,1-.92-1.22A1.1,1.1,0,0,1,57.1,264.859Z" transform="translate(-54.332 -262.405)" fill="#3357bc"/>
    </g>
    <g id="Group_5196" data-name="Group 5196" transform="translate(59.739 249.914)">
      <g id="Group_5191" data-name="Group 5191" transform="translate(4.861 2.072)">
        <rect id="Rectangle_567" data-name="Rectangle 567" width="1.133" height="2.572" fill="#758b9b"/>
        <rect id="Rectangle_568" data-name="Rectangle 568" width="1.131" height="2.572" transform="translate(2.419)" fill="#758b9b"/>
        <rect id="Rectangle_569" data-name="Rectangle 569" width="1.131" height="2.572" transform="translate(4.836)" fill="#758b9b"/>
      </g>
      <g id="Group_5195" data-name="Group 5195">
        <g id="Group_5194" data-name="Group 5194">
          <g id="Group_5192" data-name="Group 5192" transform="translate(2.932)">
            <path id="Rectangle_570" data-name="Rectangle 570" d="M.584,0H8.831a.584.584,0,0,1,.584.584v1.61a.585.585,0,0,1-.585.585H.585A.585.585,0,0,1,0,2.194V.584A.584.584,0,0,1,.584,0Z" fill="#758b9b"/>
          </g>
          <g id="Group_5193" data-name="Group 5193" transform="translate(0 0.695)">
            <rect id="Rectangle_571" data-name="Rectangle 571" width="4.938" height="1.389" fill="#758b9b"/>
          </g>
        </g>
      </g>
    </g>
    <path id="Path_15558" data-name="Path 15558" d="M54.856,268.381a24.837,24.837,0,0,1-3.248-.482h0c-1.646-.427-3.5-.856-4.071-2.437h0a2.617,2.617,0,0,1-.1-.689h0c.008-1.3,1.041-2.232,2.572-2.8h0a22.918,22.918,0,0,1,6.839-1.088h0a.68.68,0,0,1,.707.647h0a.678.678,0,0,1-.648.7h0a21.688,21.688,0,0,0-6.414,1h0c-1.354.532-1.711,1.077-1.7,1.537h0a1.2,1.2,0,0,0,.05.327h0c-.017.4,1.485,1.186,3.058,1.476h0a23.83,23.83,0,0,0,3.052.456h0a.68.68,0,0,1,.627.724h0a.677.677,0,0,1-.672.628h0l-.052,0Z" transform="translate(0.942 2)" fill="#232121"/>
    <g id="Group_5198" data-name="Group 5198" transform="translate(71.995 244.444)">
      <path id="Path_15559" data-name="Path 15559" d="M71.694,243.75a.5.5,0,0,0-.275-.273.584.584,0,0,0-.068-.021,1.175,1.175,0,0,0-.761.028,1.3,1.3,0,0,0-.634.4.484.484,0,0,0-.06.071.455.455,0,0,0-.055.38s.787,2.443,1.03,3.262c.023.061.044.061.047.065.541.333.477.541.493.74.006.056-.119.119-.138.2a1.031,1.031,0,0,0,.094.285h0a1.137,1.137,0,0,0,.416-.074c.03.025.061.05.062.05a.511.511,0,0,0,.132.047.4.4,0,0,1,.135.121l1.56,4.894.012.43h0l0,0,.3.513.383-.12-.055-.594-.006,0-.227-.353-1.554-4.9c.008,0,0-.121.037-.175a.762.762,0,0,0,.082-.113l0,0h0a.389.389,0,0,1,.022-.075,1.235,1.235,0,0,0,.4-.18v0a1.067,1.067,0,0,0-.109-.294c-.06-.054-.167.009-.222-.08-.106-.169-.272-.293-.016-.874a.154.154,0,0,0,0-.092C72.453,246.2,71.694,243.75,71.694,243.75Z" transform="translate(-69.822 -243.406)" fill="#4d87db"/>
      <g id="Group_5197" data-name="Group 5197" transform="translate(0.689)">
        <path id="Path_15560" data-name="Path 15560" d="M74.279,254.152l-.006,0-.227-.353-1.554-4.9c.008,0,0-.121.037-.175a.762.762,0,0,0,.082-.113l0,0h0a.389.389,0,0,1,.022-.075,1.235,1.235,0,0,0,.4-.18v0a1.067,1.067,0,0,0-.109-.294c-.06-.054-.167.009-.222-.08-.106-.169-.272-.293-.016-.874a.154.154,0,0,0,0-.092c-.271-.811-1.031-3.262-1.031-3.262a.5.5,0,0,0-.275-.273c-.026-.009-.051-.016-.068-.021a1.175,1.175,0,0,0-.761.028c-.027.008-.053.019-.079.027l3.7,11.285.159-.051Z" transform="translate(-70.475 -243.406)" fill="#3357bc"/>
      </g>
    </g>
    <path id="Path_15561" data-name="Path 15561" d="M72.38,250.739l.712-.059a.5.5,0,0,0,.471-.3c.062-.132-.228-.3-.434-.3-.066,0-.687-.017-.687-.017a1.311,1.311,0,0,0,.416-.075c.377-.141.712-.3.591-.6s-.8.007-1.074-.05c.232-.06.909-.359.807-.6s-.931-.19-1-.2a2.266,2.266,0,0,1-.383-.154,3.311,3.311,0,0,0,.67-.13.29.29,0,0,0,.041-.406c-.1-.192-.743-.244-.88-.251s-.6-.3-.788-.309-.25.535-.281.672.3.234.29.369-.1.51.026.677.362.393.362.393a2.048,2.048,0,0,0,.1.589c.1.3.331.268.327.452S72.38,250.739,72.38,250.739Z" transform="translate(2.214 1.253)" fill="#e8c8ba"/>
    <g id="Group_5199" data-name="Group 5199" transform="translate(41.298 241.876)">
      <path id="Path_15562" data-name="Path 15562" d="M55.937,264.229a15.084,15.084,0,0,0-1.989-1.741c-.074-.079-.683-.724-1.14-1.264.7.09,1.747.123,1.521-.146a11.35,11.35,0,0,0-2.737-.765l-3.325-1.193c.723,2.118-.761,1.158.063,2.334.166.234,3.291,2.368,3.589,2.529s2.064,1.292,2.363,1.068c.116-.084-.875-.645-1.282-.869.516.279,2.045,1.083,2.066.848.026-.257-1.773-1.422-1.773-1.422a17.72,17.72,0,0,0,1.788,1.027c.613.25.693.053.316-.2-.306-.2-1.746-1.289-1.746-1.289s.668.448,1.326.857C55.7,264.456,55.985,264.5,55.937,264.229Z" transform="translate(-40.321 -239.973)" fill="#ddac9e"/>
      <path id="Path_15563" data-name="Path 15563" d="M42.907,241.287a5.386,5.386,0,0,0-1.594,2.737c-.231,1.962-1.2,9.99,0,12.091,2.545,4.489,3.78,5.614,7.669,7.158,1.34.532,2.589-2.579,2.589-2.579s-4.235-6.442-4.332-7.357-.07-9.068-.38-10.3A2.737,2.737,0,0,0,42.907,241.287Z" transform="translate(-40.725 -240.971)" fill="#3357bc"/>
    </g>
    <path id="Path_15564" data-name="Path 15564" d="M101.642,242.762,88.327,269.986s-.9-13.6-1.242-15.292,11.736-16.758,11.736-16.758Z" transform="translate(3.122 0.738)" fill="url(#linear-gradient-4)" style="mix-blend-mode: multiply;isolation: isolate"/>
    <g id="Group_5201" data-name="Group 5201" transform="translate(70.205 237.773)">
      <g id="Group_5200" data-name="Group 5200" transform="translate(0 20.199)">
        <path id="Path_15565" data-name="Path 15565" d="M76.823,262.74a.705.705,0,0,1-.677.73H72.252a.706.706,0,0,1-.678-.73v-4.392a.707.707,0,0,1,.678-.733h3.893a.707.707,0,0,1,.677.733Z" transform="translate(-67.935 -256.152)" fill="#414e5b"/>
        <path id="Path_15566" data-name="Path 15566" d="M77.8,258.058a.788.788,0,0,1-.836.73H71.529a.789.789,0,0,1-.837-.73v-1.1a.79.79,0,0,1,.837-.732h5.437a.789.789,0,0,1,.836.732Z" transform="translate(-67.984 -256.228)" fill="#758b9b"/>
        <path id="Path_15567" data-name="Path 15567" d="M80.651,268.7a.705.705,0,0,1-.676.733H68.8a.706.706,0,0,1-.678-.733V263.03a.705.705,0,0,1,.678-.731H79.975a.7.7,0,0,1,.676.731Z" transform="translate(-68.125 -255.894)" fill="#bfb8b8"/>
      </g>
      <path id="Path_15568" data-name="Path 15568" d="M76.661,257.04a.564.564,0,0,1-.562.564h0a.564.564,0,0,1-.565-.564v-2.707a.563.563,0,0,1,.565-.564h0a.563.563,0,0,1,.562.564Z" transform="translate(-67.718 -236.164)" fill="#758b9b"/>
      <path id="Path_15569" data-name="Path 15569" d="M74.843,257.04a.563.563,0,0,1-.563.564h0a.565.565,0,0,1-.565-.564v-2.707a.565.565,0,0,1,.565-.564h0a.563.563,0,0,1,.563.564Z" transform="translate(-67.818 -236.164)" fill="#758b9b"/>
      <path id="Path_15570" data-name="Path 15570" d="M73.024,257.04a.564.564,0,0,1-.563.564h0a.565.565,0,0,1-.565-.564v-2.707a.565.565,0,0,1,.565-.564h0a.563.563,0,0,1,.563.564Z" transform="translate(-67.918 -236.164)" fill="#758b9b"/>
      <path id="Path_15571" data-name="Path 15571" d="M81.835,262.842a.338.338,0,0,1,.107-.468h0c.866-.53,1.359-2.03,1.353-3.823h0a11.99,11.99,0,0,0-1.244-5.275h0c-.8-1.534-1.913-2.537-3.2-2.531h0a2.746,2.746,0,0,0-.552.059h0c-2.026.42-1.569,2.228-1.893,3.278h0v0a.34.34,0,0,1-.433.206h0a.336.336,0,0,1-.206-.433h0c.234-.532-.225-3.177,2.392-3.717h0a3.252,3.252,0,0,1,.691-.075h0c3.341.09,5.094,4.789,5.12,8.484h0c-.007,1.891-.459,3.607-1.668,4.4h0a.332.332,0,0,1-.18.053h0a.339.339,0,0,1-.287-.157Z" transform="translate(-67.706 -236.368)" fill="#e26713"/>
      <path id="Path_15572" data-name="Path 15572" d="M79.75,263.02a.339.339,0,0,1,.068-.475h0c.579-.383,1.663-3.058,1.632-5.655h0c0-2.05-.6-4.046-2.289-5.128h0a4.33,4.33,0,0,0-2.29-.83h0c-1.518,0-2.252,1.551-2.264,3.029h0a.341.341,0,0,1-.34.34h0a.34.34,0,0,1-.338-.34h0c0-1.639.859-3.685,2.941-3.706h0a5,5,0,0,1,2.658.939h0c1.968,1.268,2.6,3.533,2.6,5.7h0c-.028,2.795-.965,5.435-1.9,6.2h0a.335.335,0,0,1-.2.068h0a.339.339,0,0,1-.273-.136Z" transform="translate(-67.806 -236.357)" fill="#c14e00"/>
      <path id="Path_15573" data-name="Path 15573" d="M81.515,263.126a.338.338,0,0,1-.29-.381h0a3.623,3.623,0,0,0,.031-.482h0c.008-1.719-1.1-4.5-2.6-6.789h0c-1.471-2.306-3.388-4.09-4.614-4.047h0a1.281,1.281,0,0,0-.218.019h0c-.871.046-.931,1.72-1.048,2.551h0v0a.336.336,0,0,1-.4.263h0a.336.336,0,0,1-.266-.4h0c.164-.577-.054-2.725,1.6-3.087h0a2.085,2.085,0,0,1,.329-.027h0c1.77.041,3.627,2,5.18,4.355h0c1.536,2.377,2.7,5.182,2.706,7.158h0a4.362,4.362,0,0,1-.037.574h0a.338.338,0,0,1-.334.292h0a.356.356,0,0,1-.046,0Z" transform="translate(-67.906 -236.33)" fill="#e26713"/>
      <path id="Path_15574" data-name="Path 15574" d="M86.892,252c-.978.348-4.566.435-5,.8a12.41,12.41,0,0,1-1.594.97l-.27,1.775s.268.229.506-.223a5.867,5.867,0,0,1,.569-.863,11.161,11.161,0,0,0-.71,1.358c-.2.769.077.925.077.925s.159.109.707-1.127a1.134,1.134,0,0,1,.465-.581,1.935,1.935,0,0,0-.285.4c-.11.246-.651,1.449-.491,1.676s.46-.152.73-.654a7.756,7.756,0,0,1,.62-.854l-.678,1.375s-.3.517.3.336.882-1.155,1.288-1.422,2.489-.543,3.845-1.551C88.078,253.507,86.892,252,86.892,252Z" transform="translate(-67.47 -236.262)" fill="#ddac9e"/>
      <path id="Path_15575" data-name="Path 15575" d="M99.079,237.082c-.9,1.805-4.063,7.841-6.262,9.787-1.829,1.619-8.379,6.011-8.379,6.011l1.99,4.442s8.834-5.077,9.943-6.389c1.862-2.2,6.433-7.082,6.207-11.369C102.458,237.3,99.079,237.082,99.079,237.082Z" transform="translate(-67.228 -237.082)" fill="#d8d8d8"/>
    </g>
  </g>
</svg>
