<svg id="billboard" xmlns="http://www.w3.org/2000/svg" width="1400" height="810" viewBox="0 0 1400 810">
  <g id="light" transform="translate(0 0)">
    <g id="Group_129" data-name="Group 129" transform="translate(185.498 591.606)">
      <rect id="Rectangle_13" data-name="Rectangle 13" width="41.421" height="154.785" transform="translate(0 29.436) rotate(-35.541)" fill="#4e4b64"/>
      <rect id="Rectangle_14" data-name="Rectangle 14" width="41.42" height="181.06" transform="translate(177.761 177.313) rotate(-144.459)" fill="#4e4b64"/>
      <path id="Rectangle_15" data-name="Rectangle 15" d="M0,0H114.719a0,0,0,0,1,0,0V206.072a7.684,7.684,0,0,1-7.684,7.684H7.684A7.684,7.684,0,0,1,0,206.072V0A0,0,0,0,1,0,0Z" transform="translate(77.394 4.638)" fill="#4e4b64"/>
      <rect id="Rectangle_16" data-name="Rectangle 16" width="76.469" height="213.756" transform="translate(103.136 4.638)" fill="#615d7b"/>
      <rect id="Rectangle_17" data-name="Rectangle 17" width="19.117" height="211.032" rx="9.558" transform="translate(153.053)" fill="#7a7694"/>
    </g>
    <g id="Group_130" data-name="Group 130" transform="translate(937.361 591.606)">
      <rect id="Rectangle_18" data-name="Rectangle 18" width="41.42" height="154.784" transform="translate(0 29.436) rotate(-35.541)" fill="#4e4b64"/>
      <rect id="Rectangle_19" data-name="Rectangle 19" width="41.42" height="181.06" transform="translate(177.76 177.313) rotate(-144.459)" fill="#4e4b64"/>
      <path id="Rectangle_20" data-name="Rectangle 20" d="M0,0H114.719a0,0,0,0,1,0,0V205.133a8.623,8.623,0,0,1-8.623,8.623H8.623A8.623,8.623,0,0,1,0,205.133V0A0,0,0,0,1,0,0Z" transform="translate(77.394 4.638)" fill="#4e4b64"/>
      <rect id="Rectangle_21" data-name="Rectangle 21" width="76.469" height="213.756" transform="translate(103.136 4.638)" fill="#615d7b"/>
      <path id="Rectangle_22" data-name="Rectangle 22" d="M8.558,0h0a8.559,8.559,0,0,1,8.559,8.559V200.475a8.558,8.558,0,0,1-8.558,8.558h0A8.558,8.558,0,0,1,0,200.474V8.558A8.558,8.558,0,0,1,8.558,0Z" transform="translate(154.053)" fill="#7a7694"/>
    </g>
    <g id="Group_135" data-name="Group 135" transform="translate(0 39.929)">
      <rect id="Rectangle_23" data-name="Rectangle 23" width="1328.33" height="583.361" transform="translate(58.959)" fill="#4e4b64"/>
      <rect id="Rectangle_24" data-name="Rectangle 24" width="1373.034" height="38.102" transform="translate(14.255 616.979)" fill="#4e4b64"/>
      <rect id="Rectangle_25" data-name="Rectangle 25" width="29.884" height="655.081" fill="#4e4b64"/>
      <rect id="Rectangle_26" data-name="Rectangle 26" width="76.203" height="31.378" fill="#4e4b64"/>
      <rect id="Rectangle_27" data-name="Rectangle 27" width="76.203" height="31.378" transform="translate(1355.912 655.081) rotate(-90)" fill="#4e4b64"/>
      <g id="Group_131" data-name="Group 131" transform="translate(20.87 12.653)">
        <path id="Path_425" data-name="Path 425" d="M-474.492,331.206l-6.744,9.712-37.383-53.838,6.744-9.712Z" transform="translate(518.618 -277.368)" fill="#4e4b64"/>
        <path id="Path_426" data-name="Path 426" d="M-474.51,395.673l-6.7,9.645-37.383-53.839,6.7-9.644Z" transform="translate(518.613 -290.184)" fill="#4e4b64"/>
        <path id="Path_427" data-name="Path 427" d="M-474.528,460.14l-6.65,9.577-37.382-53.838,6.649-9.577Z" transform="translate(518.607 -304.517)" fill="#4e4b64"/>
        <path id="Path_428" data-name="Path 428" d="M-474.545,524.607l-6.6,9.508-37.383-53.838,6.6-9.508Z" transform="translate(518.601 -318.091)" fill="#4e4b64"/>
        <path id="Path_429" data-name="Path 429" d="M-474.563,589.074l-6.555,9.44L-518.5,544.676l6.555-9.44Z" transform="translate(518.595 -331.664)" fill="#4e4b64"/>
        <path id="Path_430" data-name="Path 430" d="M-474.581,653.541l-6.508,9.372-37.383-53.838,6.508-9.373Z" transform="translate(518.589 -345.238)" fill="#4e4b64"/>
        <path id="Path_431" data-name="Path 431" d="M-474.6,718.008l-6.461,9.3-37.382-53.839,6.461-9.3Z" transform="translate(518.583 -358.811)" fill="#4e4b64"/>
        <path id="Path_432" data-name="Path 432" d="M-474.616,782.474l-6.414,9.237-37.383-53.838,6.414-9.237Z" transform="translate(518.578 -372.385)" fill="#4e4b64"/>
        <path id="Path_433" data-name="Path 433" d="M-474.634,846.941-481,856.11l-37.383-53.838,6.366-9.169Z" transform="translate(518.572 -385.958)" fill="#4e4b64"/>
        <path id="Path_434" data-name="Path 434" d="M-474.652,911.408l-6.319,9.1-37.383-53.839,6.319-9.1Z" transform="translate(518.566 -399.531)" fill="#4e4b64"/>
        <path id="Path_435" data-name="Path 435" d="M-474.669,975.875l-6.272,9.033-37.382-53.839,6.272-9.033Z" transform="translate(518.56 -413.86)" fill="#4e4b64"/>
        <path id="Path_436" data-name="Path 436" d="M-474.687,1040.342l-6.225,8.965-37.383-53.839,6.225-8.965Z" transform="translate(518.554 -426.676)" fill="#4e4b64"/>
      </g>
      <g id="Group_132" data-name="Group 132" transform="translate(20.87 12.653)">
        <path id="Path_437" data-name="Path 437" d="M-518.618,331.206l6.744,9.712,37.383-53.838-6.744-9.712Z" transform="translate(518.618 -277.368)" fill="#4e4b64"/>
        <path id="Path_438" data-name="Path 438" d="M-518.589,395.673l6.7,9.645,37.383-53.839-6.7-9.644Z" transform="translate(518.613 -290.184)" fill="#4e4b64"/>
        <path id="Path_439" data-name="Path 439" d="M-518.559,460.14l6.649,9.577,37.383-53.838-6.65-9.577Z" transform="translate(518.607 -304.517)" fill="#4e4b64"/>
        <path id="Path_440" data-name="Path 440" d="M-518.53,524.607l6.6,9.508,37.383-53.838-6.6-9.508Z" transform="translate(518.601 -318.091)" fill="#4e4b64"/>
        <path id="Path_441" data-name="Path 441" d="M-518.5,589.074l6.555,9.44,37.382-53.839-6.555-9.44Z" transform="translate(518.595 -331.664)" fill="#4e4b64"/>
        <path id="Path_442" data-name="Path 442" d="M-518.472,653.541l6.508,9.372,37.383-53.838-6.508-9.373Z" transform="translate(518.589 -345.238)" fill="#4e4b64"/>
        <path id="Path_443" data-name="Path 443" d="M-518.442,718.008l6.461,9.3,37.383-53.839-6.461-9.3Z" transform="translate(518.583 -358.811)" fill="#4e4b64"/>
        <path id="Path_444" data-name="Path 444" d="M-518.412,782.474l6.414,9.237,37.383-53.838-6.414-9.237Z" transform="translate(518.578 -372.385)" fill="#4e4b64"/>
        <path id="Path_445" data-name="Path 445" d="M-518.383,846.941l6.366,9.168,37.383-53.838L-481,793.1Z" transform="translate(518.572 -385.958)" fill="#4e4b64"/>
        <path id="Path_446" data-name="Path 446" d="M-518.354,911.408l6.319,9.1,37.383-53.839-6.319-9.1Z" transform="translate(518.566 -399.531)" fill="#4e4b64"/>
        <path id="Path_447" data-name="Path 447" d="M-518.324,975.875l6.272,9.033,37.383-53.839-6.272-9.033Z" transform="translate(518.56 -413.86)" fill="#4e4b64"/>
        <path id="Path_448" data-name="Path 448" d="M-518.295,1040.342l6.225,8.965,37.382-53.839-6.225-8.965Z" transform="translate(518.554 -426.676)" fill="#4e4b64"/>
      </g>
      <g id="Group_133" data-name="Group 133" transform="translate(21.13 572.48)">
        <path id="Path_449" data-name="Path 449" d="M-518.295,1034.578l6.225,8.006,37.382-48.075-6.225-8.006Z" transform="translate(518.295 -986.503)" fill="#4e4b64"/>
        <path id="Path_450" data-name="Path 450" d="M-465.235,1034.578l6.225,8.006,37.383-48.075-6.225-8.006Z" transform="translate(507.747 -986.503)" fill="#4e4b64"/>
        <path id="Path_451" data-name="Path 451" d="M-412.175,1034.578l6.225,8.006,37.383-48.075-6.225-8.006Z" transform="translate(497.199 -986.503)" fill="#4e4b64"/>
        <path id="Path_452" data-name="Path 452" d="M-359.115,1034.578l6.225,8.006,37.383-48.075-6.225-8.006Z" transform="translate(486.651 -986.503)" fill="#4e4b64"/>
        <path id="Path_453" data-name="Path 453" d="M-306.055,1034.578l6.225,8.006,37.383-48.075-6.225-8.006Z" transform="translate(476.103 -986.503)" fill="#4e4b64"/>
        <path id="Path_454" data-name="Path 454" d="M-253,1034.578l6.225,8.006,37.383-48.075-6.225-8.006Z" transform="translate(465.555 -986.503)" fill="#4e4b64"/>
        <path id="Path_455" data-name="Path 455" d="M-199.935,1034.578l6.225,8.006,37.383-48.075-6.225-8.006Z" transform="translate(452.092 -986.503)" fill="#4e4b64"/>
        <path id="Path_456" data-name="Path 456" d="M-146.875,1034.578l6.225,8.006,37.383-48.075-6.225-8.006Z" transform="translate(441.058 -986.503)" fill="#4e4b64"/>
        <path id="Path_457" data-name="Path 457" d="M-93.815,1034.578l6.225,8.006,37.383-48.075-6.225-8.006Z" transform="translate(430.024 -986.503)" fill="#4e4b64"/>
        <path id="Path_458" data-name="Path 458" d="M-40.756,1034.578l6.225,8.006L2.852,994.509-3.373,986.5Z" transform="translate(418.99 -986.503)" fill="#4e4b64"/>
        <path id="Path_459" data-name="Path 459" d="M12.3,1034.578l6.225,8.006,37.383-48.075L49.687,986.5Z" transform="translate(407.956 -986.503)" fill="#4e4b64"/>
        <path id="Path_460" data-name="Path 460" d="M65.364,1034.578l6.225,8.006,37.383-48.075-6.225-8.006Z" transform="translate(396.922 -986.503)" fill="#4e4b64"/>
        <path id="Path_461" data-name="Path 461" d="M118.424,1034.578l6.225,8.006,37.383-48.075-6.225-8.006Z" transform="translate(385.889 -986.503)" fill="#4e4b64"/>
        <path id="Path_462" data-name="Path 462" d="M171.484,1034.578l6.225,8.006,37.383-48.075-6.225-8.006Z" transform="translate(374.855 -986.503)" fill="#4e4b64"/>
        <path id="Path_463" data-name="Path 463" d="M224.544,1034.578l6.225,8.006,37.382-48.075-6.225-8.006Z" transform="translate(363.821 -986.503)" fill="#4e4b64"/>
        <path id="Path_464" data-name="Path 464" d="M277.6,1034.578l6.225,8.006,37.383-48.075-6.225-8.006Z" transform="translate(352.787 -986.503)" fill="#4e4b64"/>
        <path id="Path_465" data-name="Path 465" d="M330.664,1034.578l6.225,8.006,37.383-48.075-6.225-8.006Z" transform="translate(341.753 -986.503)" fill="#4e4b64"/>
        <path id="Path_466" data-name="Path 466" d="M383.724,1034.578l6.225,8.006,37.382-48.075-6.225-8.006Z" transform="translate(330.719 -986.503)" fill="#4e4b64"/>
        <path id="Path_467" data-name="Path 467" d="M436.784,1034.578l6.225,8.006,37.383-48.075-6.225-8.006Z" transform="translate(319.685 -986.503)" fill="#4e4b64"/>
        <path id="Path_468" data-name="Path 468" d="M489.843,1034.578l6.225,8.006,37.383-48.075-6.225-8.006Z" transform="translate(308.652 -986.503)" fill="#4e4b64"/>
        <path id="Path_469" data-name="Path 469" d="M542.9,1034.578l6.225,8.006,37.383-48.075-6.225-8.006Z" transform="translate(297.618 -986.503)" fill="#4e4b64"/>
        <path id="Path_470" data-name="Path 470" d="M595.963,1034.578l6.225,8.006,37.382-48.075-6.224-8.006Z" transform="translate(286.584 -986.503)" fill="#4e4b64"/>
        <path id="Path_471" data-name="Path 471" d="M649.023,1034.578l6.225,8.006,37.383-48.075-6.225-8.006Z" transform="translate(275.55 -986.503)" fill="#4e4b64"/>
        <path id="Path_472" data-name="Path 472" d="M702.083,1034.578l6.225,8.006,37.383-48.075-6.225-8.006Z" transform="translate(264.516 -986.503)" fill="#4e4b64"/>
        <path id="Path_473" data-name="Path 473" d="M755.143,1034.578l6.225,8.006,37.383-48.075-6.225-8.006Z" transform="translate(253.482 -986.503)" fill="#4e4b64"/>
        <path id="Path_474" data-name="Path 474" d="M808.2,1034.578l6.225,8.006,37.383-48.075-6.225-8.006Z" transform="translate(242.448 -986.503)" fill="#4e4b64"/>
        <path id="Path_475" data-name="Path 475" d="M861.263,1034.578l6.225,8.006,37.382-48.075-6.224-8.006Z" transform="translate(228.986 -986.503)" fill="#4e4b64"/>
        <path id="Path_476" data-name="Path 476" d="M914.323,1034.578l6.225,8.006,37.383-48.075-6.225-8.006Z" transform="translate(218.437 -986.503)" fill="#4e4b64"/>
        <path id="Path_477" data-name="Path 477" d="M967.382,1034.578l6.225,8.006,37.383-48.075-6.225-8.006Z" transform="translate(207.89 -986.503)" fill="#4e4b64"/>
        <path id="Path_478" data-name="Path 478" d="M1020.443,1034.578l6.225,8.006,37.383-48.075-6.225-8.006Z" transform="translate(197.341 -986.503)" fill="#4e4b64"/>
        <path id="Path_479" data-name="Path 479" d="M1073.5,1034.578l6.225,8.006,37.383-48.075-6.225-8.006Z" transform="translate(186.793 -986.503)" fill="#4e4b64"/>
        <path id="Path_480" data-name="Path 480" d="M1126.562,1034.578l6.225,8.006,37.383-48.075-6.225-8.006Z" transform="translate(176.245 -986.503)" fill="#4e4b64"/>
      </g>
      <g id="Group_134" data-name="Group 134" transform="translate(21.13 572.48)">
        <path id="Path_481" data-name="Path 481" d="M1170.17,1034.578l-6.225,8.006-37.383-48.075,6.225-8.006Z" transform="translate(176.245 -986.503)" fill="#4e4b64"/>
        <path id="Path_482" data-name="Path 482" d="M1117.11,1034.578l-6.225,8.006L1073.5,994.509l6.225-8.006Z" transform="translate(186.793 -986.503)" fill="#4e4b64"/>
        <path id="Path_483" data-name="Path 483" d="M1064.051,1034.578l-6.225,8.006-37.383-48.075,6.225-8.006Z" transform="translate(197.341 -986.503)" fill="#4e4b64"/>
        <path id="Path_484" data-name="Path 484" d="M1010.99,1034.578l-6.225,8.006-37.383-48.075,6.225-8.006Z" transform="translate(207.89 -986.503)" fill="#4e4b64"/>
        <path id="Path_485" data-name="Path 485" d="M957.931,1034.578l-6.225,8.006-37.383-48.075,6.225-8.006Z" transform="translate(218.437 -986.503)" fill="#4e4b64"/>
        <path id="Path_486" data-name="Path 486" d="M904.87,1034.578l-6.224,8.006-37.383-48.075,6.225-8.006Z" transform="translate(228.986 -986.503)" fill="#4e4b64"/>
        <path id="Path_487" data-name="Path 487" d="M851.81,1034.578l-6.225,8.006L808.2,994.509l6.225-8.006Z" transform="translate(242.448 -986.503)" fill="#4e4b64"/>
        <path id="Path_488" data-name="Path 488" d="M798.751,1034.578l-6.225,8.006-37.383-48.075,6.225-8.006Z" transform="translate(253.482 -986.503)" fill="#4e4b64"/>
        <path id="Path_489" data-name="Path 489" d="M745.691,1034.578l-6.225,8.006-37.383-48.075,6.225-8.006Z" transform="translate(264.516 -986.503)" fill="#4e4b64"/>
        <path id="Path_490" data-name="Path 490" d="M692.631,1034.578l-6.225,8.006-37.383-48.075,6.225-8.006Z" transform="translate(275.55 -986.503)" fill="#4e4b64"/>
        <path id="Path_491" data-name="Path 491" d="M639.571,1034.578l-6.224,8.006-37.383-48.075,6.225-8.006Z" transform="translate(286.584 -986.503)" fill="#4e4b64"/>
        <path id="Path_492" data-name="Path 492" d="M586.511,1034.578l-6.225,8.006L542.9,994.509l6.225-8.006Z" transform="translate(297.618 -986.503)" fill="#4e4b64"/>
        <path id="Path_493" data-name="Path 493" d="M533.451,1034.578l-6.225,8.006-37.383-48.075,6.225-8.006Z" transform="translate(308.652 -986.503)" fill="#4e4b64"/>
        <path id="Path_494" data-name="Path 494" d="M480.391,1034.578l-6.225,8.006-37.382-48.075,6.225-8.006Z" transform="translate(319.685 -986.503)" fill="#4e4b64"/>
        <path id="Path_495" data-name="Path 495" d="M427.331,1034.578l-6.225,8.006-37.383-48.075,6.225-8.006Z" transform="translate(330.719 -986.503)" fill="#4e4b64"/>
        <path id="Path_496" data-name="Path 496" d="M374.271,1034.578l-6.225,8.006-37.383-48.075,6.225-8.006Z" transform="translate(341.753 -986.503)" fill="#4e4b64"/>
        <path id="Path_497" data-name="Path 497" d="M321.211,1034.578l-6.225,8.006L277.6,994.509l6.225-8.006Z" transform="translate(352.787 -986.503)" fill="#4e4b64"/>
        <path id="Path_498" data-name="Path 498" d="M268.151,1034.578l-6.225,8.006-37.383-48.075,6.225-8.006Z" transform="translate(363.821 -986.503)" fill="#4e4b64"/>
        <path id="Path_499" data-name="Path 499" d="M215.092,1034.578l-6.225,8.006-37.383-48.075,6.225-8.006Z" transform="translate(374.855 -986.503)" fill="#4e4b64"/>
        <path id="Path_500" data-name="Path 500" d="M162.032,1034.578l-6.225,8.006-37.383-48.075,6.225-8.006Z" transform="translate(385.889 -986.503)" fill="#4e4b64"/>
        <path id="Path_501" data-name="Path 501" d="M108.972,1034.578l-6.225,8.006L65.364,994.509l6.225-8.006Z" transform="translate(396.922 -986.503)" fill="#4e4b64"/>
        <path id="Path_502" data-name="Path 502" d="M55.912,1034.578l-6.225,8.006L12.3,994.509l6.225-8.006Z" transform="translate(407.956 -986.503)" fill="#4e4b64"/>
        <path id="Path_503" data-name="Path 503" d="M2.852,1034.578l-6.225,8.006-37.383-48.075,6.225-8.006Z" transform="translate(418.99 -986.503)" fill="#4e4b64"/>
        <path id="Path_504" data-name="Path 504" d="M-50.208,1034.578l-6.225,8.006-37.382-48.075,6.225-8.006Z" transform="translate(430.024 -986.503)" fill="#4e4b64"/>
        <path id="Path_505" data-name="Path 505" d="M-103.268,1034.578l-6.225,8.006-37.383-48.075,6.225-8.006Z" transform="translate(441.058 -986.503)" fill="#4e4b64"/>
        <path id="Path_506" data-name="Path 506" d="M-156.328,1034.578l-6.225,8.006-37.383-48.075,6.225-8.006Z" transform="translate(452.092 -986.503)" fill="#4e4b64"/>
        <path id="Path_507" data-name="Path 507" d="M-209.388,1034.578l-6.225,8.006L-253,994.509l6.225-8.006Z" transform="translate(465.555 -986.503)" fill="#4e4b64"/>
        <path id="Path_508" data-name="Path 508" d="M-262.448,1034.578l-6.225,8.006-37.383-48.075,6.225-8.006Z" transform="translate(476.103 -986.503)" fill="#4e4b64"/>
        <path id="Path_509" data-name="Path 509" d="M-315.507,1034.578l-6.225,8.006-37.383-48.075,6.225-8.006Z" transform="translate(486.651 -986.503)" fill="#4e4b64"/>
        <path id="Path_510" data-name="Path 510" d="M-368.567,1034.578l-6.225,8.006-37.383-48.075,6.225-8.006Z" transform="translate(497.199 -986.503)" fill="#4e4b64"/>
        <path id="Path_511" data-name="Path 511" d="M-421.627,1034.578l-6.225,8.006-37.382-48.075,6.225-8.006Z" transform="translate(507.747 -986.503)" fill="#4e4b64"/>
        <path id="Path_512" data-name="Path 512" d="M-474.687,1034.578l-6.225,8.006-37.383-48.075,6.225-8.006Z" transform="translate(518.295 -986.503)" fill="#4e4b64"/>
      </g>
      <rect id="Rectangle_28" data-name="Rectangle 28" width="62.753" height="68.355" transform="translate(17.276 571.474)" fill="#4e4b64"/>
    </g>
    <g id="Group_136" data-name="Group 136" transform="translate(142.453)">
      <path id="Path_513" data-name="Path 513" d="M-366.87,254.228l9.954,5.272,56.032-34.366-2.362-11.585Z" transform="translate(366.87 -212.099)" fill="#4e4b64"/>
      <path id="Path_514" data-name="Path 514" d="M-235.495,240.727l-53.375-6.679a8.991,8.991,0,0,1-7.783-10.008l.557-4.448a8.992,8.992,0,0,1,10.009-7.783l53.375,6.679A8.991,8.991,0,0,1-224.93,228.5l-.556,4.447A8.992,8.992,0,0,1-235.495,240.727Z" transform="translate(352.924 -211.739)" fill="#5a5673"/>
    </g>
    <g id="Group_137" data-name="Group 137" transform="translate(357.86)">
      <path id="Path_515" data-name="Path 515" d="M-92.727,254.228l9.954,5.272,56.032-34.366L-29.1,213.548Z" transform="translate(92.727 -212.099)" fill="#4e4b64"/>
      <path id="Path_516" data-name="Path 516" d="M38.648,240.727l-53.374-6.679a8.99,8.99,0,0,1-7.783-10.008l.557-4.448a8.992,8.992,0,0,1,10.009-7.783l53.375,6.679A8.991,8.991,0,0,1,49.213,228.5l-.556,4.447A8.992,8.992,0,0,1,38.648,240.727Z" transform="translate(78.782 -211.739)" fill="#5a5673"/>
    </g>
    <g id="Group_138" data-name="Group 138" transform="translate(582.318)">
      <path id="Path_517" data-name="Path 517" d="M190.741,254.228l9.954,5.272,56.031-34.366-2.362-11.585Z" transform="translate(-190.741 -212.099)" fill="#4e4b64"/>
      <path id="Path_518" data-name="Path 518" d="M322.115,240.727l-53.374-6.679a8.99,8.99,0,0,1-7.783-10.008l.556-4.448a8.993,8.993,0,0,1,10.009-7.783l53.374,6.679a8.991,8.991,0,0,1,7.783,10.009l-.557,4.447A8.991,8.991,0,0,1,322.115,240.727Z" transform="translate(-204.686 -211.739)" fill="#5a5673"/>
    </g>
    <g id="Group_139" data-name="Group 139" transform="translate(799.392)">
      <path id="Path_519" data-name="Path 519" d="M464.883,254.228l9.954,5.272,56.032-34.366-2.362-11.585Z" transform="translate(-464.883 -212.099)" fill="#4e4b64"/>
      <path id="Path_520" data-name="Path 520" d="M596.258,240.727l-53.374-6.679A8.99,8.99,0,0,1,535.1,224.04l.557-4.448a8.991,8.991,0,0,1,10.008-7.783l53.375,6.679a8.991,8.991,0,0,1,7.783,10.009l-.557,4.447A8.991,8.991,0,0,1,596.258,240.727Z" transform="translate(-478.829 -211.739)" fill="#5a5673"/>
    </g>
    <g id="Group_140" data-name="Group 140" transform="translate(1054.861)">
      <path id="Path_521" data-name="Path 521" d="M787.514,254.228l9.954,5.272L853.5,225.133l-2.362-11.585Z" transform="translate(-787.514 -212.099)" fill="#4e4b64"/>
      <path id="Path_522" data-name="Path 522" d="M918.889,240.727l-53.375-6.679a8.989,8.989,0,0,1-7.782-10.008l.556-4.448a8.992,8.992,0,0,1,10.009-7.783l53.375,6.679a8.99,8.99,0,0,1,7.782,10.009l-.556,4.447A8.992,8.992,0,0,1,918.889,240.727Z" transform="translate(-801.459 -211.739)" fill="#5a5673"/>
    </g>
    <g id="Group_141" data-name="Group 141" transform="translate(1271.935)">
      <path id="Path_523" data-name="Path 523" d="M1061.657,254.228l9.954,5.272,56.032-34.366-2.362-11.585Z" transform="translate(-1061.657 -212.099)" fill="#4e4b64"/>
      <path id="Path_524" data-name="Path 524" d="M1193.032,240.727l-53.375-6.679a8.991,8.991,0,0,1-7.783-10.008l.557-4.448a8.992,8.992,0,0,1,10.01-7.783l53.374,6.679A8.992,8.992,0,0,1,1203.6,228.5l-.558,4.447A8.99,8.99,0,0,1,1193.032,240.727Z" transform="translate(-1075.602 -211.739)" fill="#5a5673"/>
    </g>
  </g>
  <rect id="Rectangle_29" data-name="Rectangle 29" width="1285" height="572" transform="translate(80 45)" fill="#fff"/>
</svg>
