<svg xmlns="http://www.w3.org/2000/svg" width="288.048" height="180.187" viewBox="0 0 288.048 180.187">
  <g id="illust-mountain-car-5" transform="translate(-507 -5099)">
    <g id="Group_4986" data-name="Group 4986" transform="translate(507 5169)">
      <path id="Path_126" data-name="Path 126" d="M267.043,305.428s25.914,2.585,30.884,2.585,11.123-2.585,16.092-2.585h167.2c6.39,0,37.867-3.75,45.676-4.785s15.855-1.033,17.868-5.3,3.077-19.523,1.893-23.273-2.84-2.974-4.5-9.568-5.68-21.981-7.1-22.885-16.094-1.94-30.767-7.629-32.777-15.773-59.639-18.488-51-1.165-70.644,6.723-46.031,24.695-53.367,26.376-30.884,5.559-43.546,12.67-14.792,12.672-16.33,20.172-.976,15.934-1.33,17.1a4.743,4.743,0,0,0,0,3.491A9.114,9.114,0,0,0,267.043,305.428Z" transform="translate(-259.104 -212.262)" fill="#88a4c4"/>
      <path id="Path_127" data-name="Path 127" d="M260.771,261.525c-1.538,6.863-.976,14.583-1.33,15.648a4,4,0,0,0,0,3.195,9.021,9.021,0,0,0,7.6,4.942s25.914,2.366,30.884,2.366,11.123-2.366,16.092-2.366h167.2c6.39,0,37.867-3.432,45.676-4.379s15.855-.946,17.868-4.851,3.077-17.868,1.893-21.3-2.84-2.722-4.5-8.757c-.348-1.265-.8-2.892-1.312-4.669L261.812,257.7A36.98,36.98,0,0,0,260.771,261.525Z" transform="translate(-259.104 -191.924)" fill="#94acc7"/>
      <path id="Path_128" data-name="Path 128" d="M481.256,237.086c-.7-1.137-1.413-2.191-2.171-3.306a60.142,60.142,0,0,1-4.206-6.877l-.632.322a60.475,60.475,0,0,0,4.251,6.955c.753,1.106,1.465,2.151,2.15,3.274,2.059,3.365,2.475,6.731,1.144,9.234-.858,1.613-8.452,9.92-15.8,17.953-5.355,5.859-10.414,11.392-12.829,14.291-5.429,6.516-10.448,7.062-14.725,7.062h-27.78c-.011-2.322-.078-16.007,0-31.5.088-16.8,2-21.562,2.014-21.609l-.655-.275c-.08.192-1.981,4.876-2.069,21.88-.08,15.489-.013,29.172,0,31.508H342.327c-4.108,0-4.477-.926-4.908-2-.317-.8-1.455-4.687-2.726-21.283-1.135-14.827.941-21.9.963-21.968l.139-.459h-.479a23.457,23.457,0,0,0-4.6.719c-2.888.66-6.894,1.245-11.211,1.778a49.394,49.394,0,0,0,3.728-5.757.723.723,0,0,0-.082-.628,2.609,2.609,0,0,0-1.286-.8c-.345.149-.682.291-1.007.426,1.005.273,1.673.574,1.7.772a58.612,58.612,0,0,1-4.01,6.1c-3.091.373-6.309.72-9.366,1.049-5.818.628-10.843,1.169-12.906,1.674-2.444.6-8.973,2.776-14.734,4.694-5.4,1.8-10.5,3.5-11.32,3.6-.853.111-4.384-2.6-5.482-3.306-.219.146-.964.828-1.174.972,1.163.777,5.243,3.848,6.415,3.7.893-.115,6.118-2.406,11.786-4.293,5.748-1.916,12.263-4.087,14.678-4.679,2.016-.494,7.019-1.034,12.812-1.659,3.145-.338,6.458-.7,9.635-1.081l.031.023.023-.028c4.581-.557,8.869-1.17,11.928-1.869a29.035,29.035,0,0,1,3.977-.674c-.453,1.829-1.852,8.785-.861,21.743,1.242,16.242,2.354,20.443,2.776,21.494.589,1.475,1.295,2.442,5.565,2.442h96.115c3.206,0,9.174,0,15.272-7.317,2.4-2.885,7.458-8.412,12.807-14.265,7.375-8.065,15-16.406,15.9-18.1C483.87,244.291,483.445,240.67,481.256,237.086Z" transform="translate(-254.929 -197.993)" fill="#3a5b7e"/>
      <path id="Path_129" data-name="Path 129" d="M429.035,250.017a25.654,25.654,0,0,0-25.026,31.654h16.655c4.518,0,21.572-1.715,33.94-3.056a26.082,26.082,0,0,0,.168-2.861A25.736,25.736,0,0,0,429.035,250.017Z" transform="translate(-198.547 -188.286)" fill="#0d0c0c"/>
      <path id="Path_130" data-name="Path 130" d="M307.149,281.671h19.079a25.729,25.729,0,1,0-49.689,1.411c6.231.507,12.357.954,14.518.954C296.026,284.037,302.179,281.671,307.149,281.671Z" transform="translate(-252.233 -188.286)" fill="#0d0c0c"/>
      <circle id="Ellipse_10" data-name="Ellipse 10" cx="22.72" cy="22.72" r="22.72" transform="translate(26.249 64.748)" fill="#404040"/>
      <path id="Path_131" data-name="Path 131" d="M313.709,272.734a15.527,15.527,0,1,1-15.526-15.527A15.525,15.525,0,0,1,313.709,272.734Z" transform="translate(-249.214 -185.266)" fill="#efefef"/>
      <circle id="Ellipse_11" data-name="Ellipse 11" cx="22.72" cy="22.72" r="22.72" transform="translate(207.768 64.748)" fill="#404040"/>
      <circle id="Ellipse_12" data-name="Ellipse 12" cx="15.527" cy="15.527" r="15.527" transform="translate(214.961 71.941)" fill="#efefef"/>
      <path id="Path_132" data-name="Path 132" d="M393.183,214.815c-6.854.305-14.821.088-27.3,2.84s-33.02,13.933-41.34,19.258-15.514,10.65-15.514,10.65,45.241-3.727,69.248-5.68,62.834-4.525,67.514-5.058,22.534-5.68,22.187-6.657S436.95,212.862,393.183,214.815Z" transform="translate(-234.322 -203.138)" fill="#0d0c0c"/>
      <path id="Path_133" data-name="Path 133" d="M387.4,234.243c1.72-2.877,2.194-15.976,2.33-16.727s.1-1.69-.549-1.672h0c-.146,0-.28.01-.429.014a132.562,132.562,0,0,0-24.124,2.435c-12.966,2.532-33.678,13.34-41.369,17.7-1.67.947-3.252,2.265-4.79,3.178-2.569,1.525-2.536,2.985.513,2.764,15.556-1.135,41.56-3.027,57.928-4.207C379.729,237.524,385.679,237.12,387.4,234.243Z" transform="translate(-231.405 -200.935)" fill="#eaeaea"/>
      <path id="Path_135" data-name="Path 135" d="M426.751,228.073c0-1.533-3.3-6.659-8.379-7.9a203.205,203.205,0,0,0-42.842-4.516c-.2,0-.4,0-.6.006a.919.919,0,0,0-.863.887c-.03.391-.517,15.7-.473,16.8s1.6,1.071,1.6,1.071h0c7.242-.43,14.553-.853,21.1-1.232,12.986-.752,23.241-1.345,25.516-1.554.452-.042,1.015-.117,1.646-.213C426.45,230.868,426.751,229.617,426.751,228.073Z" transform="translate(-211.024 -200.745)" fill="#eaeaea"/>
      <path id="Path_136" data-name="Path 136" d="M459.279,248.768c-.578-2.874-1.548-7.567-2.518-11.791a4.622,4.622,0,0,0-3.326-1.935c-3.031-.355-16.147-.236-16.321,0s-.043,2.072,1.992,3.372c1.928,1.234,15.626,7.882,20.3,10.942C459.363,249.161,459.32,248.978,459.279,248.768Z" transform="translate(-176.945 -199.682)" fill="#9e201d"/>
      <path id="Path_137" data-name="Path 137" d="M263.807,270.759a5.614,5.614,0,0,0,5.3-3.74l1.184-4.32a3.676,3.676,0,0,0-3.8-4.807h-6.357c-.792,5.839-.449,11.439-.747,12.334-.06.178-.1.355-.151.533Z" transform="translate(-259.049 -184.978)" fill="#4f4f4f"/>
      <g id="Group_31" data-name="Group 31" transform="translate(135.723 44.567)">
        <path id="Path_138" data-name="Path 138" d="M366.289,239.866c.162,1.367-2.035,2.753-4.906,3.094s-5.331-.493-5.492-1.86,2.033-2.752,4.9-3.094S366.127,238.5,366.289,239.866Z" transform="translate(-354.183 -237.93)" fill="#878787"/>
        <path id="Path_139" data-name="Path 139" d="M368.5,239.354c.084.7-2.941,1.63-6.755,2.082s-6.969.253-7.053-.444,2.942-1.63,6.753-2.082S368.413,238.657,368.5,239.354Z" transform="translate(-354.686 -237.62)" fill="#ccc"/>
      </g>
      <g id="Group_32" data-name="Group 32" transform="translate(206.101 41.014)">
        <path id="Path_140" data-name="Path 140" d="M415.851,237.364c.163,1.367-2.033,2.753-4.906,3.093s-5.33-.491-5.492-1.859,2.035-2.753,4.9-3.094S415.689,236,415.851,237.364Z" transform="translate(-403.747 -235.427)" fill="#878787"/>
        <path id="Path_141" data-name="Path 141" d="M418.058,236.851c.082.7-2.942,1.63-6.755,2.083s-6.969.253-7.053-.444,2.941-1.63,6.753-2.083S417.976,236.154,418.058,236.851Z" transform="translate(-404.249 -235.118)" fill="#ccc"/>
      </g>
      <line id="Line_37" data-name="Line 37" x1="10.015" y1="8.474" transform="translate(25.031 57.415)" fill="none" stroke="#3a5b7e" stroke-width="1"/>
      <path id="Path_134" data-name="Path 134" d="M290.526,240.329a82.177,82.177,0,0,0-18.9,5.663c-4.709,2.22-8.053,6.429-7.78,8.037s7.711-.077,13.034-2.832S291.2,240.221,290.526,240.329Z" transform="translate(-257.121 -190.068)" fill="#e0e0e0"/>
    </g>
    <path id="Intersection_29" data-name="Intersection 29" d="M3.246,28.2A3.725,3.725,0,0,1,0,24.4C10.875,19.277,31.748,6.643,48,.116L48.293,0c.878.822,1.783,1.679,2.185,2.1.887.919-41.559,26.118-47.021,26.12A1.287,1.287,0,0,1,3.246,28.2Z" transform="translate(571.596 5177.67)" fill="#eaeaea" stroke="rgba(0,0,0,0)" stroke-miterlimit="10" stroke-width="1"/>
    <path id="Path_15394" data-name="Path 15394" d="M2803.79,4803.455l.94,1.217" transform="translate(-2183.71 375.16)" fill="none" stroke="#0d0c0c" stroke-linecap="round" stroke-width="3"/>
    <g id="Rectangle_375" data-name="Rectangle 375" transform="translate(743.505 5204.459)" fill="none" stroke="#3a5b7e" stroke-width="1">
      <rect width="14.638" height="11.556" rx="4" stroke="none"/>
      <rect x="0.5" y="0.5" width="13.638" height="10.556" rx="3.5" fill="none"/>
    </g>
    <path id="Path_15395" data-name="Path 15395" d="M3010.816,4855.066h-12.24s1.306,6.727-2.75,9.224-22.994,5.993-22.994,5.993" transform="translate(-2222.522 363.31)" fill="none" stroke="#3a5b7e" stroke-width="1"/>
    <path id="Path_15396" data-name="Path 15396" d="M3007.007,4855.875s5.8,4.113,6.48,8.5a62.057,62.057,0,0,1,.618,8.956" transform="translate(-2226.801 366.108)" fill="none" stroke="#b2cae5" stroke-linecap="round" stroke-width="3"/>
    <path id="Path_15397" data-name="Path 15397" d="M3014.317,4890.832l-21.936,3.322" transform="translate(-2227.011 355.099)" fill="none" stroke="#b2cae5" stroke-linecap="round" stroke-width="3"/>
    <rect id="Rectangle_378" data-name="Rectangle 378" width="288" height="180" transform="translate(507 5099)" fill="none"/>
  </g>
</svg>
