<svg id="Group_3976" data-name="Group 3976" xmlns="http://www.w3.org/2000/svg" xmlns:xlink="http://www.w3.org/1999/xlink" width="280" height="160" viewBox="0 0 280 160">
  <defs>
    <linearGradient id="linear-gradient" y1="0.5" x2="1" y2="0.5" gradientUnits="objectBoundingBox">
      <stop offset="0.005" stop-color="#504133"/>
      <stop offset="1" stop-color="#493233"/>
    </linearGradient>
    <linearGradient id="linear-gradient-6" x1="0.038" y1="0.945" x2="0.844" y2="-0.037" xlink:href="#linear-gradient"/>
    <linearGradient id="linear-gradient-9" x1="0.124" y1="0.329" x2="0.917" y2="0.798" gradientUnits="objectBoundingBox">
      <stop offset="0" stop-color="#ff6531"/>
      <stop offset="1" stop-color="#ff591f"/>
    </linearGradient>
    <linearGradient id="linear-gradient-10" x1="0" y1="0.5" x2="1" y2="0.5" xlink:href="#linear-gradient-9"/>
    <linearGradient id="linear-gradient-12" x1="0.145" y1="0.78" x2="1.538" y2="-0.383" gradientUnits="objectBoundingBox">
      <stop offset="0" stop-color="#455c79"/>
      <stop offset="0.99" stop-color="#668da2"/>
    </linearGradient>
    <linearGradient id="linear-gradient-13" x1="0" y1="0.5" x2="1" y2="0.5" xlink:href="#linear-gradient-9"/>
    <linearGradient id="linear-gradient-14" x1="0.071" y1="0.065" x2="0.526" y2="0.762" gradientUnits="objectBoundingBox">
      <stop offset="0" stop-color="#f1c194"/>
      <stop offset="1" stop-color="#f29d7a"/>
    </linearGradient>
    <linearGradient id="linear-gradient-15" x1="0.119" y1="0.055" x2="0.622" y2="0.884" xlink:href="#linear-gradient-14"/>
    <linearGradient id="linear-gradient-16" x1="0.182" y1="-0.045" x2="0.838" y2="0.93" gradientUnits="objectBoundingBox">
      <stop offset="0" stop-color="#734022"/>
      <stop offset="1" stop-color="#613828"/>
    </linearGradient>
    <linearGradient id="linear-gradient-17" x1="-0.128" y1="0.1" x2="1.012" y2="0.991" xlink:href="#linear-gradient-16"/>
    <linearGradient id="linear-gradient-18" x1="0.216" y1="-0.195" x2="0.769" y2="0.925" xlink:href="#linear-gradient-16"/>
    <linearGradient id="linear-gradient-19" x1="-0.093" y1="-4.589" x2="0.319" y2="-3.966" xlink:href="#linear-gradient-14"/>
    <linearGradient id="linear-gradient-20" x1="-0.488" y1="0.345" x2="1.081" y2="0.602" gradientUnits="objectBoundingBox">
      <stop offset="0.01" stop-color="#002440"/>
      <stop offset="1" stop-color="#002d4e"/>
    </linearGradient>
    <linearGradient id="linear-gradient-21" x1="0.495" y1="0.882" x2="0.517" y2="0.184" xlink:href="#linear-gradient-20"/>
    <linearGradient id="linear-gradient-22" x1="0.495" y1="0.883" x2="0.518" y2="0.185" xlink:href="#linear-gradient-20"/>
    <linearGradient id="linear-gradient-23" x1="1.181" y1="0.797" x2="-0.011" y2="0.357" gradientUnits="objectBoundingBox">
      <stop offset="0" stop-color="#edc4a0"/>
      <stop offset="1" stop-color="#eda687"/>
    </linearGradient>
    <linearGradient id="linear-gradient-24" x1="-2.075" y1="0.069" x2="-2.014" y2="0.835" gradientUnits="objectBoundingBox">
      <stop offset="0" stop-color="#48210d"/>
      <stop offset="0.995" stop-color="#4c2112"/>
    </linearGradient>
    <linearGradient id="linear-gradient-25" x1="0.188" y1="0.305" x2="0.8" y2="0.911" gradientUnits="objectBoundingBox">
      <stop offset="0" stop-color="#b80e1b"/>
      <stop offset="0.995" stop-color="#a3000f"/>
    </linearGradient>
    <linearGradient id="linear-gradient-26" x1="-12.751" y1="0.5" x2="-11.751" y2="0.5" xlink:href="#linear-gradient-25"/>
    <linearGradient id="linear-gradient-27" x1="0" y1="0.5" x2="1" y2="0.5" xlink:href="#linear-gradient-25"/>
    <linearGradient id="linear-gradient-28" x1="0.592" y1="0.214" x2="0.303" y2="0.915" xlink:href="#linear-gradient-20"/>
    <linearGradient id="linear-gradient-29" x1="0" y1="0.5" x2="1" y2="0.5" xlink:href="#linear-gradient-20"/>
    <linearGradient id="linear-gradient-30" x1="0.5" y1="1.127" x2="0.5" y2="0.367" gradientUnits="objectBoundingBox">
      <stop offset="0" stop-color="#07364e"/>
      <stop offset="1" stop-color="#002d4e"/>
    </linearGradient>
    <linearGradient id="linear-gradient-31" x1="0.499" y1="0.88" x2="0.505" y2="0.185" xlink:href="#linear-gradient-20"/>
    <linearGradient id="linear-gradient-32" x1="0.497" y1="0.882" x2="0.5" y2="0.188" xlink:href="#linear-gradient-20"/>
    <linearGradient id="linear-gradient-33" x1="0.576" y1="0.213" x2="0.379" y2="0.93" xlink:href="#linear-gradient-20"/>
    <linearGradient id="linear-gradient-34" x1="0.548" y1="0.218" x2="0.428" y2="0.926" xlink:href="#linear-gradient-20"/>
    <linearGradient id="linear-gradient-35" x1="0" y1="0.5" x2="1" y2="0.5" xlink:href="#linear-gradient-25"/>
    <linearGradient id="linear-gradient-36" x1="0.489" y1="0.197" x2="0.43" y2="0.908" xlink:href="#linear-gradient-20"/>
    <linearGradient id="linear-gradient-37" x1="0.648" y1="0.228" x2="0.504" y2="0.931" xlink:href="#linear-gradient-20"/>
    <linearGradient id="linear-gradient-42" x1="0.494" y1="-0.53" x2="0.506" y2="2.441" xlink:href="#linear-gradient"/>
    <linearGradient id="linear-gradient-43" x1="0.494" y1="-0.531" x2="0.506" y2="2.443" xlink:href="#linear-gradient"/>
  </defs>
  <path id="Path_4307" data-name="Path 4307" d="M291.334,221.189H41.287l5.745-6.385,20.428-.065,194.589-.6,24.041-.074Z" transform="translate(-21.406 -131.645)" fill="url(#linear-gradient)"/>
  <path id="Path_4308" data-name="Path 4308" d="M249.268,214.113c-3.773,2.275-8.147,4.9-11.728,7.05H71.788c-3.62-1.7-9.623-4.5-13.863-6.45Z" transform="translate(-8.136 -131.621)" opacity="0.4" fill="url(#linear-gradient)" style="mix-blend-mode: multiply;isolation: isolate"/>
  <path id="Path_4309" data-name="Path 4309" d="M95.6,242.211l6.878-9.091L115,236.807Z" transform="translate(10.101 -123.281)" fill="#393939"/>
  <path id="Path_4310" data-name="Path 4310" d="M223.184,266.852H212.866l-60.194-17.868-30.7-9.112L100.1,233.382l-26.263-7.8,44.459-.246,17.164,5.154,4.727,1.42,34.732,10.429h0L219.745,255.8Z" transform="translate(-1.117 -130.116)" fill="url(#linear-gradient)"/>
  <path id="Path_4311" data-name="Path 4311" d="M135.464,230.494c-6.661.537-23.164,1.869-35.36,2.888l-26.263-7.8,44.46-.246Z" transform="translate(-2.077 -126.678)" opacity="0.3" fill="url(#linear-gradient)" style="mix-blend-mode: multiply;isolation: isolate"/>
  <path id="Path_4312" data-name="Path 4312" d="M157.909,240.019l-22.25,6.64-30.7-9.112,18.221-7.958Z" transform="translate(15.732 -125.248)" opacity="0.3" fill="url(#linear-gradient)" style="mix-blend-mode: multiply;isolation: isolate"/>
  <path id="Path_4313" data-name="Path 4313" d="M215.178,225.73l-1.925,1.174-16.91,5.08-115.8,34.781H74.158l5.159-12.281,86.893-25.071,13.569-3.914Z" transform="translate(-1.07 -130.029)" fill="url(#linear-gradient-6)"/>
  <path id="Path_4314" data-name="Path 4314" d="M182.637,225.73l-1.925,1.174-16.91,5.08-30.133-2.571,13.569-3.914Z" transform="translate(32.167 -126.539)" opacity="0.3" fill="url(#linear-gradient)" style="mix-blend-mode: multiply;isolation: isolate"/>
  <rect id="Rectangle_107" data-name="Rectangle 107" width="149.26" height="5.162" transform="translate(73.227 136.489)" fill="#776b62"/>
  <rect id="Rectangle_108" data-name="Rectangle 108" width="250.048" height="13.016" transform="translate(19.881 88.828)" fill="#776a61"/>
  <path id="Path_4315" data-name="Path 4315" d="M206,231.687h-42.5c1.176-4.046,2.63-9.043,3.813-13.016h36.737Z" transform="translate(49.597 -129.843)" opacity="0.3" fill="url(#linear-gradient)" style="mix-blend-mode: multiply;isolation: isolate"/>
  <g id="Group_1038" data-name="Group 1038" transform="translate(41.114)">
    <path id="Path_4316" data-name="Path 4316" d="M253.251,234.133c-.37,1.9-.615,3.157-.615,3.157L56.25,234.422a23.556,23.556,0,0,1-1.021-2.37,36.484,36.484,0,0,1-1.912-7.4,32.321,32.321,0,0,1,.039-10.122s2.025-6.753,6.485-10.868h.008a13.053,13.053,0,0,1,1.657-1.323c5.548-3.72,29.866-8.139,41.1-9.623.134-.022.26-.039.392-.056,0,0,1.139-.8,3-2.118,6.229-4.382,20.512-14.393,27.069-18.667,8.515-5.559,25.362-11.828,53.8-11.29a187.36,187.36,0,0,1,30.006,2.829,92.839,92.839,0,0,1,14.017,3.439s5.021,7.173,10.209,15.426a151.448,151.448,0,0,1,9.542,17.017c.219.489.424.957.619,1.414,2.061,4.721,3.285,7.807,4.016,9.932a18.522,18.522,0,0,1,1.158,4.6C256.58,216.594,254.36,228.365,253.251,234.133Z" transform="translate(-52.938 -160.554)" fill="url(#linear-gradient-9)"/>
    <path id="Path_4317" data-name="Path 4317" d="M197.435,163.416c-9.044,5.762-29.156,17.133-52.762,21.273a445.727,445.727,0,0,1-57.594,5.855c6.2-4.382,20.415-14.393,26.941-18.667,8.475-5.559,25.242-11.828,53.551-11.29A185.624,185.624,0,0,1,197.435,163.416Z" transform="translate(-33.718 -160.554)" fill="#7ab3b8" opacity="0.3" style="mix-blend-mode: screen;isolation: isolate"/>
    <path id="Path_4318" data-name="Path 4318" d="M252.46,216.583c-.37,1.9-.615,3.157-.615,3.157L55.433,216.872a23.557,23.557,0,0,1-1.021-2.37c3.348.237,13.161-.32,13.161-.32s-.179-20.607,23.194-20.607S112.33,215.8,112.33,215.8s81.9-.178,82.623-.718,2.175-24.911,26.091-22.223c21.033,2.365,21.016,23.119,21.016,23.119Z" transform="translate(-52.131 -143.004)" opacity="0.4" fill="url(#linear-gradient-10)" style="mix-blend-mode: multiply;isolation: isolate"/>
    <path id="Path_4320" data-name="Path 4320" d="M206.363,195.333s-20.014,6.989-9.808,22.263L69.23,215.729c0-.034,0-.054,0-.054,14.877-1.346,66.372-6,100.345-13.98C192.841,196.229,206.363,195.333,206.363,195.333Z" transform="translate(-44.029 -141.536)" opacity="0.4" fill="url(#linear-gradient-10)" style="mix-blend-mode: multiply;isolation: isolate"/>
    <path id="Path_4321" data-name="Path 4321" d="M196.244,177.209l-.517.152c1.657,5.586,3.985,14.306,3.607,15.429-.292.874-4.308,3.831-8.2,6.692-2.889,2.127-5.878,4.326-7.952,6.094-4.775,4.067-8.665,13.776-9.213,15.185-1.754.167-16.826,1.567-24.972,1.6-.489-10.993,2-35.3,2.336-36.192l-.251-.1-.251-.1c-.463,1.146-2.848,25.626-2.376,36.39-8.9.011-51.091.5-54.5.535-2.678-11.054-3.712-33.371-3.555-34.259l-.523-.124c-.215.843.891,23.75,3.6,34.72l.051.206.215,0c.462-.006,46.437-.537,54.991-.537,8.569,0,25.284-1.6,25.451-1.616l.167-.017.06-.153c.04-.11,4.18-10.919,9.118-15.128,2.06-1.754,5.04-3.947,7.921-6.07,4.985-3.669,8.057-5.969,8.387-6.951C200.4,191.316,196.673,178.648,196.244,177.209Z" transform="translate(-32.157 -151.447)" fill="#2d4549" opacity="0.4" style="mix-blend-mode: multiply;isolation: isolate"/>
    <path id="Path_4322" data-name="Path 4322" d="M64.162,215.9s-.36-21.15,20.376-21.15,20.016,21.686,20.016,21.686Z" transform="translate(-46.8 -141.853)" fill="#1e232b"/>
    <path id="Path_4323" data-name="Path 4323" d="M146.694,217.617s-.36-22.22,19.295-22.4,21.635,16.489,21.456,23.123Z" transform="translate(-0.71 -141.601)" fill="#1e232b"/>
    <g id="Group_1031" data-name="Group 1031" transform="translate(20.029 54.374)">
      <path id="Path_4324" data-name="Path 4324" d="M101.4,213.357A17.562,17.562,0,0,1,95.715,226.3a17.78,17.78,0,0,1-29.829-12.947,17.759,17.759,0,0,1,35.518,0Z" transform="translate(-65.886 -195.706)" fill="#111419"/>
      <path id="Path_4325" data-name="Path 4325" d="M93.595,211.329a11.89,11.89,0,0,1-2.786,7.637,12,12,0,0,1-8.356,4.254c-.282.022-.563.031-.849.031a11.993,11.993,0,0,1-10.583-6.316,11.919,11.919,0,0,1-1.4-5.606,11.948,11.948,0,0,1,7.723-11.145,12.139,12.139,0,0,1,8.985.183,11.959,11.959,0,0,1,7.27,10.962Z" transform="translate(-63.846 -193.68)" fill="#b6c0ca"/>
      <g id="Group_1029" data-name="Group 1029" transform="translate(6.98 6.786)">
        <path id="Path_4326" data-name="Path 4326" d="M83.494,201.751c-.855,2.1-3.4,7.32-4.778,7.17s-3.878-5.183-4.418-7.262a7.094,7.094,0,0,1,4.554-1.565A8,8,0,0,1,83.494,201.751Z" transform="translate(-68.266 -200.093)" fill="#464a51"/>
        <path id="Path_4327" data-name="Path 4327" d="M77.737,208.257c0,1.064-3.985,2.175-6.852,3.313-1.216-1.479-.026-6.71,2.166-8.869C74.8,204.624,77.737,207.077,77.737,208.257Z" transform="translate(-70.398 -198.667)" fill="#464a51"/>
        <path id="Path_4328" data-name="Path 4328" d="M86.638,211.5c-3.176-.226-6.593-.7-6.854-2.24-.285-1.7,2.2-5.044,3.7-7.08C86.367,204.15,87.629,208.809,86.638,211.5Z" transform="translate(-65.279 -198.952)" fill="#464a51"/>
        <path id="Path_4329" data-name="Path 4329" d="M76.97,216.943a10.277,10.277,0,0,1-5.5-4.705c2.181-1.835,7.041-4.609,7.641-3.562C79.637,209.585,78.661,213.8,76.97,216.943Z" transform="translate(-69.812 -195.526)" fill="#464a51"/>
        <path id="Path_4330" data-name="Path 4330" d="M86.112,213.161c-2.028,2.415-3.966,3.915-7.326,4.147-.626-2.944-1.381-7.867-.136-8.692C79.872,207.806,83.614,210.9,86.112,213.161Z" transform="translate(-66.253 -195.504)" fill="#464a51"/>
      </g>
      <g id="Group_1030" data-name="Group 1030" transform="translate(15.485 15.626)">
        <path id="Path_4331" data-name="Path 4331" d="M76.768,206.569a.443.443,0,1,1-.541-.309A.439.439,0,0,1,76.768,206.569Z" transform="translate(-75.897 -205.569)" fill="#464a51"/>
        <path id="Path_4332" data-name="Path 4332" d="M78.735,206.134a.441.441,0,0,1-.312.54.441.441,0,1,1,.312-.54Z" transform="translate(-74.821 -205.808)" fill="#464a51"/>
        <path id="Path_4333" data-name="Path 4333" d="M79.172,207.7a.443.443,0,1,1-.543-.311A.443.443,0,0,1,79.172,207.7Z" transform="translate(-74.582 -204.952)" fill="#464a51"/>
        <path id="Path_4334" data-name="Path 4334" d="M77.422,208.263a.439.439,0,0,1-.311.54.441.441,0,1,1,.311-.54Z" transform="translate(-75.539 -204.643)" fill="#464a51"/>
      </g>
      <path id="Path_4335" data-name="Path 4335" d="M98.832,213.357A17.562,17.562,0,0,1,93.143,226.3c-.888-1.559-1.862-3.349-2.869-5.312-3.2-6.269-13.261-16.426-19.683-21.878a17.776,17.776,0,0,1,28.242,14.243Z" transform="translate(-63.314 -195.706)" fill="#111919" opacity="0.3" style="mix-blend-mode: multiply;isolation: isolate"/>
    </g>
    <g id="Group_1034" data-name="Group 1034" transform="translate(148.176 55.515)">
      <path id="Path_4336" data-name="Path 4336" d="M183.63,213.431a16.619,16.619,0,0,1-5.689,12.457,18.144,18.144,0,0,1-12.07,4.528c-9.807,0-17.761-7.606-17.761-16.984a16.724,16.724,0,0,1,7.278-13.706,18.187,18.187,0,0,1,10.483-3.281C175.68,196.444,183.63,204.048,183.63,213.431Z" transform="translate(-148.111 -196.444)" fill="#111419"/>
      <path id="Path_4337" data-name="Path 4337" d="M175.821,211.479a10.639,10.639,0,0,1-.161,1.864,11.118,11.118,0,0,1-2.626,5.483,12.126,12.126,0,0,1-8.354,4.091c-.283.023-.565.032-.849.032a12.336,12.336,0,0,1-4.815-.962,11.825,11.825,0,0,1-5.766-5.117,11.1,11.1,0,0,1-1.406-5.392,11.2,11.2,0,0,1,3.548-8.147,12.1,12.1,0,0,1,4.175-2.579,12.57,12.57,0,0,1,8.985.178,11.856,11.856,0,0,1,2.835,1.64A11.279,11.279,0,0,1,175.821,211.479Z" transform="translate(-146.071 -194.495)" fill="#b6c0ca"/>
      <g id="Group_1032" data-name="Group 1032" transform="translate(6.981 6.529)">
        <path id="Path_4338" data-name="Path 4338" d="M165.722,202.261c-.857,2.022-3.4,7.046-4.78,6.9s-3.876-4.99-4.419-6.987a7.26,7.26,0,0,1,4.552-1.511A8.216,8.216,0,0,1,165.722,202.261Z" transform="translate(-150.492 -200.665)" fill="#464a51"/>
        <path id="Path_4339" data-name="Path 4339" d="M159.963,208.523c0,1.024-3.985,2.093-6.852,3.186-1.216-1.42-.028-6.455,2.164-8.535C157.028,205.025,159.963,207.386,159.963,208.523Z" transform="translate(-152.624 -199.293)" fill="#464a51"/>
        <path id="Path_4340" data-name="Path 4340" d="M168.862,211.64c-3.174-.22-6.591-.676-6.851-2.153-.286-1.64,2.2-4.854,3.7-6.815C168.593,204.57,169.853,209.053,168.862,211.64Z" transform="translate(-147.504 -199.568)" fill="#464a51"/>
        <path id="Path_4341" data-name="Path 4341" d="M159.2,216.877a10.161,10.161,0,0,1-5.5-4.528c2.181-1.762,7.043-4.435,7.643-3.425C161.863,209.8,160.887,213.86,159.2,216.877Z" transform="translate(-152.038 -196.269)" fill="#464a51"/>
        <path id="Path_4342" data-name="Path 4342" d="M168.338,213.24c-2.028,2.326-3.966,3.768-7.326,3.989-.626-2.829-1.381-7.57-.138-8.362C162.1,208.087,165.84,211.065,168.338,213.24Z" transform="translate(-148.479 -196.249)" fill="#464a51"/>
      </g>
      <g id="Group_1033" data-name="Group 1033" transform="translate(15.487 15.039)">
        <path id="Path_4343" data-name="Path 4343" d="M159,206.9a.423.423,0,0,1-.316.518.445.445,0,0,1-.541-.3.424.424,0,0,1,.313-.521A.449.449,0,0,1,159,206.9Z" transform="translate(-158.123 -205.938)" fill="#464a51"/>
        <path id="Path_4344" data-name="Path 4344" d="M160.961,206.478a.423.423,0,0,1-.312.521.448.448,0,0,1-.543-.3.421.421,0,0,1,.312-.518A.445.445,0,0,1,160.961,206.478Z" transform="translate(-157.047 -206.167)" fill="#464a51"/>
        <path id="Path_4345" data-name="Path 4345" d="M161.4,207.985a.42.42,0,0,1-.312.518.447.447,0,0,1-.543-.3.423.423,0,0,1,.314-.518A.442.442,0,0,1,161.4,207.985Z" transform="translate(-156.808 -205.344)" fill="#464a51"/>
        <path id="Path_4346" data-name="Path 4346" d="M159.65,208.529a.42.42,0,0,1-.312.517.445.445,0,0,1-.544-.3.422.422,0,0,1,.312-.518A.447.447,0,0,1,159.65,208.529Z" transform="translate(-157.765 -205.046)" fill="#464a51"/>
      </g>
      <path id="Path_4347" data-name="Path 4347" d="M181.058,213.431a16.619,16.619,0,0,1-5.689,12.457c-.889-1.5-1.862-3.222-2.869-5.112-3.2-6.033-13.262-15.8-19.683-21.051a18.187,18.187,0,0,1,10.483-3.281C173.107,196.444,181.058,204.048,181.058,213.431Z" transform="translate(-145.538 -196.444)" fill="#111919" opacity="0.3" style="mix-blend-mode: multiply;isolation: isolate"/>
    </g>
    <path id="Path_4348" data-name="Path 4348" d="M207.375,171.893a22.78,22.78,0,0,1-8.865,12.865,24.273,24.273,0,0,1-2.591,1.647,26.922,26.922,0,0,1-3.513,1.618c-7.173,2.71-22.421,4.521-36.766,5.714-.665.056-1.326.108-1.986.162-1.315.107-2.613.2-3.889.3-9.016.665-17.133,1.086-21.908,1.349-13.166.721-40.032.36-40.032.36s26.508-21.683,39.13-27.06c5.9-2.517,16.837-3.98,28.232-4.5q1.675-.081,3.346-.128c4.456-.135,8.92-.13,13.12.011a106.268,106.268,0,0,1,17.508,1.748c1.043.224,2.033.452,2.968.676.877.206,1.711.415,2.5.62h0C204.335,169.792,207.375,171.893,207.375,171.893Z" transform="translate(-32.9 -158.603)" fill="#263a3a"/>
    <path id="Path_4349" data-name="Path 4349" d="M183.4,171.854a22.78,22.78,0,0,1-8.865,12.865,24.263,24.263,0,0,1-2.591,1.647,26.92,26.92,0,0,1-3.513,1.618c-7.173,2.71-22.421,4.521-36.766,5.714,3.078-3.688,7.086-8.543,10.4-12.746,5.448-6.91,6.128-11.651,5.616-16.76a106.269,106.269,0,0,1,17.508,1.748c1.043.224,2.033.452,2.968.676.877.206,1.711.415,2.5.62h0C180.362,169.754,183.4,171.854,183.4,171.854Z" transform="translate(-8.927 -158.564)" fill="#263a3a" opacity="0.4" style="mix-blend-mode: multiply;isolation: isolate"/>
    <path id="Path_4350" data-name="Path 4350" d="M203.447,172.511A22.017,22.017,0,0,1,192.574,185.4h0a24.731,24.731,0,0,1-5.892,2.167c-6.73,1.575-16.806,2.891-26.618,3.861h-.008c-10.3,1.015-20.307,1.644-25.847,1.785-10.815.268-43.815.806-43.815.806s11.674-9.329,24.274-17.3c2.812-1.779,5.668-3.49,8.452-5.016,9.7-5.307,33.274-8.463,56.145-5.349,2.834.381,5.654.86,8.433,1.445a94.484,94.484,0,0,1,13.552,3.862C201.987,171.931,202.721,172.216,203.447,172.511Z" transform="translate(-31.836 -158.055)" fill="#46676c"/>
    <path id="Path_4351" data-name="Path 4351" d="M176.617,170.717a113.688,113.688,0,0,1-8.671,13.736h0a24.729,24.729,0,0,1-5.892,2.167c-6.73,1.575-16.806,2.891-26.618,3.861,8.183-8.06,19.586-18.8,27.634-23.626A94.482,94.482,0,0,1,176.617,170.717Z" transform="translate(-7.07 -157.109)" fill="#46676c" opacity="0.4" style="mix-blend-mode: screen;isolation: isolate"/>
    <path id="Path_4352" data-name="Path 4352" d="M161.637,183.862a24.266,24.266,0,0,1-2.591,1.647l-3.788-19.75,2.5.62h0Z" transform="translate(3.788 -157.707)" fill="#263a3a"/>
    <g id="Group_1036" data-name="Group 1036" transform="translate(1.674 42.455)">
      <g id="Group_1035" data-name="Group 1035">
        <path id="Path_4353" data-name="Path 4353" d="M75.841,188.049a19.456,19.456,0,0,1-9.2,8.962,20.294,20.294,0,0,1-12.259,1.168c-.238-.056-.367-.093-.367-.093a14.941,14.941,0,0,1,3.655-5.533,13.275,13.275,0,0,1,3.739-2.532,18.876,18.876,0,0,1,3.284-1.086A44.079,44.079,0,0,1,75.841,188.049Z" transform="translate(-54.02 -188.001)" fill="url(#linear-gradient-12)"/>
        <path id="Path_4354" data-name="Path 4354" d="M66.089,192.917a4.869,4.869,0,0,1-9.737,0,5.133,5.133,0,0,1,.048-.695,13.275,13.275,0,0,1,3.739-2.532,18.876,18.876,0,0,1,3.284-1.086A4.826,4.826,0,0,1,66.089,192.917Z" transform="translate(-52.745 -187.67)" fill="#8da5b0" opacity="0.4" style="mix-blend-mode: screen;isolation: isolate"/>
      </g>
      <path id="Path_4355" data-name="Path 4355" d="M75.711,188.032a19.456,19.456,0,0,1-9.2,8.962,20.293,20.293,0,0,1-12.259,1.168C63.6,196.113,74.636,189.845,75.711,188.032Z" transform="translate(-53.89 -187.984)" fill="#8da5b0" opacity="0.3" style="mix-blend-mode: multiply;isolation: isolate"/>
    </g>
    <path id="Path_4357" data-name="Path 4357" d="M170.68,166.357c-5.906,6.574-16.037,16.382-24.769,17.445-10,1.214-28.458-4.144-39.827-7.08,2.812-1.779,5.668-3.49,8.452-5.016C124.23,166.4,147.808,163.243,170.68,166.357Z" transform="translate(-23.305 -158.055)" fill="#46676c" opacity="0.4" style="mix-blend-mode: screen;isolation: isolate"/>
    <path id="Path_4358" data-name="Path 4358" d="M136.638,164.186c-1.245,7.183-4.111,24.9-4.88,29.679-1.315.107-2.613.2-3.889.3.643-5.275,4.133-23.92,5.423-29.852Q134.967,164.233,136.638,164.186Z" transform="translate(-11.39 -158.568)" fill="#263a3a"/>
    <path id="Path_4359" data-name="Path 4359" d="M119.65,189.646l8.656-1.612v1.253a7.03,7.03,0,0,1-4.869,2.152C120.19,191.616,119.65,189.646,119.65,189.646Z" transform="translate(-15.947 -145.528)" fill="#2d4649"/>
    <path id="Path_4360" data-name="Path 4360" d="M151.882,185.178l.175,1.27a15.544,15.544,0,0,0,5.072.8c2.274-.158,3.5-3.5,3.5-3.5Z" transform="translate(1.925 -147.872)" fill="#2d4649"/>
    <path id="Path_4361" data-name="Path 4361" d="M189.162,202.966,177.7,197.712l-5.589-16.307s.065-.156.179-.413c.606-1.411,2.554-5.948,2.705-6.4l.06.011a151.652,151.652,0,0,1,9.5,17.017c.218.489.422.957.616,1.414s.384.888.565,1.309C187.444,198.337,188.5,201.047,189.162,202.966Z" transform="translate(13.186 -152.877)" fill="#ef1a21"/>
    <path id="Path_4362" data-name="Path 4362" d="M189.162,200.7,177.7,195.45l-5.589-16.307s.065-.156.179-.413c1.618,3.047,4.824,8.891,5.949,9.729a72.984,72.984,0,0,0,7.494,3.621C187.444,196.074,188.5,198.784,189.162,200.7Z" transform="translate(13.186 -150.615)" fill="#bf1623"/>
    <g id="Group_1037" data-name="Group 1037" transform="translate(57.141 28.884)">
      <path id="Path_4363" data-name="Path 4363" d="M102.159,186.667H93.234l-.167-1.055-.288-1.816a4.448,4.448,0,0,1,.3-.425,10.427,10.427,0,0,1,7.364-4.144l.957,4.144Z" transform="translate(-88.003 -179.227)" fill="#e8552d"/>
      <path id="Path_4364" data-name="Path 4364" d="M95.278,185.358H89.691l.237-.165,4.809-3.415.032.2.326,2.166.172,1.129Z" transform="translate(-89.691 -177.832)" fill="#181a18"/>
    </g>
    <path id="Path_4365" data-name="Path 4365" d="M95.267,185.2l.011.085H89.691l.238-.165c1.326-.235,3.041-.58,4.826-.975.113-.02.224-.048.34-.074a69.25,69.25,0,0,0,8-2.167l.756,3.3Z" transform="translate(-32.55 -148.878)" opacity="0.4" fill="url(#linear-gradient-13)" style="mix-blend-mode: multiply;isolation: isolate"/>
    <path id="Path_4366" data-name="Path 4366" d="M99.936,181.347c-3.684,2.569-15.406,7.672-27.563,9.445-6.187.9-11.282,1.318-14.989,1.5a13.005,13.005,0,0,1,1.649-1.323C64.556,187.25,88.759,182.83,99.936,181.347Z" transform="translate(-50.506 -149.184)" fill="#7ab3b8" opacity="0.3" style="mix-blend-mode: screen;isolation: isolate"/>
    <path id="Path_4367" data-name="Path 4367" d="M175.506,188.331a4.147,4.147,0,1,1-4.147-4.121A4.135,4.135,0,0,1,175.506,188.331Z" transform="translate(10.51 -147.619)" fill="#669b9c" opacity="0.3" style="mix-blend-mode: multiply;isolation: isolate"/>
  </g>
  <g id="Group_1040" data-name="Group 1040" transform="translate(228.115 30.855)">
    <path id="Path_4369" data-name="Path 4369" d="M185.679,195.187c-.063.13-.133.278-.212.441-.461.961-1.1,2.362-1.1,2.362a10.478,10.478,0,0,0-2.11.056c-1.471.128-3.121.342-3.121.342l-.4-1.907a2.535,2.535,0,0,1-2.661.622,1.5,1.5,0,0,1-.507-.3c-.95-.8-1.869-2.951-2.241-6.22a13.979,13.979,0,0,1,1.067-7.465c.059-.144.118-.288.172-.427.025-.056.049-.107.074-.156.572.254,1.092.388,1.036.732a6.443,6.443,0,0,0,1.018,4.656c.447-.643.992-1.027,1.452-.794.365.181.678.746.855,1.856a2.8,2.8,0,0,1-1.729,3.239,8.524,8.524,0,0,0,.841,1.816c.575.933.841.8,3.879.266C184.186,193.925,185.252,194.717,185.679,195.187Z" transform="translate(-173.209 -176.307)" fill="url(#linear-gradient-14)"/>
    <path id="Path_4370" data-name="Path 4370" d="M182.711,191.086l.308-.931s-4.7-7.049-5.186-7.227-2.9-1.661-3.7-.155c.572.254,1.092.384,1.036.732a6.437,6.437,0,0,0,1.021,4.654c.8-1.151,1.9-1.463,2.3,1.066a2.8,2.8,0,0,1-1.729,3.236,8.584,8.584,0,0,0,.841,1.819c.577.93.843.8,3.879.264,2.192-.384,3.261.408,3.686.879a3.152,3.152,0,0,1,.24-.433Z" transform="translate(-172.706 -176.542)" fill="url(#linear-gradient-15)"/>
    <path id="Path_4371" data-name="Path 4371" d="M190.774,188.171a7.4,7.4,0,0,1-.645,2.845,54.263,54.263,0,0,1-4.209,6.691,1.79,1.79,0,0,0-.24-.317c-.427-.47-1.493-1.262-3.686-.88-3.038.532-3.3.667-3.879-.266a8.525,8.525,0,0,1-.841-1.816A2.8,2.8,0,0,0,179,191.188c-.4-2.526-1.51-2.217-2.308-1.063a6.436,6.436,0,0,1-1.029-4.577.346.346,0,0,1,.011-.079c.028-.183-.1-.308-.319-.418l-.006,0c-.19-.1-.442-.2-.712-.312a1.991,1.991,0,0,1-1.426-2.063,3.41,3.41,0,0,1,.63-2.07,1.439,1.439,0,0,1,.13-.139,1.473,1.473,0,0,1,.241-.183.84.84,0,0,1,.226-.09s-.133-1.5,2.181-1.637l.119,0a5.813,5.813,0,0,1,2.268.363,6.043,6.043,0,0,1,1.163.58c.08.053.152.1.213.147a2.585,2.585,0,0,1,.3.24,2.661,2.661,0,0,1-.066-.676,1.036,1.036,0,0,1,.105-.464c.107-.189.311-.3.671-.195a1.924,1.924,0,0,1,.311.125,4.275,4.275,0,0,1,1.507,1.83s.028-.084.084-.213a1.975,1.975,0,0,1,.965-1.078.919.919,0,0,1,.582,0,1.2,1.2,0,0,1,.232.1,3.636,3.636,0,0,1,1.463,1.4,1.88,1.88,0,0,1,.132.283.667.667,0,0,1,.183-.07,1.1,1.1,0,0,1,.49,0,1.66,1.66,0,0,1,.357.122,4.28,4.28,0,0,1,1.678,1.859c.023.043.046.082.065.125.053.091.1.181.145.274A9.978,9.978,0,0,1,190.774,188.171Z" transform="translate(-173.211 -178.509)" fill="url(#linear-gradient-16)"/>
    <path id="Path_4373" data-name="Path 4373" d="M176.454,186.048a4.6,4.6,0,0,0-1.134,2.727.854.854,0,0,0,.93-.566c.2-.664-.063-.738-.063-.738Z" transform="translate(-172.058 -174.386)" fill="#e78565" opacity="0.3" style="mix-blend-mode: multiply;isolation: isolate"/>
    <path id="Path_4374" data-name="Path 4374" d="M173.844,179.864a8.982,8.982,0,0,0,1.508,4.446c-.19-.1-.442-.2-.712-.312a1.991,1.991,0,0,1-1.426-2.063A3.41,3.41,0,0,1,173.844,179.864Z" transform="translate(-173.211 -177.768)" opacity="0.3" fill="url(#linear-gradient-17)" style="mix-blend-mode: multiply;isolation: isolate"/>
    <path id="Path_4375" data-name="Path 4375" d="M189.931,185.682a7.4,7.4,0,0,1-.645,2.845,54.262,54.262,0,0,1-4.209,6.692,1.79,1.79,0,0,0-.24-.317c-.427-.47-1.493-1.262-3.686-.88-3.038.532-3.3.667-3.879-.266a8.525,8.525,0,0,1-.841-1.816,2.8,2.8,0,0,0,1.729-3.239c-.4-2.526-1.51-2.217-2.308-1.063a6.436,6.436,0,0,1-1.029-4.577c.164.265.421.671.807,1.3,1.12,1.8,3.394,1.063,7.584,1.508C186.6,186.222,188.377,186.319,189.931,185.682Z" transform="translate(-172.369 -176.02)" opacity="0.3" fill="url(#linear-gradient-18)" style="mix-blend-mode: multiply;isolation: isolate"/>
    <g id="Group_1039" data-name="Group 1039" transform="translate(1.184 6.229)" opacity="0.2" style="mix-blend-mode: multiply;isolation: isolate">
      <path id="Path_4376" data-name="Path 4376" d="M176.276,187.924c-1.21-.811-1.462-4.046-1.343-4.181.093-.1-.469-.364-.957-.623.059-.144.118-.288.172-.427.025-.056.049-.107.074-.156.572.254,1.092.388,1.036.732A6.443,6.443,0,0,0,176.276,187.924Z" transform="translate(-173.976 -182.536)" fill="#e67f55"/>
      <path id="Path_4377" data-name="Path 4377" d="M184.847,193.563c-.063.13-.133.278-.212.441a8.9,8.9,0,0,0-3.211,2.418c-1.471.128-3.121.342-3.121.342l-.4-1.907a2.535,2.535,0,0,1-2.661.622,1.5,1.5,0,0,1-.507-.3,2.194,2.194,0,0,0,1.469-.486c.967-.79,0-4.524,0-4.524,1.875-1.162,1.519-3.65,1.109-4.664.365.181.678.746.855,1.856a2.8,2.8,0,0,1-1.729,3.239,8.525,8.525,0,0,0,.841,1.816c.575.933.841.8,3.879.266C183.354,192.3,184.42,193.093,184.847,193.563Z" transform="translate(-173.561 -180.912)" fill="#e67f55"/>
    </g>
  </g>
  <g id="Group_1043" data-name="Group 1043" transform="translate(198.753 54.776)">
    <g id="Group_1041" data-name="Group 1041" transform="translate(5.03 1.841)">
      <path id="Path_4378" data-name="Path 4378" d="M159.369,226.634a.815.815,0,0,1-.806.823h0a.815.815,0,0,1-.8-.823V200.276a.813.813,0,0,1,.8-.823h0a.814.814,0,0,1,.806.823Z" transform="translate(-157.76 -199.453)" fill="#61727c"/>
      <path id="Path_4379" data-name="Path 4379" d="M162.366,226.634a.782.782,0,0,1-.732.823h0a.781.781,0,0,1-.729-.823V200.276a.78.78,0,0,1,.729-.823h0a.781.781,0,0,1,.732.823Z" transform="translate(-156.04 -199.453)" fill="#61727c"/>
    </g>
    <g id="Group_1042" data-name="Group 1042" transform="translate(1.354)">
      <rect id="Rectangle_109" data-name="Rectangle 109" width="7.122" height="2.461" transform="translate(3.193 14.371)" fill="#c3c3c3"/>
      <path id="Path_4380" data-name="Path 4380" d="M157.507,205.5l-1.965-6.143,1.351-.613,3.561,6.877Z" transform="translate(-155.297 -198.002)" fill="#c3c3c3"/>
      <path id="Path_4381" data-name="Path 4381" d="M163.851,205.757l2.581-6.634-1.475-.86-4.176,7.615Z" transform="translate(-152.431 -198.263)" fill="#c3c3c3"/>
      <path id="Path_4382" data-name="Path 4382" d="M157.716,213.746l-2.333,5.772,1.6.369,3.439-5.9Z" transform="translate(-155.383 -189.796)" fill="#c3c3c3"/>
      <path id="Path_4383" data-name="Path 4383" d="M160.624,213.825c.244.368,3.683,6.265,3.683,6.265l1.964-.371-2.334-5.525Z" transform="translate(-152.518 -189.753)" fill="#c3c3c3"/>
      <rect id="Rectangle_110" data-name="Rectangle 110" width="9.209" height="3.192" transform="translate(2.211 7.494)" fill="#c3c3c3"/>
      <rect id="Rectangle_111" data-name="Rectangle 111" width="9.209" height="3.193" transform="translate(2.211 21.246)" fill="#c3c3c3"/>
    </g>
    <path id="Path_4384" data-name="Path 4384" d="M156.177,206.926l2.455-.246.246,6.385H156.3Z" transform="translate(-153.596 -193.66)" fill="#323333"/>
    <path id="Path_4385" data-name="Path 4385" d="M157.213,216.088a1.352,1.352,0,0,1-1.35,1.352h0a1.353,1.353,0,0,1-1.35-1.352l0-10.439a1.351,1.351,0,0,1,1.352-1.352h0a1.35,1.35,0,0,1,1.35,1.352Z" transform="translate(-154.508 -194.963)" fill="#c3c3c3"/>
  </g>
  <g id="Group_1046" data-name="Group 1046" transform="translate(196.283 49.116)">
    <g id="Group_1045" data-name="Group 1045" transform="translate(0 1.702)">
      <path id="Path_4386" data-name="Path 4386" d="M158.783,198.322a1.9,1.9,0,0,1-.142.759l-.006,0a.251.251,0,0,1-.1.108,15.289,15.289,0,0,0-1.435,1c-.317.251-.538.433-.538.433a2.3,2.3,0,0,1-1.692-1.251c-.727-1.213-2.438-3.664-2.218-3.989l0,0c.128-.173.6.275,1,.718l.011.006c.271.3.512.6.594.7a.036.036,0,0,0,.017.017c-.135-.235-1.59-2.761-1.27-3.023a.121.121,0,0,1,.107-.022c.311.054.979.835,1.4,1.364a.065.065,0,0,1,.019.023c.169.218.294.385.34.444-.012-.02-.034-.054-.06-.105l0-.011c-.329-.554-1.5-2.585-1.157-2.715a.124.124,0,0,1,.1.015h0c.532.238,2.142,2.807,2.246,2.978a.622.622,0,0,0-.033-.077l0-.012c-.217-.5-1.207-2.812-.906-2.967a.13.13,0,0,1,.043-.014c.622-.136,2.373,3.135,2.373,3.135s-.042-1.222.272-1.491a.188.188,0,0,1,.183-.048C158.437,194.414,158.783,198.322,158.783,198.322Z" transform="translate(-152.632 -192.696)" fill="url(#linear-gradient-19)"/>
      <g id="Group_1044" data-name="Group 1044" transform="translate(0 0.004)" opacity="0.32">
        <path id="Path_4387" data-name="Path 4387" d="M157.1,199.242c-.317.251-.538.433-.538.433a2.3,2.3,0,0,1-1.692-1.251c-.727-1.213-2.438-3.664-2.218-3.989a21.32,21.32,0,0,0,2.623,3.633A4.221,4.221,0,0,0,157.1,199.242Z" transform="translate(-152.632 -191.75)" fill="#e67f55"/>
        <path id="Path_4388" data-name="Path 4388" d="M153.3,194.9c.271.3.512.6.594.7A6,6,0,0,1,153.3,194.9Z" transform="translate(-152.267 -191.495)" fill="#e67f55"/>
        <path id="Path_4389" data-name="Path 4389" d="M154.775,196.972a4.292,4.292,0,0,1-.614-.532c-.135-.235-1.59-2.761-1.27-3.023A.121.121,0,0,1,153,193.4,20.5,20.5,0,0,0,154.775,196.972Z" transform="translate(-152.516 -192.32)" fill="#e67f55"/>
        <path id="Path_4390" data-name="Path 4390" d="M155.335,196.347a7.51,7.51,0,0,1-.86-.871l0-.011c-.329-.554-1.5-2.585-1.157-2.715a.124.124,0,0,1,.1.015h0A15.789,15.789,0,0,0,155.335,196.347Z" transform="translate(-152.294 -192.673)" fill="#e67f55"/>
        <path id="Path_4391" data-name="Path 4391" d="M156.059,197.182c-.111-.173-.5-.767-.931-1.49l0-.012c-.217-.5-1.207-2.812-.906-2.967a.13.13,0,0,1,.043-.014A43.539,43.539,0,0,0,156.059,197.182Z" transform="translate(-151.796 -192.699)" fill="#e67f55"/>
        <path id="Path_4392" data-name="Path 4392" d="M156.977,197.758a1.9,1.9,0,0,1-.142.76l-.006,0c-.051.022-.08.032-.08.032,0-.7-.616-3.813-.812-4.77a.188.188,0,0,1,.183-.048C156.63,193.851,156.977,197.758,156.977,197.758Z" transform="translate(-150.826 -192.137)" fill="#e67f55"/>
      </g>
    </g>
    <path id="Path_4393" data-name="Path 4393" d="M206.923,214.262a12.568,12.568,0,0,1-.484,1.624c-1.171,3.183-5.994,6.6-5.994,6.6a2.989,2.989,0,0,0-.094,1.357c.116.56.838,2.854,1.061,3.545.039.13.063.2.063.2a8.011,8.011,0,0,1-1.307.8h0c-.162.08-.329.155-.506.235-2.883,1.222-7.1,1.507-11.525,1.392a22.665,22.665,0,0,1-7.1-1.128,6.055,6.055,0,0,1-.758-.32,82.018,82.018,0,0,0,1.262-10.625,92.772,92.772,0,0,0-.889-10.252,34.664,34.664,0,0,1-14.834,4.588s-.753.142-3.743-2.345-7.118-8.426-7.118-8.426a2.309,2.309,0,0,1,.387-.592,14.761,14.761,0,0,1,1.907-1.746s2.481,1.593,4.5,3.234a46.3,46.3,0,0,0,6.269,3.788s8.572-6.953,11.289-9.615a9.351,9.351,0,0,1,1.189-.993,9.661,9.661,0,0,1,2.9-1.369,18.94,18.94,0,0,1,2.781-.5l.411-.557.857-1.148c1.262-.467,8-.418,8-.418l1.44,1.842.053.071c.925.252,2.1.592,3.1.964a5.7,5.7,0,0,1,1.952,1.052.79.79,0,0,1,.06.063c2.268,2.512,4.342,8.023,4.877,11.918A16.894,16.894,0,0,1,206.923,214.262Z" transform="translate(-151.366 -191.595)" fill="#8d7b06"/>
    <path id="Path_4394" data-name="Path 4394" d="M178.853,196.407c.048.331.656,14.231.282,19.287a30.719,30.719,0,0,0,1.027-9.409A49.808,49.808,0,0,0,178.853,196.407Z" transform="translate(-138.295 -188.966)" fill="#222b2a" opacity="0.24" style="mix-blend-mode: multiply;isolation: isolate"/>
    <path id="Path_4395" data-name="Path 4395" d="M185.92,201.886c.328,1.027,1.4,5.616-1.075,8.7a27.54,27.54,0,0,0,.794-4.82C185.734,203.615,185.92,201.886,185.92,201.886Z" transform="translate(-135.018 -185.97)" fill="#222b2a" opacity="0.24" style="mix-blend-mode: multiply;isolation: isolate"/>
    <path id="Path_4396" data-name="Path 4396" d="M181.956,211.327c.122,4.006.19,10.726-.931,14.276a6.028,6.028,0,0,1-.755-.323,82.983,82.983,0,0,0,1.264-10.627,93.022,93.022,0,0,0-.893-10.249,34.612,34.612,0,0,1-14.835,4.588s-.749.142-3.743-2.345-7.114-8.424-7.114-8.424a2.26,2.26,0,0,1,.388-.6c1.672,2.231,7.338,9,10.538,9.9,0,0,11.162-1.323,16.43-6.8C182.306,200.727,181.814,206.766,181.956,211.327Z" transform="translate(-151.366 -188.3)" fill="#222b2a" opacity="0.24" style="mix-blend-mode: multiply;isolation: isolate"/>
    <path id="Path_4397" data-name="Path 4397" d="M191.4,208.636a12.535,12.535,0,0,1-.483,1.626c-1.172,3.182-6,6.6-6,6.6a2.96,2.96,0,0,0-.093,1.358c.118.558.84,2.854,1.063,3.545-.51.425-.945.77-1.245,1.005h0c-.283.218-.449.342-.449.342a.412.412,0,0,1-.06-.107c-.333-.761-1.466-5.323-.289-8.39,1.262-3.3,2.857-7.983,2.9-12.73a14.4,14.4,0,0,1-1.075,10.611,5.8,5.8,0,0,0-.345,2.541A20.867,20.867,0,0,0,191.4,208.636Z" transform="translate(-135.848 -185.97)" fill="#222b2a" opacity="0.24" style="mix-blend-mode: multiply;isolation: isolate"/>
    <path id="Path_4398" data-name="Path 4398" d="M189.5,203.573c-.037-.812-.07-1.309-.07-1.309A8.94,8.94,0,0,1,189.5,203.573Z" transform="translate(-132.512 -185.763)" fill="#222b2a" opacity="0.24" style="mix-blend-mode: multiply;isolation: isolate"/>
    <path id="Path_4399" data-name="Path 4399" d="M185.7,193.443c-3.2.419-8.192-.148-10.3-.28l.852-1.143c1.262-.469,8-.422,8-.422Z" transform="translate(-140.184 -191.596)" fill="#222b2a" opacity="0.24" style="mix-blend-mode: multiply;isolation: isolate"/>
  </g>
  <g id="Group_1050" data-name="Group 1050" transform="translate(217.158 77.798)">
    <path id="Path_4400" data-name="Path 4400" d="M197.118,268.573v0c-.727,4.733-1.555,8.732-1.593,8.845s-.659.063-1.188-.017c-.405-.06-.759-.135-.759-.135s-4.5-19.932-6.071-26.3-4.645-23.232-4.645-23.232l-4.647,21.125s2.1,2.329,1.565,9.979c-.561,8.013-5.763,21.951-5.763,21.951H172.2a193.98,193.98,0,0,1-2.379-37.319,243.043,243.043,0,0,1,2.127-26.113c.121-.866.212-1.445.252-1.7a112.494,112.494,0,0,0,11.414.688c6.593.082,9.816-2.278,9.816-2.278a11.28,11.28,0,0,1-.224,8.893l.9,23.728s3.173,1.788,4,8.681C198.461,258.423,197.842,263.861,197.118,268.573Z" transform="translate(-164.148 -214.074)" fill="url(#linear-gradient-20)"/>
    <g id="Group_1047" data-name="Group 1047" transform="translate(7.797)">
      <path id="Path_4401" data-name="Path 4401" d="M196.342,268.573c.012-2.421,0-5.414-.1-8.613a30.7,30.7,0,0,0-3.445-13.188c0-.226-1.275-24.248-1.275-24.248a13.09,13.09,0,0,0-.749-6.172c-6.224,3.437-16.593,1.637-19.609,1.009.121-.866.212-1.445.252-1.7a112.494,112.494,0,0,0,11.414.688c6.593.082,9.816-2.278,9.816-2.278a11.28,11.28,0,0,1-.224,8.893l.9,23.728s3.173,1.788,4,8.681C197.685,258.423,197.066,263.861,196.342,268.573Z" transform="translate(-171.169 -214.074)" fill="#222b2a" opacity="0.24" style="mix-blend-mode: multiply;isolation: isolate"/>
      <path id="Path_4402" data-name="Path 4402" d="M187.076,243.8c-1.162-4.39-4.7-18.809-5.307-21.283a19.771,19.771,0,0,0,6.582-1.783,54.787,54.787,0,0,1-12.84.549s1.2,1.318,4.744,1.318c.464,0,.9-.028,1.319-.068l-6.415,23a47.7,47.7,0,0,1,1.349,11.317c-.07,5.384-3.855,17.768-4.6,20.308h.928s5.2-13.938,5.763-21.951c.532-7.649-1.565-9.979-1.565-9.979l4.647-21.125s3.075,16.859,4.645,23.232,6.071,26.3,6.071,26.3.354.074.759.135C193.09,268.9,188.306,248.434,187.076,243.8Z" transform="translate(-170.765 -210.435)" fill="#222b2a" opacity="0.24" style="mix-blend-mode: multiply;isolation: isolate"/>
    </g>
    <g id="Group_1048" data-name="Group 1048" transform="translate(0 65.747)">
      <path id="Path_4403" data-name="Path 4403" d="M175.865,259.393a2.273,2.273,0,0,1-1.516.783,4.781,4.781,0,0,1-.557.065,17.5,17.5,0,0,1-7.664-1.616s.189-.19.517-.459a6.355,6.355,0,0,1,3.732-1.586,7.976,7.976,0,0,1,3.6.862c.132.07.2.11.2.11H176A2.014,2.014,0,0,1,175.865,259.393Z" transform="translate(-166.128 -256.579)" fill="#3f342c"/>
      <path id="Path_4404" data-name="Path 4404" d="M175.865,258.832a2.273,2.273,0,0,1-1.516.783,4.788,4.788,0,0,1-.557.065,17.5,17.5,0,0,1-7.664-1.616s.189-.19.517-.459a25.346,25.346,0,0,0,7.312,1.234C174.83,258.866,175.5,258.843,175.865,258.832Z" transform="translate(-166.128 -256.019)" fill="#503f33" opacity="0.25" style="mix-blend-mode: multiply;isolation: isolate"/>
      <path id="Path_4405" data-name="Path 4405" d="M173.156,259.088a2.273,2.273,0,0,1-1.516.783,4.768,4.768,0,0,1-.557.065,4.867,4.867,0,0,0,.164-.841,9.942,9.942,0,0,0,.023-1.958c.132.07.2.11.2.11h1.819A2.014,2.014,0,0,1,173.156,259.088Z" transform="translate(-163.419 -256.274)" fill="#503f33" opacity="0.25" style="mix-blend-mode: multiply;isolation: isolate"/>
    </g>
    <g id="Group_1049" data-name="Group 1049" transform="translate(22.288 62.739)">
      <path id="Path_4406" data-name="Path 4406" d="M189.77,256.945a1.093,1.093,0,0,1-.444.7,5.918,5.918,0,0,1-1.425.179,16.753,16.753,0,0,1-7.364-1.729s.217-.138.6-.328c1.21-.606,4.051-1.759,6.48-.7a.315.315,0,0,0,.063.028l1.947.152A3.725,3.725,0,0,1,189.77,256.945Z" transform="translate(-180.537 -254.634)" fill="#3f342c"/>
      <path id="Path_4407" data-name="Path 4407" d="M189.77,256.545a1.093,1.093,0,0,1-.444.7s-3.222.971-8.789-1.55c0,0,.217-.138.6-.328C182.945,255.922,187.222,257.087,189.77,256.545Z" transform="translate(-180.537 -254.234)" fill="#503f33" opacity="0.25" style="mix-blend-mode: multiply;isolation: isolate"/>
      <path id="Path_4408" data-name="Path 4408" d="M187.268,256.793a1.093,1.093,0,0,1-.444.7,5.917,5.917,0,0,1-1.425.179,7.3,7.3,0,0,0-.286-2.758.315.315,0,0,0,.063.028l1.947.152A3.725,3.725,0,0,1,187.268,256.793Z" transform="translate(-178.035 -254.482)" fill="#503f33" opacity="0.25" style="mix-blend-mode: multiply;isolation: isolate"/>
    </g>
  </g>
  <g id="Group_3975" data-name="Group 3975" transform="translate(0 38.628)">
    <path id="Path_4409" data-name="Path 4409" d="M27.991,256.019c.1.444.212.882.32,1.312-.541.708-2.727,3.57-4.289,6.059a41.751,41.751,0,0,0-3.361,8.023l-.671-1.07-.882-1.387s.246-10.15,1.061-16.7a30.41,30.41,0,0,1,4.753-12.116s0-2.7-.408-7.044c-.252-2.642-.591-8.271-.82-12.26-.145-2.521-.243-4.381-.247-4.433a11.068,11.068,0,0,0,2.54,3.106l4.421,23S25.9,246.935,27.991,256.019Z" transform="translate(-16.396 -156.578)" fill="url(#linear-gradient-21)"/>
    <path id="Path_4410" data-name="Path 4410" d="M27.68,256.019c.1.444.212.882.32,1.312-.541.708-2.727,3.57-4.289,6.059a41.752,41.752,0,0,0-3.361,8.023l-.671-1.07c.234-1.418.568-3.216,1-4.9a53.841,53.841,0,0,1,3.685-8.843s.084-3.524.492-6.879a81.356,81.356,0,0,1,2.294-9.664L24.855,224.91s-.849-2.319-1.473-4.077c-.145-2.521-.243-4.381-.247-4.433a11.068,11.068,0,0,0,2.54,3.106l4.421,23S25.591,246.935,27.68,256.019Z" transform="translate(-16.085 -156.578)" opacity="0.3" fill="url(#linear-gradient-22)" style="mix-blend-mode: multiply;isolation: isolate"/>
    <g id="Group_1051" data-name="Group 1051" transform="translate(0 112.146)">
      <path id="Path_4411" data-name="Path 4411" d="M17.355,254.195a17.566,17.566,0,0,0,2.634,1.663,11.6,11.6,0,0,0,2.351.925,7.757,7.757,0,0,0,3.669.325c.067-.025.1-.049.107-.071.022-.128-2.183-1.839-2.987-2.79a13.44,13.44,0,0,1-1.414-2.05,8.252,8.252,0,0,0-1.217-1.559c-.255-.258-.433-.41-.433-.41l-2.011,2.944Z" transform="translate(-17.355 -250.227)" fill="#592a11"/>
      <path id="Path_4412" data-name="Path 4412" d="M17.355,253.154a15.835,15.835,0,0,0,4.985,2.588,7.757,7.757,0,0,0,3.669.325,13.982,13.982,0,0,1-5.48-1.895,8.717,8.717,0,0,1-2.475-2.042Z" transform="translate(-17.355 -249.186)" fill="#ab9281"/>
      <path id="Path_4413" data-name="Path 4413" d="M17.355,254.195a17.566,17.566,0,0,0,2.634,1.663c-.011-.447-.017-.934-.025-1.426-.012-1.435.535-3.067.534-3.794-.255-.258-.433-.41-.433-.41l-2.011,2.944Z" transform="translate(-17.355 -250.227)" fill="#592a11" opacity="0.3" style="mix-blend-mode: multiply;isolation: isolate"/>
    </g>
    <g id="Group_1052" data-name="Group 1052" transform="translate(26.455 35.921)">
      <path id="Path_4414" data-name="Path 4414" d="M60.141,208.22c0,.15-.063.342-.384.436a.079.079,0,0,1-.037.011,1.161,1.161,0,0,1-1.009-.476c.029.048.094.161.153.285v0c.088.2.136.422-.09.422a1.5,1.5,0,0,1-.3-.039,6.374,6.374,0,0,1-.928-.292h-.821a9.825,9.825,0,0,1-2.865-1.227l-.653.408a33.869,33.869,0,0,1-7.538.411,37.138,37.138,0,0,1-11.214-3.193s.2-1.169.472-2.189c.084-.306.173-.6.266-.841a9.156,9.156,0,0,1,2.21-2.54s5.077,2.54,7.944,3.606a61.939,61.939,0,0,0,7.284,1.964,6.461,6.461,0,0,1,2.7-1.558c1.228-.161,3.111,1.882,4.094,2.948a2.109,2.109,0,0,1,.705,1.38.547.547,0,0,1-.049.257A.6.6,0,0,1,60.141,208.22Z" transform="translate(-34.458 -199.402)" fill="url(#linear-gradient-23)"/>
      <path id="Path_4416" data-name="Path 4416" d="M50.966,206.326a6.374,6.374,0,0,1-.928-.292h-.159a8.887,8.887,0,0,1-1.684-1.991l.462.4A11.292,11.292,0,0,0,50.966,206.326Z" transform="translate(-26.947 -196.864)" fill="#dd7553" opacity="0.3" style="mix-blend-mode: multiply;isolation: isolate"/>
      <path id="Path_4417" data-name="Path 4417" d="M50.569,205.586c.029.048.094.161.153.285a.492.492,0,0,1-.059-.056,10.062,10.062,0,0,1-1.313-1.649,17.336,17.336,0,0,0,2.227,1.9A1.161,1.161,0,0,1,50.569,205.586Z" transform="translate(-26.315 -196.797)" fill="#dd7553" opacity="0.3" style="mix-blend-mode: multiply;isolation: isolate"/>
      <path id="Path_4418" data-name="Path 4418" d="M51.829,205.887c-.441-.43-2-1.947-2.161-2.2a22.5,22.5,0,0,1,2.156,1.718.547.547,0,0,1-.049.257A.6.6,0,0,1,51.829,205.887Z" transform="translate(-26.146 -197.069)" fill="#dd7553" opacity="0.3" style="mix-blend-mode: multiply;isolation: isolate"/>
    </g>
    <path id="Path_4421" data-name="Path 4421" d="M31.415,191.483c.5-.382,12.009-8.532,12.009-8.532a3.014,3.014,0,0,0,2.685-.244,8.29,8.29,0,0,0,1.912-1.449c.674-.7,1.026-1.434.534-1.873-.835-.741-2.421.633-2.579.855.1-.23.883-2.149.381-2.515-.541-.391-2.249,1.123-2.249,1.123s-.636-3.2-6.6-3.737c-4.1-.37-6.659,1.152-7.989,3.861a11.927,11.927,0,0,0-1.1,4.323C28.126,186.919,30.129,189.946,31.415,191.483Z" transform="translate(-11.317 -175.056)" fill="url(#linear-gradient-24)"/>
    <path id="Path_4425" data-name="Path 4425" d="M44.6,206.5s-.094.127-.244.339c-.051.065-.105.142-.169.226-.015.025-.036.05-.054.079-.328.445-.777,1.061-1.163,1.582-.025.028-.045.059-.07.088-.034.049-.07.1-.1.142a.547.547,0,0,0-.068.1,4.58,4.58,0,0,0-.5.993,13.321,13.321,0,0,0-.58,2.023,5.523,5.523,0,0,1-1.111-.9,19.767,19.767,0,0,1-2.187-2.727.2.2,0,0,1-.019.054c-.028.084-.054.183-.082.282-.144.466-.3,1.039-.408,1.562-.02.107-.045.21-.06.314a.139.139,0,0,0,0,.032.2.2,0,0,0-.011.054,2.973,2.973,0,0,0,.1,2c.009.019.048.526.079,1.268.011.127.014.269.025.413.032.888.063,2.011.048,3.033,0,.141,0,.281,0,.415,0,.085-.008.161-.008.241a5.8,5.8,0,0,1-.288,2.108c-.365.565-.684,1.021-.973,1.4a7.89,7.89,0,0,1-1.37,1.53l-.221.048c-.192.04-.5.093-.889.141a15.188,15.188,0,0,1-2.992.065,14.67,14.67,0,0,1-1.974-.3c-.266-.059-.537-.125-.812-.21-.23-.063-.467-.144-.7-.227a.12.12,0,0,1-.031-.006l-.4-.15h-.008c-.241-.1-.472-.2-.7-.3l-.02,0a14.26,14.26,0,0,1-1.592-.82c-2.156-1.273-3.321-2.7-3.538-3.42,0-.026-.015-.049-.02-.077-.02-.08-.034-.181-.054-.3-.011-.074-.019-.158-.029-.254a31.538,31.538,0,0,1,.183-6.617c.015-.116.029-.23.043-.343.015-.1.025-.2.04-.292a36.189,36.189,0,0,1,.854-4.275c.029-.1.054-.206.084-.309.025-.084.045-.172.074-.257.271-.961.6-1.94.976-2.911.489-1.25.974-2.442,1.46-3.569.025-.063.054-.127.079-.193.045-.094.088-.189.122-.281.6-1.375,1.19-2.654,1.759-3.818.045-.093.094-.187.139-.28.077-.148.152-.3.226-.447a36.939,36.939,0,0,1,2.342-4.068l0-.009q.084-.125.172-.251a11.041,11.041,0,0,1,1.411-1.689c.06-.06.119-.11.176-.158.079-.074.158-.138.232-.2.053-.045.1-.085.147-.122a3.624,3.624,0,0,1,1.454-.806c.472-.094.643.113.643.113A3.969,3.969,0,0,1,36,187.576c.088.08.176.164.269.257a1.094,1.094,0,0,1,.1.107c.032.036.067.07.1.105.065.068.124.147.193.22a18.967,18.967,0,0,1,1.258,1.72,13.97,13.97,0,0,1,.761,1.346,18.605,18.605,0,0,1,.811,1.872c.039.1.079.212.124.319.229.62.5,1.392.78,2.221.241.722.487,1.5.713,2.271.264.889.617,2.529,1.14,4.24.161.544.343,1.1.544,1.635.084.221.167.438.255.648a7.485,7.485,0,0,0,.845,1.134C44.252,206.113,44.6,206.5,44.6,206.5Z" transform="translate(-15.194 -170.276)" fill="url(#linear-gradient-25)"/>
    <g id="Group_1053" data-name="Group 1053" transform="translate(18.766 32.596)" opacity="0.5" style="mix-blend-mode: multiply;isolation: isolate">
      <path id="Path_4428" data-name="Path 4428" d="M29.8,217.4c.393-.045.7-.1.891-.139.142-.028.223-.048.223-.048a7.74,7.74,0,0,0,1.369-1.528v0c-.1-.84-.22-1.955-.247-2.671-.048-1.267-.148-3.811,0-6.791s.292-5.227.441-6.35a13.394,13.394,0,0,1-.978-1.367c-.175-.275-.339-.51-.483-.695a5.683,5.683,0,0,0-.445-.527s-.006.02-.02.09c-.04.23-.156.991-.421,3.281-.339,2.982-.586,6.792-.634,9.918C29.45,213.076,29.694,216.247,29.8,217.4Z" transform="translate(-29.487 -197.277)" fill="url(#linear-gradient-26)"/>
    </g>
    <path id="Path_4443" data-name="Path 4443" d="M33.671,190.491a8.5,8.5,0,0,0-1.589-3.295,3.991,3.991,0,0,0-1.952-1.273s-.708.561-.781.832l.28.073a4.766,4.766,0,0,1,1.7.9A32.375,32.375,0,0,1,33.671,190.491Z" transform="translate(-10.796 -170.21)" fill="#9d0012"/>
    <g id="Group_1064" data-name="Group 1064" transform="translate(12.597 47.252)">
      <path id="Path_4449" data-name="Path 4449" d="M35.72,206.907a5.8,5.8,0,0,1-.288,2.108c-.365.565-.684,1.021-.973,1.4a7.891,7.891,0,0,1-1.37,1.53l-.221.048c-.192.04-.5.093-.889.141a15.188,15.188,0,0,1-2.992.065,14.673,14.673,0,0,1-1.974-.3,12.562,12.562,0,0,1-1.514-.438,22.072,22.072,0,0,0,7.3-2.254A15.479,15.479,0,0,0,35.72,206.907Z" transform="translate(-25.499 -206.907)" opacity="0.3" fill="url(#linear-gradient-27)" style="mix-blend-mode: screen;isolation: isolate"/>
    </g>
    <g id="Group_1065" data-name="Group 1065" transform="translate(17.156 115.628)">
      <path id="Path_4450" data-name="Path 4450" d="M28.446,257.06a17.681,17.681,0,0,0,2.995.727,11.609,11.609,0,0,0,2.5.13,7.635,7.635,0,0,0,3.542-.852c.057-.045.082-.077.08-.1-.022-.127-2.626-1.039-3.683-1.678a13.422,13.422,0,0,1-1.969-1.477,8.132,8.132,0,0,0-1.635-1.078c-.319-.162-.534-.254-.534-.254l-.959,3.4Z" transform="translate(-28.446 -252.478)" fill="#592a11"/>
      <path id="Path_4451" data-name="Path 4451" d="M28.446,255.858a15.8,15.8,0,0,0,5.493.857,7.634,7.634,0,0,0,3.542-.852,13.783,13.783,0,0,1-5.737-.053,8.714,8.714,0,0,1-2.962-1.135Z" transform="translate(-28.446 -251.277)" fill="#ab9281"/>
      <path id="Path_4452" data-name="Path 4452" d="M28.446,257.06a17.681,17.681,0,0,0,2.995.727c-.15-.416-.311-.872-.47-1.329-.464-1.343-.464-3.046-.7-3.726-.319-.162-.534-.254-.534-.254l-.959,3.4Z" transform="translate(-28.446 -252.478)" fill="#592a11" opacity="0.3" style="mix-blend-mode: multiply;isolation: isolate"/>
    </g>
    <path id="Path_4459" data-name="Path 4459" d="M38.52,202.562l-.014,1.005-.122,7.586-.039,2.422s-.074,1.637-.183,4.156c-.025.568-.05,1.186-.074,1.833-.265,6.565-.63,16.832-.549,21.863.121,7.736-1.722,42.616-1.722,42.616l-2.209-.368A74.968,74.968,0,0,1,27.3,267.791c-.108-.43-.218-.868-.32-1.312-2.088-9.084,1.72-13.631,1.72-13.631l-4.3-23.091a13.763,13.763,0,0,1-1.966-2.9,13.182,13.182,0,0,1-1.227-3.487,33.418,33.418,0,0,1,.088-8.45c.147-1.34.294-2.376.353-2.78.02-.118.029-.181.029-.181a3.7,3.7,0,0,0,.326.5,14.4,14.4,0,0,0,4.415,3.251.092.092,0,0,1,.036.022c1.531.812,2.863,1.361,3.024,1.429l.017,0,1.414-6.941s.86-1.474,1.964-3.807a27.262,27.262,0,0,0,1.429-4.953c.476-2.2.812-4.2.812-4.2L36,198.657s.422.543,1,1.432c.068.1.133.207.2.316C37.969,201.627,38.52,202.562,38.52,202.562Z" transform="translate(-15.381 -167.039)" fill="url(#linear-gradient-28)"/>
    <path id="Path_4460" data-name="Path 4460" d="M21.816,218.315a28.524,28.524,0,0,1,.492-10.685c1.166-5.527,5.465-14.676,7.185-17.255s5.035-4.323,6.937-2.591c0,0,1.517,1.873,1.926,2.529,0,0-1.23-1.8-1.6-2.374a4.708,4.708,0,0,0-1.986-1.35c-.472-.144-1.749-.2-4.176,1.852s-4.328,6.817-6.139,11.084a53.312,53.312,0,0,0-3.194,11.208,17.961,17.961,0,0,0,.339,8.135Z" transform="translate(-15.38 -170.167)" fill="url(#linear-gradient-29)"/>
    <path id="Path_4419" data-name="Path 4419" d="M28.495,187.886a20.44,20.44,0,0,0,2.247,3.22c1.134,1.318,4.04,2.818,5.729,2.529,2.92-1.319,3.536-4.974,3.536-4.974,1.757.1,1.07-2.2.73-3.519a15.682,15.682,0,0,1-.082-4.334c.029-.268.056-.49.082-.648,0,0-3.565.049-5.375,2.249S28.495,187.886,28.495,187.886Z" transform="translate(-8.84 -172.304)" fill="#edb291"/>
    <path id="Path_4461" data-name="Path 4461" d="M33.182,201.565l-.136,8.591-2.32-.865s.183-1.039.428-3.066c.207-1.692.407-5.731.506-7.132.068.1.133.207.2.316C32.632,200.631,33.182,201.565,33.182,201.565Z" transform="translate(-10.043 -163.656)" opacity="0.7" fill="url(#linear-gradient-30)"/>
    <path id="Path_4462" data-name="Path 4462" d="M33.806,202.562l-.014,1.005-2.319-2.1a8.567,8.567,0,0,0-1.887,0c.476-2.2.812-4.2.812-4.2l.888,1.387s.422.543,1,1.432c.068.1.133.207.2.316C33.255,201.627,33.806,202.562,33.806,202.562Z" transform="translate(-10.667 -164.516)" opacity="0.3" fill="url(#linear-gradient-31)" style="mix-blend-mode: multiply;isolation: isolate"/>
    <path id="Path_4463" data-name="Path 4463" d="M32.259,212.645c-.41.818-1.964,3.685-4.5,3.521s-4.995-6.388-4.995-6.388a9.363,9.363,0,0,0,4.647,2.15A33.6,33.6,0,0,0,32.259,212.645Z" transform="translate(-14.399 -158.226)" opacity="0.3" fill="url(#linear-gradient-32)" style="mix-blend-mode: multiply;isolation: isolate"/>
    <path id="Path_4467" data-name="Path 4467" d="M38.047,212.474c-.025.568-.05,1.186-.074,1.833a29.923,29.923,0,0,1-8.617-.575,15.717,15.717,0,0,1-8.178-4.067c.147-1.34.294-2.376.353-2.78.113.1.226.21.356.323A33.192,33.192,0,0,0,26.3,210.46a.092.092,0,0,1,.036.022,13.815,13.815,0,0,0,3.024,1.429l.017,0C31.739,212.6,36.013,212.549,38.047,212.474Z" transform="translate(-15.265 -159.696)" fill="#071e2b"/>
    <path id="Path_4468" data-name="Path 4468" d="M30.091,210.293l.062,2.826.8-.06-.061-2.766Z" transform="translate(-10.391 -157.914)" fill="url(#linear-gradient-33)"/>
    <path id="Path_4469" data-name="Path 4469" d="M23.55,208.269l-.922,2.763.554.489,1.043-2.763Z" transform="translate(-14.472 -158.94)" fill="url(#linear-gradient-34)"/>
    <path id="Path_4470" data-name="Path 4470" d="M37.8,199.7s-.094.127-.244.339c-.051.065-.105.142-.169.226-.015.025-.036.05-.054.079-.328.445-.776,1.061-1.163,1.582-.025.028-.045.059-.07.088-.034.049-.07.1-.1.142a.548.548,0,0,0-.068.1,4.58,4.58,0,0,0-.5.993,13.321,13.321,0,0,0-.58,2.023,5.523,5.523,0,0,1-1.111-.9c.3-.894.7-2,.988-2.676a9.223,9.223,0,0,1,2.357-2.823C37.454,199.308,37.8,199.7,37.8,199.7Z" transform="translate(-8.395 -163.715)" opacity="0.5" fill="url(#linear-gradient-35)" style="mix-blend-mode: multiply;isolation: isolate"/>
    <path id="Path_4471" data-name="Path 4471" d="M33.514,185.884a2.625,2.625,0,0,1-.26.3c-.3.339-1.316.153-2.427-1.718a2.148,2.148,0,0,1,.512-3.052,1.205,1.205,0,0,1,.809-.176c1.018.187,1.392,2.565,1.508,3.075A1.785,1.785,0,0,1,33.514,185.884Z" transform="translate(-10.208 -172.581)" fill="#edb291"/>
  </g>
  <path id="Path_4474" data-name="Path 4474" d="M193.018,194.664c-.314,1.852-.91,5.084-1.722,8.161-1.225,4.667-5.895,11.79-5.895,11.79l-3.807-.246c-3.08-5.561-7.845-15.14-10.138-19.7a9.66,9.66,0,0,1,2.9-1.369,75.61,75.61,0,0,1,3.307,7.074,98.843,98.843,0,0,0,5.4,10.806h1.6a73.053,73.053,0,0,0,4.175-8.473,46.834,46.834,0,0,0,2.164-9.152,5.7,5.7,0,0,1,1.952,1.052A.785.785,0,0,1,193.018,194.664Z" transform="translate(53.945 -141.228)" fill="url(#linear-gradient-36)"/>
  <path id="Path_4475" data-name="Path 4475" d="M178.387,206.919l-1.064,13.51a14.667,14.667,0,0,0,5.569-.244l-.7-13.02Z" transform="translate(57.152 -135.037)" fill="url(#linear-gradient-37)"/>
  <g id="Group_1072" data-name="Group 1072" transform="translate(71.448 55.647)">
    <g id="Group_1070" data-name="Group 1070" transform="translate(5.027 1.842)">
      <path id="Path_4476" data-name="Path 4476" d="M76.716,224.967a.815.815,0,0,1-.806.824h0a.816.816,0,0,1-.806-.824V198.609a.814.814,0,0,1,.806-.821h0a.813.813,0,0,1,.806.821Z" transform="translate(-75.104 -197.788)" fill="#61727c"/>
      <path id="Path_4477" data-name="Path 4477" d="M79.71,224.967a.78.78,0,0,1-.729.824h0a.782.782,0,0,1-.73-.824V198.609a.779.779,0,0,1,.73-.821h0a.778.778,0,0,1,.729.821Z" transform="translate(-73.383 -197.788)" fill="#61727c"/>
    </g>
    <g id="Group_1071" data-name="Group 1071" transform="translate(1.353)">
      <rect id="Rectangle_112" data-name="Rectangle 112" width="7.123" height="2.461" transform="translate(3.192 14.371)" fill="#c3c3c3"/>
      <path id="Path_4478" data-name="Path 4478" d="M74.852,203.829l-1.965-6.143,1.351-.613,3.561,6.878Z" transform="translate(-72.642 -196.336)" fill="#c3c3c3"/>
      <path id="Path_4479" data-name="Path 4479" d="M81.2,204.09l2.577-6.633L82.3,196.6l-4.176,7.615Z" transform="translate(-69.777 -196.597)" fill="#c3c3c3"/>
      <path id="Path_4480" data-name="Path 4480" d="M75.061,212.081l-2.332,5.772,1.6.367,3.439-5.9Z" transform="translate(-72.729 -188.13)" fill="#c3c3c3"/>
      <path id="Path_4481" data-name="Path 4481" d="M77.969,212.16c.244.368,3.685,6.263,3.685,6.263l1.964-.368-2.333-5.527Z" transform="translate(-69.864 -188.087)" fill="#c3c3c3"/>
      <rect id="Rectangle_113" data-name="Rectangle 113" width="9.211" height="3.193" transform="translate(2.21 7.493)" fill="#c3c3c3"/>
      <rect id="Rectangle_114" data-name="Rectangle 114" width="9.211" height="3.195" transform="translate(2.21 21.247)" fill="#c3c3c3"/>
    </g>
    <path id="Path_4482" data-name="Path 4482" d="M73.522,205.258l2.456-.245.245,6.385H73.646Z" transform="translate(-70.942 -191.995)" fill="#323333"/>
    <path id="Path_4483" data-name="Path 4483" d="M74.561,214.422a1.354,1.354,0,0,1-1.352,1.352h0a1.355,1.355,0,0,1-1.353-1.35l0-10.439a1.351,1.351,0,0,1,1.35-1.352h0a1.35,1.35,0,0,1,1.352,1.347Z" transform="translate(-71.854 -193.297)" fill="#c3c3c3"/>
  </g>
  <path id="Path_4484" data-name="Path 4484" d="M152.1,231.533l8.842,13.264-26.282-7.616Z" transform="translate(32.469 -124.195)" fill="#393939"/>
  <g id="Group_1076" data-name="Group 1076" transform="translate(38.128 46.385)">
    <path id="Path_4485" data-name="Path 4485" d="M66.227,256.391a3.684,3.684,0,1,1-7.367,0,3.641,3.641,0,0,1,.265-1.37,3.684,3.684,0,0,1,7.1,1.37Z" transform="translate(-32.908 -146.622)" fill="#2c3235"/>
    <path id="Path_4486" data-name="Path 4486" d="M66.134,256.391a3.7,3.7,0,0,1-.458,1.784,15.506,15.506,0,0,0-6.645-3.154,3.684,3.684,0,0,1,7.1,1.37Z" transform="translate(-32.814 -146.622)" fill="#2c3235" opacity="0.5" style="mix-blend-mode: multiply;isolation: isolate"/>
    <path id="Path_4487" data-name="Path 4487" d="M71.605,218.294l-27.755-.246s-.476-3.111,1.165-4.846a.8.8,0,0,1,.062-.067c1.72-1.722,10.317-8.6,10.317-8.6l13.754.49L70.4,211.8Z" transform="translate(-41.15 -172.962)" fill="url(#linear-gradient)"/>
    <path id="Path_4488" data-name="Path 4488" d="M74.749,271.241l-13.4.1-19.266.142,2.7-58.214,23.751.211,4,.035Z" transform="translate(-42.082 -168.186)" fill="#948579"/>
    <path id="Path_4489" data-name="Path 4489" d="M49.98,256.5a3.609,3.609,0,0,1-.452,1.759,3.676,3.676,0,1,1,.452-1.759Z" transform="translate(-41.793 -146.564)" fill="#2c3235"/>
    <g id="Group_1073" data-name="Group 1073" transform="translate(14.755)">
      <path id="Path_4490" data-name="Path 4490" d="M52.243,211.758h3.435s2.5-9.3,4.628-17.088c1.505-5.494,2.821-10.237,2.934-10.407l-2.75-.139-3.918,13.123Z" transform="translate(-51.281 -184.124)" fill="#232323"/>
      <path id="Path_4491" data-name="Path 4491" d="M60.876,184.183l-2.063,1.6-7.193,24.976,1.054.868Z" transform="translate(-51.621 -184.092)" fill="#393939"/>
      <path id="Path_4492" data-name="Path 4492" d="M58.672,191.53s3.482.781,2.933,3.118-4.95,17.734-4.95,17.734H54.731s3.575-10.86,4.674-14.435,1.007-4.63-1.055-4.9Z" transform="translate(-49.92 -180.074)" fill="#505050"/>
      <path id="Path_4493" data-name="Path 4493" d="M62.43,204.259l-7.012-.137-.687,1.375,7.286.138Z" transform="translate(-49.92 -173.189)" fill="#2a2a2a"/>
      <path id="Path_4494" data-name="Path 4494" d="M55.042,197.247c1.015-.7,2.45-1.689,3.734-2.577,1.505-5.494,2.821-10.237,2.934-10.407l-2.75-.139Z" transform="translate(-49.75 -184.124)" fill="#505050" opacity="0.3" style="mix-blend-mode: screen;isolation: isolate"/>
    </g>
    <path id="Path_4495" data-name="Path 4495" d="M71.605,215.726l-27.755-.246s-.476-3.111,1.165-4.846a163,163,0,0,0,18.893-.314,37.81,37.81,0,0,0,6.494-1.086Z" transform="translate(-41.15 -170.393)" opacity="0.4" fill="url(#linear-gradient)" style="mix-blend-mode: multiply;isolation: isolate"/>
    <path id="Path_4496" data-name="Path 4496" d="M49.878,256.5a3.609,3.609,0,0,1-.452,1.759,14.868,14.868,0,0,0-6.628-3.19,3.685,3.685,0,0,1,7.08,1.431Z" transform="translate(-41.69 -146.564)" fill="#2c3235" opacity="0.5" style="mix-blend-mode: multiply;isolation: isolate"/>
    <g id="Group_1074" data-name="Group 1074" transform="translate(3.331 104.542)">
      <path id="Path_4497" data-name="Path 4497" d="M46.227,253.754c-.077,1.117-.334,2.254-1.015,2.116-.7-.136-.916-1.307-.965-2.365a13.753,13.753,0,0,1,.039-1.74l1.964-.056A16.3,16.3,0,0,1,46.227,253.754Z" transform="translate(-44.235 -251.709)" fill="#6a777c"/>
      <path id="Path_4498" data-name="Path 4498" d="M46.227,253.754c-.671-.107-1.367-.2-1.98-.249a13.753,13.753,0,0,1,.039-1.74l1.964-.056A16.3,16.3,0,0,1,46.227,253.754Z" transform="translate(-44.235 -251.709)" fill="#6a777c" opacity="0.4" style="mix-blend-mode: multiply;isolation: isolate"/>
    </g>
    <g id="Group_1075" data-name="Group 1075" transform="translate(28.779 104.447)">
      <path id="Path_4499" data-name="Path 4499" d="M62.855,251.727a18.443,18.443,0,0,1-.118,1.918c-.138,1.183-.442,2.467-1.112,2.422-.759-.049-.922-1.739-.937-3.015-.009-.784.042-1.4.042-1.4Z" transform="translate(-60.687 -251.648)" fill="#6a777c"/>
      <path id="Path_4500" data-name="Path 4500" d="M62.855,251.727a18.443,18.443,0,0,1-.118,1.918,16.8,16.8,0,0,0-2.05-.592c-.009-.784.042-1.4.042-1.4Z" transform="translate(-60.687 -251.648)" fill="#6a777c" opacity="0.4" style="mix-blend-mode: multiply;isolation: isolate"/>
    </g>
    <path id="Path_4501" data-name="Path 4501" d="M43.22,250.889l-.081,1.637,5.076-.165-.411-1.721Z" transform="translate(-41.504 -147.751)" fill="#83756a"/>
    <path id="Path_4502" data-name="Path 4502" d="M59.6,250.642v1.636l5.486.166.083-1.637Z" transform="translate(-32.502 -147.751)" fill="#83756a"/>
    <path id="Path_4503" data-name="Path 4503" d="M46.209,218.987v7.862l13.51.491v-8.107Z" transform="translate(-39.825 -165.06)" fill="#83756a"/>
    <path id="Path_4504" data-name="Path 4504" d="M53.889,236.3c0,.733-.164,7.041-.164,7.041l10.727.079-.082-7.12Z" transform="translate(-35.715 -155.594)" fill="#83756a"/>
    <path id="Path_4505" data-name="Path 4505" d="M67.939,271.166l-13.4.1c1.312-7.465,3.2-18.481,3.822-23.437.829-6.67,2.9-23.253,3.364-34.424l4,.036Z" transform="translate(-35.271 -168.111)" fill="#948579" opacity="0.3" style="mix-blend-mode: multiply;isolation: isolate"/>
    <path id="Path_4506" data-name="Path 4506" d="M49.156,218.935l.164,8.023-3.111-.08v-7.862Z" transform="translate(-39.825 -165.088)" fill="url(#linear-gradient)"/>
    <path id="Path_4507" data-name="Path 4507" d="M56.674,236.3l-.163,7.2-2.786-.163.164-7.041Z" transform="translate(-35.715 -155.594)" fill="url(#linear-gradient)"/>
  </g>
  <g id="Group_1079" data-name="Group 1079" transform="translate(255.926 85.153)">
    <g id="Group_1078" data-name="Group 1078">
      <path id="Path_4508" data-name="Path 4508" d="M215.264,274.336H191.191l.491-50.107h20.634Z" transform="translate(-191.191 -215.876)" fill="#948579"/>
      <g id="Group_1077" data-name="Group 1077" transform="translate(0.491)">
        <path id="Path_4509" data-name="Path 4509" d="M212.142,227.183H191.509l1.965-8.353h17.44Z" transform="translate(-191.509 -218.829)" fill="url(#linear-gradient-42)"/>
        <path id="Path_4510" data-name="Path 4510" d="M208.383,224.479H193.891l1.237-5.649h11.846Z" transform="translate(-190.206 -218.829)" opacity="0.4" fill="url(#linear-gradient-43)" style="mix-blend-mode: multiply;isolation: isolate"/>
      </g>
      <path id="Path_4511" data-name="Path 4511" d="M203.066,274.336H191.191l.492-50.108h4.142c.019.22.034.385.034.492C195.859,225.53,201.177,261.574,203.066,274.336Z" transform="translate(-191.191 -215.876)" fill="#948579" opacity="0.3" style="mix-blend-mode: multiply;isolation: isolate"/>
      <path id="Path_4512" data-name="Path 4512" d="M211.94,259.166H193.762l-.983-2.7H212.92Z" transform="translate(-190.323 -198.249)" fill="#70645c"/>
    </g>
    <rect id="Rectangle_115" data-name="Rectangle 115" width="16.456" height="3.195" transform="translate(2.949 10.071)" fill="#83756a" opacity="0.5" style="mix-blend-mode: multiply;isolation: isolate"/>
  </g>
</svg>
