<svg xmlns="http://www.w3.org/2000/svg" width="280" height="185" viewBox="0 0 280 185">
  <g id="Group_1949" data-name="Group 1949" transform="translate(0)">
    <g id="Group_1847" data-name="Group 1847" transform="translate(203.668 123.265)" opacity="0.2" style="mix-blend-mode: multiply;isolation: isolate">
      <g id="Group_1846" data-name="Group 1846">
        <path id="Path_5378" data-name="Path 5378" d="M279,256.039l17.581,10.272a.369.369,0,0,0,.333,0l10.709-6.268a.1.1,0,0,0,0-.193l-17.581-10.272Z" transform="translate(-278.998 -249.578)"/>
      </g>
    </g>
    <g id="Group_1849" data-name="Group 1849" transform="translate(29.044 46.926)" opacity="0.2" style="mix-blend-mode: multiply;isolation: isolate">
      <g id="Group_1848" data-name="Group 1848" transform="translate(0 0)">
        <path id="Path_5379" data-name="Path 5379" d="M281.912,193.672c14.423,10.178-7.043,23.831-7.719,24.223L145.81,293.212c-11.782,5.089-48.834-9.422-59.113-15.47a46.725,46.725,0,0,1-22.548-32.162c-.679-.394,3.523-2.253,4.2-2.646L216.288,156.5a2.694,2.694,0,0,1,2.454,0Z" transform="translate(-64.075 -156.201)"/>
      </g>
    </g>
    <g id="Group_1873" data-name="Group 1873" transform="translate(188.557 102.857)">
      <g id="Group_1854" data-name="Group 1854" transform="translate(7.35 9.655)">
        <g id="Group_1853" data-name="Group 1853" style="isolation: isolate">
          <g id="Group_1850" data-name="Group 1850" transform="translate(31.477 14.09)">
            <path id="Path_5380" data-name="Path 5380" d="M308.139,254.444l1.439-.837-.016,5.548-1.439.836Z" transform="translate(-308.123 -253.607)" fill="#ffdc4a"/>
          </g>
          <g id="Group_1851" data-name="Group 1851" transform="translate(0.015)">
            <path id="Path_5381" data-name="Path 5381" d="M269.483,237.139l1.439-.837,31.478,14.09-1.439.837Z" transform="translate(-269.483 -236.302)" fill="#ffdc4a"/>
          </g>
          <g id="Group_1852" data-name="Group 1852" transform="translate(0 0.837)">
            <path id="Path_5382" data-name="Path 5382" d="M300.957,251.42l-.016,5.548-31.477-18.174.015-1.465Z" transform="translate(-269.464 -237.33)" fill="#c49e00"/>
          </g>
        </g>
      </g>
      <g id="Group_1859" data-name="Group 1859" transform="translate(28.838 22.54)">
        <g id="Group_1858" data-name="Group 1858" style="isolation: isolate">
          <g id="Group_1855" data-name="Group 1855" transform="translate(5.807 3.304)">
            <path id="Path_5383" data-name="Path 5383" d="M302.994,259.7l6.044-3.513-.007,5.289-6.044,3.512Z" transform="translate(-302.987 -256.185)" fill="#bfc4c2"/>
          </g>
          <g id="Group_1856" data-name="Group 1856" transform="translate(0.008)">
            <path id="Path_5384" data-name="Path 5384" d="M295.864,255.639l6.043-3.512,5.807,3.3-6.044,3.513Z" transform="translate(-295.864 -252.127)" fill="#b2b2b2"/>
          </g>
          <g id="Group_1857" data-name="Group 1857" transform="translate(0 3.512)">
            <path id="Path_5385" data-name="Path 5385" d="M301.669,259.745l-.007,5.288-5.807-3.3.008-5.289Z" transform="translate(-295.855 -256.44)" fill="#727573"/>
          </g>
        </g>
      </g>
      <g id="Group_1864" data-name="Group 1864" transform="translate(12.726 3.287)">
        <g id="Group_1863" data-name="Group 1863" style="isolation: isolate">
          <g id="Group_1860" data-name="Group 1860" transform="translate(15.45 19.192)">
            <path id="Path_5386" data-name="Path 5386" d="M295.049,256.874l8.112-4.822-.007,2.552-8.112,4.822Z" transform="translate(-295.041 -252.052)" fill="#e6c200"/>
          </g>
          <g id="Group_1861" data-name="Group 1861" transform="translate(0.008)">
            <path id="Path_5387" data-name="Path 5387" d="M276.076,233.3l8.111-4.822,15.45,19.192-8.112,4.822Z" transform="translate(-276.076 -228.481)" fill="#ffdc4a"/>
          </g>
          <g id="Group_1862" data-name="Group 1862" transform="translate(0 4.822)">
            <path id="Path_5388" data-name="Path 5388" d="M291.524,253.6l-.007,2.552-15.45-19.191.008-2.553Z" transform="translate(-276.067 -234.404)" fill="#e6c200"/>
          </g>
        </g>
      </g>
      <g id="Group_1869" data-name="Group 1869" transform="translate(0 13.755)">
        <g id="Group_1868" data-name="Group 1868" style="isolation: isolate">
          <g id="Group_1865" data-name="Group 1865" transform="translate(31.478 14.09)">
            <path id="Path_5389" data-name="Path 5389" d="M299.112,259.48l1.439-.836-.015,5.548-1.439.837Z" transform="translate(-299.097 -258.644)" fill="#ffdc4a"/>
          </g>
          <g id="Group_1866" data-name="Group 1866" transform="translate(0.016)">
            <path id="Path_5390" data-name="Path 5390" d="M260.456,242.174l1.439-.836,31.477,14.09-1.439.836Z" transform="translate(-260.456 -241.338)" fill="#ffdc4a"/>
          </g>
          <g id="Group_1867" data-name="Group 1867" transform="translate(0 0.836)">
            <path id="Path_5391" data-name="Path 5391" d="M291.93,256.456,291.915,262,260.437,243.83l.016-1.465Z" transform="translate(-260.437 -242.365)" fill="#e6c200"/>
          </g>
        </g>
      </g>
      <path id="Path_5392" data-name="Path 5392" d="M312.512,226.739a.612.612,0,0,0-.784.367l-8.694,23.755a.613.613,0,0,0,.368.784.625.625,0,0,0,.208.037.612.612,0,0,0,.576-.4l8.694-23.754A.612.612,0,0,0,312.512,226.739Z" transform="translate(-268.343 -224.864)" fill="#4f4c61"/>
      <g id="Group_1872" data-name="Group 1872" transform="translate(40.89)">
        <g id="Group_1871" data-name="Group 1871" style="isolation: isolate">
          <path id="Path_5393" data-name="Path 5393" d="M310.69,231.151a.723.723,0,0,0,.18.708,2.247,2.247,0,0,0,1.9.746.72.72,0,0,0,.6-.393l2.319-6.2a.714.714,0,0,1-.6.393,2.249,2.249,0,0,1-1.9-.746.72.72,0,0,1-.179-.708Z" transform="translate(-310.656 -224.539)" fill="#817978"/>
          <g id="Group_1870" data-name="Group 1870" transform="translate(2.32)">
            <path id="Path_5394" data-name="Path 5394" d="M313.719,225.564c-.406-.51-.217-1,.427-1.1a2.249,2.249,0,0,1,1.9.743c.407.512.217,1-.423,1.1A2.249,2.249,0,0,1,313.719,225.564Z" transform="translate(-313.505 -224.445)" fill="#645e5d"/>
          </g>
        </g>
      </g>
    </g>
    <g id="Group_1884" data-name="Group 1884" transform="translate(234.923)">
      <path id="Path_5395" data-name="Path 5395" d="M313.337,134.524c-.962.046-1.789-.688-2.843-.275a3.827,3.827,0,0,0-2.018,2.43c-.183,1.651,2.751,1.651,3.623.826.963-.871.459-2.063,1.146-2.934Z" transform="translate(-307.841 -95.295)" fill="#edb291"/>
      <path id="Path_5396" data-name="Path 5396" d="M329.816,129.44l-3.71-.3a26.538,26.538,0,0,1-2.751,1.7c-1.656.656-5.24,2.109-6.48,2.562a13.151,13.151,0,0,1-2.69.519s.9,3.463,1.646,3.275c5.629-1.422,6.347-1.01,8.307-1.435,2.381-.514,4.538-1.632,4.771-2.137C330.392,130.4,329.816,129.44,329.816,129.44Z" transform="translate(-308.904 -94.369)" fill="#edb291"/>
      <g id="Group_1874" data-name="Group 1874" transform="translate(15.684 21.722)">
        <path id="Path_5397" data-name="Path 5397" d="M330.344,114.335c-.283,1.655-2.013,10.587-3.368,11.818l-.015.014,4.807,3.276.547.734c2.558-2.807,5.7-10.714,5.7-10.714s1.286-1.1-1.1-3.825C335.158,113.644,330.771,111.831,330.344,114.335Z" transform="translate(-326.961 -113.115)" fill="#d7dfe2"/>
      </g>
      <g id="Group_1875" data-name="Group 1875" transform="translate(0 39.516)">
        <path id="Path_5398" data-name="Path 5398" d="M315.114,136.739l-.55-.7-2.214.05-1.7.375a1.886,1.886,0,0,1-1.081.308,3.841,3.841,0,0,1-.962-.309s-1.537.846-.61,1.716c.3.279,1.128,1.256,1.128,1.256.343.414.69.513,1.1.951,1.227.206,2.763.031,2.958-.322.229-.413-.037-.6.195-.756a3.629,3.629,0,0,1,.986-.424C315.324,138.6,315.827,138.126,315.114,136.739Z" transform="translate(-307.699 -135.167)" fill="#edb291"/>
        <path id="Path_5399" data-name="Path 5399" d="M316.578,138.258l-.473.178-.974-2.947,1.362-.521Z" transform="translate(-309.079 -134.968)" fill="#edb291"/>
      </g>
      <path id="Path_5400" data-name="Path 5400" d="M327.034,127.414c.63-.107,2.563,1.12,3.164,1.567.736.558,1.833,1.846,2.6,2.372.367.261.975.275.105,2.018a.947.947,0,0,1-1.549.406c-1.55-1.242-3.079-2.706-4.725-3.8C326.147,129.662,326.419,127.538,327.034,127.414Z" transform="translate(-311.17 -94.048)" fill="#eaeeef"/>
      <path id="Path_5401" data-name="Path 5401" d="M346.874,207.417a8.97,8.97,0,0,1-6.555-3.048c-1.049-1.314-2.439-1.856-4.958-1.931-.492-.012-1.037-.012-1.72,0-.642.016-1.42.012-2.253-.012-3.061-.09-13.147-.607-14.469-3.508a3.446,3.446,0,0,1-.182-2.971c.679-1.492,2.594-2.479,7.064-3.646a18.947,18.947,0,0,1,5.326-.632c2.853.085,5.283.905,6.5,2.2a9.811,9.811,0,0,0,5.209,2.254h0a3.143,3.143,0,0,0,1.2-.178,14.925,14.925,0,0,1,5.29-.722c3.7.107,6.009,1.387,6.325,3.513.3,2.015.4,4.958-2.211,7.225A6.611,6.611,0,0,1,346.874,207.417Z" transform="translate(-309.33 -105.985)" fill="#231f20" opacity="0.25" style="mix-blend-mode: multiply;isolation: isolate"/>
      <path id="Path_5402" data-name="Path 5402" d="M356.073,195.636s.292,4.372.3,4.466c.036,1.744-.868,4.723-4.873,5.269a7.139,7.139,0,0,1-1.8.02s-2.628-.322-1.96-4.217c.233-1.358,1.049-5.985,1.049-5.985Z" transform="translate(-315.117 -106.64)" fill="#383736"/>
      <path id="Path_5403" data-name="Path 5403" d="M356.109,194.542a43.455,43.455,0,0,0,.284,4.788c.141,1.742-.825,4.2-4.244,4.759a6.678,6.678,0,0,1-2.636-.073c-1.127-.515-2.021-1.224-1.672-3.714.154-1.083,1.206-5.827,1.284-5.827Z" transform="translate(-315.142 -106.507)" fill="#545454"/>
      <g id="Group_1877" data-name="Group 1877" transform="translate(8.042 84.102)">
        <path id="Path_5404" data-name="Path 5404" d="M327.269,189.727l-.812,1.1s-6.9,2.178-7.322,2.337c-.485.185-1.545.484-1.505,1.348a.952.952,0,0,0,.1.525,3.483,3.483,0,0,0,2.168,1.3,27.141,27.141,0,0,0,5.92.3c1.178-.028,3.567-.3,4.574-.4.138-.014,2.7-.434,2.833-.895a5.225,5.225,0,0,0,.133-.937c.063-.719-.012-2.753-.012-2.753Z" transform="translate(-317.586 -189.727)" fill="#545454"/>
        <g id="Group_1876" data-name="Group 1876" transform="translate(0 4.707)">
          <path id="Path_5405" data-name="Path 5405" d="M318.872,196.7a6.311,6.311,0,0,0,1.848.611c2.742.566,8.939.078,9.665,0,.007-.079-.006-.011.026,0a3.5,3.5,0,0,1-.157.8s-7.058.345-9.821-.2a4.472,4.472,0,0,1-2.76-1.671.9.9,0,0,1-.026-.741A4.516,4.516,0,0,0,318.872,196.7Z" transform="translate(-317.576 -195.508)" fill="#282827"/>
          <path id="Path_5406" data-name="Path 5406" d="M333.27,197.506a13.2,13.2,0,0,0,2.836-.948,9.192,9.192,0,0,1-.357,1s-.511.5-2.584.763C333.085,198.327,333.057,197.558,333.27,197.506Z" transform="translate(-320.461 -195.703)" fill="#282827"/>
        </g>
      </g>
      <path id="Path_5407" data-name="Path 5407" d="M336.316,148.191s-5.042,14.883-6.514,19.872c-.966,3.263-1.325,14.971-1.325,14.971-.039,1.52,6.616,2.08,6.886,1.2,1.31-4.243,2.414-9.838,3.454-12.44,2.113-5.288,7.61-20.362,7.61-20.362Z" transform="translate(-311.559 -97.909)" fill="#3d4244"/>
      <path id="Path_5408" data-name="Path 5408" d="M332.889,112.146c-1.006,3.377-1.154,5.54.086,11.636l3.862,16.881c.168.819.235,1.834,1.032,2.147,0,0,7.361,3.8,10.486,2.765a32.617,32.617,0,0,1,4.849-1.035c.99-.4,1.675.036,1.927-2.468.97-9.626-3.511-27.233-3.511-27.233-.31-1.918-8.03-4.569-9.319-5.012l-4.96-.476S333.571,109.85,332.889,112.146Z" transform="translate(-312.23 -90.694)" fill="#ccd3d6"/>
      <path id="Path_5409" data-name="Path 5409" d="M342.862,148.807s-3.634-.434-5.3-1.834l-.018,1.351-.332,2.063,3.932,1.869Z" transform="translate(-313.181 -97.683)" fill="#3d4244"/>
      <path id="Path_5410" data-name="Path 5410" d="M344.588,150.645l1.551,22.381,1.755,15.774c.012,1.075,1.041,2,2.829,2.315a6.018,6.018,0,0,0,3.421-.208,2.219,2.219,0,0,0,1.421-2.367c-.1-4.646.875-12.136,1.118-16.185.31-5.141.309-20.6.309-20.6Z" transform="translate(-314.551 -98.365)" fill="#3d4244"/>
      <path id="Path_5411" data-name="Path 5411" d="M356.456,154.441l.532-5s-10.781.233-14.015-.384c-.477-.09-1.516,4.249-.25,6.114a14.739,14.739,0,0,1,1.733,5.2Z" transform="translate(-314.093 -98.07)" fill="#3d4244"/>
      <g id="Group_1878" data-name="Group 1878" transform="translate(18.326 19.233)">
        <path id="Path_5412" data-name="Path 5412" d="M333.054,111.035a1.837,1.837,0,0,1,1.786-.123c-.835.4-4.381,4.758-2.119,12.248,1.158.649,6.764,1.147,8.2.16a19.493,19.493,0,0,1,0-9.608c.778-3.093,1.822-3.654,1.822-3.654s1.531.259,2,.935c0,0-.782-.1-1.848,2.6-.87,2.2-.386,7.222.365,9.349,1.794-.334,5.047-2.58,5.047-2.58l6.265,12.808a54.083,54.083,0,0,1,.062,10.249s-7.041-.949-10.426.16c-2.676.878-8.063-1.659-7.938-2.287.342-1.716-1.408-7.079-1.982-8.32-2.163-4.675-3.124-7.137-3.583-9.128a23.307,23.307,0,0,1-.484-4.554A11.7,11.7,0,0,1,333.054,111.035Z" transform="translate(-330.205 -110.058)" fill="#3d4244"/>
      </g>
      <g id="Group_1881" data-name="Group 1881" transform="translate(29.132 22.949)">
        <g id="Group_1880" data-name="Group 1880">
          <g id="Group_1879" data-name="Group 1879" transform="translate(4.778)">
            <path id="Path_5413" data-name="Path 5413" d="M360.164,132.257c1.563-2.934-2.65-13.292-2.65-13.292.024.046-2.948-5.6-6.242-4.083-2.762,1.272-2.06,4.039-.947,6.458.878,1.9,3.288,8.367,3.288,8.367l-2.99,2.772,4.469,5.061C356.921,135.72,359.606,133.306,360.164,132.257Z" transform="translate(-349.345 -114.622)" fill="#d7dfe2"/>
          </g>
          <path id="Path_5414" data-name="Path 5414" d="M350.606,136.495l-7.129,8.913,2.684,2.494s6.9-6,8.271-7.882S350.606,136.495,350.606,136.495Z" transform="translate(-343.477 -118.685)" fill="#edb291"/>
          <path id="Path_5415" data-name="Path 5415" d="M351.287,133.327c.7,0,2.56,1.666,3.13,2.255.692.733,1.643,2.316,2.38,3.021.351.348,1,.471-.247,2.193a1.035,1.035,0,0,1-1.742.161c-1.448-1.615-2.833-3.465-4.41-4.934C349.931,135.591,350.6,133.352,351.287,133.327Z" transform="translate(-344.734 -118.097)" fill="#eaeeef"/>
        </g>
      </g>
      <path id="Path_5416" data-name="Path 5416" d="M343.368,132.326a4.577,4.577,0,0,1-8.7,1.166.691.691,0,0,1,.135-.734S341.209,132.971,343.368,132.326Z" transform="translate(-312.698 -94.962)" fill="#2c3133"/>
      <g id="Group_1882" data-name="Group 1882" transform="translate(21.908 37.364)">
        <path id="Path_5417" data-name="Path 5417" d="M334.619,133.519a.537.537,0,0,1-.012-.161A.548.548,0,0,0,334.619,133.519Z" transform="translate(-334.605 -132.518)" fill="#5e6466"/>
        <path id="Path_5418" data-name="Path 5418" d="M343.37,132.326s-.813,1.842-3.977,2.047c-2.608.169-4.119-.277-4.615-.772a.562.562,0,0,1-.156-.274v.01c.993,3.939,2.634,9.438,6.9,8.794,2.242-.338,3-2.2,3.133-3.83A10.648,10.648,0,0,0,343.37,132.326Z" transform="translate(-334.608 -132.326)" fill="#5e6466"/>
      </g>
      <path id="Path_5419" data-name="Path 5419" d="M337.183,111.4c.332.464.414,3.189.8,3.268.573-1.551.787-2.68,1.269-3.136,1.919-.115,2.478-1.987,3.087-3.207l-1.379-6.976-5.306,3.036S335.519,110.867,337.183,111.4Z" transform="translate(-312.891 -89.206)" fill="#edb291"/>
      <path id="Path_5420" data-name="Path 5420" d="M338.54,97.023a1.586,1.586,0,0,0-1.3,1.682l.579,2.85a.87.87,0,0,0,.75.6c.841,0,1.049-.774,1.252-1.624.011-.048.24-1.286.254-1.361C340.27,98.122,339.881,96.749,338.54,97.023Z" transform="translate(-313.186 -88.397)" fill="#ffe8d9"/>
      <path id="Path_5421" data-name="Path 5421" d="M333.122,92.476v0l5.487-1.091,2.1,9.873c.065.695.218,1.3.223,1.9a2.849,2.849,0,0,1-.813,2.036,12.969,12.969,0,0,1-2.354,2.158,3.746,3.746,0,0,1-1.795.721,8.249,8.249,0,0,1-1.806-.427,3.221,3.221,0,0,1-2.181-1.519,18.749,18.749,0,0,1-1.3-2.557l-1.961-5.711.423-4.542Z" transform="translate(-311.604 -87.356)" fill="#edb291"/>
      <path id="Path_5422" data-name="Path 5422" d="M328.893,90.916a6.784,6.784,0,0,0-1.02,3.584,4.24,4.24,0,0,0,.752,2.883c-.018.03.2-.624.352-1.4.251-1.251.668-.646,1.439-.688a5.167,5.167,0,0,1,2,.423c.7.234.774-.06.727-.525-.011-.1-.13-.707-.13-.707.094.04,1.689.428,2.126.578a2.529,2.529,0,0,1,1.765,2.227l.176.864c.093.45.117.979.55.839.458-.147.381-.318.414-.825,0,0-.415-2.242,1.589-1.751,1.057.256.8,2.562.761,2.7l.319,3.316c.427.038,1.19-.813,1.479-2.041.53-2.259.824-3.863.961-4.547,1.33-6.721-5.07-11.749-11.5-8.274A7.887,7.887,0,0,0,328.893,90.916Z" transform="translate(-311.446 -86.437)" fill="#9a5927"/>
      <path id="Path_5423" data-name="Path 5423" d="M342.079,98.048a1.588,1.588,0,0,0-1.3,1.683l.579,2.847a.873.873,0,0,0,.751.608c.842,0,1.05-.776,1.252-1.627.013-.047.239-1.286.254-1.361C343.81,99.149,343.422,97.774,342.079,98.048Z" transform="translate(-313.843 -88.587)" fill="#edb291"/>
      <path id="Path_5424" data-name="Path 5424" d="M342.579,124.262a17.346,17.346,0,0,0,.563,2.2c.156.543,2.763.077,2.672-.5a12.811,12.811,0,0,0-.51-2.281c-.09-.276-.23-.011-1.3.114C342.86,123.931,342.519,123.884,342.579,124.262Z" transform="translate(-314.177 -93.333)" fill="#85929e"/>
      <path id="Path_5425" data-name="Path 5425" d="M332.527,124.465c.171,1.063.194,1.184.366,2.049a.354.354,0,0,1-.3.424c-.652.019-1.971.022-2.057-.312a6.348,6.348,0,0,1-.3-1.97c0-.16-.018-.427.16-.451.226-.029,1.635-.042,1.885-.064C332.456,124.125,332.494,124.256,332.527,124.465Z" transform="translate(-311.886 -93.441)" fill="#85929e"/>
      <g id="Group_1883" data-name="Group 1883" transform="translate(25.018 48.959)">
        <path id="Path_5426" data-name="Path 5426" d="M344.529,147.375l-.81-.433-2.034.971-.912,1.581a1.9,1.9,0,0,1-.872.741c-.249.116-.69.314-.69.314s-1.176,1.41.061,1.841a1.653,1.653,0,0,0,.851.02c.5.25,1.388.563,1.957.806,1.322.557,2.142-1.122,2.142-1.122l.943-1.562A2.3,2.3,0,0,0,344.529,147.375Z" transform="translate(-338.476 -146.635)" fill="#edb291"/>
        <path id="Path_5427" data-name="Path 5427" d="M343.5,148.544a1.979,1.979,0,0,1-2.432.455c-.235-.12-1.73,1.995-2.648,1.057,0,0,.3-.516.858-1.407a2.505,2.505,0,0,1,1.141-1.219c2-.843,2.29-1.05,2.964-.705S343.961,147.748,343.5,148.544Z" transform="translate(-338.424 -146.565)" fill="#edb291"/>
      </g>
      <path id="Path_5428" data-name="Path 5428" d="M312.81,137.3c-.251-.635-1.336-1.953-1.945-1.548s-1.221,1.055-2.2.849c-.883.213.35,2.334,1.708,3.721a3.3,3.3,0,0,0,2.127-.038C312.246,140.165,313.226,138.356,312.81,137.3Z" transform="translate(-307.822 -95.584)" fill="#edb291"/>
      <path id="Path_5429" data-name="Path 5429" d="M315.542,136.447c-.576.69-1.766.392-2.422.066-.242-.12-.423-.165-1.065.546-.437.484-1.4.736-1.668.062,0,0,.356-.4,1.081-1.277a2.179,2.179,0,0,1,1.22-1.071c2.071-.5,2.553-.262,3.053.056C316.179,135.109,316.114,135.759,315.542,136.447Z" transform="translate(-308.198 -95.362)" fill="#edb291"/>
    </g>
    <g id="Group_1914" data-name="Group 1914" transform="translate(30.812 33.951)">
      <g id="Group_1885" data-name="Group 1885" transform="translate(179.96 39.575)">
        <path id="Path_5430" data-name="Path 5430" d="M288.774,218.4c.831-5.193,1.867-9.2,6.2-16.633,5.447-9.345,12.279-14.676,17.2-12.354,4.746,2.234,3.128,12.962,3.128,12.962s1.743,4.514-.536,4.085c-.5-.094-3.8-3.8-7.6-2.578s-17.6,11.717-17.913,12.01c-2.043,1.916.523,5.518-1.425,6.581C287.923,220.911,288.472,220.293,288.774,218.4Z" transform="translate(-287.832 -188.869)" fill="#17231e"/>
      </g>
      <g id="Group_1886" data-name="Group 1886" transform="translate(75.518 106.01)">
        <path id="Path_5431" data-name="Path 5431" d="M159.334,298.2a45.066,45.066,0,0,1,7.629-18.161c6.977-10.411,14.3-10.73,19.8-8.4,7.661,3.249,4.278,13.043,4.278,13.043s-.063.614.127.81a.478.478,0,0,0,.557.069,2.971,2.971,0,0,1-2.8.437c-2.569-.861-6.012-1.923-6.012-1.923-4.03,2.889-13.506,15.772-23.062,20.335C160.036,302.727,158.893,300.241,159.334,298.2Z" transform="translate(-159.232 -270.462)" fill="#17231e"/>
      </g>
      <g id="Group_1887" data-name="Group 1887" transform="translate(71.735 107.477)">
        <path id="Path_5432" data-name="Path 5432" d="M176.112,272.727a7.648,7.648,0,0,1,8.146,1.895c2.663,2.682,3.722,6.37,3.472,10.571a27.251,27.251,0,0,1-1.431,6.992,28.8,28.8,0,0,1-10.954,14.935,11.608,11.608,0,0,1-9.89,1.677c-4.271-1.063-10.88-6.276-10.88-6.276A84.945,84.945,0,0,1,168.6,278.279C173.749,272.149,176.112,272.727,176.112,272.727Z" transform="translate(-154.575 -272.264)" fill="#3c4f49"/>
      </g>
      <g id="Group_1888" data-name="Group 1888" transform="translate(0)">
        <path id="Path_5433" data-name="Path 5433" d="M181.747,148.536s16.129-5.857,22.437-7.231a66.267,66.267,0,0,1,17.53-.738,129.2,129.2,0,0,1,26.116,6.061c10.319,3.991,20.049,11.52,20.049,11.52a7.052,7.052,0,0,1,1.814,1.992c.457.975.82,2.054.82,2.054s4.092,3.359,5.578,4.872,2.831,4.037,2.232,9.075c-.384,3.228-.552,7.536-.552,7.536s.612.264.649,4.263-.108,3.208-.414,4.828-3.646,4.219-3.646,4.219-1.972,2.117-1.691-1.6c.364-4.817.773-10.55-1.755-12.8s-8.66-1.286-13.868,5.225a48.448,48.448,0,0,0-9.056,19.147c-.921,5.248-1.228,6.275-1.228,6.275a15.017,15.017,0,0,1-3.054,2.383c-2.118,1.326-69.3,45.624-69.3,45.624s-1.44.985-1.082-1.436c.2-1.384.989-5.26-.817-8.756s-7.524-7.18-15.362-1.493c-6.607,4.793-12.294,14.823-13.93,22.838-.929,4.556-.67,4.253-3.662,5.621-3.014,1.378-11.283,3.368-17.009,2.808-5.534-.543-29.6-9.355-37.05-13.718a77.852,77.852,0,0,1-15.36-11.6c-1.921-2.087-3.02-4.311-2.788-6.638a11.135,11.135,0,0,0-.271-4.587c-.258-.985-.758-3.663-.834-10.756a25.981,25.981,0,0,1,2.164-10.734,57.034,57.034,0,0,1,3.713-9.826c2.455-4.53,11.685-10.1,11.685-10.1a79.873,79.873,0,0,1,8.578-10.312c4.9-4.894,26.646-22.373,45.474-33.111,14.683-8.374,19.329-9.15,19.329-9.15S179.36,148.678,181.747,148.536Z" transform="translate(-66.246 -140.265)" fill="#0d998b"/>
      </g>
      <g id="Group_1891" data-name="Group 1891" transform="translate(89.729 8.059)">
        <g id="Group_1889" data-name="Group 1889" transform="translate(50.634 23.514)">
          <path id="Path_5434" data-name="Path 5434" d="M239.156,179.042l.034.031S238.872,179.038,239.156,179.042Z" transform="translate(-239.038 -179.042)" fill="#3c4f49"/>
        </g>
        <g id="Group_1890" data-name="Group 1890">
          <path id="Path_5435" data-name="Path 5435" d="M177.936,152.129s22.217-1.612,24.609-1.754l.586-.212c1.216.158,2.418.1,3.768.23,3.925.368,12.519,1.061,27.474,6.481,15.11,5.477,25.586,14.537,28.617,17.963,1.271,1.435-.462,1.312-.462,1.312a46.394,46.394,0,0,1-4.914-.61c-3.6-.554-19.093-1.8-28.321-1.779a3.98,3.98,0,0,1-2.843-1.108c-.173-.152-.554-.466-3.062-2.3-2.666-1.943-10.9-6.71-21.839-11.468-8.087-3.516-19.364-5.613-24.7-6.467A9.808,9.808,0,0,1,177.936,152.129Z" transform="translate(-176.852 -150.163)" fill="#3c4f49"/>
        </g>
      </g>
      <g id="Group_1892" data-name="Group 1892" transform="translate(77.52 36.066)">
        <path id="Path_5436" data-name="Path 5436" d="M162.257,236.826s13.7-23.923,30.334-35.312c0,0,16.366-10.872,23.4-13.69s11.126-3.058,19.42-3.249,14.182,1.264,16.436,2.131c1.629.627,2.855,2.634,3.42,3.7s.386,1.479-.575,2.135-54.084,27.91-59.619,30.738-31.719,15.28-32.117,15.3S161.108,239.4,162.257,236.826Z" transform="translate(-161.824 -184.559)" fill="#3c4f49"/>
      </g>
      <g id="Group_1893" data-name="Group 1893" transform="translate(106.924 46.08)">
        <path id="Path_5437" data-name="Path 5437" d="M198.615,204.239a1.5,1.5,0,0,1,2.489.6c.914,1.945,6.747,15.161,6.747,15.161a2.343,2.343,0,0,1-.392,2.673c-1.128.968.774,2.106.774,2.106l7.345-4.436.831-1.15-.938-.647a2.239,2.239,0,0,1-2.913-1.029c-1.886-3.2-7.175-15.582-7.175-15.582s-.4-1.777.559-2.435a2.021,2.021,0,0,0,.742-2.647s-8.085,5.38-8.648,6.015S198.615,204.239,198.615,204.239Z" transform="translate(-197.878 -196.858)" fill="#0d998b"/>
      </g>
      <g id="Group_1894" data-name="Group 1894" transform="translate(0.043 24.889)" opacity="0.67">
        <path id="Path_5438" data-name="Path 5438" d="M70.149,261.18c-1.921-2.087-3.02-4.311-2.788-6.638a11.135,11.135,0,0,0-.271-4.587c-.23-.874-.649-3.095-.792-8.553a37.425,37.425,0,0,0,6.553,8.011c4.645,4.613,10.241,8.252,21.553,13.333,14.563,6.542,24.722,6.14,29.813,4.439,4.386-1.466,10.825-6.043,15.273-11.91s8.33-11.1,16.091-14.962c6.944-3.456,101.846-57.459,109.956-62.14a30.009,30.009,0,0,0,8.485-7.34c.817.713,1.592,1.411,2.079,1.91,1.488,1.514,2.831,4.037,2.232,9.075-.384,3.228-.552,7.536-.552,7.536s.612.264.649,4.263-.108,3.208-.414,4.828-3.646,4.219-3.646,4.219-1.972,2.117-1.691-1.6c.364-4.817.773-10.55-1.755-12.8s-8.66-1.286-13.868,5.225A48.448,48.448,0,0,0,248,212.632c-.921,5.248-1.228,6.275-1.228,6.275a15.021,15.021,0,0,1-3.054,2.383c-2.118,1.326-69.3,45.624-69.3,45.624s-1.44.985-1.082-1.436c.2-1.384.989-5.26-.817-8.756s-7.524-7.18-15.362-1.493c-6.607,4.793-12.294,14.823-13.93,22.838-.929,4.556-.67,4.253-3.662,5.621-3.014,1.378-11.283,3.368-17.009,2.808-5.534-.543-29.6-9.356-37.05-13.718A77.854,77.854,0,0,1,70.149,261.18Z" transform="translate(-66.299 -170.833)" fill="#076d61"/>
      </g>
      <g id="Group_1895" data-name="Group 1895" transform="translate(199.857 18.56)">
        <path id="Path_5439" data-name="Path 5439" d="M313.668,164.905c.438-1.2.827-1.692,1.137-1.845a4.917,4.917,0,0,1,1.034,1.313c.458.975.822,2.054.822,2.054s3.632,2.976,5.3,4.587a9.482,9.482,0,0,1,1.25,3.033c.2,1.688-.7,1.642-2.632,1.156a31.3,31.3,0,0,1-7.081-2.985c-1.788-1.07-1.1-3.372-1.1-3.372A29.721,29.721,0,0,1,313.668,164.905Z" transform="translate(-312.268 -163.06)" fill="#d0ecf7"/>
      </g>
      <g id="Group_1897" data-name="Group 1897" transform="translate(110.874 33.634)" opacity="0.56">
        <g id="Group_1896" data-name="Group 1896">
          <path id="Path_5440" data-name="Path 5440" d="M221.733,249.281c-2.19-1.04-2.577-3.881-3.28-9.032l-.017-.118c-.721-5.279-3.433-15.765-4.188-17.159-.78-1.442-2.584-5.023-2.609-5.069-.318-.7-7.824-17.165-8.176-18.04-.044-.112-.1-.227-.164-.351-.446-.9-1.121-2.251,1.2-4.463.108-.077,10.8-7.7,19.929-11.115a44.076,44.076,0,0,1,12.462-2.2,104.548,104.548,0,0,1,17.6.521c3.936.549,7.6,1.246,9.129,3.715a42.416,42.416,0,0,0,2.506,3.821,7.45,7.45,0,0,0,.752.726,6.947,6.947,0,0,1,1.979,2.4,55.454,55.454,0,0,1,1.891,18.332c-.712,8.094-1.314,9.792-1.337,9.86l-.037.094-42.5,27.276a7.974,7.974,0,0,1-3.331,1.12h0A3.666,3.666,0,0,1,221.733,249.281Zm48.427-38.088a54.652,54.652,0,0,0-1.857-18.07,6.543,6.543,0,0,0-1.818-2.163,7.606,7.606,0,0,1-.815-.8,42.046,42.046,0,0,1-2.551-3.883c-1.395-2.248-4.911-2.909-8.7-3.437a103.79,103.79,0,0,0-17.485-.517,43.539,43.539,0,0,0-12.288,2.168c-9.057,3.392-19.682,10.967-19.757,11.016-1.975,1.881-1.462,2.909-1.05,3.734.069.14.134.271.185.4.344.862,8.084,17.843,8.157,18,.02.036,1.821,3.609,2.6,5.043.845,1.562,3.575,12.376,4.254,17.363l.016.117c.676,4.946,1.049,7.672,2.943,8.571a3.091,3.091,0,0,0,1.521.261h0a7.5,7.5,0,0,0,3.045-1.028l42.325-27.161C269.008,220.368,269.543,218.173,270.16,211.193Z" transform="translate(-202.853 -181.572)" fill="#231f20"/>
        </g>
      </g>
      <g id="Group_1899" data-name="Group 1899" transform="translate(3.793 71.092)" opacity="0.47">
        <g id="Group_1898" data-name="Group 1898">
          <path id="Path_5441" data-name="Path 5441" d="M113.357,270.32l18.466-15.554-.114-.378a26.125,26.125,0,0,0-2.58-5.492l-.5.411a37.357,37.357,0,0,1,2.717,5.343l-17.923,15.066c-2.465,2.248-7.19.612-7.19.612-3.771-.853-10.547-2.615-13.016-3.921a66.517,66.517,0,0,1-11.292-8.238c-2.573-2.456-4.109-3.829-5.174-6.3l-.894-3.248c-1.174-2.7-3.206-12.45-3.706-13.984l.053-2.11c.716-1.443,4.5-3.8,7.2-4.127l.414-.824c-3.419.41-7.708,3.829-7.87,3.967l-.5,1.63L70.9,234.7l.053.153c.182.571,5.516,17.533,5.516,17.533,1.078,2.493,2.532,3.767,5.281,6.392a59.223,59.223,0,0,0,10.771,7.868c2.611,1.381,9.849,3.494,13.678,4.361l1.438.326C111.472,272.334,113.242,270.432,113.357,270.32Z" transform="translate(-70.905 -227.577)" fill="#231f20"/>
        </g>
      </g>
      <g id="Group_1900" data-name="Group 1900" transform="translate(9.159 112.824)">
        <path id="Path_5442" data-name="Path 5442" d="M107.832,292.648s-3.136,3.807-13.469-1.006A54.27,54.27,0,0,1,83.9,285.557a15,15,0,0,1-5.314-5.289c-1-1.5-1.087-1.438-1.087-1.438s-.216,3.114,3.5,6.7a51.661,51.661,0,0,0,11.338,7.334c4.223,2.093,9.022,3.67,11.791,3.106C106.386,295.509,107.832,292.648,107.832,292.648Z" transform="translate(-77.495 -278.83)" fill="#0d998b"/>
      </g>
      <g id="Group_1901" data-name="Group 1901" transform="translate(48.283 96.546)">
        <path id="Path_5443" data-name="Path 5443" d="M153.367,263.54s3.384-4.383.467-4.609a34.093,34.093,0,0,0-10.948.946c-4.8,1.381-10.294,3.61-16.487,12.279-1.4,1.958-.486,1.931.734,2.26,1.415.38,6.213,2.056,9.607,1.733a15.708,15.708,0,0,0,10.687-5.433C150.265,267.134,153.367,263.54,153.367,263.54Z" transform="translate(-125.695 -258.838)" fill="#d0ecf7"/>
      </g>
      <g id="Group_1902" data-name="Group 1902" transform="translate(1.471 73.644)">
        <path id="Path_5444" data-name="Path 5444" d="M68.053,241.336h0a17.162,17.162,0,0,1,.7-1.747,61.577,61.577,0,0,1,3.237-8.877,3.744,3.744,0,0,1,1.375,2.25,18.384,18.384,0,0,1,1.1,5.087c.231,3.014.683,10.716.683,10.716s.239,1.536-1.021.511a25.787,25.787,0,0,1-4.453-4.239A8.626,8.626,0,0,1,68.053,241.336Z" transform="translate(-68.053 -230.711)" fill="#d0ecf7"/>
      </g>
      <g id="Group_1903" data-name="Group 1903" transform="translate(11.835 54.08)">
        <path id="Path_5445" data-name="Path 5445" d="M93.548,206.684s4.753,5.922,14.737,10.636c12.522,5.911,18.946,7.385,24.731,8.745a65.768,65.768,0,0,0,7.174,1.177s1.869-.511,1.125,2.136-4.868,14.1-9.045,16.242-7.8,1.471-11.554.883a98.6,98.6,0,0,1-22.959-7.549,61.85,61.85,0,0,1-13.307-8.419c-3.055-2.621-3.831-3.878-3.644-5.79s5.014-8.3,7.881-12.272A40.876,40.876,0,0,1,93.548,206.684Z" transform="translate(-80.781 -206.684)" fill="#3c4f49"/>
      </g>
      <g id="Group_1904" data-name="Group 1904" transform="translate(83.741 114.197)">
        <path id="Path_5446" data-name="Path 5446" d="M176.514,283.232c-3.694,3.041-6.708,10.992-7.1,14.826s.792,6.4,3.4,7.5,7.976-1.447,11.026-6.717,3.537-10.592,3.017-13.079C186.171,282.494,183.752,277.28,176.514,283.232Z" transform="translate(-169.336 -280.516)" fill="#bfc4c2"/>
      </g>
      <g id="Group_1905" data-name="Group 1905" transform="translate(83.862 115.692)">
        <path id="Path_5447" data-name="Path 5447" d="M169.482,298.071c.522-3.939,3.464-11.54,7.059-14.5a19.253,19.253,0,0,1,1.585-1.175,7.443,7.443,0,0,1,2.005.045c4.2,1.063,4.609,6.838,2.73,12.371s-6.288,9.031-9.829,7.839C171.237,302.035,170.011,300.326,169.482,298.071Z" transform="translate(-169.482 -282.353)" fill="#53605b"/>
      </g>
      <g id="Group_1906" data-name="Group 1906" transform="translate(84.241 117.261)" opacity="0.63">
        <path id="Path_5448" data-name="Path 5448" d="M172.346,296.584a8.358,8.358,0,0,0-2.4-.076c.186-.755.421-1.562.7-2.4.219-.055.226-.169.589-.256a4.89,4.89,0,0,0,2.372-1.623,4.55,4.55,0,0,0,.887-3.192l.063-2.854a9.54,9.54,0,0,1,1.684-1.9c.28,1.659.769,3.18.778,3.316.042.712.318,2.523,1.49,2.26.647-.146,1.72-1.115,4.1-3.017.317-.253.637-.543.914-.791a8.6,8.6,0,0,1,.382,1.653l-4.178,4.287a3.825,3.825,0,0,0-.991,2.2c.035.592,1.428,2.652,2.617,4.31a13.816,13.816,0,0,1-.949,1.337c-1.142-.866-2.353-1.76-2.732-2.03-.758-.541-2.081.512-2.35,1.57-.121.47-.647,2.11-1.208,3.833a4.485,4.485,0,0,1-1-.2,4.255,4.255,0,0,1-.653-.287l.816-3.725S173.43,297.04,172.346,296.584Z" transform="translate(-169.948 -284.279)" fill="#919b97"/>
      </g>
      <g id="Group_1907" data-name="Group 1907" transform="translate(84.256 116.912)">
        <path id="Path_5449" data-name="Path 5449" d="M173.727,296.358a22.686,22.686,0,0,0-3.76,0c.114-.453.241-.923.391-1.413a14.7,14.7,0,0,0,2.772-.962,4.59,4.59,0,0,0,2.624-4.723c-.023-.385.01-2.427-.036-4.505a5.383,5.383,0,0,1,.913-.907c.1-.078.779,4.543.815,4.7.221,1,.8,2.077,1.972,1.812.648-.145,2.049-1.411,4.155-3.073l.259-.207a10.975,10.975,0,0,1,.176,1.672l-2.893,3.006a3.82,3.82,0,0,0-.99,2.2,12.933,12.933,0,0,0,1.9,3.3,15.051,15.051,0,0,1-.936,1.591c-.931-.806-1.8-1.549-2.1-1.765a1.454,1.454,0,0,0-2.375.855c-.188.518-1,2.922-1.758,5.2a4.552,4.552,0,0,1-1.579-.172l1.062-4.093S174.909,296.6,173.727,296.358Z" transform="translate(-169.967 -283.851)" fill="#bfc4c2"/>
      </g>
      <g id="Group_1913" data-name="Group 1913" transform="translate(160.919 37.999)">
        <g id="Group_1908" data-name="Group 1908">
          <path id="Path_5450" data-name="Path 5450" d="M264.949,186.934a15.1,15.1,0,0,1,7.974,4.049c2.706,2.834-.545,5.877-.545,5.877a6.208,6.208,0,0,1-3.118-.542,18.666,18.666,0,0,1-2.471-2.2c-.243-.462-1.46-3.8-1.929-5C264.218,187.467,264.082,186.985,264.949,186.934Z" transform="translate(-264.338 -186.934)" fill="#6e7f89"/>
        </g>
        <g id="Group_1912" data-name="Group 1912" transform="translate(3.31 1.345)">
          <g id="Group_1909" data-name="Group 1909">
            <path id="Path_5451" data-name="Path 5451" d="M274.008,190.068c3.242,2.674,4.321,4.547,4.516,7.837.136,2.315-1.339,5.143-3.53,3.727a30.083,30.083,0,0,1-4.2-3.456c-.973-.814-2.06-1.694-2.154-3.285-.1-1.642-.214-2.666-.239-4.05C268.345,187.683,271.8,188.247,274.008,190.068Z" transform="translate(-268.403 -188.586)" fill="#0d998b"/>
          </g>
          <g id="Group_1910" data-name="Group 1910" transform="translate(0 0.895)">
            <path id="Path_5452" data-name="Path 5452" d="M272.51,191.128c3,2.214,4.863,4.558,4.68,8.218a6.161,6.161,0,0,1-.569,2.651,1.616,1.616,0,0,1-1.627-.161,31.274,31.274,0,0,1-4.135-3.2,5.643,5.643,0,0,1-2.294-4.276c-.118-1.642-.135-1.927-.16-3.312a2.646,2.646,0,0,1,.027-.4C268.725,189.136,270.291,189.488,272.51,191.128Z" transform="translate(-268.403 -189.685)" fill="#076d61"/>
          </g>
          <g id="Group_1911" data-name="Group 1911" transform="translate(0.612 2.068)">
            <path id="Path_5453" data-name="Path 5453" d="M271.375,191.932a15.354,15.354,0,0,1,3.495,3.215,7.484,7.484,0,0,1,1.179,4c.011,1.379-.129,1.8-.242,1.894-.445.38-1.2-.05-2.487-1.08-1.114-.888-2.5-2.248-2.5-2.248a4.558,4.558,0,0,1-1.484-2.988c-.1-.963-.171-2.767-.174-2.794C269.061,190.573,270.459,191.188,271.375,191.932Z" transform="translate(-269.155 -191.127)" fill="#a6aeb2"/>
          </g>
        </g>
      </g>
    </g>
    <g id="Group_1925" data-name="Group 1925" transform="translate(0 70.959)">
      <path id="Path_5454" data-name="Path 5454" d="M113.031,267.468c-.79-.3-2.273.3-3.162.3-.791,0-1.582-.148-2.373-.2-1.631-.2-3.213-.642-4.843-.741a13.2,13.2,0,0,1-4.942-1.186,6.045,6.045,0,0,1-1.68-1.681c-.642-.742-.841-1.087-1.779-.544-1.582.989-1.137,1.977-.445,3.36.593,1.236,1.186,2.373,1.729,3.559.692,1.63,1.927.988,3.361,1.037,1.779.05,3.557.248,5.337.2,2.619-.1,5.188-.4,7.808-.494,1.087-.049,1.73-.247,1.927-1.483.1-.741.05-1.878-.94-2.026" transform="translate(-72.633 -232.33)" fill="#edb291"/>
      <g id="Group_1915" data-name="Group 1915" transform="translate(0 79.982)" opacity="0.3" style="mix-blend-mode: multiply;isolation: isolate">
        <path id="Path_5455" data-name="Path 5455" d="M94.038,326.123c6.006,3.466,6.035,9.073.069,12.546-5.954,3.455-15.641,3.455-21.645-.011s-6.026-9.068-.072-12.529S88.042,322.663,94.038,326.123Z" transform="translate(-67.946 -323.528)"/>
      </g>
      <g id="Group_1923" data-name="Group 1923" transform="translate(0.6)">
        <g id="Group_1917" data-name="Group 1917" transform="translate(9.007 87.504)">
          <path id="Path_5456" data-name="Path 5456" d="M88.727,332.767a2.967,2.967,0,0,0,1.879,1.151c.823.167,3.54.506,3.54.506,1.352.168,2.99.6,3.249,1.922a4.323,4.323,0,0,1,.042.883c-.166.739-.888,1.032-1.766,1.342a23.47,23.47,0,0,1-2.956.823,10.536,10.536,0,0,1-4.013.077s-2.848.239-2.932.919l-2.281.6c-2.286.293-3.794-1.766-3.732-2.285l.616-5.017Z" transform="translate(-79.747 -332.767)" fill="#545454"/>
          <g id="Group_1916" data-name="Group 1916" transform="translate(0 4.099)">
            <path id="Path_5457" data-name="Path 5457" d="M88.5,340.16a31.645,31.645,0,0,0,4.1.039,25.974,25.974,0,0,0,4.477-1.205c.778-.274,1.44-.745,1.494-1.193a1.809,1.809,0,0,1-.007.436c-.164.739-.885,1.037-1.759,1.348a23.012,23.012,0,0,1-2.962.817,32.385,32.385,0,0,1-4.01.479,28.272,28.272,0,0,0-3.081.554c-.427-.065-1.254-.257-.69-.739A9.228,9.228,0,0,1,88.5,340.16Z" transform="translate(-80.882 -337.801)" fill="#383736"/>
            <path id="Path_5458" data-name="Path 5458" d="M83.6,341.25l2.265-.59c-.024.215-.078.746-.105.955l-2.281.6c-2.286.291-3.8-1.76-3.732-2.279l.125-.967C79.805,339.484,81.318,341.536,83.6,341.25Z" transform="translate(-79.745 -338.017)" fill="#383736"/>
          </g>
        </g>
        <g id="Group_1919" data-name="Group 1919" transform="translate(5.434 82.516)">
          <path id="Path_5459" data-name="Path 5459" d="M83.077,326.641a1.687,1.687,0,0,0,1.469,1.438c.792.071,1.935.1,1.935.1,1.357-.257,3.051-.234,3.368.782a1.94,1.94,0,0,1,.12.607c-.072.747.193.121-.824,1.033a24.425,24.425,0,0,1-3.123,2.016,5.116,5.116,0,0,1-2.762.68,6.543,6.543,0,0,0-1.576-.119c-.671.084-.5.931-.5,1.6l-2.068.853a3.268,3.268,0,0,1-3.762-1.778v-5.321Z" transform="translate(-75.357 -326.641)" fill="#545454"/>
          <g id="Group_1918" data-name="Group 1918" transform="translate(0 2.577)">
            <path id="Path_5460" data-name="Path 5460" d="M83.768,333.571a11.882,11.882,0,0,0,2.991-.59,15.886,15.886,0,0,0,3.583-1.891,1.927,1.927,0,0,0,.922-1.283,3.367,3.367,0,0,1,.048.424c.048.68-.546,1.055-1.036,1.39a12.938,12.938,0,0,1-2.911,1.659,6.766,6.766,0,0,1-2.589.507s-.922.041-1.533.066c-.274.017-.654.178-.654.25C82.6,334.066,82.69,333.59,83.768,333.571Z" transform="translate(-76.7 -329.806)" fill="#383736"/>
            <path id="Path_5461" data-name="Path 5461" d="M79.119,336.552l2.049-.853c0,.221.02.447.02.662l-2.068.859a3.274,3.274,0,0,1-3.762-1.778v-.667A3.282,3.282,0,0,0,79.119,336.552Z" transform="translate(-75.357 -330.729)" fill="#383736"/>
          </g>
        </g>
        <g id="Group_1921" data-name="Group 1921" transform="translate(0 19.004)">
          <path id="Path_5462" data-name="Path 5462" d="M76.283,292.56c.047.925,1.328,1.468,2.168,1.426.3-.012.554,1.712,1.017,2.339a.773.773,0,0,0,1.278,0,29.456,29.456,0,0,0-1.021-3.293c-.68-2.124-1.548-2.159-2.391-2.118S76.238,291.628,76.283,292.56Z" transform="translate(-70.094 -256.491)" fill="#ffe8d9"/>
          <path id="Path_5463" data-name="Path 5463" d="M75.3,282.8c-.952.007-2.79-1.808-2.79-1.808s-.038-.226-.107-.644c-.384-2.3-2.135-10.19-2.227-13.1-.1-3.2,1.168-11.658,1.168-11.658s.567-7.147,5.409-6.95c2.926.119,1.41,4.319,1.44,6.885.021,2.016-1.018,12.26-1.018,12.26l.648,12.577S77.15,282.786,75.3,282.8Z" transform="translate(-68.959 -248.638)" fill="#edb291"/>
          <g id="Group_1920" data-name="Group 1920" transform="translate(0.426)">
            <path id="Path_5464" data-name="Path 5464" d="M69.779,255.592s.567-7.147,5.408-6.95c2.926.119,1.411,4.319,1.441,6.885.007.7-.112,2.382-.273,4.285H69.207C69.5,257.482,69.779,255.592,69.779,255.592Z" transform="translate(-69.207 -248.638)" fill="#d7dfe2"/>
          </g>
          <path id="Path_5465" data-name="Path 5465" d="M74.578,291.055l2.43-.149,1.06,2.834.024.471-.185,3.782a1.9,1.9,0,0,1-1.883,1.944c-1.265.078-.138.012-.138.012-1.733.1-1.983-1.754-1.983-1.754l-.689-4.839C73.132,292.326,73.462,291.121,74.578,291.055Z" transform="translate(-69.523 -256.49)" fill="#ffe8d9"/>
          <path id="Path_5466" data-name="Path 5466" d="M78.788,290.379c.007.423-.923,1.265-2.168,1.391a5.572,5.572,0,0,1-2.387-.138c-.75-.251-1.161-.543-1.226-1.074,0,0-.248-1.951-.3-2.566-.033-.4.16-.405.16-.405a1.561,1.561,0,0,0,.106.43c.243.411.941.966,2.531,1,2.505.059,2.784-1.42,2.784-1.42.366-.006.484.161.471.579Z" transform="translate(-69.431 -255.874)" fill="#e4eff4"/>
          <path id="Path_5467" data-name="Path 5467" d="M77.539,260.58c-.5-.475-2.965-.545-3.772-.508-.994.055-2.751.544-3.756.547-.488.011-1.038-.342-1.312,1.739-.108.822.336,1.359,1.138,1.3,2.132-.174,4.381-.559,6.507-.541C76.974,263.122,78.011,261.061,77.539,260.58Z" transform="translate(-68.683 -250.761)" fill="#eaeeef"/>
        </g>
        <path id="Path_5468" data-name="Path 5468" d="M73.96,289.94s-1.137-5.328,5.471-5.328c5.229,0,5.229,5.548,5.229,5.548l-2.646,31.985H75.484Z" transform="translate(-69.65 -236.317)" fill="#e8c5ac"/>
        <path id="Path_5469" data-name="Path 5469" d="M88.186,229.7l4.486.55L90.8,241.8c-.475,3.317-1.922,3.7-2.932,3.633a12.118,12.118,0,0,1-5.448-2.321c-2.162-1.528-1.792-5.424-1.783-5.74l-.1-7.822Z" transform="translate(-70.885 -226.088)" fill="#edb291"/>
        <path id="Path_5470" data-name="Path 5470" d="M79.24,247.369l1.211-6.963,5.849,1.361-.757,6.759c0,.961,3.657,9.272,3.657,12.261l-11.055-3.556C78.145,255.96,79.24,247.369,79.24,247.369Z" transform="translate(-70.441 -228.105)" fill="#edb291"/>
        <path id="Path_5471" data-name="Path 5471" d="M86.3,280.854v3.06a58.564,58.564,0,0,1-.539,6.128l-10.453.393c-1.318-.262-1.817-2.058-1.817-3.873v-5.709Z" transform="translate(-69.577 -235.619)" fill="#14546d"/>
        <path id="Path_5472" data-name="Path 5472" d="M73.977,290.31s.436-3.706,5.04-3.706c.615,0,0-.006,1.817,0,4.407.012,5.021,4.505,5.021,4.505L83.11,322.383l-6.993.132Z" transform="translate(-69.667 -236.686)" fill="#ffe1cc"/>
        <path id="Path_5473" data-name="Path 5473" d="M91.052,227.822c2.418,1.587,1.465,2.935.3,4.994-.5.888-1.637,2.267-1.891,3.55l-.25,1.21c-.019.448-.665,1.057-.934.376-.3-.751.271-1.264-.024-1.664s-1.212-.6-2.271,1.82l-.6,1.891a3.158,3.158,0,0,1-4.084,1.743,5.524,5.524,0,0,1-1.888-1.139,26.876,26.876,0,0,1-2.294-4.737c-1.563-5.7,1.381-12.582,9.93-10.011A14.312,14.312,0,0,1,91.052,227.822Z" transform="translate(-70.175 -225.298)" fill="#633a11"/>
        <path id="Path_5474" data-name="Path 5474" d="M85.681,287.749,85.4,324.315a9.886,9.886,0,0,1-6.354,2.219c-2.219,0-4.385-1.431-4.444-2.045l-1.317-37.377Z" transform="translate(-69.537 -236.781)" fill="#454a4c"/>
        <path id="Path_5475" data-name="Path 5475" d="M89.383,292.489,88.739,324.9c.017-.011.077.794.414.984s.325.871.152,1.325a7.154,7.154,0,0,1-6.808,3.746c-1.357-.071-2.959-.59-3.022-1.175L77.09,293.6Z" transform="translate(-70.245 -237.78)" fill="#3d4244"/>
        <path id="Path_5476" data-name="Path 5476" d="M88.571,255c1.291,1.331,1.79,2.81,1.79,7.493l-1.936,22.474c0,.812-15.083-1.6-15.083-3.311l-.352-23.405c.2-8.144,4.838-9.862,4.838-9.862l5.577,1.951Z" transform="translate(-69.483 -229.589)" fill="#ccd3d6"/>
        <path id="Path_5477" data-name="Path 5477" d="M116.5,271.686l-.6-3,.322-.686,4.009-1.337,4.513.024s.916,0,.916.668c0,.364.182,2.161.182,2.161.248,1.421-5.417,2.463-5.417,2.463C118.559,272.5,117.781,271.847,116.5,271.686Z" transform="translate(-77.454 -232.982)" fill="#edb291"/>
        <g id="Group_1922" data-name="Group 1922" transform="translate(16.588 9.298)">
          <path id="Path_5479" data-name="Path 5479" d="M91.079,236.733s.543-.006.132.758a3.966,3.966,0,0,0-.552,1.663c-.026.395.027,1.6.027,1.6s-.362.483-.662-.257a4.749,4.749,0,0,1-.173-1.873C89.872,238.278,90.5,236.542,91.079,236.733Z" transform="translate(-89.2 -236.718)" fill="#edb291"/>
        </g>
        <path id="Path_5480" data-name="Path 5480" d="M92.516,268.752c-2.193-1.733-4.074-3.434-4.074-3.434s-4.537-3.633-3.1-7.338c1.059-2.726,4.509-2.685,6.279-.83,1.154,1.213,3.346,3.636,5.282,5.69C97.73,263.716,94.336,270.189,92.516,268.752Z" transform="translate(-71.726 -230.971)" fill="#d7dfe2"/>
      </g>
      <g id="Group_1924" data-name="Group 1924" transform="translate(3.813 18.57)">
        <path id="Path_5481" data-name="Path 5481" d="M88.555,288.063l1.33-17.146s-4.416,5.823-7.752,4.246c-3.558-1.681-2.584-7.2-4.052-6.424-2.491,1.311-4.871,11.216-4.871,11.216s-1.462,7,.254,8.46S87.988,292.926,88.555,288.063Z" transform="translate(-72.629 -251.925)" fill="#3d4244"/>
        <path id="Path_5482" data-name="Path 5482" d="M79.5,279.616c-.936-15.21-.415-22.224,3.7-26.3a4.779,4.779,0,0,1,2.887-.866s2.043,1.538,2.043,1.86c0,.122-2.146-.286-3.721,1.175-3.05,2.829-3.268,9.953-3,24.7Z" transform="translate(-73.832 -248.912)" fill="#3d4244"/>
        <path id="Path_5483" data-name="Path 5483" d="M73.234,276.584c-.791-12.855-.484-20.409.394-24.413.823-3.756,2.141-3.987,2.141-3.987s2.177-.3,2.494.274c.072.13-2.031-.173-2.848,3.737-.844,4.042-1.394,11.89-1.159,24.705Z" transform="translate(-72.657 -248.105)" fill="#3d4244"/>
      </g>
      <path id="Path_5484" data-name="Path 5484" d="M98.045,262.713c-.683.091-2.283,1.969-2.76,2.62-.58.809-1.3,2.483-1.928,3.27-.3.387-.917.594.534,2.111a1.019,1.019,0,0,0,1.723-.073c1.2-1.771,2.311-3.764,3.658-5.41C99.672,264.746,98.716,262.647,98.045,262.713Z" transform="translate(-72.594 -232.248)" fill="#eaeeef"/>
      <path id="Path_5485" data-name="Path 5485" d="M79.589,261.234s-.873-.3-2.85-.938-2.026-1.17-2.026-1.17l-1.054,11.135.594,9.686,4.705,1.553.5-13.676Z" transform="translate(-69.007 -231.582)" fill="#3d4244"/>
    </g>
    <path id="Path_5486" data-name="Path 5486" d="M300.584,157.878s6.611,3.015,6.814,4.236-2.336,7.773-2.132,9.605-.946,2.268-1.625,2.875c-1.116,1-14.456,8.524-14.456,8.524l-4.519-13.766Z" transform="translate(-76.383 -108.787)" fill="#3c4f49"/>
    <path id="Path_5487" data-name="Path 5487" d="M217.721,138.432s22.654-34.122,34.022-38.772,23.952-1.777,28.289.194c8.526,3.876,18,10.03,20.289,14.861,1.221,2.579,2.986,8.414-4.4,23.957-7.882,16.587-20.57,34.939-20.57,34.939l-14.114-23.184Z" transform="translate(-63.935 -97.151)" fill="#0d998b"/>
    <g id="Group_1948" data-name="Group 1948" transform="translate(216.74 81.462)">
      <g id="Group_1928" data-name="Group 1928">
        <g id="Group_1927" data-name="Group 1927" style="isolation: isolate">
          <path id="Path_5488" data-name="Path 5488" d="M308.617,198.379c-1.549-.812-3.635-.6-5.886.837-4.473,2.849-7.9,9.433-7.656,14.7.121,2.619,1.127,4.422,2.657,5.223l1.308.686c-1.53-.8-2.535-2.6-2.657-5.223-.245-5.272,3.184-11.856,7.657-14.705,2.251-1.433,4.337-1.648,5.886-.836Z" transform="translate(-295.063 -197.909)" fill="#727573"/>
          <g id="Group_1926" data-name="Group 1926" transform="translate(1.309 0.686)">
            <path id="Path_5489" data-name="Path 5489" d="M304.339,200.058c4.473-2.849,8.3-.885,8.541,4.386S309.7,216.3,305.226,219.15s-8.3.884-8.544-4.387S299.867,202.907,304.339,200.058Z" transform="translate(-296.67 -198.751)" fill="#b2b2b2"/>
          </g>
        </g>
      </g>
      <g id="Group_1931" data-name="Group 1931" transform="translate(6.616 6.716)">
        <g id="Group_1930" data-name="Group 1930" style="isolation: isolate">
          <path id="Path_5490" data-name="Path 5490" d="M308.639,206.345a2.365,2.365,0,0,0-2.369.338,7.34,7.34,0,0,0-3.077,5.911,2.341,2.341,0,0,0,1.067,2.1l1.309.686a2.339,2.339,0,0,1-1.067-2.1,7.339,7.339,0,0,1,3.077-5.91,2.361,2.361,0,0,1,2.369-.338Z" transform="translate(-303.188 -206.157)" fill="#727573"/>
          <g id="Group_1929" data-name="Group 1929" transform="translate(1.309 0.686)">
            <path id="Path_5491" data-name="Path 5491" d="M307.878,207.526c1.8-1.146,3.338-.359,3.435,1.761a7.343,7.343,0,0,1-3.079,5.912c-1.8,1.147-3.335.357-3.434-1.763A7.339,7.339,0,0,1,307.878,207.526Z" transform="translate(-304.796 -206.999)" fill="#bfc4c2"/>
          </g>
        </g>
      </g>
      <g id="Group_1947" data-name="Group 1947" transform="translate(2.482 2.099)">
        <g id="Group_1934" data-name="Group 1934" transform="translate(8.382)">
          <g id="Group_1933" data-name="Group 1933" style="isolation: isolate">
            <path id="Path_5492" data-name="Path 5492" d="M309.409,200.521a.436.436,0,0,0-.436.062,1.351,1.351,0,0,0-.567,1.091.429.429,0,0,0,.2.386l2.154,1.077a.43.43,0,0,1-.2-.386,1.353,1.353,0,0,1,.568-1.09.436.436,0,0,1,.436-.063Z" transform="translate(-308.405 -200.487)" fill="#817978"/>
            <g id="Group_1932" data-name="Group 1932" transform="translate(2.154 1.078)">
              <path id="Path_5493" data-name="Path 5493" d="M311.618,201.907c.331-.211.614-.066.633.326a1.354,1.354,0,0,1-.566,1.089c-.333.212-.616.066-.634-.324A1.353,1.353,0,0,1,311.618,201.907Z" transform="translate(-311.05 -201.81)" fill="#645e5d"/>
            </g>
          </g>
        </g>
        <g id="Group_1937" data-name="Group 1937" transform="translate(0 15.85)">
          <g id="Group_1936" data-name="Group 1936" style="isolation: isolate">
            <path id="Path_5494" data-name="Path 5494" d="M299.114,219.988a.433.433,0,0,0-.435.062,1.351,1.351,0,0,0-.568,1.09.431.431,0,0,0,.2.387l2.154,1.077a.432.432,0,0,1-.2-.387,1.353,1.353,0,0,1,.568-1.09.434.434,0,0,1,.436-.061Z" transform="translate(-298.111 -219.953)" fill="#817978"/>
            <g id="Group_1935" data-name="Group 1935" transform="translate(2.154 1.077)">
              <path id="Path_5495" data-name="Path 5495" d="M301.324,221.373c.331-.211.615-.065.633.326a1.349,1.349,0,0,1-.567,1.089c-.332.212-.615.066-.634-.324A1.353,1.353,0,0,1,301.324,221.373Z" transform="translate(-300.756 -221.276)" fill="#645e5d"/>
            </g>
          </g>
        </g>
        <g id="Group_1940" data-name="Group 1940" transform="translate(0.793 6.457)">
          <g id="Group_1939" data-name="Group 1939" style="isolation: isolate">
            <path id="Path_5496" data-name="Path 5496" d="M300.089,208.452a.433.433,0,0,0-.435.062,1.355,1.355,0,0,0-.568,1.09.432.432,0,0,0,.2.387l2.154,1.077a.431.431,0,0,1-.2-.387,1.352,1.352,0,0,1,.568-1.09.436.436,0,0,1,.436-.061Z" transform="translate(-299.085 -208.417)" fill="#817978"/>
            <g id="Group_1938" data-name="Group 1938" transform="translate(2.154 1.078)">
              <path id="Path_5497" data-name="Path 5497" d="M302.3,209.837c.331-.21.615-.065.633.326a1.354,1.354,0,0,1-.567,1.089c-.332.212-.616.066-.633-.324A1.352,1.352,0,0,1,302.3,209.837Z" transform="translate(-301.731 -209.741)" fill="#645e5d"/>
            </g>
          </g>
        </g>
        <g id="Group_1943" data-name="Group 1943" transform="translate(7.433 14.316)">
          <g id="Group_1942" data-name="Group 1942" style="isolation: isolate">
            <path id="Path_5498" data-name="Path 5498" d="M308.244,218.1a.439.439,0,0,0-.436.063,1.353,1.353,0,0,0-.568,1.09.431.431,0,0,0,.2.387l2.154,1.077a.429.429,0,0,1-.2-.386,1.35,1.35,0,0,1,.568-1.09.431.431,0,0,1,.435-.063Z" transform="translate(-307.24 -218.069)" fill="#817978"/>
            <g id="Group_1941" data-name="Group 1941" transform="translate(2.154 1.077)">
              <path id="Path_5499" data-name="Path 5499" d="M310.454,219.49c.331-.212.614-.066.632.325a1.35,1.35,0,0,1-.567,1.089c-.331.212-.615.067-.633-.323A1.35,1.35,0,0,1,310.454,219.49Z" transform="translate(-309.886 -219.393)" fill="#645e5d"/>
            </g>
          </g>
        </g>
        <g id="Group_1946" data-name="Group 1946" transform="translate(12.424 6.719)">
          <g id="Group_1945" data-name="Group 1945" style="isolation: isolate">
            <path id="Path_5500" data-name="Path 5500" d="M314.374,208.774a.434.434,0,0,0-.436.061,1.354,1.354,0,0,0-.567,1.091.43.43,0,0,0,.2.386l2.154,1.077a.43.43,0,0,1-.2-.386,1.353,1.353,0,0,1,.568-1.09.433.433,0,0,1,.435-.062Z" transform="translate(-313.37 -208.739)" fill="#817978"/>
            <g id="Group_1944" data-name="Group 1944" transform="translate(2.154 1.078)">
              <path id="Path_5501" data-name="Path 5501" d="M316.584,210.159c.331-.211.614-.065.633.326a1.353,1.353,0,0,1-.568,1.089c-.331.212-.615.066-.633-.324A1.353,1.353,0,0,1,316.584,210.159Z" transform="translate(-316.016 -210.062)" fill="#645e5d"/>
            </g>
          </g>
        </g>
      </g>
    </g>
  </g>
</svg>
