<svg xmlns="http://www.w3.org/2000/svg" xmlns:xlink="http://www.w3.org/1999/xlink" width="437.26" height="180" viewBox="0 0 437.26 180">
  <defs>
    <clipPath id="clip-path">
      <rect width="214.912" height="57.566" fill="none"/>
    </clipPath>
  </defs>
  <g id="illust-mountain-car-4" transform="translate(-321 -5080)">
    <path id="Union_2" data-name="Union 2" d="M384.548,45.6c-.643-1.068-5.827-.686-11.569-.3-6.979.465-14.784.929-16.262-1.21C354.022,40.194,349.27,32,349.27,32a91.174,91.174,0,0,1-9.631-5.427V41.735H0V0H339.638V8.276L365.4.861l2.144,17.171s7.829-.386,8.738,0a26.2,26.2,0,0,0,4.677-.267c3.573-.314,8.225-.629,10.458.267,4.35,4.9,6.586,15.576,6.562,26.06,0,2.344-3.5,3.288-6.939,3.288C388.1,47.38,385.2,46.694,384.548,45.6Z" transform="translate(350.403 5186.976)" fill="#2a292e"/>
    <rect id="Rectangle_372" data-name="Rectangle 372" width="24.945" height="6.716" transform="translate(441.549 5183.618)" fill="#444346"/>
    <path id="Path_15339" data-name="Path 15339" d="M2206.993,4769.348v51.718c0,4.363,1.48,8.458,5.056,8.554s6.225,0,6.225,0v21.846a2.6,2.6,0,0,0,2.582,2.836c1.563,0,102.753-1.974,102.753-1.974s-4.084,11.124-4.258,12.081.1,3.75,2.534,4.275,5.331-.3,7.5-4.275,5.46-10.912,5.46-10.912l96.262-.679s7.978,14.6,12.218,14.627,4.636-2.578,4.636-2.578,7.95,6.1,15.955,1.009,6.631-23.383,6.631-23.383,6.651-.093,7.43,0,7.391,12.2,10.719,12.452,10.659.616,11.283-4.387a27.426,27.426,0,0,0,0-8.065s10.6.178,10.839-5.041.008-72.414-2.2-77.908-6.479-5.251-6.479-5.251-4.36-2.741-13.438-2.884-10.959-2.369-15.566-2.094-9.2,4.777-10.8,6.144-205.449,1.6-205.449,1.6-28.851-12.606-34.491-14.635-21-1.132-23.478-1.132-5.519,4.113-5.428,6.781-4.563,1.5-6.594,3.442-3.23,14.648,2.543,15.276S2206.993,4769.348,2206.993,4769.348Z" transform="translate(-1753.59 338.904)" fill="#f8351c"/>
    <path id="Intersection_22" data-name="Intersection 22" d="M10.372,12.15C7.344,11.921,1.6,1.883,0,0H21.706a29.29,29.29,0,0,1-.051,7.764c-.477,3.823-4.871,4.511-8.4,4.511C12.164,12.275,11.156,12.209,10.372,12.15Z" transform="translate(724.731 5181.7)" fill="#a10a0d"/>
    <path id="Union_1" data-name="Union 1" d="M229.574,22.553s-.4,2.605-4.636,2.577c-2.463-.016-6.183-4.944-8.871-9.075V12.512h-2.28c-.6-1.028-.957-1.678-.957-1.678l-96.262.68s-.178.374-.477,1H104.544c.468-1.287.791-2.166.791-2.166S10.478,12.2,3.026,12.313a16.153,16.153,0,0,1-1.8-.366A2.81,2.81,0,0,1,0,9.483V1.831A10.568,10.568,0,0,1,5.818,0H252.526V.173l-.365.005s1.374,18.3-6.632,23.383a12.579,12.579,0,0,1-6.855,2.027A16.516,16.516,0,0,1,229.574,22.553Z" transform="translate(464.794 5180.887)" fill="#a10a0d"/>
    <path id="Subtraction_3" data-name="Subtraction 3" d="M8.584,60.462c-1.063,0-2.14-.014-3.2-.042a4.421,4.421,0,0,1-3.869-2.678A13.2,13.2,0,0,1,.327,51.865V.147h0L0,.094.02.008H.061C.155,0,.405,0,.767,0c2.077,0,7.165.153,9.555,1.57H8.36a1.5,1.5,0,0,0-1.5,1.5V14.757a1.5,1.5,0,0,0,1.5,1.5h3.548c.006,1.848.006,3.824,0,5.875H8.36a1.5,1.5,0,0,0-1.5,1.5V35.321a1.5,1.5,0,0,0,1.5,1.5h3.462c-.02,2.2-.039,4.119-.058,5.875H8.36a1.5,1.5,0,0,0-1.5,1.5V55.886a1.5,1.5,0,0,0,1.5,1.5h3.218c-.021,1.436-.037,2.484-.045,3.036C10.39,60.455,9.3,60.462,8.584,60.462Z" transform="translate(452.881 5108.104)" fill="#a10a0d"/>
    <circle id="Ellipse_151" data-name="Ellipse 151" cx="6.716" cy="6.716" r="6.716" transform="translate(696.757 5185.263)" fill="#110f14"/>
    <path id="Intersection_20" data-name="Intersection 20" d="M2.576,24.471C.142,23.945-.131,21.153.042,20.2S4.3,8.116,4.3,8.116l-.334.007C4.691,5.648,6.465.088,7.777.1c0,0,115.33-.1,117.673-.1a3.712,3.712,0,0,1,3.613,3.911c0,1.881-.161,3.745-2.049,3.91s-5.265.245-5.265.245,6.064,9.218,7.149,12.767c-.162-.112-.248-.177-.248-.177s-.4,2.605-4.636,2.577S111.8,8.6,111.8,8.6l-96.262.68s-3.293,6.933-5.46,10.911C8.286,23.479,6,24.614,3.888,24.614A6.2,6.2,0,0,1,2.576,24.471Z" transform="translate(565.651 5183.117)" fill="#f8351c"/>
    <rect id="Rectangle_374" data-name="Rectangle 374" width="44.145" height="42.226" transform="translate(339.381 5121.468)" fill="#eaeaea"/>
    <circle id="Ellipse_152" data-name="Ellipse 152" cx="7.675" cy="7.675" r="7.675" transform="translate(720.677 5104.945)" fill="#a10a0d"/>
    <path id="Intersection_23" data-name="Intersection 23" d="M23.93,8.267c-2.211-.593-23.677,0-23.677,0L0,8.15A1.476,1.476,0,0,0,.431,6.977C.341,4.309,3.382.2,5.859.2S23.7-.7,29.338,1.329,63.83,15.964,63.83,15.964s203.846-.232,205.448-1.6,6.191-5.87,10.8-6.145,6.487,1.951,15.566,2.094S309.081,13.2,309.081,13.2a6.5,6.5,0,0,1,5.248,2.977c-7.949-.085-23.353-.208-27.706.057-5.949.362-11.518,6.518-11.518,6.518S61.254,25.229,59.926,25.229,26.141,8.86,23.93,8.267Z" transform="translate(439.728 5080)" fill="#a10a0d"/>
    <path id="Intersection_24" data-name="Intersection 24" d="M20.567,86.913l-.938-.231V22.257C19.629,12.476,16.3.931,3.956.053,9.313.1,19.072.173,26.62.271a9.269,9.269,0,0,1,2.53,3.693c2.212,5.494,2.445,72.688,2.2,77.907-.226,4.885-9.523,5.042-10.713,5.042ZM2.423,0q.788,0,1.533.053C-.167.018-1.683,0,2.423,0Z" transform="translate(726.829 5095.699)" fill="#a10a0d"/>
    <g id="Repeat_Grid_30" data-name="Repeat Grid 30" transform="translate(499.049 5117.418)" clip-path="url(#clip-path)">
      <g id="Group_4979" data-name="Group 4979" transform="translate(-315 -5051)">
        <path id="Rectangle_362" data-name="Rectangle 362" d="M1,0H15a4,4,0,0,1,4,4V20a4,4,0,0,1-4,4H1a1,1,0,0,1-1-1V1A1,1,0,0,1,1,0Z" transform="translate(315 5051)" fill="#cc1d20"/>
        <path id="Rectangle_363" data-name="Rectangle 363" d="M0,0H0A4,4,0,0,1,4,4V20a4,4,0,0,1-4,4H0a0,0,0,0,1,0,0V0A0,0,0,0,1,0,0Z" transform="translate(330 5051)" fill="#f86128"/>
      </g>
      <g id="Group_4979-2" data-name="Group 4979" transform="translate(-281 -5051)">
        <path id="Rectangle_362-2" data-name="Rectangle 362" d="M1,0H15a4,4,0,0,1,4,4V20a4,4,0,0,1-4,4H1a1,1,0,0,1-1-1V1A1,1,0,0,1,1,0Z" transform="translate(315 5051)" fill="#cc1d20"/>
        <path id="Rectangle_363-2" data-name="Rectangle 363" d="M0,0H0A4,4,0,0,1,4,4V20a4,4,0,0,1-4,4H0a0,0,0,0,1,0,0V0A0,0,0,0,1,0,0Z" transform="translate(330 5051)" fill="#f86128"/>
      </g>
      <g id="Group_4979-3" data-name="Group 4979" transform="translate(-247 -5051)">
        <path id="Rectangle_362-3" data-name="Rectangle 362" d="M1,0H15a4,4,0,0,1,4,4V20a4,4,0,0,1-4,4H1a1,1,0,0,1-1-1V1A1,1,0,0,1,1,0Z" transform="translate(315 5051)" fill="#cc1d20"/>
        <path id="Rectangle_363-3" data-name="Rectangle 363" d="M0,0H0A4,4,0,0,1,4,4V20a4,4,0,0,1-4,4H0a0,0,0,0,1,0,0V0A0,0,0,0,1,0,0Z" transform="translate(330 5051)" fill="#f86128"/>
      </g>
      <g id="Group_4979-4" data-name="Group 4979" transform="translate(-213 -5051)">
        <path id="Rectangle_362-4" data-name="Rectangle 362" d="M1,0H15a4,4,0,0,1,4,4V20a4,4,0,0,1-4,4H1a1,1,0,0,1-1-1V1A1,1,0,0,1,1,0Z" transform="translate(315 5051)" fill="#cc1d20"/>
        <path id="Rectangle_363-4" data-name="Rectangle 363" d="M0,0H0A4,4,0,0,1,4,4V20a4,4,0,0,1-4,4H0a0,0,0,0,1,0,0V0A0,0,0,0,1,0,0Z" transform="translate(330 5051)" fill="#f86128"/>
      </g>
      <g id="Group_4979-5" data-name="Group 4979" transform="translate(-179 -5051)">
        <path id="Rectangle_362-5" data-name="Rectangle 362" d="M1,0H15a4,4,0,0,1,4,4V20a4,4,0,0,1-4,4H1a1,1,0,0,1-1-1V1A1,1,0,0,1,1,0Z" transform="translate(315 5051)" fill="#cc1d20"/>
        <path id="Rectangle_363-5" data-name="Rectangle 363" d="M0,0H0A4,4,0,0,1,4,4V20a4,4,0,0,1-4,4H0a0,0,0,0,1,0,0V0A0,0,0,0,1,0,0Z" transform="translate(330 5051)" fill="#f86128"/>
      </g>
      <g id="Group_4979-6" data-name="Group 4979" transform="translate(-145 -5051)">
        <path id="Rectangle_362-6" data-name="Rectangle 362" d="M1,0H15a4,4,0,0,1,4,4V20a4,4,0,0,1-4,4H1a1,1,0,0,1-1-1V1A1,1,0,0,1,1,0Z" transform="translate(315 5051)" fill="#cc1d20"/>
        <path id="Rectangle_363-6" data-name="Rectangle 363" d="M0,0H0A4,4,0,0,1,4,4V20a4,4,0,0,1-4,4H0a0,0,0,0,1,0,0V0A0,0,0,0,1,0,0Z" transform="translate(330 5051)" fill="#f86128"/>
      </g>
      <g id="Group_4979-7" data-name="Group 4979" transform="translate(-111 -5051)">
        <path id="Rectangle_362-7" data-name="Rectangle 362" d="M1,0H15a4,4,0,0,1,4,4V20a4,4,0,0,1-4,4H1a1,1,0,0,1-1-1V1A1,1,0,0,1,1,0Z" transform="translate(315 5051)" fill="#cc1d20"/>
        <path id="Rectangle_363-7" data-name="Rectangle 363" d="M0,0H0A4,4,0,0,1,4,4V20a4,4,0,0,1-4,4H0a0,0,0,0,1,0,0V0A0,0,0,0,1,0,0Z" transform="translate(330 5051)" fill="#f86128"/>
      </g>
      <g id="Group_4979-8" data-name="Group 4979" transform="translate(-315 -5017)">
        <path id="Rectangle_362-8" data-name="Rectangle 362" d="M1,0H15a4,4,0,0,1,4,4V20a4,4,0,0,1-4,4H1a1,1,0,0,1-1-1V1A1,1,0,0,1,1,0Z" transform="translate(315 5051)" fill="#cc1d20"/>
        <path id="Rectangle_363-8" data-name="Rectangle 363" d="M0,0H0A4,4,0,0,1,4,4V20a4,4,0,0,1-4,4H0a0,0,0,0,1,0,0V0A0,0,0,0,1,0,0Z" transform="translate(330 5051)" fill="#f86128"/>
      </g>
      <g id="Group_4979-9" data-name="Group 4979" transform="translate(-281 -5017)">
        <path id="Rectangle_362-9" data-name="Rectangle 362" d="M1,0H15a4,4,0,0,1,4,4V20a4,4,0,0,1-4,4H1a1,1,0,0,1-1-1V1A1,1,0,0,1,1,0Z" transform="translate(315 5051)" fill="#cc1d20"/>
        <path id="Rectangle_363-9" data-name="Rectangle 363" d="M0,0H0A4,4,0,0,1,4,4V20a4,4,0,0,1-4,4H0a0,0,0,0,1,0,0V0A0,0,0,0,1,0,0Z" transform="translate(330 5051)" fill="#f86128"/>
      </g>
      <g id="Group_4979-10" data-name="Group 4979" transform="translate(-247 -5017)">
        <path id="Rectangle_362-10" data-name="Rectangle 362" d="M1,0H15a4,4,0,0,1,4,4V20a4,4,0,0,1-4,4H1a1,1,0,0,1-1-1V1A1,1,0,0,1,1,0Z" transform="translate(315 5051)" fill="#cc1d20"/>
        <path id="Rectangle_363-10" data-name="Rectangle 363" d="M0,0H0A4,4,0,0,1,4,4V20a4,4,0,0,1-4,4H0a0,0,0,0,1,0,0V0A0,0,0,0,1,0,0Z" transform="translate(330 5051)" fill="#f86128"/>
      </g>
      <g id="Group_4979-11" data-name="Group 4979" transform="translate(-213 -5017)">
        <path id="Rectangle_362-11" data-name="Rectangle 362" d="M1,0H15a4,4,0,0,1,4,4V20a4,4,0,0,1-4,4H1a1,1,0,0,1-1-1V1A1,1,0,0,1,1,0Z" transform="translate(315 5051)" fill="#cc1d20"/>
        <path id="Rectangle_363-11" data-name="Rectangle 363" d="M0,0H0A4,4,0,0,1,4,4V20a4,4,0,0,1-4,4H0a0,0,0,0,1,0,0V0A0,0,0,0,1,0,0Z" transform="translate(330 5051)" fill="#f86128"/>
      </g>
      <g id="Group_4979-12" data-name="Group 4979" transform="translate(-179 -5017)">
        <path id="Rectangle_362-12" data-name="Rectangle 362" d="M1,0H15a4,4,0,0,1,4,4V20a4,4,0,0,1-4,4H1a1,1,0,0,1-1-1V1A1,1,0,0,1,1,0Z" transform="translate(315 5051)" fill="#cc1d20"/>
        <path id="Rectangle_363-12" data-name="Rectangle 363" d="M0,0H0A4,4,0,0,1,4,4V20a4,4,0,0,1-4,4H0a0,0,0,0,1,0,0V0A0,0,0,0,1,0,0Z" transform="translate(330 5051)" fill="#f86128"/>
      </g>
      <g id="Group_4979-13" data-name="Group 4979" transform="translate(-145 -5017)">
        <path id="Rectangle_362-13" data-name="Rectangle 362" d="M1,0H15a4,4,0,0,1,4,4V20a4,4,0,0,1-4,4H1a1,1,0,0,1-1-1V1A1,1,0,0,1,1,0Z" transform="translate(315 5051)" fill="#cc1d20"/>
        <path id="Rectangle_363-13" data-name="Rectangle 363" d="M0,0H0A4,4,0,0,1,4,4V20a4,4,0,0,1-4,4H0a0,0,0,0,1,0,0V0A0,0,0,0,1,0,0Z" transform="translate(330 5051)" fill="#f86128"/>
      </g>
      <g id="Group_4979-14" data-name="Group 4979" transform="translate(-111 -5017)">
        <path id="Rectangle_362-14" data-name="Rectangle 362" d="M1,0H15a4,4,0,0,1,4,4V20a4,4,0,0,1-4,4H1a1,1,0,0,1-1-1V1A1,1,0,0,1,1,0Z" transform="translate(315 5051)" fill="#cc1d20"/>
        <path id="Rectangle_363-14" data-name="Rectangle 363" d="M0,0H0A4,4,0,0,1,4,4V20a4,4,0,0,1-4,4H0a0,0,0,0,1,0,0V0A0,0,0,0,1,0,0Z" transform="translate(330 5051)" fill="#f86128"/>
      </g>
    </g>
    <path id="Path_15372" data-name="Path 15372" d="M1905.547,4832.542s1.646-45.655,0-51.8-5.668-25.961-15.583-26.591-75.745-.03-78.727,0-9.451,7.187-9.053,7.942,7.13,1.546,7.13,2.33-.69,9.691,0,10.37,55.186-2.347,55.186-2.347,6.733,15.278,7.106,16.6.165,4.214-2.07,5.208-48.314,19.669-49.471,19.669-15.584-8.185-23.915-7.9-12.677,3.122-13.848,5.006-1.287,31.321-1.243,34.365,3.027,6.028,3.027,6.028-3.251,2.217-3.027,5.056.055,22.1,0,22.933,3,4.509,6.661,4.509,6.669.087,6.941,0,0-12.169,0-12.169,15.906.126,18.487,0,4.056-.033,6.623-4.443,11.457-20.069,29.305-19.143,21.65,8.07,23.181,8.463,6.168-2.138,7.261-2.163,8.7-.042,10.732-1.059,10.051-4.359,10.669-5.241S1905.547,4832.542,1905.547,4832.542Z" transform="translate(-1460.048 350.109)" fill="#f8351c"/>
    <g id="Group_4983" data-name="Group 4983" transform="translate(324.309 5112.7)">
      <g id="Group_4981" data-name="Group 4981" transform="translate(26.746)">
        <path id="Path_15377" data-name="Path 15377" d="M1878.755,4762.959s12.388,23.138,13.172,33.966,0,56.824,0,56.824" transform="translate(-1815.427 -4762.959)" fill="none" stroke="#a10a0d" stroke-linecap="round" stroke-width="2"/>
        <path id="Path_15378" data-name="Path 15378" d="M1881.313,4856.987s-9.3-15.394-31.231-14.15-36.794,17.535-37.334,31.9" transform="translate(-1812.749 -4766.196)" fill="none" stroke="#a10a0d" stroke-linecap="round" stroke-width="2"/>
        <path id="Path_15379" data-name="Path 15379" d="M1850.414,4805.375v35.5" transform="translate(-1814.277 -4764.68)" fill="none" stroke="#a10a0d" stroke-linecap="round" stroke-width="2"/>
      </g>
      <g id="Rectangle_367" data-name="Rectangle 367" transform="translate(53.851 62.402)" fill="none" stroke="#a10a0d" stroke-width="2">
        <rect width="4.797" height="10.554" rx="2.399" stroke="none"/>
        <rect x="1" y="1" width="2.797" height="8.554" rx="1.399" fill="none"/>
      </g>
      <path id="Path_15380" data-name="Path 15380" d="M1797.593,4809a28.278,28.278,0,0,0-1.41,7.992c0,2.282.473,21.057.878,36.669.282,10.884.531,20.226.531,20.226" transform="translate(-1784.371 -4765.346)" fill="none" stroke="#a10a0d" stroke-linecap="round" stroke-width="2"/>
      <path id="Path_15381" data-name="Path 15381" d="M1795.671,4856.582h-12.517" transform="translate(-1783.154 -4767.276)" fill="none" stroke="#a10a0d" stroke-linecap="round" stroke-width="2"/>
      <path id="Path_15382" data-name="Path 15382" d="M1798.6,4856.582h-15.446" transform="translate(-1695.964 -4773.992)" fill="none" stroke="#a10a0d" stroke-linecap="round" stroke-width="2"/>
    </g>
    <path id="Subtraction_7" data-name="Subtraction 7" d="M32.893,60.976a20.134,20.134,0,0,1-3.343-1.409l-.006,0c-4.893-2.27-14-6.494-20.131-6.494-.137,0-.284,0-.436.007a30.229,30.229,0,0,0-7.131,1.034A17.172,17.172,0,0,1,.022,50.068c-.3-1.323,2.5-8.847,4.97-15.486L5,34.557l0-.01c1.737-4.668,3.238-8.7,3.238-9.47,0-1.016-.81-1.68-1.836-2.519l-.005,0A10.9,10.9,0,0,1,3.88,19.919a2.443,2.443,0,0,1,.036-1.838C4.536,15.9,6.7,12.057,9.7,7.8c2.7-3.827,5.282-6.839,6.271-7.324A6.9,6.9,0,0,1,18.889,0c2.745,0,5.887.731,5.887,1.031a.421.421,0,0,1-.1.165h-.11l-.5.005c-1.073.011-2.788,1.137-4.828,3.172a29.6,29.6,0,0,0-4.061,4.963c-.316.528-.448.875-.381,1,.2.372,2,.464,3.736.553h.005c1.772.091,3.6.185,3.6.583,0,.148-.025.588-.059,1.2l0,.079,0,.024V12.8c-.157,2.76-.484,8.5.067,9.045a6.663,6.663,0,0,0,1.739.1c9.033,0,51.612-2.346,53.42-2.446h.027l.056.125C78.956,23.2,84.11,34.947,84.434,36.1a5.392,5.392,0,0,1-.057,2.728,3.7,3.7,0,0,1-2.013,2.479c-1.072.477-12.761,5.24-25.139,10.208C48.42,55.047,33.551,60.976,32.893,60.976ZM31.8,25.51a13.5,13.5,0,0,0-13.5,13.5V47a2.5,2.5,0,0,0,2.5,2.5h28.58a2.5,2.5,0,0,0,2.5-2.5V28.01a2.5,2.5,0,0,0-2.5-2.5Z" transform="translate(327.124 5103.06)" fill="#19171e"/>
    <path id="Intersection_26" data-name="Intersection 26" d="M44.96,8.563C26.676,8.435,7.111,8.308.4,8.5a.813.813,0,0,1-.384-.269C-.381,7.474,6.089.316,9.071.287c2.913-.029,65.8-.6,77.949-.042-.536,1.364-3.226,7.974-5.11,8.372-.372.078-3.087.108-7.331.108C67.62,8.725,56.547,8.644,44.96,8.563Z" transform="translate(342.119 5103.974)" fill="#f86128"/>
    <path id="Path_15384" data-name="Path 15384" d="M1792.63,4868.424a51.329,51.329,0,0,0,0-5.876c-.212-1.867-1.8-1.91-5.524-1.91s-6.2,1.006-6.34,1.91,0,7.417,0,7.417,4.409,1.77,7.253,1.682S1792.63,4868.424,1792.63,4868.424Z" transform="translate(-1459.591 350.457)" fill="#ccc"/>
    <path id="Intersection_28" data-name="Intersection 28" d="M9.587,37.063c0-2.638-7.936-23.248-7.936-23.248s.06-2.057,0-4.656A75.887,75.887,0,0,0,0,0C8.5,2.886,12.1,20.48,13.632,26.2c1.647,6.144,0,51.8,0,51.8s-2.75,10.116-4.045,14.092Z" transform="translate(431.621 5105.229)" fill="#cc1d20"/>
    <path id="Rectangle_371" data-name="Rectangle 371" d="M1,0H23.986a0,0,0,0,1,0,0V9.473a3,3,0,0,1-3,3H1a1,1,0,0,1-1-1V1A1,1,0,0,1,1,0Z" transform="translate(334.093 5221.601)" fill="#19171e"/>
    <path id="Path_15390" data-name="Path 15390" d="M1892.293,4858.387h-8.237s-2.685,2.709-4.511,3.164,3.894,5.572,4.511,15.9.554,18.962,1.163,19.191,8.116-.107,8.293-2.47.012-29.169,0-31.523A8.975,8.975,0,0,0,1892.293,4858.387Z" transform="translate(-1465.282 345.751)" fill="#444346"/>
    <g id="wheel" transform="translate(361.235 5204.138)">
      <path id="Path_14293" data-name="Path 14293" d="M633.254,506.837a27.651,27.651,0,1,1,27.65,27.652A27.652,27.652,0,0,1,633.254,506.837Z" transform="translate(-633.254 -479.185)" fill="#26231f"/>
      <path id="Path_14296" data-name="Path 14296" d="M645.637,509.112a17.543,17.543,0,1,1,17.544,17.542A17.544,17.544,0,0,1,645.637,509.112Z" transform="translate(-635.529 -481.46)" fill="#a8a8a8"/>
      <path id="Path_14297" data-name="Path 14297" d="M651.523,510.194a12.739,12.739,0,1,1,12.74,12.739A12.738,12.738,0,0,1,651.523,510.194Z" transform="translate(-636.61 -482.542)" fill="#e2e2e2"/>
    </g>
    <g id="wheel-2" data-name="wheel" transform="translate(578.853 5204.138)">
      <path id="Path_14293-2" data-name="Path 14293" d="M633.254,506.837a27.651,27.651,0,1,1,27.65,27.652A27.652,27.652,0,0,1,633.254,506.837Z" transform="translate(-633.254 -479.185)" fill="#26231f"/>
      <path id="Path_14296-2" data-name="Path 14296" d="M645.637,509.112a17.543,17.543,0,1,1,17.544,17.542A17.544,17.544,0,0,1,645.637,509.112Z" transform="translate(-635.529 -481.46)" fill="#a8a8a8"/>
      <path id="Path_14297-2" data-name="Path 14297" d="M651.523,510.194a12.739,12.739,0,1,1,12.74,12.739A12.738,12.738,0,0,1,651.523,510.194Z" transform="translate(-636.61 -482.542)" fill="#e2e2e2"/>
    </g>
    <g id="wheel-3" data-name="wheel" transform="translate(645.054 5204.138)">
      <path id="Path_14293-3" data-name="Path 14293" d="M633.254,506.837a27.651,27.651,0,1,1,27.65,27.652A27.652,27.652,0,0,1,633.254,506.837Z" transform="translate(-633.254 -479.185)" fill="#26231f"/>
      <path id="Path_14296-3" data-name="Path 14296" d="M645.637,509.112a17.543,17.543,0,1,1,17.544,17.542A17.544,17.544,0,0,1,645.637,509.112Z" transform="translate(-635.529 -481.46)" fill="#a8a8a8"/>
      <path id="Path_14297-3" data-name="Path 14297" d="M651.523,510.194a12.739,12.739,0,1,1,12.74,12.739A12.738,12.738,0,0,1,651.523,510.194Z" transform="translate(-636.61 -482.542)" fill="#e2e2e2"/>
    </g>
    <path id="Path_15392" data-name="Path 15392" d="M2187.857,4864.946s-.316,7.274,1.657,8.673,12.78,2.057,12.78,2.057l-5.693-10.73Z" transform="translate(-1470.336 340.355)" fill="#444346"/>
    <rect id="Rectangle_380" data-name="Rectangle 380" width="437" height="180" transform="translate(321 5080)" fill="none"/>
  </g>
</svg>
