<svg id="illust-car-y" xmlns="http://www.w3.org/2000/svg" xmlns:xlink="http://www.w3.org/1999/xlink" width="336.987" height="130.413" viewBox="0 0 336.987 130.413">
  <defs>
    <linearGradient id="linear-gradient" x1="0.5" y1="-0.069" x2="0.5" y2="0.465" gradientUnits="objectBoundingBox">
      <stop offset="0" stop-color="#ffd52b"/>
      <stop offset="1" stop-color="#fb0"/>
    </linearGradient>
  </defs>
  <path id="Path_104" data-name="Path 104" d="M436.18,79.86s-16.136.927-17.446,1.146a1.644,1.644,0,0,0-.437,2.984c1.236.945,5.384,4.219,5.384,4.219Z" transform="translate(-374.984 -75.527)" fill="#ff8c00"/>
  <path id="Path_105" data-name="Path 105" d="M596.6,177.819c0,4.652-1.02,9.891-6.985,10.909a190.34,190.34,0,0,1-21.248,2.038H279.786c-5.531,0-13.681-4.657-17.318-10.915S259.7,168.645,259.7,162.97s6.112-12.806,6.112-15.57V127.9c0-2.911,3.571-8.148,7.75-11.788s36.053-31.87,45.221-34.053,92.555-4.949,103.18-4.657,18.918,5.094,20.956,5.967,58.792,33.325,60.1,33.762,35.073,6.112,50.79,10.041,26.638,5.815,35.216,16.445C595.725,151.91,596.6,167.346,596.6,177.819Z" transform="translate(-259.611 -77.379)" fill="#fb0"/>
  <path id="Path_106" data-name="Path 106" d="M585.946,113.391a34.709,34.709,0,0,1,3.084,3.348c6.7,8.3,7.569,23.731,7.569,34.2,0,4.652-1.02,9.891-6.985,10.909a190.34,190.34,0,0,1-21.248,2.038H279.786c-5.531,0-13.681-4.657-17.318-10.915s-2.765-11.206-2.765-16.882,6.112-12.806,6.112-15.57v-7.132Z" transform="translate(-259.611 -50.502)" fill="url(#linear-gradient)"/>
  <g id="Group_27" data-name="Group 27" transform="translate(63.212 6.629)">
    <path id="Path_107" data-name="Path 107" d="M337.351,115.137a1.792,1.792,0,0,1-1.593-1.5c-.162-.6-5.145-29.305-5.309-30.288s-.692-2.174.547-2.171v-.007c6.971.014,13.51.077,18.789.159,3.056.047,15.5,2.619,23.247,6.877s31,19.754,34.818,22.81,3.164,8.405-3.711,8.405c-3.241,0-34.492-2.085-66.788-4.289Z" transform="translate(-259.665 -81.175)" fill="#4f4f4f"/>
    <path id="Path_108" data-name="Path 108" d="M378.43,106c1.746-4.692,12.031-20.82,18.881-22.7,5.569-1.53,25.377-2.038,44.313-2.115h0c.819,0,1.2.641,1.31,1.57s1.965,28.923,1.91,30.232a1.237,1.237,0,0,1-1.2,1.311c-31.98-2.193-61.607-4.258-62.272-4.258A3.039,3.039,0,0,1,378.43,106Z" transform="translate(-378.246 -81.171)" fill="#4f4f4f"/>
  </g>
  <g id="Group_28" data-name="Group 28" transform="translate(8.934 69.511)">
    <path id="Path_109" data-name="Path 109" d="M442.677,117.183a32.893,32.893,0,0,1,31.074,43.876H420.956c-3.082,0-6.977-1.449-10.453-3.814a32.906,32.906,0,0,1,32.174-40.062Z" transform="translate(-409.715 -117.183)" fill="#ff8c00"/>
    <path id="Path_110" data-name="Path 110" d="M276.6,161.059a32.961,32.961,0,1,1,62.146,0Z" transform="translate(-38.961 -117.183)" fill="#ff8c00"/>
    <ellipse id="Ellipse_8" data-name="Ellipse 8" cx="27.941" cy="27.941" rx="27.941" ry="27.941" transform="translate(240.775 5.02)" fill="#404040"/>
    <path id="Path_111" data-name="Path 111" d="M282.654,144.219a19.1,19.1,0,1,0,19.094-19.1A19.1,19.1,0,0,0,282.654,144.219Z" transform="translate(-33.033 -111.257)" fill="#efefef"/>
    <ellipse id="Ellipse_9" data-name="Ellipse 9" cx="27.941" cy="27.941" rx="27.941" ry="27.941" transform="translate(5.021 5.02)" fill="#404040"/>
    <path id="Path_112" data-name="Path 112" d="M417.654,144.219a19.1,19.1,0,1,0,19.094-19.1A19.095,19.095,0,0,0,417.654,144.219Z" transform="translate(-403.786 -111.257)" fill="#efefef"/>
  </g>
  <g id="Group_29" data-name="Group 29" transform="translate(57.835 2.794)">
    <path id="Path_113" data-name="Path 113" d="M342,81.342c5.487-.829,58.6-2.363,72.362-2.363,1.743,0,2.848.021,3.376.066a35.659,35.659,0,0,1,13.391,4.1c.351.2,35.4,20.509,46.527,28.289,11.519,8.054,18.523,13.962,18.631,28.077a99.858,99.858,0,0,1-1.814,19.267,54.9,54.9,0,0,0-1.1,9.261v12.224c0,1.156,0,3.564-3.128,3.564H353.522c-3.447,0-4.277-2-4.364-3.688-.059-1.112-.857-7.326-10.827-20.308-2.3-2.995-4.6-5.793-6.821-8.5-6.692-8.148-12.472-15.184-13.888-22.43-1.629-8.347-2.642-18.265,6.079-30.353C331.824,87.276,336.008,82.245,342,81.342ZM490.245,182.95c2.085,0,2.255-1.219,2.255-2.691V168.035a55.691,55.691,0,0,1,1.109-9.411,99.093,99.093,0,0,0,1.8-19.11c-.108-13.974-7.008-19.5-18.26-27.368-11.1-7.757-46.112-28.044-46.466-28.249a34.663,34.663,0,0,0-13.022-3.982c-.5-.042-1.612-.063-3.3-.063-5.014,0-16.014.281-26.265.55a177.65,177.65,0,0,1,5.368,36.145c.7,1,5.263,8.209,5.573,26.666.227,13.642-.075,24.869-.274,32.3-.086,3.112-.15,5.587-.159,7.439ZM318.477,128.73c1.374,7.031,7.09,13.986,13.709,22.042,2.227,2.712,4.53,5.517,6.839,8.522,9.87,12.858,10.918,19.168,11,20.8.1,1.952,1.214,2.86,3.494,2.86h44.207c.009-1.863.075-4.343.159-7.462.2-7.42.5-18.635.274-32.26-.32-19.225-5.424-26.2-5.476-26.265l-.082-.108-.005-.134a173.148,173.148,0,0,0-5.386-36.294c-20.077.534-41.875,1.292-45.087,1.778-5.656.854-9.743,5.791-17.72,16.85C316.722,109.709,316.44,118.31,318.477,128.73Z" transform="translate(-316.526 -78.979)" fill="#ff8c00"/>
    <path id="Path_114" data-name="Path 114" d="M335.513,113.943a4.668,4.668,0,0,0-1.615.361,14.517,14.517,0,0,1-5.751.8c-3.528,0-23.135-3.311-29.062-4.326-25.147-4.308-25.271-4.733-25.348-5.014-.231-.809,2.12-3.4,5.265-5.2l1.346.248a15.73,15.73,0,0,0-5.69,4.556c4.182,1.121,48.295,8.864,53.488,8.864a13.718,13.718,0,0,0,5.454-.751,5.451,5.451,0,0,1,1.881-.412c.76-.024,2.476.127,4.345.327,1.505.437,2.958.891,4.355,1.383C341.323,114.414,336.824,113.878,335.513,113.943Z" transform="translate(-89.669 -62.87)" fill="#ff8c00"/>
  </g>
  <path id="Path_115" data-name="Path 115" d="M371.676,116.884c-1.2.873-3.765.709-5.73-.437s-51.3-32.089-51.953-32.471a1.53,1.53,0,0,1-.328-2.075,7.03,7.03,0,0,1,1.545-1.123l.112.051c1.965.843,54.8,31.041,59.738,33.585C374.15,115.079,372.519,116.271,371.676,116.884Z" transform="translate(-132.011 -74.841)" fill="#4f4f4f"/>
  <path id="Path_116" data-name="Path 116" d="M259.611,140.139V133.88a5.239,5.239,0,0,1,5.239-5.239h4.1c.323,3.879.41,7.642.41,10.92a17.409,17.409,0,0,1-.84,5.817H264.85A5.24,5.24,0,0,1,259.611,140.139Z" transform="translate(67.625 -39.121)" fill="#4f4f4f"/>
  <path id="Path_117" data-name="Path 117" d="M285.631,135.479c-.307-1.914-2.038-11.9-5.749-15.539s-17.318-9.17-18.481-8.66,3.929,10.915,7.057,15.354S286.057,138.154,285.631,135.479Z" transform="translate(48.519 -52.102)" fill="#efefef"/>
  <path id="Path_118" data-name="Path 118" d="M263.927,122.09c.548,3.009,2.557,5.447,4.49,5.447s3.056-2.438,2.509-5.447-2.557-5.449-4.49-5.449S263.381,119.081,263.927,122.09Z" transform="translate(58.627 -48.077)" fill="#ff8c00"/>
  <path id="Path_119" data-name="Path 119" d="M268.826,117.847c.351,1.919,1.633,3.477,2.866,3.477s1.951-1.558,1.6-3.477-1.633-3.475-2.866-3.475S268.477,115.928,268.826,117.847Z" transform="translate(47.668 -49.77)" fill="#e02b61"/>
  <path id="Path_120" data-name="Path 120" d="M452.34,111.047v9.386a5.24,5.24,0,0,1-5.239,5.239H444.59V106.681a4.968,4.968,0,0,1,.117-.873H447.1A5.239,5.239,0,0,1,452.34,111.047Z" transform="translate(-438.386 -56.161)" fill="#ff8c00"/>
  <path id="Path_121" data-name="Path 121" d="M429.631,110.858c2.93-2.55,19.447-17.163,32.228-26.441.351.819.685,2,.114,2.792-.945,1.31-31.652,27-32.962,27.723a3.6,3.6,0,0,1-3.117-.182A32.118,32.118,0,0,1,429.631,110.858Z" transform="translate(-415.677 -72.126)" fill="#4f4f4f"/>
  <path id="Path_122" data-name="Path 122" d="M362.129,105.165h13.1a2.727,2.727,0,0,1,2.728,2.728H359.4A2.727,2.727,0,0,1,362.129,105.165Z" transform="translate(-215.239 -56.641)" fill="#ffcb3d"/>
  <path id="Path_123" data-name="Path 123" d="M375.23,109.455h-13.1a2.727,2.727,0,0,1-2.726-2.728h18.555A2.727,2.727,0,0,1,375.23,109.455Z" transform="translate(-215.239 -55.476)" fill="#ff8c00"/>
  <path id="Path_124" data-name="Path 124" d="M407.13,105.165h13.1a2.728,2.728,0,0,1,2.728,2.728H404.4A2.727,2.727,0,0,1,407.13,105.165Z" transform="translate(-338.821 -56.641)" fill="#ffcb3d"/>
  <path id="Path_125" data-name="Path 125" d="M420.229,109.455h-13.1a2.727,2.727,0,0,1-2.728-2.728h18.555A2.728,2.728,0,0,1,420.229,109.455Z" transform="translate(-338.821 -55.476)" fill="#ff8c00"/>
</svg>
