<svg xmlns="http://www.w3.org/2000/svg" xmlns:xlink="http://www.w3.org/1999/xlink" width="259.315" height="180" viewBox="0 0 259.315 180">
  <defs>
    <linearGradient id="linear-gradient" x1="3.095" y1="0.97" x2="3.095" y2="-0.048" gradientUnits="objectBoundingBox">
      <stop offset="0" stop-color="#c6c6c6"/>
      <stop offset="1" stop-color="#b5b5b5"/>
    </linearGradient>
  </defs>
  <g id="illust-mountain-car-3" transform="translate(-454 -5073)">
    <path id="Path_15289" data-name="Path 15289" d="M2214.807,4845.248l-2.924,6.264h7.363Z" transform="translate(-1757.796 346.079)" fill="#c0c0c1"/>
    <rect id="Rectangle_313" data-name="Rectangle 313" width="17.233" height="49.709" rx="6" transform="translate(696.083 5152.72)" fill="#2b2929"/>
    <path id="Path_15266" data-name="Path 15266" d="M2290.175,4851.5s-56.112,3.828-62.341,7.188-11.245,9.1-12.158,13.458,0,14.145,0,14.145,4.784,10.7,12.158,10.716c2.64.006,5.907.675,5.874-.993.389-2.3,2.2-6.1,5.378-6.889,4.944-1.229,28.2-4.285,34.73,2.485s9.6,16.482,11.076,23.444,5.62,5.73,7.576,5.824,90.264-.048,90.264-.048,6.347,1.149,8.125-7.3,8.6-25.176,17.859-25.1,19.514-.166,24.782,0,8.882,5.182,10.333,8.283a112.378,112.378,0,0,0,13.621-.393c1.049-.217,1.31-19.742.84-25.208s-4.461-45.18-7.987-50.788-7.384-6.232-15.429-6.2-103.207.846-111.062.978-12.052,2.193-17.159,10.24S2290.175,4851.5,2290.175,4851.5Z" transform="translate(-1758.938 304.876)" fill="#a1c226"/>
    <path id="Intersection_6" data-name="Intersection 6" d="M5.678,7.871A6.3,6.3,0,0,1,0,4.3C3.108,1.859,6.54,1.059,11.336.978,19.192.847,114.353.032,122.4,0c4.873-.019,8.209.2,10.866,1.627a6.3,6.3,0,0,1-6.3,6.244Z" transform="translate(553.502 5119)" fill="#c7e082"/>
    <path id="Path_15267" data-name="Path 15267" d="M2421.875,4837.179l-67.945.635s-20.035,38.517-20.786,41.542,0,28.288,0,28.288,2.077,9.07,2.847,10.663,1.044,3.229,5.881,3.217,62.893.093,65.916,0,12.539.316,14.011-13.88S2421.875,4837.179,2421.875,4837.179Z" transform="translate(-1798.574 297.102)" fill="none" stroke="#80a203" stroke-width="3"/>
    <g id="Group_4973" data-name="Group 4973" transform="translate(530.609 5128.387)">
      <path id="Path_15270" data-name="Path 15270" d="M2345.587,4828.287s4.609,1.8,4.15,2.813-15.444,29.622-16.21,30.511a3.307,3.307,0,0,1-4.624.655c-2.092-1.469-1.751-4.588-.9-6.281S2345.587,4828.287,2345.587,4828.287Z" transform="translate(-2327.338 -4828.287)" fill="#eaeaea"/>
      <path id="Intersection_3" data-name="Intersection 3" d="M1.564,33.979C-.527,32.51-.186,29.391.66,27.7c.029-.057.075-.142.139-.252a5.353,5.353,0,0,1,.01,1.559C.3,33.775,3.56,33.223,5,32.188S21.259,3.2,21.259,2.5,17.975.6,17.885.564L18.248,0s4.609,1.8,4.15,2.814S6.954,32.436,6.188,33.325A3.657,3.657,0,0,1,3.531,34.66,3.392,3.392,0,0,1,1.564,33.979Z" transform="translate(0 0)" fill="#232326"/>
    </g>
    <path id="Path_15271" data-name="Path 15271" d="M2535.444,4828.859c-.062,1.484-.935,5.5-7,5.475s-61.365,0-61.365,0" transform="translate(-1843.849 299.907)" fill="none" stroke="#80a21d" stroke-linecap="round" stroke-width="3"/>
    <g id="Group_4974" data-name="Group 4974" transform="translate(545.08 5138.565)">
      <path id="Path_15275" data-name="Path 15275" d="M2415.962,4843.973c-4.016.123-46.757,0-46.757,0s-4.591-.9-7.249,4.145S2349.809,4871,2349.809,4871s-2.273,4.576,1.762,4.464,20.347.015,21.17,0,4.6-2.6,6.7-2.689,34.851-.007,36.188,0a4.778,4.778,0,0,0,4.585-4.13c.516-3.184.8-19.428.879-20.531S2419.978,4843.851,2415.962,4843.973Z" transform="translate(-2349.171 -4843.911)" fill="#eaeaea"/>
      <path id="Intersection_1" data-name="Intersection 1" d="M.638,25.7l1.45-2.727.48-.609s19.323.111,21.668,0,6.245-2.833,8.35-2.7,24,0,28.477,0,8.676-.64,8.676-3.186V.352L70.623,0a4.059,4.059,0,0,1,1.3,2.817c-.078,1.1-.363,17.348-.879,20.531a4.778,4.778,0,0,1-4.585,4.13c-1.337-.007-34.083-.089-36.188,0s-5.88,2.674-6.7,2.689c-.307.005-2.76-.009-5.927-.023C12.3,30.12,4.933,30.1,2.4,30.167l-.144,0C-1.58,30.169.638,25.7.638,25.7Z" transform="translate(0 1.567)" fill="#232326" stroke="#232326" stroke-width="1"/>
    </g>
    <g id="Group_4975" data-name="Group 4975" transform="translate(630.829 5138.695)">
      <path id="Path_15269" data-name="Path 15269" d="M2519.938,4843.887c-2.328-.108-31.08,0-34.612,0s-6.317.862-6.651,4.6.086,19.315.066,20.166a3.724,3.724,0,0,0,3.844,3.734c3.378.2,38.066.053,39.578.036a4.4,4.4,0,0,0,4.047-4.357c.208-3.04-.968-18.7-1.082-20.76S2522.267,4843.995,2519.938,4843.887Z" transform="translate(-2478.547 -4843.839)" fill="#eaeaea"/>
      <path id="Intersection_2" data-name="Intersection 2" d="M3.935,28.43A3.725,3.725,0,0,1,.09,24.7C.1,24.4.05,22.269,0,19.476c5.02.013,27.664.067,34.826,0,8.072-.078,8.377-.307,8.676-3.784C43.782,12.408,42.176,1.248,41.994,0c2.144.3,4.381,1.491,4.484,3.349.113,2.064,1.289,17.72,1.081,20.76a4.395,4.395,0,0,1-4.047,4.356c-.915.01-13.987.069-24.912.069C11.478,28.535,5.268,28.51,3.935,28.43Z" transform="translate(0 0.114)" fill="#232326"/>
    </g>
    <g id="Rectangle_314" data-name="Rectangle 314" transform="translate(603.292 5175.255)" fill="#a1c226" stroke="#80a21d" stroke-width="3">
      <path d="M3.977,0H9.942a3.977,3.977,0,0,1,3.977,3.977v0A1.988,1.988,0,0,1,11.93,5.965H1.988A1.988,1.988,0,0,1,0,3.977v0A3.977,3.977,0,0,1,3.977,0Z" stroke="none"/>
      <path d="M3.971,1.5H9.948a2.471,2.471,0,0,1,2.471,2.471v0a.494.494,0,0,1-.494.494H1.994A.494.494,0,0,1,1.5,3.971v0A2.471,2.471,0,0,1,3.971,1.5Z" fill="none"/>
    </g>
    <path id="Intersection_5" data-name="Intersection 5" d="M.406,17.759s-.913-9.789,0-14.145A12.182,12.182,0,0,1,1.9,0,48.519,48.519,0,0,0,5.016,4.412c1.494,1.72.873,13.182.891,14.133a9.33,9.33,0,0,1-2.485,4.181A28.315,28.315,0,0,1,.406,17.759Z" transform="translate(456.331 5173.075)" fill="#232326"/>
    <path id="Path_15293" data-name="Path 15293" d="M2256.3,4761.109s-8.758,1.565-10.8,6.886-1.788,5.672-6.247,5.739-53.065,0-53.065,0,1.614-3.728,7.408-4.483,44.615-5.483,48.587-4.35,3.835,1.37,3.835,1.37-2.432-8.53-2.441-9.884" transform="translate(-1722.061 401.937)" fill="none" stroke="#80a21d" stroke-linecap="round" stroke-width="3"/>
    <path id="Path_15294" data-name="Path 15294" d="M2631.375,4755.688c2.556-3.875,50.859-7.187,53.774-6.616" transform="translate(-2165.695 418.299)" fill="none" stroke="#c7e082" stroke-linecap="round" stroke-width="3"/>
    <path id="Path_15295" data-name="Path 15295" d="M2506.575,4814.545s-4.246-9.247-8.494-11.5c-1.355-.72-3.931-2.1-9.778-2.15s-24.111,0-24.111,0" transform="translate(-1817.029 385.61)" fill="none" stroke="#c7e082" stroke-linecap="round" stroke-width="4"/>
    <path id="Path_15297" data-name="Path 15297" d="M2508.074,4809.989s-6.127-9.476-13.271-10.514-19.825,0-19.825,0" transform="translate(-1982.512 387.292)" fill="none" stroke="#c7e082" stroke-linecap="round" stroke-width="4"/>
    <path id="Subtraction_1" data-name="Subtraction 1" d="M183.358,45.752h0c-1.054,0-108.719-.085-116.6-.085-3.009,0-4.119-4.963-5.524-11.246-1.172-5.24-2.5-11.178-5.261-15.925a17.121,17.121,0,0,0-5.357-5.9,14.157,14.157,0,0,0-3.762-1.741,17.137,17.137,0,0,0-4.638-.669l-.446,0A26.732,26.732,0,0,0,28.6,13.4a25.576,25.576,0,0,0-8,7.076,31.552,31.552,0,0,0-3.972,7.076,23.762,23.762,0,0,0-1.072,3.216l-.01,0c-.419.044-2.631.262-5.077.262a25.558,25.558,0,0,1-3.979-.264,7.761,7.761,0,0,1-4.465-2.107A7.485,7.485,0,0,1,.111,23.723c-.248-4.284,0-17.79,0-17.926l7.741.284C10.2,8.438,12.636,9.636,15.1,9.642c.6,0,1.229.037,1.84.071s1.188.067,1.723.067A2.949,2.949,0,0,0,20.739,9.3a.858.858,0,0,0,.239-.652c.38-2.241,2.175-6.094,5.377-6.889A88.7,88.7,0,0,1,43.881,0,48.651,48.651,0,0,1,53.928.9c3.289.709,5.7,1.835,7.158,3.349A38.27,38.27,0,0,1,68.519,15.9,63.953,63.953,0,0,1,72.161,27.69c.506,2.389,1.352,4,2.585,4.919a5.3,5.3,0,0,0,3.3.935c.259,0,.508-.008.763-.018h.041c.225-.008.437-.016.634-.016.1,0,.18,0,.258.006.447.021,5.443.032,14.848.032,24.75,0,73.32-.077,75.376-.08H170a4.8,4.8,0,0,0,.763.052c1.748,0,5.966-.717,7.363-7.355a53.591,53.591,0,0,1,2.232-7.478,53.658,53.658,0,0,1,3.872-8.233A26.548,26.548,0,0,1,189.5,3.8a9.868,9.868,0,0,1,6.422-2.736h.064c1.258.01,2.578.015,4.038.015,2.731,0,5.448-.018,8.224-.037l.382,0h.012c2.5-.018,4.864-.035,6.963-.035,2.234,0,3.875.019,5.164.059a9.959,9.959,0,0,1,6.6,3.041A18.272,18.272,0,0,1,231.1,9.348c.6.058,1.527.088,2.762.088,3.027,0,7.327-.181,9.574-.348a7.517,7.517,0,0,1,3.259,1.248,5.305,5.305,0,0,1,1.049,3.1,33.379,33.379,0,0,1,.133,4.9,71.258,71.258,0,0,1-.664,7.524c-.133.761-1.8,2.168-3.312,3.231a13.733,13.733,0,0,1-4.324,2.283,2.249,2.249,0,0,1-.238.013,4.448,4.448,0,0,1-2.782-1.466,1.269,1.269,0,0,1-1.082.538,4.772,4.772,0,0,1-2.953-1.707,37.268,37.268,0,0,1-5.379-7.547,20.314,20.314,0,0,0-8.466-8.176,23.667,23.667,0,0,0-10.744-2.354,36.106,36.106,0,0,0-6.934.71,46.781,46.781,0,0,0-6.737,1.877c-2.611.936-4.808,3.227-6.532,6.808a41.889,41.889,0,0,0-3.212,10.976,89.935,89.935,0,0,0-1.161,14.7Z" transform="translate(454 5191.326)" fill="#343434"/>
    <g id="wheel" transform="translate(635 5198.635)">
      <path id="Path_14293" data-name="Path 14293" d="M0,27.154A27.153,27.153,0,1,1,27.151,54.308,27.153,27.153,0,0,1,0,27.154Z" transform="translate(0 0)" fill="#26231f"/>
      <path id="Path_14294" data-name="Path 14294" d="M0,25.64A25.641,25.641,0,1,1,25.64,51.282,25.641,25.641,0,0,1,0,25.64Z" transform="translate(1.512 1.513)" fill="#3f3932"/>
      <path id="Path_14295" data-name="Path 14295" d="M0,20.346A20.346,20.346,0,1,1,20.346,40.692,20.346,20.346,0,0,1,0,20.346Z" transform="translate(6.807 6.808)" fill="url(#linear-gradient)"/>
      <path id="Path_14296" data-name="Path 14296" d="M0,17.227A17.227,17.227,0,1,1,17.228,34.454,17.228,17.228,0,0,1,0,17.227Z" transform="translate(9.926 9.927)" fill="#a8a8a8"/>
      <path id="Path_14297" data-name="Path 14297" d="M0,12.509A12.509,12.509,0,1,1,12.51,25.019,12.509,12.509,0,0,1,0,12.509Z" transform="translate(14.644 14.645)" fill="#e2e2e2"/>
    </g>
    <g id="wheel-2" data-name="wheel" transform="translate(468.828 5198.635)">
      <path id="Path_14293-2" data-name="Path 14293" d="M0,27.154A27.153,27.153,0,1,1,27.151,54.308,27.153,27.153,0,0,1,0,27.154Z" transform="translate(0 0)" fill="#26231f"/>
      <path id="Path_14294-2" data-name="Path 14294" d="M0,25.64A25.641,25.641,0,1,1,25.64,51.282,25.641,25.641,0,0,1,0,25.64Z" transform="translate(1.512 1.513)" fill="#3f3932"/>
      <path id="Path_14295-2" data-name="Path 14295" d="M0,20.346A20.346,20.346,0,1,1,20.346,40.692,20.346,20.346,0,0,1,0,20.346Z" transform="translate(6.807 6.808)" fill="url(#linear-gradient)"/>
      <path id="Path_14296-2" data-name="Path 14296" d="M0,17.227A17.227,17.227,0,1,1,17.228,34.454,17.228,17.228,0,0,1,0,17.227Z" transform="translate(9.926 9.927)" fill="#a8a8a8"/>
      <path id="Path_14297-2" data-name="Path 14297" d="M0,12.509A12.509,12.509,0,1,1,12.51,25.019,12.509,12.509,0,0,1,0,12.509Z" transform="translate(14.644 14.645)" fill="#e2e2e2"/>
    </g>
    <rect id="Rectangle_379" data-name="Rectangle 379" width="259" height="180" transform="translate(454 5073)" fill="none"/>
  </g>
</svg>
