<svg xmlns="http://www.w3.org/2000/svg" xmlns:xlink="http://www.w3.org/1999/xlink" width="104.152" height="83.932" viewBox="0 0 104.152 83.932">
  <defs>
    <linearGradient id="linear-gradient" x1="0.337" y1="0.843" x2="1.026" y2="-0.486" gradientUnits="objectBoundingBox">
      <stop offset="0" stop-color="#fff"/>
      <stop offset="0.126" stop-color="#fafafa"/>
      <stop offset="0.267" stop-color="#ededed"/>
      <stop offset="0.413" stop-color="#d6d6d6"/>
      <stop offset="0.565" stop-color="#b7b7b7"/>
      <stop offset="0.718" stop-color="#909090"/>
      <stop offset="0.863" stop-color="#646464"/>
    </linearGradient>
    <linearGradient id="linear-gradient-2" x1="0.381" y1="0.818" x2="1.309" y2="-0.083" xlink:href="#linear-gradient"/>
    <linearGradient id="linear-gradient-3" x1="0.425" y1="0.62" x2="1.349" y2="-0.09" gradientUnits="objectBoundingBox">
      <stop offset="0" stop-color="#fff"/>
      <stop offset="0.083" stop-color="#f8f8f8"/>
      <stop offset="0.2" stop-color="#e6e6e6"/>
      <stop offset="0.337" stop-color="#c7c7c7"/>
      <stop offset="0.489" stop-color="#9d9d9d"/>
      <stop offset="0.653" stop-color="#686868"/>
      <stop offset="0.665" stop-color="#646464"/>
    </linearGradient>
    <linearGradient id="linear-gradient-4" x1="0.459" y1="0.747" x2="1.559" y2="-0.107" gradientUnits="objectBoundingBox">
      <stop offset="0.242" stop-color="#fff"/>
      <stop offset="0.303" stop-color="#f8f8f8"/>
      <stop offset="0.389" stop-color="#e6e6e6"/>
      <stop offset="0.489" stop-color="#c7c7c7"/>
      <stop offset="0.602" stop-color="#9d9d9d"/>
      <stop offset="0.722" stop-color="#686868"/>
      <stop offset="0.731" stop-color="#646464"/>
    </linearGradient>
    <linearGradient id="linear-gradient-5" x1="0.516" y1="1.244" x2="0.485" y2="-0.342" xlink:href="#linear-gradient-3"/>
  </defs>
  <g id="Group_5169" data-name="Group 5169" transform="translate(-336.46 -23.875)">
    <path id="Path_15444" data-name="Path 15444" d="M397.357,27.18a4.062,4.062,0,0,1,1.775-1.685,7.619,7.619,0,0,0-2.462-.2c-.125.052-.835-1.06-.917-.929-.3-.493-.526.266-.745.289-.4.045-3.348,1.175-3.348,1.175s.309.741.355.92a5.61,5.61,0,0,0,2.594,2.121c.842.352,2.173,2.22,2.482,2.575a23.357,23.357,0,0,0,1.464-2.353,9.472,9.472,0,0,1-.843-1.063C397.4,27.536,397.241,27.5,397.357,27.18Z" transform="translate(7.667 0.02)" fill="#ddac9e"/>
    <path id="Path_15445" data-name="Path 15445" d="M412.032,38.057c-4.009-.051-14.352-10.32-14.352-10.32l-1.78,4.15,5.772,7,8.305,6.88Z" transform="translate(8.734 0.244)" fill="#bfb8b8"/>
    <g id="Group_5151" data-name="Group 5151" transform="translate(366.03 48.134)">
      <path id="Path_15446" data-name="Path 15446" d="M373.978,96.355a1.965,1.965,0,0,1-1.935,2h-10a1.966,1.966,0,0,1-1.935-2V78.4a1.967,1.967,0,0,1,1.935-1.99h10a1.966,1.966,0,0,1,1.935,1.99Z" transform="translate(-358.104 -44.818)"/>
      <path id="Path_15447" data-name="Path 15447" d="M427.985,96.355a1.969,1.969,0,0,1-1.935,2h-10a1.969,1.969,0,0,1-1.935-2V78.4a1.967,1.967,0,0,1,1.935-1.99h10a1.967,1.967,0,0,1,1.935,1.99Z" transform="translate(-354.695 -44.818)" fill="#232121"/>
      <path id="Path_15448" data-name="Path 15448" d="M428.2,65.107a15.924,15.924,0,0,0-3.84-1.434c-1.613-4.043-4.931-12.967-7.2-13.857-4.884-1.91-17.175-2.965-20.613-3.122h-1.352c-3.436.157-15.934,1.212-20.821,3.122-2.272.89-5.588,9.814-7.2,13.857a15.754,15.754,0,0,0-3.837,1.434c-1.4,1.107-4.685,3.543-3.8,11.189.535,4.62,2.557,15.843,2.557,15.843H427.11s3.846-10.633,3.846-15.843C430.956,68.317,429.6,66.214,428.2,65.107Zm-32.437-4.921a105.32,105.32,0,0,0-24.889,2.537c1.572-3.976,3.968-9.8,5.69-10.472,4.385-1.715,15.616-2.629,18.7-2.768h1.213c3.082.139,14.1,1.054,18.483,2.768,1.725.675,4.117,6.5,5.693,10.472A105.152,105.152,0,0,0,395.764,60.186Z" transform="translate(-358.15 -46.694)" fill="#bfb8b8"/>
      <path id="Path_15449" data-name="Path 15449" d="M427.128,58.148l-3.308-.55c-1.638-.273-3.135.612-3.224,2.016a1.43,1.43,0,0,1-.649.86l-1.817.4a1.031,1.031,0,0,0-.769,1.218c.117.553,1,1.329,1.534,1.215l2.6-.571c.6.689,1.263.674,2.327.6l3.308-.225a2.042,2.042,0,0,0,1.945-2v-.776A2.3,2.3,0,0,0,427.128,58.148Z" transform="translate(-354.492 -46.009)" fill="#d8d8d8"/>
      <path id="Path_15450" data-name="Path 15450" d="M360.169,58.148l3.3-.55c1.642-.273,3.139.612,3.231,2.016a1.444,1.444,0,0,0,.651.86l1.816.4a1.021,1.021,0,0,1,.762,1.218c-.112.553-.779,1.344-1.318,1.227l-2.6-.57c-.6.687-1.472.661-2.542.591l-3.3-.225a2.04,2.04,0,0,1-1.946-2v-.776A2.3,2.3,0,0,1,360.169,58.148Z" transform="translate(-358.223 -46.009)" fill="#bfb8b8"/>
      <g id="Group_5146" data-name="Group 5146" transform="translate(37.728)">
        <path id="Path_15451" data-name="Path 15451" d="M427.234,92.139s2.1-10.334,2.681-15.843c.811-7.81-2.4-10.083-3.8-11.189a15.8,15.8,0,0,0-3.841-1.434c-1.608-4.043-4.93-12.967-7.2-13.857-4.886-1.91-17.172-2.965-20.611-3.122h-.747v2.789h.681c3.083.139,14.1,1.054,18.488,2.768,1.72.675,4.11,6.494,5.685,10.472a105.3,105.3,0,0,0-24.854-2.537V92.139h33.523Z" transform="translate(-393.711 -46.694)" fill="#d8d8d8"/>
      </g>
      <g id="Group_5147" data-name="Group 5147" transform="translate(17.224 36.249)" style="mix-blend-mode: multiply;isolation: isolate">
        <path id="Path_15452" data-name="Path 15452" d="M380.551,86.774h28.528a6.27,6.27,0,0,0,6.125-5.983H374.424A6.28,6.28,0,0,0,380.551,86.774Z" transform="translate(-374.424 -80.791)" fill="#bfb8b8"/>
      </g>
      <g id="Group_5148" data-name="Group 5148" transform="translate(22.289 23.952)" style="mix-blend-mode: multiply;isolation: isolate">
        <path id="Path_15453" data-name="Path 15453" d="M379.956,72.24c-1.113-1.938-1.113-3.016.66-3.016h29.035c2.1.084,1.582,1.338.785,2.972l-.769,1.589a4.743,4.743,0,0,1-4.022,2.971H384.565a4.578,4.578,0,0,1-3.932-3.015Z" transform="translate(-379.189 -69.224)" fill="#bfb8b8"/>
      </g>
      <g id="Group_5149" data-name="Group 5149" transform="translate(3.991 21.468)">
        <path id="Path_15454" data-name="Path 15454" d="M376.224,72.527c.028,1.166-2.337,1.206-3.672,1.206h-8.158a2.452,2.452,0,0,1-2.417-2.489v-.829c0-1.372.778-1.74,2.368-2.28l6.909-1.246c2.945-.04,5.023,3.436,5.023,4.812Z" transform="translate(-361.977 -66.888)" fill="#bfb8b8" style="mix-blend-mode: multiply;isolation: isolate"/>
        <path id="Path_15455" data-name="Path 15455" d="M375.443,72.37c0,1.254-2.176,1.1-3.39,1.1h-7.422a2.232,2.232,0,0,1-2.2-2.261v-.759c0-1.248.711-1.582,2.152-2.076l6.287-1.134c2.683-.034,4.573,3.128,4.573,4.379Z" transform="translate(-361.948 -66.866)" fill="#bfb8b8"/>
      </g>
      <g id="Group_5150" data-name="Group 5150" transform="translate(57.379 21.468)">
        <path id="Path_15456" data-name="Path 15456" d="M412.249,72.527c-.031,1.166,2.336,1.206,3.673,1.206h8.161a2.451,2.451,0,0,0,2.412-2.489v-.829c0-1.372-.779-1.74-2.365-2.28l-6.91-1.246c-2.948-.04-5.024,3.436-5.024,4.812Z" transform="translate(-412.195 -66.888)" fill="#bfb8b8" style="mix-blend-mode: multiply;isolation: isolate"/>
        <path id="Path_15457" data-name="Path 15457" d="M412.955,72.37c0,1.254,2.174,1.1,3.387,1.1h7.424a2.232,2.232,0,0,0,2.2-2.261v-.759c0-1.248-.712-1.582-2.153-2.076l-6.287-1.134c-2.681-.034-4.568,3.128-4.568,4.379Z" transform="translate(-412.147 -66.866)" fill="#d8d8d8"/>
      </g>
    </g>
    <g id="Group_5153" data-name="Group 5153" transform="translate(419.143 24.781)">
      <path id="Path_15458" data-name="Path 15458" d="M414.651,30.37c-.1.962,1.068,4.154,1.673,5.492s.52,1.495.52,1.495l-4.79,4.422s.225-5.762-1.4-6.491C409.65,34.841,414.651,30.37,414.651,30.37Z" transform="translate(-408.035 -24.371)" fill="#e8c8ba"/>
      <g id="Group_5152" data-name="Group 5152" transform="translate(2.426 9.183)">
        <path id="Path_15459" data-name="Path 15459" d="M410.551,34.832c-.24-.19.056-.744.478-1.317l.332-.15,2.6,5.912-1.19,1.023-.765-.986S412.162,36.1,410.551,34.832Z" transform="translate(-410.465 -33.365)" fill="#e8c8ba"/>
      </g>
      <path id="Path_15460" data-name="Path 15460" d="M408.2,30.482c-.165,2.78,1.284,5.81,2.69,5.9s4.6-2.178,4.766-4.954-1.561-5.317-4.214-5.071C408.54,26.623,408.365,27.707,408.2,30.482Z" transform="translate(-408.183 -24.626)" fill="#e8c8ba"/>
      <path id="Path_15461" data-name="Path 15461" d="M408.671,26.044c-.663,1.193-.572,2.023.073,2.151s1.294.117,1.708.534c.385.392,1.093.538,1.387.8s-.15-1.113-.15-1.113l.433,1.077.011-1.009.155.532.954.857.118,1.432.652.577.3-1.025.391,1.762,1.242,2.289a29.717,29.717,0,0,0,1.162-2.807,5.612,5.612,0,0,0,.257-1.918,16.345,16.345,0,0,0,.034-1.68,3.016,3.016,0,0,0-1.09-2.2c-.5-.208-.793-.357-1.067-.257s-.231-.491-.957-.763a4.772,4.772,0,0,0-1.767-.525,5.268,5.268,0,0,0-2.738.461A3.245,3.245,0,0,0,408.671,26.044Z" transform="translate(-408.181 -24.727)" fill="#300901"/>
    </g>
    <path id="Path_15462" data-name="Path 15462" d="M421.774,102.22l.984.1s3.3-.265,1.673-2.46a13.2,13.2,0,0,1-1.836-4.188c-.26-.848-3.332-.056-3.332-.056s.8,2.392.4,3.183C417.934,102.22,421.774,102.22,421.774,102.22Z" transform="translate(11.657 4.507)" fill="#232121"/>
    <path id="Path_15463" data-name="Path 15463" d="M410.708,94.86c-.355,1.421.462,2.785-1.834,3.606-1.058.378-2.785,1.15-2.623,2.214.224,1.448,3.391.929,3.391.929a24.223,24.223,0,0,1,4.617-1.425c1.066,0,.637-2.893.282-4.316S410.708,94.86,410.708,94.86Z" transform="translate(9.765 4.477)"/>
    <g id="Group_5155" data-name="Group 5155" transform="translate(418.027 36.824)">
      <path id="Path_15464" data-name="Path 15464" d="M416.774,36.145c1.706.528,5.005,1.249,5.4,1.906s-1.638,6.693-1.9,8.532S407.8,48.552,407.8,48.552l-.668-5.846s.466-4.056.87-4.269a17.647,17.647,0,0,1,3.949-1.451c.292,1.377.05,1.819.64,2.412S416.774,36.145,416.774,36.145Z" transform="translate(-407.133 -36.049)" fill="#bfb8b8"/>
      <g id="Group_5154" data-name="Group 5154" transform="translate(3.341)">
        <path id="Path_15465" data-name="Path 15465" d="M416.527,36.055c1.707.525,4.722,1.178,5.117,1.832s-1.308,5.156-1.244,9.358c.018,1.214-6.489,1.031-10.124,1.217.485-3.672,1.408-8.234,1.72-9.4C413.329,39.794,416.527,36.055,416.527,36.055Z" transform="translate(-410.276 -36.055)" fill="#d8d8d8"/>
      </g>
    </g>
    <path id="Path_15466" data-name="Path 15466" d="M411.348,37.186c-1.05,1.444-2.29,6.708-2.29,6.708h-1.051s.414-4.416,2.392-6.469A.952.952,0,0,1,411.348,37.186Z" transform="translate(9.701 0.838)" fill="#4d87db"/>
    <path id="Path_15467" data-name="Path 15467" d="M407.937,42.811a65.36,65.36,0,0,0,7.326.322c0-.526,2.9-5.218,3.591-6.153l.839.1s-2.069,4.986-2.069,6.3,3.382,2.3,3.447,2.494c.209.625-.917,7.483-1.05,8.928a9.2,9.2,0,0,0,.053,1.36c2.188,5.275,2.3,15.1,2.631,18.814.427,4.864,4.273,24.459,1.518,26.59l-4.334-.163s-3.324-15.036-3.69-16.482S413.828,70.1,413.828,70.1s1.275,12.389,1.66,15.422c1.708,13.39-.559,15.427-.559,15.427l-4.883-.167S408.305,86.4,407.9,82.788a182.385,182.385,0,0,1-.824-26.311A56.06,56.06,0,0,1,407.937,42.811Z" transform="translate(10.88 0.827)" fill="#3357bc"/>
    <g id="Group_5156" data-name="Group 5156" transform="translate(426.144 37.412)">
      <path id="Path_15468" data-name="Path 15468" d="M414.768,43.131c0-.523,2.954-5.587,3.641-6.523l1.429.4s-2.709,5.062-2.709,6.373,3.382,2.3,3.447,2.5c.209.622-.917,7.481-1.05,8.928a9.247,9.247,0,0,0,.053,1.362c2.188,5.273,2.3,15.094,2.631,18.81.427,4.862,4.273,24.461,1.518,26.595l-1.616-.252S417,59.728,416.653,55.884C416.18,50.665,414.768,43.131,414.768,43.131Z" transform="translate(-414.768 -36.608)" fill="#4d87db"/>
    </g>
    <g id="Group_5157" data-name="Group 5157" transform="translate(357.953 25.162)">
      <path id="Path_15469" data-name="Path 15469" d="M419.338,49.8,412,28.448a5.1,5.1,0,0,0-5.142-3.093H363.411a5.106,5.106,0,0,0-5.144,3.093L351.355,49.8c-.779,1.809-.1,3.342,1.522,3.8,1.9,1.294,15.71,2.3,33.543,2.3,17.894,0,29.865-1.013,31.441-2.31C419.447,53.109,420.111,51.588,419.338,49.8Z" transform="translate(-350.6 -25.069)" fill="#d8d8d8" opacity="0.5"/>
      <path id="Path_15470" data-name="Path 15470" d="M363.668,55.821c-5.864-.428-9.674-.92-10.943-1.665h0a2.809,2.809,0,0,1-2.1-2.761h0a4,4,0,0,1,.343-1.571h0L357.9,28.437a5.543,5.543,0,0,1,5.54-3.351H406.88a5.546,5.546,0,0,1,5.546,3.38h0L419.765,49.8a4.076,4.076,0,0,1,.349,1.593h0a2.806,2.806,0,0,1-2.04,2.745h0c-1.152.773-4.419,1.243-9.755,1.677h0c-5.442.416-12.916.671-21.873.671h0c-8.925,0-16.844-.252-22.777-.667ZM358.7,28.738l-6.926,21.39a3.209,3.209,0,0,0-.289,1.267h0a1.949,1.949,0,0,0,1.535,1.953h0l.062.017.061.038c.693.523,4.711,1.17,10.584,1.56h0c5.9.414,13.81.664,22.718.664h0c8.939,0,16.4-.253,21.807-.669h0c5.377-.385,8.854-1.057,9.362-1.544h0l.065-.056.085-.024a1.936,1.936,0,0,0,1.489-1.939h0a3.2,3.2,0,0,0-.287-1.269h0l.4-.169-.407.139-7.33-21.319c-.879-2.005-2.482-2.812-4.746-2.832H363.435c-2.265.02-3.872.827-4.734,2.793Z" transform="translate(-350.626 -25.086)" fill="#414e5b"/>
    </g>
    <path id="Path_15471" data-name="Path 15471" d="M396.648,26.787l-1.581,2.235-1.818,2.808-4.192-2.056,3.084-4.825s2.728-1.027,3.2-.475A15.951,15.951,0,0,1,396.648,26.787Z" transform="translate(7.311 0.027)" fill="url(#linear-gradient)" style="mix-blend-mode: multiply;isolation: isolate"/>
    <path id="Path_15472" data-name="Path 15472" d="M395.578,24.1c-1.038-.561-4.141-.051-3.974,1.574s1.8,2.2,2.047,2.012c0,0,.168-.029.094-.151a5.225,5.225,0,0,1-.657-1.243c.875,1.222,1.313,1.429,1.691,1.367s-.708-1.877-.708-1.877,1.126,1.88,1.627,1.589c.313-.181-.782-2.137-.782-2.137s1.291,1.8,1.572,1.584c.438-.335-.73-2.628-.73-2.628Z" transform="translate(7.547)" fill="#e8c8ba"/>
    <path id="Path_15473" data-name="Path 15473" d="M403.778,46.718l-6.327,8.7-12.336.156,14.234-21.588Z" transform="translate(7.28 0.638)" fill="url(#linear-gradient-2)" style="mix-blend-mode: multiply;isolation: isolate"/>
    <path id="Path_15474" data-name="Path 15474" d="M420.887,43.544l-7.75,18.111-5.931-6.881,9.964-13.128Z" transform="translate(10.899 1.122)" fill="url(#linear-gradient-3)" style="mix-blend-mode: multiply;isolation: isolate"/>
    <g id="Group_5160" data-name="Group 5160" transform="translate(406.288 32.231)">
      <path id="Path_15475" data-name="Path 15475" d="M397.857,35.518a2.463,2.463,0,1,0,2.261-2.648A2.465,2.465,0,0,0,397.857,35.518Z" transform="translate(-397.85 -31.664)" fill="#e26713"/>
      <path id="Path_15476" data-name="Path 15476" d="M398.59,44.759a2.464,2.464,0,1,0,2.261-2.651A2.461,2.461,0,0,0,398.59,44.759Z" transform="translate(-397.803 -31.081)" fill="#e26713"/>
      <g id="Group_5158" data-name="Group 5158" transform="translate(1.496)">
        <path id="Path_15477" data-name="Path 15477" d="M399.336,32.421a.679.679,0,0,1,1.35-.111c.021.269-.137.361-.354.489l.394,2.726-.926.072-.041-2.744C399.519,32.762,399.358,32.692,399.336,32.421Z" transform="translate(-399.252 -31.735)" fill="#232121"/>
        <path id="Path_15478" data-name="Path 15478" d="M399.27,37.306c-.074.454.17.87.56.836l1.236-.1c.39-.03.575-.477.441-.916l-.574-1.871a.385.385,0,0,0-.405-.216l-.577.046a.4.4,0,0,0-.37.279Z" transform="translate(-399.256 -31.526)" fill="#c14e00"/>
      </g>
      <g id="Group_5159" data-name="Group 5159" transform="translate(1.899 10.327)">
        <path id="Path_15479" data-name="Path 15479" d="M400.506,47.321a.679.679,0,0,0,1.35-.107c-.021-.268-.191-.335-.425-.424l-.04-2.756-.926.072.392,2.721C400.634,46.954,400.485,47.05,400.506,47.321Z" transform="translate(-399.583 -41.285)" fill="#232121"/>
        <path id="Path_15480" data-name="Path 15480" d="M399.686,42.465c-.145-.441.03-.885.422-.916l1.235-.1c.39-.03.645.382.581.838l-.272,1.938a.381.381,0,0,1-.366.276l-.577.048a.393.393,0,0,1-.408-.217Z" transform="translate(-399.636 -41.449)" fill="#c14e00"/>
      </g>
      <path id="Path_15481" data-name="Path 15481" d="M400.945,37.363c-.218-.416-1.145-.017-1.145-.017s.261,3.3.4,5.017l1.1-.09Z" transform="translate(-397.727 -31.391)" fill="#232121"/>
    </g>
    <path id="Path_15482" data-name="Path 15482" d="M418.518,42.627c-1.023-.294-3.764.385-5.3-.117-3.922-1.282-9.377-3.422-9.858-3.557-.669-.184-1.565-.911-2.146-.939a3.316,3.316,0,0,0-1.654.179c-.528.247-1.348.608-1.147,1.056s.22.389.671.186l.449-.2a1.545,1.545,0,0,0-.8.762c-.212.528.185.51.506.533a1.2,1.2,0,0,0,.641-.182s-.967.123-.854.6.945.309.945.309-.771.475-.327.65a4.076,4.076,0,0,0,1.75-.108,4.756,4.756,0,0,1,2.092-.1c.487.172,7.053,3.733,9.572,4.932.734.348,3.086-.6,3.442-.793C419.348,44.29,418.518,42.627,418.518,42.627Z" transform="translate(10.342 0.891)" fill="#e8c8ba"/>
    <path id="Path_15483" data-name="Path 15483" d="M420.267,37.414c.83-.358,1.817.47,1.9,1.5.394,5.059-2.136,5.7-5.616,7.669a14.8,14.8,0,0,1-3.874,1.03c.475-2.374-.048-4.794-.633-5.378,3.084-.631,7.215-3.421,7.215-3.421Z" transform="translate(11.204 0.849)" fill="#d8d8d8"/>
    <path id="Path_15484" data-name="Path 15484" d="M369.553,48.681l-6.243,7.055-9.251-1.9v-3.8l14.828-16.724Z" transform="translate(2.575 0.596)" fill="url(#linear-gradient-4)" style="mix-blend-mode: multiply;isolation: isolate"/>
    <path id="Path_15485" data-name="Path 15485" d="M370.765,41.1,361.2,54.216s-9.134-.355-9.371-1.778.473-7.354.473-7.354l16.964-4.628Z" transform="translate(2.298 1.047)" fill="url(#linear-gradient-5)" style="mix-blend-mode: multiply;isolation: isolate"/>
    <g id="Group_5168" data-name="Group 5168" transform="translate(336.46 24.212)">
      <path id="Path_15486" data-name="Path 15486" d="M337.478,97.134c-.26,1.038-1.3,4.28,0,5.058s2.562.225,3.21.225,4.991-.712,5.251-1.75-.033-2.5-3.955-2.235c-1.394-.651-.745-1.428-.745-1.428Z" transform="translate(-336.436 -19.596)" fill="#232121"/>
      <path id="Path_15487" data-name="Path 15487" d="M344.248,97.685c-.26,1.037-1.3,4.277,0,5.058s2.559.223,3.209.223,4.764-.031,5.023-1.069.195-3.176-3.726-2.916c-1.394-.65-.746-1.426-.746-1.426Z" transform="translate(-336.009 -19.561)"/>
      <g id="Group_5163" data-name="Group 5163" transform="translate(31.77 8.075)">
        <path id="Path_15488" data-name="Path 15488" d="M371.272,35.385a2.464,2.464,0,1,1-2.463-2.462A2.463,2.463,0,0,1,371.272,35.385Z" transform="translate(-366.344 -31.715)" fill="#e26713"/>
        <path id="Path_15489" data-name="Path 15489" d="M371.272,44.651a2.464,2.464,0,1,1-2.463-2.461A2.463,2.463,0,0,1,371.272,44.651Z" transform="translate(-366.344 -31.13)" fill="#e26713"/>
        <g id="Group_5161" data-name="Group 5161" transform="translate(1.315)">
          <path id="Path_15490" data-name="Path 15490" d="M369.349,32.421a.678.678,0,0,0-1.353,0c0,.267.165.344.39.455l-.177,2.748h.928l-.176-2.742C369.194,32.775,369.349,32.692,369.349,32.421Z" transform="translate(-367.554 -31.787)" fill="#232121"/>
          <path id="Path_15491" data-name="Path 15491" d="M369.85,37.277c.11.451-.1.883-.492.883h-1.24c-.392,0-.613-.433-.514-.883l.424-1.907a.383.383,0,0,1,.386-.249h.579a.4.4,0,0,1,.39.249Z" transform="translate(-367.58 -31.577)" fill="#c14e00"/>
        </g>
        <g id="Group_5162" data-name="Group 5162" transform="translate(1.315 10.407)">
          <path id="Path_15492" data-name="Path 15492" d="M369.349,47.365a.678.678,0,0,1-1.353,0c0-.269.165-.348.39-.457l-.177-2.751h.928l-.176,2.744C369.194,47.007,369.349,47.092,369.349,47.365Z" transform="translate(-367.554 -41.413)" fill="#232121"/>
          <path id="Path_15493" data-name="Path 15493" d="M369.85,42.456c.11-.45-.1-.88-.492-.88h-1.24c-.392,0-.613.431-.514.88l.424,1.909a.383.383,0,0,0,.386.249h.579a.4.4,0,0,0,.39-.249Z" transform="translate(-367.58 -41.576)" fill="#c14e00"/>
        </g>
        <path id="Path_15494" data-name="Path 15494" d="M368.125,37.471c.186-.431,1.14-.1,1.14-.1V42.4h-1.108Z" transform="translate(-366.232 -31.442)" fill="#232121"/>
      </g>
      <path id="Path_15495" data-name="Path 15495" d="M366.17,39.4a9.265,9.265,0,0,1,2.1-1.113c.507-.142,1.554-.326,1.87-.073s.17.462.17.462a.759.759,0,0,1,.28,1.035.682.682,0,0,1-.125.939c.22.262-.187.509-.428.593a14.941,14.941,0,0,1-2.412.306,32,32,0,0,0-2.566,1.956c-.38.226-1.748-3.1-1.748-3.1Z" transform="translate(-334.765 -23.314)" fill="#e8c8ba"/>
      <g id="Group_5166" data-name="Group 5166" transform="translate(6.423)">
        <g id="Group_5165" data-name="Group 5165" transform="translate(0 2.065)">
          <path id="Path_15496" data-name="Path 15496" d="M346.352,30.4c.106,1.016-1.157,4.387-1.813,5.8a26.047,26.047,0,0,1-2.037,3.358l6.655,2.888s-.243-6.085,1.51-6.856C351.754,35.115,346.352,30.4,346.352,30.4Z" transform="translate(-342.502 -25.865)" fill="#ddac9e"/>
          <g id="Group_5164" data-name="Group 5164" transform="translate(4.6 7.531)">
            <path id="Path_15497" data-name="Path 15497" d="M350.514,35.131c.26-.2-.064-.786-.518-1.394l-.765-.519-2.4,6.605,1.284,1.082.826-1.04S348.771,36.473,350.514,35.131Z" transform="translate(-346.829 -33.218)" fill="#e8c8ba"/>
          </g>
          <path id="Path_15498" data-name="Path 15498" d="M353.738,29.968c-.388,3.762-2.049,6.72-3.565,6.809s-4.738-2.337-4.917-5.268,1.686-5.616,4.555-5.358C352.942,26.436,354.041,27.048,353.738,29.968Z" transform="translate(-342.329 -26.134)" fill="#e8c8ba"/>
        </g>
        <path id="Path_15499" data-name="Path 15499" d="M354.362,29.175c-.128-.945-2.457-6.045-6.8-4.784s-4.469,3.148-4.343,5.412,1.068,4.912,1.763,5.479,3.507,1.034,3.507,1.034,1.484-3.173,1.78-3.616c.5-.756,1.766-1.584,1.7-.639s.438.764.438.764l.439.063a12.625,12.625,0,0,1,.882-2.834A6.61,6.61,0,0,0,354.362,29.175Z" transform="translate(-342.459 -24.192)" fill="#300901"/>
      </g>
      <path id="Path_15500" data-name="Path 15500" d="M348.01,38.578c-2.983-.066-3.631-1.944-3.631-1.944a7.631,7.631,0,0,1-1.738.566c-1.31.247-3.991,3.2-2.921,9.03a18.917,18.917,0,0,1,.941,4.407,3.655,3.655,0,0,0,2.68,3.372l1.817-1.815Z" transform="translate(-336.27 -23.406)" fill="#bfb8b8"/>
      <path id="Path_15501" data-name="Path 15501" d="M350.832,46.078c1.2.168,7.827.94,7.827.94a14.768,14.768,0,0,0,8.331-3.672,7.571,7.571,0,0,0-1.15-3.567c-.769.255-5.293,1.954-7,1.867s-4.849-2.143-5.959-2.4-4.1.168-4.27,2.389C348.611,41.638,347.587,44.456,350.832,46.078Z" transform="translate(-335.703 -23.245)" fill="#d8d8d8"/>
      <path id="Path_15502" data-name="Path 15502" d="M353.056,46.056a97.281,97.281,0,0,0-2.765,11.662c-.139,1.014-5.556,1.191-5.629.688-1.622-11.184,2-19.933,2.689-19.933a3.592,3.592,0,0,0,2.013-.651,39.1,39.1,0,0,1,3.889,1.523C353.8,39.621,353.056,46.056,353.056,46.056Z" transform="translate(-335.969 -23.331)" fill="#d8d8d8"/>
      <path id="Path_15503" data-name="Path 15503" d="M349.261,43.919c-5.251.778-9.757,2.586-9.509,3.625-.032,3.948.272,6.967-.11,8.352-.973,3.5-1.725,5.433-1.468,9.839s7.67,27.561,8.15,24.561c.263,2.433-.956,9.685-.336,12.635.06.056,2.75.2,2.75.2,1.5-.288,2.749-6.526,2.984-18.641.374-19.224.967-26.223.967-26.223.284-8.044.459-9.973.459-11.821C353.15,46.449,351.207,47.227,349.261,43.919Z" transform="translate(-336.355 -22.946)" fill="#4d87db"/>
      <path id="Path_15504" data-name="Path 15504" d="M351.258,38.321c-2.141,1.911-2.141,6.906-2.141,6.906l-1.555-.1s.326-5.545,2.27-6.84C350.358,37.938,351.258,38.321,351.258,38.321Z" transform="translate(-335.759 -23.311)" fill="#4d87db"/>
      <g id="Group_5167" data-name="Group 5167" transform="translate(0 13.673)">
        <path id="Path_15505" data-name="Path 15505" d="M340.459,43.458c0-.552.146-5.03,2.789-6.405l-1.484.416s-1.838,1.01-2.016,6.593a22.284,22.284,0,0,0-.065,4.02c.13,4.538-.052,6.672-.291,7.535a28.642,28.642,0,0,0-1.079,10.551c.259,4.411.519,14.006,0,17.636s-2.886,15.818-1.331,18.151c.455,2.075,5.383.552,5.383.552s.815-11.865,1.3-14.861c-.554,15.185.486,15.735.486,15.735l2.561.1c3.11-10.342,2.858-36.164,2.981-41.072.129-5.055.909-14.909,1.167-16.078l-2.567-1.83C343.842,45.029,341.481,44,340.459,43.458Z" transform="translate(-336.46 -37.053)" fill="#3357bc"/>
      </g>
    </g>
  </g>
</svg>
