<svg xmlns="http://www.w3.org/2000/svg" width="562" height="506.722" viewBox="0 0 562 506.722">
  <g id="Group_3870" data-name="Group 3870" transform="translate(-275.182 -5306)">
    <path id="Path_4244" data-name="Path 4244" d="M750.8,328.885H348.249v34.142h6.089V334.97h14.026v28.057h6.084V334.97h14.04v28.057h6.085V334.97h14.035v28.057H414.7V334.97h14.027v28.057h6.323V334.97h14.026v28.057h6.089V334.97H469.2v28.057h6.084V334.97h14.04v28.057h6.084V334.97h14.009v28.057h6.107V334.97h14.009v28.057h6.084V334.97h14.035v28.057h6.089V334.97h14.035v28.057h6.084V334.97h14.013v28.057h6.1V334.97h14.008v28.057h6.085V334.97h14.04v28.057h6.084V334.97h14.04v28.057h6.085V334.97h14.009v28.057h6.107V334.97h14.009v28.057h6.085V334.97h14.035v28.057h6.089V334.97h14.035v28.057h6.084V334.97H750.8v28.057h6.084V328.885Z" transform="translate(80.295 5140.308)" fill="#414141"/>
    <g id="Group_1010" data-name="Group 1010" transform="translate(471.826 5503.334)">
      <rect id="Rectangle_72" data-name="Rectangle 72" width="192.709" height="22.083" fill="#a3bcc4"/>
      <rect id="Rectangle_73" data-name="Rectangle 73" width="172.646" height="22.083" transform="translate(192.709)" fill="#7a8d93"/>
    </g>
    <g id="Group_1011" data-name="Group 1011" transform="translate(299.967 5328.083)">
      <path id="Path_4245" data-name="Path 4245" d="M833.318,723.322V495.056H486.7V297.722H319.854V495.056h3.193l-3.193,133.391L653.592,543.6Z" transform="translate(-319.854 -297.722)" fill="#575757"/>
      <path id="Path_4246" data-name="Path 4246" d="M573.284,531.748,393.558,352.021V590.286H573.284Z" transform="translate(-59.819 -106.147)" fill="#414141"/>
    </g>
    <path id="Exclusion_1" data-name="Exclusion 1" d="M-1740.467,305.279h-166v-.006h-1.1l-82.432.006h0V0l166.85,95.493V0l166.889,95.519-.263,209.735-83.943.006v.018Zm-166-103.722V305.273l39.479,0,126.52-.01v-103.7Z" transform="translate(2289.967 5506.942)" fill="#773e28" stroke="rgba(0,0,0,0)" stroke-miterlimit="10" stroke-width="1"/>
    <path id="Path_4253" data-name="Path 4253" d="M335.759,385.25h188.2V370.932h-188.2Z" transform="translate(36.229 5322.618)" fill="#2e2e2e"/>
    <rect id="Rectangle_74" data-name="Rectangle 74" width="10.648" height="0.097" transform="translate(371.987 5812.124)" fill="#2e2e2e"/>
    <path id="Path_4254" data-name="Path 4254" d="M335.759,394.743V405.5h10.648v-.1Z" transform="translate(36.229 5406.627)" fill="#2e2e2e"/>
    <path id="Path_4255" data-name="Path 4255" d="M346.407,402.815l-10.648-10.648v11.665l10.648,10.652Z" transform="translate(36.229 5397.538)" fill="#f78d00"/>
    <path id="Path_4256" data-name="Path 4256" d="M346.407,400.234l-10.648-10.643v11.665L346.407,411.9Z" transform="translate(36.229 5388.449)" fill="#2e2e2e"/>
    <path id="Path_4257" data-name="Path 4257" d="M346.407,397.664l-10.648-10.652V398.69l10.648,10.643Z" transform="translate(36.229 5379.35)" fill="#f78d00"/>
    <path id="Path_4258" data-name="Path 4258" d="M346.407,395.088l-10.648-10.652V396.1l10.648,10.652Z" transform="translate(36.229 5370.261)" fill="#2e2e2e"/>
    <path id="Path_4259" data-name="Path 4259" d="M346.407,392.508l-10.648-10.648v11.665l10.648,10.652Z" transform="translate(36.229 5361.172)" fill="#f78d00"/>
    <path id="Path_4260" data-name="Path 4260" d="M346.407,389.935l-10.648-10.652v11.669L346.407,401.6Z" transform="translate(36.229 5352.08)" fill="#2e2e2e"/>
    <path id="Path_4261" data-name="Path 4261" d="M346.407,387.358l-10.648-10.652v11.665l10.648,10.652Z" transform="translate(36.229 5342.99)" fill="#f78d00"/>
    <path id="Path_4262" data-name="Path 4262" d="M346.407,384.778,335.759,374.13V385.8l10.648,10.652Z" transform="translate(36.229 5333.901)" fill="#2e2e2e"/>
    <path id="Path_4263" data-name="Path 4263" d="M346.407,374.094H335.759l10.648,10.652Z" transform="translate(36.229 5333.774)" fill="#b96a00"/>
    <path id="Path_4264" data-name="Path 4264" d="M346.407,384.746l-10.648-10.652v.163l10.648,10.648Z" transform="translate(36.229 5333.774)" fill="#f78d00"/>
    <rect id="Rectangle_75" data-name="Rectangle 75" width="10.653" height="0.097" transform="translate(549.538 5812.124)" fill="#2e2e2e"/>
    <path id="Path_4265" data-name="Path 4265" d="M374.97,405.5h10.653v-.1L374.97,394.743Z" transform="translate(174.568 5406.627)" fill="#232323"/>
    <path id="Path_4266" data-name="Path 4266" d="M374.97,403.832l10.653,10.652V402.815L374.97,392.167Z" transform="translate(174.568 5397.538)" fill="#b96a00"/>
    <path id="Path_4267" data-name="Path 4267" d="M374.97,401.256,385.623,411.9v-11.67L374.97,389.591Z" transform="translate(174.568 5388.449)" fill="#232323"/>
    <path id="Path_4268" data-name="Path 4268" d="M374.97,398.69l10.653,10.643V397.664L374.97,387.012Z" transform="translate(174.568 5379.35)" fill="#b96a00"/>
    <path id="Path_4269" data-name="Path 4269" d="M374.97,396.1l10.653,10.652V395.088L374.97,384.436Z" transform="translate(174.568 5370.261)" fill="#232323"/>
    <path id="Path_4270" data-name="Path 4270" d="M374.97,393.525l10.653,10.652V392.508L374.97,381.859Z" transform="translate(174.568 5361.172)" fill="#b96a00"/>
    <path id="Path_4271" data-name="Path 4271" d="M374.97,390.952,385.623,401.6V389.935L374.97,379.282Z" transform="translate(174.568 5352.08)" fill="#232323"/>
    <path id="Path_4272" data-name="Path 4272" d="M374.97,388.371l10.653,10.652V387.358L374.97,376.706Z" transform="translate(174.568 5342.99)" fill="#b96a00"/>
    <path id="Path_4273" data-name="Path 4273" d="M374.97,385.8l10.653,10.652V384.778L374.97,374.13Z" transform="translate(174.568 5333.901)" fill="#232323"/>
    <path id="Path_4274" data-name="Path 4274" d="M374.97,374.257l10.653,10.648V374.094H374.97Z" transform="translate(174.568 5333.774)" fill="#b96a00"/>
    <g id="Group_1013" data-name="Group 1013" transform="translate(648.179 5347.084)">
      <rect id="Rectangle_77" data-name="Rectangle 77" width="16.357" height="312.5" fill="#cecece"/>
      <rect id="Rectangle_78" data-name="Rectangle 78" width="16.352" height="312.5" transform="translate(16.357)" fill="#adadad"/>
    </g>
    <rect id="Rectangle_79" data-name="Rectangle 79" width="62.668" height="118.575" transform="translate(633.197 5659.584)" fill="#432317"/>
    <g id="Group_1015" data-name="Group 1015" transform="translate(633.705 5778.159)">
      <path id="Path_4296" data-name="Path 4296" d="M393.558,397.118v34.063h.641l34.063-34.062Z" transform="translate(-393.558 -397.118)" fill="#232323"/>
      <path id="Path_4297" data-name="Path 4297" d="M455.217,397.118H427.762L393.7,431.181h37.312l24.206-24.206Z" transform="translate(-393.058 -397.118)" fill="#b96a00"/>
      <path id="Path_4298" data-name="Path 4298" d="M401.939,423.5h24.206V399.3Z" transform="translate(-363.986 -389.438)" fill="#232323"/>
    </g>
    <rect id="Rectangle_80" data-name="Rectangle 80" width="48.394" height="9.503" transform="translate(640.339 5347.084)" fill="#828282"/>
    <rect id="Rectangle_81" data-name="Rectangle 81" width="48.394" height="9.503" transform="translate(640.339 5389.292)" fill="#828282"/>
    <rect id="Rectangle_82" data-name="Rectangle 82" width="48.394" height="9.498" transform="translate(640.339 5431.504)" fill="#828282"/>
    <rect id="Rectangle_83" data-name="Rectangle 83" width="48.394" height="9.499" transform="translate(640.339 5473.711)" fill="#828282"/>
    <rect id="Rectangle_84" data-name="Rectangle 84" width="48.394" height="9.499" transform="translate(640.339 5515.919)" fill="#828282"/>
    <rect id="Rectangle_85" data-name="Rectangle 85" width="48.394" height="9.503" transform="translate(640.339 5558.126)" fill="#828282"/>
    <rect id="Rectangle_86" data-name="Rectangle 86" width="48.394" height="9.503" transform="translate(640.339 5600.334)" fill="#828282"/>
    <rect id="Rectangle_87" data-name="Rectangle 87" width="48.394" height="9.503" transform="translate(640.339 5642.542)" fill="#828282"/>
    <g id="Group_1016" data-name="Group 1016" transform="translate(308.821 5351.834)">
      <rect id="Rectangle_88" data-name="Rectangle 88" width="17.586" height="30.803" transform="translate(124.326 6.049)" fill="#1b233b"/>
      <rect id="Rectangle_89" data-name="Rectangle 89" width="17.586" height="30.803" transform="translate(100.606 6.049)" fill="#1b233b"/>
      <rect id="Rectangle_90" data-name="Rectangle 90" width="17.268" height="30.803" transform="translate(6.047 6.049)" fill="#1b233b"/>
      <rect id="Rectangle_91" data-name="Rectangle 91" width="17.591" height="30.803" transform="translate(76.892 6.049)" fill="#1b233b"/>
      <rect id="Rectangle_92" data-name="Rectangle 92" width="17.591" height="30.803" transform="translate(29.448 6.049)" fill="#1b233b"/>
      <rect id="Rectangle_93" data-name="Rectangle 93" width="17.586" height="30.803" transform="translate(53.172 6.049)" fill="#1b233b"/>
      <path id="Path_4299" data-name="Path 4299" d="M469.855,309.017v-6.05H321.809v42.9H469.855V309.017Zm-124.731,30.8h-17.27v-30.8h17.27Zm23.723,0H351.255v-30.8h17.592Zm23.718,0H374.982v-30.8h17.583Zm23.727,0H398.7v-30.8h17.591Zm23.709,0H422.414v-30.8H440Zm23.718,0H446.137v-30.8h17.583Z" transform="translate(-321.809 -302.967)" fill="#ddd"/>
    </g>
    <g id="Group_1017" data-name="Group 1017" transform="translate(308.821 5410.052)">
      <rect id="Rectangle_94" data-name="Rectangle 94" width="17.586" height="30.799" transform="translate(124.326 6.05)" fill="#1b233b"/>
      <rect id="Rectangle_95" data-name="Rectangle 95" width="17.586" height="30.799" transform="translate(100.606 6.05)" fill="#1b233b"/>
      <rect id="Rectangle_96" data-name="Rectangle 96" width="17.268" height="30.799" transform="translate(6.047 6.05)" fill="#1b233b"/>
      <rect id="Rectangle_97" data-name="Rectangle 97" width="17.591" height="30.799" transform="translate(76.892 6.05)" fill="#1b233b"/>
      <rect id="Rectangle_98" data-name="Rectangle 98" width="17.591" height="30.799" transform="translate(29.448 6.05)" fill="#1b233b"/>
      <rect id="Rectangle_99" data-name="Rectangle 99" width="17.586" height="30.799" transform="translate(53.172 6.05)" fill="#1b233b"/>
      <path id="Path_4300" data-name="Path 4300" d="M469.855,321.874v-6.05H321.809v42.9H469.855v-36.85Zm-124.731,30.8h-17.27v-30.8h17.27Zm23.723,0H351.255v-30.8h17.592Zm23.718,0H374.982v-30.8h17.583Zm23.727,0H398.7v-30.8h17.591Zm23.709,0H422.414v-30.8H440Zm23.718,0H446.137v-30.8h17.583Z" transform="translate(-321.809 -315.824)" fill="#ddd"/>
    </g>
    <g id="Group_1018" data-name="Group 1018" transform="translate(278.494 5306)">
      <rect id="Rectangle_100" data-name="Rectangle 100" width="104.345" height="22.083" fill="#a3bcc4"/>
      <rect id="Rectangle_101" data-name="Rectangle 101" width="104.349" height="22.083" transform="translate(104.345)" fill="#7a8d93"/>
    </g>
    <g id="Group_1020" data-name="Group 1020" transform="translate(371.988 5616.601)">
      <rect id="Rectangle_102" data-name="Rectangle 102" width="48.363" height="16.259" transform="translate(6.194 6.202)" fill="#2e2e2e"/>
      <path id="Path_4301" data-name="Path 4301" d="M335.759,361.439V390.1h60.753V361.439Zm6.194,22.459V367.642h21.087V383.9Zm48.365,0H369.231V367.642h21.087Z" transform="translate(-335.759 -361.439)" fill="#cecece"/>
    </g>
    <g id="Group_1021" data-name="Group 1021" transform="translate(499.44 5616.601)">
      <rect id="Rectangle_103" data-name="Rectangle 103" width="48.367" height="16.259" transform="translate(6.196 6.202)" fill="#2e2e2e"/>
      <path id="Path_4302" data-name="Path 4302" d="M363.906,361.439V390.1h60.753V361.439ZM370.1,383.9V367.642h21.092V383.9Zm48.369,0H397.387V367.642h21.083Z" transform="translate(-363.906 -361.439)" fill="#cecece"/>
    </g>
    <g id="Group_1025" data-name="Group 1025" transform="translate(275.182 5464.191)">
      <g id="Group_1023" data-name="Group 1023">
        <path id="Path_4303" data-name="Path 4303" d="M506.054,437.547,314.38,327.78v14.261L506.054,450.875Z" transform="translate(-314.38 -327.78)" fill="#2e2e2e"/>
        <path id="Path_4304" data-name="Path 4304" d="M319.854,334.077v14.239l166.89,95.519V428.659Z" transform="translate(-295.069 -305.564)" fill="#592f1e"/>
      </g>
      <g id="Group_1024" data-name="Group 1024" transform="translate(166.849)">
        <path id="Path_4305" data-name="Path 4305" d="M351.228,327.78v13.69L542.9,451.954V437.547Z" transform="translate(-351.228 -327.78)" fill="#2e2e2e"/>
        <path id="Path_4306" data-name="Path 4306" d="M356.7,348.76,523.59,444.279v-14.1L356.7,333.951Z" transform="translate(-331.916 -306.009)" fill="#592f1e"/>
      </g>
    </g>
  </g>
</svg>
