<svg xmlns="http://www.w3.org/2000/svg" width="105.116" height="83.932" viewBox="0 0 105.116 83.932">
  <g id="Group_5145" data-name="Group 5145" transform="translate(-227.775 -221.225)">
    <path id="Path_15398" data-name="Path 15398" d="M302.309,301.037l.02-.969c1.406.03,2.791.046,4.129.046h0a95.783,95.783,0,0,0,13.427-.716h0c.236-.035.45-.079.633-.124h0a6.173,6.173,0,0,0-.968-.067h0c-.832,0-1.8.1-2.74.1h0a4.757,4.757,0,0,1-2.531-.541h0a2.773,2.773,0,0,1-1.19-2.541h0a8.1,8.1,0,0,1,.215-1.729h0c1.174-5.338,3.26-9.35,6.541-26.161h0a28.827,28.827,0,0,0,.432-5.291h0c.022-4.618-.86-9.739-2.073-11.258h0l0,0,.768-.593c1.5,2.016,2.25,7.083,2.271,11.849h0a29.714,29.714,0,0,1-.451,5.475h0c-3.285,16.847-5.41,21-6.544,26.185h0a7.128,7.128,0,0,0-.193,1.521h0c.014,1.01.3,1.434.738,1.721h0a3.885,3.885,0,0,0,2.015.394h0c.868,0,1.834-.1,2.74-.1h0a4.992,4.992,0,0,1,1.848.276h0c.278.138.621.213.692.757h0c-.059.5-.375.592-.6.712h0a5.152,5.152,0,0,1-.967.278h0a29.787,29.787,0,0,1-3.278.43h0c-2.75.242-6.546.389-10.791.389h0c-1.344,0-2.735-.015-4.149-.044Z" transform="translate(-5.727)" fill="#414e5b"/>
    <g id="Group_5123" data-name="Group 5123" transform="translate(306.592 238.45)">
      <path id="Path_15399" data-name="Path 15399" d="M317.444,239.647h-4.333a.27.27,0,0,0-.291.247v5.934a.23.23,0,0,0,.1.181,4.259,4.259,0,0,0,2.354.453,4.585,4.585,0,0,0,2.32-.423.238.238,0,0,0,.145-.211v-5.934A.27.27,0,0,0,317.444,239.647Z" transform="translate(-312.238 -238.45)" fill="#758b9b"/>
      <rect id="Rectangle_562" data-name="Rectangle 562" width="1.155" height="1.203" transform="translate(2.462 7.615)" fill="#758b9b"/>
      <g id="Group_5121" data-name="Group 5121" transform="translate(0.114)">
        <path id="Path_15400" data-name="Path 15400" d="M312.352,238.835v1.543h0c.037.218,1.329.392,2.925.392s2.886-.174,2.921-.392h0v-1.543Z" transform="translate(-312.352 -238.45)" fill="#414e5b"/>
        <path id="Path_15401" data-name="Path 15401" d="M318.2,238.852c0,.22-1.311.4-2.926.4s-2.927-.18-2.927-.4,1.308-.4,2.927-.4S318.2,238.629,318.2,238.852Z" transform="translate(-312.352 -238.45)" fill="#758b9b"/>
        <path id="Path_15402" data-name="Path 15402" d="M317.259,238.815c0,.141-.888.256-1.98.256s-1.983-.115-1.983-.256.888-.256,1.983-.256S317.259,238.673,317.259,238.815Z" transform="translate(-312.352 -238.45)" fill="#414e5b"/>
      </g>
      <g id="Group_5122" data-name="Group 5122" transform="translate(0 8.408)">
        <path id="Path_15403" data-name="Path 15403" d="M312.238,248.231l2.745-1.373,1.879.362.651,1.228-1.987,1.156s-.615-.831-.758-1.083l-1.916.868Z" transform="translate(-312.238 -246.858)" fill="#758b9b"/>
        <path id="Path_15404" data-name="Path 15404" d="M316.717,249.116a.885.885,0,1,1-.884-.885A.884.884,0,0,1,316.717,249.116Z" transform="translate(-312.238 -246.858)" fill="#414e5b"/>
      </g>
    </g>
    <path id="Path_15405" data-name="Path 15405" d="M331.032,296.4c-.257,1.541-.7,3.159-1.857,3.529-3.016.963-3.53,1.732-3.53,2.631,0,1.033,5.805.191,8.147.191,2.374,0,3.437-.739,2.759-2.63a17.909,17.909,0,0,1-1.027-3.848Z" transform="translate(-7.102)"/>
    <path id="Path_15406" data-name="Path 15406" d="M326.479,298.483c-.256,1.539-.7,3.158-1.859,3.529-3.015.962-3.528,1.731-3.528,2.629,0,1.034,5.8.193,8.145.193,2.375,0,3.437-.74,2.76-2.63a17.859,17.859,0,0,1-1.027-3.849Z" transform="translate(-7.102)" fill="#232121"/>
    <g id="Group_5124" data-name="Group 5124" transform="translate(316.339 223.612)">
      <path id="Path_15407" data-name="Path 15407" d="M333.356,229.565a5.746,5.746,0,0,0,1.616,2.9l1.085.893-4.582,3.713s-.894-3.356-1.819-3.859S333.356,229.565,333.356,229.565Z" transform="translate(-323.441 -223.612)" fill="#edc0b7"/>
      <path id="Path_15408" data-name="Path 15408" d="M323.449,227.91c.225-2.581,5.935-6.374,7.832-2.907,3.456,6.312-.193,8.658-.193,8.658-1.456.79-1.611,1.26-2.46,1.217a3.01,3.01,0,0,1-1.9-1.353c-.478.065-.988.242-1.055-.093a15.889,15.889,0,0,0-.468-2.234C324.446,229.777,323.339,229.126,323.449,227.91Z" transform="translate(-323.441 -223.612)" fill="#f7d8d0"/>
    </g>
    <path id="Path_15409" data-name="Path 15409" d="M336.281,265.244c0,2.084-.736,11.168-.355,13.442,0,0,1.126,17.374-.2,19.65-4.363.378-5.877.574-6.258.005s-1.316-16.053-.178-23.824S336.281,265.244,336.281,265.244Z" transform="translate(-7.102)"/>
    <path id="Path_15410" data-name="Path 15410" d="M323.593,228.592c-2.406-2.309.014-4.421,1.251-5.58,1.54-1.444,6.094-3.434,8.755.769,1.829,2.887,1.558,3.889,2.7,6.542s2.926,3.988,3.464,7.122c1.155,6.736-2.3,12.5-2.489,15.723s.756,5.126.756,8.911c0,2.714-.385,2.885-2.846,10.353a92.229,92.229,0,0,0-2.465,9.1s-.073,4.279.116,8.261,1.578,9.692-1.076,11.021a8.763,8.763,0,0,1-6.43.139s-1.436-20.153-1.057-23c0,0,1.314-19.943,1.314-21.459s.062-3.658.064-7.12c0-2.345.428-5.01,3.272-9.75s2.435-5.05,1.677-8.083-2.03-4.4-4.115-4.4A3.273,3.273,0,0,0,323.593,228.592Z" transform="translate(-7.102)" fill="#232121"/>
    <g id="Group_5125" data-name="Group 5125" transform="translate(316.73 232.057)">
      <path id="Path_15411" data-name="Path 15411" d="M328.5,239.321a17.448,17.448,0,0,0-2.886,10.152c0,3.462-.194,5.5-.194,7.014s-1.537,21.276-1.537,21.276c-.38,2.843,1.538,23.286,1.538,23.286a9.645,9.645,0,0,0,4.139.515c.09-4.631-1.623-17.738-1.733-21.78-.127-4.747,6.357-24.242,7.507-28.676,3.08-11.867,1.956-13.47,1.829-14.626s-2.216-3.271-2.985-4.425a29.914,29.914,0,0,1-3.165.969C331.355,234.825,330.833,235.435,328.5,239.321Z" transform="translate(-323.832 -232.057)"/>
    </g>
    <g id="Group_5131" data-name="Group 5131" transform="translate(316.791 221.225)">
      <g id="Group_5126" data-name="Group 5126" transform="translate(2.841)">
        <path id="Path_15412" data-name="Path 15412" d="M326.833,221.7c1.54.386,3.27,3.464,3.27,3.464l3.561-1.314-.544-.834-2.247.826-3.271-2.527Z" transform="translate(-326.734 -221.225)" fill="#bfb8b8"/>
        <path id="Path_15413" data-name="Path 15413" d="M330.018,225.207s-1.748-3.068-3.21-3.418h0a.1.1,0,0,1-.073-.083h0a.1.1,0,0,1,.054-.1h0l.769-.383.1.01,3.227,2.494,2.2-.809.114.038.544.835a.09.09,0,0,1,.011.083h0a.1.1,0,0,1-.059.06h0l-3.559,1.315-.119-.044Zm.126-.166,3.371-1.244-.435-.669-2.175.8-.092-.014-3.224-2.49-.5.254c1.4.57,2.8,2.923,3.06,3.363Z" transform="translate(-326.734 -221.225)" fill="#d8d8d8"/>
      </g>
      <g id="Group_5127" data-name="Group 5127" transform="translate(6.912 8.217)">
        <path id="Path_15414" data-name="Path 15414" d="M330.9,231.561l5.051-2.021.337.866-4.845,2.55Z" transform="translate(-330.806 -229.442)" fill="#bfb8b8"/>
        <path id="Path_15415" data-name="Path 15415" d="M331.413,233.045a.087.087,0,0,1-.057-.055h0l-.544-1.4.092-.034.035.089-.035-.089-.092.034a.1.1,0,0,1,.055-.125h0l5.05-2.022a.108.108,0,0,1,.077,0h0a.106.106,0,0,1,.051.055h0l.337.866-.046.119-4.844,2.551a.1.1,0,0,1-.045.011h0a.109.109,0,0,1-.034-.007Zm.083-.226,4.674-2.46-.272-.694-4.87,1.95.468,1.2Z" transform="translate(-330.806 -229.442)" fill="#d8d8d8"/>
      </g>
      <g id="Group_5128" data-name="Group 5128" transform="translate(2.25 1.979)">
        <path id="Path_15416" data-name="Path 15416" d="M326.732,231.236l4.737-7.626-1.205-.312-4.035,7.6Z" transform="translate(-326.144 -223.204)" fill="#bfb8b8"/>
        <path id="Path_15417" data-name="Path 15417" d="M326.677,231.315l-.5-.336-.031-.125,4.034-7.6.11-.05,1.206.313a.1.1,0,0,1,.065.056h0a.105.105,0,0,1-.007.087h0l-4.738,7.626a.091.091,0,0,1-.062.043h0a.085.085,0,0,1-.023,0h0a.081.081,0,0,1-.052-.017Zm.054-.08.054-.081-.054.081Zm-.377-.368.347.232,4.615-7.429-1-.26-3.958,7.457Z" transform="translate(-326.144 -223.204)" fill="#d8d8d8"/>
      </g>
      <path id="Path_15418" data-name="Path 15418" d="M329.859,235.034c-2.009-2.346-3.817-5.254-4.823-5.254s-1.208.562-1.126,2.49c.075,1.708-.166,4.107,1.845,4.609S329.859,235.034,329.859,235.034Z" transform="translate(-323.894 -221.225)" fill="#3357bc"/>
      <g id="Group_5130" data-name="Group 5130" transform="translate(1.314 8.322)">
        <g id="Group_5129" data-name="Group 5129">
          <path id="Path_15419" data-name="Path 15419" d="M326.479,235.665a1.493,1.493,0,0,1-1.074-1.457c-.053-.642,2.366-4.233,3.487-4.448s2.483,1.548,2.963,2.99a1.649,1.649,0,0,1-1.254,2.19A35.179,35.179,0,0,1,326.479,235.665Z" transform="translate(-325.208 -229.547)" fill="#d8d8d8"/>
          <path id="Path_15420" data-name="Path 15420" d="M326.438,235.852a1.682,1.682,0,0,1-1.224-1.622h0a.4.4,0,0,1-.006-.045h0c.074-.893,2.339-4.28,3.644-4.615h0a1.234,1.234,0,0,1,.229-.023h0c1.265.038,2.466,1.735,2.957,3.141h0a2.26,2.26,0,0,1,.123.7h0a1.957,1.957,0,0,1-1.5,1.728h0a36.857,36.857,0,0,1-4.065.73h0l-.017.032-.146-.03Zm.04-.188.041-.187-.041.187Zm4.052-.906c.486-.182,1.254-.546,1.244-1.366h0a1.859,1.859,0,0,0-.1-.582h0c-.423-1.322-1.7-2.917-2.591-2.877h0a.742.742,0,0,0-.154.014h0c-.91.085-3.4,3.723-3.332,4.236h0v0l-.006,0,.008.008a1.307,1.307,0,0,0,.9,1.281h0a37.466,37.466,0,0,0,4.029-.714Z" transform="translate(-325.208 -229.547)" fill="#bfb8b8"/>
        </g>
      </g>
    </g>
    <g id="Group_5132" data-name="Group 5132" transform="translate(306.694 234.942)">
      <path id="Path_15421" data-name="Path 15421" d="M321.562,248.579l-.345.005.217-.036c-.839,0-3.354-.71-3.934-.646a15.437,15.437,0,0,0-2.58.968c-.45.194-1.289,1.1-1.1,1.419s.386.323.645.064a3.2,3.2,0,0,1,.483-.339c-.341.293-.714.662-.678.855a.38.38,0,0,0,.614.292c.288-.163,1.225-.549,1.225-.549s-.194.741-.032.9a1.907,1.907,0,0,0,.771.226s.034.483.678.451,1.065-.063,1.259-.1a6.3,6.3,0,0,1,2.192-.322,5.654,5.654,0,0,1,.935.549Z" transform="translate(-313.796 -234.942)" fill="#e26713"/>
      <path id="Path_15422" data-name="Path 15422" d="M337.723,236.307c.992,1.486.309,4.647-.682,7.685-.862,2.641-1.625,5.5-2.913,7.563-.972,1.552-.762,2.345-4.825,2.345-2.735,0-5.932.258-7.093-.385a4.286,4.286,0,0,1-1.677-1.937l.065-3.224a10.767,10.767,0,0,1,4.729-1.015,7.163,7.163,0,0,0,4.621-1.436,26.008,26.008,0,0,1,1.29-7.351,5.354,5.354,0,0,1,4.514-3.61C336.783,234.942,337.723,236.307,337.723,236.307Z" transform="translate(-313.796 -234.942)" fill="#232121"/>
    </g>
    <g id="Group_5144" data-name="Group 5144" transform="translate(227.775 246.077)">
      <path id="Path_15423" data-name="Path 15423" d="M244.94,301.81a2.125,2.125,0,0,1-2.089,2.159h-10.82a2.127,2.127,0,0,1-2.092-2.159V282.4a2.126,2.126,0,0,1,2.092-2.152h10.82a2.124,2.124,0,0,1,2.089,2.152Z" transform="translate(-227.775 -246.077)"/>
      <path id="Path_15424" data-name="Path 15424" d="M307.033,301.81a2.129,2.129,0,0,1-2.092,2.159H294.125a2.129,2.129,0,0,1-2.092-2.159V282.4a2.126,2.126,0,0,1,2.092-2.152h10.816a2.125,2.125,0,0,1,2.092,2.152Z" transform="translate(-227.775 -246.077)" fill="#232121"/>
      <g id="Group_5134" data-name="Group 5134" transform="translate(12.858 1.341)">
        <path id="Path_15425" data-name="Path 15425" d="M240.633,265.7l56.984.885-6.278-15.814-22.678-3.236-23.022,3.6Z" transform="translate(-240.633 -247.418)" fill="#d8d8d8"/>
        <g id="Group_5133" data-name="Group 5133" transform="translate(27.912)">
          <path id="Path_15426" data-name="Path 15426" d="M291.339,250.651l-22.678-3.233-.116.02v18.576l29.072.454Z" transform="translate(-268.545 -247.418)" fill="#fff"/>
        </g>
      </g>
      <path id="Path_15427" data-name="Path 15427" d="M303.527,265.987a17.35,17.35,0,0,0-4.15-1.549c-1.742-4.373-5.334-14.024-7.789-14.983-5.284-2.065-18.573-3.208-22.292-3.378h-1.46c-3.718.17-17.234,1.313-22.518,3.378-2.455.959-6.045,10.61-7.79,14.983a17.29,17.29,0,0,0-4.15,1.549c-1.515,1.2-5.066,3.833-4.108,12.1.578,5,2.766,17.131,2.766,17.131h70.313s4.163-11.5,4.163-17.131C306.512,269.46,305.043,267.185,303.527,265.987Zm-35.075-5.32a113.726,113.726,0,0,0-26.914,2.745c1.7-4.3,4.29-10.6,6.153-11.326,4.742-1.855,16.885-2.841,20.224-2.993h1.31c3.333.152,15.248,1.138,19.987,2.993,1.865.729,4.456,7.025,6.156,11.326A113.679,113.679,0,0,0,268.452,260.667Z" transform="translate(-227.775 -246.077)" fill="#c14e00"/>
      <path id="Path_15428" data-name="Path 15428" d="M306.325,259.206l-3.576-.6c-1.772-.293-3.392.664-3.488,2.181a1.546,1.546,0,0,1-.7.929l-1.966.43a1.113,1.113,0,0,0-.829,1.315c.124.6,1.076,1.44,1.656,1.314l2.811-.615c.65.742,1.364.73,2.517.652l3.576-.246a2.2,2.2,0,0,0,2.1-2.158v-.84A2.489,2.489,0,0,0,306.325,259.206Z" transform="translate(-227.775 -246.077)" fill="#e26713"/>
      <path id="Path_15429" data-name="Path 15429" d="M229.88,259.206l3.57-.6c1.777-.293,3.4.664,3.494,2.181a1.56,1.56,0,0,0,.7.929l1.965.43a1.106,1.106,0,0,1,.827,1.315c-.121.6-.843,1.454-1.426,1.325l-2.812-.612c-.649.741-1.592.716-2.748.638l-3.57-.246a2.2,2.2,0,0,1-2.105-2.158v-.84A2.487,2.487,0,0,1,229.88,259.206Z" transform="translate(-227.775 -246.077)" fill="#c14e00"/>
      <g id="Group_5135" data-name="Group 5135" transform="translate(40.801)">
        <path id="Path_15430" data-name="Path 15430" d="M304.826,295.222s2.276-11.177,2.9-17.131c.877-8.448-2.6-10.906-4.113-12.1a17.26,17.26,0,0,0-4.153-1.549c-1.739-4.373-5.332-14.024-7.787-14.983-5.283-2.065-18.571-3.208-22.291-3.378h-.807v3.016h.736c3.336.152,15.245,1.138,19.994,2.993,1.859.729,4.444,7.023,6.148,11.326a113.765,113.765,0,0,0-26.878-2.745v34.555h36.25Z" transform="translate(-268.576 -246.077)" fill="#e26713"/>
      </g>
      <g id="Group_5137" data-name="Group 5137" transform="translate(18.627 39.2)" opacity="0.55">
        <g id="Group_5136" data-name="Group 5136">
          <path id="Path_15431" data-name="Path 15431" d="M253.028,291.746h30.848a6.783,6.783,0,0,0,6.626-6.469H246.4A6.789,6.789,0,0,0,253.028,291.746Z" transform="translate(-246.402 -285.277)" fill="#662619"/>
        </g>
      </g>
      <g id="Group_5139" data-name="Group 5139" transform="translate(24.105 25.901)" opacity="0.55">
        <g id="Group_5138" data-name="Group 5138">
          <path id="Path_15432" data-name="Path 15432" d="M252.71,275.24c-1.205-2.094-1.205-3.262.713-3.262h31.4c2.268.092,1.71,1.449.851,3.217l-.832,1.715a5.128,5.128,0,0,1-4.35,3.214H257.7a4.948,4.948,0,0,1-4.255-3.26Z" transform="translate(-251.88 -271.978)" fill="#662619"/>
        </g>
      </g>
      <g id="Group_5140" data-name="Group 5140" transform="translate(10.885 38.931)">
        <path id="Path_15433" data-name="Path 15433" d="M238.66,287.522a2.443,2.443,0,1,1,2.444,2.516A2.48,2.48,0,0,1,238.66,287.522Z" transform="translate(-238.66 -285.008)" fill="#662619"/>
        <path id="Path_15434" data-name="Path 15434" d="M239.619,287.522a1.483,1.483,0,1,1,1.485,1.529A1.507,1.507,0,0,1,239.619,287.522Z" transform="translate(-238.66 -285.008)" fill="#bfb8b8"/>
      </g>
      <g id="Group_5141" data-name="Group 5141" transform="translate(64.783 38.931)">
        <path id="Path_15435" data-name="Path 15435" d="M292.558,287.522A2.443,2.443,0,1,1,295,290.038,2.479,2.479,0,0,1,292.558,287.522Z" transform="translate(-292.558 -285.008)" fill="#662619"/>
        <path id="Path_15436" data-name="Path 15436" d="M293.518,287.522A1.483,1.483,0,1,1,295,289.051,1.505,1.505,0,0,1,293.518,287.522Z" transform="translate(-292.558 -285.008)" fill="#d8d8d8"/>
      </g>
      <g id="Group_5142" data-name="Group 5142" transform="translate(4.316 23.213)">
        <path id="Path_15437" data-name="Path 15437" d="M247.5,275.394c.026,1.257-2.529,1.3-3.974,1.3H234.7a2.653,2.653,0,0,1-2.613-2.69v-.9c0-1.485.843-1.88,2.561-2.467l7.472-1.349c3.185-.041,5.433,3.717,5.433,5.2Z" transform="translate(-232.091 -269.29)" fill="#662619"/>
        <path id="Path_15438" data-name="Path 15438" d="M246.685,275.247c0,1.353-2.353,1.187-3.665,1.187h-8.027a2.415,2.415,0,0,1-2.379-2.448v-.819c0-1.35.769-1.71,2.329-2.245l6.8-1.227c2.9-.037,4.944,3.384,4.944,4.737Z" transform="translate(-232.091 -269.29)" fill="#bfb8b8"/>
      </g>
      <g id="Group_5143" data-name="Group 5143" transform="translate(62.051 23.213)">
        <path id="Path_15439" data-name="Path 15439" d="M289.884,275.394c-.032,1.257,2.526,1.3,3.971,1.3h8.825a2.653,2.653,0,0,0,2.61-2.69v-.9c0-1.485-.843-1.88-2.56-2.467l-7.471-1.349c-3.188-.041-5.433,3.717-5.433,5.2Z" transform="translate(-289.826 -269.29)" fill="#662619" opacity="0.54"/>
        <path id="Path_15440" data-name="Path 15440" d="M290.7,275.247c0,1.353,2.351,1.187,3.663,1.187h8.027a2.415,2.415,0,0,0,2.377-2.448v-.819c0-1.35-.768-1.71-2.327-2.245l-6.8-1.227c-2.9-.037-4.942,3.384-4.942,4.737Z" transform="translate(-289.826 -269.29)" fill="#d8d8d8"/>
      </g>
    </g>
    <path id="Path_15441" data-name="Path 15441" d="M311.356,248.752l-17.914,4.034.727,1.612Z" transform="translate(-4.946)" fill="#e26713"/>
    <path id="Path_15442" data-name="Path 15442" d="M312.162,249.557,296.51,259.4l-.163-1.13Z" transform="translate(-5.052)" fill="#e26713"/>
    <path id="Path_15443" data-name="Path 15443" d="M312,248.913l-14.847,5.89.322.726Z" transform="translate(-5.061)" fill="#e26713"/>
  </g>
</svg>
