<svg xmlns="http://www.w3.org/2000/svg" xmlns:xlink="http://www.w3.org/1999/xlink" width="320" height="120" viewBox="0 0 320 119">
  <defs>
    <clipPath id="clip-path">
      <rect width="320" height="119" fill="none"/>
    </clipPath>
    <linearGradient id="linear-gradient" x1="0.5" x2="0.5" y2="1" gradientUnits="objectBoundingBox">
      <stop offset="0" stop-color="#fff"/>
      <stop offset="1" stop-color="gray"/>
    </linearGradient>
  </defs>
  <g id="Repeat_Grid_27" data-name="Repeat Grid 27" clip-path="url(#clip-path)">
    <g transform="translate(-383 -5682)">
      <rect id="Rectangle_290" data-name="Rectangle 290" width="320" height="11" transform="translate(383 5682)" fill="url(#linear-gradient)"/>
    </g>
    <g transform="translate(-383 -5672)">
      <rect id="Rectangle_290-2" data-name="Rectangle 290" width="320" height="11" transform="translate(383 5682)" fill="url(#linear-gradient)"/>
    </g>
    <g transform="translate(-383 -5662)">
      <rect id="Rectangle_290-3" data-name="Rectangle 290" width="320" height="11" transform="translate(383 5682)" fill="url(#linear-gradient)"/>
    </g>
    <g transform="translate(-383 -5652)">
      <rect id="Rectangle_290-4" data-name="Rectangle 290" width="320" height="11" transform="translate(383 5682)" fill="url(#linear-gradient)"/>
    </g>
    <g transform="translate(-383 -5642)">
      <rect id="Rectangle_290-5" data-name="Rectangle 290" width="320" height="11" transform="translate(383 5682)" fill="url(#linear-gradient)"/>
    </g>
    <g transform="translate(-383 -5632)">
      <rect id="Rectangle_290-6" data-name="Rectangle 290" width="320" height="11" transform="translate(383 5682)" fill="url(#linear-gradient)"/>
    </g>
    <g transform="translate(-383 -5622)">
      <rect id="Rectangle_290-7" data-name="Rectangle 290" width="320" height="11" transform="translate(383 5682)" fill="url(#linear-gradient)"/>
    </g>
    <g transform="translate(-383 -5612)">
      <rect id="Rectangle_290-8" data-name="Rectangle 290" width="320" height="11" transform="translate(383 5682)" fill="url(#linear-gradient)"/>
    </g>
    <g transform="translate(-383 -5602)">
      <rect id="Rectangle_290-9" data-name="Rectangle 290" width="320" height="11" transform="translate(383 5682)" fill="url(#linear-gradient)"/>
    </g>
    <g transform="translate(-383 -5592)">
      <rect id="Rectangle_290-10" data-name="Rectangle 290" width="320" height="11" transform="translate(383 5682)" fill="url(#linear-gradient)"/>
    </g>
    <g transform="translate(-383 -5582)">
      <rect id="Rectangle_290-11" data-name="Rectangle 290" width="320" height="11" transform="translate(383 5682)" fill="url(#linear-gradient)"/>
    </g>
    <g transform="translate(-383 -5572)">
      <rect id="Rectangle_290-12" data-name="Rectangle 290" width="320" height="11" transform="translate(383 5682)" fill="url(#linear-gradient)"/>
    </g>
  </g>
</svg>
