<svg id="illust-member-vip" xmlns="http://www.w3.org/2000/svg" xmlns:xlink="http://www.w3.org/1999/xlink" width="56" height="56" viewBox="0 0 56 56">
  <defs>
    <radialGradient id="radial-gradient" cx="0.5" cy="0.5" r="0.5" gradientUnits="objectBoundingBox">
      <stop offset="0" stop-color="#fff"/>
      <stop offset="1" stop-color="#d1d1d1"/>
    </radialGradient>
  </defs>
  <path id="Path_5318" data-name="Path 5318" d="M666.007,72.534a28,28,0,1,1,0,56,27.5,27.5,0,0,1-27.984-28.016,27.47,27.47,0,0,1,27.984-27.984Z" transform="translate(-638.023 -72.534)" fill="#d8d8d8" fill-rule="evenodd"/>
  <path id="Path_5319" data-name="Path 5319" d="M664.9,78.032c12.246,0,21.639,9.214,21.639,21.3s-9.393,21.329-21.639,21.329-21.609-9.243-21.609-21.329,9.364-21.3,21.609-21.3Z" transform="translate(-636.883 -71.345)" fill-rule="evenodd" fill="url(#radial-gradient)"/>
  <path id="Path_5320" data-name="Path 5320" d="M654.375,115.457c12.639,2.753,24.194-5.783,26.722-19.617a27.429,27.429,0,0,0-.842-13.7c5.566,5.576,8.245,14.111,6.59,23.128-2.528,13.87-14.114,22.37-26.722,19.651a23,23,0,0,1-16.941-15.556,22.084,22.084,0,0,0,11.194,6.093Z" transform="translate(-636.908 -76.882)" fill="#999" fill-rule="evenodd"/>
  <path id="Path_5321" data-name="Path 5321" d="M665.878,73.413a26.931,26.931,0,1,1-26.949,26.915,26.446,26.446,0,0,1,26.949-26.915Zm-.03,2.676A24.224,24.224,0,1,1,641.609,100.3a23.79,23.79,0,0,1,24.239-24.209Z" transform="translate(-637.827 -72.344)" fill="#d8d8d8" fill-rule="evenodd"/>
  <path id="Path_5322" data-name="Path 5322" d="M665.487,75.368c14.034,0,24.744,10.625,24.744,24.538s-10.71,24.569-24.744,24.569-24.744-10.655-24.744-24.569,10.71-24.538,24.744-24.538Zm-.061,4.08a20.459,20.459,0,1,1-20.594,20.458,20.172,20.172,0,0,1,20.594-20.458Z" transform="translate(-637.435 -71.921)" fill="#eee" fill-rule="evenodd"/>
  <path id="Path_5323" data-name="Path 5323" d="M645.763,120.242v.069a30.368,30.368,0,0,1-5.02-17.174c0-15.73,10.614-27.742,24.522-27.742,9.343,0,17.2,5.438,21.346,13.768a27.982,27.982,0,0,0-6.319-1.963,19.268,19.268,0,0,0-15.057-7.193c-11.58,0-20.41,10.016-20.41,23.129a26.385,26.385,0,0,0,1.663,9.43,39.643,39.643,0,0,0-.726,7.674Z" transform="translate(-637.435 -71.915)" fill="#999" fill-rule="evenodd"/>
</svg>
