<svg xmlns="http://www.w3.org/2000/svg" width="60" height="80" viewBox="0 0 60 80">
  <g id="Group_6253" data-name="Group 6253" transform="translate(-1172.199 -839.219)">
    <path id="Path_6657" data-name="Path 6657" d="M194.394,55.4l1.675-.862,5.242,6.611a1.862,1.862,0,0,1-.507,2.587l-.031.019a1.88,1.88,0,0,1-2.584-.5Z" transform="translate(1000.571 794.74)" fill="#ffbd49"/>
    <g id="Group_2249" data-name="Group 2249" transform="translate(1191.489 842.911)">
      <path id="Path_6658" data-name="Path 6658" d="M195.922,59.7c.562.55,1.978.083,1.644-.961-.26-.813-.083-1.777-.312-2.615a7.339,7.339,0,0,0-.436-1.088l-.686-1.459a1.572,1.572,0,0,0-.266-.436,1.7,1.7,0,0,0-.343-.247c-.25-.145-1.483-.624-1.755-.325-.3.065.12,1.094.281,1.644.179.618.2.906.42,1.514s.08,1.286.26,1.9a5.863,5.863,0,0,0,.442.949A3.929,3.929,0,0,0,195.922,59.7Z" transform="translate(-192.43 -52.477)" fill="#ffcea1"/>
      <path id="Path_6659" data-name="Path 6659" d="M194.157,55.069a10.07,10.07,0,0,0-.893-1.431.457.457,0,0,1,.578-.241.974.974,0,0,1,.494.47,4.826,4.826,0,0,0,.355.6c.331.4.875.535,1.286.841a3.639,3.639,0,0,1,.893,1.153,3.194,3.194,0,0,1,.371.8c.071.284-.325.328-.485.575-.686-.587-.989-.9-1.672-1.483a3.144,3.144,0,0,1-.553-.556A4.859,4.859,0,0,1,194.157,55.069Z" transform="translate(-193.264 -50.605)" fill="#ffcea1"/>
    </g>
    <g id="Group_2250" data-name="Group 2250" transform="translate(1190.408 843.643)">
      <path id="Path_6660" data-name="Path 6660" d="M198.87,57.135l-3.536-4.2a.505.505,0,0,0-.68-.145l-1.6,1.286a.355.355,0,0,0-.124.284V54.4h0a.6.6,0,0,0,.142.334l3.421,4.178a.556.556,0,0,0,.7.2l1.681-1.283a.351.351,0,0,0,.151-.3h0v0h0A.629.629,0,0,0,198.87,57.135Z" transform="translate(-192.874 -52.713)" fill="#3c3c3b"/>
      <path id="Path_6661" data-name="Path 6661" d="M192.915,53.335v0Z" transform="translate(-192.913 -51.431)" fill="#3c3c3b"/>
      <path id="Path_6662" data-name="Path 6662" d="M194.885,54.34Z" transform="translate(-188.793 -49.313)" fill="#3c3c3b"/>
      <path id="Path_6663" data-name="Path 6663" d="M196.477,58.982a.556.556,0,0,0,.7.2l1.684-1.283a.356.356,0,0,0,.148-.3v0h0a.611.611,0,0,0-.154-.386l-3.536-4.2a.5.5,0,0,0-.677-.145l-1.6,1.289a.356.356,0,0,0-.127.281l0,.031v.009a.627.627,0,0,0,.139.334Zm-2.435-5.371a.117.117,0,0,1,.006.167.124.124,0,0,1-.167-.037.117.117,0,0,1,0-.167A.124.124,0,0,1,194.042,53.611Zm2.352,4.818L193.331,54.7a.177.177,0,0,1,0-.244l1.567-1.249a.185.185,0,0,1,.25.053l3.118,3.718a.171.171,0,0,1,0,.253L196.65,58.5A.207.207,0,0,1,196.394,58.429Z" transform="translate(-192.914 -52.567)" fill="#706f6f"/>
      <path id="Path_6664" data-name="Path 6664" d="M193.418,53.255a.124.124,0,0,1-.167-.037.117.117,0,0,1,0-.167.124.124,0,0,1,.164.037A.117.117,0,0,1,193.418,53.255Z" transform="translate(-192.284 -52.044)" fill="#eeeded"/>
      <path id="Path_6665" data-name="Path 6665" d="M198.016,56.713,194.9,52.995a.185.185,0,0,0-.25-.053l-1.567,1.249a.177.177,0,0,0,0,.244l3.063,3.724a.207.207,0,0,0,.257.071l1.616-1.264A.171.171,0,0,0,198.016,56.713Z" transform="translate(-192.666 -52.297)" fill="#00c2b9"/>
      <path id="Path_6666" data-name="Path 6666" d="M194.391,54.743l.352-.287a.17.17,0,0,1,.213.056v0c.059.071.062.161,0,.2L194.6,55a.166.166,0,0,1-.21-.056v0C194.335,54.873,194.332,54.784,194.391,54.743Z" transform="translate(-189.916 -49.11)" fill="#eeeded"/>
    </g>
    <g id="Group_2252" data-name="Group 2252" transform="translate(1189.139 867.541)">
      <path id="Path_6667" data-name="Path 6667" d="M200.031,83.622l-.145,1.239-.012.1v.006l0,0a2.27,2.27,0,0,1-2.247,1.941h-.04c-4.379.358-5.075-20.9-5.075-20.9l.377-1.5a1.467,1.467,0,0,1-.09-.3,1.8,1.8,0,0,1,.714-1.626,12.35,12.35,0,0,1,3.987-2.055v0a15.358,15.358,0,0,1,.652,1.483C200.344,67.674,200.232,75.6,200.031,83.622Z" transform="translate(-192.509 -60.532)" fill="#cbbba0"/>
      <g id="Group_2251" data-name="Group 2251" transform="translate(2.904 41.687)">
        <path id="Path_6668" data-name="Path 6668" d="M195.008,75.517l-1.122.06.082,1.342,1.04-.622Z" transform="translate(-192.535 -70.891)" fill="#3c3c3b"/>
        <path id="Path_6669" data-name="Path 6669" d="M195.655,79.085a4.981,4.981,0,0,0,.918.714,1.712,1.712,0,0,0,1.122.219.728.728,0,0,0,.476-.284.777.777,0,0,0,.062-.572,4.136,4.136,0,0,0-.491-1.14,18.775,18.775,0,0,1-1.446-3.418.54.54,0,0,0-.124-.244.5.5,0,0,0-.229-.114,2.41,2.41,0,0,0-1.669-.114.364.364,0,0,0-.124.077.5.5,0,0,0-.077.192c-.071.25-.2.482-.3.726a2.642,2.642,0,0,0,.331,2.469,5.073,5.073,0,0,0,.708.726Z" transform="translate(-193.116 -74.02)" fill="#ffcea1"/>
        <path id="Path_6670" data-name="Path 6670" d="M193.858,79.014a12.063,12.063,0,0,1,1.023.751l-.08-1.344c.658.516.856,1.425,1.341,2.108a4.138,4.138,0,0,0,3.366,1.487,1.548,1.548,0,0,0,.921-.2.253.253,0,0,0,.111-.13.3.3,0,0,0-.059-.226q-1.326-2.318-2.84-4.525a6.679,6.679,0,0,1,.482,1.453.621.621,0,0,1-.09.593.54.54,0,0,1-.488.068,2.948,2.948,0,0,1-1.088-.664l-.776-.646a5.569,5.569,0,0,1-.671-.624,3.517,3.517,0,0,1-.64-2.958,2.693,2.693,0,0,0-.868,2.55c.071.337.207.655.281.992A5.673,5.673,0,0,1,193.858,79.014Z" transform="translate(-193.449 -73.736)" fill="#3c3c3b"/>
      </g>
      <path id="Path_6671" data-name="Path 6671" d="M198.211,87.79c-.612,1.521-4,.776-4.163-.411a45.071,45.071,0,0,1-.093-17.335,2.261,2.261,0,0,1,2.259-2.262h.046a2.261,2.261,0,0,1,2.259,2.262Z" transform="translate(-191.145 -45.377)" fill="#cbbba0"/>
    </g>
    <path id="Path_6672" data-name="Path 6672" d="M199.13,62l-.04.686-.077,1.381-1.246,10.854a55.13,55.13,0,0,1-2.046,11.259c-.491,1.545-.355,1.87-2.479,1.814H193.2a2.27,2.27,0,0,1-2.25-1.966h0c0-.046-.009-.09-.012-.136,0,0-1.072-16.81.6-21.09l.72-2.34.47-1.517,4.784.788Z" transform="translate(992.669 807.983)" fill="#cbbba0"/>
    <g id="Group_2253" data-name="Group 2253" transform="translate(1180.988 910.938)">
      <path id="Path_6673" data-name="Path 6673" d="M191.353,76.071l1.122.06-.082,1.342-1.04-.622Z" transform="translate(-186.73 -71.443)" fill="#3c3c3b"/>
      <path id="Path_6674" data-name="Path 6674" d="M193.094,79.641a5.089,5.089,0,0,1-.921.711,1.669,1.669,0,0,1-1.122.219.709.709,0,0,1-.473-.284.789.789,0,0,1-.065-.572,4.035,4.035,0,0,1,.495-1.137,19.349,19.349,0,0,0,1.446-3.421.551.551,0,0,1,.121-.244.564.564,0,0,1,.229-.111,2.418,2.418,0,0,1,1.672-.117.358.358,0,0,1,.12.08.465.465,0,0,1,.08.189,7.022,7.022,0,0,0,.3.726,2.632,2.632,0,0,1-.334,2.469,5.237,5.237,0,0,1-.7.729Z" transform="translate(-188.535 -74.573)" fill="#ffcea1"/>
      <path id="Path_6675" data-name="Path 6675" d="M196.545,79.565c-.355.235-.7.485-1.026.751l.083-1.341c-.661.516-.856,1.422-1.341,2.1a4.145,4.145,0,0,1-3.366,1.49,1.565,1.565,0,0,1-.921-.2.247.247,0,0,1-.111-.133.3.3,0,0,1,.059-.223q1.321-2.323,2.837-4.528a6.756,6.756,0,0,0-.482,1.456.616.616,0,0,0,.093.593.526.526,0,0,0,.485.065,2.852,2.852,0,0,0,1.088-.661l.776-.646a5.617,5.617,0,0,0,.671-.627,3.487,3.487,0,0,0,.64-2.955,2.683,2.683,0,0,1,.872,2.55c-.071.337-.207.655-.281.992A5.494,5.494,0,0,0,196.545,79.565Z" transform="translate(-189.857 -74.288)" fill="#3c3c3b"/>
    </g>
    <path id="Path_6676" data-name="Path 6676" d="M191.38,88.436c.457.946,4.336.365,4.5-.819,1.109-6.886.819-13.586-.609-17.023a2.258,2.258,0,0,0-2.259-2.259h-.043a2.261,2.261,0,0,0-2.262,2.259Z" transform="translate(992.9 823.322)" fill="#cbbba0"/>
    <path id="Path_6677" data-name="Path 6677" d="M202.115,59.571,195.25,55.1c-.825-.615-.98-.009-1.595.816l-.022.031a1.86,1.86,0,0,0,.38,2.605s7.025,5.65,8.579,4.784C203.474,62.22,202.269,61.021,202.115,59.571Z" transform="translate(998.209 795.398)" fill="#ffbd49"/>
    <path id="Path_6678" data-name="Path 6678" d="M203.494,66.7a4.207,4.207,0,0,0-.646.763,2.623,2.623,0,0,0-.25,1.134,28.23,28.23,0,0,0-.034,2.846c0,.1.006.195.009.29a4.189,4.189,0,0,1-.337,2.222,3.215,3.215,0,0,1-.556.7A6.3,6.3,0,0,1,196,76.321a2.331,2.331,0,0,1-2.2-2.309c-.022-.229-.031-.457-.046-.683-.006-.08-.012-.164-.022-.244a11.235,11.235,0,0,0-1.743-5.05l-.093-.139a11.61,11.61,0,0,1-1.808-4.633c0-3.078,6-7.421,6.728-7.742a7.992,7.992,0,0,1,2.837-.828,2.865,2.865,0,0,1,2.574,1.193c.63,1.032.284,2.374.581,3.545.281,1.113,1.122,2,1.517,3.075A4.171,4.171,0,0,1,203.494,66.7Z" transform="translate(991.589 795.062)" fill="#ffbd49"/>
    <path id="Path_6679" data-name="Path 6679" d="M195.757,61.521a2.927,2.927,0,0,1-2.874-.482,3.29,3.29,0,0,1-1.15-2.71,4.252,4.252,0,0,0,2.324,2.383,3.454,3.454,0,0,0,3.257-.374A4.41,4.41,0,0,1,195.757,61.521Z" transform="translate(995.025 802.592)" fill="#1d1d1b" opacity="0.2"/>
    <path id="Path_6680" data-name="Path 6680" d="M192.6,65.766a4.99,4.99,0,0,1-.087,2.652c-.019-.229-.028-.457-.043-.683a11.21,11.21,0,0,0-1.768-5.294c.043-.219.087-.439.133-.661a10.944,10.944,0,0,1,1.573-4.413C193.307,60.033,192.314,62.963,192.6,65.766Z" transform="translate(992.888 800.584)" fill="#1d1d1b" opacity="0.2"/>
    <path id="Path_6681" data-name="Path 6681" d="M189.849,59.9l-.08.668a1.861,1.861,0,0,0,1.592,2.1l.037.006a1.864,1.864,0,0,0,2.1-1.595l.071-.556A5.027,5.027,0,0,1,189.849,59.9Z" transform="translate(990.915 805.869)" fill="#c2694c"/>
    <path id="Path_6682" data-name="Path 6682" d="M189.6,67.838l-1.354-1.357,5.273-6.4a1.867,1.867,0,0,1,2.624.26l.022.031a1.863,1.863,0,0,1-.26,2.621Z" transform="translate(987.796 805.347)" fill="#ffbd49"/>
    <g id="Group_2254" data-name="Group 2254" transform="translate(1172.199 871.401)">
      <path id="Path_6683" data-name="Path 6683" d="M190.786,61.86c.655-.433,1.956.3,1.428,1.258-.411.748-.426,1.728-.813,2.5a6.643,6.643,0,0,1-.64.986c-.318.433-.634.865-.952,1.3a1.614,1.614,0,0,1-.346.377,1.6,1.6,0,0,1-.383.176c-.275.1-1.579.325-1.786-.022-.281-.121.331-1.051.593-1.558.3-.572.374-.85.7-1.4s.328-1.249.624-1.82a5.831,5.831,0,0,1,.615-.844A3.991,3.991,0,0,1,190.786,61.86Z" transform="translate(-186.549 -61.733)" fill="#ffcea1"/>
      <path id="Path_6684" data-name="Path 6684" d="M188.154,63.984a10.289,10.289,0,0,1-1.15,1.23.456.456,0,0,0,.522.346.981.981,0,0,0,.575-.365,4.6,4.6,0,0,1,.464-.516,6.431,6.431,0,0,1,1.425-.578,3.634,3.634,0,0,0,1.1-.955,3.243,3.243,0,0,0,.519-.714c.127-.266-.253-.386-.365-.658-.785.442-1.144.686-1.929,1.131a3.326,3.326,0,0,0-.649.439A4.678,4.678,0,0,0,188.154,63.984Z" transform="translate(-187.004 -61.646)" fill="#ffcea1"/>
    </g>
    <path id="Path_6685" data-name="Path 6685" d="M201.026,62.016a3.509,3.509,0,0,1-.7,1.227,7.333,7.333,0,0,1-6.886,2.027,4.721,4.721,0,0,1-.946-.315,2.935,2.935,0,0,1-1.366-1.641l.47-1.517a2.331,2.331,0,0,0,2.2,2.309,6.008,6.008,0,0,0,1.867.105,6.372,6.372,0,0,0,2.3-.674,6.027,6.027,0,0,0,1.517-1.094,3.214,3.214,0,0,0,.556-.7,2.916,2.916,0,0,0,.331-1.205A15.363,15.363,0,0,1,201.026,62.016Z" transform="translate(993.781 807.176)" fill="#3c3c3b"/>
    <path id="Path_6686" data-name="Path 6686" d="M194.237,67.962a5.936,5.936,0,0,1,.436-2.055c.423-.853,1.313-1.474,1.5-2.411a8.889,8.889,0,0,1-1.589,1.536,2.051,2.051,0,0,1-2.1.2,1.941,1.941,0,0,1,.782,1.474c.263,1.517.145,3.347.362,4.889Z" transform="translate(996.606 813.333)" fill="#1d1d1b" opacity="0.2"/>
    <path id="Path_6687" data-name="Path 6687" d="M193.936,62.467l-1.019.3v-.83l1.019-.3Z" transform="translate(997.51 809.476)" fill="#cbbba0"/>
    <path id="Path_6688" data-name="Path 6688" d="M192.849,56.967l-.037-.006a1.864,1.864,0,0,0-2.1,1.592l-.93,7.538a5.027,5.027,0,0,0,3.718.621l.943-7.646A1.864,1.864,0,0,0,192.849,56.967Z" transform="translate(990.98 799.707)" fill="#ffbd49"/>
    <path id="Path_6689" data-name="Path 6689" d="M195.983,62.125c-.238-2.247-1.422-4.314-1.632-6.561l-1.548.559a.574.574,0,0,0-.294.182C193.622,58.29,195.5,59.9,195.983,62.125Z" transform="translate(996.657 796.841)" fill="#ffcea1"/>
    <path id="Path_6690" data-name="Path 6690" d="M196.724,56.582a.848.848,0,0,1-.031.229.8.8,0,0,1-.08.2,1.593,1.593,0,0,1-.643.618,4.033,4.033,0,0,1-3.638,0,1.109,1.109,0,0,1,0-2.1,3.052,3.052,0,0,1,.763-.3,3.142,3.142,0,0,1,.355-.074l.1-.015a4.106,4.106,0,0,1,.677-.04,3.679,3.679,0,0,1,1.746.433,1.744,1.744,0,0,1,.417.318l.056.059a1.089,1.089,0,0,1,.207.315A.908.908,0,0,1,196.724,56.582Z" transform="translate(994.716 795.914)" fill="#ffcea1"/>
    <path id="Path_6691" data-name="Path 6691" d="M194.556,61.966a11.293,11.293,0,0,0,1.82-7.408,15.448,15.448,0,0,0-.637-2.262.472.472,0,0,0-.164-.253.412.412,0,0,0-.238-.043,2.428,2.428,0,0,0-1.9,1.212,4.961,4.961,0,0,0-.627,2.238,11.3,11.3,0,0,0,1.437,6.317C194.349,61.83,194.451,61.9,194.556,61.966Z" transform="translate(997.219 789.433)" fill="#683c11"/>
    <rect id="Rectangle_268" data-name="Rectangle 268" width="5.146" height="7.676" transform="translate(1186.294 844.821)" fill="#ffcea1"/>
    <path id="Path_6692" data-name="Path 6692" d="M196.8,59.161s0,.862-.006.943a3.227,3.227,0,0,1-1.332-.031,3.716,3.716,0,0,1-1.567-.723,3.777,3.777,0,0,1-.442-.417,4.889,4.889,0,0,1-.34-.417,5.837,5.837,0,0,1-.658-1.233,14.6,14.6,0,0,1-.661-2.454c-.08-.4-.173-.949-.247-1.508.037.223.074.433.111.612a14.856,14.856,0,0,0,.661,2.457,5.072,5.072,0,0,0,1.295,1.944,1.762,1.762,0,0,0,.145.121,3.373,3.373,0,0,0,.448.306,4.9,4.9,0,0,0,2.253.417C196.576,59.177,196.691,59.17,196.8,59.161Z" transform="translate(994.647 792.198)" fill="#1d1d1b" opacity="0.1"/>
    <path id="Path_6693" data-name="Path 6693" d="M191.815,57.917a11.6,11.6,0,0,0,.884,2.167c1.06,2.46,3.7,3.041,4.8,2.466,1.57-.816,1.045-6.314.556-8.524a3.711,3.711,0,0,0-.309-.955,2.3,2.3,0,0,0-2.272-1.295,5.9,5.9,0,0,0-2.927,1.051,2.724,2.724,0,0,0-.658.541c-.17.207-.278.454-.426.674A13.908,13.908,0,0,0,191.815,57.917Z" transform="translate(994.353 788.967)" fill="#ffcea1"/>
    <path id="Path_6694" data-name="Path 6694" d="M198.249,51.563a6.375,6.375,0,0,0-2.729-.219,6.97,6.97,0,0,0-3.162,1.205,4.925,4.925,0,0,0-1.734,2.667,7.522,7.522,0,0,0,.34,3.9c.108.328.244.618.355.918.04.062.08.127.117.195a6.468,6.468,0,0,1,.383.906,3.858,3.858,0,0,0,1.063,1.691,4.523,4.523,0,0,0,1.49.872,4.963,4.963,0,0,0,.8.189,18.8,18.8,0,0,1-1.3-3.61c-.071-.244-.278-1.746-.4-2.213,3.715,4.089,4.926-4.1,7.371-3.279C200.848,54.78,201.225,52.438,198.249,51.563Z" transform="translate(992.444 787.937)" fill="#683c11"/>
    <path id="Path_6695" data-name="Path 6695" d="M191.676,53.491a.826.826,0,0,1,.794.281,2.216,2.216,0,0,1,.4.825,1.945,1.945,0,0,1,.111,1.131.483.483,0,0,1-.192.278.632.632,0,0,1-.581.009.917.917,0,0,1-.349-.355,5.15,5.15,0,0,1-.575-1.227.9.9,0,0,1-.049-.525A.616.616,0,0,1,191.676,53.491Z" transform="translate(993.952 792.512)" fill="#ffcea1"/>
    <path id="Path_6696" data-name="Path 6696" d="M192.141,54.24a1.953,1.953,0,0,1,2.361-1.406.913.913,0,0,1,.4.241.477.477,0,0,1,.121.436,4.944,4.944,0,0,0-2.207,1.456,3.114,3.114,0,0,0-.411.816A2.437,2.437,0,0,1,192.141,54.24Z" transform="translate(995.808 791.025)" fill="#683c11"/>
    <path id="Path_6697" data-name="Path 6697" d="M192.009,54.1a1.855,1.855,0,0,1,.306-.652,1.915,1.915,0,0,1,2.055-.754.913.913,0,0,1,.4.241.485.485,0,0,1,.121.436,4.991,4.991,0,0,0-2.21,1.453,3.123,3.123,0,0,0-.408.819A2.416,2.416,0,0,1,192.009,54.1Z" transform="translate(995.53 790.742)" fill="#683c11"/>
    <path id="Path_6657-2" data-name="Path 6657" d="M201.629,55.4l-1.675-.862-5.242,6.611a1.862,1.862,0,0,0,.507,2.587l.031.019a1.88,1.88,0,0,0,2.584-.5Z" transform="translate(1007.805 794.74)" fill="#ffbd49"/>
    <g id="Group_2249-2" data-name="Group 2249" transform="translate(1207.723 842.911)">
      <path id="Path_6658-2" data-name="Path 6658" d="M195.357,59.7c-.562.55-1.978.083-1.644-.961.26-.813.083-1.777.312-2.615a7.339,7.339,0,0,1,.436-1.088l.686-1.459a1.572,1.572,0,0,1,.266-.436,1.7,1.7,0,0,1,.343-.247c.25-.145,1.483-.624,1.755-.325.3.065-.12,1.094-.281,1.644-.179.618-.2.906-.42,1.514s-.08,1.286-.26,1.9a5.863,5.863,0,0,1-.442.949A3.929,3.929,0,0,1,195.357,59.7Z" transform="translate(-193.663 -52.477)" fill="#ffcea1"/>
      <path id="Path_6659-2" data-name="Path 6659" d="M196.357,55.069a10.07,10.07,0,0,1,.893-1.431.457.457,0,0,0-.578-.241.974.974,0,0,0-.494.47,4.826,4.826,0,0,1-.355.6c-.331.4-.875.535-1.286.841a3.639,3.639,0,0,0-.893,1.153,3.194,3.194,0,0,0-.371.8c-.071.284.325.328.485.575.686-.587.989-.9,1.672-1.483a3.144,3.144,0,0,0,.553-.556A4.859,4.859,0,0,0,196.357,55.069Z" transform="translate(-192.063 -50.605)" fill="#ffcea1"/>
    </g>
    <g id="Group_2250-2" data-name="Group 2250" transform="translate(1207.84 843.643)">
      <path id="Path_6660-2" data-name="Path 6660" d="M193.087,57.135l3.536-4.2a.505.505,0,0,1,.68-.145l1.6,1.286a.355.355,0,0,1,.124.284V54.4h0a.6.6,0,0,1-.142.334l-3.421,4.178a.556.556,0,0,1-.7.2l-1.681-1.283a.351.351,0,0,1-.151-.3h0v0h0A.629.629,0,0,1,193.087,57.135Z" transform="translate(-192.933 -52.713)" fill="#3c3c3b"/>
      <path id="Path_6661-2" data-name="Path 6661" d="M192.915,53.335v0Z" transform="translate(-186.767 -51.431)" fill="#3c3c3b"/>
      <path id="Path_6662-2" data-name="Path 6662" d="M194.885,54.34Z" transform="translate(-194.827 -49.313)" fill="#3c3c3b"/>
      <path id="Path_6663-2" data-name="Path 6663" d="M195.442,58.982a.556.556,0,0,1-.7.2L193.062,57.9a.356.356,0,0,1-.148-.3v0h0a.611.611,0,0,1,.154-.386l3.536-4.2a.5.5,0,0,1,.677-.145l1.6,1.289a.356.356,0,0,1,.127.281l0,.031v.009a.627.627,0,0,1-.139.334Zm2.435-5.371a.117.117,0,0,0-.006.167.124.124,0,0,0,.167-.037.117.117,0,0,0,0-.167A.124.124,0,0,0,197.877,53.611Zm-2.352,4.818,3.063-3.724a.177.177,0,0,0,0-.244l-1.567-1.249a.185.185,0,0,0-.25.053l-3.118,3.718a.171.171,0,0,0,0,.253l1.616,1.264A.207.207,0,0,0,195.525,58.429Z" transform="translate(-192.855 -52.567)" fill="#706f6f"/>
      <path id="Path_6664-2" data-name="Path 6664" d="M193.247,53.255a.124.124,0,0,0,.167-.037.117.117,0,0,0,0-.167.124.124,0,0,0-.164.037A.117.117,0,0,0,193.247,53.255Z" transform="translate(-188.231 -52.044)" fill="#eeeded"/>
      <path id="Path_6665-2" data-name="Path 6665" d="M193.09,56.713l3.118-3.718a.185.185,0,0,1,.25-.053l1.567,1.249a.177.177,0,0,1,0,.244l-3.063,3.724a.207.207,0,0,1-.257.071l-1.616-1.264A.171.171,0,0,1,193.09,56.713Z" transform="translate(-192.289 -52.297)" fill="#00c2b9"/>
      <path id="Path_6666-2" data-name="Path 6666" d="M194.959,54.743l-.352-.287a.17.17,0,0,0-.213.056v0c-.059.071-.062.161,0,.2l.355.287a.166.166,0,0,0,.21-.056v0C195.015,54.873,195.018,54.784,194.959,54.743Z" transform="translate(-193.284 -49.11)" fill="#eeeded"/>
    </g>
    <g id="Group_2252-2" data-name="Group 2252" transform="translate(1205.259 867.541)">
      <path id="Path_6667-2" data-name="Path 6667" d="M192.609,83.622l.145,1.239.012.1v.006l0,0a2.27,2.27,0,0,0,2.247,1.941h.04c4.379.358,5.075-20.9,5.075-20.9l-.377-1.5a1.467,1.467,0,0,0,.09-.3,1.8,1.8,0,0,0-.714-1.626,12.35,12.35,0,0,0-3.987-2.055v0a15.358,15.358,0,0,0-.652,1.483C192.3,67.674,192.408,75.6,192.609,83.622Z" transform="translate(-190.13 -60.532)" fill="#cbbba0"/>
      <g id="Group_2251-2" data-name="Group 2251" transform="translate(0 41.687)">
        <path id="Path_6668-2" data-name="Path 6668" d="M193.886,75.517l1.122.06-.082,1.342-1.04-.622Z" transform="translate(-189.262 -70.891)" fill="#3c3c3b"/>
        <path id="Path_6669-2" data-name="Path 6669" d="M196.211,79.085a4.981,4.981,0,0,1-.918.714,1.712,1.712,0,0,1-1.122.219.728.728,0,0,1-.476-.284.777.777,0,0,1-.062-.572,4.136,4.136,0,0,1,.491-1.14,18.775,18.775,0,0,0,1.446-3.418.54.54,0,0,1,.124-.244.5.5,0,0,1,.229-.114,2.41,2.41,0,0,1,1.669-.114.364.364,0,0,1,.124.077.5.5,0,0,1,.077.192c.071.25.2.482.3.726a2.642,2.642,0,0,1-.331,2.469,5.073,5.073,0,0,1-.708.726Z" transform="translate(-191.653 -74.02)" fill="#ffcea1"/>
        <path id="Path_6670-2" data-name="Path 6670" d="M200.137,79.014a12.063,12.063,0,0,0-1.023.751l.08-1.344c-.658.516-.856,1.425-1.341,2.108a4.138,4.138,0,0,1-3.366,1.487,1.548,1.548,0,0,1-.921-.2.253.253,0,0,1-.111-.13.3.3,0,0,1,.059-.226q1.326-2.318,2.84-4.525a6.679,6.679,0,0,0-.482,1.453.621.621,0,0,0,.09.593.54.54,0,0,0,.488.068,2.948,2.948,0,0,0,1.088-.664l.776-.646a5.569,5.569,0,0,0,.671-.624,3.517,3.517,0,0,0,.64-2.958,2.693,2.693,0,0,1,.868,2.55c-.071.337-.207.655-.281.992A5.673,5.673,0,0,0,200.137,79.014Z" transform="translate(-193.449 -73.736)" fill="#3c3c3b"/>
      </g>
      <path id="Path_6671-2" data-name="Path 6671" d="M193.47,87.79c.612,1.521,4,.776,4.163-.411a45.071,45.071,0,0,0,.093-17.335,2.261,2.261,0,0,0-2.259-2.262h-.046a2.261,2.261,0,0,0-2.259,2.262Z" transform="translate(-190.534 -45.377)" fill="#cbbba0"/>
    </g>
    <path id="Path_6672-2" data-name="Path 6672" d="M190.6,62l.04.686.077,1.381,1.246,10.854a55.13,55.13,0,0,0,2.046,11.259c.491,1.545.355,1.87,2.479,1.814h.043a2.27,2.27,0,0,0,2.25-1.966h0c0-.046.009-.09.012-.136,0,0,1.072-16.81-.6-21.09l-.72-2.34L197,60.942l-4.784.788Z" transform="translate(1022.002 807.983)" fill="#cbbba0"/>
    <g id="Group_2253-2" data-name="Group 2253" transform="translate(1216.313 910.938)">
      <path id="Path_6673-2" data-name="Path 6673" d="M192.475,76.071l-1.122.06.082,1.342,1.04-.622Z" transform="translate(-190 -71.443)" fill="#3c3c3b"/>
      <path id="Path_6674-2" data-name="Path 6674" d="M192.536,79.641a5.089,5.089,0,0,0,.921.711,1.669,1.669,0,0,0,1.122.219.709.709,0,0,0,.473-.284.789.789,0,0,0,.065-.572,4.035,4.035,0,0,0-.495-1.137,19.349,19.349,0,0,1-1.446-3.421.551.551,0,0,0-.121-.244.564.564,0,0,0-.229-.111,2.418,2.418,0,0,0-1.672-.117.358.358,0,0,0-.12.08.465.465,0,0,0-.08.189,7.022,7.022,0,0,1-.3.726,2.632,2.632,0,0,0,.334,2.469,5.237,5.237,0,0,0,.7.729Z" transform="translate(-189.998 -74.573)" fill="#ffcea1"/>
      <path id="Path_6675-2" data-name="Path 6675" d="M190.266,79.565c.355.235.7.485,1.026.751l-.083-1.341c.661.516.856,1.422,1.341,2.1a4.145,4.145,0,0,0,3.366,1.49,1.565,1.565,0,0,0,.921-.2.247.247,0,0,0,.111-.133.3.3,0,0,0-.059-.223q-1.321-2.323-2.837-4.528a6.756,6.756,0,0,1,.482,1.456.616.616,0,0,1-.093.593.526.526,0,0,1-.485.065,2.852,2.852,0,0,1-1.088-.661l-.776-.646a5.617,5.617,0,0,1-.671-.627,3.487,3.487,0,0,1-.64-2.955,2.683,2.683,0,0,0-.872,2.55c.071.337.207.655.281.992A5.494,5.494,0,0,1,190.266,79.565Z" transform="translate(-189.857 -74.288)" fill="#3c3c3b"/>
    </g>
    <path id="Path_6676-2" data-name="Path 6676" d="M195.883,88.436c-.457.946-4.336.365-4.5-.819-1.109-6.886-.819-13.586.609-17.023a2.258,2.258,0,0,1,2.259-2.259h.043a2.261,2.261,0,0,1,2.262,2.259Z" transform="translate(1024.236 823.322)" fill="#cbbba0"/>
    <path id="Path_6677-2" data-name="Path 6677" d="M194.063,59.571l6.864-4.469c.825-.615.98-.009,1.595.816l.022.031a1.86,1.86,0,0,1-.38,2.605s-7.025,5.65-8.579,4.784C192.7,62.22,193.908,61.021,194.063,59.571Z" transform="translate(1010.012 795.398)" fill="#ffbd49"/>
    <path id="Path_6678-2" data-name="Path 6678" d="M191.156,66.7a4.207,4.207,0,0,1,.646.763,2.623,2.623,0,0,1,.25,1.134,28.23,28.23,0,0,1,.034,2.846c0,.1-.006.195-.009.29a4.189,4.189,0,0,0,.337,2.222,3.215,3.215,0,0,0,.556.7,6.3,6.3,0,0,0,5.68,1.663,2.331,2.331,0,0,0,2.2-2.309c.022-.229.031-.457.046-.683.006-.08.012-.164.022-.244a11.235,11.235,0,0,1,1.743-5.05l.093-.139a11.61,11.61,0,0,0,1.808-4.633c0-3.078-6-7.421-6.728-7.742A7.992,7.992,0,0,0,195,54.693a2.865,2.865,0,0,0-2.574,1.193c-.63,1.032-.284,2.374-.581,3.545-.281,1.113-1.122,2-1.517,3.075A4.171,4.171,0,0,0,191.156,66.7Z" transform="translate(1018.159 795.062)" fill="#ffbd49"/>
    <path id="Path_6679-2" data-name="Path 6679" d="M193.285,61.521a2.927,2.927,0,0,0,2.874-.482,3.29,3.29,0,0,0,1.15-2.71,4.252,4.252,0,0,1-2.324,2.383,3.454,3.454,0,0,1-3.257-.374A4.41,4.41,0,0,0,193.285,61.521Z" transform="translate(1020.332 802.592)" fill="#1d1d1b" opacity="0.2"/>
    <path id="Path_6680-2" data-name="Path 6680" d="M190.895,65.766a4.99,4.99,0,0,0,.087,2.652c.019-.229.028-.457.043-.683a11.21,11.21,0,0,1,1.768-5.294c-.043-.219-.087-.439-.133-.661a10.944,10.944,0,0,0-1.573-4.413C190.184,60.033,191.176,62.963,190.895,65.766Z" transform="translate(1028.02 800.584)" fill="#1d1d1b" opacity="0.2"/>
    <path id="Path_6681-2" data-name="Path 6681" d="M193.469,59.9l.08.668a1.861,1.861,0,0,1-1.592,2.1l-.037.006a1.864,1.864,0,0,1-2.1-1.595l-.071-.556A5.027,5.027,0,0,0,193.469,59.9Z" transform="translate(1030.165 805.869)" fill="#c2694c"/>
    <path id="Path_6682-2" data-name="Path 6682" d="M195.234,67.838l1.354-1.357-5.273-6.4a1.867,1.867,0,0,0-2.624.26l-.022.031a1.863,1.863,0,0,0,.26,2.621Z" transform="translate(1031.766 805.347)" fill="#ffbd49"/>
    <g id="Group_2254-2" data-name="Group 2254" transform="translate(1226.411 871.401)">
      <path id="Path_6683-2" data-name="Path 6683" d="M188.773,61.86c-.655-.433-1.956.3-1.428,1.258.411.748.426,1.728.813,2.5a6.643,6.643,0,0,0,.64.986c.318.433.634.865.952,1.3a1.614,1.614,0,0,0,.346.377,1.6,1.6,0,0,0,.383.176c.275.1,1.579.325,1.786-.022.281-.121-.331-1.051-.593-1.558-.3-.572-.374-.85-.7-1.4s-.328-1.249-.624-1.82a5.831,5.831,0,0,0-.615-.844A3.991,3.991,0,0,0,188.773,61.86Z" transform="translate(-187.222 -61.733)" fill="#ffcea1"/>
      <path id="Path_6684-2" data-name="Path 6684" d="M190.482,63.984a10.289,10.289,0,0,0,1.15,1.23.456.456,0,0,1-.522.346.981.981,0,0,1-.575-.365,4.6,4.6,0,0,0-.464-.516,6.431,6.431,0,0,0-1.425-.578,3.634,3.634,0,0,1-1.1-.955,3.243,3.243,0,0,1-.519-.714c-.127-.266.253-.386.365-.658.785.442,1.144.686,1.929,1.131a3.326,3.326,0,0,1,.649.439A4.678,4.678,0,0,1,190.482,63.984Z" transform="translate(-185.843 -61.646)" fill="#ffcea1"/>
    </g>
    <path id="Path_6685-2" data-name="Path 6685" d="M191.133,62.016a3.509,3.509,0,0,0,.7,1.227,7.333,7.333,0,0,0,6.886,2.027,4.721,4.721,0,0,0,.946-.315,2.935,2.935,0,0,0,1.366-1.641l-.47-1.517a2.331,2.331,0,0,1-2.2,2.309,6.008,6.008,0,0,1-1.867.105,6.372,6.372,0,0,1-2.3-.674,6.027,6.027,0,0,1-1.517-1.094,3.214,3.214,0,0,1-.556-.7,2.916,2.916,0,0,1-.331-1.205A15.363,15.363,0,0,0,191.133,62.016Z" transform="translate(1018.459 807.176)" fill="#3c3c3b"/>
    <path id="Path_6686-2" data-name="Path 6686" d="M194.42,67.962a5.936,5.936,0,0,0-.436-2.055c-.423-.853-1.313-1.474-1.5-2.411a8.889,8.889,0,0,0,1.589,1.536,2.051,2.051,0,0,0,2.1.2,1.941,1.941,0,0,0-.782,1.474c-.263,1.517-.145,3.347-.362,4.889Z" transform="translate(1019.135 813.333)" fill="#1d1d1b" opacity="0.2"/>
    <path id="Path_6687-2" data-name="Path 6687" d="M192.917,62.467l1.019.3v-.83l-1.019-.3Z" transform="translate(1020.036 809.476)" fill="#cbbba0"/>
    <path id="Path_6688-2" data-name="Path 6688" d="M191.4,56.967l.037-.006a1.864,1.864,0,0,1,2.1,1.592l.93,7.538a5.027,5.027,0,0,1-3.718.621l-.943-7.646A1.864,1.864,0,0,1,191.4,56.967Z" transform="translate(1029.174 799.707)" fill="#ffbd49"/>
    <path id="Path_6689-2" data-name="Path 6689" d="M192.509,62.125c.238-2.247,1.422-4.314,1.632-6.561l1.548.559a.574.574,0,0,1,.294.182C194.87,58.29,192.988,59.9,192.509,62.125Z" transform="translate(1019.25 796.841)" fill="#ffcea1"/>
    <path id="Path_6690-2" data-name="Path 6690" d="M191.578,56.582a.848.848,0,0,0,.031.229.8.8,0,0,0,.08.2,1.593,1.593,0,0,0,.643.618,4.033,4.033,0,0,0,3.638,0,1.109,1.109,0,0,0,0-2.1,3.052,3.052,0,0,0-.763-.3,3.142,3.142,0,0,0-.355-.074l-.1-.015a4.106,4.106,0,0,0-.677-.04,3.679,3.679,0,0,0-1.746.433,1.744,1.744,0,0,0-.417.318l-.056.059a1.089,1.089,0,0,0-.207.315A.908.908,0,0,0,191.578,56.582Z" transform="translate(1021.381 795.914)" fill="#ffcea1"/>
    <path id="Path_6691-2" data-name="Path 6691" d="M194.663,61.966a11.293,11.293,0,0,1-1.82-7.408,15.448,15.448,0,0,1,.637-2.262.472.472,0,0,1,.164-.253.412.412,0,0,1,.238-.043,2.428,2.428,0,0,1,1.9,1.212,4.961,4.961,0,0,1,.627,2.238,11.3,11.3,0,0,1-1.437,6.317C194.87,61.83,194.768,61.9,194.663,61.966Z" transform="translate(1017.961 789.433)" fill="#683c11"/>
    <rect id="Rectangle_268-2" data-name="Rectangle 268" width="5.146" height="7.676" transform="translate(1212.958 844.821)" fill="#ffcea1"/>
    <path id="Path_6692-2" data-name="Path 6692" d="M191.545,59.161s0,.862.006.943a3.227,3.227,0,0,0,1.332-.031,3.716,3.716,0,0,0,1.567-.723,3.777,3.777,0,0,0,.442-.417,4.889,4.889,0,0,0,.34-.417,5.837,5.837,0,0,0,.658-1.233,14.6,14.6,0,0,0,.661-2.454c.08-.4.173-.949.247-1.508-.037.223-.074.433-.111.612a14.856,14.856,0,0,1-.661,2.457,5.072,5.072,0,0,1-1.295,1.944,1.762,1.762,0,0,1-.145.121,3.373,3.373,0,0,1-.448.306,4.9,4.9,0,0,1-2.253.417C191.768,59.177,191.654,59.17,191.545,59.161Z" transform="translate(1021.407 792.198)" fill="#1d1d1b" opacity="0.1"/>
    <path id="Path_6693-2" data-name="Path 6693" d="M198.142,57.917a11.6,11.6,0,0,1-.884,2.167c-1.06,2.46-3.7,3.041-4.8,2.466-1.57-.816-1.045-6.314-.556-8.524a3.711,3.711,0,0,1,.309-.955,2.3,2.3,0,0,1,2.272-1.295,5.9,5.9,0,0,1,2.927,1.051,2.724,2.724,0,0,1,.658.541c.17.207.278.454.426.674A13.908,13.908,0,0,1,198.142,57.917Z" transform="translate(1020.088 788.967)" fill="#ffcea1"/>
    <path id="Path_6694-2" data-name="Path 6694" d="M193.106,51.563a6.375,6.375,0,0,1,2.729-.219A6.97,6.97,0,0,1,199,52.549a4.925,4.925,0,0,1,1.734,2.667,7.522,7.522,0,0,1-.34,3.9c-.108.328-.244.618-.355.918-.04.062-.08.127-.117.195a6.468,6.468,0,0,0-.383.906,3.858,3.858,0,0,1-1.063,1.691,4.523,4.523,0,0,1-1.49.872,4.963,4.963,0,0,1-.8.189,18.8,18.8,0,0,0,1.3-3.61c.071-.244.278-1.746.4-2.213-3.715,4.089-4.926-4.1-7.371-3.279C190.506,54.78,190.129,52.438,193.106,51.563Z" transform="translate(1020.6 787.937)" fill="#683c11"/>
    <path id="Path_6695-2" data-name="Path 6695" d="M192.558,53.491a.826.826,0,0,0-.794.281,2.216,2.216,0,0,0-.4.825,1.945,1.945,0,0,0-.111,1.131.483.483,0,0,0,.192.278.632.632,0,0,0,.581.009.917.917,0,0,0,.349-.355,5.15,5.15,0,0,0,.575-1.227.9.9,0,0,0,.049-.525A.616.616,0,0,0,192.558,53.491Z" transform="translate(1026.213 792.512)" fill="#ffcea1"/>
    <path id="Path_6696-2" data-name="Path 6696" d="M195,54.24a1.953,1.953,0,0,0-2.361-1.406.913.913,0,0,0-.4.241.477.477,0,0,0-.121.436,4.944,4.944,0,0,1,2.207,1.456,3.114,3.114,0,0,1,.411.816A2.437,2.437,0,0,0,195,54.24Z" transform="translate(1021.454 791.025)" fill="#683c11"/>
    <path id="Path_6697-2" data-name="Path 6697" d="M194.861,54.1a1.855,1.855,0,0,0-.306-.652A1.915,1.915,0,0,0,192.5,52.7a.913.913,0,0,0-.4.241.485.485,0,0,0-.121.436,4.991,4.991,0,0,1,2.21,1.453,3.123,3.123,0,0,1,.408.819A2.416,2.416,0,0,0,194.861,54.1Z" transform="translate(1021.998 790.742)" fill="#683c11"/>
  </g>
</svg>
