<svg id="illust-member-gold" xmlns="http://www.w3.org/2000/svg" width="56" height="56.001" viewBox="0 0 56 56.001">
  <path id="Path_5324" data-name="Path 5324" d="M607.259,72.534c15.877,0,28.015,12.108,28.015,27.985a27.514,27.514,0,0,1-28.015,28.016c-15.877,0-27.985-12.139-27.985-28.016a27.463,27.463,0,0,1,27.985-27.985Z" transform="translate(-579.274 -72.534)" fill="#fadd61" fill-rule="evenodd"/>
  <path id="Path_5325" data-name="Path 5325" d="M606.507,78.032c12.445,0,21.993,9.389,21.993,21.7s-9.547,21.734-21.993,21.734-21.962-9.419-21.962-21.734,9.517-21.7,21.962-21.7Z" transform="translate(-578.522 -71.75)" fill="#fad32a" fill-rule="evenodd"/>
  <path id="Path_5326" data-name="Path 5326" d="M595.791,113.486c12.826,2.59,24.583-5.441,27.149-18.457a24.318,24.318,0,0,0-.886-12.888,23.2,23.2,0,0,1,6.718,21.76c-2.566,13.049-14.323,21.047-27.149,18.489a22.751,22.751,0,0,1-17.192-14.636,23.1,23.1,0,0,0,11.359,5.732Z" transform="translate(-578.538 -73.87)" fill="#cc9901" fill-rule="evenodd"/>
  <path id="Path_5327" data-name="Path 5327" d="M607.134,73.413a27,27,0,1,1-26.982,26.98,26.519,26.519,0,0,1,26.982-26.98ZM607.1,76.1a24.283,24.283,0,1,1-24.268,24.268A23.859,23.859,0,0,1,607.1,76.1Z" transform="translate(-579.149 -72.409)" fill="#fadd61" fill-rule="evenodd"/>
  <path id="Path_5328" data-name="Path 5328" d="M606.875,75.368c14.128,0,24.939,10.716,24.939,24.747S621,124.893,606.875,124.893s-24.909-10.746-24.909-24.778,10.781-24.747,24.909-24.747Zm0,4.115a20.633,20.633,0,1,1-20.763,20.632,20.326,20.326,0,0,1,20.763-20.632Z" transform="translate(-578.89 -72.13)" fill="#ffcc01" fill-rule="evenodd"/>
  <path id="Path_5329" data-name="Path 5329" d="M587.1,117.588v.065a27.171,27.171,0,0,1-5.109-16.157c0-14.8,10.74-26.1,24.814-26.1a24.28,24.28,0,0,1,21.634,12.953,29.94,29.94,0,0,0-6.4-1.846,20.14,20.14,0,0,0-15.239-6.767c-11.719,0-20.685,9.423-20.685,21.76a23.867,23.867,0,0,0,1.683,8.872,36.962,36.962,0,0,0-.7,7.22Z" transform="translate(-578.886 -72.126)" fill="#cc9901" fill-rule="evenodd"/>
</svg>
