<svg xmlns="http://www.w3.org/2000/svg" width="374.675" height="180" viewBox="0 0 374.675 180">
  <g id="Group_6259" data-name="Group 6259" transform="translate(-1236.763 -1023.377)">
    <g id="Group_2245" data-name="Group 2245" transform="translate(1298.808 1026.279)">
      <path id="Path_6595" data-name="Path 6595" d="M110.592,122.172c7.141,4.124,7.141,10.809,0,14.933s-18.721,4.124-25.863,0-7.141-10.809,0-14.933S103.451,118.048,110.592,122.172Z" transform="translate(-71.099 -59.931)" fill="#1d1d1b" opacity="0.5"/>
      <g id="Group_2239" data-name="Group 2239" transform="translate(0 25.283)">
        <path id="Path_6596" data-name="Path 6596" d="M77.414,106.747l.01.013c.036.046.173.217.358.467.116.155.253.343.395.549l0,0a12.2,12.2,0,0,1,.872,1.465,5.418,5.418,0,0,1,.284.7,2.933,2.933,0,0,1,.083.32,3.892,3.892,0,0,0,.588-.021,3.539,3.539,0,0,0,1.978-.972l1-.232a1.937,1.937,0,0,0-.508-2.767l-1.761.168-2.721.258-.472.046Z" transform="translate(-74.193 -105.444)" fill="#ffbb7d"/>
        <path id="Path_6597" data-name="Path 6597" d="M76.727,110.057a.31.31,0,0,0,.121.162c.407.289,1.163-.5,1.715-1.21a4.326,4.326,0,0,0,1.5-.779c.139-.1.273-.214.4-.33l-.743-.836-1.78,1.137C77.258,108.857,76.593,109.647,76.727,110.057Z" transform="translate(-75.305 -104.184)" fill="#ffbb7d"/>
        <path id="Path_6598" data-name="Path 6598" d="M77.44,110.433c.456.242.725-.681,1.166-1.349a3.931,3.931,0,0,0,1.094-.573c.113-.083.222-.173.33-.268.062-.059.121-.116.181-.181l-.714-.689-.162.121L78,108.509C77.4,109.161,76.96,110.18,77.44,110.433Z" transform="translate(-74.474 -103.696)" fill="#ffbb7d"/>
        <path id="Path_6599" data-name="Path 6599" d="M76.452,109.374c.276.413,1.23-.286,1.9-.89a4.63,4.63,0,0,0,1.9-.658c.054-.031.108-.062.162-.1l-.583-.954-1.952.8C77.045,108.123,76.134,108.9,76.452,109.374Z" transform="translate(-75.814 -104.639)" fill="#ffbb7d"/>
        <path id="Path_6600" data-name="Path 6600" d="M76.165,108.323a.44.44,0,0,0,.039.16c.209.438,1.261-.111,2.009-.611a4.412,4.412,0,0,0,1.939-.315l.124-.052.028-.01-.168-.5-.175-.526-.021-.064-.451.111-.093.021-.663.162-.859.209C77.057,107.286,76.15,107.825,76.165,108.323Z" transform="translate(-76.165 -105.223)" fill="#ffbb7d"/>
        <path id="Path_6601" data-name="Path 6601" d="M77.161,106.819a1.993,1.993,0,0,0,1.021.3c.111,0,.235,0,.382-.008.1,0,.2-.005.325-.005,1.094.923,2.739,1.284,2.948-.531a6.719,6.719,0,0,1-.727-.248l-2.742.193Z" transform="translate(-74.592 -105.342)" fill="#1d1d1b" opacity="0.1"/>
        <path id="Path_6602" data-name="Path 6602" d="M82.219,106.871a7.013,7.013,0,0,1-1.733-.753.856.856,0,0,0-.7-.1,3.507,3.507,0,0,1-2.654-.072c-.459.286-.175.841.328,1.114a2.594,2.594,0,0,0,1.816.34C80.367,108.326,82.539,109.652,82.219,106.871Z" transform="translate(-75.005 -105.948)" fill="#ffbb7d"/>
        <path id="Path_6603" data-name="Path 6603" d="M78.184,107.123a3.028,3.028,0,0,0,1.991-.42h0a.109.109,0,0,1,.08-.034c.183.967.977,2.285,1.586,2.448a2.278,2.278,0,0,0,2.027-.756l1.083.039-1,.232a3.506,3.506,0,0,1-2.03.977l-.108.01-.059,0-.129.005h-.049c-.062,0-.126,0-.191,0a3.93,3.93,0,0,1-1.094.573c-.441.668-.709,1.591-1.166,1.349.224-.049.567-.58,1.032-1.527a2.53,2.53,0,0,0,1-.575,3.535,3.535,0,0,1-.33-.524,4.194,4.194,0,0,1-1.411.714c-.552.712-1.308,1.5-1.715,1.21a.31.31,0,0,1-.121-.162c.647.008,1.222-.539,1.777-1.295a2.7,2.7,0,0,0,1.408-.583c-.113-.222-.227-.472-.325-.717a4.457,4.457,0,0,1-1.741.567c-.673.6-1.627,1.3-1.9.89.575-.008,1.186-.609,1.965-1.21l1.612-.423a5.1,5.1,0,0,1-.23-.769,4.56,4.56,0,0,1-1.937.315c-.748.5-1.8,1.05-2.009.611a.441.441,0,0,1-.039-.16C76.732,108.234,77.529,107.737,78.184,107.123Z" transform="translate(-76.165 -104.809)" fill="#1d1d1b" opacity="0.1"/>
      </g>
      <g id="Group_2240" data-name="Group 2240" transform="translate(37.9 32.929)">
        <path id="Path_6604" data-name="Path 6604" d="M92.195,110.819l.134.864.013.07.137,1.112-.067.792c.005.415.266.58.462.542a.249.249,0,0,0,.2-.2l.178-.947.005-.962a3.627,3.627,0,0,0-.057-.851l-.3-.126-.6-.25Z" transform="translate(-88.753 -105.903)" fill="#ffbb7d"/>
        <path id="Path_6605" data-name="Path 6605" d="M92.85,110.72l-.619.083.01.217.031.82.083,1.973h0c.005.415.266.58.462.542a2.024,2.024,0,0,1,.134-1.006,1.222,1.222,0,0,1,.028-.859,2.733,2.733,0,0,1-.137-1.22C92.845,111.094,92.847,110.908,92.85,110.72Z" transform="translate(-88.696 -106.06)" fill="#1d1d1b" opacity="0.1"/>
        <path id="Path_6606" data-name="Path 6606" d="M93.3,111.118l-.506-.059-.72-.083-.191-.023.217.653.3.9.041,1.184-.144.828c-.036.457.253.652.467.606a.271.271,0,0,0,.2-.183l.335-1.166.057-1.323A9,9,0,0,0,93.3,111.118Z" transform="translate(-89.236 -105.692)" fill="#ffbb7d"/>
        <path id="Path_6607" data-name="Path 6607" d="M92.683,110.909l-.72.093v.044l.026.629.3.9.041,1.184-.144.828c-.036.457.253.653.467.606a2.243,2.243,0,0,1,.15-1.215,1.415,1.415,0,0,1,.034-1,4.564,4.564,0,0,1-.152-1.847Z" transform="translate(-89.119 -105.761)" fill="#1d1d1b" opacity="0.1"/>
        <path id="Path_6608" data-name="Path 6608" d="M93.1,111.494l-.714-.083-.622-.072-.137-.015.026.08.511,1.534.041,1.23-.152.859a.632.632,0,0,0,.157.521.312.312,0,0,0,.539-.08l.348-1.212.059-1.377A9.383,9.383,0,0,0,93.1,111.494Z" transform="translate(-89.65 -105.106)" fill="#ffbb7d"/>
        <path id="Path_6609" data-name="Path 6609" d="M92.375,111.19l-.627.361-.111.064.511,1.534.041,1.23-.152.859a.632.632,0,0,0,.157.521,2.126,2.126,0,0,1,.232-1.065,3.083,3.083,0,0,1,.116-1.369,4.126,4.126,0,0,1-.173-1.7C92.372,111.481,92.372,111.334,92.375,111.19Z" transform="translate(-89.634 -105.317)" fill="#1d1d1b" opacity="0.1"/>
        <path id="Path_6610" data-name="Path 6610" d="M93.758,108.913a1.8,1.8,0,0,1-1.707,1.055,1.934,1.934,0,0,1-1.078-.258l.371,2.68a3.747,3.747,0,0,0-.426,2.489l.25.173.954.658.191.031.944.168a3.678,3.678,0,0,0,2.053-1.658,9.644,9.644,0,0,0-1.284-2.78Z" transform="translate(-90.86 -108.913)" fill="#ffbb7d"/>
        <path id="Path_6611" data-name="Path 6611" d="M92.774,111.62l-1.135-.132-.186-.021-.041-.005-.111-.013.139.42.132.4.266.794.041,1.23-.15.861c-.031.382.157.591.351.629a.283.283,0,0,0,.343-.188l.348-1.212.062-1.377A9.4,9.4,0,0,0,92.774,111.62Z" transform="translate(-90.165 -104.907)" fill="#ffbb7d"/>
        <path id="Path_6612" data-name="Path 6612" d="M91.154,111.241c-.088.034-.178.072-.271.119a14,14,0,0,0,.351,1.991l-.152,1.2a.679.679,0,0,0,0,.206c.044.222.227.279.42.183a.851.851,0,0,0,.374-.392,5.391,5.391,0,0,0,.315-1.336l.039-.454.028-.32.018-.214.021-.245.044-.505A1.008,1.008,0,0,0,91.154,111.241Z" transform="translate(-90.825 -105.394)" fill="#ffbb7d"/>
        <path id="Path_6613" data-name="Path 6613" d="M91.666,111.362c.01.08.018.16.026.24.013.139.023.276.028.407a3.256,3.256,0,0,1-.181,1.39,2.54,2.54,0,0,1-.415,1.189.851.851,0,0,0,.374-.392,5.391,5.391,0,0,0,.315-1.336l.039-.454.266.794.041,1.23-.15.861c-.031.382.157.591.351.629a1.351,1.351,0,0,1-.01-1.38,1.879,1.879,0,0,1,.09-1.341,3.229,3.229,0,0,1-.56-1.114c-.052-.152-.1-.315-.147-.48C91.709,111.527,91.689,111.445,91.666,111.362Z" transform="translate(-90.444 -105.046)" fill="#1d1d1b" opacity="0.1"/>
        <path id="Path_6614" data-name="Path 6614" d="M90.973,109.222l.371,2.68a3.747,3.747,0,0,0-.426,2.489,14,14,0,0,0,.351,1.991l-.152,1.2a.679.679,0,0,0,0,.206,5.154,5.154,0,0,1,.4-1.553,2.891,2.891,0,0,1-.348-1.669c.005-.1.01-.193.021-.291a2.6,2.6,0,0,1,.779-2.337,2.138,2.138,0,0,1,.083-2.455A1.934,1.934,0,0,1,90.973,109.222Z" transform="translate(-90.86 -108.425)" fill="#1d1d1b" opacity="0.1"/>
      </g>
      <g id="Group_2244" data-name="Group 2244" transform="translate(7.012)">
        <path id="Path_6615" data-name="Path 6615" d="M93.469,107.011l-1.377,7.825-.384.132-10.641,3.58a1.261,1.261,0,0,1-1.442-.451,4.084,4.084,0,0,1-.508-3.7,74.127,74.127,0,0,0,7.353-4.328l4.139-9.163,1.241,2.649Z" transform="translate(-78.884 -88.63)" fill="#516a96"/>
        <path id="Path_6616" data-name="Path 6616" d="M91.254,113.234l-10.641,3.58a1.261,1.261,0,0,1-1.442-.451c3.134-1.5,6.682-3.575,8.712-4.343,1.64-1.625,3-6.3,3.128-10.017Z" transform="translate(-78.43 -86.896)" opacity="0.15"/>
        <path id="Path_6617" data-name="Path 6617" d="M88.938,121.527l1.831,2.682-.671,2.969c-1.3,1.117-1.89,1.952-1.547,2.7a3.363,3.363,0,0,0,3.152.673c2.236-.142,3.773-4.4,4.516-6.693a4.229,4.229,0,0,0-1.694-2.066L92.659,118.9Z" transform="translate(-63.771 -60.207)"/>
        <path id="Path_6618" data-name="Path 6618" d="M87.256,122.629l-.7,3.572a5.484,5.484,0,0,1-2.7,2.156c-1.465.279-2.486.629-2.9,1.408a1.4,1.4,0,0,0,.17,1.486,2.651,2.651,0,0,0,2.437,1.029c2.669-.211,6.288-.73,7.229-1.617a6.708,6.708,0,0,0,.16-3.208l.908-3.786Z" transform="translate(-75.843 -54.325)"/>
        <path id="Path_6619" data-name="Path 6619" d="M84,113.986l3.121,13.189L95.242,138.8c1.328,1.8,6.687-.573,5.491-3.667L93.759,123.35,90.95,110.4,84,108.366Z" transform="translate(-70.797 -76.847)" fill="#1e2e4d"/>
        <path id="Path_6620" data-name="Path 6620" d="M97.48,119.507,92.719,130.59l-3.337,16.2a.711.711,0,0,1-.075.119c-1.086,1.506-6.522.668-6.522-1.594l2.989-17.3,4.3-12.7c-2.092-1.06-4.444-1.988-4.147-6.244L96.1,111.056l2.785.1A10.165,10.165,0,0,1,97.48,119.507Z" transform="translate(-72.724 -75.736)" fill="#29406a"/>
        <path id="Path_6621" data-name="Path 6621" d="M99.08,112.441a61.867,61.867,0,0,1-1.212,13.231,22.963,22.963,0,0,1-2.442.431c-3.345.415-8.965-.366-10.515-2.517l-1.48-21.055a3.6,3.6,0,0,1,2.734-2.538,6.377,6.377,0,0,1,2.417,0,33.942,33.942,0,0,1,3.871.882l.005.005q.619.178,1.207.389a16.483,16.483,0,0,1,2.9,1.333,10.5,10.5,0,0,1,2.267,1.761C98.984,107.228,99.077,109.906,99.08,112.441Z" transform="translate(-71.705 -90.25)" fill="#516a96"/>
        <g id="Group_2242" data-name="Group 2242" transform="translate(13.205 0.859)">
          <g id="Group_2241" data-name="Group 2241">
            <path id="Path_6622" data-name="Path 6622" d="M91.831,104.651c0,.046,0,.139.008.271.008.23.036.56.062.887.031.268.052.539.075.758.015.193.021.34.028.4.015.72-.593,1.163-1.078,1.465-.908.56-2.435,1.124-3.226.671a.448.448,0,0,1-.1-.067.644.644,0,0,1-.088-.08l-.018-.021a.141.141,0,0,1-.052-.062c-.026-.031-.044-.059-.064-.088l-.01-.023a.727.727,0,0,1-.1-.217c-.028-.17-.147-.766-.178-.983h-.015a.949.949,0,0,1-.155.036,1.4,1.4,0,0,1-1.106-.255.956.956,0,0,1-.173-.155,3.093,3.093,0,0,1-.624-1.279c-.075-.25-.147-.49-.206-.743a.241.241,0,0,1-.013-.054c-.108-.413-.209-.823-.3-1.243a26.491,26.491,0,0,1-.444-2.855,4.187,4.187,0,0,1,.5-2.963l.028-.034L84.607,98a1.569,1.569,0,0,1,.155-.168,4.244,4.244,0,0,1,1.514-.913,4.613,4.613,0,0,1,3.887-.023,3.789,3.789,0,0,1,1.638,2,7.249,7.249,0,0,1,.4,3.038A15.98,15.98,0,0,1,91.831,104.651Z" transform="translate(-84.004 -96.478)" fill="#ffbb7d"/>
            <path id="Path_6623" data-name="Path 6623" d="M85.2,102.2c.031.217.157.81.181.983a.928.928,0,0,0,.431.552c.088-.008.173-.026.258-.041a3.361,3.361,0,0,0,2.569-3.809,4.487,4.487,0,0,1-2.595,2.084C85.745,102.054,85.505,102.113,85.2,102.2Z" transform="translate(-82.114 -91.106)" fill="#1d1d1b" opacity="0.1"/>
          </g>
          <path id="Path_6624" data-name="Path 6624" d="M84.844,97.873a.673.673,0,0,0,.573.812,1.572,1.572,0,0,0,1.07-.309,3.958,3.958,0,0,1,.977-.57,2.019,2.019,0,0,1,2.28,1.4,5.765,5.765,0,0,1,.041,2.912c.253.021.413-.248.554-.451s.441-.4.624-.224a.421.421,0,0,1,.106.309A5.457,5.457,0,0,1,91,103.1a.981.981,0,0,1-.2.5.38.38,0,0,1-.48.108,1.149,1.149,0,0,0,1.006,1.212.4.4,0,0,0,.134.008c-.005-.132-.008-.224-.005-.271a16.21,16.21,0,0,0,.371-2.711,7.284,7.284,0,0,0-.4-3.038,3.8,3.8,0,0,0-1.643-2,4.607,4.607,0,0,0-3.884.023A4,4,0,0,0,84.238,98,.577.577,0,0,1,84.844,97.873Z" transform="translate(-83.635 -96.478)"/>
        </g>
        <path id="Path_6625" data-name="Path 6625" d="M94.893,118.891a10.164,10.164,0,0,1-1.406,8.351l-4.761,11.082-3.337,16.2a.711.711,0,0,1-.075.119c.916-7.415,2.458-14.827,1.7-17.731,2.494-3.208,4.751-6.365,4.722-10.891.926-.619,2.651-3.495-.281-6.592,2.76-2.29,2.192-9.818.946-15.258L96.1,105.66A61.867,61.867,0,0,1,94.893,118.891Z" transform="translate(-68.73 -83.47)" opacity="0.15"/>
        <path id="Path_6626" data-name="Path 6626" d="M88.641,108.337l4.609,6.409,2.615,9.651c.916,1.2,3.067.655,3.838-.722.165-4.975-.944-8.271-1.849-12.145L92.1,101.747C90.407,100.631,85.7,104.066,88.641,108.337Z" transform="translate(-64.972 -87.635)" fill="#516a96"/>
        <path id="Path_6627" data-name="Path 6627" d="M90.629,99.271a6.857,6.857,0,0,1-1.684,3.5,2.905,2.905,0,0,1-1.682,1.037c-.957.132-1.831-.493-2.762-.766a26.491,26.491,0,0,1-.444-2.855,4.187,4.187,0,0,1,.5-2.963l.028-.034.021-.018A1.568,1.568,0,0,1,84.762,97Q87.722,98.068,90.629,99.271Z" transform="translate(-70.799 -94.788)" opacity="0.1"/>
        <g id="Group_2243" data-name="Group 2243" transform="translate(10.498)">
          <path id="Path_6628" data-name="Path 6628" d="M92.087,99.665a5.079,5.079,0,0,1-.015.521l-.028.039v.005c-.034.044-.064.09-.1.134a6.151,6.151,0,0,1-.395.482,5.049,5.049,0,0,1-.678.614c-.08.059-.162.116-.245.168l-.044.028a.765.765,0,0,1-.108.067.9.9,0,0,1-.1.054l-.018.01a1.942,1.942,0,0,1-.242.124c-.077.039-.155.072-.232.106h-.005l-.021.01a.883.883,0,0,1-.124.049c-.041.018-.08.031-.126.046a.237.237,0,0,1-.064.021l-.021.008a1.241,1.241,0,0,1-.129.041l-.139.039-.083.021h-.005c-.108.028-.224.054-.34.075l-.067.01-.217.031h-.023c-.475-.294-.931-.562-1.38-.8a10.235,10.235,0,0,0-2.723-1.021l-.026,0c-.142-.026-.279-.046-.415-.062l.09-1.176.064-.807a1.6,1.6,0,0,1,.606-1.143,5.052,5.052,0,0,1,6.092-.369A3.241,3.241,0,0,1,92.087,99.665Z" transform="translate(-81.333 -96.145)" fill="#29406a"/>
          <path id="Path_6629" data-name="Path 6629" d="M91.985,99.33s-2.045,1.354-3.064,2.133a1.483,1.483,0,0,1-1.736.129l-.1-.075a5.815,5.815,0,0,0-1.625-.761l-.054-.018a5.373,5.373,0,0,0-1.359-.235,2.25,2.25,0,0,0-1.016.162c-.064.028-.106-.072-.059-.121.346-.356,1.323-1.23,1.633-1.558a8.942,8.942,0,0,1,1-.959C87.616,96.8,90.858,99.448,91.985,99.33Z" transform="translate(-82.954 -93.687)" fill="#516a96"/>
        </g>
      </g>
    </g>
    <g id="Group_2371" data-name="Group 2371" transform="translate(1236.763 1023.377)">
      <path id="Path_7102" data-name="Path 7102" d="M98.126,165.236,78.7,153.854v-5.508l-5.509-3.039-7.218.95L35.966,128.4v-4.938l-8.927-4.938v-3.419l-10.447-6.078.128-2.562,80.786,46.629v-3.823H94.621V137.621h6.721v11.651H98.408Z" transform="translate(-12.604 -21.96)" fill="#434242" fill-rule="evenodd"/>
      <path id="Path_7103" data-name="Path 7103" d="M71.687,112.1l2.466-1.24.376.337c-.185,7.982.37,8.3-2.693,8.865-.7.128-1.032.06-1.118-1.109-.066-.862-.182-5.463.522-6.441Z" transform="translate(93.89 -13.186)" fill="#3f3b4c" fill-rule="evenodd"/>
      <path id="Path_7104" data-name="Path 7104" d="M50.852,137.577l5-3.089,6.873-3.647C57.9,126.988,52.859,127.51,50.852,137.577Z" transform="translate(54.885 21.774)" fill="#2b2a29" fill-rule="evenodd"/>
      <path id="Path_7105" data-name="Path 7105" d="M16.088,105.716,98.56,209.336l44.409-28.1V128.705l-1.52-4.749L62.434,77.991l-3.989,2.66Z" transform="translate(-13.603 -77.991)" fill="#fefefe" fill-rule="evenodd"/>
      <path id="Path_7106" data-name="Path 7106" d="M42.761,159.033h2.885v-35.6l-.961-3,44.4-26.5,1.021,3.191v52.528l-30.767,19.47-2.094,1.426v.588l-11.629,6.64-2.858-2.01Z" transform="translate(38.863 -46.688)" fill="#b7cbd8" fill-rule="evenodd"/>
      <path id="Path_7107" data-name="Path 7107" d="M53.453,126.157l-7.834,4.473-2.858-2.01v-5.856l8.364-5.047Z" transform="translate(38.944 0.33)" fill="#98acb9" fill-rule="evenodd"/>
      <path id="Path_7108" data-name="Path 7108" d="M89.325,97.854l-1.337-4.176-.7-.41-44.221,26.45.462.269,1.3,4.066,44.311-25.99Z" transform="translate(39.462 -47.888)" fill="#c5d5e1" fill-rule="evenodd"/>
      <g id="Group_2369" data-name="Group 2369" transform="translate(32.42 107.016)">
        <path id="Path_7109" data-name="Path 7109" d="M33.812,114.016c-2.189,0-4.735,1.971-6.518,3.071a4.82,4.82,0,0,1,2.293-.555c4.559,0,9.7,5.609,11.474,12.527,1.431,5.558.256,10.272-2.624,11.909l0,0,4.073-2.439c2.988-1.559,4.228-6.336,2.773-11.99C43.506,119.625,38.368,114.016,33.812,114.016Z" transform="translate(-23.948 -114.016)" fill="#2b2a29" fill-rule="evenodd"/>
        <path id="Path_7110" data-name="Path 7110" d="M31.811,114.86c-4.556,0-6.81,5.609-5.03,12.527s6.918,12.527,11.474,12.527,6.81-5.609,5.03-12.527S36.37,114.86,31.811,114.86Z" transform="translate(-26.172 -112.343)" fill="#5b5b5b" fill-rule="evenodd"/>
        <path id="Path_7111" data-name="Path 7111" d="M30.851,116.321c-3.1,0-4.625,3.808-3.417,8.507s4.7,8.5,7.791,8.5,4.625-3.808,3.417-8.5S33.946,116.321,30.851,116.321Z" transform="translate(-24.49 -109.448)" fill="#d7dbdb" fill-rule="evenodd"/>
        <path id="Path_7112" data-name="Path 7112" d="M30.137,116.321l-.149,0c-2.242.817-3.226,4.13-2.2,8.1,1.178,4.577,4.577,8.289,7.592,8.289a3.171,3.171,0,0,0,1.5-.358c1.413-1.425,1.893-4.261,1.056-7.523C36.718,120.129,33.232,116.321,30.137,116.321Z" transform="translate(-23.776 -109.448)" fill="#aab5b1" fill-rule="evenodd"/>
        <path id="Path_7113" data-name="Path 7113" d="M29.775,118.211c-.99,0-1.479,1.22-1.094,2.722s1.5,2.719,2.493,2.719,1.479-1.217,1.091-2.719S30.762,118.211,29.775,118.211Z" transform="translate(-21.46 -105.702)" fill="#2b2a29" fill-rule="evenodd"/>
        <path id="Path_7114" data-name="Path 7114" d="M30.513,120.213c-.334,0-.5.411-.37.921s.51.924.847.924.5-.411.37-.924S30.849,120.213,30.513,120.213Z" transform="translate(-18.391 -101.735)" fill="#2b2a29" fill-rule="evenodd"/>
        <path id="Path_7115" data-name="Path 7115" d="M29.8,120.495c-.334,0-.5.412-.37.921s.51.924.847.924.5-.411.37-.924S30.136,120.495,29.8,120.495Z" transform="translate(-19.804 -101.176)" fill="#2b2a29" fill-rule="evenodd"/>
        <path id="Path_7116" data-name="Path 7116" d="M28.972,120.014c-.337,0-.5.412-.373.921s.513.924.847.924.5-.414.373-.924S29.309,120.014,28.972,120.014Z" transform="translate(-21.448 -102.129)" fill="#2b2a29" fill-rule="evenodd"/>
        <path id="Path_7117" data-name="Path 7117" d="M28.342,118.935c-.337,0-.5.414-.373.924s.51.924.847.924.5-.414.37-.924S28.676,118.935,28.342,118.935Z" transform="translate(-22.697 -104.267)" fill="#2b2a29" fill-rule="evenodd"/>
        <path id="Path_7118" data-name="Path 7118" d="M28.176,117.774c-.337,0-.5.415-.373.924s.51.924.847.924.5-.414.373-.924S28.513,117.774,28.176,117.774Z" transform="translate(-23.026 -106.568)" fill="#2b2a29" fill-rule="evenodd"/>
        <path id="Path_7119" data-name="Path 7119" d="M28.606,117.045c-.337,0-.5.411-.37.921s.51.924.844.924.5-.411.373-.924S28.943,117.045,28.606,117.045Z" transform="translate(-22.17 -108.013)" fill="#2b2a29" fill-rule="evenodd"/>
        <path id="Path_7120" data-name="Path 7120" d="M29.42,117.161c-.337,0-.5.411-.373.921s.51.924.847.924.5-.412.373-.924S29.757,117.161,29.42,117.161Z" transform="translate(-20.561 -107.783)" fill="#2b2a29" fill-rule="evenodd"/>
        <path id="Path_7121" data-name="Path 7121" d="M30.2,118.023c-.334,0-.5.414-.37.924s.51.924.847.924.5-.414.37-.924S30.534,118.023,30.2,118.023Z" transform="translate(-19.015 -106.075)" fill="#2b2a29" fill-rule="evenodd"/>
        <path id="Path_7122" data-name="Path 7122" d="M30.581,119.2c-.337,0-.5.411-.373.924s.51.921.847.921.5-.411.373-.921S30.915,119.2,30.581,119.2Z" transform="translate(-18.26 -103.74)" fill="#2b2a29" fill-rule="evenodd"/>
      </g>
      <path id="Path_7123" data-name="Path 7123" d="M15.255,100.956l84.9,49.575v13.486l-84.9-49Z" transform="translate(-15.255 -32.815)" fill="#7688a1" fill-rule="evenodd"/>
      <path id="Path_7124" data-name="Path 7124" d="M88,156.791V143.516L84.2,141.3v13.3l3.8,2.192ZM53.067,136.628V123.117l-3.8-2.218v13.534l3.8,2.195ZM21.9,104.922,18.1,102.7v13.743l3.8,2.192Z" transform="translate(-9.612 -29.35)" fill="#647791" fill-rule="evenodd"/>
      <path id="Path_7125" data-name="Path 7125" d="M17.739,102.406v14.006l3.8,2.195V104.624l-3.8-2.218ZM48.9,120.6v13.8l3.8,2.192v-13.77L48.9,120.6Zm34.935,33.96,3.8,2.192V143.218L83.837,141Z" transform="translate(-10.331 -29.937)" fill="#9caabd" fill-rule="evenodd"/>
      <path id="Path_7126" data-name="Path 7126" d="M15.382,131.64l84.523,50.524V137.528l-1.519-4.748L19.371,86.814l-3.989,2.66Z" transform="translate(-15.002 -60.505)" fill="#96a7b1" fill-rule="evenodd"/>
      <path id="Path_7127" data-name="Path 7127" d="M141.905,187.239,98.538,213.554c-.271-1.995-1.011-4.723-.793-7.78l-21.737-10.24V179.659H59.279v7.994l-13.362-6.3L44.9,127.147,88.024,100.7l.036.06c8.942,5.045,14.849,7,19.85,13.827,2.2,3.009,33.146,50.6,34.246,56.407l.25,7.428,1.512,1.008C144.228,185.45,144.78,183.566,141.905,187.239Z" transform="translate(42.824 -33.554)" fill="#44a3db" fill-rule="evenodd"/>
      <path id="Path_7128" data-name="Path 7128" d="M68.9,140.352l27-16.1c-.564,2.135-.227,5.364.5,11.453l9.974-6.02.069,2.06v-.066L63.277,157.438l-.23-6.808.179,5.275.015.042,11.623-6.837C74.864,144.312,72.851,141.24,68.9,140.352Z" transform="translate(78.786 13.122)" fill="#0477b3" fill-rule="evenodd"/>
      <path id="Path_7129" data-name="Path 7129" d="M98.967,105.458c2.01,2.889,12.974,19.7,21.931,34.273L75.244,167.152,49.517,135.07Z" transform="translate(51.972 -23.953)" fill="#5e5971" fill-rule="evenodd"/>
      <path id="Path_7130" data-name="Path 7130" d="M81.573,122.144a31.883,31.883,0,0,1,2.973,6.363l.182,5.367-9.974,6.02C73.119,126.211,73.453,126.96,81.573,122.144Z" transform="translate(100.434 9.046)" fill="#fefefe" fill-rule="evenodd"/>
      <path id="Path_7131" data-name="Path 7131" d="M107.261,135.627,63.894,161.941c-.271-1.995-1.011-4.723-.793-7.78l-.719-.337,45.38-27.078v.066l1.512,1.008C109.584,133.838,110.136,131.953,107.261,135.627Z" transform="translate(77.468 18.059)" fill="#56698f" fill-rule="evenodd"/>
      <path id="Path_7132" data-name="Path 7132" d="M63.068,155.745a15.728,15.728,0,0,1,.033-1.583l-.719-.337,45.38-27.078v.066l1.512,1.008.018.316Z" transform="translate(77.468 18.059)" fill="#899aba" fill-rule="evenodd"/>
      <path id="Path_7133" data-name="Path 7133" d="M112.8,137.673,92.945,106.228l-40.5,24.14,19.693,31.445Z" transform="translate(57.778 -22.419)" fill="#2b2a29" fill-rule="evenodd"/>
      <path id="Path_7134" data-name="Path 7134" d="M82.427,127.882,68.755,106.228l-4.1,2.445c.573,15.16-.945,12.884,15.485,22.507Z" transform="translate(81.967 -22.342)" fill="#898989" fill-rule="evenodd"/>
      <g id="Group_2370" data-name="Group 2370" transform="translate(107.784 150.409)">
        <path id="Path_7135" data-name="Path 7135" d="M59.187,128.626c-2.189,0-4.732,1.971-6.515,3.071a4.811,4.811,0,0,1,2.293-.555c4.556,0,9.694,5.609,11.474,12.527,1.428,5.558.256,10.269-2.627,11.906l.006.006,4.07-2.439c2.991-1.56,4.228-6.336,2.773-11.99C68.884,134.235,63.746,128.626,59.187,128.626Z" transform="translate(-49.325 -128.626)" fill="#2b2a29" fill-rule="evenodd"/>
        <path id="Path_7136" data-name="Path 7136" d="M57.189,129.47c-4.559,0-6.81,5.609-5.03,12.527s6.915,12.527,11.474,12.527,6.81-5.609,5.03-12.527S61.746,129.47,57.189,129.47Z" transform="translate(-51.55 -126.953)" fill="#5b5b5b" fill-rule="evenodd"/>
        <path id="Path_7137" data-name="Path 7137" d="M56.227,130.931c-3.1,0-4.625,3.808-3.414,8.5s4.7,8.507,7.791,8.507,4.625-3.808,3.414-8.507S59.322,130.931,56.227,130.931Z" transform="translate(-49.868 -124.058)" fill="#d7dbdb" fill-rule="evenodd"/>
        <path id="Path_7138" data-name="Path 7138" d="M55.514,130.931c-.051,0-.1,0-.149,0-2.242.817-3.223,4.13-2.2,8.1,1.178,4.577,4.577,8.289,7.595,8.289a3.189,3.189,0,0,0,1.5-.358c1.41-1.425,1.893-4.261,1.053-7.523C62.1,134.739,58.609,130.931,55.514,130.931Z" transform="translate(-49.155 -124.058)" fill="#aab5b1" fill-rule="evenodd"/>
        <path id="Path_7139" data-name="Path 7139" d="M55.151,132.821c-.99,0-1.479,1.22-1.091,2.722s1.5,2.719,2.49,2.719,1.479-1.22,1.094-2.719S56.141,132.821,55.151,132.821Z" transform="translate(-46.839 -120.312)" fill="#2b2a29" fill-rule="evenodd"/>
        <path id="Path_7140" data-name="Path 7140" d="M55.892,134.823c-.337,0-.5.411-.37.921s.51.924.844.924.5-.412.373-.924S56.229,134.823,55.892,134.823Z" transform="translate(-43.769 -116.345)" fill="#2b2a29" fill-rule="evenodd"/>
        <path id="Path_7141" data-name="Path 7141" d="M55.179,135.1c-.337,0-.5.414-.373.924s.51.924.847.924.5-.414.37-.924S55.513,135.1,55.179,135.1Z" transform="translate(-45.183 -115.788)" fill="#2b2a29" fill-rule="evenodd"/>
        <path id="Path_7142" data-name="Path 7142" d="M54.348,134.624c-.337,0-.5.411-.37.921s.51.924.847.924.5-.414.37-.924S54.685,134.624,54.348,134.624Z" transform="translate(-46.826 -116.739)" fill="#2b2a29" fill-rule="evenodd"/>
        <path id="Path_7143" data-name="Path 7143" d="M53.718,133.545c-.337,0-.5.415-.37.924s.51.924.844.924.5-.414.373-.924S54.055,133.545,53.718,133.545Z" transform="translate(-48.075 -118.877)" fill="#2b2a29" fill-rule="evenodd"/>
        <path id="Path_7144" data-name="Path 7144" d="M53.552,132.384c-.337,0-.5.414-.37.924s.51.924.847.924.5-.414.37-.924S53.889,132.384,53.552,132.384Z" transform="translate(-48.404 -121.178)" fill="#2b2a29" fill-rule="evenodd"/>
        <path id="Path_7145" data-name="Path 7145" d="M53.983,131.655c-.334,0-.5.411-.37.921s.51.924.847.924.5-.411.37-.924S54.319,131.655,53.983,131.655Z" transform="translate(-47.549 -122.623)" fill="#2b2a29" fill-rule="evenodd"/>
        <path id="Path_7146" data-name="Path 7146" d="M54.8,131.771c-.337,0-.5.412-.37.921s.51.924.847.924.5-.411.37-.924S55.133,131.771,54.8,131.771Z" transform="translate(-45.939 -122.393)" fill="#2b2a29" fill-rule="evenodd"/>
        <path id="Path_7147" data-name="Path 7147" d="M55.577,132.633c-.337,0-.5.414-.373.924s.51.924.847.924.5-.414.373-.924S55.911,132.633,55.577,132.633Z" transform="translate(-44.394 -120.685)" fill="#2b2a29" fill-rule="evenodd"/>
        <path id="Path_7148" data-name="Path 7148" d="M55.957,133.811c-.334,0-.5.412-.37.924s.51.921.847.921.5-.411.37-.921S56.293,133.811,55.957,133.811Z" transform="translate(-43.637 -118.35)" fill="#2b2a29" fill-rule="evenodd"/>
      </g>
      <path id="Path_7149" data-name="Path 7149" d="M100.7,196.038l-13.6-7.428c-2.054-15-18.529-33.614-22.537-13.1C61,173.406,44.8,165.233,43.919,162.043l.883-49.984,2.013-2.52c8.969,5.063,14.885,7.01,19.895,13.851,2.2,3.009,33.146,50.6,34.246,56.407l.25,7.428,1.512,1.008C103.027,194.249,103.579,192.365,100.7,196.038Z" transform="translate(41.104 -16.044)" fill="#0477b3" fill-rule="evenodd"/>
      <path id="Path_7150" data-name="Path 7150" d="M44.031,122.855l.054-3.077c27.94,16.507,30.37,16,54.785,35.439.072.14.146.28.215.417C91.856,151.308,54.008,128.521,44.031,122.855Z" transform="translate(41.338 4.247)" fill="#1a84c6" fill-rule="evenodd"/>
      <path id="Path_7151" data-name="Path 7151" d="M54.065,114.174l.024.03c1.3,1.774,12.613,19.087,21.892,34.166A29.345,29.345,0,0,1,64.37,144.1c-.364-7.6-2.251-10.067-10.91-24.609a23.854,23.854,0,0,0-3.173-4.315Z" transform="translate(53.738 -6.707)" fill="#3f3b4c" fill-rule="evenodd"/>
      <path id="Path_7152" data-name="Path 7152" d="M64.074,131.267a34.418,34.418,0,0,1,3.211,6.793l.185,5.457c-6.31-3.441-7.037-4.073-6.354-12.282C62.169,130.358,62.7,130.406,64.074,131.267Z" transform="translate(74.715 25.692)" fill="#ebecec" fill-rule="evenodd"/>
      <path id="Path_7153" data-name="Path 7153" d="M53.454,115.844l-7.681-4.658c.167,11.1,1.9,39.241-.376,48.347,9.13,6.921,5.516,4.974,15.738,9.193,3.638-6.4,3.593-7.869,12.968-5.415,0-20.926,1.288-17.345-10.952-37.9C60.24,120.531,58.085,119.282,53.454,115.844Z" transform="translate(44.1 -12.78)" fill="#086192" fill-rule="evenodd"/>
      <path id="Path_7154" data-name="Path 7154" d="M45.784,120.8c.009,1.038.012,2.066.009,3.077,7,4.106,17.736,10.511,27.558,16.391.006-1.2.015-2.314.021-3.34C65.756,131.984,58.9,128.432,45.784,120.8Z" transform="translate(44.865 6.384)" fill="#0973ac" fill-rule="evenodd"/>
      <path id="Path_7155" data-name="Path 7155" d="M46.079,112.63l.528-.265C62.458,122.9,64.14,126.391,70.84,144.256l-.728,1.19C42.632,128.4,47.612,136.47,46.079,112.63Z" transform="translate(45.453 -10.268)" fill="#3f3b4c" fill-rule="evenodd"/>
      <path id="Path_7156" data-name="Path 7156" d="M46.411,113.081c1.151,17.888-1.688,16.194,11.027,23.538V120.777A80.4,80.4,0,0,0,46.9,112.839l-.486.242ZM58.1,137c1.8,1.041,3.882,2.251,6.312,3.712l1.926-5.844c-2.466-6.059-4.55-9.8-8.239-13.457Z" transform="translate(46.118 -9.321)" fill="#2b2a29" fill-rule="evenodd"/>
      <path id="Path_7157" data-name="Path 7157" d="M46.025,118.241l1.157.629c.042,1.765.078,3.539.1,5.293l-1.258-.686a2.3,2.3,0,0,1-1.008-1.861V119C45.017,118.28,45.47,117.937,46.025,118.241Z" transform="translate(43.406 1.162)" fill="#086192" fill-rule="evenodd"/>
      <path id="Path_7158" data-name="Path 7158" d="M46.712,118.871c.033,1.387.063,2.779.08,4.16l-.739-.4a1.814,1.814,0,0,1-.793-1.464v-2.057c0-.567.358-.835.793-.6Z" transform="translate(43.886 1.743)" fill="#008dd2" fill-rule="evenodd"/>
      <path id="Path_7159" data-name="Path 7159" d="M65.373,145.428l-.015-.042-.179-5.275a34.452,34.452,0,0,0-3.208-6.787l6.342-3.76c5.746-.048,8.683,3.229,8.683,9.026Z" transform="translate(76.784 23.641)" fill="#fefefe" fill-rule="evenodd"/>
      <path id="Path_7160" data-name="Path 7160" d="M100.7,165.279l-13.6-7.428c-2.054-15-18.529-33.614-22.537-13.1C61,142.647,44.8,134.474,43.919,131.283l.11-6.223,5.43,2.949c.665,6,4.031,6.107,14.226,11.835.874-2.323,2-4.69,4.407-5.791,9.375-4.279,16.57,12.282,16.621,12.339l16.492,9.995v.078l1.512,1.008C103.027,163.49,103.579,161.605,100.7,165.279Z" transform="translate(41.104 14.715)" fill="#3d4b66" fill-rule="evenodd"/>
      <path id="Path_7161" data-name="Path 7161" d="M86.218,125.53,66.654,136.882C77.442,145.1,85.678,137.418,86.218,125.53Z" transform="translate(85.935 15.647)" fill="#086192" fill-rule="evenodd"/>
      <path id="Path_7162" data-name="Path 7162" d="M52.292,121.655l3.909-1.237.59.334c-.292,7.985.59,8.3-4.264,8.868-1.109.128-1.637.06-1.777-1.109-.1-.865-.289-5.463.829-6.444Z" transform="translate(54.543 5.666)" fill="#3f3b4c" fill-rule="evenodd"/>
    </g>
    <g id="Group_6255" data-name="Group 6255" transform="translate(1520.544 1039.279)">
      <path id="Path_6595-2" data-name="Path 6595" d="M110.592,122.172c7.141,4.124,7.141,10.809,0,14.933s-18.721,4.124-25.863,0-7.141-10.809,0-14.933S103.451,118.048,110.592,122.172Z" transform="translate(-71.099 -59.931)" fill="#1d1d1b" opacity="0.5"/>
      <g id="Group_2239-2" data-name="Group 2239" transform="translate(0 25.283)">
        <path id="Path_6596-2" data-name="Path 6596" d="M77.414,106.747l.01.013c.036.046.173.217.358.467.116.155.253.343.395.549l0,0a12.2,12.2,0,0,1,.872,1.465,5.418,5.418,0,0,1,.284.7,2.933,2.933,0,0,1,.083.32,3.892,3.892,0,0,0,.588-.021,3.539,3.539,0,0,0,1.978-.972l1-.232a1.937,1.937,0,0,0-.508-2.767l-1.761.168-2.721.258-.472.046Z" transform="translate(-74.193 -105.444)" fill="#ffbb7d"/>
        <path id="Path_6597-2" data-name="Path 6597" d="M76.727,110.057a.31.31,0,0,0,.121.162c.407.289,1.163-.5,1.715-1.21a4.326,4.326,0,0,0,1.5-.779c.139-.1.273-.214.4-.33l-.743-.836-1.78,1.137C77.258,108.857,76.593,109.647,76.727,110.057Z" transform="translate(-75.305 -104.184)" fill="#ffbb7d"/>
        <path id="Path_6598-2" data-name="Path 6598" d="M77.44,110.433c.456.242.725-.681,1.166-1.349a3.931,3.931,0,0,0,1.094-.573c.113-.083.222-.173.33-.268.062-.059.121-.116.181-.181l-.714-.689-.162.121L78,108.509C77.4,109.161,76.96,110.18,77.44,110.433Z" transform="translate(-74.474 -103.696)" fill="#ffbb7d"/>
        <path id="Path_6599-2" data-name="Path 6599" d="M76.452,109.374c.276.413,1.23-.286,1.9-.89a4.63,4.63,0,0,0,1.9-.658c.054-.031.108-.062.162-.1l-.583-.954-1.952.8C77.045,108.123,76.134,108.9,76.452,109.374Z" transform="translate(-75.814 -104.639)" fill="#ffbb7d"/>
        <path id="Path_6600-2" data-name="Path 6600" d="M76.165,108.323a.44.44,0,0,0,.039.16c.209.438,1.261-.111,2.009-.611a4.412,4.412,0,0,0,1.939-.315l.124-.052.028-.01-.168-.5-.175-.526-.021-.064-.451.111-.093.021-.663.162-.859.209C77.057,107.286,76.15,107.825,76.165,108.323Z" transform="translate(-76.165 -105.223)" fill="#ffbb7d"/>
        <path id="Path_6601-2" data-name="Path 6601" d="M77.161,106.819a1.993,1.993,0,0,0,1.021.3c.111,0,.235,0,.382-.008.1,0,.2-.005.325-.005,1.094.923,2.739,1.284,2.948-.531a6.719,6.719,0,0,1-.727-.248l-2.742.193Z" transform="translate(-74.592 -105.342)" fill="#1d1d1b" opacity="0.1"/>
        <path id="Path_6602-2" data-name="Path 6602" d="M82.219,106.871a7.013,7.013,0,0,1-1.733-.753.856.856,0,0,0-.7-.1,3.507,3.507,0,0,1-2.654-.072c-.459.286-.175.841.328,1.114a2.594,2.594,0,0,0,1.816.34C80.367,108.326,82.539,109.652,82.219,106.871Z" transform="translate(-75.005 -105.948)" fill="#ffbb7d"/>
        <path id="Path_6603-2" data-name="Path 6603" d="M78.184,107.123a3.028,3.028,0,0,0,1.991-.42h0a.109.109,0,0,1,.08-.034c.183.967.977,2.285,1.586,2.448a2.278,2.278,0,0,0,2.027-.756l1.083.039-1,.232a3.506,3.506,0,0,1-2.03.977l-.108.01-.059,0-.129.005h-.049c-.062,0-.126,0-.191,0a3.93,3.93,0,0,1-1.094.573c-.441.668-.709,1.591-1.166,1.349.224-.049.567-.58,1.032-1.527a2.53,2.53,0,0,0,1-.575,3.535,3.535,0,0,1-.33-.524,4.194,4.194,0,0,1-1.411.714c-.552.712-1.308,1.5-1.715,1.21a.31.31,0,0,1-.121-.162c.647.008,1.222-.539,1.777-1.295a2.7,2.7,0,0,0,1.408-.583c-.113-.222-.227-.472-.325-.717a4.457,4.457,0,0,1-1.741.567c-.673.6-1.627,1.3-1.9.89.575-.008,1.186-.609,1.965-1.21l1.612-.423a5.1,5.1,0,0,1-.23-.769,4.56,4.56,0,0,1-1.937.315c-.748.5-1.8,1.05-2.009.611a.441.441,0,0,1-.039-.16C76.732,108.234,77.529,107.737,78.184,107.123Z" transform="translate(-76.165 -104.809)" fill="#1d1d1b" opacity="0.1"/>
      </g>
      <g id="Group_2240-2" data-name="Group 2240" transform="translate(30.577 33.321) rotate(25)">
        <path id="Path_6604-2" data-name="Path 6604" d="M0,0,.134.864l.013.07L.284,2.045l-.067.792c.005.415.266.58.462.542a.249.249,0,0,0,.2-.2l.178-.947.005-.962A3.627,3.627,0,0,0,1.008.42L.7.294.1.044Z" transform="translate(3.442 4.916)" fill="#ffbb7d"/>
        <path id="Path_6605-2" data-name="Path 6605" d="M.619,0,0,.083.01.3l.031.82L.124,3.092h0c.005.415.266.58.462.542A2.024,2.024,0,0,1,.72,2.628a1.222,1.222,0,0,1,.028-.859A2.733,2.733,0,0,1,.611.549C.614.374.616.188.619,0Z" transform="translate(3.535 4.66)" fill="#1d1d1b" opacity="0.1"/>
        <path id="Path_6606-2" data-name="Path 6606" d="M1.416.165.91.106.191.023,0,0,.217.653l.3.9L.557,2.734l-.144.828c-.036.457.253.652.467.606a.271.271,0,0,0,.2-.183l.335-1.166L1.473,1.5A9,9,0,0,0,1.416.165Z" transform="translate(2.653 5.261)" fill="#ffbb7d"/>
        <path id="Path_6607-2" data-name="Path 6607" d="M.72,0,0,.093V.137L.026.766l.3.9L.366,2.847l-.144.828c-.036.457.253.653.467.606a2.243,2.243,0,0,1,.15-1.215,1.415,1.415,0,0,1,.034-1A4.564,4.564,0,0,1,.72.219Z" transform="translate(2.844 5.148)" fill="#1d1d1b" opacity="0.1"/>
        <path id="Path_6608-2" data-name="Path 6608" d="M1.473.17.758.088.137.015,0,0,.026.08.536,1.614l.041,1.23L.426,3.7a.632.632,0,0,0,.157.521.312.312,0,0,0,.539-.08L1.47,2.932l.059-1.377A9.383,9.383,0,0,0,1.473.17Z" transform="translate(1.977 6.218)" fill="#ffbb7d"/>
        <path id="Path_6609-2" data-name="Path 6609" d="M.738,0,.111.361,0,.426.511,1.96.552,3.19.4,4.049a.632.632,0,0,0,.157.521A2.126,2.126,0,0,1,.789,3.5,3.083,3.083,0,0,1,.905,2.135,4.126,4.126,0,0,1,.732.433C.735.291.735.144.738,0Z" transform="translate(2.003 5.873)" fill="#1d1d1b" opacity="0.1"/>
        <path id="Path_6610-2" data-name="Path 6610" d="M2.9,0A1.8,1.8,0,0,1,1.19,1.055,1.934,1.934,0,0,1,.112.8l.371,2.68A3.747,3.747,0,0,0,.058,5.965l.25.173.954.658.191.031.944.168A3.678,3.678,0,0,0,4.45,5.336a9.644,9.644,0,0,0-1.284-2.78Z" fill="#ffbb7d"/>
        <path id="Path_6611-2" data-name="Path 6611" d="M1.473.17.338.039.152.018.111.013,0,0,.139.42l.132.4.266.794.041,1.23L.428,3.7c-.031.382.157.591.351.629a.283.283,0,0,0,.343-.188L1.47,2.932l.062-1.377A9.4,9.4,0,0,0,1.473.17Z" transform="translate(1.136 6.543)" fill="#ffbb7d"/>
        <path id="Path_6612-2" data-name="Path 6612" d="M.271.1C.183.133.093.171,0,.218A14,14,0,0,0,.351,2.209L.2,3.406a.679.679,0,0,0,0,.206c.044.222.227.279.42.183A.851.851,0,0,0,1,3.4,5.391,5.391,0,0,0,1.31,2.067l.039-.454.028-.32L1.4,1.079,1.416.834,1.46.329A1.008,1.008,0,0,0,.271.1Z" transform="translate(0.058 5.747)" fill="#ffbb7d"/>
        <path id="Path_6613-2" data-name="Path 6613" d="M.542,0C.552.08.56.16.567.24.58.379.591.516.6.647a3.256,3.256,0,0,1-.181,1.39A2.54,2.54,0,0,1,0,3.226a.851.851,0,0,0,.374-.392A5.391,5.391,0,0,0,.689,1.5l.039-.454.266.794.041,1.23-.15.861c-.031.382.157.591.351.629a1.351,1.351,0,0,1-.01-1.38,1.879,1.879,0,0,1,.09-1.341A3.229,3.229,0,0,1,.756.725C.7.573.655.41.609.245.585.165.565.083.542,0Z" transform="translate(0.68 6.316)" fill="#1d1d1b" opacity="0.1"/>
        <path id="Path_6614-2" data-name="Path 6614" d="M.112,0,.484,2.68A3.747,3.747,0,0,0,.058,5.168,14,14,0,0,0,.409,7.159l-.152,1.2a.679.679,0,0,0,0,.206,5.154,5.154,0,0,1,.4-1.553A2.891,2.891,0,0,1,.308,5.341c.005-.1.01-.193.021-.291a2.6,2.6,0,0,1,.779-2.337A2.138,2.138,0,0,1,1.19.258,1.934,1.934,0,0,1,.112,0Z" transform="translate(0 0.797)" fill="#1d1d1b" opacity="0.1"/>
      </g>
      <g id="Group_2244-2" data-name="Group 2244" transform="translate(7.012)">
        <path id="Path_6615-2" data-name="Path 6615" d="M93.469,107.011l-1.377,7.825-.384.132-10.641,3.58a1.261,1.261,0,0,1-1.442-.451,4.084,4.084,0,0,1-.508-3.7,74.127,74.127,0,0,0,7.353-4.328l4.139-9.163,1.241,2.649Z" transform="translate(-78.884 -88.63)" fill="#516a96"/>
        <path id="Path_6616-2" data-name="Path 6616" d="M91.254,113.234l-10.641,3.58a1.261,1.261,0,0,1-1.442-.451c3.134-1.5,6.682-3.575,8.712-4.343,1.64-1.625,3-6.3,3.128-10.017Z" transform="translate(-78.43 -86.896)" opacity="0.15"/>
        <path id="Path_6617-2" data-name="Path 6617" d="M88.938,121.527l1.831,2.682-.671,2.969c-1.3,1.117-1.89,1.952-1.547,2.7a3.363,3.363,0,0,0,3.152.673c2.236-.142,3.773-4.4,4.516-6.693a4.229,4.229,0,0,0-1.694-2.066L92.659,118.9Z" transform="translate(-63.771 -60.207)"/>
        <path id="Path_6618-2" data-name="Path 6618" d="M87.256,122.629l-.7,3.572a5.484,5.484,0,0,1-2.7,2.156c-1.465.279-2.486.629-2.9,1.408a1.4,1.4,0,0,0,.17,1.486,2.651,2.651,0,0,0,2.437,1.029c2.669-.211,6.288-.73,7.229-1.617a6.708,6.708,0,0,0,.16-3.208l.908-3.786Z" transform="translate(-75.843 -54.325)"/>
        <path id="Path_6619-2" data-name="Path 6619" d="M84,113.986l3.121,13.189L95.242,138.8c1.328,1.8,6.687-.573,5.491-3.667L93.759,123.35,90.95,110.4,84,108.366Z" transform="translate(-70.797 -76.847)" fill="#1e2e4d"/>
        <path id="Path_6620-2" data-name="Path 6620" d="M97.48,119.507,92.719,130.59l-3.337,16.2a.711.711,0,0,1-.075.119c-1.086,1.506-6.522.668-6.522-1.594l2.989-17.3,4.3-12.7c-2.092-1.06-4.444-1.988-4.147-6.244L96.1,111.056l2.785.1A10.165,10.165,0,0,1,97.48,119.507Z" transform="translate(-72.724 -75.736)" fill="#29406a"/>
        <path id="Path_6621-2" data-name="Path 6621" d="M99.08,112.441a61.867,61.867,0,0,1-1.212,13.231,22.963,22.963,0,0,1-2.442.431c-3.345.415-8.965-.366-10.515-2.517l-1.48-21.055a3.6,3.6,0,0,1,2.734-2.538,6.377,6.377,0,0,1,2.417,0,33.942,33.942,0,0,1,3.871.882l.005.005q.619.178,1.207.389a16.483,16.483,0,0,1,2.9,1.333,10.5,10.5,0,0,1,2.267,1.761C98.984,107.228,99.077,109.906,99.08,112.441Z" transform="translate(-71.705 -90.25)" fill="#516a96"/>
        <g id="Group_2242-2" data-name="Group 2242" transform="translate(13.205 0.859)">
          <g id="Group_2241-2" data-name="Group 2241">
            <path id="Path_6622-2" data-name="Path 6622" d="M91.831,104.651c0,.046,0,.139.008.271.008.23.036.56.062.887.031.268.052.539.075.758.015.193.021.34.028.4.015.72-.593,1.163-1.078,1.465-.908.56-2.435,1.124-3.226.671a.448.448,0,0,1-.1-.067.644.644,0,0,1-.088-.08l-.018-.021a.141.141,0,0,1-.052-.062c-.026-.031-.044-.059-.064-.088l-.01-.023a.727.727,0,0,1-.1-.217c-.028-.17-.147-.766-.178-.983h-.015a.949.949,0,0,1-.155.036,1.4,1.4,0,0,1-1.106-.255.956.956,0,0,1-.173-.155,3.093,3.093,0,0,1-.624-1.279c-.075-.25-.147-.49-.206-.743a.241.241,0,0,1-.013-.054c-.108-.413-.209-.823-.3-1.243a26.491,26.491,0,0,1-.444-2.855,4.187,4.187,0,0,1,.5-2.963l.028-.034L84.607,98a1.569,1.569,0,0,1,.155-.168,4.244,4.244,0,0,1,1.514-.913,4.613,4.613,0,0,1,3.887-.023,3.789,3.789,0,0,1,1.638,2,7.249,7.249,0,0,1,.4,3.038A15.98,15.98,0,0,1,91.831,104.651Z" transform="translate(-84.004 -96.478)" fill="#ffbb7d"/>
            <path id="Path_6623-2" data-name="Path 6623" d="M85.2,102.2c.031.217.157.81.181.983a.928.928,0,0,0,.431.552c.088-.008.173-.026.258-.041a3.361,3.361,0,0,0,2.569-3.809,4.487,4.487,0,0,1-2.595,2.084C85.745,102.054,85.505,102.113,85.2,102.2Z" transform="translate(-82.114 -91.106)" fill="#1d1d1b" opacity="0.1"/>
          </g>
          <path id="Path_6624-2" data-name="Path 6624" d="M84.844,97.873a.673.673,0,0,0,.573.812,1.572,1.572,0,0,0,1.07-.309,3.958,3.958,0,0,1,.977-.57,2.019,2.019,0,0,1,2.28,1.4,5.765,5.765,0,0,1,.041,2.912c.253.021.413-.248.554-.451s.441-.4.624-.224a.421.421,0,0,1,.106.309A5.457,5.457,0,0,1,91,103.1a.981.981,0,0,1-.2.5.38.38,0,0,1-.48.108,1.149,1.149,0,0,0,1.006,1.212.4.4,0,0,0,.134.008c-.005-.132-.008-.224-.005-.271a16.21,16.21,0,0,0,.371-2.711,7.284,7.284,0,0,0-.4-3.038,3.8,3.8,0,0,0-1.643-2,4.607,4.607,0,0,0-3.884.023A4,4,0,0,0,84.238,98,.577.577,0,0,1,84.844,97.873Z" transform="translate(-83.635 -96.478)"/>
        </g>
        <path id="Path_6625-2" data-name="Path 6625" d="M94.893,118.891a10.164,10.164,0,0,1-1.406,8.351l-4.761,11.082-3.337,16.2a.711.711,0,0,1-.075.119c.916-7.415,2.458-14.827,1.7-17.731,2.494-3.208,4.751-6.365,4.722-10.891.926-.619,2.651-3.495-.281-6.592,2.76-2.29,2.192-9.818.946-15.258L96.1,105.66A61.867,61.867,0,0,1,94.893,118.891Z" transform="translate(-68.73 -83.47)" opacity="0.15"/>
        <path id="Path_6626-2" data-name="Path 6626" d="M.947,6.8l4.609,6.409,2.615,9.651c.916,1.2,3.067.655,3.838-.722.165-4.975-.944-8.271-1.849-12.145L4.4.213C2.714-.9-2,2.531.947,6.8Z" transform="translate(24.206 12.623) rotate(25)" fill="#516a96"/>
        <path id="Path_6627-2" data-name="Path 6627" d="M90.629,99.271a6.857,6.857,0,0,1-1.684,3.5,2.905,2.905,0,0,1-1.682,1.037c-.957.132-1.831-.493-2.762-.766a26.491,26.491,0,0,1-.444-2.855,4.187,4.187,0,0,1,.5-2.963l.028-.034.021-.018A1.568,1.568,0,0,1,84.762,97Q87.722,98.068,90.629,99.271Z" transform="translate(-70.799 -94.788)" opacity="0.1"/>
        <g id="Group_2243-2" data-name="Group 2243" transform="translate(10.498)">
          <path id="Path_6628-2" data-name="Path 6628" d="M92.087,99.665a5.079,5.079,0,0,1-.015.521l-.028.039v.005c-.034.044-.064.09-.1.134a6.151,6.151,0,0,1-.395.482,5.049,5.049,0,0,1-.678.614c-.08.059-.162.116-.245.168l-.044.028a.765.765,0,0,1-.108.067.9.9,0,0,1-.1.054l-.018.01a1.942,1.942,0,0,1-.242.124c-.077.039-.155.072-.232.106h-.005l-.021.01a.883.883,0,0,1-.124.049c-.041.018-.08.031-.126.046a.237.237,0,0,1-.064.021l-.021.008a1.241,1.241,0,0,1-.129.041l-.139.039-.083.021h-.005c-.108.028-.224.054-.34.075l-.067.01-.217.031h-.023c-.475-.294-.931-.562-1.38-.8a10.235,10.235,0,0,0-2.723-1.021l-.026,0c-.142-.026-.279-.046-.415-.062l.09-1.176.064-.807a1.6,1.6,0,0,1,.606-1.143,5.052,5.052,0,0,1,6.092-.369A3.241,3.241,0,0,1,92.087,99.665Z" transform="translate(-81.333 -96.145)" fill="#29406a"/>
          <path id="Path_6629-2" data-name="Path 6629" d="M91.985,99.33s-2.045,1.354-3.064,2.133a1.483,1.483,0,0,1-1.736.129l-.1-.075a5.815,5.815,0,0,0-1.625-.761l-.054-.018a5.373,5.373,0,0,0-1.359-.235,2.25,2.25,0,0,0-1.016.162c-.064.028-.106-.072-.059-.121.346-.356,1.323-1.23,1.633-1.558a8.942,8.942,0,0,1,1-.959C87.616,96.8,90.858,99.448,91.985,99.33Z" transform="translate(-82.954 -93.687)" fill="#516a96"/>
        </g>
      </g>
    </g>
    <g id="Group_6256" data-name="Group 6256" transform="translate(1424.438 1023.377)">
      <path id="Path_7102-2" data-name="Path 7102" d="M98.126,165.236,78.7,153.854v-5.508l-5.509-3.039-7.218.95L35.966,128.4v-4.938l-8.927-4.938v-3.419l-10.447-6.078.128-2.562,80.786,46.629v-3.823H94.621V137.621h6.721v11.651H98.408Z" transform="translate(-12.604 -21.96)" fill="#434242" fill-rule="evenodd"/>
      <path id="Path_7103-2" data-name="Path 7103" d="M71.687,112.1l2.466-1.24.376.337c-.185,7.982.37,8.3-2.693,8.865-.7.128-1.032.06-1.118-1.109-.066-.862-.182-5.463.522-6.441Z" transform="translate(93.89 -13.186)" fill="#3f3b4c" fill-rule="evenodd"/>
      <path id="Path_7104-2" data-name="Path 7104" d="M50.852,137.577l5-3.089,6.873-3.647C57.9,126.988,52.859,127.51,50.852,137.577Z" transform="translate(54.885 21.774)" fill="#2b2a29" fill-rule="evenodd"/>
      <path id="Path_7105-2" data-name="Path 7105" d="M16.088,105.716,98.56,209.336l44.409-28.1V128.705l-1.52-4.749L62.434,77.991l-3.989,2.66Z" transform="translate(-13.603 -77.991)" fill="#fefefe" fill-rule="evenodd"/>
      <path id="Path_7106-2" data-name="Path 7106" d="M42.761,159.033h2.885v-35.6l-.961-3,44.4-26.5,1.021,3.191v52.528l-30.767,19.47-2.094,1.426v.588l-11.629,6.64-2.858-2.01Z" transform="translate(38.863 -46.688)" fill="#b7cbd8" fill-rule="evenodd"/>
      <path id="Path_7107-2" data-name="Path 7107" d="M53.453,126.157l-7.834,4.473-2.858-2.01v-5.856l8.364-5.047Z" transform="translate(38.944 0.33)" fill="#98acb9" fill-rule="evenodd"/>
      <path id="Path_7108-2" data-name="Path 7108" d="M89.325,97.854l-1.337-4.176-.7-.41-44.221,26.45.462.269,1.3,4.066,44.311-25.99Z" transform="translate(39.462 -47.888)" fill="#c5d5e1" fill-rule="evenodd"/>
      <g id="Group_2369-2" data-name="Group 2369" transform="translate(32.42 107.016)">
        <path id="Path_7109-2" data-name="Path 7109" d="M33.812,114.016c-2.189,0-4.735,1.971-6.518,3.071a4.82,4.82,0,0,1,2.293-.555c4.559,0,9.7,5.609,11.474,12.527,1.431,5.558.256,10.272-2.624,11.909l0,0,4.073-2.439c2.988-1.559,4.228-6.336,2.773-11.99C43.506,119.625,38.368,114.016,33.812,114.016Z" transform="translate(-23.948 -114.016)" fill="#2b2a29" fill-rule="evenodd"/>
        <path id="Path_7110-2" data-name="Path 7110" d="M31.811,114.86c-4.556,0-6.81,5.609-5.03,12.527s6.918,12.527,11.474,12.527,6.81-5.609,5.03-12.527S36.37,114.86,31.811,114.86Z" transform="translate(-26.172 -112.343)" fill="#5b5b5b" fill-rule="evenodd"/>
        <path id="Path_7111-2" data-name="Path 7111" d="M30.851,116.321c-3.1,0-4.625,3.808-3.417,8.507s4.7,8.5,7.791,8.5,4.625-3.808,3.417-8.5S33.946,116.321,30.851,116.321Z" transform="translate(-24.49 -109.448)" fill="#d7dbdb" fill-rule="evenodd"/>
        <path id="Path_7112-2" data-name="Path 7112" d="M30.137,116.321l-.149,0c-2.242.817-3.226,4.13-2.2,8.1,1.178,4.577,4.577,8.289,7.592,8.289a3.171,3.171,0,0,0,1.5-.358c1.413-1.425,1.893-4.261,1.056-7.523C36.718,120.129,33.232,116.321,30.137,116.321Z" transform="translate(-23.776 -109.448)" fill="#aab5b1" fill-rule="evenodd"/>
        <path id="Path_7113-2" data-name="Path 7113" d="M29.775,118.211c-.99,0-1.479,1.22-1.094,2.722s1.5,2.719,2.493,2.719,1.479-1.217,1.091-2.719S30.762,118.211,29.775,118.211Z" transform="translate(-21.46 -105.702)" fill="#2b2a29" fill-rule="evenodd"/>
        <path id="Path_7114-2" data-name="Path 7114" d="M30.513,120.213c-.334,0-.5.411-.37.921s.51.924.847.924.5-.411.37-.924S30.849,120.213,30.513,120.213Z" transform="translate(-18.391 -101.735)" fill="#2b2a29" fill-rule="evenodd"/>
        <path id="Path_7115-2" data-name="Path 7115" d="M29.8,120.495c-.334,0-.5.412-.37.921s.51.924.847.924.5-.411.37-.924S30.136,120.495,29.8,120.495Z" transform="translate(-19.804 -101.176)" fill="#2b2a29" fill-rule="evenodd"/>
        <path id="Path_7116-2" data-name="Path 7116" d="M28.972,120.014c-.337,0-.5.412-.373.921s.513.924.847.924.5-.414.373-.924S29.309,120.014,28.972,120.014Z" transform="translate(-21.448 -102.129)" fill="#2b2a29" fill-rule="evenodd"/>
        <path id="Path_7117-2" data-name="Path 7117" d="M28.342,118.935c-.337,0-.5.414-.373.924s.51.924.847.924.5-.414.37-.924S28.676,118.935,28.342,118.935Z" transform="translate(-22.697 -104.267)" fill="#2b2a29" fill-rule="evenodd"/>
        <path id="Path_7118-2" data-name="Path 7118" d="M28.176,117.774c-.337,0-.5.415-.373.924s.51.924.847.924.5-.414.373-.924S28.513,117.774,28.176,117.774Z" transform="translate(-23.026 -106.568)" fill="#2b2a29" fill-rule="evenodd"/>
        <path id="Path_7119-2" data-name="Path 7119" d="M28.606,117.045c-.337,0-.5.411-.37.921s.51.924.844.924.5-.411.373-.924S28.943,117.045,28.606,117.045Z" transform="translate(-22.17 -108.013)" fill="#2b2a29" fill-rule="evenodd"/>
        <path id="Path_7120-2" data-name="Path 7120" d="M29.42,117.161c-.337,0-.5.411-.373.921s.51.924.847.924.5-.412.373-.924S29.757,117.161,29.42,117.161Z" transform="translate(-20.561 -107.783)" fill="#2b2a29" fill-rule="evenodd"/>
        <path id="Path_7121-2" data-name="Path 7121" d="M30.2,118.023c-.334,0-.5.414-.37.924s.51.924.847.924.5-.414.37-.924S30.534,118.023,30.2,118.023Z" transform="translate(-19.015 -106.075)" fill="#2b2a29" fill-rule="evenodd"/>
        <path id="Path_7122-2" data-name="Path 7122" d="M30.581,119.2c-.337,0-.5.411-.373.924s.51.921.847.921.5-.411.373-.921S30.915,119.2,30.581,119.2Z" transform="translate(-18.26 -103.74)" fill="#2b2a29" fill-rule="evenodd"/>
      </g>
      <path id="Path_7123-2" data-name="Path 7123" d="M15.255,100.956l84.9,49.575v13.486l-84.9-49Z" transform="translate(-15.255 -32.815)" fill="#7688a1" fill-rule="evenodd"/>
      <path id="Path_7124-2" data-name="Path 7124" d="M88,156.791V143.516L84.2,141.3v13.3l3.8,2.192ZM53.067,136.628V123.117l-3.8-2.218v13.534l3.8,2.195ZM21.9,104.922,18.1,102.7v13.743l3.8,2.192Z" transform="translate(-9.612 -29.35)" fill="#647791" fill-rule="evenodd"/>
      <path id="Path_7125-2" data-name="Path 7125" d="M17.739,102.406v14.006l3.8,2.195V104.624l-3.8-2.218ZM48.9,120.6v13.8l3.8,2.192v-13.77L48.9,120.6Zm34.935,33.96,3.8,2.192V143.218L83.837,141Z" transform="translate(-10.331 -29.937)" fill="#9caabd" fill-rule="evenodd"/>
      <path id="Path_7126-2" data-name="Path 7126" d="M15.382,131.64l84.523,50.524V137.528l-1.519-4.748L19.371,86.814l-3.989,2.66Z" transform="translate(-15.002 -60.505)" fill="#96a7b1" fill-rule="evenodd"/>
      <path id="Path_7127-2" data-name="Path 7127" d="M141.905,187.239,98.538,213.554c-.271-1.995-1.011-4.723-.793-7.78l-21.737-10.24V179.659H59.279v7.994l-13.362-6.3L44.9,127.147,88.024,100.7l.036.06c8.942,5.045,14.849,7,19.85,13.827,2.2,3.009,33.146,50.6,34.246,56.407l.25,7.428,1.512,1.008C144.228,185.45,144.78,183.566,141.905,187.239Z" transform="translate(42.824 -33.554)" fill="#44a3db" fill-rule="evenodd"/>
      <path id="Path_7128-2" data-name="Path 7128" d="M68.9,140.352l27-16.1c-.564,2.135-.227,5.364.5,11.453l9.974-6.02.069,2.06v-.066L63.277,157.438l-.23-6.808.179,5.275.015.042,11.623-6.837C74.864,144.312,72.851,141.24,68.9,140.352Z" transform="translate(78.786 13.122)" fill="#0477b3" fill-rule="evenodd"/>
      <path id="Path_7129-2" data-name="Path 7129" d="M98.967,105.458c2.01,2.889,12.974,19.7,21.931,34.273L75.244,167.152,49.517,135.07Z" transform="translate(51.972 -23.953)" fill="#5e5971" fill-rule="evenodd"/>
      <path id="Path_7130-2" data-name="Path 7130" d="M81.573,122.144a31.883,31.883,0,0,1,2.973,6.363l.182,5.367-9.974,6.02C73.119,126.211,73.453,126.96,81.573,122.144Z" transform="translate(100.434 9.046)" fill="#fefefe" fill-rule="evenodd"/>
      <path id="Path_7131-2" data-name="Path 7131" d="M107.261,135.627,63.894,161.941c-.271-1.995-1.011-4.723-.793-7.78l-.719-.337,45.38-27.078v.066l1.512,1.008C109.584,133.838,110.136,131.953,107.261,135.627Z" transform="translate(77.468 18.059)" fill="#56698f" fill-rule="evenodd"/>
      <path id="Path_7132-2" data-name="Path 7132" d="M63.068,155.745a15.728,15.728,0,0,1,.033-1.583l-.719-.337,45.38-27.078v.066l1.512,1.008.018.316Z" transform="translate(77.468 18.059)" fill="#899aba" fill-rule="evenodd"/>
      <path id="Path_7133-2" data-name="Path 7133" d="M112.8,137.673,92.945,106.228l-40.5,24.14,19.693,31.445Z" transform="translate(57.778 -22.419)" fill="#2b2a29" fill-rule="evenodd"/>
      <path id="Path_7134-2" data-name="Path 7134" d="M82.427,127.882,68.755,106.228l-4.1,2.445c.573,15.16-.945,12.884,15.485,22.507Z" transform="translate(81.967 -22.342)" fill="#898989" fill-rule="evenodd"/>
      <g id="Group_2370-2" data-name="Group 2370" transform="translate(107.784 150.409)">
        <path id="Path_7135-2" data-name="Path 7135" d="M59.187,128.626c-2.189,0-4.732,1.971-6.515,3.071a4.811,4.811,0,0,1,2.293-.555c4.556,0,9.694,5.609,11.474,12.527,1.428,5.558.256,10.269-2.627,11.906l.006.006,4.07-2.439c2.991-1.56,4.228-6.336,2.773-11.99C68.884,134.235,63.746,128.626,59.187,128.626Z" transform="translate(-49.325 -128.626)" fill="#2b2a29" fill-rule="evenodd"/>
        <path id="Path_7136-2" data-name="Path 7136" d="M57.189,129.47c-4.559,0-6.81,5.609-5.03,12.527s6.915,12.527,11.474,12.527,6.81-5.609,5.03-12.527S61.746,129.47,57.189,129.47Z" transform="translate(-51.55 -126.953)" fill="#5b5b5b" fill-rule="evenodd"/>
        <path id="Path_7137-2" data-name="Path 7137" d="M56.227,130.931c-3.1,0-4.625,3.808-3.414,8.5s4.7,8.507,7.791,8.507,4.625-3.808,3.414-8.507S59.322,130.931,56.227,130.931Z" transform="translate(-49.868 -124.058)" fill="#d7dbdb" fill-rule="evenodd"/>
        <path id="Path_7138-2" data-name="Path 7138" d="M55.514,130.931c-.051,0-.1,0-.149,0-2.242.817-3.223,4.13-2.2,8.1,1.178,4.577,4.577,8.289,7.595,8.289a3.189,3.189,0,0,0,1.5-.358c1.41-1.425,1.893-4.261,1.053-7.523C62.1,134.739,58.609,130.931,55.514,130.931Z" transform="translate(-49.155 -124.058)" fill="#aab5b1" fill-rule="evenodd"/>
        <path id="Path_7139-2" data-name="Path 7139" d="M55.151,132.821c-.99,0-1.479,1.22-1.091,2.722s1.5,2.719,2.49,2.719,1.479-1.22,1.094-2.719S56.141,132.821,55.151,132.821Z" transform="translate(-46.839 -120.312)" fill="#2b2a29" fill-rule="evenodd"/>
        <path id="Path_7140-2" data-name="Path 7140" d="M55.892,134.823c-.337,0-.5.411-.37.921s.51.924.844.924.5-.412.373-.924S56.229,134.823,55.892,134.823Z" transform="translate(-43.769 -116.345)" fill="#2b2a29" fill-rule="evenodd"/>
        <path id="Path_7141-2" data-name="Path 7141" d="M55.179,135.1c-.337,0-.5.414-.373.924s.51.924.847.924.5-.414.37-.924S55.513,135.1,55.179,135.1Z" transform="translate(-45.183 -115.788)" fill="#2b2a29" fill-rule="evenodd"/>
        <path id="Path_7142-2" data-name="Path 7142" d="M54.348,134.624c-.337,0-.5.411-.37.921s.51.924.847.924.5-.414.37-.924S54.685,134.624,54.348,134.624Z" transform="translate(-46.826 -116.739)" fill="#2b2a29" fill-rule="evenodd"/>
        <path id="Path_7143-2" data-name="Path 7143" d="M53.718,133.545c-.337,0-.5.415-.37.924s.51.924.844.924.5-.414.373-.924S54.055,133.545,53.718,133.545Z" transform="translate(-48.075 -118.877)" fill="#2b2a29" fill-rule="evenodd"/>
        <path id="Path_7144-2" data-name="Path 7144" d="M53.552,132.384c-.337,0-.5.414-.37.924s.51.924.847.924.5-.414.37-.924S53.889,132.384,53.552,132.384Z" transform="translate(-48.404 -121.178)" fill="#2b2a29" fill-rule="evenodd"/>
        <path id="Path_7145-2" data-name="Path 7145" d="M53.983,131.655c-.334,0-.5.411-.37.921s.51.924.847.924.5-.411.37-.924S54.319,131.655,53.983,131.655Z" transform="translate(-47.549 -122.623)" fill="#2b2a29" fill-rule="evenodd"/>
        <path id="Path_7146-2" data-name="Path 7146" d="M54.8,131.771c-.337,0-.5.412-.37.921s.51.924.847.924.5-.411.37-.924S55.133,131.771,54.8,131.771Z" transform="translate(-45.939 -122.393)" fill="#2b2a29" fill-rule="evenodd"/>
        <path id="Path_7147-2" data-name="Path 7147" d="M55.577,132.633c-.337,0-.5.414-.373.924s.51.924.847.924.5-.414.373-.924S55.911,132.633,55.577,132.633Z" transform="translate(-44.394 -120.685)" fill="#2b2a29" fill-rule="evenodd"/>
        <path id="Path_7148-2" data-name="Path 7148" d="M55.957,133.811c-.334,0-.5.412-.37.924s.51.921.847.921.5-.411.37-.921S56.293,133.811,55.957,133.811Z" transform="translate(-43.637 -118.35)" fill="#2b2a29" fill-rule="evenodd"/>
      </g>
      <path id="Path_7149-2" data-name="Path 7149" d="M100.7,196.038l-13.6-7.428c-2.054-15-18.529-33.614-22.537-13.1C61,173.406,44.8,165.233,43.919,162.043l.883-49.984,2.013-2.52c8.969,5.063,14.885,7.01,19.895,13.851,2.2,3.009,33.146,50.6,34.246,56.407l.25,7.428,1.512,1.008C103.027,194.249,103.579,192.365,100.7,196.038Z" transform="translate(41.104 -16.044)" fill="#0477b3" fill-rule="evenodd"/>
      <path id="Path_7150-2" data-name="Path 7150" d="M44.031,122.855l.054-3.077c27.94,16.507,30.37,16,54.785,35.439.072.14.146.28.215.417C91.856,151.308,54.008,128.521,44.031,122.855Z" transform="translate(41.338 4.247)" fill="#1a84c6" fill-rule="evenodd"/>
      <path id="Path_7151-2" data-name="Path 7151" d="M54.065,114.174l.024.03c1.3,1.774,12.613,19.087,21.892,34.166A29.345,29.345,0,0,1,64.37,144.1c-.364-7.6-2.251-10.067-10.91-24.609a23.854,23.854,0,0,0-3.173-4.315Z" transform="translate(53.738 -6.707)" fill="#3f3b4c" fill-rule="evenodd"/>
      <path id="Path_7152-2" data-name="Path 7152" d="M64.074,131.267a34.418,34.418,0,0,1,3.211,6.793l.185,5.457c-6.31-3.441-7.037-4.073-6.354-12.282C62.169,130.358,62.7,130.406,64.074,131.267Z" transform="translate(74.715 25.692)" fill="#ebecec" fill-rule="evenodd"/>
      <path id="Path_7153-2" data-name="Path 7153" d="M53.454,115.844l-7.681-4.658c.167,11.1,1.9,39.241-.376,48.347,9.13,6.921,5.516,4.974,15.738,9.193,3.638-6.4,3.593-7.869,12.968-5.415,0-20.926,1.288-17.345-10.952-37.9C60.24,120.531,58.085,119.282,53.454,115.844Z" transform="translate(44.1 -12.78)" fill="#086192" fill-rule="evenodd"/>
      <path id="Path_7154-2" data-name="Path 7154" d="M45.784,120.8c.009,1.038.012,2.066.009,3.077,7,4.106,17.736,10.511,27.558,16.391.006-1.2.015-2.314.021-3.34C65.756,131.984,58.9,128.432,45.784,120.8Z" transform="translate(44.865 6.384)" fill="#0973ac" fill-rule="evenodd"/>
      <path id="Path_7155-2" data-name="Path 7155" d="M46.079,112.63l.528-.265C62.458,122.9,64.14,126.391,70.84,144.256l-.728,1.19C42.632,128.4,47.612,136.47,46.079,112.63Z" transform="translate(45.453 -10.268)" fill="#3f3b4c" fill-rule="evenodd"/>
      <path id="Path_7156-2" data-name="Path 7156" d="M46.411,113.081c1.151,17.888-1.688,16.194,11.027,23.538V120.777A80.4,80.4,0,0,0,46.9,112.839l-.486.242ZM58.1,137c1.8,1.041,3.882,2.251,6.312,3.712l1.926-5.844c-2.466-6.059-4.55-9.8-8.239-13.457Z" transform="translate(46.118 -9.321)" fill="#2b2a29" fill-rule="evenodd"/>
      <path id="Path_7157-2" data-name="Path 7157" d="M46.025,118.241l1.157.629c.042,1.765.078,3.539.1,5.293l-1.258-.686a2.3,2.3,0,0,1-1.008-1.861V119C45.017,118.28,45.47,117.937,46.025,118.241Z" transform="translate(43.406 1.162)" fill="#086192" fill-rule="evenodd"/>
      <path id="Path_7158-2" data-name="Path 7158" d="M46.712,118.871c.033,1.387.063,2.779.08,4.16l-.739-.4a1.814,1.814,0,0,1-.793-1.464v-2.057c0-.567.358-.835.793-.6Z" transform="translate(43.886 1.743)" fill="#008dd2" fill-rule="evenodd"/>
      <path id="Path_7159-2" data-name="Path 7159" d="M65.373,145.428l-.015-.042-.179-5.275a34.452,34.452,0,0,0-3.208-6.787l6.342-3.76c5.746-.048,8.683,3.229,8.683,9.026Z" transform="translate(76.784 23.641)" fill="#fefefe" fill-rule="evenodd"/>
      <path id="Path_7160-2" data-name="Path 7160" d="M100.7,165.279l-13.6-7.428c-2.054-15-18.529-33.614-22.537-13.1C61,142.647,44.8,134.474,43.919,131.283l.11-6.223,5.43,2.949c.665,6,4.031,6.107,14.226,11.835.874-2.323,2-4.69,4.407-5.791,9.375-4.279,16.57,12.282,16.621,12.339l16.492,9.995v.078l1.512,1.008C103.027,163.49,103.579,161.605,100.7,165.279Z" transform="translate(41.104 14.715)" fill="#3d4b66" fill-rule="evenodd"/>
      <path id="Path_7161-2" data-name="Path 7161" d="M86.218,125.53,66.654,136.882C77.442,145.1,85.678,137.418,86.218,125.53Z" transform="translate(85.935 15.647)" fill="#086192" fill-rule="evenodd"/>
      <path id="Path_7162-2" data-name="Path 7162" d="M52.292,121.655l3.909-1.237.59.334c-.292,7.985.59,8.3-4.264,8.868-1.109.128-1.637.06-1.777-1.109-.1-.865-.289-5.463.829-6.444Z" transform="translate(54.543 5.666)" fill="#3f3b4c" fill-rule="evenodd"/>
    </g>
  </g>
</svg>
