<svg xmlns="http://www.w3.org/2000/svg" xmlns:xlink="http://www.w3.org/1999/xlink" width="298" height="180.37" viewBox="0 0 298 180.37">
  <defs>
    <linearGradient id="linear-gradient" x1="3.095" y1="0.97" x2="3.095" y2="-0.048" gradientUnits="objectBoundingBox">
      <stop offset="0" stop-color="#c6c6c6"/>
      <stop offset="1" stop-color="#b5b5b5"/>
    </linearGradient>
  </defs>
  <g id="illust-mountain-car-2" transform="translate(-472 -5080)">
    <path id="Path_6122" data-name="Path 6122" d="M6.813,8.048C5.585,3.2,3.228-.391,1.546.034S-.5,4.736.725,9.588s3.585,8.44,5.267,8.017S8.041,12.9,6.813,8.048Z" transform="translate(769.574 5223.664) rotate(-180)" fill="#d60606"/>
    <path id="Path_6123" data-name="Path 6123" d="M14.542,9.273A6.136,6.136,0,0,0,12.411.864h0A6.136,6.136,0,0,0,4,3L.863,8.265A6.137,6.137,0,0,0,3,16.674H3A6.132,6.132,0,0,0,11.4,14.543Z" transform="translate(708.932 5196.759) rotate(-180)" fill="#070000"/>
    <path id="Path_6124" data-name="Path 6124" d="M14.542,9.274A6.133,6.133,0,0,0,12.411.865h0A6.134,6.134,0,0,0,4,3L.863,8.266A6.137,6.137,0,0,0,3,16.675H3A6.133,6.133,0,0,0,11.4,14.544Z" transform="translate(655.038 5200.135) rotate(-180)" fill="#070000"/>
    <g id="Group_2203" data-name="Group 2203" transform="translate(769.924 5269.793) rotate(-180)">
      <g id="Group_2192" data-name="Group 2192" transform="translate(0 17.607)">
        <path id="Path_6125" data-name="Path 6125" d="M295.011,6.577c-.984.319-.846,3.149-.766,7.5,3.024-1.2,5.125,17.846,2.453,24.141-4.72,11.124-46.348,23.18-90.3,23.18-18.611,10.935-39.453,21.389-55.72,24.6-.9.179-6.2-1.334,1.254-5.21,13.131-6.83,40.605-19.38,18.243-19.38-78.994,0-95.6.327-97.558,4.247-8.167,13.066-33.874-2.812-45.733-7.292C11.711,52.634,2.259,50.144,4.294,42.182c1.617-6.319-.158-9.1-3.131-10.091C-2.165,30.98,2,6.216,9.227,4.313A151.46,151.46,0,0,1,31.6.712c12.568-1.1,136.39-.878,176.479.337C241.459,2.062,311.53,1.182,295.011,6.577Z" transform="translate(0 0.173)" fill="#861e29"/>
        <g id="Group_2189" data-name="Group 2189" transform="translate(3.388 0.173)">
          <path id="Path_6126" data-name="Path 6126" d="M291.623,6.577c-.511.166-.717,1.023-.787,2.406C274.258,7.19,230.47,7.436,205.981,6.712,164.976,5.5,38.311,5.274,25.455,6.374a158.259,158.259,0,0,0-22.89,3.6A5.622,5.622,0,0,0,0,11.626C1.54,7.87,3.531,4.921,5.839,4.313A151.46,151.46,0,0,1,28.214.712c12.568-1.1,136.39-.878,176.479.337C238.071,2.062,308.142,1.182,291.623,6.577Z" fill="#540c16"/>
        </g>
        <g id="Group_2190" data-name="Group 2190" transform="translate(294.189 19.582)">
          <path id="Path_6127" data-name="Path 6127" d="M.056,8.388C-.024,4.037-.162,1.207.822.885A8.15,8.15,0,0,0,2.839,0a49.723,49.723,0,0,1,.4,16.187C2.6,11.477,1.43,7.843.056,8.388Z" fill="#191919"/>
        </g>
        <g id="Group_2191" data-name="Group 2191" transform="translate(23.035 0)">
          <path id="Path_6128" data-name="Path 6128" d="M28.8,42.693A28.659,28.659,0,0,0,57.454,14.034c0-.9.179-6.9.369-14.034C34.053.06,14.995.322,8.567.885c-3.043.267-5.9.561-8.567.9C.06,7.9.14,12.9.14,14.034A28.658,28.658,0,0,0,28.8,42.693Z" transform="translate(0 0)" fill="#191919"/>
          <path id="Path_6129" data-name="Path 6129" d="M28.8,41.714A28.659,28.659,0,0,0,57.462,13.056c0-.794.062-6.2.226-12.248C42.49.348,25.159.706,9.925.244,7.225.161,3.878.08,0,0,.06,6.477.148,11.872.148,13.056A28.658,28.658,0,0,0,28.8,41.714Z" transform="translate(175.122 0.979)" fill="#191919"/>
        </g>
      </g>
      <path id="Path_6141" data-name="Path 6141" d="M0,0,3.757,6.363A4.265,4.265,0,0,0,6.677,8.445l9.507-.075c1.542,0,2.98-8.37,1.534-8.37Z" transform="translate(276.906 32.493)" fill="#2b2b2b"/>
      <path id="Path_6142" data-name="Path 6142" d="M0,0,5.029,5.169A3.842,3.842,0,0,0,8.061,6.81l20.818.683c1.542,0,1.6-6.734.151-6.734Z" transform="translate(264.16 24.116)" fill="#2b2b2b"/>
      <path id="Path_6143" data-name="Path 6143" d="M.117,24.468C19.852,19.972,39.383,9.676,55.92,0L48.9.1C26.483,16.682-2.056,22.908.117,24.468Z" transform="translate(150.679 79.173)" fill="#80c2dc"/>
      <g id="Group_2195" data-name="Group 2195" transform="translate(94.099 22.371)">
        <path id="Path_6144" data-name="Path 6144" d="M29.909,0H91.732c6.579,0,6.638,8.471,6.724,20.2.023,3.084.047,6.272.187,9.631.68,16.355.657,19.3-4.216,27.485l-.288-.171c4.821-8.1,4.844-11.031,4.167-27.3-.14-3.365-.164-6.558-.184-9.644C98.035,8.668,97.976.335,91.732.335H29.909c-7.129,0-13.77,5.5-19.738,16.353A108.96,108.96,0,0,0,1.24,39.559c-1.5,5.717-1.127,10.088,1.114,13,2.025,2.622,5.595,4.011,10.325,4.011v.337c-4.839,0-8.5-1.433-10.589-4.143-2.311-3-2.708-7.469-1.176-13.289A109.257,109.257,0,0,1,9.877,16.524C15.906,5.558,22.648,0,29.909,0Z" fill="#231f20"/>
      </g>
      <g id="Group_2196" data-name="Group 2196" transform="translate(27.698 63.966)" opacity="0.5">
        <path id="Path_6145" data-name="Path 6145" d="M219.078,5.672C134.441,5.641,86.1,7.043,28.549,0,18.889,5.431,0,3.261,0,3.261,112.751,20.883,219.078,5.672,219.078,5.672Z" fill="#fff"/>
      </g>
      <g id="Group_2197" data-name="Group 2197" transform="translate(198.205 35.964)" opacity="0.5">
        <path id="Path_6146" data-name="Path 6146" d="M25.671,29.707C38,30.561,62.232,24.442,70.181,0L57.751,2.42C49.568,24.338,35.233,25.216,26.1,24.582,11.725,23.585,1.925,11.825.071.122-1.055,14.7,11.3,28.713,25.671,29.707Z" fill="#fff"/>
      </g>
      <g id="Group_2199" data-name="Group 2199" transform="translate(255.844 30.938)" opacity="0.5">
        <path id="Path_6148" data-name="Path 6148" d="M19.329,1.828,0,5.648.628,0Z" fill="#fff"/>
      </g>
      <g id="Group_2200" data-name="Group 2200" transform="translate(255.832 20.853)" opacity="0.5">
        <path id="Path_6149" data-name="Path 6149" d="M39.179,3.5,0,2.472,9.9,0,41.292,2.563Z" transform="translate(0 0)" fill="#fff"/>
      </g>
      <ellipse id="Ellipse_150" data-name="Ellipse 150" cx="8.871" cy="1.788" rx="8.871" ry="1.788" transform="translate(95.926 64.949)" fill="#231f20"/>
      <path id="Path_6150" data-name="Path 6150" d="M0,1.189C0,.532,3.5,0,7.806,0s7.806.532,7.806,1.189S12.118,2.381,7.806,2.381,0,1.846,0,1.189Z" transform="translate(96.99 65.931)" fill="#540c16"/>
      <g id="Group_2202" data-name="Group 2202" transform="translate(176.08 72.352)">
        <path id="Path_6151" data-name="Path 6151" d="M16.708,4.475c-.688-3.5-8.05-5-11.532-4.312a6.462,6.462,0,0,0,2.5,12.679C11.155,12.154,17.4,7.977,16.708,4.475Z" fill="#200000"/>
        <g id="Group_2201" data-name="Group 2201" transform="translate(2.081 6.469)" opacity="0.5">
          <path id="Path_6152" data-name="Path 6152" d="M0,3.544A5.545,5.545,0,0,1,4.078.14a13.237,13.237,0,0,1,8.315,1.6A13.544,13.544,0,0,1,5.678,5.888,5.568,5.568,0,0,1,0,3.544Z" fill="#fff"/>
        </g>
      </g>
      <g id="wheel" transform="translate(205.84 9.423)">
        <path id="Path_14293" data-name="Path 14293" d="M0,23.051A23.05,23.05,0,1,1,23.049,46.1,23.051,23.051,0,0,1,0,23.051Z" transform="translate(0 0)" fill="#26231f"/>
        <path id="Path_14294" data-name="Path 14294" d="M0,21.766A21.766,21.766,0,1,1,21.765,43.533,21.767,21.767,0,0,1,0,21.766Z" transform="translate(1.283 1.284)" fill="#3f3932"/>
        <path id="Path_14295" data-name="Path 14295" d="M0,17.272A17.272,17.272,0,1,1,17.271,34.543,17.272,17.272,0,0,1,0,17.272Z" transform="translate(5.779 5.779)" fill="url(#linear-gradient)"/>
        <path id="Path_14296" data-name="Path 14296" d="M0,14.624A14.624,14.624,0,1,1,14.625,29.248,14.624,14.624,0,0,1,0,14.624Z" transform="translate(8.426 8.427)" fill="#a8a8a8"/>
        <path id="Path_14297" data-name="Path 14297" d="M0,10.619A10.619,10.619,0,1,1,10.62,21.238,10.619,10.619,0,0,1,0,10.619Z" transform="translate(12.431 12.432)" fill="#191919"/>
      </g>
      <g id="wheel-2" data-name="wheel" transform="translate(28.994 9.423)">
        <path id="Path_14293-2" data-name="Path 14293" d="M0,23.051A23.05,23.05,0,1,1,23.049,46.1,23.051,23.051,0,0,1,0,23.051Z" transform="translate(0 0)" fill="#26231f"/>
        <path id="Path_14294-2" data-name="Path 14294" d="M0,21.766A21.766,21.766,0,1,1,21.765,43.533,21.767,21.767,0,0,1,0,21.766Z" transform="translate(1.283 1.284)" fill="#3f3932"/>
        <path id="Path_14295-2" data-name="Path 14295" d="M0,17.272A17.272,17.272,0,1,1,17.271,34.543,17.272,17.272,0,0,1,0,17.272Z" transform="translate(5.779 5.779)" fill="url(#linear-gradient)"/>
        <path id="Path_14296-2" data-name="Path 14296" d="M0,14.624A14.624,14.624,0,1,1,14.625,29.248,14.624,14.624,0,0,1,0,14.624Z" transform="translate(8.426 8.427)" fill="#a8a8a8"/>
        <path id="Path_14297-2" data-name="Path 14297" d="M0,10.619A10.619,10.619,0,1,1,10.62,21.238,10.619,10.619,0,0,1,0,10.619Z" transform="translate(12.431 12.432)" fill="#191919"/>
      </g>
    </g>
    <g id="Group_2204" data-name="Group 2204" transform="translate(769.909 5234.13) rotate(-180)" opacity="0.5">
      <path id="Path_6153" data-name="Path 6153" d="M1.75,64.206a3.057,3.057,0,0,0,1.96.654c14.7-2.754,29.26-12.3,47.306-22.313,66.639-6.207,86.167-15.984,93.423-27.114C146.45,12.35,146.809,4.507,148.68,0c.826,4.676,2.139,13.44-.145,20.133C144.968,30.587,104.762,43.2,58.383,43.515,39.772,54.45,18.931,64.9,2.664,68.116,1.869,68.272-2.316,67.122,1.75,64.206Z" transform="translate(147.999)" fill="#fff"/>
      <path id="Path_6154" data-name="Path 6154" d="M2.507,4.748c3.3,1.106,5.8,4.1,5.688,10.735-.135,8.149,9.787,10.735,25.8,16.529C46.238,36.444,57.513,43.264,72.6,37.591c13.048-3.959,23.557-2.155,97.787-1.6,5.709.044,7.858.945,7.742,2.352-.968-.883-3.427-1.407-7.97-1.407-78.994,0-95.6.327-97.558,4.247-8.167,13.066-33.874-2.812-45.733-7.292C11.7,28.16,2.245,25.673,4.28,17.711c.7-2.73,1.687-4.626,1.238-6.391C5.062,9.5,2.837,8.183,1.149,7.62.009,7.238-.235,4.063.207,0,.822,2.627,1.624,4.452,2.507,4.748Z" transform="translate(0 6.589)" fill="#fff"/>
    </g>
    <path id="Path_6155" data-name="Path 6155" d="M25.355,4.689C27.071,2.147,26.333,0,23.636,0H8.158A8.051,8.051,0,0,0,1.364,4.689L.318,7.256c-.945,2.321.291,4.13,2.723,4.13H16.419a9.849,9.849,0,0,0,7.2-4.13Z" transform="translate(501.201 5224.79) rotate(-180)" fill="#540c16"/>
    <path id="Path_6156" data-name="Path 6156" d="M7.113,0A6.967,6.967,0,0,0,1.29,4.037L.244,6.6a2.1,2.1,0,0,0,0,1.968A2.029,2.029,0,0,0,2,9.3H15.376a8.764,8.764,0,0,0,6.332-3.673l1.734-2.568c.8-1.186.851-2.054.631-2.471C23.8.075,23.029,0,22.593,0Z" transform="translate(500.919 5224.18) rotate(-180)" fill="#fff"/>
    <path id="Path_6157" data-name="Path 6157" d="M8.995,2.168c1,1.2.839,2.168-.358,2.168h-4A6.156,6.156,0,0,1,.656,2.168h0C-.344.971-.183,0,1.014,0H5.02A6.15,6.15,0,0,1,8.995,2.168Z" transform="translate(500.408 5244.284) rotate(-180)" fill="#fff"/>
    <path id="Path_6158" data-name="Path 6158" d="M24.158,0a3.428,3.428,0,0,1-.737,2.056L21.686,4.624A8.764,8.764,0,0,1,15.354,8.3H1.977A2.029,2.029,0,0,1,.219,7.573a2.011,2.011,0,0,1-.047-1.75C9.075,6.851,18.3,6.4,24.158,0Z" transform="translate(500.898 5223.18) rotate(-180)" fill="#defcff"/>
    <path id="Path_6159" data-name="Path 6159" d="M0,2.56A6.912,6.912,0,0,1,4.914,0h9.637A78.584,78.584,0,0,1,0,2.56Z" transform="translate(498.721 5224.18) rotate(-180)" fill="#defcff"/>
    <rect id="Rectangle_377" data-name="Rectangle 377" width="298" height="180" transform="translate(472 5080)" fill="none"/>
  </g>
</svg>
