<svg xmlns="http://www.w3.org/2000/svg" width="100" height="191.985" viewBox="0 0 100 191.985">
  <g id="Group_5961" data-name="Group 5961" transform="translate(-1333.763 -8914.509)">
    <g id="Group_1818" data-name="Group 1818" transform="translate(1333.763 8922.552)">
      <g id="Group_1709" data-name="Group 1709" transform="translate(0 0)">
        <path id="Path_4521" data-name="Path 4521" d="M675.459,1333.3a14.868,14.868,0,0,1,12.069,10.331c3.3,9.618,5.809,10.114,9.908,10.416s10.317.693,11.914,5.557,5.017,7.97,11.016,7.364,11.016,7.3,6.211,15.211-9.712,1.791-16.321,7-7.171,11.352-14.311,10.726c-9.208-.8-10.621-5.4-17.827-4.705s-10.9-4.595-9.085-14.318,3.608-12.315-.463-17.123-12.9-16.175-7.131-24.31Z" transform="translate(-628.499 -1330.478)" fill="#1c2a38"/>
        <g id="Group_1092" data-name="Group 1092" transform="translate(28.832 98.811)">
          <g id="Group_1089" data-name="Group 1089" transform="translate(0 0)">
            <path id="Path_4522" data-name="Path 4522" d="M664.339,1740.815s1.429.4.772,2.466a54.9,54.9,0,0,1-4.389,7.967c-1.765,2.026-5.059.087-4.871-1.537.254-2.242,2.065-8.263,3.911-8.9Z" transform="translate(-655.844 -1666.986)" fill="#1c2a38"/>
            <g id="Group_1088" data-name="Group 1088" transform="translate(2.162)">
              <path id="Path_4523" data-name="Path 4523" d="M667.481,1674.231s-.9,2-2.7,2a2.841,2.841,0,0,1-2.293-1.428l-.828-37.2s-.966-16.669-.927-26.586.927-10.985.927-10.985l13.053,1.688s-2.367,29.166-4.457,37.082c1.4.435.053,9.5-.994,18.3C667.388,1669.485,667.481,1674.231,667.481,1674.231Z" transform="translate(-660.729 -1600.027)" fill="#ffded0"/>
            </g>
          </g>
          <g id="Group_1091" data-name="Group 1091" transform="translate(16.143 0.455)">
            <path id="Path_4524" data-name="Path 4524" d="M712.948,1741.679s-.812.823-.812,3.363c0,1.556,7.846,4.548,8.257,4.727,2.819,1.179,3.741-.714,3.555-2.375-.267-2.315-4.505-4.993-6.486-5.714Z" transform="translate(-705.087 -1667.95)" fill="#1c2a38"/>
            <g id="Group_1090" data-name="Group 1090">
              <path id="Path_4525" data-name="Path 4525" d="M702.828,1675.543a2.318,2.318,0,0,0,2.291,1.428,2.832,2.832,0,0,0,2.282-1.428s-2.266-36.929,0-58.739,0-14.344,0-14.344H695.027s1.375,26.033,3.066,37.06C695.6,1645.016,702.828,1675.543,702.828,1675.543Z" transform="translate(-695.027 -1601.226)" fill="#ffded0"/>
            </g>
          </g>
        </g>
        <path id="Path_4526" data-name="Path 4526" d="M699.948,1528.131c3.711-1.106-2.89-14.836-14.116-23.612-3.518-2.752-9.386-8.487-9.386-8.487H660.3a29.737,29.737,0,0,0-6.414,10.782c-2.156,5.954-1.027,15.911-1,23.1.007,2.245,4.159,5.594,16.011,4.41a87.424,87.424,0,0,0,15.427-3.375C694.524,1527.429,695.1,1529.579,699.948,1528.131Z" transform="translate(-624.975 -1425.229)" fill="#fadd61"/>
        <path id="Path_4527" data-name="Path 4527" d="M687.217,1400.211s-1.5,15.2-7.919,13.353c-6.347-1.83-.45-13.353-.45-13.353l1.417-10.618h5.862Z" transform="translate(-639.03 -1363.58)" fill="#ffded0"/>
        <path id="Path_4528" data-name="Path 4528" d="M687.742,1395.8a10.048,10.048,0,0,0,3.666-.724l-.579-5.486h-5.851l-.759,5.546A9.933,9.933,0,0,0,687.742,1395.8Z" transform="translate(-643.705 -1363.58)" fill="#ffded0"/>
        <g id="Group_1093" data-name="Group 1093" transform="translate(31.839 16.932)">
          <path id="Path_4529" data-name="Path 4529" d="M716.917,1370.129c-.374,1.12-1.349,1.794-2.18,1.521a1.923,1.923,0,0,1-.816-2.523c.376-1.111,1.351-1.791,2.178-1.513A1.913,1.913,0,0,1,716.917,1370.129Z" transform="translate(-692.944 -1367.551)" fill="#eda6c7"/>
          <path id="Path_4530" data-name="Path 4530" d="M663.358,1370.129c.378,1.12,1.348,1.794,2.173,1.521a1.912,1.912,0,0,0,.819-2.523c-.369-1.111-1.347-1.791-2.169-1.513A1.918,1.918,0,0,0,663.358,1370.129Z" transform="translate(-663.214 -1367.551)" fill="#eda6c7"/>
        </g>
        <path id="Path_4531" data-name="Path 4531" d="M688.423,1354.4a10.1,10.1,0,0,1-10.094,10.1h0a10.1,10.1,0,0,1-10.107-10.1v-5.269a10.1,10.1,0,0,1,10.107-10.1h0a10.1,10.1,0,0,1,10.094,10.1Z" transform="translate(-634.313 -1333.844)" fill="#ffded0"/>
        <g id="Group_1095" data-name="Group 1095" transform="translate(50.612 5.507) rotate(-3)">
          <path id="Path_4532" data-name="Path 4532" d="M30.065,2.627,23.878,25.778a4.155,4.155,0,0,1-.869,1.276L2.992,46.8a24.863,24.863,0,0,1-2.61-4.068c-1.176-2.156.737-4.254.737-4.254L17.107,21.608c.064-.057.144-.1.208-.159L27.283.737A1.682,1.682,0,0,1,30.065,2.627Z" transform="translate(0 0)" fill="#ffded0"/>
        </g>
        <g id="Group_1097" data-name="Group 1097" transform="translate(9.815 0) rotate(13)">
          <path id="Path_4534" data-name="Path 4534" d="M35.49,32.662,17.233,17.854c-.04-.042-.1-.069-.14-.115L3.112.75a1.68,1.68,0,0,0-2.8,1.858L12.658,23.274a3.773,3.773,0,0,0,.882,1.371L33.487,43.631s1.032-2.105,2.656-5.015C37.35,36.47,35.49,32.662,35.49,32.662Z" transform="translate(0 0)" fill="#ffded0"/>
        </g>
        <path id="Path_4536" data-name="Path 4536" d="M664.625,1351.829a4.751,4.751,0,0,1,2.279-4.163,3.284,3.284,0,0,0,1.9-3.7c.61.759,1.641,1.179,3.387.559,3.7-1.313,4.818,3.565,9.572,3.565,1.506,0,2.956,2.956,2.956,2.956-.058.274-.129.535-.19.785,0,0,1.6-.7,2.19-8.471.182-2.388-1.108-6.421-5.554-8.86-9.878-5.415-14.474,1.513-14.474,1.513-2.32-.117-5.6,3.354-4.444,9.511A21.027,21.027,0,0,0,664.625,1351.829Z" transform="translate(-630.668 -1329.967)" fill="#1c2a38"/>
        <path id="Path_4537" data-name="Path 4537" d="M675.888,1415.019s7.24,2.2,9.132,3.6a13.609,13.609,0,0,0-.847,11.277s-.555,2.545-2.159,8.456c-1.136,4.212-2.983,10.047-2.983,10.047H662.888s-4.356-11.713-5.661-16.853a10.948,10.948,0,0,1,2.313-6.587,17.955,17.955,0,0,0,3.286-9.937h4.693s-3.453,11.156,1.751,12.111C673.387,1427.878,675.888,1415.019,675.888,1415.019Z" transform="translate(-627.714 -1378.058)" fill="#fadd61"/>
        <path id="Path_4538" data-name="Path 4538" d="M671.064,1495.348c2.731.314,5.388.67,8.038.768a28.974,28.974,0,0,0,7.943-.644.178.178,0,0,1,.214.126.175.175,0,0,1-.066.177,10.623,10.623,0,0,1-3.9,1.724,16.785,16.785,0,0,1-4.25.417,20.8,20.8,0,0,1-4.2-.555,16.547,16.547,0,0,1-3.964-1.46.3.3,0,0,1-.12-.4.3.3,0,0,1,.294-.157Z" transform="translate(-635.794 -1425.012)" fill="#1c2a38"/>
        <g id="Group_1098" data-name="Group 1098" transform="translate(32.018 5.956)">
          <path id="Path_4539" data-name="Path 4539" d="M687.2,1352.37a13.835,13.835,0,0,0-.523-1.419,15.275,15.275,0,0,0-1.952-3.37,14.775,14.775,0,0,0-1.726-1.86c-.337-.292-.716-.554-1.08-.84l-1.214-.736-1.34-.59-1.441-.43a15.313,15.313,0,0,0-3.068-.383c-.236-.011-.575-.046-.727-.044l-.823.045a7.09,7.09,0,0,0-1.547.174,7.8,7.8,0,0,0-1.4.347,8.343,8.343,0,0,0-2.49,1.283,6.547,6.547,0,0,0-1.005.878,10.778,10.778,0,0,0-1.484,2.012,14.155,14.155,0,0,0-1.374,3.63,14.883,14.883,0,0,0-.277,1.488,8.289,8.289,0,0,1-.071-1.531,12.462,12.462,0,0,1,.784-4.024,9.74,9.74,0,0,1,1.4-2.452,8.222,8.222,0,0,1,2.413-2.117,10.056,10.056,0,0,1,3.238-1.233,8.653,8.653,0,0,1,1.693-.222l.822-.06c.4-.015.608.018.921.027a17.252,17.252,0,0,1,3.429.5c.551.177,1.094.367,1.625.561q.759.386,1.5.764c.454.316.911.608,1.328.933.385.363.78.7,1.124,1.06a12.146,12.146,0,0,1,1.65,2.255,13.34,13.34,0,0,1,1.426,3.834A8.136,8.136,0,0,1,687.2,1352.37Z" transform="translate(-663.652 -1340.911)" fill="#ffcf33"/>
        </g>
      </g>
    </g>
    <path id="Path_16355" data-name="Path 16355" d="M4.871,10.227S-.248,8.777.009,1.338C.075-.594,3.517-.826,4.647,3.3c.774,2.793-1.4,3.2.625,3.923,0,0,1.734.661,2.221.369,1.187-.725.18.778.18.778Z" transform="translate(1340.849 8914.509) rotate(13)" fill="#ffded0"/>
    <path id="Path_16354" data-name="Path 16354" d="M2.782,10.745s5.132-1.4,4.958-8.836c-.055-1.928-4.2-3.383-5.38.723-.8,2.784.317,5.013-.169,3.218-.179-.728.017-1.077-.463-1.375C.547,3.746,0,8.856,0,8.856Z" transform="translate(1411.336 8918.962) rotate(-3)" fill="#ffded0"/>
  </g>
</svg>
