<svg xmlns="http://www.w3.org/2000/svg" width="180.979" height="140.684" viewBox="0 0 180.979 140.684">
  <g id="Path_15581" data-name="Path 15581" transform="translate(27.537)" fill="#fff">
    <path d="M 125.6757659912109 139.1836090087891 L 25.71636199951172 139.1836090087891 C 22.16974258422852 139.1836090087891 18.73002815246582 138.4893188476562 15.49271869659424 137.1200561523438 C 12.36509990692139 135.7971954345703 9.555909156799316 133.903076171875 7.143146991729736 131.4903259277344 C 4.730385303497314 129.0775604248047 2.836266040802002 126.2683715820312 1.513409018516541 123.1407470703125 C 0.1441471129655838 119.9034423828125 -0.5501385927200317 116.4637222290039 -0.5501385927200317 112.917106628418 L -0.5501385927200317 88.19699096679688 L -0.5501385927200317 87.47708129882812 L -1.111781477928162 87.02674865722656 L -25.03454780578613 67.84413909912109 L -1.192400455474854 51.22515487670898 L -0.5501385927200317 50.77748870849609 L -0.5501385927200317 49.99460601806641 L -0.5501385927200317 27.76651191711426 C -0.5501385927200317 24.21989250183105 0.1441471129655838 20.78015327453613 1.513409018516541 17.54286766052246 C 2.836266040802002 14.41524887084961 4.730385303497314 11.60603523254395 7.143146991729736 9.193296432495117 C 9.555909156799316 6.780534744262695 12.36509990692139 4.886415958404541 15.49271869659424 3.56353497505188 C 18.73002815246582 2.194272994995117 22.16974258422852 1.500011205673218 25.71636199951172 1.500011205673218 L 125.6757659912109 1.500011205673218 C 129.2223815917969 1.500011205673218 132.6620941162109 2.194272994995117 135.8994140625 3.56353497505188 C 139.0270233154297 4.886415958404541 141.8362121582031 6.780534744262695 144.2489776611328 9.193296432495117 C 146.6617431640625 11.60603523254395 148.5558624267578 14.41524887084961 149.8787231445312 17.54286766052246 C 151.2479858398438 20.78015327453613 151.9422607421875 24.21989250183105 151.9422607421875 27.76651191711426 L 151.9422607421875 112.917106628418 C 151.9422607421875 116.4637222290039 151.2479858398438 119.9034423828125 149.8787231445312 123.1407470703125 C 148.5558624267578 126.2683715820312 146.6617431640625 129.0775604248047 144.2489776611328 131.4903259277344 C 141.8362121582031 133.903076171875 139.0270233154297 135.7971954345703 135.8994140625 137.1200561523438 C 132.6620941162109 138.4893188476562 129.2223815917969 139.1836090087891 125.6757659912109 139.1836090087891 Z" stroke="none"/>
    <path d="M 25.71635437011719 3 C 22.37157440185547 3 19.12844848632812 3.654403686523438 16.07704925537109 4.945053100585938 C 13.12822723388672 6.192291259765625 10.47927856445312 7.978469848632812 8.203804016113281 10.25395202636719 C 5.928329467773438 12.5294189453125 4.14215087890625 15.17837524414062 2.8948974609375 18.127197265625 C 1.604248046875 21.17859649658203 0.9498519897460938 24.42172241210938 0.9498519897460938 27.76649475097656 L 0.9498519897460938 49.99462127685547 L 0.9498519897460938 51.56037139892578 L -0.3346481323242188 52.45571899414062 L -22.53196716308594 67.92816925048828 L -0.1734237670898438 85.85649871826172 L 0.9498519897460938 86.75717163085938 L 0.9498519897460938 88.19697570800781 L 0.9498519897460938 112.9170989990234 C 0.9498519897460938 116.2618713378906 1.604248046875 119.504997253418 2.8948974609375 122.556396484375 C 4.14215087890625 125.5052185058594 5.928329467773438 128.1541748046875 8.203804016113281 130.4296417236328 C 10.47927856445312 132.7051239013672 13.12822723388672 134.4913024902344 16.07704925537109 135.7385406494141 C 19.12844848632812 137.0291900634766 22.37157440185547 137.68359375 25.71635437011719 137.68359375 L 125.6757507324219 137.68359375 C 129.0205230712891 137.68359375 132.263671875 137.0291900634766 135.3150787353516 135.7385406494141 C 138.2639007568359 134.4913024902344 140.9128265380859 132.7051239013672 143.1883239746094 130.4296417236328 C 145.4638061523438 128.1541748046875 147.2499694824219 125.5052185058594 148.4971923828125 122.5564193725586 C 149.7878570556641 119.504997253418 150.4422454833984 116.2618713378906 150.4422454833984 112.9170989990234 L 150.4422454833984 27.76649475097656 C 150.4422454833984 24.42172241210938 149.7878570556641 21.17859649658203 148.4971923828125 18.12717437744141 C 147.2499694824219 15.17837524414062 145.4638061523438 12.5294189453125 143.1883239746094 10.25395202636719 C 140.9128265380859 7.978469848632812 138.2639007568359 6.192291259765625 135.3150787353516 4.945053100585938 C 132.263671875 3.654403686523438 129.0205230712891 3 125.6757507324219 3 L 25.71635437011719 3 M 25.71635437011719 0 L 125.6757507324219 0 C 141.0107727050781 0 153.4422454833984 12.43150329589844 153.4422454833984 27.76649475097656 L 153.4422454833984 112.9170989990234 C 153.4422454833984 128.2520904541016 141.0107727050781 140.68359375 125.6757507324219 140.68359375 L 25.71635437011719 140.68359375 C 10.38134765625 140.68359375 -2.050148010253906 128.2520904541016 -2.050148010253906 112.9170989990234 L -2.050148010253906 88.19697570800781 L -27.53712463378906 67.76009368896484 L -2.050148010253906 49.99462127685547 L -2.050148010253906 27.76649475097656 C -2.050148010253906 12.43150329589844 10.38134765625 0 25.71635437011719 0 Z" stroke="none" fill="#512515"/>
  </g>
</svg>
