<svg xmlns="http://www.w3.org/2000/svg" xmlns:xlink="http://www.w3.org/1999/xlink" width="340.631" height="113.241" viewBox="0 0 340.631 113.241">
  <defs>
    <linearGradient id="linear-gradient" x1="2.269" y1="0.844" x2="2.079" y2="1.187" gradientUnits="objectBoundingBox">
      <stop offset="0" stop-color="#151e21"/>
      <stop offset="1" stop-color="#2e373a"/>
    </linearGradient>
    <linearGradient id="linear-gradient-2" x1="-5.021" y1="0.84" x2="-5.203" y2="1.17" xlink:href="#linear-gradient"/>
    <linearGradient id="linear-gradient-3" x1="3.095" y1="0.97" x2="3.095" y2="-0.048" gradientUnits="objectBoundingBox">
      <stop offset="0" stop-color="#c6c6c6"/>
      <stop offset="1" stop-color="#b5b5b5"/>
    </linearGradient>
    <linearGradient id="linear-gradient-4" x1="0.219" y1="0.642" x2="0.219" y2="1.083" gradientUnits="objectBoundingBox">
      <stop offset="0" stop-color="#fff"/>
      <stop offset="1"/>
    </linearGradient>
    <linearGradient id="linear-gradient-5" x1="-3.586" y1="0.5" x2="-4.493" y2="0.5" xlink:href="#linear-gradient-4"/>
    <linearGradient id="linear-gradient-6" x1="11.534" y1="0.964" x2="11.359" y2="0.436" xlink:href="#linear-gradient-4"/>
    <linearGradient id="linear-gradient-7" x1="5.337" y1="2.588" x2="5.337" y2="0.984" xlink:href="#linear-gradient-4"/>
    <linearGradient id="linear-gradient-8" x1="5.099" y1="0.816" x2="5.099" y2="-0.48" xlink:href="#linear-gradient-4"/>
    <linearGradient id="linear-gradient-9" x1="-11.145" y1="1.367" x2="-11.145" y2="-0.238" xlink:href="#linear-gradient-4"/>
    <linearGradient id="linear-gradient-10" x1="-10.267" y1="0.674" x2="-10.267" y2="-0.622" xlink:href="#linear-gradient-4"/>
    <linearGradient id="linear-gradient-11" x1="-2.955" y1="0.71" x2="-3.138" y2="1.259" xlink:href="#linear-gradient-4"/>
    <linearGradient id="linear-gradient-12" x1="0.323" y1="-0.236" x2="0.323" y2="1.226" xlink:href="#linear-gradient-4"/>
    <linearGradient id="linear-gradient-13" x1="-1.617" y1="-0.151" x2="-1.617" y2="0.758" xlink:href="#linear-gradient-4"/>
    <linearGradient id="linear-gradient-14" x1="-113.568" y1="0.5" x2="-112.568" y2="0.5" gradientUnits="objectBoundingBox">
      <stop offset="0" stop-color="#3c4548"/>
      <stop offset="1" stop-color="#091215"/>
    </linearGradient>
    <linearGradient id="linear-gradient-15" x1="-404.653" y1="0.5" x2="-403.653" y2="0.5" xlink:href="#linear-gradient-14"/>
    <linearGradient id="linear-gradient-16" x1="-24.958" y1="0.884" x2="-24.958" y2="-0.03" xlink:href="#linear-gradient-14"/>
    <linearGradient id="linear-gradient-17" x1="-28.842" y1="0.11" x2="-28.512" y2="0.892" gradientUnits="objectBoundingBox">
      <stop offset="0" stop-color="#555e61"/>
      <stop offset="1" stop-color="#222b2e"/>
    </linearGradient>
    <linearGradient id="linear-gradient-18" x1="-17.379" y1="0.5" x2="-16.379" y2="0.5" xlink:href="#linear-gradient-17"/>
    <linearGradient id="linear-gradient-19" x1="-25.553" y1="0.5" x2="-24.553" y2="0.5" gradientUnits="objectBoundingBox">
      <stop offset="0" stop-color="#474747"/>
      <stop offset="0.004" stop-color="#4b4b4b"/>
      <stop offset="0.026" stop-color="#616161"/>
      <stop offset="0.051" stop-color="#727272"/>
      <stop offset="0.082" stop-color="#7e7e7e"/>
      <stop offset="0.126" stop-color="#858585"/>
      <stop offset="0.249" stop-color="#878787"/>
      <stop offset="0.357" stop-color="#d3d3d3"/>
      <stop offset="0.446" stop-color="#f3f3f3"/>
      <stop offset="0.483" stop-color="#fff"/>
      <stop offset="0.558" stop-color="#fff"/>
      <stop offset="0.721" stop-color="#d3d3d3"/>
      <stop offset="0.771" stop-color="#bfbfbf"/>
      <stop offset="0.87" stop-color="#878787"/>
    </linearGradient>
    <linearGradient id="linear-gradient-20" x1="-14.402" y1="0.5" x2="-13.402" y2="0.5" gradientUnits="objectBoundingBox">
      <stop offset="0" stop-color="#706e73"/>
      <stop offset="1" stop-color="#49484b"/>
    </linearGradient>
    <linearGradient id="linear-gradient-21" x1="-32.837" y1="0.039" x2="-32.837" y2="0.995" xlink:href="#linear-gradient-19"/>
    <linearGradient id="linear-gradient-22" x1="-29.179" y1="-0.053" x2="-29.179" y2="0.979" xlink:href="#linear-gradient-19"/>
    <linearGradient id="linear-gradient-23" x1="-37.32" y1="0.5" x2="-36.32" y2="0.5" xlink:href="#linear-gradient-19"/>
    <linearGradient id="linear-gradient-24" x1="-14.209" y1="0.5" x2="-13.209" y2="0.5" xlink:href="#linear-gradient-4"/>
    <linearGradient id="linear-gradient-25" x1="31.387" y1="0.5" x2="32.387" y2="0.5" xlink:href="#linear-gradient-19"/>
    <linearGradient id="linear-gradient-26" x1="11.09" y1="0.158" x2="10.326" y2="1.15" gradientUnits="objectBoundingBox">
      <stop offset="0" stop-color="#cc191a"/>
      <stop offset="1" stop-color="#961213"/>
    </linearGradient>
  </defs>
  <g id="Group_3969" data-name="Group 3969" transform="translate(-562.472 -397.496)">
    <path id="Path_14291" data-name="Path 14291" d="M627.65,500.993a26.819,26.819,0,1,1,53.638,0v11.355l-54.142-4.459Z" transform="translate(-19.823 -23.501)" fill="url(#linear-gradient)"/>
    <path id="Path_14292" data-name="Path 14292" d="M914.3,500.993a26.819,26.819,0,1,1,53.638,0l.21,8.348-54.33,2.8Z" transform="translate(-107.687 -23.501)" fill="url(#linear-gradient-2)"/>
    <g id="wheel" transform="translate(637.948 444.543) rotate(50)">
      <path id="Path_14293" data-name="Path 14293" d="M633.254,502.678a23.492,23.492,0,1,1,23.491,23.493A23.493,23.493,0,0,1,633.254,502.678Z" transform="translate(-633.254 -479.185)" fill="#26231f"/>
      <path id="Path_14294" data-name="Path 14294" d="M635.14,503.256a22.184,22.184,0,1,1,22.183,22.184A22.184,22.184,0,0,1,635.14,503.256Z" transform="translate(-633.832 -479.763)" fill="#3f3932"/>
      <path id="Path_14295" data-name="Path 14295" d="M639.423,502.958a17.6,17.6,0,1,1,17.6,17.6A17.6,17.6,0,0,1,639.423,502.958Z" transform="translate(-633.534 -479.465)" fill="url(#linear-gradient-3)"/>
      <path id="Path_14296" data-name="Path 14296" d="M645.637,506.474a14.9,14.9,0,1,1,14.905,14.9A14.905,14.905,0,0,1,645.637,506.474Z" transform="translate(-637.049 -482.981)" fill="#a8a8a8"/>
      <path id="Path_14297" data-name="Path 14297" d="M651.523,508.278A10.823,10.823,0,1,1,662.346,519.1,10.822,10.822,0,0,1,651.523,508.278Z" transform="translate(-638.854 -484.785)" fill="#e2e2e2"/>
    </g>
    <path id="Path_14359" data-name="Path 14359" d="M563.932,466.159,562.7,455.6a16.627,16.627,0,0,0,1.767-.245c.246-.1.295-3.241.295-3.241l3.143-2.8-.1-1.719,2.21-2.357.344-11.981-1.67-.148s.442-4.321-.982-6.875a285.891,285.891,0,0,1,30.052-2.258s22.392-10.165,31.623-13.259,21.508-7.464,32.8-9.674,26.128-4.438,55.578-3.19,42.427,6.405,48.751,8.984,46.421,22.8,46.421,22.8l4.491.665,5.491-.832a38.189,38.189,0,0,0,8.153,1.331A334.97,334.97,0,0,1,875,438.537c16.721,4.327,24.417,11.079,24.417,11.079s-.986.583-.9.919,1.12,3.162,1.929,6.213a35.073,35.073,0,0,1,.965,6.345l.739.382-.27,7.915-1.568.045-.022,8.081s2.946,1.621,2.848,2.356-2.554.884-12.276,1.768c-9.2.837-28.348,2.069-30.366,2.2l-.21-8.348a26.819,26.819,0,1,0-53.638,0l-.492,11.355H661.51V477.491a26.819,26.819,0,1,0-53.638,0l-.5,6.9-.126-.01s-26.026-3.142-31.82-4.272-11.1-2.16-12.423-3.437l1.031-1.866s-1.08-4.861-1.375-5.549S563.932,466.159,563.932,466.159Z" transform="translate(-0.045 0)" fill="#f8d630"/>
    <path id="Path_14360" data-name="Path 14360" d="M563.7,482.147s-.434.668-.8,1.4a56.31,56.31,0,0,1,7.14.173c4.28.286,29.284,2.4,37,3.058a28.232,28.232,0,0,1,55.658,6.7v11.355H804.516l.493-11.387a28.234,28.234,0,0,1,56.468,0l.207,8.292c5.044-.328,20.851-1.371,28.954-2.107,9.723-.884,12.177-1.031,12.276-1.768.03-.224-.223-.529-.587-.846a11.427,11.427,0,0,1-2.241.324c-2.3.132-23.909,0-23.909,0l4.93-1.291s17.505.2,18.448.232A3.978,3.978,0,0,0,900.9,496c-.47-.291-.837-.494-.837-.494v-.653h-7.235a24.085,24.085,0,0,0,1.549-7.219l4.643-.153a41.39,41.39,0,0,0,.273-5.773c-.03-3.741-.943-4.323-.943-4.323s-21.189-2.347-28.709-7.129h0a13.14,13.14,0,0,1-2.3-1.205,6.519,6.519,0,0,1-2.028-3.46c-4.988-1.214-23.992-5.694-39.918-7.46-17.947-1.99-44.432-2.753-59.094-3.457s-72.666-2.945-86.367-3.329-43.216-.832-56.533-1.152c-9.971-.239-39.219-.443-53.288-.531l-.332,11.57-2.21,2.357.1,1.719-3.142,2.8s-.049,3.143-.3,3.241a16.614,16.614,0,0,1-1.767.245ZM742.422,457.91c-.1.65.4,1.232-1.705,1.28l-.564.01a2.443,2.443,0,0,1-1.414,1.829,11.1,11.1,0,0,1-5.994,0c-1-.451-1.854-1.144-1.983-1.791h-.79c-1.1,0-3.149-.087-3.381-.78s-.115-1.675.723-1.848c.3-.063,2.066,0,4.187.1a2.767,2.767,0,0,1,1.705-1.173,12.409,12.409,0,0,1,4.015-.232c.954.029,2.889.667,3.034,1.908C741.186,457.226,742.516,457.306,742.422,457.91ZM674.577,494.85l46.852.361,74.147.741c-1.02,3.244-7.738,2.826-13.993,2.826s-88.284-.046-98.107-.277S674.577,494.85,674.577,494.85Zm-14.558-20.4a35.756,35.756,0,0,1,9.173-1.539c4.321,0,90.018,1.3,97.948,1.807s29.445,1.6,29.445,1.6l.21.208-75.462-1.243ZM655.167,454.2c.3-.062,2.067,0,4.187.1a2.769,2.769,0,0,1,1.705-1.173,12.4,12.4,0,0,1,4.015-.231c.953.028,2.889.666,3.033,1.907.931.008,2.26.089,2.167.693-.1.649.4,1.232-1.705,1.28l-.564.01a2.44,2.44,0,0,1-1.414,1.829,11.09,11.09,0,0,1-5.994,0c-1-.451-1.854-1.143-1.983-1.791h-.79c-1.1,0-3.148-.086-3.379-.78S654.329,454.37,655.167,454.2Z" transform="translate(0 -15.988)" opacity="0.1" fill="url(#linear-gradient-4)" style="mix-blend-mode: multiply;isolation: isolate"/>
    <path id="Path_14361" data-name="Path 14361" d="M799.158,460.348c2.137.055,7.126.187,9.651.293,2.723.113,5.314.418,6.1.516h0c0,.01,0,.02,0,.031-.1.65.4,1.232-1.705,1.28s-9.647.049-10.744.049-3.149-.087-3.381-.78a1.775,1.775,0,0,1,.078-1.387Z" transform="translate(-72.489 -19.264)" opacity="0.09" style="mix-blend-mode: multiply;isolation: isolate"/>
    <path id="Path_14362" data-name="Path 14362" d="M695.124,456.868c2.137.055,7.126.187,9.65.292,2.724.114,5.314.418,6.1.516h0c0,.011,0,.021,0,.032-.1.649.4,1.232-1.705,1.28s-9.647.048-10.745.048-3.148-.086-3.379-.78a1.772,1.772,0,0,1,.077-1.387Z" transform="translate(-40.603 -18.198)" opacity="0.09" style="mix-blend-mode: multiply;isolation: isolate"/>
    <path id="Path_14363" data-name="Path 14363" d="M563.165,483.546a56.311,56.311,0,0,1,7.14.173c4.28.286,29.284,2.4,37,3.058a28.232,28.232,0,0,1,55.657,6.7v11.355H804.785l.493-11.387a28.234,28.234,0,0,1,56.469,0l.207,8.292c5.044-.328,20.851-1.371,28.954-2.107,9.722-.884,12.176-1.031,12.276-1.768.03-.224-.223-.529-.588-.846a11.41,11.41,0,0,1-2.24.324c-2.3.132-23.91,0-23.91,0l4.931-1.291s17.505.2,18.448.232a3.979,3.979,0,0,0,1.348-.281c-.47-.291-.837-.494-.837-.494l0-.653H893.1a24.1,24.1,0,0,0,1.548-7.219l4.644-.153a41.455,41.455,0,0,0,.272-5.773c-.03-3.741-.942-4.323-.942-4.323s-21.19-2.347-28.71-7.129h0a13.1,13.1,0,0,1-2.294-1.205,6.518,6.518,0,0,1-2.031-3.46c-4.986-1.214-23.991-5.694-39.917-7.46-17.947-1.99-44.431-2.753-59.092-3.457s-72.667-2.945-86.367-3.329-43.217-.832-56.534-1.152c-9.97-.239-39.218-.443-53.287-.531l-.332,11.57-2.21,2.357.1,1.719-3.143,2.8s-.049,3.143-.295,3.241a16.611,16.611,0,0,1-1.767.245S563.535,482.815,563.165,483.546ZM742.5,457.91c-.1.65.4,1.232-1.705,1.28l-.564.01a2.443,2.443,0,0,1-1.414,1.829,11.1,11.1,0,0,1-5.994,0c-1-.451-1.854-1.144-1.983-1.791h-.79c-1.1,0-3.149-.087-3.381-.78s-.115-1.675.723-1.848c.3-.063,2.066,0,4.187.1a2.767,2.767,0,0,1,1.705-1.173,12.41,12.41,0,0,1,4.015-.232c.953.029,2.889.667,3.034,1.908C741.269,457.226,742.6,457.306,742.5,457.91ZM655.25,454.2c.3-.062,2.067,0,4.187.1a2.769,2.769,0,0,1,1.705-1.173,12.4,12.4,0,0,1,4.015-.231c.953.028,2.889.666,3.033,1.907.931.008,2.26.089,2.167.693-.1.649.4,1.232-1.705,1.28l-.564.01a2.44,2.44,0,0,1-1.414,1.829,11.09,11.09,0,0,1-5.994,0c-1-.451-1.854-1.143-1.983-1.791h-.79c-1.1,0-3.149-.086-3.379-.78S654.412,454.37,655.25,454.2Z" transform="translate(-0.083 -15.988)" fill="#db9222" opacity="0.272" style="mix-blend-mode: multiply;isolation: isolate"/>
    <path id="Path_14364" data-name="Path 14364" d="M912.252,500.336a28.234,28.234,0,0,1,56.469,0l.207,8.292-1.413.092-.21-8.348a26.819,26.819,0,1,0-53.638,0l-.492,11.355h-1.417Z" transform="translate(-107.057 -22.876)" opacity="0.15" style="mix-blend-mode: multiply;isolation: isolate"/>
    <path id="Path_14366" data-name="Path 14366" d="M937.31,450.775c7.724.755,16.306,1.707,22.471,2.718,13.918,2.282,38.789,7.3,45.954,10.691s7.576,7.244,8.636,12.811a50.862,50.862,0,0,1,.791,10.77l-.019,7.428h-7.235a24.094,24.094,0,0,0,1.548-7.219l4.644-.153a41.468,41.468,0,0,0,.272-5.773c-.03-3.741-.942-4.323-.942-4.323l-5.548-3.1a14.222,14.222,0,0,0-3.252-8.052s-24.179-5.973-37.709-8.232c-7.825-1.308-19.118-2.42-29.609-3.292Z" transform="translate(-114.888 -16.33)" opacity="0.1" fill="url(#linear-gradient-5)" style="mix-blend-mode: multiply;isolation: isolate"/>
    <g id="Group_3935" data-name="Group 3935" transform="translate(605.916 449.257)">
      <path id="Path_14367" data-name="Path 14367" d="M627,493.666a28.232,28.232,0,0,1,55.657,6.7v11.355h-1.415V500.367a26.822,26.822,0,0,0-52.823-6.581Z" transform="translate(-625.694 -472.133)" opacity="0.15" style="mix-blend-mode: multiply;isolation: isolate"/>
      <path id="Path_14368" data-name="Path 14368" d="M626.04,505.835l1.413.126a26.843,26.843,0,0,0-.425,4.736l-.5,6.9-.126-.01-1.281-.155.5-6.783A28.273,28.273,0,0,1,626.04,505.835Z" transform="translate(-625.117 -482.463)" opacity="0.15" style="mix-blend-mode: multiply;isolation: isolate"/>
    </g>
    <path id="Path_14369" data-name="Path 14369" d="M564.036,506.413s-1.08-4.861-1.375-5.549a.458.458,0,0,1-.024-.1,34.018,34.018,0,0,1,6.887.167l37.365,3.31a28.266,28.266,0,0,0-.427,4.809l-.5,6.783c-5.3-.646-25.517-3.137-30.539-4.117-5.612-1.094-10.752-2.1-12.276-3.318l19.342.436-9.151-2.421Z" transform="translate(-0.051 -31.61)" opacity="0.1" style="mix-blend-mode: multiply;isolation: isolate"/>
    <path id="Path_14370" data-name="Path 14370" d="M570.481,491.883l-.176-.012a56.294,56.294,0,0,0-7.14-.173c.37-.732.8-1.4.8-1.4l-1.227-10.557a16.627,16.627,0,0,0,1.767-.245c.246-.1.295-3.241.295-3.241.881,0,1.69.01,2.464.015C567.767,478.927,569.375,487.359,570.481,491.883Z" transform="translate(-0.083 -24.14)" opacity="0.1" style="mix-blend-mode: multiply;isolation: isolate"/>
    <g id="Group_3936" data-name="Group 3936" transform="translate(562.587 469.019)">
      <path id="Path_14371" data-name="Path 14371" d="M563.38,511.831l13.355.3a16.518,16.518,0,0,0,5.159,2.368c3.832,1.032,11.04,2.646,16.05,3.742h0c-8.051-1.013-18.81-2.415-22.287-3.094C570.043,514.055,564.9,513.054,563.38,511.831Z" transform="translate(-562.865 -504.063)" opacity="0.1" style="mix-blend-mode: multiply;isolation: isolate"/>
      <path id="Path_14372" data-name="Path 14372" d="M574.1,506.613l-.757-.2h-9.307s-1.08-4.861-1.375-5.549a.458.458,0,0,1-.024-.1,34.018,34.018,0,0,1,6.887.167l1.369.121c.062.214.121.408.176.572A14.031,14.031,0,0,0,574.1,506.613Z" transform="translate(-562.638 -500.629)" opacity="0.1" style="mix-blend-mode: multiply;isolation: isolate"/>
    </g>
    <path id="Path_14373" data-name="Path 14373" d="M575.089,441.346c1.775,1.818,0,14.9,0,14.9l-.682,1.658s-3.287,3.262-4.247,4.117l-.1-1.719,2.21-2.357.344-11.981-1.67-.148s.442-4.321-.982-6.875C569.964,438.939,573.316,439.528,575.089,441.346Z" transform="translate(-2.296 -12.702)" opacity="0.3" style="mix-blend-mode: multiply;isolation: isolate"/>
    <path id="Path_14374" data-name="Path 14374" d="M573.1,463.744l.682-1.658s.239-1.765.454-4.086l11.559,4.674s.7,3.157-5.753,5.754-9.227,2.233-14.332,2.233l3.143-2.8C569.818,467.006,573.1,463.744,573.1,463.744Z" transform="translate(-0.994 -18.544)" opacity="0.1" fill="url(#linear-gradient-6)" style="mix-blend-mode: multiply;isolation: isolate"/>
    <path id="Path_14375" data-name="Path 14375" d="M695.059,458.717a2,2,0,0,1-.078-.341,9.165,9.165,0,0,0,1.868.341c.983.028,6.673.144,10.659.144,1.51,0,2.592-.021,3.355-.046-.05.349-.323.6-1.68.634-2.108.048-9.647.048-10.745.048S695.29,459.411,695.059,458.717Z" transform="translate(-40.614 -18.66)" opacity="0.15" style="mix-blend-mode: multiply;isolation: isolate"/>
    <path id="Path_14376" data-name="Path 14376" d="M710.723,456.2s-4.829-.317-8.551-.5a2.769,2.769,0,0,1,1.705-1.173,12.4,12.4,0,0,1,4.015-.231c.953.028,2.889.666,3.033,1.907Z" transform="translate(-42.818 -17.389)" opacity="0.3" fill="url(#linear-gradient-7)" style="mix-blend-mode: multiply;isolation: isolate"/>
    <path id="Path_14377" data-name="Path 14377" d="M710.5,459.937a2.441,2.441,0,0,1-1.414,1.829,11.09,11.09,0,0,1-5.994,0c-1-.451-1.854-1.143-1.984-1.791C703.186,459.974,708.247,459.97,710.5,459.937Z" transform="translate(-42.491 -19.138)" opacity="0.3" fill="url(#linear-gradient-8)" style="mix-blend-mode: multiply;isolation: isolate"/>
    <path id="Path_14378" data-name="Path 14378" d="M799.092,462.2a2.119,2.119,0,0,1-.077-.341,9.094,9.094,0,0,0,1.868.341c.983.029,6.674.145,10.66.145,1.51,0,2.592-.021,3.354-.047-.05.35-.322.6-1.68.634-2.108.049-9.647.049-10.744.049S799.324,462.891,799.092,462.2Z" transform="translate(-72.501 -19.726)" opacity="0.15" style="mix-blend-mode: multiply;isolation: isolate"/>
    <path id="Path_14379" data-name="Path 14379" d="M814.758,459.684s-4.829-.316-8.552-.5a2.767,2.767,0,0,1,1.705-1.173,12.408,12.408,0,0,1,4.015-.232c.954.029,2.889.667,3.034,1.908Z" transform="translate(-74.705 -18.455)" opacity="0.3" fill="url(#linear-gradient-9)" style="mix-blend-mode: multiply;isolation: isolate"/>
    <path id="Path_14380" data-name="Path 14380" d="M814.531,463.417a2.443,2.443,0,0,1-1.414,1.829,11.1,11.1,0,0,1-5.994,0c-1-.451-1.854-1.144-1.983-1.791C807.221,463.455,812.281,463.45,814.531,463.417Z" transform="translate(-74.378 -20.205)" opacity="0.3" fill="url(#linear-gradient-10)" style="mix-blend-mode: multiply;isolation: isolate"/>
    <path id="Path_14381" data-name="Path 14381" d="M1005.184,474.575c-1.06-5.567-1.471-9.422-8.636-12.811s-32.036-8.409-45.954-10.691-40.159-4.268-41.026-4.347a4.834,4.834,0,0,1-1.9-.818s-.118-.083-.335-.232l9.937-2.8,1.324.666,4.491.665,5.491-.831a38.188,38.188,0,0,0,8.153,1.331,334.978,334.978,0,0,1,43.928,7.737c16.721,4.327,24.417,11.079,24.417,11.079s-.986.583-.9.919,1.12,3.162,1.928,6.213a35.071,35.071,0,0,1,.965,6.346l.739.382-.27,7.915-1.472.042-.094-.04A50.972,50.972,0,0,0,1005.184,474.575Z" transform="translate(-105.701 -13.91)" opacity="0.3" fill="url(#linear-gradient-11)" style="mix-blend-mode: multiply;isolation: isolate"/>
    <path id="Path_14382" data-name="Path 14382" d="M614.982,472.359c3.754.689,17.575,1.493,21.492,1.711-.127.059-.255.117-.381.178-4.354-.245-17.494-1.023-21.148-1.692-4.324-.793-6.535-2.391-9.464-6.839l.167-.11C608.542,470,610.722,471.579,614.982,472.359Z" transform="translate(-13.183 -20.876)" opacity="0.2" style="mix-blend-mode: multiply;isolation: isolate"/>
    <g id="Group_3937" data-name="Group 3937" transform="translate(643.094 430.172)" opacity="0.2" style="mix-blend-mode: multiply;isolation: isolate">
      <path id="Path_14383" data-name="Path 14383" d="M831.162,494.5l.027-.058c.067-.143,1.678-3.516,1.678-4.879,0-.489.1-3.354.227-6.98.227-6.424.537-15.224.537-17.9,0-4.146-.377-10.124-.381-10.184l0-.026-1.4-4.241-.19.063,1.393,4.229c.019.313.378,6.112.378,10.159,0,2.669-.31,11.466-.536,17.889-.128,3.628-.229,6.495-.229,6.987,0,1.223-1.415,4.279-1.631,4.736l-120.625-1.1c-1.495-1.14-5.117-5.391-13.879-19.117-2.185-3.423-15.2-24.832-15.331-25.048l-2.3-4.415-.177.092,2.3,4.42c.135.222,13.149,21.633,15.335,25.058,8.83,13.831,12.461,18.069,13.954,19.188l.027.019h.032Z" transform="translate(-678.726 -444.613)"/>
    </g>
    <g id="Group_3938" data-name="Group 3938" transform="translate(717.986 432.175)" opacity="0.2" style="mix-blend-mode: multiply;isolation: isolate">
      <path id="Path_14384" data-name="Path 14384" d="M790.381,494.608h.2v-4.3l-.131-15.366v-1.989l-2.14-20.87-1.4-4.579-.191.059,1.4,4.561,2.136,20.841v1.98l.13,15.366Z" transform="translate(-786.718 -447.502)"/>
    </g>
    <g id="Group_3939" data-name="Group 3939" transform="translate(657.325 399.461)" opacity="0.2" style="mix-blend-mode: multiply;isolation: isolate">
      <path id="Path_14385" data-name="Path 14385" d="M796.691,407.708l.079-.184c-8.852-3.788-22.7-5.459-26.734-5.881-3.578-.374-22.268-2.173-38.858-.811a225.751,225.751,0,0,0-31.931,5.532l.05.194a225.372,225.372,0,0,1,31.9-5.526c16.569-1.361,35.246.437,38.821.811C774.042,402.263,787.865,403.931,796.691,407.708Z" transform="translate(-699.247 -400.33)"/>
    </g>
    <g id="Group_3940" data-name="Group 3940" transform="translate(807.618 431.928)" opacity="0.2" style="mix-blend-mode: multiply;isolation: isolate">
      <path id="Path_14386" data-name="Path 14386" d="M977.341,462.885l.05-.193c-.123-.032-12.414-3.228-21.016-4.4-4.576-.624-10.731-1.271-16.161-1.842-4.734-.5-8.822-.927-10.147-1.171a18.913,18.913,0,0,1-5.2-1.9l-4.42-4.889-4.428-1.346-.058.191,4.377,1.33,4.416,4.879a19.121,19.121,0,0,0,5.275,1.925c1.332.246,5.425.676,10.163,1.174,5.429.571,11.582,1.218,16.154,1.841C964.94,459.66,977.218,462.852,977.341,462.885Z" transform="translate(-915.964 -447.146)"/>
    </g>
    <path id="Path_14387" data-name="Path 14387" d="M994.969,481.2c3.031-.32,2.916-2.622,2.909-2.721l.2-.013c0,.026.14,2.592-3.087,2.931-1.053.112-3.465.148-6.212.148-4.337,0-9.507-.092-11.48-.13-.087-.069-.174-.137-.261-.205C979.8,481.263,992.182,481.489,994.969,481.2Z" transform="translate(-127.065 -24.816)" opacity="0.2" style="mix-blend-mode: multiply;isolation: isolate"/>
    <g id="Group_3941" data-name="Group 3941" transform="translate(889.655 446.259)" opacity="0.2" style="mix-blend-mode: multiply;isolation: isolate">
      <path id="Path_14388" data-name="Path 14388" d="M1034.428,472.962l1.944-3.2,2.851-1.784-.105-.169-2.9,1.829-1.956,3.22Z" transform="translate(-1034.257 -467.81)"/>
    </g>
    <path id="Path_14389" data-name="Path 14389" d="M991.806,510.9a72.949,72.949,0,0,1,10.519.415,31.418,31.418,0,0,1,5.721,1.739,18.894,18.894,0,0,0,5.735,1.553c2.888,0,16.409.282,17,.295l1.309-.491c.034.019.073.042.112.065l.034.092-1.421.534h-.019c-.141,0-14.083-.3-17.019-.3a18.991,18.991,0,0,1-5.8-1.567,31.342,31.342,0,0,0-5.685-1.729,72.766,72.766,0,0,0-10.481-.413C991.809,511.032,991.81,510.964,991.806,510.9Z" transform="translate(-131.591 -34.751)" opacity="0.2" style="mix-blend-mode: multiply;isolation: isolate"/>
    <path id="Path_14390" data-name="Path 14390" d="M693.052,414.582c17.554-8.4,29.7-8.985,42.511-9.733s35.607-.333,52.661,5.49,42.93,24.105,42.93,24.105l.246,3.6-16.148-.6a22.947,22.947,0,0,0,3.088-1.858c1.315-.952,1.86-3.356,1.86-3.356l.044-2.812c-1.178-2.54-5.8-4.583-6.85-4.536-5.124.227-5.578,3.583-5.714,6.35a5.278,5.278,0,0,0,1.134,3.991l3.628-.09a1.934,1.934,0,0,0,.21,2.214L678.41,432.385C676.5,429.723,675.5,422.985,693.052,414.582Z" transform="translate(-35.227 -2.168)" fill="#21292b"/>
    <path id="Path_14391" data-name="Path 14391" d="M614.068,426.317c3.443-1.554,22.7-10.2,31.09-13.017,6.651-2.228,14.88-5.116,23.184-7.384l5.547,2.257s-34.276,11.73-38.852,13.477C630.548,423.364,616.938,426.437,614.068,426.317Z" transform="translate(-15.814 -2.581)" fill="#141c1e"/>
    <path id="Path_14392" data-name="Path 14392" d="M668.062,406.363l4.644,1.89c-7.11,2.437-33.157,11.373-37.086,12.873a122.285,122.285,0,0,1-18.826,4.478c6.038-2.705,21.82-9.694,29.2-12.167C652.346,411.309,660.14,408.581,668.062,406.363Z" transform="translate(-16.65 -2.718)" fill="#575553"/>
    <path id="Path_14393" data-name="Path 14393" d="M886.163,434.954c-21.63-15.389-46.921-25.207-46.921-25.207l6.25-1.954c2.4.822,4.3,1.586,5.812,2.2,6.323,2.579,46.421,22.8,46.421,22.8l4.491.665C888.907,436.535,886.163,434.954,886.163,434.954Z" transform="translate(-84.83 -3.156)" fill="#141c1e"/>
    <path id="Path_14394" data-name="Path 14394" d="M885.847,433.032a251.18,251.18,0,0,0-43.1-22.567l5.612-1.754c1.581.578,2.9,1.113,4.017,1.567,5.532,2.257,36.913,18.011,44.681,21.919a55.167,55.167,0,0,1-6.622,1.363C887.313,433.9,885.847,433.032,885.847,433.032Z" transform="translate(-85.906 -3.437)" fill="#575553"/>
    <path id="Path_14395" data-name="Path 14395" d="M690.137,429.2c1.556-2.141,12.145-8.549,14.193-9.776l2.022,17-13.647-.5C688.532,435.63,688.668,431.222,690.137,429.2Z" transform="translate(-38.843 -6.721)" fill="#3d4b4f"/>
    <path id="Path_14396" data-name="Path 14396" d="M746.039,406.928l.643-.037c2.76-.162,5.692-.249,8.719-.268l3.834,27.557-43.312-1.6-2.51-19.8C725.984,408.1,735.78,407.526,746.039,406.928Z" transform="translate(-46.264 -2.797)" fill="#3d4b4f"/>
    <path id="Path_14397" data-name="Path 14397" d="M820.154,412.334c7.511,2.564,16.842,7.638,24.855,12.457l-.1.824c-4.3.556-4.708,3.675-4.837,6.275a5.278,5.278,0,0,0,1.134,3.991l2.422-.06-.089.713-53.725-1.986-6.736-27.841C793.1,406.972,807.905,408.151,820.154,412.334Z" transform="translate(-67.615 -2.823)" fill="#3d4b4f"/>
    <path id="Path_14398" data-name="Path 14398" d="M746.682,406.89c2.76-.162,5.692-.249,8.719-.268l1.18,8.484c-13.545-.539-28.128-.615-42.853.157l-.316-2.488c12.571-4.676,22.367-5.25,32.626-5.848Z" transform="translate(-46.264 -2.797)" opacity="0.3" fill="url(#linear-gradient-12)" style="mix-blend-mode: screen;isolation: isolate"/>
    <path id="Path_14399" data-name="Path 14399" d="M837.771,420.6c-10.915-1.569-29.965-3.932-52.578-5.128l-2.119-8.763c10.03.266,24.831,1.445,37.08,5.628A115.563,115.563,0,0,1,837.771,420.6Z" transform="translate(-67.615 -2.823)" opacity="0.3" fill="url(#linear-gradient-13)" style="mix-blend-mode: screen;isolation: isolate"/>
    <path id="Path_14401" data-name="Path 14401" d="M1046.591,473.569c.089.336,1.12,3.162,1.928,6.213a35.068,35.068,0,0,1,.965,6.346,2.493,2.493,0,0,1-1.1-1.6c-.195-1.072-1.48-6.22-1.947-7.844s-1.831-3.736,1.05-4.038C1047.487,472.65,1046.5,473.233,1046.591,473.569Z" transform="translate(-148.111 -23.035)" fill="url(#linear-gradient-14)"/>
    <path id="Path_14402" data-name="Path 14402" d="M1048.037,511.177c-.011-.93,1.062-6.983,1.062-6.983h0l-.02,8.025S1048.049,512.106,1048.037,511.177Z" transform="translate(-148.826 -32.703)" fill="url(#linear-gradient-15)"/>
    <path id="Path_14403" data-name="Path 14403" d="M1034.336,504.414h-12.942c-1.9,0-2.777.985-2.9,2.115s1.807,3.391,5.671,4.484a27.234,27.234,0,0,0,8.624.62A24.1,24.1,0,0,0,1034.336,504.414Z" transform="translate(-139.769 -32.77)" fill="url(#linear-gradient-16)"/>
    <path id="Path_14404" data-name="Path 14404" d="M866.388,444.2a5.278,5.278,0,0,1-1.134-3.991c.137-2.767.591-6.124,5.714-6.35a1.916,1.916,0,0,1,.466.061c-.543.112-4.032.923-4.366,3.431a17.884,17.884,0,0,0,.268,6.825Z" transform="translate(-92.8 -11.146)" fill="url(#linear-gradient-17)"/>
    <path id="Path_14405" data-name="Path 14405" d="M868.064,447.314a12.148,12.148,0,0,1-.451-3.2l10.89-.03,0,.257s-.544,2.4-1.86,3.356-3.721,2.359-4.673,2.4-2-1.9-1.225-2.857Z" transform="translate(-93.526 -14.28)" fill="url(#linear-gradient-18)"/>
    <path id="Path_14406" data-name="Path 14406" d="M867.687,440.272H872.6a2.421,2.421,0,0,1,2.264,2.651l-7.253.022A22.782,22.782,0,0,1,867.687,440.272Z" transform="translate(-93.522 -13.111)" fill="url(#linear-gradient-19)"/>
    <path id="Path_14407" data-name="Path 14407" d="M869.98,440.225H879.2c.02.041.047.081.067.123l-.042,2.555h-3.637a2.42,2.42,0,0,0-2.264-2.646H869.98Z" transform="translate(-94.252 -13.096)" opacity="0.2" style="mix-blend-mode: multiply;isolation: isolate"/>
    <path id="Path_14408" data-name="Path 14408" d="M877.646,448.366c-1.35.94-3.52,2.179-4.414,2.221-.952.046-2-1.9-1.225-2.857l-.173,0,.16-.1s4.181-.6,5.931-1.967A6.835,6.835,0,0,0,877.646,448.366Z" transform="translate(-94.791 -14.763)" opacity="0.4" style="mix-blend-mode: multiply;isolation: isolate"/>
    <path id="Path_14411" data-name="Path 14411" d="M1023.65,472.375a14.121,14.121,0,0,1,3.28,8.518s-8.982-.5-12.618-1.069-11.334-3.457-12.866-4.633a6.3,6.3,0,0,1-2.069-3.814,8.326,8.326,0,0,1,4.278-1.676C1005.331,469.738,1019.338,471.27,1023.65,472.375Z" transform="translate(-133.91 -22.131)" fill="#414e52"/>
    <path id="Path_14412" data-name="Path 14412" d="M1026.758,480.718a14,14,0,0,0-3.14-7.965c-4.266-1.066-18.064-2.6-19.847-2.643h-.054a8.633,8.633,0,0,0-3.947,1.51,6.407,6.407,0,0,0,1.969,3.471c1.529,1.174,9.147,4.015,12.738,4.578C1017.678,480.172,1025.147,480.624,1026.758,480.718Z" transform="translate(-134.033 -22.256)" fill="url(#linear-gradient-20)"/>
    <path id="Path_14413" data-name="Path 14413" d="M1019.833,471.628c2.464.314,4.962.665,6.974,1.006a54.9,54.9,0,0,1,5.07,8.488c-1.786-.11-5.039-.325-7.81-.586C1022.932,477.734,1020.99,473.871,1019.833,471.628Z" transform="translate(-140.182 -22.721)" fill="url(#linear-gradient-21)"/>
    <path id="Path_14414" data-name="Path 14414" d="M1007.234,470.225c1.825.157,5.238.526,8.736.972,1.158,2.243,3.1,6.106,4.236,8.908-1.331-.125-2.551-.26-3.44-.4a34.542,34.542,0,0,1-4.75-1.239A51.442,51.442,0,0,0,1007.234,470.225Z" transform="translate(-136.32 -22.291)" fill="url(#linear-gradient-22)"/>
    <path id="Path_14415" data-name="Path 14415" d="M1024.154,477.194c.7,2.1,1.683,3.667,2.186,3.5s.338-2.008-.367-4.109-1.685-3.667-2.187-3.5S1023.448,475.093,1024.154,477.194Z" transform="translate(-141.304 -23.164)" fill="#fff"/>
    <path id="Path_14416" data-name="Path 14416" d="M1013.974,475.664c.706,2.1,1.685,3.667,2.187,3.5s.339-2.009-.367-4.11-1.685-3.667-2.187-3.5S1013.27,473.564,1013.974,475.664Z" transform="translate(-138.184 -22.695)" fill="#fff"/>
    <path id="Path_14417" data-name="Path 14417" d="M1003.718,470.11h.054c.22,0,.626.033,1.175.08a51.4,51.4,0,0,1,4.782,8.242c-3.381-1.091-6.988-2.572-7.988-3.341a6.407,6.407,0,0,1-1.969-3.471A8.633,8.633,0,0,1,1003.718,470.11Z" transform="translate(-134.033 -22.256)" fill="url(#linear-gradient-23)"/>
    <path id="Path_14418" data-name="Path 14418" d="M1003.718,470.11h.054c.22,0,.626.033,1.175.08a51.4,51.4,0,0,1,4.782,8.242c-3.381-1.091-6.988-2.572-7.988-3.341a6.407,6.407,0,0,1-1.969-3.471A8.633,8.633,0,0,1,1003.718,470.11Z" transform="translate(-134.033 -22.256)" fill="#f4872a" opacity="0.3"/>
    <path id="Path_14419" data-name="Path 14419" d="M1026.758,480.718a14,14,0,0,0-3.14-7.965c-4.266-1.066-18.064-2.6-19.847-2.643h-.054a8.633,8.633,0,0,0-3.947,1.51,6.407,6.407,0,0,0,1.969,3.471c1.529,1.174,9.147,4.015,12.738,4.578C1017.678,480.172,1025.147,480.624,1026.758,480.718Z" transform="translate(-134.033 -22.256)" opacity="0.7" fill="url(#linear-gradient-24)" style="mix-blend-mode: screen;isolation: isolate"/>
    <path id="Path_14420" data-name="Path 14420" d="M1003.772,470.11c1.783.038,15.581,1.577,19.847,2.643a14.038,14.038,0,0,1,2.122,3.554,113.231,113.231,0,0,0-25.578-3.438,5.941,5.941,0,0,1-.391-1.249,8.633,8.633,0,0,1,3.947-1.51Z" transform="translate(-134.033 -22.256)" fill="#fff" opacity="0.5" style="mix-blend-mode: screen;isolation: isolate"/>
    <path id="Path_14421" data-name="Path 14421" d="M579.424,440.376s2.662,1.721,4.572,3.146,5.11,2.851,6.106,3.846,6.75,10.839,6.75,10.839l-20.764.135s-.78-10.57-.618-12.157,1.075-5.379,1.075-5.379Z" transform="translate(-3.977 -13.143)" fill="#414e52"/>
    <path id="Path_14422" data-name="Path 14422" d="M576.544,440.828l2.542-.38.273.245c.479.312,2.782,1.82,4.467,3.078a31.951,31.951,0,0,0,3.228,1.992,16.489,16.489,0,0,1,2.847,1.828c.736.736,4.41,6.867,6.459,10.359l-20.3.118c-.123-1.712-.742-10.432-.6-11.861C575.63,444.62,576.544,440.828,576.544,440.828Z" transform="translate(-3.977 -13.165)" fill="#9d0000"/>
    <path id="Path_14423" data-name="Path 14423" d="M583.708,454.081h-8.071c-.137-2.4-.236-4.66-.168-5.328C575.469,448.753,581.278,448.928,583.708,454.081Z" transform="translate(-3.977 -15.71)" fill="#e3e3e4"/>
    <path id="Path_14424" data-name="Path 14424" d="M582.714,462.931l-6.565.038c-.065-.911-.27-3.807-.428-6.533h6.34Z" transform="translate(-4.061 -18.065)" opacity="0.5" fill="url(#linear-gradient-25)" style="mix-blend-mode: multiply;isolation: isolate"/>
    <path id="Path_14425" data-name="Path 14425" d="M579.844,440.693c.479.312,2.782,1.82,4.467,3.078a31.952,31.952,0,0,0,3.228,1.992,16.491,16.491,0,0,1,2.847,1.828c.736.736,4.41,6.867,6.459,10.359l-6.733.04c-1.506-3.669-4.032-8.538-5.257-9.878-1.582-1.73-7.826-7.285-7.826-7.285l2.542-.38Z" transform="translate(-4.462 -13.165)" fill="url(#linear-gradient-26)"/>
    <path id="Path_14426" data-name="Path 14426" d="M576.544,440.828l2.542-.38.273.245c.479.312,2.782,1.82,4.467,3.078a31.951,31.951,0,0,0,3.228,1.992,16.489,16.489,0,0,1,2.847,1.828c.736.736,4.41,6.867,6.459,10.359l-20.3.118c-.123-1.712-.742-10.432-.6-11.861C575.63,444.62,576.544,440.828,576.544,440.828Z" transform="translate(-3.977 -13.165)" fill="#911" opacity="0.5" style="mix-blend-mode: screen;isolation: isolate"/>
    <path id="Path_14428" data-name="Path 14428" d="M1026.619,505.55a2.715,2.715,0,0,1,2.44,1.546,9.621,9.621,0,0,0-5.152,1.4c-.006-.062-.011-.123-.011-.186A2.743,2.743,0,0,1,1026.619,505.55Z" transform="translate(-141.427 -33.119)" opacity="0.2" style="mix-blend-mode: multiply;isolation: isolate"/>
    <g id="wheel-2" data-name="wheel" transform="translate(837.485 444.543) rotate(50)">
      <path id="Path_14293-2" data-name="Path 14293" d="M633.254,502.678a23.492,23.492,0,1,1,23.491,23.493A23.493,23.493,0,0,1,633.254,502.678Z" transform="translate(-633.254 -479.185)" fill="#26231f"/>
      <path id="Path_14294-2" data-name="Path 14294" d="M635.14,503.256a22.184,22.184,0,1,1,22.183,22.184A22.184,22.184,0,0,1,635.14,503.256Z" transform="translate(-633.832 -479.763)" fill="#3f3932"/>
      <path id="Path_14295-2" data-name="Path 14295" d="M639.423,502.958a17.6,17.6,0,1,1,17.6,17.6A17.6,17.6,0,0,1,639.423,502.958Z" transform="translate(-633.534 -479.465)" fill="url(#linear-gradient-3)"/>
      <path id="Path_14296-2" data-name="Path 14296" d="M645.637,506.474a14.9,14.9,0,1,1,14.905,14.9A14.905,14.905,0,0,1,645.637,506.474Z" transform="translate(-637.049 -482.981)" fill="#a8a8a8"/>
      <path id="Path_14297-2" data-name="Path 14297" d="M651.523,508.278A10.823,10.823,0,1,1,662.346,519.1,10.822,10.822,0,0,1,651.523,508.278Z" transform="translate(-638.854 -484.785)" fill="#e2e2e2"/>
    </g>
  </g>
</svg>
