<svg xmlns="http://www.w3.org/2000/svg" width="52" height="52" viewBox="0 0 52 52" class="icon">
  <g transform="translate(-396.868 -362.313)">
    <path  d="M413.686,374.254c-8.888,0-16.12,6.165-16.12,13.743a12.384,12.384,0,0,0,3.545,8.634l0,0,0,0a5.214,5.214,0,0,1,1.473,3.662,6.52,6.52,0,0,1,2-.328,5.51,5.51,0,0,1,2.032.38h.006a18.861,18.861,0,0,0,7.058,1.389c8.888,0,16.12-6.165,16.12-13.745s-7.232-13.743-16.12-13.743m0-4.666c11.479,0,20.786,8.242,20.786,18.41s-9.307,18.411-20.786,18.411a23.417,23.417,0,0,1-8.774-1.716.893.893,0,0,0-.322-.055c-1.569,0-4.921,3.126-6.8,3.126a1.16,1.16,0,0,1-.7-.209c-1.973-1.66,1.569-6.761.7-7.646A17.091,17.091,0,0,1,392.9,388C392.9,377.83,402.206,369.588,413.686,369.588Z" transform="translate(8.967 -0.274)" fill="#522613"/>
    <circle cx="2.4" cy="2.4" r="2.4" transform="translate(413 386)" fill="#522613"/>
    <circle cx="2.4" cy="2.4" r="2.4" transform="translate(420 386)" fill="#522613"/>
    <circle cx="2.4" cy="2.4" r="2.4" transform="translate(427 386)" fill="#522613"/>
  </g>
</svg>
